%TF.GenerationSoftware,KiCad,Pcbnew,7.0.8*%
%TF.CreationDate,2024-04-10T13:39:31+02:00*%
%TF.ProjectId,Expansion_Card_Retrofit,45787061-6e73-4696-9f6e-5f436172645f,X1*%
%TF.SameCoordinates,Original*%
%TF.FileFunction,Copper,L1,Top*%
%TF.FilePolarity,Positive*%
%FSLAX46Y46*%
G04 Gerber Fmt 4.6, Leading zero omitted, Abs format (unit mm)*
G04 Created by KiCad (PCBNEW 7.0.8) date 2024-04-10 13:39:31*
%MOMM*%
%LPD*%
G01*
G04 APERTURE LIST*
G04 Aperture macros list*
%AMRoundRect*
0 Rectangle with rounded corners*
0 $1 Rounding radius*
0 $2 $3 $4 $5 $6 $7 $8 $9 X,Y pos of 4 corners*
0 Add a 4 corners polygon primitive as box body*
4,1,4,$2,$3,$4,$5,$6,$7,$8,$9,$2,$3,0*
0 Add four circle primitives for the rounded corners*
1,1,$1+$1,$2,$3*
1,1,$1+$1,$4,$5*
1,1,$1+$1,$6,$7*
1,1,$1+$1,$8,$9*
0 Add four rect primitives between the rounded corners*
20,1,$1+$1,$2,$3,$4,$5,0*
20,1,$1+$1,$4,$5,$6,$7,0*
20,1,$1+$1,$6,$7,$8,$9,0*
20,1,$1+$1,$8,$9,$2,$3,0*%
G04 Aperture macros list end*
%TA.AperFunction,SMDPad,CuDef*%
%ADD10R,0.300000X1.700000*%
%TD*%
%TA.AperFunction,SMDPad,CuDef*%
%ADD11R,0.600000X0.300000*%
%TD*%
%TA.AperFunction,SMDPad,CuDef*%
%ADD12RoundRect,0.050000X0.050000X-0.387500X0.050000X0.387500X-0.050000X0.387500X-0.050000X-0.387500X0*%
%TD*%
%TA.AperFunction,SMDPad,CuDef*%
%ADD13RoundRect,0.050000X0.387500X-0.050000X0.387500X0.050000X-0.387500X0.050000X-0.387500X-0.050000X0*%
%TD*%
%TA.AperFunction,SMDPad,CuDef*%
%ADD14R,3.200000X3.200000*%
%TD*%
%TA.AperFunction,SMDPad,CuDef*%
%ADD15R,0.600000X0.420000*%
%TD*%
%TA.AperFunction,SMDPad,CuDef*%
%ADD16RoundRect,0.140000X-0.140000X-0.170000X0.140000X-0.170000X0.140000X0.170000X-0.140000X0.170000X0*%
%TD*%
%TA.AperFunction,SMDPad,CuDef*%
%ADD17RoundRect,0.147500X-0.147500X-0.172500X0.147500X-0.172500X0.147500X0.172500X-0.147500X0.172500X0*%
%TD*%
%TA.AperFunction,SMDPad,CuDef*%
%ADD18RoundRect,0.140000X-0.170000X0.140000X-0.170000X-0.140000X0.170000X-0.140000X0.170000X0.140000X0*%
%TD*%
%TA.AperFunction,SMDPad,CuDef*%
%ADD19RoundRect,0.140000X0.170000X-0.140000X0.170000X0.140000X-0.170000X0.140000X-0.170000X-0.140000X0*%
%TD*%
%TA.AperFunction,SMDPad,CuDef*%
%ADD20R,0.380000X1.000000*%
%TD*%
%TA.AperFunction,SMDPad,CuDef*%
%ADD21R,0.700000X1.150000*%
%TD*%
%TA.AperFunction,SMDPad,CuDef*%
%ADD22RoundRect,0.050000X-0.050000X-0.387500X0.050000X-0.387500X0.050000X0.387500X-0.050000X0.387500X0*%
%TD*%
%TA.AperFunction,SMDPad,CuDef*%
%ADD23RoundRect,0.050000X-0.387500X-0.050000X0.387500X-0.050000X0.387500X0.050000X-0.387500X0.050000X0*%
%TD*%
%TA.AperFunction,SMDPad,CuDef*%
%ADD24R,0.425000X0.400000*%
%TD*%
%TA.AperFunction,SMDPad,CuDef*%
%ADD25R,1.150000X0.950000*%
%TD*%
%TA.AperFunction,SMDPad,CuDef*%
%ADD26R,0.800000X0.480000*%
%TD*%
%TA.AperFunction,SMDPad,CuDef*%
%ADD27RoundRect,0.250000X-0.250000X-1.000000X0.250000X-1.000000X0.250000X1.000000X-0.250000X1.000000X0*%
%TD*%
%TA.AperFunction,SMDPad,CuDef*%
%ADD28R,1.500000X1.500000*%
%TD*%
%TA.AperFunction,SMDPad,CuDef*%
%ADD29RoundRect,0.200000X0.200000X0.250000X-0.200000X0.250000X-0.200000X-0.250000X0.200000X-0.250000X0*%
%TD*%
%TA.AperFunction,SMDPad,CuDef*%
%ADD30RoundRect,0.200000X0.200000X0.275000X-0.200000X0.275000X-0.200000X-0.275000X0.200000X-0.275000X0*%
%TD*%
%TA.AperFunction,SMDPad,CuDef*%
%ADD31R,0.300000X0.600000*%
%TD*%
%TA.AperFunction,SMDPad,CuDef*%
%ADD32R,1.700000X0.300000*%
%TD*%
%TA.AperFunction,SMDPad,CuDef*%
%ADD33R,0.250000X0.400000*%
%TD*%
%TA.AperFunction,SMDPad,CuDef*%
%ADD34R,0.700000X0.400000*%
%TD*%
%TA.AperFunction,SMDPad,CuDef*%
%ADD35RoundRect,0.135000X-0.185000X0.135000X-0.185000X-0.135000X0.185000X-0.135000X0.185000X0.135000X0*%
%TD*%
%TA.AperFunction,SMDPad,CuDef*%
%ADD36RoundRect,0.140000X0.140000X0.170000X-0.140000X0.170000X-0.140000X-0.170000X0.140000X-0.170000X0*%
%TD*%
%TA.AperFunction,SMDPad,CuDef*%
%ADD37RoundRect,0.135000X0.135000X0.185000X-0.135000X0.185000X-0.135000X-0.185000X0.135000X-0.185000X0*%
%TD*%
%TA.AperFunction,SMDPad,CuDef*%
%ADD38RoundRect,0.135000X0.185000X-0.135000X0.185000X0.135000X-0.185000X0.135000X-0.185000X-0.135000X0*%
%TD*%
%TA.AperFunction,SMDPad,CuDef*%
%ADD39R,0.700000X1.100000*%
%TD*%
%TA.AperFunction,SMDPad,CuDef*%
%ADD40R,1.000000X0.800000*%
%TD*%
%TA.AperFunction,ViaPad*%
%ADD41C,0.300000*%
%TD*%
%TA.AperFunction,ViaPad*%
%ADD42C,0.400000*%
%TD*%
%TA.AperFunction,Conductor*%
%ADD43C,0.150000*%
%TD*%
%TA.AperFunction,Conductor*%
%ADD44C,0.200000*%
%TD*%
%TA.AperFunction,Conductor*%
%ADD45C,0.260000*%
%TD*%
G04 APERTURE END LIST*
D10*
%TO.P,U5,9,EXP*%
%TO.N,unconnected-(U5-EXP-Pad9)*%
X141800000Y-90800000D03*
D11*
%TO.P,U5,8,VCC*%
%TO.N,+3V3*%
X143050000Y-90050000D03*
%TO.P,U5,7,~{HOLD}/~{RESET}/IO3*%
%TO.N,/Debug Probe Section/QSPI_SD3*%
X143050000Y-90550000D03*
%TO.P,U5,6,CLK*%
%TO.N,/Debug Probe Section/QSPI_SCLK*%
X143050000Y-91050000D03*
%TO.P,U5,5,DI/IO0*%
%TO.N,/Debug Probe Section/QSPI_SD0*%
X143050000Y-91550000D03*
%TO.P,U5,4,GND*%
%TO.N,GND*%
X140550000Y-91550000D03*
%TO.P,U5,3,~{WP}/IO2*%
%TO.N,/Debug Probe Section/QSPI_SD2*%
X140550000Y-91050000D03*
%TO.P,U5,2,DO/IO1*%
%TO.N,/Debug Probe Section/QSPI_SD1*%
X140550000Y-90550000D03*
%TO.P,U5,1,~{CS}*%
%TO.N,/Debug Probe Section/QSPI_SS*%
X140550000Y-90050000D03*
%TD*%
D12*
%TO.P,U2,1,IOVDD*%
%TO.N,+3V3*%
X132700000Y-100137500D03*
%TO.P,U2,2,GPIO0*%
%TO.N,UART1_RX*%
X133100000Y-100137500D03*
%TO.P,U2,3,GPIO1*%
%TO.N,UART1_TX*%
X133500000Y-100137500D03*
%TO.P,U2,4,GPIO2*%
%TO.N,GPIO2*%
X133900000Y-100137500D03*
%TO.P,U2,5,GPIO3*%
%TO.N,GPIO3*%
X134300000Y-100137500D03*
%TO.P,U2,6,GPIO4*%
%TO.N,GPIO4*%
X134700000Y-100137500D03*
%TO.P,U2,7,GPIO5*%
%TO.N,GPIO5*%
X135100000Y-100137500D03*
%TO.P,U2,8,GPIO6*%
%TO.N,unconnected-(U2-GPIO6-Pad8)*%
X135500000Y-100137500D03*
%TO.P,U2,9,GPIO7*%
%TO.N,unconnected-(U2-GPIO7-Pad9)*%
X135900000Y-100137500D03*
%TO.P,U2,10,IOVDD*%
%TO.N,+3V3*%
X136300000Y-100137500D03*
%TO.P,U2,11,GPIO8*%
%TO.N,unconnected-(U2-GPIO8-Pad11)*%
X136700000Y-100137500D03*
%TO.P,U2,12,GPIO9*%
%TO.N,unconnected-(U2-GPIO9-Pad12)*%
X137100000Y-100137500D03*
%TO.P,U2,13,GPIO10*%
%TO.N,unconnected-(U2-GPIO10-Pad13)*%
X137500000Y-100137500D03*
%TO.P,U2,14,GPIO11*%
%TO.N,unconnected-(U2-GPIO11-Pad14)*%
X137900000Y-100137500D03*
D13*
%TO.P,U2,15,GPIO12*%
%TO.N,unconnected-(U2-GPIO12-Pad15)*%
X138737500Y-99300000D03*
%TO.P,U2,16,GPIO13*%
%TO.N,unconnected-(U2-GPIO13-Pad16)*%
X138737500Y-98900000D03*
%TO.P,U2,17,GPIO14*%
%TO.N,unconnected-(U2-GPIO14-Pad17)*%
X138737500Y-98500000D03*
%TO.P,U2,18,GPIO15*%
%TO.N,unconnected-(U2-GPIO15-Pad18)*%
X138737500Y-98100000D03*
%TO.P,U2,19,TESTEN*%
%TO.N,GND*%
X138737500Y-97700000D03*
%TO.P,U2,20,XIN*%
%TO.N,OSC_OUT*%
X138737500Y-97300000D03*
%TO.P,U2,21,XOUT*%
%TO.N,unconnected-(U2-XOUT-Pad21)*%
X138737500Y-96900000D03*
%TO.P,U2,22,IOVDD*%
%TO.N,+3V3*%
X138737500Y-96500000D03*
%TO.P,U2,23,DVDD*%
%TO.N,/Development Board Section/1V1_CORE*%
X138737500Y-96100000D03*
%TO.P,U2,24,SWCLK*%
%TO.N,SWCLK*%
X138737500Y-95700000D03*
%TO.P,U2,25,SWD*%
%TO.N,SWDIO*%
X138737500Y-95300000D03*
%TO.P,U2,26,RUN*%
%TO.N,/Development Board Section/RUN*%
X138737500Y-94900000D03*
%TO.P,U2,27,GPIO16*%
%TO.N,unconnected-(U2-GPIO16-Pad27)*%
X138737500Y-94500000D03*
%TO.P,U2,28,GPIO17*%
%TO.N,unconnected-(U2-GPIO17-Pad28)*%
X138737500Y-94100000D03*
D12*
%TO.P,U2,29,GPIO18*%
%TO.N,unconnected-(U2-GPIO18-Pad29)*%
X137900000Y-93262500D03*
%TO.P,U2,30,GPIO19*%
%TO.N,unconnected-(U2-GPIO19-Pad30)*%
X137500000Y-93262500D03*
%TO.P,U2,31,GPIO20*%
%TO.N,unconnected-(U2-GPIO20-Pad31)*%
X137100000Y-93262500D03*
%TO.P,U2,32,GPIO21*%
%TO.N,unconnected-(U2-GPIO21-Pad32)*%
X136700000Y-93262500D03*
%TO.P,U2,33,IOVDD*%
%TO.N,+3V3*%
X136300000Y-93262500D03*
%TO.P,U2,34,GPIO22*%
%TO.N,unconnected-(U2-GPIO22-Pad34)*%
X135900000Y-93262500D03*
%TO.P,U2,35,GPIO23*%
%TO.N,unconnected-(U2-GPIO23-Pad35)*%
X135500000Y-93262500D03*
%TO.P,U2,36,GPIO24*%
%TO.N,unconnected-(U2-GPIO24-Pad36)*%
X135100000Y-93262500D03*
%TO.P,U2,37,GPIO25*%
%TO.N,LED_EN*%
X134700000Y-93262500D03*
%TO.P,U2,38,GPIO26_ADC0*%
%TO.N,GPIO_ADC0*%
X134300000Y-93262500D03*
%TO.P,U2,39,GPIO27_ADC1*%
%TO.N,GPIO_ADC1*%
X133900000Y-93262500D03*
%TO.P,U2,40,GPIO28_ADC2*%
%TO.N,unconnected-(U2-GPIO28_ADC2-Pad40)*%
X133500000Y-93262500D03*
%TO.P,U2,41,GPIO29_ADC3*%
%TO.N,/Development Board Section/GPIO_ADC3*%
X133100000Y-93262500D03*
%TO.P,U2,42,IOVDD*%
%TO.N,+3V3*%
X132700000Y-93262500D03*
D13*
%TO.P,U2,43,ADC_AVDD*%
%TO.N,/Development Board Section/ADC_VREF*%
X131862500Y-94100000D03*
%TO.P,U2,44,VREG_IN*%
%TO.N,+3V3*%
X131862500Y-94500000D03*
%TO.P,U2,45,VREG_VOUT*%
%TO.N,/Development Board Section/1V1_CORE*%
X131862500Y-94900000D03*
%TO.P,U2,46,USB_DM*%
%TO.N,unconnected-(U2-USB_DM-Pad46)*%
X131862500Y-95300000D03*
%TO.P,U2,47,USB_DP*%
%TO.N,unconnected-(U2-USB_DP-Pad47)*%
X131862500Y-95700000D03*
%TO.P,U2,48,USB_VDD*%
%TO.N,+3V3*%
X131862500Y-96100000D03*
%TO.P,U2,49,IOVDD*%
X131862500Y-96500000D03*
%TO.P,U2,50,DVDD*%
%TO.N,/Development Board Section/1V1_CORE*%
X131862500Y-96900000D03*
%TO.P,U2,51,QSPI_SD3*%
%TO.N,/Development Board Section/QSPI_SD3*%
X131862500Y-97300000D03*
%TO.P,U2,52,QSPI_SCLK*%
%TO.N,/Development Board Section/QSPI_SCLK*%
X131862500Y-97700000D03*
%TO.P,U2,53,QSPI_SD0*%
%TO.N,/Development Board Section/QSPI_SD0*%
X131862500Y-98100000D03*
%TO.P,U2,54,QSPI_SD2*%
%TO.N,/Development Board Section/QSPI_SD2*%
X131862500Y-98500000D03*
%TO.P,U2,55,QSPI_SD1*%
%TO.N,/Development Board Section/QSPI_SD1*%
X131862500Y-98900000D03*
%TO.P,U2,56,QSPI_SS*%
%TO.N,/Development Board Section/QSPI_SS*%
X131862500Y-99300000D03*
D14*
%TO.P,U2,57,GND*%
%TO.N,GND*%
X135300000Y-96700000D03*
%TD*%
D15*
%TO.P,Q3,1,C2*%
%TO.N,SWCLK*%
X135850000Y-105550000D03*
%TO.P,Q3,2,E2*%
%TO.N,GPIO2*%
X135850000Y-104900000D03*
%TO.P,Q3,3,C1*%
%TO.N,SWDIO*%
X135850000Y-104250000D03*
%TO.P,Q3,4,E1*%
%TO.N,GPIO3*%
X133950000Y-104250000D03*
%TO.P,Q3,5,B1*%
%TO.N,DEV_ENABLE*%
X133950000Y-104900000D03*
%TO.P,Q3,6,B2*%
X133950000Y-105550000D03*
%TD*%
D16*
%TO.P,C24,1*%
%TO.N,+3V3*%
X136320000Y-91600000D03*
%TO.P,C24,2*%
%TO.N,GND*%
X137280000Y-91600000D03*
%TD*%
D17*
%TO.P,D1,1,K*%
%TO.N,GND*%
X150815000Y-114212500D03*
%TO.P,D1,2,A*%
%TO.N,Net-(D1-A)*%
X151785000Y-114212500D03*
%TD*%
D18*
%TO.P,C19,2*%
%TO.N,GND*%
X140300000Y-99280000D03*
%TO.P,C19,1*%
%TO.N,+3V3*%
X140300000Y-98320000D03*
%TD*%
D19*
%TO.P,C6,1*%
%TO.N,+3V3*%
X130200000Y-96080000D03*
%TO.P,C6,2*%
%TO.N,GND*%
X130200000Y-95120000D03*
%TD*%
%TO.P,C1,1*%
%TO.N,VBUS*%
X135000000Y-89180000D03*
%TO.P,C1,2*%
%TO.N,GND*%
X135000000Y-88220000D03*
%TD*%
D20*
%TO.P,P1,A1,GND*%
%TO.N,GND*%
X137550000Y-87090000D03*
%TO.P,P1,A2*%
%TO.N,N/C*%
X138050000Y-87090000D03*
%TO.P,P1,A3*%
X138550000Y-87090000D03*
%TO.P,P1,A4,VBUS*%
%TO.N,VBUS*%
X139050000Y-87090000D03*
%TO.P,P1,A5,CC*%
%TO.N,Net-(P1-CC)*%
X139550000Y-87090000D03*
%TO.P,P1,A6,D+*%
%TO.N,USB_D_P*%
X140050000Y-87090000D03*
%TO.P,P1,A7,D-*%
%TO.N,USB_D_N*%
X140550000Y-87090000D03*
%TO.P,P1,A8*%
%TO.N,N/C*%
X141050000Y-87090000D03*
%TO.P,P1,A9,VBUS*%
%TO.N,VBUS*%
X141550000Y-87090000D03*
%TO.P,P1,A10*%
%TO.N,N/C*%
X142050000Y-87090000D03*
%TO.P,P1,A11*%
X142550000Y-87090000D03*
%TO.P,P1,A12,GND*%
%TO.N,GND*%
X143050000Y-87090000D03*
D21*
%TO.P,P1,S1,SHIELD*%
X136880000Y-87930000D03*
%TD*%
D14*
%TO.P,U4,57,GND*%
%TO.N,GND*%
X145300000Y-96700000D03*
D22*
%TO.P,U4,56,QSPI_SS*%
%TO.N,/Debug Probe Section/QSPI_SS*%
X142700000Y-93262500D03*
%TO.P,U4,55,QSPI_SD1*%
%TO.N,/Debug Probe Section/QSPI_SD1*%
X143100000Y-93262500D03*
%TO.P,U4,54,QSPI_SD2*%
%TO.N,/Debug Probe Section/QSPI_SD2*%
X143500000Y-93262500D03*
%TO.P,U4,53,QSPI_SD0*%
%TO.N,/Debug Probe Section/QSPI_SD0*%
X143900000Y-93262500D03*
%TO.P,U4,52,QSPI_SCLK*%
%TO.N,/Debug Probe Section/QSPI_SCLK*%
X144300000Y-93262500D03*
%TO.P,U4,51,QSPI_SD3*%
%TO.N,/Debug Probe Section/QSPI_SD3*%
X144700000Y-93262500D03*
%TO.P,U4,50,DVDD*%
%TO.N,/Debug Probe Section/1V1_CORE*%
X145100000Y-93262500D03*
%TO.P,U4,49,IOVDD*%
%TO.N,+3V3*%
X145500000Y-93262500D03*
%TO.P,U4,48,USB_VDD*%
X145900000Y-93262500D03*
%TO.P,U4,47,USB_DP*%
%TO.N,Net-(U4-USB_DP)*%
X146300000Y-93262500D03*
%TO.P,U4,46,USB_DM*%
%TO.N,Net-(U4-USB_DM)*%
X146700000Y-93262500D03*
%TO.P,U4,45,VREG_VOUT*%
%TO.N,/Debug Probe Section/1V1_CORE*%
X147100000Y-93262500D03*
%TO.P,U4,44,VREG_IN*%
%TO.N,+3V3*%
X147500000Y-93262500D03*
%TO.P,U4,43,ADC_AVDD*%
%TO.N,unconnected-(U4-ADC_AVDD-Pad43)*%
X147900000Y-93262500D03*
D23*
%TO.P,U4,42,IOVDD*%
%TO.N,+3V3*%
X148737500Y-94100000D03*
%TO.P,U4,41,GPIO29_ADC3*%
%TO.N,unconnected-(U4-GPIO29_ADC3-Pad41)*%
X148737500Y-94500000D03*
%TO.P,U4,40,GPIO28_ADC2*%
%TO.N,unconnected-(U4-GPIO28_ADC2-Pad40)*%
X148737500Y-94900000D03*
%TO.P,U4,39,GPIO27_ADC1*%
%TO.N,unconnected-(U4-GPIO27_ADC1-Pad39)*%
X148737500Y-95300000D03*
%TO.P,U4,38,GPIO26_ADC0*%
%TO.N,unconnected-(U4-GPIO26_ADC0-Pad38)*%
X148737500Y-95700000D03*
%TO.P,U4,37,GPIO25*%
%TO.N,/Debug Probe Section/LED_INT_EN*%
X148737500Y-96100000D03*
%TO.P,U4,36,GPIO24*%
%TO.N,unconnected-(U4-GPIO24-Pad36)*%
X148737500Y-96500000D03*
%TO.P,U4,35,GPIO23*%
%TO.N,unconnected-(U4-GPIO23-Pad35)*%
X148737500Y-96900000D03*
%TO.P,U4,34,GPIO22*%
%TO.N,unconnected-(U4-GPIO22-Pad34)*%
X148737500Y-97300000D03*
%TO.P,U4,33,IOVDD*%
%TO.N,+3V3*%
X148737500Y-97700000D03*
%TO.P,U4,32,GPIO21*%
%TO.N,unconnected-(U4-GPIO21-Pad32)*%
X148737500Y-98100000D03*
%TO.P,U4,31,GPIO20*%
%TO.N,unconnected-(U4-GPIO20-Pad31)*%
X148737500Y-98500000D03*
%TO.P,U4,30,GPIO19*%
%TO.N,unconnected-(U4-GPIO19-Pad30)*%
X148737500Y-98900000D03*
%TO.P,U4,29,GPIO18*%
%TO.N,unconnected-(U4-GPIO18-Pad29)*%
X148737500Y-99300000D03*
D22*
%TO.P,U4,28,GPIO17*%
%TO.N,unconnected-(U4-GPIO17-Pad28)*%
X147900000Y-100137500D03*
%TO.P,U4,27,GPIO16*%
%TO.N,unconnected-(U4-GPIO16-Pad27)*%
X147500000Y-100137500D03*
%TO.P,U4,26,RUN*%
%TO.N,unconnected-(U4-RUN-Pad26)*%
X147100000Y-100137500D03*
%TO.P,U4,25,SWD*%
%TO.N,unconnected-(U4-SWD-Pad25)*%
X146700000Y-100137500D03*
%TO.P,U4,24,SWCLK*%
%TO.N,unconnected-(U4-SWCLK-Pad24)*%
X146300000Y-100137500D03*
%TO.P,U4,23,DVDD*%
%TO.N,/Debug Probe Section/1V1_CORE*%
X145900000Y-100137500D03*
%TO.P,U4,22,IOVDD*%
%TO.N,+3V3*%
X145500000Y-100137500D03*
%TO.P,U4,21,XOUT*%
%TO.N,unconnected-(U4-XOUT-Pad21)*%
X145100000Y-100137500D03*
%TO.P,U4,20,XIN*%
%TO.N,OSC_OUT*%
X144700000Y-100137500D03*
%TO.P,U4,19,TESTEN*%
%TO.N,GND*%
X144300000Y-100137500D03*
%TO.P,U4,18,GPIO15*%
%TO.N,unconnected-(U4-GPIO15-Pad18)*%
X143900000Y-100137500D03*
%TO.P,U4,17,GPIO14*%
%TO.N,unconnected-(U4-GPIO14-Pad17)*%
X143500000Y-100137500D03*
%TO.P,U4,16,GPIO13*%
%TO.N,unconnected-(U4-GPIO13-Pad16)*%
X143100000Y-100137500D03*
%TO.P,U4,15,GPIO12*%
%TO.N,unconnected-(U4-GPIO12-Pad15)*%
X142700000Y-100137500D03*
D23*
%TO.P,U4,14,GPIO11*%
%TO.N,unconnected-(U4-GPIO11-Pad14)*%
X141862500Y-99300000D03*
%TO.P,U4,13,GPIO10*%
%TO.N,unconnected-(U4-GPIO10-Pad13)*%
X141862500Y-98900000D03*
%TO.P,U4,12,GPIO9*%
%TO.N,unconnected-(U4-GPIO9-Pad12)*%
X141862500Y-98500000D03*
%TO.P,U4,11,GPIO8*%
%TO.N,unconnected-(U4-GPIO8-Pad11)*%
X141862500Y-98100000D03*
%TO.P,U4,10,IOVDD*%
%TO.N,+3V3*%
X141862500Y-97700000D03*
%TO.P,U4,9,GPIO7*%
%TO.N,unconnected-(U4-GPIO7-Pad9)*%
X141862500Y-97300000D03*
%TO.P,U4,8,GPIO6*%
%TO.N,unconnected-(U4-GPIO6-Pad8)*%
X141862500Y-96900000D03*
%TO.P,U4,7,GPIO5*%
%TO.N,unconnected-(U4-GPIO5-Pad7)*%
X141862500Y-96500000D03*
%TO.P,U4,6,GPIO4*%
%TO.N,unconnected-(U4-GPIO4-Pad6)*%
X141862500Y-96100000D03*
%TO.P,U4,5,GPIO3*%
%TO.N,SWDIO*%
X141862500Y-95700000D03*
%TO.P,U4,4,GPIO2*%
%TO.N,SWCLK*%
X141862500Y-95300000D03*
%TO.P,U4,3,GPIO1*%
%TO.N,unconnected-(U4-GPIO1-Pad3)*%
X141862500Y-94900000D03*
%TO.P,U4,2,GPIO0*%
%TO.N,unconnected-(U4-GPIO0-Pad2)*%
X141862500Y-94500000D03*
%TO.P,U4,1,IOVDD*%
%TO.N,+3V3*%
X141862500Y-94100000D03*
%TD*%
D19*
%TO.P,C14,2*%
%TO.N,GND*%
X149200000Y-90620000D03*
%TO.P,C14,1*%
%TO.N,/Debug Probe Section/1V1_CORE*%
X149200000Y-91580000D03*
%TD*%
%TO.P,C7,1*%
%TO.N,/Development Board Section/1V1_CORE*%
X128700000Y-93780000D03*
%TO.P,C7,2*%
%TO.N,GND*%
X128700000Y-92820000D03*
%TD*%
%TO.P,C9,1*%
%TO.N,Net-(C9-Pad1)*%
X128700000Y-91480000D03*
%TO.P,C9,2*%
%TO.N,GND*%
X128700000Y-90520000D03*
%TD*%
D24*
%TO.P,U1,1,EN*%
%TO.N,VBUS*%
X132337500Y-88950000D03*
%TO.P,U1,2,GND*%
%TO.N,GND*%
X132337500Y-88300000D03*
%TO.P,U1,3,VIN*%
%TO.N,VBUS*%
X132337500Y-87650000D03*
%TO.P,U1,4,VOUT*%
%TO.N,+3V3*%
X130462500Y-87650000D03*
%TO.P,U1,5,NC*%
%TO.N,unconnected-(U1-NC-Pad5)*%
X130462500Y-88300000D03*
%TO.P,U1,6,NC*%
%TO.N,unconnected-(U1-NC-Pad6)*%
X130462500Y-88950000D03*
D25*
%TO.P,U1,7*%
%TO.N,N/C*%
X131400000Y-88625000D03*
D26*
%TO.P,U1,8*%
X131400000Y-87600000D03*
%TD*%
D19*
%TO.P,C8,1*%
%TO.N,+3V3*%
X130200000Y-93780000D03*
%TO.P,C8,2*%
%TO.N,GND*%
X130200000Y-92820000D03*
%TD*%
D18*
%TO.P,C22,1*%
%TO.N,+3V3*%
X136600000Y-101720000D03*
%TO.P,C22,2*%
%TO.N,GND*%
X136600000Y-102680000D03*
%TD*%
D27*
%TO.P,J1,1,Pin_1*%
%TO.N,VBUS*%
X138120000Y-105025000D03*
%TO.P,J1,3,Pin_3*%
%TO.N,GND*%
X140660000Y-105025000D03*
%TO.P,J1,5,Pin_5*%
%TO.N,GPIO_ADC1*%
X143200000Y-105025000D03*
%TO.P,J1,7,Pin_7*%
%TO.N,GPIO_ADC0*%
X145740000Y-105025000D03*
%TO.P,J1,9,Pin_9*%
%TO.N,GND*%
X148280000Y-105025000D03*
%TD*%
D28*
%TO.P,TP3,1,1*%
%TO.N,GND*%
X146000000Y-86050000D03*
%TD*%
%TO.P,TP1,1,1*%
%TO.N,GND*%
X134600000Y-86050000D03*
%TD*%
D29*
%TO.P,X1,1,Tri-State*%
%TO.N,unconnected-(X1-Tri-State-Pad1)*%
X151825000Y-101125000D03*
%TO.P,X1,2,GND*%
%TO.N,GND*%
X151825000Y-99275000D03*
%TO.P,X1,3,OUT*%
%TO.N,OSC_OUT*%
X150375000Y-99275000D03*
%TO.P,X1,4,VDD*%
%TO.N,+3V3*%
X150375000Y-101125000D03*
%TD*%
D19*
%TO.P,C18,1*%
%TO.N,Net-(Q1-D)*%
X142800000Y-102680000D03*
%TO.P,C18,2*%
%TO.N,GND*%
X142800000Y-101720000D03*
%TD*%
%TO.P,C11,1*%
%TO.N,+3V3*%
X128700000Y-96080000D03*
%TO.P,C11,2*%
%TO.N,GND*%
X128700000Y-95120000D03*
%TD*%
%TO.P,C5,1*%
%TO.N,/Development Board Section/1V1_CORE*%
X140300000Y-96880000D03*
%TO.P,C5,2*%
%TO.N,GND*%
X140300000Y-95920000D03*
%TD*%
D30*
%TO.P,R11,1*%
%TO.N,+3V3*%
X133525000Y-91300000D03*
%TO.P,R11,2*%
%TO.N,/Development Board Section/ADC_VREF*%
X131875000Y-91300000D03*
%TD*%
D31*
%TO.P,U3,1,~{CS}*%
%TO.N,/Development Board Section/QSPI_SS*%
X128650000Y-100150000D03*
%TO.P,U3,2,DO/IO1*%
%TO.N,/Development Board Section/QSPI_SD1*%
X129150000Y-100150000D03*
%TO.P,U3,3,~{WP}/IO2*%
%TO.N,/Development Board Section/QSPI_SD2*%
X129650000Y-100150000D03*
%TO.P,U3,4,GND*%
%TO.N,GND*%
X130150000Y-100150000D03*
%TO.P,U3,5,DI/IO0*%
%TO.N,/Development Board Section/QSPI_SD0*%
X130150000Y-97650000D03*
%TO.P,U3,6,CLK*%
%TO.N,/Development Board Section/QSPI_SCLK*%
X129650000Y-97650000D03*
%TO.P,U3,7,~{HOLD}/~{RESET}/IO3*%
%TO.N,/Development Board Section/QSPI_SD3*%
X129150000Y-97650000D03*
%TO.P,U3,8,VCC*%
%TO.N,+3V3*%
X128650000Y-97650000D03*
D32*
%TO.P,U3,9,EXP*%
%TO.N,unconnected-(U3-EXP-Pad9)*%
X129400000Y-98900000D03*
%TD*%
D19*
%TO.P,C16,2*%
%TO.N,GND*%
X140300000Y-93520000D03*
%TO.P,C16,1*%
%TO.N,+3V3*%
X140300000Y-94480000D03*
%TD*%
D33*
%TO.P,Q2,1,S*%
%TO.N,+3V3*%
X132075000Y-105850000D03*
%TO.P,Q2,2,G*%
%TO.N,DEV_ENABLE*%
X132525000Y-105850000D03*
D34*
%TO.P,Q2,3,D*%
%TO.N,/Development Board Section/RUN*%
X132300000Y-105150000D03*
%TD*%
D35*
%TO.P,R12,1*%
%TO.N,/Development Board Section/ADC_VREF*%
X130200000Y-90490000D03*
%TO.P,R12,2*%
%TO.N,Net-(C9-Pad1)*%
X130200000Y-91510000D03*
%TD*%
D19*
%TO.P,C21,2*%
%TO.N,GND*%
X150400000Y-96770000D03*
%TO.P,C21,1*%
%TO.N,+3V3*%
X150400000Y-97730000D03*
%TD*%
D18*
%TO.P,C20,2*%
%TO.N,GND*%
X146100000Y-102680000D03*
%TO.P,C20,1*%
%TO.N,+3V3*%
X146100000Y-101720000D03*
%TD*%
D16*
%TO.P,C2,1*%
%TO.N,+3V3*%
X130420000Y-86100000D03*
%TO.P,C2,2*%
%TO.N,GND*%
X131380000Y-86100000D03*
%TD*%
D35*
%TO.P,R1,1*%
%TO.N,Net-(P1-CC)*%
X138800000Y-89990000D03*
%TO.P,R1,2*%
%TO.N,GND*%
X138800000Y-91010000D03*
%TD*%
D33*
%TO.P,Q1,1,G*%
%TO.N,+3V3*%
X139925000Y-101750000D03*
%TO.P,Q1,2,S*%
%TO.N,/Development Board Section/GPIO_ADC3*%
X139475000Y-101750000D03*
D34*
%TO.P,Q1,3,D*%
%TO.N,Net-(Q1-D)*%
X139700000Y-102450000D03*
%TD*%
D36*
%TO.P,C10,1*%
%TO.N,+3V3*%
X132680000Y-101800000D03*
%TO.P,C10,2*%
%TO.N,GND*%
X131720000Y-101800000D03*
%TD*%
D37*
%TO.P,R17,1*%
%TO.N,/Debug Probe Section/LED_INT_EN*%
X149010000Y-88300000D03*
%TO.P,R17,2*%
%TO.N,Net-(D2-A)*%
X147990000Y-88300000D03*
%TD*%
D18*
%TO.P,C12,2*%
%TO.N,GND*%
X147600000Y-102680000D03*
%TO.P,C12,1*%
%TO.N,/Debug Probe Section/1V1_CORE*%
X147600000Y-101720000D03*
%TD*%
D38*
%TO.P,R15,1*%
%TO.N,VBUS*%
X138100000Y-102710000D03*
%TO.P,R15,2*%
%TO.N,Net-(Q1-D)*%
X138100000Y-101690000D03*
%TD*%
D19*
%TO.P,C13,2*%
%TO.N,GND*%
X144700000Y-90320000D03*
%TO.P,C13,1*%
%TO.N,+3V3*%
X144700000Y-91280000D03*
%TD*%
%TO.P,C15,2*%
%TO.N,GND*%
X150700000Y-90620000D03*
%TO.P,C15,1*%
%TO.N,+3V3*%
X150700000Y-91580000D03*
%TD*%
D39*
%TO.P,S1,1*%
%TO.N,+3V3*%
X129650000Y-111150000D03*
%TO.P,S1,2*%
%TO.N,DEV_ENABLE*%
X132650000Y-111150000D03*
%TO.P,S1,3*%
%TO.N,unconnected-(S1-Pad3)*%
X134150000Y-111150000D03*
D40*
%TO.P,S1,Z1*%
%TO.N,N/C*%
X135650000Y-114350000D03*
%TO.P,S1,Z2*%
X128150000Y-114350000D03*
%TO.P,S1,Z3*%
X128150000Y-112050000D03*
%TO.P,S1,Z4*%
X135650000Y-112050000D03*
%TD*%
D38*
%TO.P,R16,1*%
%TO.N,Net-(Q1-D)*%
X141300000Y-102710000D03*
%TO.P,R16,2*%
%TO.N,GND*%
X141300000Y-101690000D03*
%TD*%
D35*
%TO.P,R9,2*%
%TO.N,Net-(U4-USB_DP)*%
X146200000Y-91610000D03*
%TO.P,R9,1*%
%TO.N,USB_D_P*%
X146200000Y-90590000D03*
%TD*%
%TO.P,R10,2*%
%TO.N,Net-(U4-USB_DM)*%
X147700000Y-91610000D03*
%TO.P,R10,1*%
%TO.N,USB_D_N*%
X147700000Y-90590000D03*
%TD*%
D17*
%TO.P,D2,1,K*%
%TO.N,GND*%
X145615000Y-88300000D03*
%TO.P,D2,2,A*%
%TO.N,Net-(D2-A)*%
X146585000Y-88300000D03*
%TD*%
D35*
%TO.P,R4,1*%
%TO.N,LED_EN*%
X151800000Y-111552500D03*
%TO.P,R4,2*%
%TO.N,Net-(D1-A)*%
X151800000Y-112572500D03*
%TD*%
D41*
%TO.N,GND*%
X144700000Y-92200000D03*
X135800000Y-103400000D03*
X135200000Y-102800000D03*
X144200000Y-101400000D03*
X145500000Y-89900000D03*
X145500000Y-90900000D03*
X138500000Y-100700000D03*
X146900000Y-102100000D03*
X146900000Y-106000000D03*
X134300000Y-92200000D03*
X133200000Y-98100000D03*
X133700000Y-88700000D03*
X145200000Y-101800000D03*
X148800000Y-89300000D03*
X144300000Y-99000000D03*
X133200000Y-96900000D03*
X148900000Y-93500000D03*
X143000000Y-95800000D03*
X133100000Y-88400000D03*
X139000000Y-89200000D03*
X132400000Y-92200000D03*
X149500000Y-100000000D03*
X138400000Y-88000000D03*
X138900000Y-93500000D03*
X133200000Y-95700000D03*
X136300000Y-98800000D03*
X143000000Y-97300000D03*
X142000000Y-103800000D03*
X143000000Y-99000000D03*
X135100000Y-98800000D03*
X149700000Y-95400000D03*
X141300000Y-93400000D03*
X150500000Y-94500000D03*
X149900000Y-98400000D03*
X141000000Y-96200000D03*
X145300000Y-94600000D03*
X132700000Y-91300000D03*
X136500000Y-90100000D03*
X141100000Y-99800000D03*
X142000000Y-100300000D03*
X131800000Y-90300000D03*
X142100000Y-93400000D03*
X146900000Y-104000000D03*
X142000000Y-106000000D03*
X145700000Y-99000000D03*
X144500000Y-106000000D03*
X141000000Y-97000000D03*
X135200000Y-90100000D03*
X139400000Y-103600000D03*
X142200000Y-90200000D03*
X137700000Y-99200000D03*
X150200000Y-89300000D03*
X139400000Y-106000000D03*
X135600000Y-92200000D03*
X144500000Y-103700000D03*
X146900000Y-94600000D03*
X134000000Y-98800000D03*
X147300000Y-98700000D03*
X138500000Y-100000000D03*
X137900000Y-88500000D03*
X143000000Y-94400000D03*
X138900000Y-92200000D03*
D42*
X137900000Y-96900000D03*
D41*
X141300000Y-91200000D03*
D42*
%TO.N,+3V3*%
X145500000Y-101120000D03*
X132874500Y-99300000D03*
X145200000Y-91700000D03*
X132050500Y-106575500D03*
X149700000Y-97700000D03*
X130900000Y-96100000D03*
X133100000Y-92300000D03*
X141000000Y-94100000D03*
X132900000Y-89674500D03*
X136300000Y-92300000D03*
X149700000Y-93800000D03*
X136300000Y-100825500D03*
X139100000Y-105000000D03*
X140552455Y-101631409D03*
X141000000Y-97700000D03*
%TO.N,VBUS*%
X137800000Y-89180000D03*
X136700000Y-104600000D03*
D41*
%TO.N,/Development Board Section/GPIO_ADC3*%
X139475000Y-100900000D03*
X132914820Y-94700000D03*
%TO.N,LED_EN*%
X151800000Y-110900000D03*
X135000000Y-94700000D03*
%TO.N,GPIO2*%
X133900000Y-101400000D03*
X135200000Y-104700000D03*
%TO.N,GPIO3*%
X134800000Y-101800000D03*
%TO.N,GPIO4*%
X134700000Y-101100000D03*
%TO.N,GPIO5*%
X135400000Y-101100000D03*
%TO.N,SWCLK*%
X135200000Y-105400000D03*
X141000000Y-95100000D03*
X137700000Y-95700000D03*
%TO.N,SWDIO*%
X134600000Y-105900000D03*
X137300000Y-94600000D03*
%TO.N,/Development Board Section/RUN*%
X138000000Y-94700000D03*
X132300000Y-104400000D03*
%TO.N,GPIO_ADC0*%
X134304000Y-94700000D03*
X144000000Y-102500000D03*
%TO.N,GPIO_ADC1*%
X133600000Y-94700000D03*
X143400000Y-102200000D03*
%TD*%
D43*
%TO.N,/Debug Probe Section/QSPI_SD3*%
X143050000Y-90550000D02*
X143247488Y-90550000D01*
X143247488Y-90550000D02*
X144050000Y-91352512D01*
X144050000Y-91352512D02*
X144050000Y-92250000D01*
X144700000Y-92900000D02*
X144700000Y-93262500D01*
X144050000Y-92250000D02*
X144700000Y-92900000D01*
%TO.N,/Debug Probe Section/QSPI_SCLK*%
X144300000Y-93262500D02*
X144300000Y-92906802D01*
X144300000Y-92906802D02*
X143800000Y-92406802D01*
X143247488Y-91050000D02*
X143050000Y-91050000D01*
X143800000Y-92406802D02*
X143800000Y-91602512D01*
X143800000Y-91602512D02*
X143247488Y-91050000D01*
%TO.N,/Debug Probe Section/QSPI_SD0*%
X143050000Y-91550000D02*
X143050000Y-92050000D01*
X143050000Y-92050000D02*
X143900000Y-92900000D01*
X143900000Y-92900000D02*
X143900000Y-93262500D01*
%TO.N,SWCLK*%
X135200000Y-105400000D02*
X135350000Y-105550000D01*
X135350000Y-105550000D02*
X135850000Y-105550000D01*
D44*
%TO.N,VBUS*%
X136700000Y-104600000D02*
X137695000Y-104600000D01*
X137695000Y-104600000D02*
X138120000Y-105025000D01*
X138120000Y-105025000D02*
X138100000Y-105005000D01*
X138100000Y-105005000D02*
X138100000Y-102710000D01*
D43*
%TO.N,OSC_OUT*%
X144700000Y-101100000D02*
X144500000Y-100900000D01*
X144500000Y-100900000D02*
X140250000Y-100900000D01*
X140250000Y-100900000D02*
X139715000Y-100365000D01*
X144700000Y-101434620D02*
X144700000Y-101100000D01*
X139715000Y-100365000D02*
X139715000Y-97780380D01*
X139715000Y-97780380D02*
X139234620Y-97300000D01*
X139234620Y-97300000D02*
X138737500Y-97300000D01*
%TO.N,GPIO_ADC0*%
X145740000Y-104240000D02*
X145740000Y-105025000D01*
X144000000Y-102500000D02*
X145740000Y-104240000D01*
%TO.N,GPIO_ADC1*%
X143400000Y-104825000D02*
X143200000Y-105025000D01*
X143400000Y-102200000D02*
X143400000Y-104825000D01*
%TO.N,OSC_OUT*%
X144700000Y-100137500D02*
X144700000Y-101434620D01*
X145371343Y-103300000D02*
X148500000Y-103300000D01*
X149978248Y-100400000D02*
X149980332Y-100400000D01*
X144700000Y-101434620D02*
X144700000Y-102628657D01*
X144700000Y-102628657D02*
X145371343Y-103300000D01*
X148500000Y-103300000D02*
X149600000Y-102200000D01*
X149600000Y-102200000D02*
X149600000Y-100778248D01*
X149600000Y-100778248D02*
X149978248Y-100400000D01*
X149980332Y-100400000D02*
X150375000Y-100005332D01*
X150375000Y-100005332D02*
X150375000Y-99275000D01*
D44*
%TO.N,VBUS*%
X138120000Y-104320000D02*
X138120000Y-105025000D01*
D43*
%TO.N,SWDIO*%
X134600000Y-104700000D02*
X135050000Y-104250000D01*
X134600000Y-105900000D02*
X134600000Y-104700000D01*
X135050000Y-104250000D02*
X135850000Y-104250000D01*
D44*
%TO.N,VBUS*%
X137800000Y-89180000D02*
X135000000Y-89180000D01*
X137800000Y-89180000D02*
X137856397Y-89180000D01*
X137856397Y-89180000D02*
X139050000Y-87986397D01*
X139050000Y-87986397D02*
X139050000Y-87090000D01*
D43*
%TO.N,/Development Board Section/ADC_VREF*%
X131875000Y-91300000D02*
X131875000Y-91425000D01*
X131875000Y-91425000D02*
X131000000Y-92300000D01*
X131000000Y-92300000D02*
X131000000Y-93600000D01*
X131000000Y-93600000D02*
X131500000Y-94100000D01*
X131500000Y-94100000D02*
X131862500Y-94100000D01*
D44*
%TO.N,+3V3*%
X130580000Y-93780000D02*
X130200000Y-93780000D01*
X131300000Y-94500000D02*
X130580000Y-93780000D01*
X131862500Y-94500000D02*
X131300000Y-94500000D01*
D43*
%TO.N,/Development Board Section/QSPI_SS*%
X131200000Y-100807106D02*
X131200000Y-99600000D01*
X130707108Y-101299999D02*
X131200000Y-100807106D01*
X131200000Y-99600000D02*
X131500000Y-99300000D01*
X129602511Y-101299999D02*
X130707108Y-101299999D01*
X131500000Y-99300000D02*
X131862500Y-99300000D01*
X128650000Y-100347488D02*
X129602511Y-101299999D01*
X128650000Y-100150000D02*
X128650000Y-100347488D01*
%TO.N,/Development Board Section/QSPI_SD1*%
X131500000Y-98900000D02*
X131862500Y-98900000D01*
X130950000Y-99450000D02*
X131500000Y-98900000D01*
X130950000Y-100703553D02*
X130950000Y-99450000D01*
X130603554Y-101050000D02*
X130950000Y-100703553D01*
X129750000Y-101050000D02*
X130603554Y-101050000D01*
X129150000Y-100450000D02*
X129750000Y-101050000D01*
X129150000Y-100150000D02*
X129150000Y-100450000D01*
%TO.N,/Development Board Section/QSPI_SD2*%
X131500000Y-98500000D02*
X131862500Y-98500000D01*
X130700000Y-99300000D02*
X131500000Y-98500000D01*
X129900000Y-100800000D02*
X130500000Y-100800000D01*
X130500000Y-100800000D02*
X130700000Y-100600000D01*
X129650000Y-100550000D02*
X129900000Y-100800000D01*
X130700000Y-100600000D02*
X130700000Y-99300000D01*
X129650000Y-100150000D02*
X129650000Y-100550000D01*
D44*
%TO.N,GND*%
X142770000Y-101690000D02*
X142800000Y-101720000D01*
X137900000Y-97400000D02*
X138200000Y-97700000D01*
X140300000Y-95880000D02*
X140300000Y-95920000D01*
X140580000Y-96200000D02*
X140300000Y-95920000D01*
X144300000Y-100137500D02*
X144300000Y-99300000D01*
X141300000Y-101690000D02*
X142770000Y-101690000D01*
X141000000Y-96200000D02*
X140580000Y-96200000D01*
X138200000Y-97700000D02*
X138737500Y-97700000D01*
X137900000Y-96900000D02*
X137900000Y-97400000D01*
%TO.N,+3V3*%
X130280000Y-96100000D02*
X128680000Y-96100000D01*
X132394974Y-94500000D02*
X132694974Y-94200000D01*
X145900000Y-93262500D02*
X145900000Y-92415688D01*
X130300000Y-96120000D02*
X130280000Y-96100000D01*
X129800000Y-87925000D02*
X130075000Y-87650000D01*
X136300000Y-91720000D02*
X136280000Y-91700000D01*
X147800000Y-94105026D02*
X147800000Y-97294974D01*
X150400000Y-97700000D02*
X151075000Y-98375000D01*
X132700000Y-92700000D02*
X133100000Y-92300000D01*
X150700000Y-92800000D02*
X150700000Y-91580000D01*
X132874500Y-99300000D02*
X132700000Y-99474500D01*
X140380000Y-98320000D02*
X140300000Y-98320000D01*
X133525000Y-90299500D02*
X133525000Y-91300000D01*
X147500000Y-93794974D02*
X147805026Y-94100000D01*
X140680000Y-94100000D02*
X140300000Y-94480000D01*
X143474312Y-90050000D02*
X144544312Y-91120000D01*
X147805026Y-94100000D02*
X147800000Y-94105026D01*
X147500000Y-93262500D02*
X147500000Y-93794974D01*
X136300000Y-100825500D02*
X136600000Y-101125500D01*
X145184312Y-91700000D02*
X144700000Y-91215688D01*
X145500000Y-100137500D02*
X145500000Y-101120000D01*
X139600000Y-96830026D02*
X139269974Y-96500000D01*
X133525000Y-91375000D02*
X133525000Y-91300000D01*
X133525000Y-91875000D02*
X133525000Y-91300000D01*
X140164950Y-97700000D02*
X139600000Y-97135050D01*
X132900000Y-89674500D02*
X130124500Y-89674500D01*
X130420000Y-87607500D02*
X130462500Y-87650000D01*
X151075000Y-100425000D02*
X150375000Y-101125000D01*
X136600000Y-101125500D02*
X136600000Y-101720000D01*
X140552455Y-101631409D02*
X140043591Y-101631409D01*
X131862500Y-96100000D02*
X130900000Y-96100000D01*
X131300000Y-96500000D02*
X130900000Y-96100000D01*
X132700000Y-100137500D02*
X132700000Y-101780000D01*
X128650000Y-96130000D02*
X128650000Y-97650000D01*
X148737500Y-94100000D02*
X149400000Y-94100000D01*
X133100000Y-92300000D02*
X133525000Y-91875000D01*
X141000000Y-94100000D02*
X140680000Y-94100000D01*
X147800000Y-97294974D02*
X148205026Y-97700000D01*
X130900000Y-96100000D02*
X130320000Y-96100000D01*
X141000000Y-97700000D02*
X140380000Y-98320000D01*
X141000000Y-97700000D02*
X141862500Y-97700000D01*
X148737500Y-97700000D02*
X149700000Y-97700000D01*
X130320000Y-96100000D02*
X130300000Y-96120000D01*
X132700000Y-93262500D02*
X132700000Y-92700000D01*
X132050500Y-108549500D02*
X129650000Y-110950000D01*
X145200000Y-91715688D02*
X145200000Y-91700000D01*
X145200000Y-91700000D02*
X145184312Y-91700000D01*
X145500000Y-101120000D02*
X146100000Y-101720000D01*
X140043591Y-101631409D02*
X139925000Y-101750000D01*
X144544312Y-91120000D02*
X144700000Y-91120000D01*
X136300000Y-93262500D02*
X136300000Y-92300000D01*
X130124500Y-89674500D02*
X129800000Y-89350000D01*
X132700000Y-94194974D02*
X132700000Y-93262500D01*
X141862500Y-94100000D02*
X141000000Y-94100000D01*
X132075000Y-106551000D02*
X132075000Y-105850000D01*
X129800000Y-89350000D02*
X129800000Y-87925000D01*
X145500000Y-93262500D02*
X145500000Y-92015688D01*
X130420000Y-86100000D02*
X130420000Y-87607500D01*
X132900000Y-89674500D02*
X133525000Y-90299500D01*
X132050500Y-106575500D02*
X132075000Y-106551000D01*
X132700000Y-99474500D02*
X132700000Y-100137500D01*
X139600000Y-97135050D02*
X139600000Y-96830026D01*
X130075000Y-87650000D02*
X130462500Y-87650000D01*
X149400000Y-94100000D02*
X149700000Y-93800000D01*
X141000000Y-97700000D02*
X140164950Y-97700000D01*
X149700000Y-93800000D02*
X150700000Y-92800000D01*
X145500000Y-92015688D02*
X145200000Y-91715688D01*
X149700000Y-97700000D02*
X150400000Y-97700000D01*
X132700000Y-101780000D02*
X132680000Y-101800000D01*
X144700000Y-91215688D02*
X144700000Y-91120000D01*
X129650000Y-110950000D02*
X129650000Y-111150000D01*
X136300000Y-92300000D02*
X136300000Y-91720000D01*
X128680000Y-96100000D02*
X128650000Y-96130000D01*
X132050500Y-106575500D02*
X132050500Y-108549500D01*
X131862500Y-96500000D02*
X131300000Y-96500000D01*
X147805026Y-94100000D02*
X148737500Y-94100000D01*
X143050000Y-90050000D02*
X143474312Y-90050000D01*
X151075000Y-98375000D02*
X151075000Y-100425000D01*
X131862500Y-94500000D02*
X132394974Y-94500000D01*
X139269974Y-96500000D02*
X138737500Y-96500000D01*
X148205026Y-97700000D02*
X148737500Y-97700000D01*
X145900000Y-92415688D02*
X145500000Y-92015688D01*
X136300000Y-100137500D02*
X136300000Y-100825500D01*
%TO.N,VBUS*%
X134980000Y-89180000D02*
X135000000Y-89180000D01*
X133313603Y-88950000D02*
X133543603Y-89180000D01*
X132337500Y-88950000D02*
X133313603Y-88950000D01*
X133450000Y-87650000D02*
X134980000Y-89180000D01*
X132337500Y-87650000D02*
X133450000Y-87650000D01*
X137790000Y-104010000D02*
X138200000Y-104010000D01*
X133543603Y-89180000D02*
X135000000Y-89180000D01*
%TO.N,/Development Board Section/1V1_CORE*%
X132700000Y-96594974D02*
X132394974Y-96900000D01*
X138737500Y-96100000D02*
X139435660Y-96100000D01*
X136600000Y-99300000D02*
X133600000Y-99300000D01*
X137400000Y-98500000D02*
X136600000Y-99300000D01*
X132700000Y-97205026D02*
X132394974Y-96900000D01*
X137700000Y-96400000D02*
X137692893Y-96400000D01*
X132700000Y-95205026D02*
X132700000Y-96594974D01*
X137400000Y-96692893D02*
X137400000Y-98500000D01*
X132394974Y-96900000D02*
X131862500Y-96900000D01*
X137692893Y-96400000D02*
X137400000Y-96692893D01*
X138000000Y-96100000D02*
X137700000Y-96400000D01*
X131862500Y-94900000D02*
X132394974Y-94900000D01*
X139435660Y-96100000D02*
X140215660Y-96880000D01*
X132394974Y-94900000D02*
X132700000Y-95205026D01*
X140215660Y-96880000D02*
X140300000Y-96880000D01*
X133600000Y-99300000D02*
X132700000Y-98400000D01*
X131134314Y-94900000D02*
X130684314Y-94450000D01*
X131862500Y-94900000D02*
X131134314Y-94900000D01*
X138737500Y-96100000D02*
X138000000Y-96100000D01*
X132700000Y-98400000D02*
X132700000Y-97205026D01*
X129370000Y-94450000D02*
X128700000Y-93780000D01*
X130684314Y-94450000D02*
X129370000Y-94450000D01*
%TO.N,/Debug Probe Section/1V1_CORE*%
X147600000Y-101720000D02*
X146980000Y-101100000D01*
X146205026Y-99300000D02*
X145900000Y-99605026D01*
X146330026Y-101100000D02*
X145900000Y-100669974D01*
X147100000Y-92600000D02*
X147400000Y-92300000D01*
X147239340Y-94100000D02*
X147400000Y-94260660D01*
X148480000Y-92300000D02*
X149200000Y-91580000D01*
X147900000Y-97960660D02*
X147900000Y-98950000D01*
X146794974Y-94100000D02*
X147239340Y-94100000D01*
X147100000Y-93262500D02*
X147100000Y-93794974D01*
X147100000Y-93262500D02*
X147100000Y-92600000D01*
X145900000Y-99605026D02*
X145900000Y-100137500D01*
X146980000Y-101100000D02*
X146330026Y-101100000D01*
X147400000Y-94260660D02*
X147400000Y-97460660D01*
X145100000Y-93800000D02*
X145100000Y-93262500D01*
X145900000Y-100669974D02*
X145900000Y-100137500D01*
X147400000Y-92300000D02*
X148480000Y-92300000D01*
X147550000Y-99300000D02*
X146205026Y-99300000D01*
X147400000Y-97460660D02*
X147900000Y-97960660D01*
X147100000Y-93794974D02*
X146794974Y-94100000D01*
X145400000Y-94100000D02*
X145100000Y-93800000D01*
X146794974Y-94100000D02*
X145400000Y-94100000D01*
X147900000Y-98950000D02*
X147550000Y-99300000D01*
D43*
%TO.N,Net-(C9-Pad1)*%
X128700000Y-91480000D02*
X130170000Y-91480000D01*
X130170000Y-91480000D02*
X130200000Y-91510000D01*
%TO.N,Net-(Q1-D)*%
X138860000Y-102450000D02*
X138100000Y-101690000D01*
X141300000Y-102710000D02*
X142770000Y-102710000D01*
X139850000Y-102450000D02*
X139700000Y-102450000D01*
X142770000Y-102710000D02*
X142800000Y-102680000D01*
X141300000Y-102710000D02*
X140110000Y-102710000D01*
X140110000Y-102710000D02*
X139850000Y-102450000D01*
X139700000Y-102450000D02*
X138860000Y-102450000D01*
%TO.N,Net-(D1-A)*%
X151800000Y-114197500D02*
X151785000Y-114212500D01*
X151800000Y-112572500D02*
X151800000Y-114197500D01*
%TO.N,Net-(D2-A)*%
X146585000Y-88300000D02*
X147990000Y-88300000D01*
%TO.N,Net-(P1-CC)*%
X139550000Y-87090000D02*
X139550000Y-89350000D01*
X138910000Y-89990000D02*
X138800000Y-89990000D01*
X139550000Y-89350000D02*
X138910000Y-89990000D01*
D45*
%TO.N,USB_D_P*%
X146200000Y-90590000D02*
X146200000Y-89584974D01*
X145965026Y-89350000D02*
X140652513Y-89350000D01*
X140050000Y-88747487D02*
X140050000Y-87090000D01*
X140652513Y-89350000D02*
X140050000Y-88747487D01*
X146200000Y-89584974D02*
X145965026Y-89350000D01*
%TO.N,USB_D_N*%
X146110000Y-89000000D02*
X147700000Y-90590000D01*
X140797487Y-89000000D02*
X146110000Y-89000000D01*
X140550000Y-88752513D02*
X140797487Y-89000000D01*
X140550000Y-87090000D02*
X140550000Y-88752513D01*
D43*
%TO.N,/Development Board Section/GPIO_ADC3*%
X133100000Y-94514820D02*
X133100000Y-93262500D01*
X139475000Y-100900000D02*
X139475000Y-101750000D01*
X132914820Y-94700000D02*
X133100000Y-94514820D01*
%TO.N,LED_EN*%
X134700000Y-94400000D02*
X134700000Y-93262500D01*
X135000000Y-94700000D02*
X134700000Y-94400000D01*
X151800000Y-111552500D02*
X151800000Y-110900000D01*
%TO.N,DEV_ENABLE*%
X132525000Y-111025000D02*
X132525000Y-105850000D01*
X132737500Y-105550000D02*
X132525000Y-105762500D01*
X133950000Y-104900000D02*
X133950000Y-105550000D01*
X132650000Y-111150000D02*
X132525000Y-111025000D01*
X132525000Y-105762500D02*
X132525000Y-105850000D01*
X133950000Y-105550000D02*
X132737500Y-105550000D01*
D44*
%TO.N,Net-(U4-USB_DP)*%
X146200000Y-91610000D02*
X146200000Y-92000000D01*
X146200000Y-92000000D02*
X146300000Y-92100000D01*
X146300000Y-92100000D02*
X146300000Y-93262500D01*
%TO.N,Net-(U4-USB_DM)*%
X146700000Y-92434314D02*
X147524314Y-91610000D01*
X147524314Y-91610000D02*
X147700000Y-91610000D01*
X146700000Y-93262500D02*
X146700000Y-92434314D01*
D43*
%TO.N,/Development Board Section/ADC_VREF*%
X131875000Y-91225000D02*
X131140000Y-90490000D01*
X131875000Y-91300000D02*
X131875000Y-91225000D01*
X131140000Y-90490000D02*
X130200000Y-90490000D01*
%TO.N,/Debug Probe Section/LED_INT_EN*%
X150300000Y-88300000D02*
X149010000Y-88300000D01*
X149900000Y-96100000D02*
X151900000Y-94100000D01*
X151900000Y-94100000D02*
X151900000Y-89900000D01*
X151900000Y-89900000D02*
X150300000Y-88300000D01*
X148737500Y-96100000D02*
X149900000Y-96100000D01*
%TO.N,GPIO2*%
X133900000Y-101400000D02*
X133900000Y-100137500D01*
X135200000Y-104700000D02*
X135400000Y-104900000D01*
X135400000Y-104900000D02*
X135850000Y-104900000D01*
%TO.N,GPIO3*%
X133950000Y-104250000D02*
X133950000Y-102650000D01*
X134800000Y-101800000D02*
X134296000Y-101296000D01*
X134296000Y-101296000D02*
X134296000Y-100141500D01*
X134296000Y-100141500D02*
X134300000Y-100137500D01*
X134300000Y-100137500D02*
X134304000Y-100141500D01*
X133950000Y-102650000D02*
X134800000Y-101800000D01*
%TO.N,GPIO4*%
X134700000Y-101100000D02*
X134700000Y-100137500D01*
%TO.N,GPIO5*%
X135400000Y-101100000D02*
X135100000Y-100800000D01*
X135100000Y-100800000D02*
X135100000Y-100137500D01*
%TO.N,SWCLK*%
X141000000Y-95100000D02*
X141200000Y-95300000D01*
X138737500Y-95700000D02*
X137700000Y-95700000D01*
X141200000Y-95300000D02*
X141862500Y-95300000D01*
%TO.N,SWDIO*%
X138000000Y-95300000D02*
X138737500Y-95300000D01*
X137300000Y-94600000D02*
X138000000Y-95300000D01*
X138737500Y-95300000D02*
X140619225Y-95300000D01*
X141019225Y-95700000D02*
X141862500Y-95700000D01*
X140619225Y-95300000D02*
X141019225Y-95700000D01*
%TO.N,/Development Board Section/RUN*%
X138200000Y-94900000D02*
X138737500Y-94900000D01*
X132300000Y-104400000D02*
X132300000Y-105150000D01*
X138000000Y-94700000D02*
X138200000Y-94900000D01*
%TO.N,GPIO_ADC0*%
X134304000Y-94700000D02*
X134304000Y-93266500D01*
X134304000Y-93266500D02*
X134300000Y-93262500D01*
%TO.N,GPIO_ADC1*%
X133600000Y-94700000D02*
X133900000Y-94400000D01*
X133900000Y-94400000D02*
X133900000Y-93262500D01*
%TO.N,/Development Board Section/QSPI_SD3*%
X129150000Y-97452512D02*
X129150000Y-97650000D01*
X131862500Y-97300000D02*
X131200000Y-97300000D01*
X130825000Y-96925000D02*
X129677512Y-96925000D01*
X131200000Y-97300000D02*
X130825000Y-96925000D01*
X129677512Y-96925000D02*
X129150000Y-97452512D01*
%TO.N,/Development Board Section/QSPI_SCLK*%
X131206802Y-97700000D02*
X130681802Y-97175000D01*
X130681802Y-97175000D02*
X129925000Y-97175000D01*
X129925000Y-97175000D02*
X129650000Y-97450000D01*
X131862500Y-97700000D02*
X131206802Y-97700000D01*
X129650000Y-97450000D02*
X129650000Y-97650000D01*
%TO.N,/Development Board Section/QSPI_SD0*%
X131862500Y-98100000D02*
X131200000Y-98100000D01*
X130750000Y-97650000D02*
X130150000Y-97650000D01*
X131200000Y-98100000D02*
X130750000Y-97650000D01*
%TO.N,/Debug Probe Section/QSPI_SD2*%
X140103554Y-91050000D02*
X140550000Y-91050000D01*
X143500000Y-92900000D02*
X142700000Y-92100000D01*
X140103554Y-92100000D02*
X139900000Y-91896446D01*
X143500000Y-93262500D02*
X143500000Y-92900000D01*
X142700000Y-92100000D02*
X140103554Y-92100000D01*
X139900000Y-91896446D02*
X139900000Y-91253554D01*
X139900000Y-91253554D02*
X140103554Y-91050000D01*
%TO.N,/Debug Probe Section/QSPI_SD1*%
X139650000Y-90950000D02*
X140050000Y-90550000D01*
X140050000Y-90550000D02*
X140550000Y-90550000D01*
X140000000Y-92350000D02*
X139650000Y-92000000D01*
X143100000Y-93262500D02*
X143100000Y-92900000D01*
X139650000Y-92000000D02*
X139650000Y-90950000D01*
X142550000Y-92350000D02*
X140000000Y-92350000D01*
X143100000Y-92900000D02*
X142550000Y-92350000D01*
%TO.N,/Debug Probe Section/QSPI_SS*%
X142700000Y-93262500D02*
X142700000Y-92900000D01*
X139400000Y-92103554D02*
X139400000Y-90700000D01*
X142700000Y-92900000D02*
X142400000Y-92600000D01*
X140050000Y-90050000D02*
X140550000Y-90050000D01*
X142400000Y-92600000D02*
X139896446Y-92600000D01*
X139400000Y-90700000D02*
X140050000Y-90050000D01*
X139896446Y-92600000D02*
X139400000Y-92103554D01*
%TD*%
%TA.AperFunction,Conductor*%
%TO.N,GND*%
G36*
X130231369Y-85370185D02*
G01*
X130277124Y-85422989D01*
X130287068Y-85492147D01*
X130258043Y-85555703D01*
X130199265Y-85593477D01*
X130199025Y-85593547D01*
X130190513Y-85596027D01*
X130081683Y-85646776D01*
X129996776Y-85731683D01*
X129946027Y-85840514D01*
X129939500Y-85890098D01*
X129939500Y-86309894D01*
X129939501Y-86309900D01*
X129946028Y-86359487D01*
X129946029Y-86359489D01*
X129946029Y-86359490D01*
X129996776Y-86468316D01*
X130083181Y-86554721D01*
X130116666Y-86616044D01*
X130119500Y-86642402D01*
X130119500Y-87228722D01*
X130099815Y-87295761D01*
X130047011Y-87341516D01*
X130016013Y-87349014D01*
X130016195Y-87349784D01*
X130005006Y-87352415D01*
X129998665Y-87355215D01*
X129971379Y-87363664D01*
X129964572Y-87364936D01*
X129964566Y-87364939D01*
X129938202Y-87381261D01*
X129930603Y-87385266D01*
X129902237Y-87397792D01*
X129897336Y-87402693D01*
X129874942Y-87420431D01*
X129869048Y-87424080D01*
X129850359Y-87448827D01*
X129844718Y-87455310D01*
X129631948Y-87668080D01*
X129625464Y-87673722D01*
X129615768Y-87681044D01*
X129583559Y-87716374D01*
X129581585Y-87718442D01*
X129567827Y-87732200D01*
X129567822Y-87732206D01*
X129566306Y-87734420D01*
X129560976Y-87741148D01*
X129540083Y-87764066D01*
X129540083Y-87764067D01*
X129537578Y-87770533D01*
X129524259Y-87795802D01*
X129520345Y-87801515D01*
X129520343Y-87801521D01*
X129513244Y-87831699D01*
X129510702Y-87839907D01*
X129499500Y-87868826D01*
X129499500Y-87875751D01*
X129496206Y-87904141D01*
X129494621Y-87910877D01*
X129494621Y-87910881D01*
X129498905Y-87941590D01*
X129499500Y-87950166D01*
X129499500Y-89287158D01*
X129498905Y-89295732D01*
X129497227Y-89307763D01*
X129499434Y-89355509D01*
X129499500Y-89358372D01*
X129499500Y-89377845D01*
X129499993Y-89380482D01*
X129500982Y-89389015D01*
X129502415Y-89419991D01*
X129502416Y-89419997D01*
X129505214Y-89426334D01*
X129513664Y-89453620D01*
X129514937Y-89460429D01*
X129514937Y-89460430D01*
X129518854Y-89466756D01*
X129530384Y-89485379D01*
X129531260Y-89486793D01*
X129535263Y-89494386D01*
X129547794Y-89522765D01*
X129547795Y-89522766D01*
X129547796Y-89522768D01*
X129552689Y-89527661D01*
X129570435Y-89550065D01*
X129574077Y-89555948D01*
X129574080Y-89555951D01*
X129598826Y-89574639D01*
X129605311Y-89580282D01*
X129867578Y-89842549D01*
X129873221Y-89849033D01*
X129887465Y-89867895D01*
X129886379Y-89868714D01*
X129916305Y-89917963D01*
X129914546Y-89987811D01*
X129875304Y-90045619D01*
X129848893Y-90062273D01*
X129819596Y-90075934D01*
X129735935Y-90159595D01*
X129685931Y-90266828D01*
X129679500Y-90315683D01*
X129679500Y-90664316D01*
X129685931Y-90713171D01*
X129735935Y-90820404D01*
X129827267Y-90911736D01*
X129824443Y-90914559D01*
X129855183Y-90953042D01*
X129862352Y-91022542D01*
X129830808Y-91084886D01*
X129827101Y-91088098D01*
X129827267Y-91088264D01*
X129747350Y-91168181D01*
X129686027Y-91201666D01*
X129659669Y-91204500D01*
X129261512Y-91204500D01*
X129194473Y-91184815D01*
X129162621Y-91148349D01*
X129159448Y-91150572D01*
X129156187Y-91145915D01*
X129153477Y-91137881D01*
X129149129Y-91132903D01*
X129148638Y-91131850D01*
X129151062Y-91130719D01*
X129133858Y-91079710D01*
X129150867Y-91011942D01*
X129178323Y-90981464D01*
X129178071Y-90981212D01*
X129182918Y-90976364D01*
X129184137Y-90975012D01*
X129184643Y-90974638D01*
X129263405Y-90867919D01*
X129307211Y-90742732D01*
X129307213Y-90742720D01*
X129310000Y-90713007D01*
X129310000Y-90670000D01*
X128090001Y-90670000D01*
X128090001Y-90713000D01*
X128092786Y-90742720D01*
X128136596Y-90867922D01*
X128215357Y-90974639D01*
X128215868Y-90975016D01*
X128216293Y-90975576D01*
X128221929Y-90981212D01*
X128221158Y-90981982D01*
X128258121Y-91030662D01*
X128263583Y-91100317D01*
X128250156Y-91131290D01*
X128251361Y-91131852D01*
X128246776Y-91141683D01*
X128246776Y-91141684D01*
X128239109Y-91158125D01*
X128196027Y-91250514D01*
X128189500Y-91300097D01*
X128189500Y-91659894D01*
X128189501Y-91659900D01*
X128196028Y-91709487D01*
X128196029Y-91709489D01*
X128196029Y-91709490D01*
X128230921Y-91784316D01*
X128246776Y-91818316D01*
X128331684Y-91903224D01*
X128440513Y-91953972D01*
X128490099Y-91960500D01*
X128909900Y-91960499D01*
X128959487Y-91953972D01*
X129068316Y-91903224D01*
X129153224Y-91818316D01*
X129153225Y-91818313D01*
X129159447Y-91809429D01*
X129162687Y-91811697D01*
X129195300Y-91774657D01*
X129261512Y-91755500D01*
X129617347Y-91755500D01*
X129684386Y-91775185D01*
X129729728Y-91827094D01*
X129735935Y-91840404D01*
X129819596Y-91924065D01*
X129926827Y-91974068D01*
X129975683Y-91980500D01*
X129975684Y-91980500D01*
X130424317Y-91980500D01*
X130443921Y-91977919D01*
X130473173Y-91974068D01*
X130580404Y-91924065D01*
X130664065Y-91840404D01*
X130714068Y-91733173D01*
X130720500Y-91684316D01*
X130720500Y-91335684D01*
X130714068Y-91286827D01*
X130664065Y-91179596D01*
X130580404Y-91095935D01*
X130572733Y-91088264D01*
X130575561Y-91085435D01*
X130544843Y-91047023D01*
X130537635Y-90977526D01*
X130569143Y-90915165D01*
X130572903Y-90911906D01*
X130572733Y-90911736D01*
X130616550Y-90867919D01*
X130664065Y-90820404D01*
X130664067Y-90820398D01*
X130665484Y-90818377D01*
X130668513Y-90815955D01*
X130671736Y-90812733D01*
X130672095Y-90813092D01*
X130720061Y-90774752D01*
X130767059Y-90765500D01*
X130974522Y-90765500D01*
X131041561Y-90785185D01*
X131062203Y-90801819D01*
X131238181Y-90977797D01*
X131271666Y-91039120D01*
X131274500Y-91065478D01*
X131274500Y-91584520D01*
X131254815Y-91651559D01*
X131238181Y-91672201D01*
X130833010Y-92077372D01*
X130814222Y-92092791D01*
X130801377Y-92101373D01*
X130786006Y-92124378D01*
X130770700Y-92147286D01*
X130740484Y-92192505D01*
X130740483Y-92192508D01*
X130740254Y-92193664D01*
X130739058Y-92195949D01*
X130735810Y-92203791D01*
X130735108Y-92203500D01*
X130707867Y-92255574D01*
X130647151Y-92290147D01*
X130577682Y-92286511D01*
X130452732Y-92242788D01*
X130452720Y-92242786D01*
X130423007Y-92240000D01*
X130350000Y-92240000D01*
X130350000Y-92846000D01*
X130330315Y-92913039D01*
X130277511Y-92958794D01*
X130226000Y-92970000D01*
X129590001Y-92970000D01*
X129590001Y-93013000D01*
X129592786Y-93042720D01*
X129636596Y-93167922D01*
X129715357Y-93274639D01*
X129715868Y-93275016D01*
X129716293Y-93275576D01*
X129721929Y-93281212D01*
X129721158Y-93281982D01*
X129758121Y-93330662D01*
X129763583Y-93400317D01*
X129750156Y-93431290D01*
X129751361Y-93431852D01*
X129696027Y-93550514D01*
X129689500Y-93600097D01*
X129689500Y-93959900D01*
X129692921Y-93985884D01*
X129696005Y-94009317D01*
X129685240Y-94078352D01*
X129638859Y-94130607D01*
X129573067Y-94149500D01*
X129545833Y-94149500D01*
X129478794Y-94129815D01*
X129458152Y-94113181D01*
X129246818Y-93901847D01*
X129213333Y-93840524D01*
X129210499Y-93814166D01*
X129210499Y-93600105D01*
X129210499Y-93600100D01*
X129203972Y-93550513D01*
X129153224Y-93441684D01*
X129153223Y-93441683D01*
X129148639Y-93431852D01*
X129151062Y-93430721D01*
X129133858Y-93379710D01*
X129150867Y-93311942D01*
X129178323Y-93281464D01*
X129178071Y-93281212D01*
X129182918Y-93276364D01*
X129184137Y-93275012D01*
X129184643Y-93274638D01*
X129263405Y-93167919D01*
X129307211Y-93042732D01*
X129307213Y-93042720D01*
X129310000Y-93013007D01*
X129310000Y-92970000D01*
X128090001Y-92970000D01*
X128090001Y-93013000D01*
X128092786Y-93042720D01*
X128136596Y-93167922D01*
X128215357Y-93274639D01*
X128215868Y-93275016D01*
X128216293Y-93275576D01*
X128221929Y-93281212D01*
X128221158Y-93281982D01*
X128258121Y-93330662D01*
X128263583Y-93400317D01*
X128250156Y-93431290D01*
X128251361Y-93431852D01*
X128196027Y-93550514D01*
X128189500Y-93600097D01*
X128189500Y-93959894D01*
X128189501Y-93959900D01*
X128196028Y-94009487D01*
X128196029Y-94009489D01*
X128196029Y-94009490D01*
X128246776Y-94118316D01*
X128331684Y-94203224D01*
X128440513Y-94253972D01*
X128490099Y-94260500D01*
X128704165Y-94260499D01*
X128771205Y-94280183D01*
X128791847Y-94296818D01*
X128854833Y-94359804D01*
X128888318Y-94421127D01*
X128883334Y-94490819D01*
X128854834Y-94535165D01*
X128850000Y-94539999D01*
X128850000Y-94970000D01*
X129309999Y-94970000D01*
X129309999Y-94926999D01*
X129306509Y-94889759D01*
X129308826Y-94889541D01*
X129312941Y-94831272D01*
X129354762Y-94775300D01*
X129420204Y-94750824D01*
X129429162Y-94750500D01*
X129470838Y-94750500D01*
X129537877Y-94770185D01*
X129583632Y-94822989D01*
X129593229Y-94889737D01*
X129593491Y-94889762D01*
X129593389Y-94890847D01*
X129593576Y-94892147D01*
X129592934Y-94895692D01*
X129590000Y-94926992D01*
X129590000Y-94970000D01*
X130226000Y-94970000D01*
X130293039Y-94989685D01*
X130338794Y-95042489D01*
X130350000Y-95094000D01*
X130350000Y-95146000D01*
X130330315Y-95213039D01*
X130277511Y-95258794D01*
X130226000Y-95270000D01*
X129590001Y-95270000D01*
X129590001Y-95313000D01*
X129592786Y-95342720D01*
X129636596Y-95467922D01*
X129715357Y-95574639D01*
X129715868Y-95575016D01*
X129716293Y-95575576D01*
X129721929Y-95581212D01*
X129721158Y-95581982D01*
X129758121Y-95630662D01*
X129763583Y-95700317D01*
X129743891Y-95745803D01*
X129743395Y-95746513D01*
X129688865Y-95790197D01*
X129641743Y-95799500D01*
X129258257Y-95799500D01*
X129191218Y-95779815D01*
X129156672Y-95746609D01*
X129156175Y-95745899D01*
X129133857Y-95679690D01*
X129150877Y-95611925D01*
X129178323Y-95581464D01*
X129178071Y-95581212D01*
X129182916Y-95576366D01*
X129184137Y-95575012D01*
X129184643Y-95574638D01*
X129263405Y-95467919D01*
X129307211Y-95342732D01*
X129307213Y-95342720D01*
X129310000Y-95313007D01*
X129310000Y-95270000D01*
X128090001Y-95270000D01*
X128090001Y-95313000D01*
X128092786Y-95342720D01*
X128136596Y-95467922D01*
X128215357Y-95574639D01*
X128215868Y-95575016D01*
X128216293Y-95575576D01*
X128221929Y-95581212D01*
X128221158Y-95581982D01*
X128258121Y-95630662D01*
X128263583Y-95700317D01*
X128250156Y-95731290D01*
X128251361Y-95731852D01*
X128246776Y-95741683D01*
X128246776Y-95741684D01*
X128233966Y-95769153D01*
X128196027Y-95850514D01*
X128189500Y-95900097D01*
X128189500Y-96259894D01*
X128190772Y-96269560D01*
X128196028Y-96309487D01*
X128196029Y-96309489D01*
X128196029Y-96309490D01*
X128246776Y-96418316D01*
X128313181Y-96484721D01*
X128346666Y-96546044D01*
X128349500Y-96572402D01*
X128349500Y-97176734D01*
X128329815Y-97243773D01*
X128328621Y-97245595D01*
X128326585Y-97248644D01*
X128311132Y-97271770D01*
X128311131Y-97271773D01*
X128299500Y-97330247D01*
X128299500Y-97969752D01*
X128311131Y-98028229D01*
X128311132Y-98028230D01*
X128355447Y-98094552D01*
X128421769Y-98138867D01*
X128421770Y-98138868D01*
X128480247Y-98150499D01*
X128480250Y-98150500D01*
X128480252Y-98150500D01*
X128819750Y-98150500D01*
X128875808Y-98139349D01*
X128924192Y-98139349D01*
X128980249Y-98150500D01*
X128980252Y-98150500D01*
X129319750Y-98150500D01*
X129375808Y-98139349D01*
X129424192Y-98139349D01*
X129480249Y-98150500D01*
X129480252Y-98150500D01*
X129819750Y-98150500D01*
X129875808Y-98139349D01*
X129924192Y-98139349D01*
X129980249Y-98150500D01*
X129980252Y-98150500D01*
X130319750Y-98150500D01*
X130319751Y-98150499D01*
X130334568Y-98147552D01*
X130378229Y-98138868D01*
X130378229Y-98138867D01*
X130378231Y-98138867D01*
X130444552Y-98094552D01*
X130488867Y-98028231D01*
X130488867Y-98028228D01*
X130490996Y-98023090D01*
X130534834Y-97968684D01*
X130601127Y-97946616D01*
X130668827Y-97963892D01*
X130693240Y-97982856D01*
X130977369Y-98266985D01*
X130992790Y-98285775D01*
X131001373Y-98298621D01*
X131001374Y-98298622D01*
X131001376Y-98298624D01*
X131022229Y-98312558D01*
X131022247Y-98312571D01*
X131036386Y-98322017D01*
X131049233Y-98330601D01*
X131061808Y-98339003D01*
X131106612Y-98392614D01*
X131115319Y-98461939D01*
X131085165Y-98524966D01*
X131080597Y-98529785D01*
X130662181Y-98948202D01*
X130600858Y-98981687D01*
X130531167Y-98976703D01*
X130475233Y-98934832D01*
X130450816Y-98869367D01*
X130450500Y-98860521D01*
X130450500Y-98730249D01*
X130450499Y-98730247D01*
X130438868Y-98671770D01*
X130438867Y-98671769D01*
X130394552Y-98605447D01*
X130328230Y-98561132D01*
X130328229Y-98561131D01*
X130269752Y-98549500D01*
X130269748Y-98549500D01*
X128530252Y-98549500D01*
X128530247Y-98549500D01*
X128471770Y-98561131D01*
X128471769Y-98561132D01*
X128405447Y-98605447D01*
X128361132Y-98671769D01*
X128361131Y-98671770D01*
X128349500Y-98730247D01*
X128349500Y-99069752D01*
X128361131Y-99128229D01*
X128361132Y-99128230D01*
X128405447Y-99194552D01*
X128471769Y-99238867D01*
X128471770Y-99238868D01*
X128530247Y-99250499D01*
X128530250Y-99250500D01*
X128530252Y-99250500D01*
X130269749Y-99250500D01*
X130273730Y-99249707D01*
X130276303Y-99249196D01*
X130345895Y-99255420D01*
X130401074Y-99298280D01*
X130424322Y-99364169D01*
X130424500Y-99370812D01*
X130424500Y-99426000D01*
X130404815Y-99493039D01*
X130352011Y-99538794D01*
X130300500Y-99550000D01*
X130300000Y-99550000D01*
X130300000Y-100176000D01*
X130280315Y-100243039D01*
X130227511Y-100288794D01*
X130176000Y-100300000D01*
X130124500Y-100300000D01*
X130057461Y-100280315D01*
X130011706Y-100227511D01*
X130000500Y-100176000D01*
X130000500Y-99830249D01*
X130000299Y-99828208D01*
X130000000Y-99822128D01*
X130000000Y-99550000D01*
X129955203Y-99550000D01*
X129930130Y-99552908D01*
X129930126Y-99552909D01*
X129827525Y-99598211D01*
X129827520Y-99598214D01*
X129812554Y-99613181D01*
X129751231Y-99646666D01*
X129724873Y-99649500D01*
X129480252Y-99649500D01*
X129424190Y-99660651D01*
X129375810Y-99660651D01*
X129319748Y-99649500D01*
X128980252Y-99649500D01*
X128924190Y-99660651D01*
X128875810Y-99660651D01*
X128819748Y-99649500D01*
X128480252Y-99649500D01*
X128480247Y-99649500D01*
X128421770Y-99661131D01*
X128421769Y-99661132D01*
X128355447Y-99705447D01*
X128311132Y-99771769D01*
X128311131Y-99771770D01*
X128299500Y-99830247D01*
X128299500Y-100469752D01*
X128311131Y-100528229D01*
X128311132Y-100528230D01*
X128355447Y-100594552D01*
X128421769Y-100638867D01*
X128421770Y-100638868D01*
X128480247Y-100650499D01*
X128480250Y-100650500D01*
X128480252Y-100650500D01*
X128512034Y-100650500D01*
X128579073Y-100670185D01*
X128599715Y-100686819D01*
X129379880Y-101466984D01*
X129395301Y-101485774D01*
X129403884Y-101498620D01*
X129403886Y-101498622D01*
X129403887Y-101498623D01*
X129414398Y-101505646D01*
X129424307Y-101512267D01*
X129424325Y-101512281D01*
X129429422Y-101515686D01*
X129446354Y-101526999D01*
X129495016Y-101559514D01*
X129495018Y-101559514D01*
X129495020Y-101559515D01*
X129581343Y-101576686D01*
X129581350Y-101576686D01*
X129602511Y-101580896D01*
X129617664Y-101577881D01*
X129641855Y-101575499D01*
X130667764Y-101575499D01*
X130691954Y-101577881D01*
X130707108Y-101580896D01*
X130707108Y-101580895D01*
X130707109Y-101580896D01*
X130707110Y-101580896D01*
X130814600Y-101559515D01*
X130814601Y-101559514D01*
X130814603Y-101559514D01*
X130882730Y-101513993D01*
X130882730Y-101513992D01*
X130896157Y-101505021D01*
X130896159Y-101505018D01*
X130905732Y-101498623D01*
X130914316Y-101485774D01*
X130929732Y-101466989D01*
X130929884Y-101466837D01*
X130991205Y-101433354D01*
X131060897Y-101438338D01*
X131116830Y-101480210D01*
X131141247Y-101545674D01*
X131141022Y-101566090D01*
X131140000Y-101576995D01*
X131140000Y-101650000D01*
X131570000Y-101650000D01*
X131570000Y-101190000D01*
X131526995Y-101190000D01*
X131518136Y-101190831D01*
X131449552Y-101177486D01*
X131399071Y-101129180D01*
X131382720Y-101061251D01*
X131403470Y-100998477D01*
X131408477Y-100990985D01*
X131417907Y-100976872D01*
X131434035Y-100952735D01*
X131445261Y-100935933D01*
X131457515Y-100917594D01*
X131459515Y-100914601D01*
X131459515Y-100914599D01*
X131459516Y-100914599D01*
X131473661Y-100843482D01*
X131475500Y-100834239D01*
X131475500Y-100834238D01*
X131480897Y-100807106D01*
X131477883Y-100791953D01*
X131475500Y-100767761D01*
X131475500Y-99765478D01*
X131495185Y-99698439D01*
X131511819Y-99677797D01*
X131552797Y-99636819D01*
X131614120Y-99603334D01*
X131640478Y-99600500D01*
X132275500Y-99600500D01*
X132342539Y-99620185D01*
X132388294Y-99672989D01*
X132399500Y-99724500D01*
X132399500Y-101241742D01*
X132379815Y-101308781D01*
X132346513Y-101343394D01*
X132345803Y-101343890D01*
X132279573Y-101366146D01*
X132211824Y-101349062D01*
X132181460Y-101321680D01*
X132181212Y-101321929D01*
X132176395Y-101317112D01*
X132175021Y-101315873D01*
X132174641Y-101315359D01*
X132067919Y-101236594D01*
X131942732Y-101192788D01*
X131942720Y-101192786D01*
X131913007Y-101190000D01*
X131870000Y-101190000D01*
X131870000Y-102409999D01*
X131913000Y-102409999D01*
X131942720Y-102407213D01*
X132067922Y-102363403D01*
X132174638Y-102284643D01*
X132175012Y-102284137D01*
X132175569Y-102283713D01*
X132181212Y-102278071D01*
X132181983Y-102278842D01*
X132230655Y-102241880D01*
X132300310Y-102236415D01*
X132331289Y-102249845D01*
X132331852Y-102248639D01*
X132341683Y-102253223D01*
X132341684Y-102253224D01*
X132450513Y-102303972D01*
X132500099Y-102310500D01*
X132859900Y-102310499D01*
X132909487Y-102303972D01*
X133018316Y-102253224D01*
X133103224Y-102168316D01*
X133153972Y-102059487D01*
X133160500Y-102009901D01*
X133160499Y-101590100D01*
X133153972Y-101540513D01*
X133103224Y-101431684D01*
X133036819Y-101365279D01*
X133003334Y-101303956D01*
X133000500Y-101277598D01*
X133000500Y-100899500D01*
X133020185Y-100832461D01*
X133072989Y-100786706D01*
X133124500Y-100775500D01*
X133174676Y-100775500D01*
X133174677Y-100775499D01*
X133214631Y-100767552D01*
X133247732Y-100760968D01*
X133247733Y-100760967D01*
X133247740Y-100760966D01*
X133247745Y-100760962D01*
X133252539Y-100758977D01*
X133322008Y-100751504D01*
X133347461Y-100758977D01*
X133352256Y-100760963D01*
X133352260Y-100760966D01*
X133352264Y-100760966D01*
X133352267Y-100760968D01*
X133425321Y-100775499D01*
X133425324Y-100775500D01*
X133500500Y-100775500D01*
X133567539Y-100795185D01*
X133613294Y-100847989D01*
X133624500Y-100899500D01*
X133624500Y-101138887D01*
X133610985Y-101195181D01*
X133562498Y-101290341D01*
X133545131Y-101399997D01*
X133545131Y-101400002D01*
X133562498Y-101509658D01*
X133612904Y-101608585D01*
X133612909Y-101608592D01*
X133691407Y-101687090D01*
X133691410Y-101687092D01*
X133691413Y-101687095D01*
X133748143Y-101716000D01*
X133790341Y-101737501D01*
X133899998Y-101754869D01*
X133900000Y-101754869D01*
X133900002Y-101754869D01*
X134009658Y-101737501D01*
X134009659Y-101737500D01*
X134009661Y-101737500D01*
X134108587Y-101687095D01*
X134115349Y-101680333D01*
X134176670Y-101646846D01*
X134246362Y-101651828D01*
X134290714Y-101680330D01*
X134322702Y-101712318D01*
X134356187Y-101773641D01*
X134351203Y-101843333D01*
X134322702Y-101887680D01*
X133783010Y-102427372D01*
X133764222Y-102442791D01*
X133751376Y-102451374D01*
X133736007Y-102474375D01*
X133731332Y-102481373D01*
X133690485Y-102542505D01*
X133674500Y-102622867D01*
X133669103Y-102649999D01*
X133672117Y-102665151D01*
X133674500Y-102689344D01*
X133674500Y-103728934D01*
X133654815Y-103795973D01*
X133602011Y-103841728D01*
X133574691Y-103850551D01*
X133571770Y-103851131D01*
X133571769Y-103851132D01*
X133505447Y-103895447D01*
X133461132Y-103961769D01*
X133461131Y-103961770D01*
X133449500Y-104020247D01*
X133449500Y-104479752D01*
X133463515Y-104550209D01*
X133459243Y-104551058D01*
X133464159Y-104597108D01*
X133463379Y-104599763D01*
X133463515Y-104599791D01*
X133449500Y-104670247D01*
X133449500Y-105129750D01*
X133450097Y-105135813D01*
X133447948Y-105136024D01*
X133442584Y-105195911D01*
X133399716Y-105251084D01*
X133333824Y-105274323D01*
X133327198Y-105274500D01*
X132974500Y-105274500D01*
X132907461Y-105254815D01*
X132861706Y-105202011D01*
X132850500Y-105150500D01*
X132850500Y-104930249D01*
X132850499Y-104930247D01*
X132838868Y-104871770D01*
X132838867Y-104871769D01*
X132794552Y-104805447D01*
X132728230Y-104761132D01*
X132690169Y-104753561D01*
X132628258Y-104721176D01*
X132593684Y-104660460D01*
X132597425Y-104590690D01*
X132603870Y-104575662D01*
X132637500Y-104509661D01*
X132642238Y-104479752D01*
X132654869Y-104400002D01*
X132654869Y-104399997D01*
X132637501Y-104290341D01*
X132598783Y-104214352D01*
X132587095Y-104191413D01*
X132587092Y-104191410D01*
X132587090Y-104191407D01*
X132508592Y-104112909D01*
X132508588Y-104112906D01*
X132508587Y-104112905D01*
X132504743Y-104110946D01*
X132409658Y-104062498D01*
X132300002Y-104045131D01*
X132299998Y-104045131D01*
X132190341Y-104062498D01*
X132091414Y-104112904D01*
X132091407Y-104112909D01*
X132012909Y-104191407D01*
X132012904Y-104191414D01*
X131962498Y-104290341D01*
X131945131Y-104399997D01*
X131945131Y-104400002D01*
X131962498Y-104509658D01*
X131996123Y-104575650D01*
X132009019Y-104644319D01*
X131982742Y-104709059D01*
X131925636Y-104749316D01*
X131909831Y-104753561D01*
X131871769Y-104761132D01*
X131805447Y-104805447D01*
X131761132Y-104871769D01*
X131761131Y-104871770D01*
X131749500Y-104930247D01*
X131749500Y-105369752D01*
X131761131Y-105428229D01*
X131761132Y-105428231D01*
X131763058Y-105431113D01*
X131765322Y-105438344D01*
X131765806Y-105439513D01*
X131765701Y-105439556D01*
X131783933Y-105497791D01*
X131765446Y-105565171D01*
X131763058Y-105568887D01*
X131761132Y-105571768D01*
X131761131Y-105571770D01*
X131749500Y-105630247D01*
X131749500Y-106069752D01*
X131761130Y-106128223D01*
X131765059Y-106137706D01*
X131774500Y-106185165D01*
X131774500Y-106233745D01*
X131754815Y-106300784D01*
X131738181Y-106321426D01*
X131722454Y-106337152D01*
X131722451Y-106337157D01*
X131664852Y-106450198D01*
X131664852Y-106450199D01*
X131645008Y-106575496D01*
X131645008Y-106575503D01*
X131664852Y-106700800D01*
X131664852Y-106700801D01*
X131722449Y-106813840D01*
X131726319Y-106819166D01*
X131749798Y-106884973D01*
X131750000Y-106892051D01*
X131750000Y-108373667D01*
X131730315Y-108440706D01*
X131713681Y-108461348D01*
X129811848Y-110363181D01*
X129750525Y-110396666D01*
X129724167Y-110399500D01*
X129280247Y-110399500D01*
X129221770Y-110411131D01*
X129221769Y-110411132D01*
X129155447Y-110455447D01*
X129111132Y-110521769D01*
X129111131Y-110521770D01*
X129099500Y-110580247D01*
X129099500Y-111719752D01*
X129111131Y-111778229D01*
X129111132Y-111778230D01*
X129155447Y-111844552D01*
X129221769Y-111888867D01*
X129221770Y-111888868D01*
X129280247Y-111900499D01*
X129280250Y-111900500D01*
X129280252Y-111900500D01*
X130019750Y-111900500D01*
X130019751Y-111900499D01*
X130034568Y-111897552D01*
X130078229Y-111888868D01*
X130078229Y-111888867D01*
X130078231Y-111888867D01*
X130144552Y-111844552D01*
X130188867Y-111778231D01*
X130188867Y-111778229D01*
X130188868Y-111778229D01*
X130200499Y-111719752D01*
X130200500Y-111719750D01*
X130200500Y-110875833D01*
X130220185Y-110808794D01*
X130236819Y-110788152D01*
X132037819Y-108987152D01*
X132099142Y-108953667D01*
X132168834Y-108958651D01*
X132224767Y-109000523D01*
X132249184Y-109065987D01*
X132249500Y-109074833D01*
X132249500Y-110326324D01*
X132229815Y-110393363D01*
X132194392Y-110429425D01*
X132155448Y-110455446D01*
X132111132Y-110521769D01*
X132111131Y-110521770D01*
X132099500Y-110580247D01*
X132099500Y-111719752D01*
X132111131Y-111778229D01*
X132111132Y-111778230D01*
X132155447Y-111844552D01*
X132221769Y-111888867D01*
X132221770Y-111888868D01*
X132280247Y-111900499D01*
X132280250Y-111900500D01*
X132280252Y-111900500D01*
X133019750Y-111900500D01*
X133019751Y-111900499D01*
X133034568Y-111897552D01*
X133078229Y-111888868D01*
X133078229Y-111888867D01*
X133078231Y-111888867D01*
X133144552Y-111844552D01*
X133188867Y-111778231D01*
X133188867Y-111778229D01*
X133188868Y-111778229D01*
X133200499Y-111719752D01*
X133599500Y-111719752D01*
X133611131Y-111778229D01*
X133611132Y-111778230D01*
X133655447Y-111844552D01*
X133721769Y-111888867D01*
X133721770Y-111888868D01*
X133780247Y-111900499D01*
X133780250Y-111900500D01*
X133780252Y-111900500D01*
X134519750Y-111900500D01*
X134519751Y-111900499D01*
X134534568Y-111897552D01*
X134578229Y-111888868D01*
X134578229Y-111888867D01*
X134578231Y-111888867D01*
X134644552Y-111844552D01*
X134688867Y-111778231D01*
X134688867Y-111778229D01*
X134688868Y-111778229D01*
X134700499Y-111719752D01*
X134700500Y-111719750D01*
X134700500Y-110580249D01*
X134700499Y-110580247D01*
X134688868Y-110521770D01*
X134688867Y-110521769D01*
X134644552Y-110455447D01*
X134578230Y-110411132D01*
X134578229Y-110411131D01*
X134519752Y-110399500D01*
X134519748Y-110399500D01*
X133780252Y-110399500D01*
X133780247Y-110399500D01*
X133721770Y-110411131D01*
X133721769Y-110411132D01*
X133655447Y-110455447D01*
X133611132Y-110521769D01*
X133611131Y-110521770D01*
X133599500Y-110580247D01*
X133599500Y-111719752D01*
X133200499Y-111719752D01*
X133200500Y-111719750D01*
X133200500Y-110580249D01*
X133200499Y-110580247D01*
X133188868Y-110521770D01*
X133188867Y-110521769D01*
X133144552Y-110455447D01*
X133078230Y-110411132D01*
X133078229Y-110411131D01*
X133019752Y-110399500D01*
X133019748Y-110399500D01*
X132924500Y-110399500D01*
X132857461Y-110379815D01*
X132811706Y-110327011D01*
X132800500Y-110275500D01*
X132800500Y-106223266D01*
X132820185Y-106156227D01*
X132821398Y-106154374D01*
X132825500Y-106148235D01*
X132838867Y-106128231D01*
X132842774Y-106108592D01*
X132850499Y-106069752D01*
X132850500Y-106069750D01*
X132850500Y-105949500D01*
X132870185Y-105882461D01*
X132922989Y-105836706D01*
X132974500Y-105825500D01*
X133386347Y-105825500D01*
X133453386Y-105845185D01*
X133489449Y-105880608D01*
X133505448Y-105904553D01*
X133571769Y-105948867D01*
X133571770Y-105948868D01*
X133630247Y-105960499D01*
X133630250Y-105960500D01*
X133630252Y-105960500D01*
X134161464Y-105960500D01*
X134228503Y-105980185D01*
X134271948Y-106028203D01*
X134297965Y-106079266D01*
X134312906Y-106108588D01*
X134312909Y-106108592D01*
X134391407Y-106187090D01*
X134391410Y-106187092D01*
X134391413Y-106187095D01*
X134462403Y-106223266D01*
X134490341Y-106237501D01*
X134599998Y-106254869D01*
X134600000Y-106254869D01*
X134600002Y-106254869D01*
X134709658Y-106237501D01*
X134709659Y-106237500D01*
X134709661Y-106237500D01*
X134808587Y-106187095D01*
X134887095Y-106108587D01*
X134937500Y-106009661D01*
X134937500Y-106009659D01*
X134937501Y-106009658D01*
X134954869Y-105900002D01*
X134954869Y-105900001D01*
X134952091Y-105882461D01*
X134951682Y-105879880D01*
X134960636Y-105810589D01*
X135005631Y-105757136D01*
X135072382Y-105736495D01*
X135093551Y-105738008D01*
X135116093Y-105741579D01*
X135121648Y-105742459D01*
X135171138Y-105761829D01*
X135174377Y-105763993D01*
X135174378Y-105763994D01*
X135197956Y-105779748D01*
X135242505Y-105809515D01*
X135242508Y-105809515D01*
X135242509Y-105809516D01*
X135306812Y-105822307D01*
X135368723Y-105854691D01*
X135385722Y-105875032D01*
X135405446Y-105904551D01*
X135471769Y-105948867D01*
X135471770Y-105948868D01*
X135530247Y-105960499D01*
X135530250Y-105960500D01*
X135530252Y-105960500D01*
X136169750Y-105960500D01*
X136169751Y-105960499D01*
X136184568Y-105957552D01*
X136228229Y-105948868D01*
X136228229Y-105948867D01*
X136228231Y-105948867D01*
X136294552Y-105904552D01*
X136338867Y-105838231D01*
X136338867Y-105838229D01*
X136338868Y-105838229D01*
X136350499Y-105779752D01*
X136350500Y-105779748D01*
X136350500Y-105320249D01*
X136350499Y-105320247D01*
X136336485Y-105249790D01*
X136340778Y-105248936D01*
X136335796Y-105203137D01*
X136336646Y-105200242D01*
X136336485Y-105200210D01*
X136349252Y-105136024D01*
X136350500Y-105129748D01*
X136350500Y-105073761D01*
X136370185Y-105006722D01*
X136422989Y-104960967D01*
X136492147Y-104951023D01*
X136530792Y-104963275D01*
X136574696Y-104985646D01*
X136574697Y-104985646D01*
X136574699Y-104985647D01*
X136699997Y-105005492D01*
X136700000Y-105005492D01*
X136700003Y-105005492D01*
X136825300Y-104985647D01*
X136825301Y-104985647D01*
X136825302Y-104985646D01*
X136825304Y-104985646D01*
X136938342Y-104928050D01*
X136938346Y-104928046D01*
X136943671Y-104924179D01*
X137009478Y-104900702D01*
X137016552Y-104900500D01*
X137295500Y-104900500D01*
X137362539Y-104920185D01*
X137408294Y-104972989D01*
X137419500Y-105024500D01*
X137419500Y-106079269D01*
X137422353Y-106109699D01*
X137422353Y-106109701D01*
X137467206Y-106237880D01*
X137467209Y-106237886D01*
X137544999Y-106343288D01*
X137568970Y-106408917D01*
X137553654Y-106477087D01*
X137503914Y-106526155D01*
X137445229Y-106540921D01*
X136651383Y-106540921D01*
X136651311Y-106540900D01*
X136600000Y-106540900D01*
X136543603Y-106540900D01*
X136474672Y-106556634D01*
X136433641Y-106566000D01*
X136433638Y-106566001D01*
X136332019Y-106614941D01*
X136243835Y-106685271D01*
X136243834Y-106685273D01*
X136173514Y-106773462D01*
X136124583Y-106875087D01*
X136124583Y-106875088D01*
X136099494Y-106985052D01*
X136099493Y-106985056D01*
X136099500Y-107041389D01*
X136099500Y-111325500D01*
X136079815Y-111392539D01*
X136027011Y-111438294D01*
X135975500Y-111449500D01*
X135130247Y-111449500D01*
X135071770Y-111461131D01*
X135071769Y-111461132D01*
X135005447Y-111505447D01*
X134961132Y-111571769D01*
X134961131Y-111571770D01*
X134949500Y-111630247D01*
X134949500Y-112469752D01*
X134961131Y-112528229D01*
X134961132Y-112528230D01*
X135005447Y-112594552D01*
X135071769Y-112638867D01*
X135071770Y-112638868D01*
X135130247Y-112650499D01*
X135130250Y-112650500D01*
X135130252Y-112650500D01*
X135975500Y-112650500D01*
X136042539Y-112670185D01*
X136088294Y-112722989D01*
X136099500Y-112774500D01*
X136099500Y-113625500D01*
X136079815Y-113692539D01*
X136027011Y-113738294D01*
X135975500Y-113749500D01*
X135130247Y-113749500D01*
X135071770Y-113761131D01*
X135071769Y-113761132D01*
X135005447Y-113805447D01*
X134961132Y-113871769D01*
X134961131Y-113871770D01*
X134949500Y-113930247D01*
X134949500Y-114625500D01*
X134929815Y-114692539D01*
X134877011Y-114738294D01*
X134825500Y-114749500D01*
X128974500Y-114749500D01*
X128907461Y-114729815D01*
X128861706Y-114677011D01*
X128850500Y-114625500D01*
X128850500Y-113930249D01*
X128850499Y-113930247D01*
X128838868Y-113871770D01*
X128838867Y-113871769D01*
X128794552Y-113805447D01*
X128728230Y-113761132D01*
X128728229Y-113761131D01*
X128669752Y-113749500D01*
X128669748Y-113749500D01*
X127724500Y-113749500D01*
X127657461Y-113729815D01*
X127611706Y-113677011D01*
X127600500Y-113625500D01*
X127600500Y-113285542D01*
X129695500Y-113285542D01*
X129736441Y-113451650D01*
X129736442Y-113451653D01*
X129736443Y-113451654D01*
X129815950Y-113603141D01*
X129929399Y-113731199D01*
X130070198Y-113828385D01*
X130157472Y-113861483D01*
X130230160Y-113889051D01*
X130230162Y-113889051D01*
X130230164Y-113889052D01*
X130272572Y-113894201D01*
X130357387Y-113904500D01*
X130357389Y-113904500D01*
X130442613Y-113904500D01*
X130506223Y-113896776D01*
X130569836Y-113889052D01*
X130729802Y-113828385D01*
X130870601Y-113731199D01*
X130984050Y-113603141D01*
X131063557Y-113451654D01*
X131104500Y-113285542D01*
X132695500Y-113285542D01*
X132736441Y-113451650D01*
X132736442Y-113451653D01*
X132736443Y-113451654D01*
X132815950Y-113603141D01*
X132929399Y-113731199D01*
X133070198Y-113828385D01*
X133157472Y-113861483D01*
X133230160Y-113889051D01*
X133230162Y-113889051D01*
X133230164Y-113889052D01*
X133272572Y-113894201D01*
X133357387Y-113904500D01*
X133357389Y-113904500D01*
X133442613Y-113904500D01*
X133506223Y-113896776D01*
X133569836Y-113889052D01*
X133729802Y-113828385D01*
X133870601Y-113731199D01*
X133984050Y-113603141D01*
X134063557Y-113451654D01*
X134104500Y-113285542D01*
X134104500Y-113114458D01*
X134063557Y-112948346D01*
X133984050Y-112796859D01*
X133870601Y-112668801D01*
X133844087Y-112650500D01*
X133729803Y-112571616D01*
X133729802Y-112571615D01*
X133569839Y-112510948D01*
X133569834Y-112510947D01*
X133442613Y-112495500D01*
X133442611Y-112495500D01*
X133357389Y-112495500D01*
X133357387Y-112495500D01*
X133230165Y-112510947D01*
X133230160Y-112510948D01*
X133070197Y-112571615D01*
X133070196Y-112571616D01*
X132929399Y-112668800D01*
X132815950Y-112796859D01*
X132736441Y-112948349D01*
X132695500Y-113114457D01*
X132695500Y-113285542D01*
X131104500Y-113285542D01*
X131104500Y-113114458D01*
X131063557Y-112948346D01*
X130984050Y-112796859D01*
X130870601Y-112668801D01*
X130844087Y-112650500D01*
X130729803Y-112571616D01*
X130729802Y-112571615D01*
X130569839Y-112510948D01*
X130569834Y-112510947D01*
X130442613Y-112495500D01*
X130442611Y-112495500D01*
X130357389Y-112495500D01*
X130357387Y-112495500D01*
X130230165Y-112510947D01*
X130230160Y-112510948D01*
X130070197Y-112571615D01*
X130070196Y-112571616D01*
X129929399Y-112668800D01*
X129815950Y-112796859D01*
X129736441Y-112948349D01*
X129695500Y-113114457D01*
X129695500Y-113285542D01*
X127600500Y-113285542D01*
X127600500Y-112774500D01*
X127620185Y-112707461D01*
X127672989Y-112661706D01*
X127724500Y-112650500D01*
X128669750Y-112650500D01*
X128669751Y-112650499D01*
X128684568Y-112647552D01*
X128728229Y-112638868D01*
X128728229Y-112638867D01*
X128728231Y-112638867D01*
X128794552Y-112594552D01*
X128838867Y-112528231D01*
X128838867Y-112528229D01*
X128838868Y-112528229D01*
X128850499Y-112469752D01*
X128850500Y-112469750D01*
X128850500Y-111630249D01*
X128850499Y-111630247D01*
X128838868Y-111571770D01*
X128838867Y-111571769D01*
X128794552Y-111505447D01*
X128728230Y-111461132D01*
X128728229Y-111461131D01*
X128669752Y-111449500D01*
X128669748Y-111449500D01*
X127724500Y-111449500D01*
X127657461Y-111429815D01*
X127611706Y-111377011D01*
X127600500Y-111325500D01*
X127600500Y-105298367D01*
X127620185Y-105231328D01*
X127672989Y-105185573D01*
X127742147Y-105175629D01*
X127805703Y-105204654D01*
X127830087Y-105233349D01*
X127844737Y-105257142D01*
X127907048Y-105358342D01*
X128059380Y-105531425D01*
X128059384Y-105531429D01*
X128238765Y-105676269D01*
X128238766Y-105676270D01*
X128238769Y-105676271D01*
X128238772Y-105676274D01*
X128440063Y-105788721D01*
X128657462Y-105865533D01*
X128784272Y-105887277D01*
X128884706Y-105904499D01*
X128884715Y-105904500D01*
X129057540Y-105904500D01*
X129229734Y-105889844D01*
X129229737Y-105889843D01*
X129229739Y-105889843D01*
X129452869Y-105831745D01*
X129636754Y-105748624D01*
X129662965Y-105736776D01*
X129662967Y-105736775D01*
X129662967Y-105736774D01*
X129662971Y-105736773D01*
X129854000Y-105607659D01*
X130020462Y-105448119D01*
X130157566Y-105262742D01*
X130261370Y-105056860D01*
X130328886Y-104836397D01*
X130358172Y-104607694D01*
X130348386Y-104377332D01*
X130299810Y-104151938D01*
X130213841Y-103937994D01*
X130092951Y-103741657D01*
X129940620Y-103568575D01*
X129940619Y-103568574D01*
X129940615Y-103568570D01*
X129761234Y-103423730D01*
X129761233Y-103423729D01*
X129559938Y-103311279D01*
X129342541Y-103234468D01*
X129342540Y-103234467D01*
X129342538Y-103234467D01*
X129342534Y-103234466D01*
X129342533Y-103234466D01*
X129115293Y-103195500D01*
X129115285Y-103195500D01*
X128942465Y-103195500D01*
X128942460Y-103195500D01*
X128770265Y-103210155D01*
X128547131Y-103268254D01*
X128337034Y-103363223D01*
X128337032Y-103363224D01*
X128231036Y-103434866D01*
X128155955Y-103485613D01*
X128145999Y-103492342D01*
X127979540Y-103651878D01*
X127842434Y-103837257D01*
X127835222Y-103851562D01*
X127787463Y-103902560D01*
X127719714Y-103919643D01*
X127653484Y-103897385D01*
X127609801Y-103842854D01*
X127600500Y-103795735D01*
X127600500Y-101950000D01*
X131140001Y-101950000D01*
X131140001Y-102023000D01*
X131142786Y-102052720D01*
X131186596Y-102177922D01*
X131265358Y-102284641D01*
X131372080Y-102363405D01*
X131497267Y-102407211D01*
X131497279Y-102407213D01*
X131526977Y-102409998D01*
X131527006Y-102409999D01*
X131570000Y-102409999D01*
X131570000Y-101950000D01*
X131140001Y-101950000D01*
X127600500Y-101950000D01*
X127600500Y-94970000D01*
X128090000Y-94970000D01*
X128550000Y-94970000D01*
X128550000Y-94540000D01*
X128549999Y-94539999D01*
X128477000Y-94540000D01*
X128447279Y-94542786D01*
X128322077Y-94586596D01*
X128215358Y-94665358D01*
X128136594Y-94772080D01*
X128092788Y-94897267D01*
X128092786Y-94897279D01*
X128090000Y-94926992D01*
X128090000Y-94970000D01*
X127600500Y-94970000D01*
X127600500Y-92670000D01*
X128090000Y-92670000D01*
X128550000Y-92670000D01*
X128550000Y-92240000D01*
X128850000Y-92240000D01*
X128850000Y-92670000D01*
X129309999Y-92670000D01*
X129590000Y-92670000D01*
X130050000Y-92670000D01*
X130050000Y-92240000D01*
X130049999Y-92239999D01*
X129977000Y-92240000D01*
X129947279Y-92242786D01*
X129822077Y-92286596D01*
X129715358Y-92365358D01*
X129636594Y-92472080D01*
X129592788Y-92597267D01*
X129592786Y-92597279D01*
X129590000Y-92626992D01*
X129590000Y-92670000D01*
X129309999Y-92670000D01*
X129309999Y-92626999D01*
X129307213Y-92597279D01*
X129263403Y-92472077D01*
X129184641Y-92365358D01*
X129077919Y-92286594D01*
X128952732Y-92242788D01*
X128952720Y-92242786D01*
X128923007Y-92240000D01*
X128850000Y-92240000D01*
X128550000Y-92240000D01*
X128549999Y-92239999D01*
X128477000Y-92240000D01*
X128447279Y-92242786D01*
X128322077Y-92286596D01*
X128215358Y-92365358D01*
X128136594Y-92472080D01*
X128092788Y-92597267D01*
X128092786Y-92597279D01*
X128090000Y-92626992D01*
X128090000Y-92670000D01*
X127600500Y-92670000D01*
X127600500Y-90370000D01*
X128090000Y-90370000D01*
X128550000Y-90370000D01*
X128550000Y-89940000D01*
X128850000Y-89940000D01*
X128850000Y-90370000D01*
X129309999Y-90370000D01*
X129309999Y-90326999D01*
X129307213Y-90297279D01*
X129263403Y-90172077D01*
X129184641Y-90065358D01*
X129077919Y-89986594D01*
X128952732Y-89942788D01*
X128952720Y-89942786D01*
X128923007Y-89940000D01*
X128850000Y-89940000D01*
X128550000Y-89940000D01*
X128549999Y-89939999D01*
X128477000Y-89940000D01*
X128447279Y-89942786D01*
X128322077Y-89986596D01*
X128215358Y-90065358D01*
X128136594Y-90172080D01*
X128092788Y-90297267D01*
X128092786Y-90297279D01*
X128090000Y-90326992D01*
X128090000Y-90370000D01*
X127600500Y-90370000D01*
X127600500Y-88974500D01*
X127620185Y-88907461D01*
X127672989Y-88861706D01*
X127724500Y-88850500D01*
X128067658Y-88850500D01*
X128067660Y-88850500D01*
X128067662Y-88850499D01*
X128067666Y-88850499D01*
X128199580Y-88820391D01*
X128199580Y-88820390D01*
X128199588Y-88820389D01*
X128320251Y-88762279D01*
X128374052Y-88750000D01*
X128500000Y-88750000D01*
X128500000Y-88624051D01*
X128512278Y-88570253D01*
X128570389Y-88449588D01*
X128578987Y-88411919D01*
X128600499Y-88317666D01*
X128600500Y-88317658D01*
X128600500Y-85474500D01*
X128620185Y-85407461D01*
X128672989Y-85361706D01*
X128724500Y-85350500D01*
X130164330Y-85350500D01*
X130231369Y-85370185D01*
G37*
%TD.AperFunction*%
%TA.AperFunction,Conductor*%
G36*
X151942539Y-85370185D02*
G01*
X151988294Y-85422989D01*
X151999500Y-85474500D01*
X151999500Y-88317656D01*
X151999610Y-88318632D01*
X152000000Y-88325582D01*
X152000000Y-88750000D01*
X152225948Y-88750000D01*
X152279748Y-88762279D01*
X152400412Y-88820389D01*
X152400416Y-88820390D01*
X152400419Y-88820391D01*
X152532333Y-88850499D01*
X152532338Y-88850499D01*
X152532340Y-88850500D01*
X152543827Y-88850500D01*
X152875500Y-88850500D01*
X152942539Y-88870185D01*
X152988294Y-88922989D01*
X152999500Y-88974500D01*
X152999500Y-103801632D01*
X152979815Y-103868671D01*
X152927011Y-103914426D01*
X152857853Y-103924370D01*
X152794297Y-103895345D01*
X152769910Y-103866646D01*
X152753195Y-103839500D01*
X152692951Y-103741657D01*
X152540620Y-103568575D01*
X152540619Y-103568574D01*
X152540615Y-103568570D01*
X152361234Y-103423730D01*
X152361233Y-103423729D01*
X152159938Y-103311279D01*
X151942541Y-103234468D01*
X151942540Y-103234467D01*
X151942538Y-103234467D01*
X151942534Y-103234466D01*
X151942533Y-103234466D01*
X151715293Y-103195500D01*
X151715285Y-103195500D01*
X151542465Y-103195500D01*
X151542460Y-103195500D01*
X151370265Y-103210155D01*
X151147131Y-103268254D01*
X150937034Y-103363223D01*
X150937032Y-103363224D01*
X150831036Y-103434866D01*
X150755955Y-103485613D01*
X150745999Y-103492342D01*
X150579540Y-103651878D01*
X150442434Y-103837257D01*
X150338630Y-104043138D01*
X150271113Y-104263606D01*
X150241828Y-104492306D01*
X150251613Y-104722662D01*
X150251614Y-104722670D01*
X150300190Y-104948062D01*
X150300190Y-104948063D01*
X150386157Y-105162002D01*
X150386159Y-105162006D01*
X150430089Y-105233353D01*
X150507048Y-105358342D01*
X150659380Y-105531425D01*
X150659384Y-105531429D01*
X150838765Y-105676269D01*
X150838766Y-105676270D01*
X150838769Y-105676271D01*
X150838772Y-105676274D01*
X151040063Y-105788721D01*
X151257462Y-105865533D01*
X151384272Y-105887277D01*
X151484706Y-105904499D01*
X151484715Y-105904500D01*
X151657540Y-105904500D01*
X151829734Y-105889844D01*
X151829737Y-105889843D01*
X151829739Y-105889843D01*
X152052869Y-105831745D01*
X152236754Y-105748624D01*
X152262965Y-105736776D01*
X152262967Y-105736775D01*
X152262967Y-105736774D01*
X152262971Y-105736773D01*
X152454000Y-105607659D01*
X152620462Y-105448119D01*
X152757566Y-105262742D01*
X152764777Y-105248437D01*
X152812535Y-105197440D01*
X152880284Y-105180356D01*
X152946514Y-105202613D01*
X152990198Y-105257142D01*
X152999500Y-105304264D01*
X152999500Y-114625500D01*
X152979815Y-114692539D01*
X152927011Y-114738294D01*
X152875500Y-114749500D01*
X152340311Y-114749500D01*
X152273272Y-114729815D01*
X152227517Y-114677011D01*
X152217573Y-114607853D01*
X152228910Y-114571040D01*
X152270645Y-114485670D01*
X152280500Y-114418028D01*
X152280500Y-114006972D01*
X152270645Y-113939330D01*
X152219636Y-113834989D01*
X152219634Y-113834987D01*
X152219634Y-113834986D01*
X152137514Y-113752866D01*
X152129152Y-113746896D01*
X152131253Y-113743953D01*
X152093444Y-113709394D01*
X152075500Y-113645144D01*
X152075500Y-113114479D01*
X152095185Y-113047440D01*
X152147094Y-113002097D01*
X152180404Y-112986565D01*
X152264065Y-112902904D01*
X152314068Y-112795673D01*
X152320500Y-112746816D01*
X152320500Y-112398184D01*
X152314068Y-112349327D01*
X152264065Y-112242096D01*
X152180404Y-112158435D01*
X152172733Y-112150764D01*
X152175561Y-112147935D01*
X152144843Y-112109523D01*
X152137635Y-112040026D01*
X152169143Y-111977665D01*
X152172903Y-111974406D01*
X152172733Y-111974236D01*
X152180404Y-111966565D01*
X152264065Y-111882904D01*
X152314068Y-111775673D01*
X152320500Y-111726816D01*
X152320500Y-111378184D01*
X152314068Y-111329327D01*
X152264065Y-111222096D01*
X152180404Y-111138435D01*
X152172733Y-111130764D01*
X152175087Y-111128409D01*
X152142906Y-111088156D01*
X152135706Y-111018659D01*
X152136689Y-111014781D01*
X152154869Y-110900002D01*
X152154869Y-110899997D01*
X152137501Y-110790341D01*
X152136386Y-110788152D01*
X152087095Y-110691413D01*
X152087092Y-110691410D01*
X152087090Y-110691407D01*
X152008592Y-110612909D01*
X152008588Y-110612906D01*
X152008587Y-110612905D01*
X152004743Y-110610946D01*
X151909658Y-110562498D01*
X151800002Y-110545131D01*
X151799998Y-110545131D01*
X151690341Y-110562498D01*
X151591414Y-110612904D01*
X151591407Y-110612909D01*
X151512909Y-110691407D01*
X151512904Y-110691414D01*
X151462498Y-110790341D01*
X151445131Y-110899997D01*
X151445131Y-110900002D01*
X151464026Y-111019300D01*
X151460765Y-111019816D01*
X151462275Y-111072673D01*
X151427252Y-111130749D01*
X151427267Y-111130764D01*
X151427207Y-111130823D01*
X151426193Y-111132506D01*
X151422797Y-111135233D01*
X151335935Y-111222095D01*
X151285931Y-111329328D01*
X151279500Y-111378183D01*
X151279500Y-111726816D01*
X151285931Y-111775671D01*
X151335935Y-111882904D01*
X151427267Y-111974236D01*
X151424443Y-111977059D01*
X151455183Y-112015542D01*
X151462352Y-112085042D01*
X151430808Y-112147386D01*
X151427101Y-112150598D01*
X151427267Y-112150764D01*
X151335935Y-112242095D01*
X151285931Y-112349328D01*
X151279500Y-112398183D01*
X151279500Y-112746816D01*
X151285931Y-112795671D01*
X151285932Y-112795673D01*
X151335935Y-112902904D01*
X151419596Y-112986565D01*
X151452905Y-113002097D01*
X151505343Y-113048268D01*
X151524500Y-113114479D01*
X151524500Y-113630477D01*
X151504815Y-113697516D01*
X151454962Y-113741877D01*
X151432955Y-113752636D01*
X151364082Y-113764396D01*
X151299785Y-113737054D01*
X151289464Y-113726183D01*
X151289079Y-113726569D01*
X151282504Y-113719995D01*
X151173964Y-113639888D01*
X151046632Y-113595334D01*
X151016408Y-113592500D01*
X150965000Y-113592500D01*
X150965000Y-114238500D01*
X150945315Y-114305539D01*
X150892511Y-114351294D01*
X150841000Y-114362500D01*
X150789000Y-114362500D01*
X150721961Y-114342815D01*
X150676206Y-114290011D01*
X150665000Y-114238500D01*
X150665000Y-113592500D01*
X150613592Y-113592500D01*
X150583369Y-113595334D01*
X150583365Y-113595334D01*
X150465454Y-113636593D01*
X150395675Y-113640154D01*
X150335048Y-113605425D01*
X150302821Y-113543431D01*
X150300500Y-113519551D01*
X150300500Y-107019583D01*
X150300481Y-107019183D01*
X150300485Y-106985057D01*
X150300484Y-106985052D01*
X150289269Y-106935897D01*
X150275397Y-106875095D01*
X150226467Y-106773473D01*
X150168523Y-106700804D01*
X150156154Y-106685291D01*
X150156149Y-106685286D01*
X150067969Y-106614959D01*
X149966354Y-106566021D01*
X149966350Y-106566020D01*
X149953962Y-106563192D01*
X149856394Y-106540921D01*
X149856391Y-106540921D01*
X149078676Y-106540921D01*
X149011637Y-106521236D01*
X148965882Y-106468432D01*
X148955938Y-106399274D01*
X148979872Y-106341996D01*
X149013919Y-106297097D01*
X149069386Y-106156443D01*
X149080000Y-106068053D01*
X149080000Y-106037132D01*
X148280000Y-105237132D01*
X147480000Y-106037131D01*
X147480000Y-106068053D01*
X147490613Y-106156443D01*
X147546080Y-106297097D01*
X147580128Y-106341996D01*
X147604951Y-106407308D01*
X147590523Y-106475671D01*
X147541425Y-106525382D01*
X147481324Y-106540921D01*
X146414771Y-106540921D01*
X146347732Y-106521236D01*
X146301977Y-106468432D01*
X146292033Y-106399274D01*
X146315001Y-106343288D01*
X146392790Y-106237886D01*
X146392789Y-106237886D01*
X146392793Y-106237882D01*
X146427846Y-106137706D01*
X146437646Y-106109701D01*
X146437646Y-106109699D01*
X146440500Y-106079269D01*
X146440500Y-104437131D01*
X147480000Y-104437131D01*
X147480000Y-105612868D01*
X148067868Y-105025000D01*
X148492132Y-105025000D01*
X149079999Y-105612868D01*
X149080000Y-105612867D01*
X149080000Y-104437132D01*
X149079999Y-104437131D01*
X148492132Y-105024999D01*
X148492132Y-105025000D01*
X148067868Y-105025000D01*
X148067868Y-105024999D01*
X147480000Y-104437131D01*
X146440500Y-104437131D01*
X146440500Y-103970730D01*
X146437646Y-103940300D01*
X146437646Y-103940298D01*
X146392793Y-103812119D01*
X146392792Y-103812117D01*
X146385054Y-103801632D01*
X146364020Y-103773132D01*
X146340050Y-103707505D01*
X146355365Y-103639335D01*
X146405105Y-103590266D01*
X146463791Y-103575500D01*
X147433850Y-103575500D01*
X147500889Y-103595185D01*
X147546644Y-103647989D01*
X147556588Y-103717147D01*
X147547387Y-103744303D01*
X147549191Y-103745015D01*
X147490613Y-103893556D01*
X147480000Y-103981946D01*
X147480000Y-104012868D01*
X148280000Y-104812868D01*
X149079999Y-104012868D01*
X149080000Y-104012867D01*
X149080000Y-103981946D01*
X149069386Y-103893556D01*
X149013920Y-103752904D01*
X148922564Y-103632435D01*
X148828074Y-103560780D01*
X148786551Y-103504587D01*
X148782000Y-103434866D01*
X148815317Y-103374297D01*
X149766990Y-102422624D01*
X149785774Y-102407209D01*
X149798624Y-102398624D01*
X149818324Y-102369142D01*
X149828204Y-102354355D01*
X149854877Y-102314436D01*
X149856044Y-102312688D01*
X149859515Y-102307495D01*
X149875500Y-102227133D01*
X149875500Y-102227132D01*
X149875929Y-102224977D01*
X149876687Y-102221167D01*
X149876687Y-102221162D01*
X149880897Y-102200000D01*
X149877883Y-102184847D01*
X149875500Y-102160655D01*
X149875500Y-101874238D01*
X149895185Y-101807199D01*
X149947989Y-101761444D01*
X150017147Y-101751500D01*
X150040049Y-101758762D01*
X150040417Y-101757631D01*
X150049698Y-101760647D01*
X150143475Y-101775499D01*
X150143481Y-101775500D01*
X150606518Y-101775499D01*
X150700304Y-101760646D01*
X150813342Y-101703050D01*
X150903050Y-101613342D01*
X150960646Y-101500304D01*
X150960646Y-101500302D01*
X150960647Y-101500301D01*
X150971526Y-101431608D01*
X150975500Y-101406519D01*
X150975499Y-101000831D01*
X150995183Y-100933793D01*
X151011813Y-100913156D01*
X151012821Y-100912148D01*
X151074142Y-100878665D01*
X151143834Y-100883649D01*
X151199767Y-100925521D01*
X151224184Y-100990985D01*
X151224500Y-100999831D01*
X151224500Y-101406517D01*
X151235292Y-101474657D01*
X151239354Y-101500304D01*
X151296950Y-101613342D01*
X151296952Y-101613344D01*
X151296954Y-101613347D01*
X151386652Y-101703045D01*
X151386654Y-101703046D01*
X151386658Y-101703050D01*
X151499694Y-101760645D01*
X151499698Y-101760647D01*
X151593475Y-101775499D01*
X151593481Y-101775500D01*
X152056518Y-101775499D01*
X152150304Y-101760646D01*
X152263342Y-101703050D01*
X152353050Y-101613342D01*
X152410646Y-101500304D01*
X152410646Y-101500302D01*
X152410647Y-101500301D01*
X152421526Y-101431608D01*
X152425500Y-101406519D01*
X152425499Y-100843482D01*
X152410646Y-100749696D01*
X152353050Y-100636658D01*
X152353046Y-100636654D01*
X152353045Y-100636652D01*
X152263347Y-100546954D01*
X152263344Y-100546952D01*
X152263342Y-100546950D01*
X152179164Y-100504059D01*
X152150301Y-100489352D01*
X152056524Y-100474500D01*
X151593481Y-100474500D01*
X151518896Y-100486313D01*
X151449603Y-100477357D01*
X151396151Y-100432360D01*
X151375513Y-100365608D01*
X151375500Y-100363839D01*
X151375500Y-100141363D01*
X151395185Y-100074324D01*
X151447989Y-100028569D01*
X151512758Y-100018074D01*
X151577160Y-100024999D01*
X151577172Y-100025000D01*
X151675000Y-100025000D01*
X151675000Y-99425000D01*
X151975000Y-99425000D01*
X151975000Y-100025000D01*
X152072828Y-100025000D01*
X152072844Y-100024999D01*
X152132372Y-100018598D01*
X152132379Y-100018596D01*
X152267086Y-99968354D01*
X152267093Y-99968350D01*
X152382187Y-99882190D01*
X152382190Y-99882187D01*
X152468350Y-99767093D01*
X152468354Y-99767086D01*
X152518596Y-99632379D01*
X152518598Y-99632372D01*
X152524999Y-99572844D01*
X152525000Y-99572827D01*
X152525000Y-99425000D01*
X151975000Y-99425000D01*
X151675000Y-99425000D01*
X151675000Y-98525000D01*
X151975000Y-98525000D01*
X151975000Y-99125000D01*
X152525000Y-99125000D01*
X152525000Y-98977172D01*
X152524999Y-98977155D01*
X152518598Y-98917627D01*
X152518596Y-98917620D01*
X152468354Y-98782913D01*
X152468350Y-98782906D01*
X152382190Y-98667812D01*
X152382187Y-98667809D01*
X152267093Y-98581649D01*
X152267086Y-98581645D01*
X152132379Y-98531403D01*
X152132372Y-98531401D01*
X152072844Y-98525000D01*
X151975000Y-98525000D01*
X151675000Y-98525000D01*
X151577172Y-98525000D01*
X151577153Y-98525001D01*
X151514752Y-98531710D01*
X151445993Y-98519305D01*
X151394855Y-98471695D01*
X151377630Y-98414148D01*
X151375584Y-98369873D01*
X151375566Y-98369488D01*
X151375500Y-98366626D01*
X151375500Y-98347159D01*
X151375499Y-98347153D01*
X151375060Y-98344808D01*
X151375008Y-98344527D01*
X151374016Y-98335980D01*
X151372585Y-98305008D01*
X151369788Y-98298675D01*
X151361332Y-98271368D01*
X151360061Y-98264567D01*
X151343736Y-98238202D01*
X151339735Y-98230612D01*
X151327206Y-98202235D01*
X151322309Y-98197338D01*
X151304563Y-98174934D01*
X151304404Y-98174678D01*
X151300919Y-98169048D01*
X151276171Y-98150359D01*
X151269694Y-98144723D01*
X150946818Y-97821847D01*
X150913333Y-97760524D01*
X150910499Y-97734166D01*
X150910499Y-97550105D01*
X150910499Y-97550100D01*
X150903972Y-97500513D01*
X150853224Y-97391684D01*
X150853223Y-97391683D01*
X150848639Y-97381852D01*
X150851062Y-97380721D01*
X150833858Y-97329710D01*
X150850867Y-97261942D01*
X150878323Y-97231464D01*
X150878071Y-97231212D01*
X150882918Y-97226364D01*
X150884137Y-97225012D01*
X150884643Y-97224638D01*
X150963405Y-97117919D01*
X151007211Y-96992732D01*
X151007213Y-96992720D01*
X151010000Y-96963007D01*
X151010000Y-96920000D01*
X149790001Y-96920000D01*
X149790001Y-96963000D01*
X149792786Y-96992720D01*
X149839665Y-97126692D01*
X149837592Y-97127417D01*
X149849000Y-97183518D01*
X149823696Y-97248644D01*
X149767199Y-97289752D01*
X149706057Y-97295466D01*
X149700006Y-97294508D01*
X149699997Y-97294508D01*
X149574699Y-97314352D01*
X149574694Y-97314354D01*
X149555254Y-97324259D01*
X149486584Y-97337154D01*
X149421844Y-97310875D01*
X149381589Y-97253768D01*
X149376721Y-97231293D01*
X149376689Y-97231300D01*
X149376306Y-97229376D01*
X149375558Y-97225921D01*
X149375500Y-97225333D01*
X149375500Y-97225326D01*
X149375498Y-97225318D01*
X149375498Y-97225313D01*
X149360968Y-97152267D01*
X149360966Y-97152264D01*
X149360966Y-97152260D01*
X149360963Y-97152256D01*
X149358977Y-97147461D01*
X149351504Y-97077992D01*
X149358977Y-97052539D01*
X149360962Y-97047745D01*
X149360966Y-97047740D01*
X149364046Y-97032259D01*
X149370655Y-96999029D01*
X149375500Y-96974674D01*
X149375500Y-96825326D01*
X149375500Y-96825323D01*
X149375499Y-96825321D01*
X149360968Y-96752267D01*
X149360966Y-96752264D01*
X149360966Y-96752260D01*
X149360963Y-96752256D01*
X149358977Y-96747461D01*
X149351504Y-96677992D01*
X149358977Y-96652539D01*
X149360962Y-96647745D01*
X149360966Y-96647740D01*
X149361051Y-96647316D01*
X149374762Y-96578382D01*
X149375500Y-96574674D01*
X149375500Y-96499500D01*
X149395185Y-96432461D01*
X149447989Y-96386706D01*
X149499500Y-96375500D01*
X149678132Y-96375500D01*
X149745171Y-96395185D01*
X149790926Y-96447989D01*
X149800870Y-96517147D01*
X149795172Y-96540458D01*
X149792788Y-96547269D01*
X149792786Y-96547279D01*
X149790000Y-96576992D01*
X149790000Y-96620000D01*
X150250000Y-96620000D01*
X150250000Y-96190976D01*
X150250287Y-96190000D01*
X150550000Y-96190000D01*
X150550000Y-96620000D01*
X151009999Y-96620000D01*
X151009999Y-96576999D01*
X151007213Y-96547279D01*
X150963403Y-96422077D01*
X150884641Y-96315358D01*
X150777919Y-96236594D01*
X150652732Y-96192788D01*
X150652720Y-96192786D01*
X150623007Y-96190000D01*
X150550000Y-96190000D01*
X150250287Y-96190000D01*
X150269685Y-96123937D01*
X150286314Y-96103300D01*
X150338321Y-96051293D01*
X150387045Y-96024688D01*
X150405263Y-95984797D01*
X150411281Y-95978333D01*
X152066990Y-94322624D01*
X152085774Y-94307209D01*
X152098624Y-94298624D01*
X152115024Y-94274081D01*
X152134368Y-94245131D01*
X152149442Y-94222569D01*
X152159515Y-94207495D01*
X152159515Y-94207493D01*
X152159516Y-94207493D01*
X152174809Y-94130607D01*
X152175500Y-94127133D01*
X152175500Y-94127132D01*
X152180897Y-94100000D01*
X152177883Y-94084847D01*
X152175500Y-94060655D01*
X152175500Y-89939344D01*
X152177883Y-89915151D01*
X152180897Y-89899999D01*
X152175500Y-89872867D01*
X152173037Y-89860487D01*
X152159515Y-89792505D01*
X152127520Y-89744621D01*
X152113994Y-89724378D01*
X152113992Y-89724376D01*
X152098624Y-89701376D01*
X152098622Y-89701374D01*
X152098621Y-89701373D01*
X152085775Y-89692790D01*
X152066985Y-89677369D01*
X150522627Y-88133011D01*
X150507205Y-88114219D01*
X150498624Y-88101376D01*
X150498620Y-88101372D01*
X150475623Y-88086007D01*
X150466160Y-88079684D01*
X150422483Y-88050500D01*
X150407495Y-88040485D01*
X150407493Y-88040484D01*
X150407491Y-88040483D01*
X150407493Y-88040483D01*
X150322849Y-88023647D01*
X150322816Y-88023641D01*
X150303816Y-88019862D01*
X150300001Y-88019103D01*
X150300000Y-88019103D01*
X150284846Y-88022117D01*
X150260656Y-88024500D01*
X149551979Y-88024500D01*
X149484940Y-88004815D01*
X149439597Y-87952905D01*
X149434321Y-87941590D01*
X149424065Y-87919596D01*
X149340404Y-87835935D01*
X149233173Y-87785932D01*
X149233171Y-87785931D01*
X149233172Y-87785931D01*
X149184317Y-87779500D01*
X149184316Y-87779500D01*
X148835684Y-87779500D01*
X148835683Y-87779500D01*
X148786828Y-87785931D01*
X148679595Y-87835935D01*
X148588264Y-87927267D01*
X148585440Y-87924443D01*
X148546958Y-87955183D01*
X148477458Y-87962352D01*
X148415114Y-87930808D01*
X148411901Y-87927101D01*
X148411736Y-87927267D01*
X148320404Y-87835935D01*
X148295993Y-87824552D01*
X148213173Y-87785932D01*
X148213171Y-87785931D01*
X148213172Y-87785931D01*
X148164317Y-87779500D01*
X148164316Y-87779500D01*
X147815684Y-87779500D01*
X147815683Y-87779500D01*
X147766828Y-87785931D01*
X147659595Y-87835935D01*
X147575935Y-87919595D01*
X147560403Y-87952905D01*
X147514231Y-88005344D01*
X147448021Y-88024500D01*
X147146911Y-88024500D01*
X147079872Y-88004815D01*
X147035511Y-87954961D01*
X147019635Y-87922487D01*
X146937513Y-87840365D01*
X146833171Y-87789355D01*
X146819106Y-87787306D01*
X146765528Y-87779500D01*
X146404472Y-87779500D01*
X146360325Y-87785932D01*
X146336828Y-87789355D01*
X146232953Y-87840137D01*
X146164080Y-87851895D01*
X146099783Y-87824552D01*
X146089464Y-87813683D01*
X146089079Y-87814069D01*
X146082504Y-87807495D01*
X145973964Y-87727388D01*
X145846632Y-87682834D01*
X145816408Y-87680000D01*
X145765000Y-87680000D01*
X145765000Y-88326000D01*
X145745315Y-88393039D01*
X145692511Y-88438794D01*
X145641000Y-88450000D01*
X145020000Y-88450000D01*
X145020000Y-88526404D01*
X145020705Y-88533920D01*
X145007367Y-88602504D01*
X144959067Y-88652991D01*
X144897247Y-88669500D01*
X141004500Y-88669500D01*
X140937461Y-88649815D01*
X140891706Y-88597011D01*
X140880500Y-88545500D01*
X140880500Y-88150000D01*
X145020000Y-88150000D01*
X145465000Y-88150000D01*
X145465000Y-87680000D01*
X145413592Y-87680000D01*
X145383369Y-87682834D01*
X145383365Y-87682834D01*
X145256035Y-87727388D01*
X145147495Y-87807495D01*
X145067388Y-87916035D01*
X145022834Y-88043365D01*
X145022834Y-88043369D01*
X145020000Y-88073592D01*
X145020000Y-88150000D01*
X140880500Y-88150000D01*
X140880500Y-87914500D01*
X140900185Y-87847461D01*
X140952989Y-87801706D01*
X141004500Y-87790500D01*
X141259749Y-87790500D01*
X141270030Y-87788454D01*
X141275805Y-87787306D01*
X141324195Y-87787306D01*
X141327715Y-87788006D01*
X141340250Y-87790500D01*
X141340252Y-87790500D01*
X141759749Y-87790500D01*
X141770030Y-87788454D01*
X141775805Y-87787306D01*
X141824195Y-87787306D01*
X141827715Y-87788006D01*
X141840250Y-87790500D01*
X141840252Y-87790500D01*
X142259749Y-87790500D01*
X142270030Y-87788454D01*
X142275805Y-87787306D01*
X142324195Y-87787306D01*
X142327715Y-87788006D01*
X142340250Y-87790500D01*
X142584873Y-87790500D01*
X142651912Y-87810185D01*
X142672554Y-87826819D01*
X142687520Y-87841785D01*
X142687525Y-87841788D01*
X142790123Y-87887089D01*
X142815206Y-87889999D01*
X142899999Y-87889998D01*
X142900000Y-87889998D01*
X142900000Y-87749047D01*
X142919685Y-87682008D01*
X142920875Y-87680191D01*
X142928867Y-87668231D01*
X142928867Y-87668229D01*
X142928868Y-87668229D01*
X142940499Y-87609752D01*
X142940500Y-87609750D01*
X142940500Y-87177814D01*
X142960185Y-87110775D01*
X143000000Y-87076275D01*
X143000000Y-87250000D01*
X143200000Y-87250000D01*
X143200000Y-87889999D01*
X143284786Y-87889999D01*
X143284808Y-87889997D01*
X143309869Y-87887091D01*
X143309873Y-87887090D01*
X143412474Y-87841788D01*
X143412479Y-87841785D01*
X143491785Y-87762479D01*
X143491788Y-87762474D01*
X143537089Y-87659877D01*
X143537089Y-87659875D01*
X143539999Y-87634794D01*
X143540000Y-87634791D01*
X143540000Y-87474500D01*
X143559685Y-87407461D01*
X143612489Y-87361706D01*
X143664000Y-87350500D01*
X144767658Y-87350500D01*
X144767660Y-87350500D01*
X144767662Y-87350499D01*
X144767666Y-87350499D01*
X144899580Y-87320391D01*
X144899580Y-87320390D01*
X144899588Y-87320389D01*
X145020251Y-87262279D01*
X145074052Y-87250000D01*
X145250000Y-87250000D01*
X145250000Y-87223999D01*
X145269685Y-87156960D01*
X145322489Y-87111205D01*
X145374000Y-87099999D01*
X145850000Y-87099999D01*
X145850000Y-86200000D01*
X146150000Y-86200000D01*
X146150000Y-87099999D01*
X146794786Y-87099999D01*
X146794808Y-87099997D01*
X146819869Y-87097091D01*
X146819873Y-87097090D01*
X146922474Y-87051788D01*
X146922479Y-87051785D01*
X147001785Y-86972479D01*
X147001788Y-86972474D01*
X147047089Y-86869877D01*
X147047089Y-86869875D01*
X147049999Y-86844794D01*
X147050000Y-86844791D01*
X147050000Y-86200000D01*
X146150000Y-86200000D01*
X145850000Y-86200000D01*
X145850000Y-86024000D01*
X145869685Y-85956961D01*
X145922489Y-85911206D01*
X145974000Y-85900000D01*
X147049999Y-85900000D01*
X147049999Y-85474500D01*
X147069684Y-85407461D01*
X147122488Y-85361706D01*
X147173999Y-85350500D01*
X151875500Y-85350500D01*
X151942539Y-85370185D01*
G37*
%TD.AperFunction*%
%TA.AperFunction,Conductor*%
G36*
X138768691Y-102712735D02*
G01*
X138859998Y-102730897D01*
X138859999Y-102730897D01*
X138859999Y-102730896D01*
X138860000Y-102730897D01*
X138875153Y-102727882D01*
X138899344Y-102725500D01*
X139093029Y-102725500D01*
X139160068Y-102745185D01*
X139196131Y-102780609D01*
X139205447Y-102794552D01*
X139271769Y-102838867D01*
X139271770Y-102838868D01*
X139330247Y-102850499D01*
X139330250Y-102850500D01*
X139330252Y-102850500D01*
X139806259Y-102850500D01*
X139873298Y-102870185D01*
X139909361Y-102905609D01*
X139911373Y-102908621D01*
X139911374Y-102908622D01*
X139911376Y-102908624D01*
X139931793Y-102922266D01*
X139931817Y-102922283D01*
X140002504Y-102969515D01*
X140002506Y-102969516D01*
X140110000Y-102990897D01*
X140120546Y-102988799D01*
X140125160Y-102987882D01*
X140149348Y-102985500D01*
X140732941Y-102985500D01*
X140799980Y-103005185D01*
X140834516Y-103038377D01*
X140835934Y-103040402D01*
X140835935Y-103040404D01*
X140919596Y-103124065D01*
X141026827Y-103174068D01*
X141075683Y-103180500D01*
X141075684Y-103180500D01*
X141524317Y-103180500D01*
X141540601Y-103178356D01*
X141573173Y-103174068D01*
X141680404Y-103124065D01*
X141764065Y-103040404D01*
X141764067Y-103040398D01*
X141765484Y-103038377D01*
X141768513Y-103035955D01*
X141771736Y-103032733D01*
X141772095Y-103033092D01*
X141820061Y-102994752D01*
X141867059Y-102985500D01*
X142262597Y-102985500D01*
X142329636Y-103005185D01*
X142350278Y-103021818D01*
X142431684Y-103103224D01*
X142540513Y-103153972D01*
X142590099Y-103160500D01*
X143000500Y-103160499D01*
X143067539Y-103180183D01*
X143113294Y-103232987D01*
X143124500Y-103284499D01*
X143124500Y-103450500D01*
X143104815Y-103517539D01*
X143052011Y-103563294D01*
X143000500Y-103574500D01*
X142895730Y-103574500D01*
X142865300Y-103577353D01*
X142865298Y-103577353D01*
X142737119Y-103622206D01*
X142737117Y-103622207D01*
X142627850Y-103702850D01*
X142547207Y-103812117D01*
X142547206Y-103812119D01*
X142502353Y-103940298D01*
X142502353Y-103940300D01*
X142499500Y-103970730D01*
X142499500Y-106079269D01*
X142502353Y-106109699D01*
X142502353Y-106109701D01*
X142547206Y-106237880D01*
X142547209Y-106237886D01*
X142624999Y-106343288D01*
X142648970Y-106408917D01*
X142633654Y-106477087D01*
X142583914Y-106526155D01*
X142525229Y-106540921D01*
X141458676Y-106540921D01*
X141391637Y-106521236D01*
X141345882Y-106468432D01*
X141335938Y-106399274D01*
X141359872Y-106341996D01*
X141393919Y-106297097D01*
X141449386Y-106156443D01*
X141460000Y-106068053D01*
X141460000Y-106037132D01*
X140660000Y-105237132D01*
X139860000Y-106037131D01*
X139860000Y-106068053D01*
X139870613Y-106156443D01*
X139926080Y-106297097D01*
X139960128Y-106341996D01*
X139984951Y-106407308D01*
X139970523Y-106475671D01*
X139921425Y-106525382D01*
X139861324Y-106540921D01*
X138794771Y-106540921D01*
X138727732Y-106521236D01*
X138681977Y-106468432D01*
X138672033Y-106399274D01*
X138695001Y-106343288D01*
X138772790Y-106237886D01*
X138772789Y-106237886D01*
X138772793Y-106237882D01*
X138807846Y-106137706D01*
X138817646Y-106109701D01*
X138817646Y-106109699D01*
X138820500Y-106079269D01*
X138820500Y-105506216D01*
X138840185Y-105439177D01*
X138892989Y-105393422D01*
X138962147Y-105383478D01*
X138965050Y-105384153D01*
X138965056Y-105384120D01*
X139099997Y-105405492D01*
X139100000Y-105405492D01*
X139100003Y-105405492D01*
X139225300Y-105385647D01*
X139225301Y-105385647D01*
X139225302Y-105385646D01*
X139225304Y-105385646D01*
X139338342Y-105328050D01*
X139428050Y-105238342D01*
X139485646Y-105125304D01*
X139485646Y-105125302D01*
X139485647Y-105125301D01*
X139485647Y-105125300D01*
X139505492Y-105000003D01*
X139505492Y-104999996D01*
X139485647Y-104874699D01*
X139485647Y-104874698D01*
X139484155Y-104871769D01*
X139428050Y-104761658D01*
X139428046Y-104761654D01*
X139428045Y-104761652D01*
X139338347Y-104671954D01*
X139338344Y-104671952D01*
X139338342Y-104671950D01*
X139225304Y-104614354D01*
X139225303Y-104614353D01*
X139225300Y-104614352D01*
X139100003Y-104594508D01*
X139099997Y-104594508D01*
X138965056Y-104615880D01*
X138964480Y-104612245D01*
X138912922Y-104613695D01*
X138853106Y-104577587D01*
X138822307Y-104514872D01*
X138820500Y-104493783D01*
X138820500Y-104437131D01*
X139860000Y-104437131D01*
X139860000Y-105612868D01*
X140447868Y-105025000D01*
X140872132Y-105025000D01*
X141459999Y-105612868D01*
X141460000Y-105612867D01*
X141460000Y-104437132D01*
X141459999Y-104437131D01*
X140872132Y-105024999D01*
X140872132Y-105025000D01*
X140447868Y-105025000D01*
X140447868Y-105024999D01*
X139860000Y-104437131D01*
X138820500Y-104437131D01*
X138820500Y-104012868D01*
X139860000Y-104012868D01*
X140660000Y-104812868D01*
X141459999Y-104012868D01*
X141460000Y-104012867D01*
X141460000Y-103981946D01*
X141449386Y-103893556D01*
X141393920Y-103752904D01*
X141302564Y-103632435D01*
X141182095Y-103541079D01*
X141041443Y-103485613D01*
X140953054Y-103475000D01*
X140366946Y-103475000D01*
X140278556Y-103485613D01*
X140137904Y-103541079D01*
X140017435Y-103632435D01*
X139926079Y-103752904D01*
X139870613Y-103893556D01*
X139860000Y-103981946D01*
X139860000Y-104012868D01*
X138820500Y-104012868D01*
X138820500Y-103970730D01*
X138817646Y-103940300D01*
X138817646Y-103940298D01*
X138772793Y-103812119D01*
X138772792Y-103812117D01*
X138765054Y-103801632D01*
X138692150Y-103702850D01*
X138582882Y-103622207D01*
X138582879Y-103622206D01*
X138483544Y-103587446D01*
X138426768Y-103546723D01*
X138401022Y-103481770D01*
X138400500Y-103470405D01*
X138400500Y-103240321D01*
X138420185Y-103173282D01*
X138472095Y-103127939D01*
X138480404Y-103124065D01*
X138564065Y-103040404D01*
X138614068Y-102933173D01*
X138620500Y-102884316D01*
X138620500Y-102834352D01*
X138640185Y-102767313D01*
X138692989Y-102721558D01*
X138762147Y-102711614D01*
X138768691Y-102712735D01*
G37*
%TD.AperFunction*%
%TA.AperFunction,Conductor*%
G36*
X143855789Y-102819896D02*
G01*
X143890339Y-102837500D01*
X143918917Y-102842026D01*
X143982051Y-102871953D01*
X143987202Y-102876818D01*
X145003181Y-103892797D01*
X145036666Y-103954120D01*
X145039500Y-103980478D01*
X145039500Y-106079269D01*
X145042353Y-106109699D01*
X145042353Y-106109701D01*
X145087206Y-106237880D01*
X145087209Y-106237886D01*
X145164999Y-106343288D01*
X145188970Y-106408917D01*
X145173654Y-106477087D01*
X145123914Y-106526155D01*
X145065229Y-106540921D01*
X143874771Y-106540921D01*
X143807732Y-106521236D01*
X143761977Y-106468432D01*
X143752033Y-106399274D01*
X143775001Y-106343288D01*
X143852790Y-106237886D01*
X143852789Y-106237886D01*
X143852793Y-106237882D01*
X143887846Y-106137706D01*
X143897646Y-106109701D01*
X143897646Y-106109699D01*
X143900500Y-106079269D01*
X143900500Y-103970730D01*
X143897646Y-103940300D01*
X143897646Y-103940298D01*
X143852793Y-103812119D01*
X143852792Y-103812117D01*
X143845054Y-103801632D01*
X143772150Y-103702850D01*
X143772146Y-103702847D01*
X143725866Y-103668690D01*
X143683615Y-103613042D01*
X143675500Y-103568920D01*
X143675500Y-102930383D01*
X143695185Y-102863344D01*
X143747989Y-102817589D01*
X143817147Y-102807645D01*
X143855789Y-102819896D01*
G37*
%TD.AperFunction*%
%TA.AperFunction,Conductor*%
G36*
X139380666Y-99567623D02*
G01*
X139427357Y-99619602D01*
X139439500Y-99673119D01*
X139439500Y-100325655D01*
X139437117Y-100349847D01*
X139434103Y-100364999D01*
X139434103Y-100365000D01*
X139438312Y-100386160D01*
X139445332Y-100421453D01*
X139439104Y-100491044D01*
X139396240Y-100546221D01*
X139373798Y-100557607D01*
X139374034Y-100558070D01*
X139365339Y-100562499D01*
X139365339Y-100562500D01*
X139348580Y-100571039D01*
X139266414Y-100612904D01*
X139266407Y-100612909D01*
X139187909Y-100691407D01*
X139187904Y-100691414D01*
X139137498Y-100790341D01*
X139120131Y-100899997D01*
X139120131Y-100900002D01*
X139137498Y-101009656D01*
X139137499Y-101009659D01*
X139137500Y-101009661D01*
X139185985Y-101104820D01*
X139199500Y-101161112D01*
X139199500Y-101376734D01*
X139179815Y-101443773D01*
X139178603Y-101445624D01*
X139161132Y-101471770D01*
X139161131Y-101471773D01*
X139149500Y-101530247D01*
X139149500Y-101969752D01*
X139160750Y-102026309D01*
X139154523Y-102095900D01*
X139111660Y-102151078D01*
X139045770Y-102174322D01*
X139039133Y-102174500D01*
X139025478Y-102174500D01*
X138958439Y-102154815D01*
X138937797Y-102138181D01*
X138656819Y-101857203D01*
X138623334Y-101795880D01*
X138620500Y-101769522D01*
X138620500Y-101515683D01*
X138615226Y-101475622D01*
X138614068Y-101466827D01*
X138564065Y-101359596D01*
X138480404Y-101275935D01*
X138373173Y-101225932D01*
X138373171Y-101225931D01*
X138373172Y-101225931D01*
X138324317Y-101219500D01*
X138324316Y-101219500D01*
X137875684Y-101219500D01*
X137875683Y-101219500D01*
X137826828Y-101225931D01*
X137719595Y-101275935D01*
X137635935Y-101359595D01*
X137585931Y-101466828D01*
X137579500Y-101515683D01*
X137579500Y-101864316D01*
X137585931Y-101913171D01*
X137635935Y-102020404D01*
X137727267Y-102111736D01*
X137724443Y-102114559D01*
X137755183Y-102153042D01*
X137762352Y-102222542D01*
X137730808Y-102284886D01*
X137727101Y-102288098D01*
X137727267Y-102288264D01*
X137635935Y-102379595D01*
X137585931Y-102486828D01*
X137579500Y-102535683D01*
X137579500Y-102884316D01*
X137585931Y-102933171D01*
X137632358Y-103032733D01*
X137635935Y-103040404D01*
X137719596Y-103124065D01*
X137727904Y-103127939D01*
X137780343Y-103174110D01*
X137799500Y-103240321D01*
X137799500Y-103484403D01*
X137779815Y-103551442D01*
X137727011Y-103597197D01*
X137716455Y-103601444D01*
X137657119Y-103622206D01*
X137657117Y-103622207D01*
X137547850Y-103702850D01*
X137467207Y-103812117D01*
X137467206Y-103812119D01*
X137422353Y-103940298D01*
X137422353Y-103940300D01*
X137419500Y-103970730D01*
X137419500Y-104175500D01*
X137399815Y-104242539D01*
X137347011Y-104288294D01*
X137295500Y-104299500D01*
X137016552Y-104299500D01*
X136949513Y-104279815D01*
X136943671Y-104275821D01*
X136938346Y-104271953D01*
X136938343Y-104271951D01*
X136938342Y-104271950D01*
X136825304Y-104214354D01*
X136825303Y-104214353D01*
X136825300Y-104214352D01*
X136700003Y-104194508D01*
X136699997Y-104194508D01*
X136574699Y-104214352D01*
X136574698Y-104214352D01*
X136530795Y-104236723D01*
X136462126Y-104249619D01*
X136397385Y-104223343D01*
X136357128Y-104166236D01*
X136350500Y-104126238D01*
X136350500Y-104020249D01*
X136350499Y-104020247D01*
X136338868Y-103961770D01*
X136338867Y-103961769D01*
X136294552Y-103895447D01*
X136228230Y-103851132D01*
X136228229Y-103851131D01*
X136169752Y-103839500D01*
X136169748Y-103839500D01*
X135530252Y-103839500D01*
X135530247Y-103839500D01*
X135471770Y-103851131D01*
X135471769Y-103851132D01*
X135405448Y-103895446D01*
X135389449Y-103919392D01*
X135335836Y-103964196D01*
X135286347Y-103974500D01*
X135089344Y-103974500D01*
X135065153Y-103972117D01*
X135050000Y-103969103D01*
X135049999Y-103969103D01*
X135049998Y-103969103D01*
X135026949Y-103973688D01*
X135026944Y-103973689D01*
X134942506Y-103990484D01*
X134942504Y-103990484D01*
X134904919Y-104015599D01*
X134874379Y-104036005D01*
X134851374Y-104051377D01*
X134842791Y-104064222D01*
X134827372Y-104083010D01*
X134662180Y-104248202D01*
X134600858Y-104281687D01*
X134531167Y-104276703D01*
X134475233Y-104234832D01*
X134450816Y-104169367D01*
X134450500Y-104160521D01*
X134450500Y-104020249D01*
X134450499Y-104020247D01*
X134438868Y-103961770D01*
X134438867Y-103961769D01*
X134394552Y-103895447D01*
X134328230Y-103851132D01*
X134328229Y-103851131D01*
X134325309Y-103850551D01*
X134319532Y-103847529D01*
X134316946Y-103846458D01*
X134317041Y-103846226D01*
X134263398Y-103818166D01*
X134228824Y-103757451D01*
X134225500Y-103728934D01*
X134225500Y-102830000D01*
X135990001Y-102830000D01*
X135990001Y-102873000D01*
X135992786Y-102902720D01*
X136036596Y-103027922D01*
X136115358Y-103134641D01*
X136222080Y-103213405D01*
X136347267Y-103257211D01*
X136347279Y-103257213D01*
X136376992Y-103259999D01*
X136449999Y-103259998D01*
X136450000Y-103259998D01*
X136450000Y-102830000D01*
X136750000Y-102830000D01*
X136750000Y-103259999D01*
X136823000Y-103259999D01*
X136852720Y-103257213D01*
X136977922Y-103213403D01*
X137084641Y-103134641D01*
X137163405Y-103027919D01*
X137207211Y-102902732D01*
X137207213Y-102902720D01*
X137210000Y-102873007D01*
X137210000Y-102830000D01*
X136750000Y-102830000D01*
X136450000Y-102830000D01*
X135990001Y-102830000D01*
X134225500Y-102830000D01*
X134225500Y-102815477D01*
X134245185Y-102748438D01*
X134261815Y-102727800D01*
X134812797Y-102176817D01*
X134874118Y-102143334D01*
X134881060Y-102142029D01*
X134909661Y-102137500D01*
X135008587Y-102087095D01*
X135087095Y-102008587D01*
X135137500Y-101909661D01*
X135137500Y-101909659D01*
X135137501Y-101909658D01*
X135154869Y-101800002D01*
X135154869Y-101799997D01*
X135137501Y-101690343D01*
X135137500Y-101690341D01*
X135137500Y-101690339D01*
X135087095Y-101591413D01*
X135087092Y-101591410D01*
X135083162Y-101583696D01*
X135070266Y-101515026D01*
X135096542Y-101450286D01*
X135153649Y-101410029D01*
X135223455Y-101407037D01*
X135249935Y-101416913D01*
X135290339Y-101437500D01*
X135290341Y-101437500D01*
X135290343Y-101437501D01*
X135399998Y-101454869D01*
X135400000Y-101454869D01*
X135400002Y-101454869D01*
X135509658Y-101437501D01*
X135509659Y-101437500D01*
X135509661Y-101437500D01*
X135608587Y-101387095D01*
X135687095Y-101308587D01*
X135737500Y-101209661D01*
X135751594Y-101120676D01*
X135781521Y-101057546D01*
X135840833Y-101020614D01*
X135910695Y-101021612D01*
X135964623Y-101057367D01*
X135965049Y-101056942D01*
X135967147Y-101059040D01*
X135968928Y-101060221D01*
X135971088Y-101062981D01*
X136061652Y-101153545D01*
X136061655Y-101153547D01*
X136061658Y-101153550D01*
X136117106Y-101181802D01*
X136167901Y-101229775D01*
X136184697Y-101297596D01*
X136162160Y-101363731D01*
X136148497Y-101379963D01*
X136146776Y-101381683D01*
X136096027Y-101490514D01*
X136089500Y-101540097D01*
X136089500Y-101899894D01*
X136089501Y-101899900D01*
X136096028Y-101949487D01*
X136096029Y-101949489D01*
X136096029Y-101949490D01*
X136151361Y-102068148D01*
X136148938Y-102069277D01*
X136166142Y-102120295D01*
X136149129Y-102188062D01*
X136121677Y-102218536D01*
X136121929Y-102218788D01*
X136117110Y-102223606D01*
X136115876Y-102224977D01*
X136115358Y-102225358D01*
X136036594Y-102332080D01*
X135992788Y-102457267D01*
X135992786Y-102457279D01*
X135990000Y-102486992D01*
X135990000Y-102530000D01*
X137209999Y-102530000D01*
X137209999Y-102486999D01*
X137207213Y-102457279D01*
X137163403Y-102332077D01*
X137084641Y-102225359D01*
X137084129Y-102224981D01*
X137083703Y-102224420D01*
X137078071Y-102218788D01*
X137078841Y-102218017D01*
X137041877Y-102169335D01*
X137036417Y-102099679D01*
X137049846Y-102068710D01*
X137048639Y-102068148D01*
X137066168Y-102030557D01*
X137103972Y-101949487D01*
X137110500Y-101899901D01*
X137110499Y-101540100D01*
X137103972Y-101490513D01*
X137053224Y-101381684D01*
X136968316Y-101296776D01*
X136968314Y-101296774D01*
X136959427Y-101290551D01*
X136960950Y-101288375D01*
X136920500Y-101252754D01*
X136901352Y-101185559D01*
X136902538Y-101169412D01*
X136902770Y-101167742D01*
X136902773Y-101167735D01*
X136900566Y-101119990D01*
X136900500Y-101117127D01*
X136900500Y-101097659D01*
X136900499Y-101097653D01*
X136900331Y-101096756D01*
X136900008Y-101095027D01*
X136899016Y-101086480D01*
X136898387Y-101072867D01*
X136897585Y-101055508D01*
X136894788Y-101049175D01*
X136886332Y-101021868D01*
X136885061Y-101015067D01*
X136868736Y-100988702D01*
X136864735Y-100981112D01*
X136852206Y-100952735D01*
X136852205Y-100952734D01*
X136847564Y-100942222D01*
X136850512Y-100940920D01*
X136834671Y-100892310D01*
X136852373Y-100824720D01*
X136903808Y-100777431D01*
X136972644Y-100765456D01*
X136982809Y-100767043D01*
X137025323Y-100775500D01*
X137025326Y-100775500D01*
X137174676Y-100775500D01*
X137174677Y-100775499D01*
X137214631Y-100767552D01*
X137247732Y-100760968D01*
X137247733Y-100760967D01*
X137247740Y-100760966D01*
X137247745Y-100760962D01*
X137252539Y-100758977D01*
X137322008Y-100751504D01*
X137347461Y-100758977D01*
X137352256Y-100760963D01*
X137352260Y-100760966D01*
X137352264Y-100760966D01*
X137352267Y-100760968D01*
X137425321Y-100775499D01*
X137425324Y-100775500D01*
X137425326Y-100775500D01*
X137574676Y-100775500D01*
X137574677Y-100775499D01*
X137614631Y-100767552D01*
X137647732Y-100760968D01*
X137647733Y-100760967D01*
X137647740Y-100760966D01*
X137647745Y-100760962D01*
X137652539Y-100758977D01*
X137722008Y-100751504D01*
X137747461Y-100758977D01*
X137752256Y-100760963D01*
X137752260Y-100760966D01*
X137752264Y-100760966D01*
X137752267Y-100760968D01*
X137825321Y-100775499D01*
X137825324Y-100775500D01*
X137825326Y-100775500D01*
X137974676Y-100775500D01*
X137974677Y-100775499D01*
X138047740Y-100760966D01*
X138130601Y-100705601D01*
X138185966Y-100622740D01*
X138200500Y-100549674D01*
X138200500Y-99725326D01*
X138200500Y-99724500D01*
X138220185Y-99657461D01*
X138272989Y-99611706D01*
X138324500Y-99600500D01*
X139149676Y-99600500D01*
X139149677Y-99600499D01*
X139222740Y-99585966D01*
X139246610Y-99570016D01*
X139313286Y-99549139D01*
X139380666Y-99567623D01*
G37*
%TD.AperFunction*%
%TA.AperFunction,Conductor*%
G36*
X149555254Y-98075740D02*
G01*
X149574696Y-98085646D01*
X149574697Y-98085646D01*
X149574699Y-98085647D01*
X149699997Y-98105492D01*
X149700000Y-98105492D01*
X149700003Y-98105492D01*
X149825298Y-98085647D01*
X149825298Y-98085646D01*
X149825304Y-98085646D01*
X149836981Y-98079695D01*
X149905644Y-98066797D01*
X149970386Y-98093070D01*
X149980958Y-98102498D01*
X150031684Y-98153224D01*
X150140513Y-98203972D01*
X150190099Y-98210500D01*
X150434166Y-98210499D01*
X150501205Y-98230183D01*
X150521847Y-98246818D01*
X150687848Y-98412819D01*
X150721333Y-98474142D01*
X150716349Y-98543834D01*
X150674477Y-98599767D01*
X150609013Y-98624184D01*
X150600167Y-98624500D01*
X150143482Y-98624500D01*
X150062519Y-98637323D01*
X150049696Y-98639354D01*
X149936658Y-98696950D01*
X149936657Y-98696951D01*
X149936652Y-98696954D01*
X149846954Y-98786652D01*
X149846951Y-98786657D01*
X149846950Y-98786658D01*
X149835785Y-98808570D01*
X149789352Y-98899698D01*
X149774500Y-98993475D01*
X149774500Y-99556517D01*
X149781104Y-99598211D01*
X149789354Y-99650304D01*
X149846950Y-99763342D01*
X149846952Y-99763344D01*
X149846954Y-99763347D01*
X149943558Y-99859951D01*
X149942408Y-99861100D01*
X149978283Y-99907615D01*
X149984270Y-99977228D01*
X149951670Y-100039026D01*
X149950418Y-100040296D01*
X149817539Y-100173175D01*
X149798751Y-100188595D01*
X149779622Y-100201377D01*
X149771039Y-100214222D01*
X149755620Y-100233010D01*
X149433010Y-100555620D01*
X149414222Y-100571039D01*
X149401377Y-100579622D01*
X149401376Y-100579624D01*
X149386007Y-100602624D01*
X149386006Y-100602626D01*
X149372570Y-100622735D01*
X149370641Y-100625622D01*
X149340485Y-100670752D01*
X149324782Y-100749696D01*
X149319266Y-100777431D01*
X149319103Y-100778248D01*
X149321832Y-100791969D01*
X149322117Y-100793399D01*
X149324500Y-100817592D01*
X149324500Y-102034522D01*
X149304815Y-102101561D01*
X149288181Y-102122203D01*
X148422203Y-102988181D01*
X148360880Y-103021666D01*
X148334522Y-103024500D01*
X148331966Y-103024500D01*
X148264927Y-103004815D01*
X148219172Y-102952011D01*
X148208507Y-102888927D01*
X148210000Y-102873000D01*
X148210000Y-102830000D01*
X146990001Y-102830000D01*
X146990001Y-102872998D01*
X146991494Y-102888929D01*
X146978151Y-102957513D01*
X146929847Y-103007996D01*
X146868035Y-103024500D01*
X146831966Y-103024500D01*
X146764927Y-103004815D01*
X146719172Y-102952011D01*
X146708507Y-102888927D01*
X146710000Y-102873000D01*
X146710000Y-102830000D01*
X145490001Y-102830000D01*
X145478161Y-102841840D01*
X145416838Y-102875325D01*
X145347146Y-102870341D01*
X145302799Y-102841840D01*
X145011819Y-102550860D01*
X144978334Y-102489537D01*
X144975500Y-102463179D01*
X144975500Y-101461255D01*
X144995185Y-101394216D01*
X145047989Y-101348461D01*
X145117147Y-101338517D01*
X145180703Y-101367542D01*
X145187181Y-101373574D01*
X145261652Y-101448045D01*
X145261654Y-101448046D01*
X145261658Y-101448050D01*
X145374696Y-101505646D01*
X145437062Y-101515523D01*
X145500194Y-101545451D01*
X145505344Y-101550315D01*
X145553181Y-101598152D01*
X145586666Y-101659475D01*
X145589500Y-101685832D01*
X145589500Y-101899894D01*
X145589501Y-101899900D01*
X145596028Y-101949487D01*
X145596029Y-101949489D01*
X145596029Y-101949490D01*
X145651361Y-102068148D01*
X145648938Y-102069277D01*
X145666142Y-102120295D01*
X145649129Y-102188062D01*
X145621677Y-102218536D01*
X145621929Y-102218788D01*
X145617110Y-102223606D01*
X145615876Y-102224977D01*
X145615358Y-102225358D01*
X145536594Y-102332080D01*
X145492788Y-102457267D01*
X145492786Y-102457279D01*
X145490000Y-102486992D01*
X145490000Y-102530000D01*
X146709999Y-102530000D01*
X146709999Y-102486999D01*
X146707213Y-102457279D01*
X146663403Y-102332077D01*
X146584641Y-102225359D01*
X146584129Y-102224981D01*
X146583703Y-102224420D01*
X146578071Y-102218788D01*
X146578841Y-102218017D01*
X146541877Y-102169335D01*
X146536417Y-102099679D01*
X146549846Y-102068710D01*
X146548639Y-102068148D01*
X146566168Y-102030557D01*
X146603972Y-101949487D01*
X146610500Y-101899901D01*
X146610499Y-101540100D01*
X146610499Y-101540097D01*
X146610499Y-101540096D01*
X146610234Y-101536054D01*
X146611307Y-101535983D01*
X146621344Y-101471645D01*
X146667726Y-101419391D01*
X146733515Y-101400500D01*
X146804167Y-101400500D01*
X146871206Y-101420185D01*
X146891848Y-101436819D01*
X147053181Y-101598152D01*
X147086666Y-101659475D01*
X147089500Y-101685832D01*
X147089500Y-101899894D01*
X147089501Y-101899900D01*
X147096028Y-101949487D01*
X147096029Y-101949489D01*
X147096029Y-101949490D01*
X147151361Y-102068148D01*
X147148938Y-102069277D01*
X147166142Y-102120295D01*
X147149129Y-102188062D01*
X147121677Y-102218536D01*
X147121929Y-102218788D01*
X147117110Y-102223606D01*
X147115876Y-102224977D01*
X147115358Y-102225358D01*
X147036594Y-102332080D01*
X146992788Y-102457267D01*
X146992786Y-102457279D01*
X146990000Y-102486992D01*
X146990000Y-102530000D01*
X148209999Y-102530000D01*
X148209999Y-102486999D01*
X148207213Y-102457279D01*
X148163403Y-102332077D01*
X148084641Y-102225359D01*
X148084129Y-102224981D01*
X148083703Y-102224420D01*
X148078071Y-102218788D01*
X148078841Y-102218017D01*
X148041877Y-102169335D01*
X148036417Y-102099679D01*
X148049846Y-102068710D01*
X148048639Y-102068148D01*
X148066168Y-102030557D01*
X148103972Y-101949487D01*
X148110500Y-101899901D01*
X148110499Y-101540100D01*
X148103972Y-101490513D01*
X148053224Y-101381684D01*
X147968316Y-101296776D01*
X147859487Y-101246028D01*
X147859485Y-101246027D01*
X147859486Y-101246027D01*
X147809902Y-101239500D01*
X147809901Y-101239500D01*
X147595834Y-101239500D01*
X147528795Y-101219815D01*
X147508153Y-101203181D01*
X147400005Y-101095033D01*
X147283887Y-100978916D01*
X147250403Y-100917594D01*
X147255387Y-100847903D01*
X147297258Y-100791969D01*
X147362723Y-100767552D01*
X147395760Y-100769618D01*
X147412106Y-100772870D01*
X147425325Y-100775500D01*
X147425326Y-100775500D01*
X147574676Y-100775500D01*
X147574677Y-100775499D01*
X147614631Y-100767552D01*
X147647732Y-100760968D01*
X147647733Y-100760967D01*
X147647740Y-100760966D01*
X147647745Y-100760962D01*
X147652539Y-100758977D01*
X147722008Y-100751504D01*
X147747461Y-100758977D01*
X147752256Y-100760963D01*
X147752260Y-100760966D01*
X147752264Y-100760966D01*
X147752267Y-100760968D01*
X147825321Y-100775499D01*
X147825324Y-100775500D01*
X147825326Y-100775500D01*
X147974676Y-100775500D01*
X147974677Y-100775499D01*
X148047740Y-100760966D01*
X148130601Y-100705601D01*
X148185966Y-100622740D01*
X148200500Y-100549674D01*
X148200500Y-99725326D01*
X148200500Y-99724500D01*
X148220185Y-99657461D01*
X148272989Y-99611706D01*
X148324500Y-99600500D01*
X149149676Y-99600500D01*
X149149677Y-99600499D01*
X149222740Y-99585966D01*
X149305601Y-99530601D01*
X149360966Y-99447740D01*
X149375500Y-99374674D01*
X149375500Y-99225326D01*
X149375500Y-99225323D01*
X149375499Y-99225321D01*
X149360968Y-99152267D01*
X149360966Y-99152264D01*
X149360966Y-99152260D01*
X149360963Y-99152256D01*
X149358977Y-99147461D01*
X149351504Y-99077992D01*
X149358977Y-99052539D01*
X149360962Y-99047745D01*
X149360966Y-99047740D01*
X149363448Y-99035266D01*
X149375499Y-98974678D01*
X149375500Y-98974676D01*
X149375500Y-98825323D01*
X149375499Y-98825321D01*
X149360968Y-98752267D01*
X149360966Y-98752264D01*
X149360966Y-98752260D01*
X149360963Y-98752256D01*
X149358977Y-98747461D01*
X149351504Y-98677992D01*
X149358977Y-98652539D01*
X149360962Y-98647745D01*
X149360966Y-98647740D01*
X149375500Y-98574674D01*
X149375500Y-98425326D01*
X149375500Y-98425323D01*
X149375499Y-98425321D01*
X149360968Y-98352267D01*
X149360966Y-98352264D01*
X149360966Y-98352260D01*
X149360963Y-98352256D01*
X149358977Y-98347461D01*
X149351504Y-98277992D01*
X149358977Y-98252539D01*
X149360962Y-98247745D01*
X149360966Y-98247740D01*
X149361150Y-98246818D01*
X149375498Y-98174685D01*
X149375499Y-98174678D01*
X149375500Y-98174674D01*
X149375500Y-98174664D01*
X149375558Y-98174080D01*
X149375677Y-98173782D01*
X149376689Y-98168700D01*
X149377652Y-98168891D01*
X149401715Y-98109291D01*
X149458747Y-98068928D01*
X149528547Y-98065807D01*
X149555254Y-98075740D01*
G37*
%TD.AperFunction*%
%TA.AperFunction,Conductor*%
G36*
X142203086Y-101195185D02*
G01*
X142248841Y-101247989D01*
X142258785Y-101317147D01*
X142239854Y-101363290D01*
X142240937Y-101363863D01*
X142236595Y-101372078D01*
X142192788Y-101497267D01*
X142192786Y-101497279D01*
X142190000Y-101526992D01*
X142190000Y-101570000D01*
X143409999Y-101570000D01*
X143409999Y-101526999D01*
X143407213Y-101497279D01*
X143363401Y-101372072D01*
X143359063Y-101363863D01*
X143360516Y-101363094D01*
X143340212Y-101307509D01*
X143355525Y-101239338D01*
X143405264Y-101190268D01*
X143463953Y-101175500D01*
X144300500Y-101175500D01*
X144367539Y-101195185D01*
X144413294Y-101247989D01*
X144424500Y-101299500D01*
X144424500Y-102129455D01*
X144404815Y-102196494D01*
X144352011Y-102242249D01*
X144282853Y-102252193D01*
X144219297Y-102223168D01*
X144212819Y-102217136D01*
X144208592Y-102212909D01*
X144208588Y-102212906D01*
X144208587Y-102212905D01*
X144195090Y-102206028D01*
X144109658Y-102162498D01*
X144000002Y-102145131D01*
X143999998Y-102145131D01*
X143880700Y-102164026D01*
X143880461Y-102162518D01*
X143821385Y-102164203D01*
X143761554Y-102128119D01*
X143743977Y-102097990D01*
X143741930Y-102099034D01*
X143735846Y-102087093D01*
X143687095Y-101991413D01*
X143687092Y-101991410D01*
X143687090Y-101991407D01*
X143608592Y-101912909D01*
X143608588Y-101912906D01*
X143608587Y-101912905D01*
X143602214Y-101909658D01*
X143509658Y-101862498D01*
X143400002Y-101845131D01*
X143399998Y-101845131D01*
X143290337Y-101862499D01*
X143285932Y-101863931D01*
X143247615Y-101870000D01*
X142190001Y-101870000D01*
X142190001Y-101913000D01*
X142192786Y-101942720D01*
X142236596Y-102067922D01*
X142315357Y-102174639D01*
X142315868Y-102175016D01*
X142316293Y-102175576D01*
X142321929Y-102181212D01*
X142321158Y-102181982D01*
X142358121Y-102230662D01*
X142363583Y-102300317D01*
X142350157Y-102331289D01*
X142351362Y-102331851D01*
X142346777Y-102341682D01*
X142346776Y-102341684D01*
X142336879Y-102362906D01*
X142290709Y-102415344D01*
X142224499Y-102434500D01*
X141867059Y-102434500D01*
X141800020Y-102414815D01*
X141765484Y-102381623D01*
X141764065Y-102379597D01*
X141764065Y-102379596D01*
X141739421Y-102354952D01*
X141705937Y-102293630D01*
X141710921Y-102223938D01*
X141752793Y-102168005D01*
X141753470Y-102167501D01*
X141796065Y-102136064D01*
X141873933Y-102030559D01*
X141873934Y-102030557D01*
X141917242Y-101906792D01*
X141917244Y-101906780D01*
X141920000Y-101877398D01*
X141920000Y-101840000D01*
X141274000Y-101840000D01*
X141206961Y-101820315D01*
X141161206Y-101767511D01*
X141150000Y-101716000D01*
X141150000Y-101664000D01*
X141169685Y-101596961D01*
X141222489Y-101551206D01*
X141274000Y-101540000D01*
X141920000Y-101540000D01*
X141920000Y-101502601D01*
X141917244Y-101473219D01*
X141917242Y-101473207D01*
X141870865Y-101340671D01*
X141874484Y-101339404D01*
X141864246Y-101288901D01*
X141889588Y-101223790D01*
X141946110Y-101182716D01*
X141987792Y-101175500D01*
X142136047Y-101175500D01*
X142203086Y-101195185D01*
G37*
%TD.AperFunction*%
%TA.AperFunction,Conductor*%
G36*
X141155841Y-98100739D02*
G01*
X141209292Y-98145736D01*
X141227561Y-98190065D01*
X141239033Y-98247740D01*
X141241025Y-98252548D01*
X141248494Y-98322017D01*
X141241025Y-98347452D01*
X141239033Y-98352259D01*
X141224500Y-98425323D01*
X141224500Y-98425326D01*
X141224500Y-98574674D01*
X141224500Y-98574676D01*
X141224499Y-98574676D01*
X141239033Y-98647740D01*
X141241025Y-98652548D01*
X141248494Y-98722017D01*
X141241025Y-98747452D01*
X141239033Y-98752259D01*
X141224500Y-98825323D01*
X141224500Y-98825326D01*
X141224500Y-98974674D01*
X141224500Y-98974676D01*
X141224499Y-98974676D01*
X141239033Y-99047740D01*
X141241025Y-99052548D01*
X141248494Y-99122017D01*
X141241025Y-99147452D01*
X141239033Y-99152259D01*
X141224500Y-99225323D01*
X141224500Y-99374678D01*
X141239032Y-99447735D01*
X141239033Y-99447739D01*
X141248037Y-99461214D01*
X141294399Y-99530601D01*
X141377259Y-99585965D01*
X141377260Y-99585966D01*
X141377264Y-99585967D01*
X141450321Y-99600499D01*
X141450324Y-99600500D01*
X142275500Y-99600500D01*
X142342539Y-99620185D01*
X142388294Y-99672989D01*
X142399500Y-99724500D01*
X142399500Y-100500500D01*
X142379815Y-100567539D01*
X142327011Y-100613294D01*
X142275500Y-100624500D01*
X140415478Y-100624500D01*
X140348439Y-100604815D01*
X140327797Y-100588181D01*
X140026819Y-100287203D01*
X139993334Y-100225880D01*
X139990500Y-100199522D01*
X139990500Y-99983999D01*
X140010185Y-99916960D01*
X140062989Y-99871205D01*
X140114499Y-99859999D01*
X140149999Y-99859998D01*
X140150000Y-99859998D01*
X140150000Y-99430000D01*
X140450000Y-99430000D01*
X140450000Y-99859999D01*
X140523000Y-99859999D01*
X140552720Y-99857213D01*
X140677922Y-99813403D01*
X140784641Y-99734641D01*
X140863405Y-99627919D01*
X140907211Y-99502732D01*
X140907213Y-99502720D01*
X140910000Y-99473007D01*
X140910000Y-99430000D01*
X140450000Y-99430000D01*
X140150000Y-99430000D01*
X140150000Y-99254000D01*
X140169685Y-99186961D01*
X140222489Y-99141206D01*
X140274000Y-99130000D01*
X140909999Y-99130000D01*
X140909999Y-99086999D01*
X140907213Y-99057279D01*
X140863403Y-98932077D01*
X140784641Y-98825359D01*
X140784129Y-98824981D01*
X140783703Y-98824420D01*
X140778071Y-98818788D01*
X140778841Y-98818017D01*
X140741877Y-98769335D01*
X140736417Y-98699679D01*
X140749846Y-98668710D01*
X140748639Y-98668148D01*
X140755011Y-98654484D01*
X140803972Y-98549487D01*
X140810500Y-98499901D01*
X140810499Y-98365832D01*
X140830183Y-98298793D01*
X140846813Y-98278156D01*
X140994656Y-98130313D01*
X141055977Y-98096830D01*
X141062894Y-98095530D01*
X141086551Y-98091783D01*
X141155841Y-98100739D01*
G37*
%TD.AperFunction*%
%TA.AperFunction,Conductor*%
G36*
X138045692Y-96596610D02*
G01*
X138099634Y-96641018D01*
X138121004Y-96707539D01*
X138114975Y-96739996D01*
X138116416Y-96740283D01*
X138099500Y-96825323D01*
X138099500Y-96825326D01*
X138099500Y-96974674D01*
X138099500Y-96974676D01*
X138099499Y-96974676D01*
X138114033Y-97047740D01*
X138116025Y-97052548D01*
X138123494Y-97122017D01*
X138116025Y-97147452D01*
X138114033Y-97152259D01*
X138099500Y-97225323D01*
X138099500Y-97354162D01*
X138079815Y-97421201D01*
X138063186Y-97441838D01*
X138061215Y-97443808D01*
X138061211Y-97443814D01*
X138009912Y-97548748D01*
X138009911Y-97548751D01*
X138000000Y-97616780D01*
X138000000Y-97783213D01*
X138009912Y-97851248D01*
X138061214Y-97956189D01*
X138063176Y-97958151D01*
X138065003Y-97961498D01*
X138067185Y-97964553D01*
X138066816Y-97964816D01*
X138096665Y-98019472D01*
X138099500Y-98045837D01*
X138099500Y-98174674D01*
X138099500Y-98174676D01*
X138099499Y-98174676D01*
X138114033Y-98247740D01*
X138116025Y-98252548D01*
X138123494Y-98322017D01*
X138116025Y-98347452D01*
X138114033Y-98352259D01*
X138099500Y-98425323D01*
X138099500Y-98425326D01*
X138099500Y-98574674D01*
X138099500Y-98574676D01*
X138099499Y-98574676D01*
X138114033Y-98647740D01*
X138116025Y-98652548D01*
X138123494Y-98722017D01*
X138116025Y-98747452D01*
X138114033Y-98752259D01*
X138099500Y-98825323D01*
X138099500Y-98825326D01*
X138099500Y-98974674D01*
X138099500Y-98974676D01*
X138099499Y-98974676D01*
X138114033Y-99047740D01*
X138116025Y-99052548D01*
X138123494Y-99122017D01*
X138116025Y-99147452D01*
X138114033Y-99152259D01*
X138099500Y-99225323D01*
X138099500Y-99375500D01*
X138079815Y-99442539D01*
X138027011Y-99488294D01*
X137975500Y-99499500D01*
X137825324Y-99499500D01*
X137752259Y-99514033D01*
X137747452Y-99516025D01*
X137677983Y-99523494D01*
X137652548Y-99516025D01*
X137647740Y-99514033D01*
X137574676Y-99499500D01*
X137574674Y-99499500D01*
X137425326Y-99499500D01*
X137425324Y-99499500D01*
X137352259Y-99514033D01*
X137347452Y-99516025D01*
X137277983Y-99523494D01*
X137252548Y-99516025D01*
X137247740Y-99514033D01*
X137174676Y-99499500D01*
X137174674Y-99499500D01*
X137124832Y-99499500D01*
X137057793Y-99479815D01*
X137012038Y-99427011D01*
X137002094Y-99357853D01*
X137031119Y-99294297D01*
X137037151Y-99287819D01*
X137161195Y-99163775D01*
X137568059Y-98756910D01*
X137574532Y-98751279D01*
X137584224Y-98743959D01*
X137584228Y-98743958D01*
X137616459Y-98708600D01*
X137618367Y-98706602D01*
X137632174Y-98692797D01*
X137633684Y-98690592D01*
X137639023Y-98683851D01*
X137644364Y-98677992D01*
X137659916Y-98660933D01*
X137662417Y-98654476D01*
X137675750Y-98629184D01*
X137679657Y-98623481D01*
X137686757Y-98593294D01*
X137689296Y-98585092D01*
X137700500Y-98556173D01*
X137700500Y-98549248D01*
X137703794Y-98520856D01*
X137704159Y-98519305D01*
X137705379Y-98514119D01*
X137701095Y-98483408D01*
X137700500Y-98474833D01*
X137700500Y-96868726D01*
X137720185Y-96801687D01*
X137736814Y-96781048D01*
X137843649Y-96674213D01*
X137864248Y-96660106D01*
X137863285Y-96658700D01*
X137872760Y-96652209D01*
X137872761Y-96652207D01*
X137872765Y-96652206D01*
X137877661Y-96647309D01*
X137900069Y-96629561D01*
X137905952Y-96625919D01*
X137905956Y-96625913D01*
X137913502Y-96619035D01*
X137976305Y-96588416D01*
X138045692Y-96596610D01*
G37*
%TD.AperFunction*%
%TA.AperFunction,Conductor*%
G36*
X144547461Y-93883977D02*
G01*
X144552256Y-93885963D01*
X144552260Y-93885966D01*
X144552264Y-93885966D01*
X144552267Y-93885968D01*
X144625321Y-93900499D01*
X144625324Y-93900500D01*
X144735088Y-93900500D01*
X144802127Y-93920185D01*
X144840157Y-93964073D01*
X144841303Y-93963289D01*
X144847796Y-93972768D01*
X144852689Y-93977661D01*
X144870435Y-94000065D01*
X144874077Y-94005948D01*
X144874080Y-94005951D01*
X144874081Y-94005952D01*
X144878766Y-94009490D01*
X144898826Y-94024639D01*
X144905311Y-94030282D01*
X145143078Y-94268049D01*
X145148721Y-94274533D01*
X145156041Y-94284226D01*
X145156042Y-94284228D01*
X145173452Y-94300099D01*
X145191374Y-94316438D01*
X145193422Y-94318393D01*
X145207203Y-94332174D01*
X145209413Y-94333688D01*
X145216143Y-94339018D01*
X145226663Y-94348608D01*
X145239064Y-94359914D01*
X145239065Y-94359914D01*
X145239067Y-94359916D01*
X145245530Y-94362419D01*
X145270807Y-94375743D01*
X145276519Y-94379656D01*
X145306702Y-94386754D01*
X145314903Y-94389294D01*
X145343827Y-94400500D01*
X145350751Y-94400500D01*
X145379141Y-94403793D01*
X145385881Y-94405379D01*
X145416591Y-94401095D01*
X145425166Y-94400500D01*
X146732133Y-94400500D01*
X146740707Y-94401095D01*
X146752735Y-94402772D01*
X146752735Y-94402771D01*
X146752739Y-94402773D01*
X146795894Y-94400778D01*
X146800484Y-94400566D01*
X146803347Y-94400500D01*
X146975500Y-94400500D01*
X147042539Y-94420185D01*
X147088294Y-94472989D01*
X147099500Y-94524500D01*
X147099500Y-94678730D01*
X147079815Y-94745769D01*
X147027011Y-94791524D01*
X146961212Y-94801904D01*
X146944804Y-94800000D01*
X145450000Y-94800000D01*
X145450000Y-98599999D01*
X146944786Y-98599999D01*
X146944808Y-98599997D01*
X146969869Y-98597091D01*
X146969873Y-98597090D01*
X147072474Y-98551788D01*
X147072479Y-98551785D01*
X147151785Y-98472479D01*
X147151788Y-98472474D01*
X147197089Y-98369877D01*
X147197089Y-98369875D01*
X147199999Y-98344794D01*
X147199999Y-97984992D01*
X147219683Y-97917953D01*
X147272487Y-97872198D01*
X147341646Y-97862254D01*
X147405201Y-97891279D01*
X147411680Y-97897311D01*
X147563181Y-98048812D01*
X147596666Y-98110135D01*
X147599500Y-98136493D01*
X147599500Y-98774167D01*
X147579815Y-98841206D01*
X147563181Y-98861848D01*
X147461848Y-98963181D01*
X147400525Y-98996666D01*
X147374167Y-98999500D01*
X146267868Y-98999500D01*
X146259294Y-98998905D01*
X146247265Y-98997227D01*
X146247262Y-98997227D01*
X146222246Y-98998383D01*
X146199517Y-98999434D01*
X146196654Y-98999500D01*
X146177182Y-98999500D01*
X146177177Y-98999500D01*
X146177175Y-98999501D01*
X146174541Y-98999993D01*
X146166011Y-99000982D01*
X146135034Y-99002415D01*
X146135032Y-99002415D01*
X146128691Y-99005215D01*
X146101405Y-99013664D01*
X146094598Y-99014936D01*
X146094592Y-99014939D01*
X146068228Y-99031261D01*
X146060629Y-99035266D01*
X146032263Y-99047792D01*
X146027362Y-99052693D01*
X146004968Y-99070431D01*
X145999074Y-99074080D01*
X145980385Y-99098827D01*
X145974744Y-99105310D01*
X145731948Y-99348106D01*
X145725464Y-99353748D01*
X145715768Y-99361070D01*
X145683559Y-99396400D01*
X145681585Y-99398468D01*
X145667827Y-99412226D01*
X145667822Y-99412232D01*
X145666306Y-99414446D01*
X145660976Y-99421174D01*
X145632344Y-99452583D01*
X145630668Y-99451055D01*
X145590116Y-99487410D01*
X145536710Y-99499500D01*
X145425324Y-99499500D01*
X145352259Y-99514033D01*
X145347452Y-99516025D01*
X145277983Y-99523494D01*
X145252548Y-99516025D01*
X145247740Y-99514033D01*
X145174676Y-99499500D01*
X145174674Y-99499500D01*
X145025326Y-99499500D01*
X145025324Y-99499500D01*
X144952259Y-99514033D01*
X144947452Y-99516025D01*
X144877983Y-99523494D01*
X144852548Y-99516025D01*
X144847740Y-99514033D01*
X144774676Y-99499500D01*
X144774674Y-99499500D01*
X144645838Y-99499500D01*
X144578799Y-99479815D01*
X144558157Y-99463181D01*
X144556188Y-99461212D01*
X144451251Y-99409912D01*
X144451248Y-99409911D01*
X144383219Y-99400000D01*
X144216786Y-99400000D01*
X144148751Y-99409912D01*
X144043810Y-99461214D01*
X144041844Y-99463181D01*
X144038494Y-99465010D01*
X144035451Y-99467183D01*
X144035188Y-99466815D01*
X143980521Y-99496666D01*
X143954163Y-99499500D01*
X143825324Y-99499500D01*
X143752259Y-99514033D01*
X143747452Y-99516025D01*
X143677983Y-99523494D01*
X143652548Y-99516025D01*
X143647740Y-99514033D01*
X143574676Y-99499500D01*
X143574674Y-99499500D01*
X143425326Y-99499500D01*
X143425324Y-99499500D01*
X143352259Y-99514033D01*
X143347452Y-99516025D01*
X143277983Y-99523494D01*
X143252548Y-99516025D01*
X143247740Y-99514033D01*
X143174676Y-99499500D01*
X143174674Y-99499500D01*
X143025326Y-99499500D01*
X143025324Y-99499500D01*
X142952259Y-99514033D01*
X142947452Y-99516025D01*
X142877983Y-99523494D01*
X142852548Y-99516025D01*
X142847740Y-99514033D01*
X142774676Y-99499500D01*
X142774674Y-99499500D01*
X142625326Y-99499500D01*
X142624500Y-99499500D01*
X142557461Y-99479815D01*
X142511706Y-99427011D01*
X142500500Y-99375500D01*
X142500500Y-99225323D01*
X142500499Y-99225321D01*
X142485968Y-99152267D01*
X142485966Y-99152264D01*
X142485966Y-99152260D01*
X142485963Y-99152256D01*
X142483977Y-99147461D01*
X142476504Y-99077992D01*
X142483977Y-99052539D01*
X142485962Y-99047745D01*
X142485966Y-99047740D01*
X142488448Y-99035266D01*
X142500499Y-98974678D01*
X142500500Y-98974676D01*
X142500500Y-98825323D01*
X142500499Y-98825321D01*
X142485968Y-98752267D01*
X142485966Y-98752264D01*
X142485966Y-98752260D01*
X142485963Y-98752256D01*
X142483977Y-98747461D01*
X142476504Y-98677992D01*
X142483977Y-98652539D01*
X142485962Y-98647745D01*
X142485966Y-98647740D01*
X142500500Y-98574674D01*
X142500500Y-98425326D01*
X142500500Y-98425323D01*
X142500499Y-98425321D01*
X142485968Y-98352267D01*
X142485966Y-98352264D01*
X142485966Y-98352260D01*
X142485963Y-98352256D01*
X142483977Y-98347461D01*
X142476504Y-98277992D01*
X142483977Y-98252539D01*
X142485962Y-98247745D01*
X142485966Y-98247740D01*
X142486150Y-98246818D01*
X142500499Y-98174678D01*
X142500500Y-98174676D01*
X142500500Y-98025323D01*
X142500499Y-98025321D01*
X142485968Y-97952267D01*
X142485966Y-97952264D01*
X142485966Y-97952260D01*
X142485963Y-97952256D01*
X142483977Y-97947461D01*
X142476504Y-97877992D01*
X142483977Y-97852539D01*
X142485962Y-97847745D01*
X142485966Y-97847740D01*
X142500500Y-97774674D01*
X142500500Y-97625326D01*
X142500500Y-97625323D01*
X142500499Y-97625321D01*
X142485968Y-97552267D01*
X142485966Y-97552264D01*
X142485966Y-97552260D01*
X142485963Y-97552256D01*
X142483977Y-97547461D01*
X142476504Y-97477992D01*
X142483977Y-97452539D01*
X142485962Y-97447745D01*
X142485966Y-97447740D01*
X142486749Y-97443808D01*
X142500499Y-97374678D01*
X142500500Y-97374676D01*
X142500500Y-97225323D01*
X142500499Y-97225321D01*
X142485968Y-97152267D01*
X142485966Y-97152264D01*
X142485966Y-97152260D01*
X142485963Y-97152256D01*
X142483977Y-97147461D01*
X142476504Y-97077992D01*
X142483977Y-97052539D01*
X142485962Y-97047745D01*
X142485966Y-97047740D01*
X142489046Y-97032259D01*
X142495655Y-96999029D01*
X142500500Y-96974674D01*
X142500500Y-96850000D01*
X143400001Y-96850000D01*
X143400001Y-98344785D01*
X143400002Y-98344808D01*
X143402908Y-98369869D01*
X143402909Y-98369873D01*
X143448211Y-98472474D01*
X143448214Y-98472479D01*
X143527520Y-98551785D01*
X143527525Y-98551788D01*
X143630123Y-98597089D01*
X143655206Y-98599999D01*
X145149999Y-98599999D01*
X145150000Y-98599998D01*
X145150000Y-96850000D01*
X143400001Y-96850000D01*
X142500500Y-96850000D01*
X142500500Y-96825326D01*
X142500500Y-96825323D01*
X142500499Y-96825321D01*
X142485968Y-96752267D01*
X142485966Y-96752264D01*
X142485966Y-96752260D01*
X142485963Y-96752256D01*
X142483977Y-96747461D01*
X142476504Y-96677992D01*
X142483977Y-96652539D01*
X142485962Y-96647745D01*
X142485966Y-96647740D01*
X142486051Y-96647316D01*
X142499762Y-96578382D01*
X142500500Y-96574674D01*
X142500500Y-96550000D01*
X143400000Y-96550000D01*
X145150000Y-96550000D01*
X145150000Y-94800000D01*
X143655214Y-94800000D01*
X143655191Y-94800002D01*
X143630130Y-94802908D01*
X143630126Y-94802909D01*
X143527525Y-94848211D01*
X143527520Y-94848214D01*
X143448214Y-94927520D01*
X143448211Y-94927525D01*
X143402910Y-95030122D01*
X143402910Y-95030124D01*
X143400000Y-95055205D01*
X143400000Y-96550000D01*
X142500500Y-96550000D01*
X142500500Y-96425326D01*
X142500500Y-96425323D01*
X142500499Y-96425321D01*
X142485968Y-96352267D01*
X142485966Y-96352264D01*
X142485966Y-96352260D01*
X142485963Y-96352256D01*
X142483977Y-96347461D01*
X142476504Y-96277992D01*
X142483977Y-96252539D01*
X142485962Y-96247745D01*
X142485966Y-96247740D01*
X142500500Y-96174674D01*
X142500500Y-96025326D01*
X142500500Y-96025323D01*
X142500499Y-96025321D01*
X142485968Y-95952267D01*
X142485966Y-95952264D01*
X142485966Y-95952260D01*
X142485963Y-95952256D01*
X142483977Y-95947461D01*
X142476504Y-95877992D01*
X142483977Y-95852539D01*
X142485962Y-95847745D01*
X142485966Y-95847740D01*
X142494505Y-95804815D01*
X142500499Y-95774678D01*
X142500500Y-95774676D01*
X142500500Y-95625323D01*
X142500499Y-95625321D01*
X142485968Y-95552267D01*
X142485966Y-95552264D01*
X142485966Y-95552260D01*
X142485963Y-95552256D01*
X142483977Y-95547461D01*
X142476504Y-95477992D01*
X142483977Y-95452539D01*
X142485962Y-95447745D01*
X142485966Y-95447740D01*
X142492895Y-95412909D01*
X142500499Y-95374678D01*
X142500500Y-95374676D01*
X142500500Y-95225323D01*
X142500499Y-95225321D01*
X142485968Y-95152267D01*
X142485966Y-95152264D01*
X142485966Y-95152260D01*
X142485963Y-95152256D01*
X142483977Y-95147461D01*
X142476504Y-95077992D01*
X142483977Y-95052539D01*
X142485962Y-95047745D01*
X142485966Y-95047740D01*
X142491663Y-95019103D01*
X142500499Y-94974678D01*
X142500500Y-94974676D01*
X142500500Y-94825323D01*
X142500499Y-94825321D01*
X142485968Y-94752267D01*
X142485966Y-94752264D01*
X142485966Y-94752260D01*
X142485963Y-94752256D01*
X142483977Y-94747461D01*
X142476504Y-94677992D01*
X142483977Y-94652539D01*
X142485962Y-94647745D01*
X142485966Y-94647740D01*
X142500500Y-94574674D01*
X142500500Y-94425326D01*
X142500500Y-94425323D01*
X142500499Y-94425321D01*
X142485968Y-94352267D01*
X142485966Y-94352264D01*
X142485966Y-94352260D01*
X142485963Y-94352256D01*
X142483977Y-94347461D01*
X142476504Y-94277992D01*
X142483977Y-94252539D01*
X142485962Y-94247745D01*
X142485966Y-94247740D01*
X142488401Y-94235502D01*
X142500499Y-94174678D01*
X142500500Y-94174676D01*
X142500500Y-94024500D01*
X142520185Y-93957461D01*
X142572989Y-93911706D01*
X142624500Y-93900500D01*
X142774676Y-93900500D01*
X142774677Y-93900499D01*
X142811710Y-93893133D01*
X142847732Y-93885968D01*
X142847733Y-93885967D01*
X142847740Y-93885966D01*
X142847745Y-93885962D01*
X142852539Y-93883977D01*
X142922008Y-93876504D01*
X142947461Y-93883977D01*
X142952256Y-93885963D01*
X142952260Y-93885966D01*
X142952264Y-93885966D01*
X142952267Y-93885968D01*
X143025321Y-93900499D01*
X143025324Y-93900500D01*
X143025326Y-93900500D01*
X143174676Y-93900500D01*
X143174677Y-93900499D01*
X143211710Y-93893133D01*
X143247732Y-93885968D01*
X143247733Y-93885967D01*
X143247740Y-93885966D01*
X143247745Y-93885962D01*
X143252539Y-93883977D01*
X143322008Y-93876504D01*
X143347461Y-93883977D01*
X143352256Y-93885963D01*
X143352260Y-93885966D01*
X143352264Y-93885966D01*
X143352267Y-93885968D01*
X143425321Y-93900499D01*
X143425324Y-93900500D01*
X143425326Y-93900500D01*
X143574676Y-93900500D01*
X143574677Y-93900499D01*
X143611710Y-93893133D01*
X143647732Y-93885968D01*
X143647733Y-93885967D01*
X143647740Y-93885966D01*
X143647745Y-93885962D01*
X143652539Y-93883977D01*
X143722008Y-93876504D01*
X143747461Y-93883977D01*
X143752256Y-93885963D01*
X143752260Y-93885966D01*
X143752264Y-93885966D01*
X143752267Y-93885968D01*
X143825321Y-93900499D01*
X143825324Y-93900500D01*
X143825326Y-93900500D01*
X143974676Y-93900500D01*
X143974677Y-93900499D01*
X144011710Y-93893133D01*
X144047732Y-93885968D01*
X144047733Y-93885967D01*
X144047740Y-93885966D01*
X144047745Y-93885962D01*
X144052539Y-93883977D01*
X144122008Y-93876504D01*
X144147461Y-93883977D01*
X144152256Y-93885963D01*
X144152260Y-93885966D01*
X144152264Y-93885966D01*
X144152267Y-93885968D01*
X144225321Y-93900499D01*
X144225324Y-93900500D01*
X144225326Y-93900500D01*
X144374676Y-93900500D01*
X144374677Y-93900499D01*
X144411710Y-93893133D01*
X144447732Y-93885968D01*
X144447733Y-93885967D01*
X144447740Y-93885966D01*
X144447745Y-93885962D01*
X144452539Y-93883977D01*
X144522008Y-93876504D01*
X144547461Y-93883977D01*
G37*
%TD.AperFunction*%
%TA.AperFunction,Conductor*%
G36*
X133300742Y-94912272D02*
G01*
X133345091Y-94940773D01*
X133363931Y-94959613D01*
X133397416Y-95020936D01*
X133399823Y-95051625D01*
X133400000Y-95051625D01*
X133400000Y-95053879D01*
X133400044Y-95054440D01*
X133400000Y-95055202D01*
X133400000Y-96550000D01*
X135326000Y-96550000D01*
X135393039Y-96569685D01*
X135438794Y-96622489D01*
X135450000Y-96674000D01*
X135450000Y-98599999D01*
X136575668Y-98599999D01*
X136642707Y-98619684D01*
X136688462Y-98672488D01*
X136698406Y-98741646D01*
X136669381Y-98805202D01*
X136663349Y-98811680D01*
X136511848Y-98963181D01*
X136450525Y-98996666D01*
X136424167Y-98999500D01*
X133775833Y-98999500D01*
X133708794Y-98979815D01*
X133688152Y-98963181D01*
X133533541Y-98808570D01*
X133500056Y-98747247D01*
X133505040Y-98677555D01*
X133546912Y-98621622D01*
X133612376Y-98597205D01*
X133635514Y-98597715D01*
X133655206Y-98599999D01*
X135149999Y-98599999D01*
X135150000Y-98599998D01*
X135150000Y-96850000D01*
X133400001Y-96850000D01*
X133400001Y-98344793D01*
X133402286Y-98364494D01*
X133390455Y-98433355D01*
X133343273Y-98484888D01*
X133275720Y-98502732D01*
X133209244Y-98481221D01*
X133191430Y-98466459D01*
X133036819Y-98311848D01*
X133003334Y-98250525D01*
X133000500Y-98224167D01*
X133000500Y-97267865D01*
X133001095Y-97259289D01*
X133002771Y-97247266D01*
X133002773Y-97247262D01*
X133000566Y-97199517D01*
X133000500Y-97196654D01*
X133000500Y-97177185D01*
X133000499Y-97177179D01*
X133000009Y-97174559D01*
X132999016Y-97166006D01*
X132997585Y-97135035D01*
X132994788Y-97128702D01*
X132986332Y-97101396D01*
X132985061Y-97094593D01*
X132968738Y-97068231D01*
X132964731Y-97060628D01*
X132952207Y-97032263D01*
X132952206Y-97032262D01*
X132952206Y-97032261D01*
X132947309Y-97027364D01*
X132929563Y-97004960D01*
X132925918Y-96999073D01*
X132925915Y-96999070D01*
X132923310Y-96997103D01*
X132919754Y-96992311D01*
X132918175Y-96990579D01*
X132918350Y-96990419D01*
X132881673Y-96940995D01*
X132876981Y-96871283D01*
X132906394Y-96814617D01*
X132909991Y-96810670D01*
X132916441Y-96803594D01*
X132918366Y-96801577D01*
X132932174Y-96787771D01*
X132933684Y-96785566D01*
X132939023Y-96778825D01*
X132949242Y-96767615D01*
X132959916Y-96755907D01*
X132962417Y-96749450D01*
X132975750Y-96724158D01*
X132979657Y-96718455D01*
X132986757Y-96688268D01*
X132989296Y-96680066D01*
X133000500Y-96651147D01*
X133000500Y-96644222D01*
X133003794Y-96615830D01*
X133005379Y-96609093D01*
X133001095Y-96578382D01*
X133000500Y-96569807D01*
X133000500Y-95267865D01*
X133001095Y-95259289D01*
X133002771Y-95247266D01*
X133002773Y-95247262D01*
X133000566Y-95199517D01*
X133000500Y-95196654D01*
X133000500Y-95177185D01*
X133000500Y-95177182D01*
X133000008Y-95174551D01*
X132999016Y-95166009D01*
X132998830Y-95161990D01*
X132997585Y-95135035D01*
X132997583Y-95135031D01*
X132997491Y-95133034D01*
X133014058Y-95065157D01*
X133064690Y-95017012D01*
X133123407Y-94987095D01*
X133169728Y-94940774D01*
X133231051Y-94907288D01*
X133300742Y-94912272D01*
G37*
%TD.AperFunction*%
%TA.AperFunction,Conductor*%
G36*
X141167539Y-95995185D02*
G01*
X141213294Y-96047989D01*
X141224500Y-96099500D01*
X141224500Y-96174674D01*
X141224500Y-96174676D01*
X141224499Y-96174676D01*
X141239033Y-96247740D01*
X141241025Y-96252548D01*
X141248494Y-96322017D01*
X141241025Y-96347452D01*
X141239033Y-96352259D01*
X141224500Y-96425323D01*
X141224500Y-96425326D01*
X141224500Y-96574674D01*
X141224500Y-96574676D01*
X141224499Y-96574676D01*
X141239033Y-96647740D01*
X141241025Y-96652548D01*
X141248494Y-96722017D01*
X141241025Y-96747452D01*
X141239033Y-96752259D01*
X141224500Y-96825323D01*
X141224500Y-96825326D01*
X141224500Y-96974674D01*
X141224500Y-96974676D01*
X141224499Y-96974676D01*
X141239033Y-97047740D01*
X141241025Y-97052548D01*
X141248494Y-97122017D01*
X141241025Y-97147452D01*
X141239033Y-97152259D01*
X141227561Y-97209933D01*
X141195175Y-97271844D01*
X141134459Y-97306418D01*
X141086548Y-97308215D01*
X141000000Y-97294508D01*
X140925519Y-97306304D01*
X140856226Y-97297348D01*
X140802775Y-97252351D01*
X140782136Y-97185599D01*
X140793741Y-97131427D01*
X140803972Y-97109487D01*
X140810500Y-97059901D01*
X140810499Y-96700100D01*
X140803972Y-96650513D01*
X140753224Y-96541684D01*
X140753223Y-96541683D01*
X140748639Y-96531852D01*
X140751062Y-96530721D01*
X140733858Y-96479710D01*
X140750867Y-96411942D01*
X140778323Y-96381464D01*
X140778071Y-96381212D01*
X140782918Y-96376364D01*
X140784137Y-96375012D01*
X140784643Y-96374638D01*
X140863405Y-96267919D01*
X140907211Y-96142732D01*
X140907213Y-96142720D01*
X140909999Y-96113009D01*
X140909999Y-96104397D01*
X140929678Y-96037356D01*
X140982478Y-95991596D01*
X141009813Y-95982768D01*
X141034382Y-95977882D01*
X141058568Y-95975500D01*
X141100500Y-95975500D01*
X141167539Y-95995185D01*
G37*
%TD.AperFunction*%
%TA.AperFunction,Conductor*%
G36*
X147515060Y-88595185D02*
G01*
X147560402Y-88647094D01*
X147575935Y-88680404D01*
X147659596Y-88764065D01*
X147766827Y-88814068D01*
X147815683Y-88820500D01*
X147815684Y-88820500D01*
X148164317Y-88820500D01*
X148180601Y-88818356D01*
X148213173Y-88814068D01*
X148320404Y-88764065D01*
X148404065Y-88680404D01*
X148404065Y-88680403D01*
X148411736Y-88672733D01*
X148414564Y-88675561D01*
X148452977Y-88644843D01*
X148522474Y-88637635D01*
X148584835Y-88669143D01*
X148588093Y-88672903D01*
X148588264Y-88672733D01*
X148595935Y-88680404D01*
X148679596Y-88764065D01*
X148786827Y-88814068D01*
X148835683Y-88820500D01*
X148835684Y-88820500D01*
X149184317Y-88820500D01*
X149200601Y-88818356D01*
X149233173Y-88814068D01*
X149340404Y-88764065D01*
X149424065Y-88680404D01*
X149439597Y-88647094D01*
X149485769Y-88594656D01*
X149551979Y-88575500D01*
X150134522Y-88575500D01*
X150201561Y-88595185D01*
X150222203Y-88611819D01*
X151588181Y-89977797D01*
X151621666Y-90039120D01*
X151624500Y-90065478D01*
X151624500Y-93934522D01*
X151604815Y-94001561D01*
X151588181Y-94022203D01*
X149822203Y-95788181D01*
X149760880Y-95821666D01*
X149734522Y-95824500D01*
X149499500Y-95824500D01*
X149432461Y-95804815D01*
X149386706Y-95752011D01*
X149375500Y-95700500D01*
X149375500Y-95625323D01*
X149375499Y-95625321D01*
X149360968Y-95552267D01*
X149360966Y-95552264D01*
X149360966Y-95552260D01*
X149360963Y-95552256D01*
X149358977Y-95547461D01*
X149351504Y-95477992D01*
X149358977Y-95452539D01*
X149360962Y-95447745D01*
X149360966Y-95447740D01*
X149367895Y-95412909D01*
X149375499Y-95374678D01*
X149375500Y-95374676D01*
X149375500Y-95225323D01*
X149375499Y-95225321D01*
X149360968Y-95152267D01*
X149360966Y-95152264D01*
X149360966Y-95152260D01*
X149360963Y-95152256D01*
X149358977Y-95147461D01*
X149351504Y-95077992D01*
X149358977Y-95052539D01*
X149360962Y-95047745D01*
X149360966Y-95047740D01*
X149366663Y-95019103D01*
X149375499Y-94974678D01*
X149375500Y-94974676D01*
X149375500Y-94825323D01*
X149375499Y-94825321D01*
X149360968Y-94752267D01*
X149360966Y-94752264D01*
X149360966Y-94752260D01*
X149360963Y-94752256D01*
X149358977Y-94747461D01*
X149351504Y-94677992D01*
X149358977Y-94652539D01*
X149360962Y-94647745D01*
X149360966Y-94647740D01*
X149375500Y-94574674D01*
X149375500Y-94518028D01*
X149395185Y-94450989D01*
X149447989Y-94405234D01*
X149468791Y-94398114D01*
X149469989Y-94397585D01*
X149469992Y-94397585D01*
X149476322Y-94394789D01*
X149503629Y-94386332D01*
X149510433Y-94385061D01*
X149536797Y-94368736D01*
X149544392Y-94364733D01*
X149572765Y-94352206D01*
X149577661Y-94347309D01*
X149600069Y-94329561D01*
X149605952Y-94325919D01*
X149624649Y-94301158D01*
X149630266Y-94294703D01*
X149694656Y-94230313D01*
X149755977Y-94196830D01*
X149762901Y-94195529D01*
X149825304Y-94185646D01*
X149938342Y-94128050D01*
X150028050Y-94038342D01*
X150085646Y-93925304D01*
X150095523Y-93862936D01*
X150125450Y-93799804D01*
X150130297Y-93794672D01*
X150868063Y-93056907D01*
X150874536Y-93051276D01*
X150884224Y-93043959D01*
X150884228Y-93043958D01*
X150916449Y-93008611D01*
X150918357Y-93006613D01*
X150932175Y-92992797D01*
X150933692Y-92990581D01*
X150939017Y-92983856D01*
X150959916Y-92960933D01*
X150962415Y-92954480D01*
X150975750Y-92929183D01*
X150975766Y-92929158D01*
X150979657Y-92923480D01*
X150986757Y-92893285D01*
X150989294Y-92885094D01*
X151000500Y-92856173D01*
X151000500Y-92849247D01*
X151003794Y-92820855D01*
X151005379Y-92814118D01*
X151001094Y-92783405D01*
X151000500Y-92774831D01*
X151000500Y-92113843D01*
X151020185Y-92046804D01*
X151060767Y-92011358D01*
X151059429Y-92009447D01*
X151068313Y-92003225D01*
X151068316Y-92003224D01*
X151153224Y-91918316D01*
X151203972Y-91809487D01*
X151210500Y-91759901D01*
X151210499Y-91400100D01*
X151203972Y-91350513D01*
X151153224Y-91241684D01*
X151153223Y-91241683D01*
X151148639Y-91231852D01*
X151151062Y-91230721D01*
X151133858Y-91179710D01*
X151150867Y-91111942D01*
X151178323Y-91081464D01*
X151178071Y-91081212D01*
X151182918Y-91076364D01*
X151184137Y-91075012D01*
X151184643Y-91074638D01*
X151263405Y-90967919D01*
X151307211Y-90842732D01*
X151307213Y-90842720D01*
X151310000Y-90813007D01*
X151310000Y-90770000D01*
X150090001Y-90770000D01*
X150090001Y-90813000D01*
X150092786Y-90842720D01*
X150136596Y-90967922D01*
X150215357Y-91074639D01*
X150215868Y-91075016D01*
X150216293Y-91075576D01*
X150221929Y-91081212D01*
X150221158Y-91081982D01*
X150258121Y-91130662D01*
X150263583Y-91200317D01*
X150250156Y-91231290D01*
X150251361Y-91231852D01*
X150246776Y-91241683D01*
X150246776Y-91241684D01*
X150233966Y-91269153D01*
X150196027Y-91350514D01*
X150189500Y-91400097D01*
X150189500Y-91759894D01*
X150190772Y-91769560D01*
X150196028Y-91809487D01*
X150196029Y-91809489D01*
X150196029Y-91809490D01*
X150246776Y-91918316D01*
X150331684Y-92003224D01*
X150340571Y-92009447D01*
X150339198Y-92011407D01*
X150380339Y-92047625D01*
X150399500Y-92113843D01*
X150399500Y-92624166D01*
X150379815Y-92691205D01*
X150363181Y-92711847D01*
X149705344Y-93369683D01*
X149644021Y-93403168D01*
X149637062Y-93404475D01*
X149574698Y-93414352D01*
X149521058Y-93441684D01*
X149461658Y-93471950D01*
X149461657Y-93471951D01*
X149461652Y-93471954D01*
X149371954Y-93561652D01*
X149371951Y-93561657D01*
X149371950Y-93561658D01*
X149314354Y-93674696D01*
X149311683Y-93691564D01*
X149311155Y-93694896D01*
X149281226Y-93758032D01*
X149221915Y-93794963D01*
X149188681Y-93799500D01*
X148324500Y-93799500D01*
X148257461Y-93779815D01*
X148211706Y-93727011D01*
X148200500Y-93675500D01*
X148200500Y-92850323D01*
X148200499Y-92850321D01*
X148185967Y-92777264D01*
X148185966Y-92777263D01*
X148185966Y-92777260D01*
X148185964Y-92777257D01*
X148183768Y-92771954D01*
X148176299Y-92702485D01*
X148207573Y-92640005D01*
X148267662Y-92604352D01*
X148298329Y-92600500D01*
X148417159Y-92600500D01*
X148425733Y-92601095D01*
X148437761Y-92602772D01*
X148437761Y-92602771D01*
X148437765Y-92602773D01*
X148480920Y-92600778D01*
X148485510Y-92600566D01*
X148488373Y-92600500D01*
X148507843Y-92600500D01*
X148507844Y-92600500D01*
X148510469Y-92600009D01*
X148519021Y-92599016D01*
X148520245Y-92598959D01*
X148549992Y-92597585D01*
X148556322Y-92594789D01*
X148583629Y-92586332D01*
X148590433Y-92585061D01*
X148616797Y-92568736D01*
X148624392Y-92564733D01*
X148652765Y-92552206D01*
X148657661Y-92547309D01*
X148680069Y-92529561D01*
X148685952Y-92525919D01*
X148704649Y-92501158D01*
X148710266Y-92494703D01*
X149108152Y-92096818D01*
X149169475Y-92063333D01*
X149195833Y-92060499D01*
X149409895Y-92060499D01*
X149409900Y-92060499D01*
X149459487Y-92053972D01*
X149568316Y-92003224D01*
X149653224Y-91918316D01*
X149703972Y-91809487D01*
X149710500Y-91759901D01*
X149710499Y-91400100D01*
X149703972Y-91350513D01*
X149653224Y-91241684D01*
X149653223Y-91241683D01*
X149648639Y-91231852D01*
X149651062Y-91230721D01*
X149633858Y-91179710D01*
X149650867Y-91111942D01*
X149678323Y-91081464D01*
X149678071Y-91081212D01*
X149682918Y-91076364D01*
X149684137Y-91075012D01*
X149684643Y-91074638D01*
X149763405Y-90967919D01*
X149807211Y-90842732D01*
X149807213Y-90842720D01*
X149810000Y-90813007D01*
X149810000Y-90770000D01*
X148590001Y-90770000D01*
X148590001Y-90813000D01*
X148592786Y-90842720D01*
X148636596Y-90967922D01*
X148715357Y-91074639D01*
X148715868Y-91075016D01*
X148716293Y-91075576D01*
X148721929Y-91081212D01*
X148721158Y-91081982D01*
X148758121Y-91130662D01*
X148763583Y-91200317D01*
X148750156Y-91231290D01*
X148751361Y-91231852D01*
X148746776Y-91241683D01*
X148746776Y-91241684D01*
X148733966Y-91269153D01*
X148696027Y-91350514D01*
X148689500Y-91400098D01*
X148689500Y-91614166D01*
X148669815Y-91681205D01*
X148653181Y-91701847D01*
X148425703Y-91929325D01*
X148364380Y-91962810D01*
X148294688Y-91957826D01*
X148238755Y-91915954D01*
X148214338Y-91850490D01*
X148215082Y-91825464D01*
X148220500Y-91784316D01*
X148220500Y-91435684D01*
X148214068Y-91386827D01*
X148164065Y-91279596D01*
X148080404Y-91195935D01*
X148072733Y-91188264D01*
X148075561Y-91185435D01*
X148044843Y-91147023D01*
X148037635Y-91077526D01*
X148069143Y-91015165D01*
X148072903Y-91011906D01*
X148072733Y-91011736D01*
X148116550Y-90967919D01*
X148164065Y-90920404D01*
X148214068Y-90813173D01*
X148220500Y-90764316D01*
X148220500Y-90470000D01*
X148590000Y-90470000D01*
X149050000Y-90470000D01*
X149050000Y-90040000D01*
X149350000Y-90040000D01*
X149350000Y-90470000D01*
X149809999Y-90470000D01*
X150090000Y-90470000D01*
X150550000Y-90470000D01*
X150550000Y-90040000D01*
X150850000Y-90040000D01*
X150850000Y-90470000D01*
X151309999Y-90470000D01*
X151309999Y-90426999D01*
X151307213Y-90397279D01*
X151263403Y-90272077D01*
X151184641Y-90165358D01*
X151077919Y-90086594D01*
X150952732Y-90042788D01*
X150952720Y-90042786D01*
X150923007Y-90040000D01*
X150850000Y-90040000D01*
X150550000Y-90040000D01*
X150549999Y-90039999D01*
X150477000Y-90040000D01*
X150447279Y-90042786D01*
X150322077Y-90086596D01*
X150215358Y-90165358D01*
X150136594Y-90272080D01*
X150092788Y-90397267D01*
X150092786Y-90397279D01*
X150090000Y-90426992D01*
X150090000Y-90470000D01*
X149809999Y-90470000D01*
X149809999Y-90426999D01*
X149807213Y-90397279D01*
X149763403Y-90272077D01*
X149684641Y-90165358D01*
X149577919Y-90086594D01*
X149452732Y-90042788D01*
X149452720Y-90042786D01*
X149423007Y-90040000D01*
X149350000Y-90040000D01*
X149050000Y-90040000D01*
X149049999Y-90039999D01*
X148977000Y-90040000D01*
X148947279Y-90042786D01*
X148822077Y-90086596D01*
X148715358Y-90165358D01*
X148636594Y-90272080D01*
X148592788Y-90397267D01*
X148592786Y-90397279D01*
X148590000Y-90426992D01*
X148590000Y-90470000D01*
X148220500Y-90470000D01*
X148220500Y-90415684D01*
X148214068Y-90366827D01*
X148164065Y-90259596D01*
X148080404Y-90175935D01*
X147973173Y-90125932D01*
X147973171Y-90125931D01*
X147973172Y-90125931D01*
X147924317Y-90119500D01*
X147924316Y-90119500D01*
X147748260Y-90119500D01*
X147681221Y-90099815D01*
X147660579Y-90083181D01*
X146609579Y-89032181D01*
X146576094Y-88970858D01*
X146581078Y-88901166D01*
X146622950Y-88845233D01*
X146688414Y-88820816D01*
X146697260Y-88820500D01*
X146765522Y-88820500D01*
X146765528Y-88820500D01*
X146833170Y-88810645D01*
X146937511Y-88759636D01*
X147019636Y-88677511D01*
X147033621Y-88648905D01*
X147035511Y-88645039D01*
X147082639Y-88593457D01*
X147146911Y-88575500D01*
X147448021Y-88575500D01*
X147515060Y-88595185D01*
G37*
%TD.AperFunction*%
%TA.AperFunction,Conductor*%
G36*
X139193834Y-88370047D02*
G01*
X139249767Y-88411919D01*
X139274184Y-88477383D01*
X139274500Y-88486229D01*
X139274500Y-89184522D01*
X139254815Y-89251561D01*
X139238181Y-89272203D01*
X139027203Y-89483181D01*
X138965880Y-89516666D01*
X138939522Y-89519500D01*
X138575683Y-89519500D01*
X138526828Y-89525931D01*
X138419595Y-89575935D01*
X138335935Y-89659595D01*
X138285931Y-89766828D01*
X138279500Y-89815683D01*
X138279500Y-90164316D01*
X138285931Y-90213171D01*
X138335935Y-90320404D01*
X138360577Y-90345046D01*
X138394062Y-90406369D01*
X138389078Y-90476061D01*
X138347206Y-90531994D01*
X138346531Y-90532496D01*
X138303935Y-90563934D01*
X138226066Y-90669440D01*
X138226065Y-90669442D01*
X138182757Y-90793207D01*
X138182755Y-90793219D01*
X138180000Y-90822601D01*
X138180000Y-90860000D01*
X138826000Y-90860000D01*
X138893039Y-90879685D01*
X138938794Y-90932489D01*
X138950000Y-90984000D01*
X138950000Y-91580000D01*
X139000500Y-91580000D01*
X139067539Y-91599685D01*
X139113294Y-91652489D01*
X139124500Y-91704000D01*
X139124500Y-92064209D01*
X139122116Y-92088401D01*
X139119103Y-92103554D01*
X139123623Y-92126279D01*
X139123640Y-92126361D01*
X139123647Y-92126403D01*
X139140484Y-92211048D01*
X139140484Y-92211049D01*
X139159829Y-92239999D01*
X139167097Y-92250877D01*
X139175309Y-92263167D01*
X139183632Y-92275624D01*
X139201375Y-92302177D01*
X139201376Y-92302178D01*
X139214222Y-92310761D01*
X139233012Y-92326182D01*
X139673816Y-92766986D01*
X139689237Y-92785776D01*
X139697822Y-92798624D01*
X139718272Y-92812288D01*
X139718333Y-92812333D01*
X139720822Y-92813992D01*
X139720824Y-92813994D01*
X139721010Y-92814118D01*
X139788951Y-92859515D01*
X139799106Y-92866300D01*
X139797270Y-92869046D01*
X139836140Y-92900375D01*
X139858198Y-92966671D01*
X139840913Y-93034369D01*
X139820443Y-93057302D01*
X139821929Y-93058788D01*
X139815360Y-93065356D01*
X139736594Y-93172080D01*
X139692788Y-93297267D01*
X139692786Y-93297279D01*
X139690000Y-93326992D01*
X139690000Y-93370000D01*
X140909999Y-93370000D01*
X140909999Y-93326999D01*
X140907213Y-93297279D01*
X140863403Y-93172077D01*
X140790380Y-93073134D01*
X140766409Y-93007505D01*
X140781724Y-92939334D01*
X140831465Y-92890266D01*
X140890150Y-92875500D01*
X142234522Y-92875500D01*
X142301561Y-92895185D01*
X142322203Y-92911819D01*
X142363181Y-92952797D01*
X142396666Y-93014120D01*
X142399500Y-93040478D01*
X142399500Y-93675500D01*
X142379815Y-93742539D01*
X142327011Y-93788294D01*
X142275500Y-93799500D01*
X141316552Y-93799500D01*
X141249513Y-93779815D01*
X141243671Y-93775821D01*
X141238346Y-93771953D01*
X141238343Y-93771951D01*
X141238342Y-93771950D01*
X141125304Y-93714354D01*
X141125303Y-93714353D01*
X141125300Y-93714352D01*
X141000003Y-93694508D01*
X140990242Y-93694508D01*
X140990242Y-93691564D01*
X140936545Y-93684612D01*
X140915182Y-93670000D01*
X139690001Y-93670000D01*
X139690001Y-93713000D01*
X139692786Y-93742720D01*
X139736596Y-93867922D01*
X139815357Y-93974639D01*
X139815868Y-93975016D01*
X139816293Y-93975576D01*
X139821929Y-93981212D01*
X139821158Y-93981982D01*
X139858121Y-94030662D01*
X139863583Y-94100317D01*
X139850156Y-94131290D01*
X139851361Y-94131852D01*
X139796027Y-94250514D01*
X139789500Y-94300097D01*
X139789500Y-94659894D01*
X139789501Y-94659900D01*
X139796028Y-94709487D01*
X139796029Y-94709489D01*
X139796029Y-94709490D01*
X139846776Y-94818317D01*
X139852998Y-94827202D01*
X139850201Y-94829159D01*
X139874764Y-94874142D01*
X139869780Y-94943834D01*
X139827908Y-94999767D01*
X139762444Y-95024184D01*
X139753598Y-95024500D01*
X139499500Y-95024500D01*
X139432461Y-95004815D01*
X139386706Y-94952011D01*
X139375500Y-94900500D01*
X139375500Y-94825323D01*
X139375499Y-94825321D01*
X139360968Y-94752267D01*
X139360966Y-94752264D01*
X139360966Y-94752260D01*
X139360963Y-94752256D01*
X139358977Y-94747461D01*
X139351504Y-94677992D01*
X139358977Y-94652539D01*
X139360962Y-94647745D01*
X139360966Y-94647740D01*
X139375500Y-94574674D01*
X139375500Y-94425326D01*
X139375500Y-94425323D01*
X139375499Y-94425321D01*
X139360968Y-94352267D01*
X139360966Y-94352264D01*
X139360966Y-94352260D01*
X139360963Y-94352256D01*
X139358977Y-94347461D01*
X139351504Y-94277992D01*
X139358977Y-94252539D01*
X139360962Y-94247745D01*
X139360966Y-94247740D01*
X139363401Y-94235502D01*
X139375499Y-94174678D01*
X139375500Y-94174676D01*
X139375500Y-94025323D01*
X139375499Y-94025321D01*
X139360967Y-93952264D01*
X139360966Y-93952260D01*
X139342955Y-93925304D01*
X139305601Y-93869399D01*
X139247535Y-93830601D01*
X139222739Y-93814033D01*
X139222735Y-93814032D01*
X139149677Y-93799500D01*
X139149674Y-93799500D01*
X138325326Y-93799500D01*
X138324500Y-93799500D01*
X138257461Y-93779815D01*
X138211706Y-93727011D01*
X138200500Y-93675500D01*
X138200500Y-92850323D01*
X138200499Y-92850321D01*
X138185967Y-92777264D01*
X138185966Y-92777260D01*
X138151158Y-92725166D01*
X138130601Y-92694399D01*
X138061897Y-92648493D01*
X138047739Y-92639033D01*
X138047735Y-92639032D01*
X137974677Y-92624500D01*
X137974674Y-92624500D01*
X137825326Y-92624500D01*
X137825324Y-92624500D01*
X137752259Y-92639033D01*
X137747452Y-92641025D01*
X137677983Y-92648494D01*
X137652548Y-92641025D01*
X137647740Y-92639033D01*
X137574676Y-92624500D01*
X137574674Y-92624500D01*
X137425326Y-92624500D01*
X137425324Y-92624500D01*
X137352259Y-92639033D01*
X137347452Y-92641025D01*
X137277983Y-92648494D01*
X137252548Y-92641025D01*
X137247740Y-92639033D01*
X137174676Y-92624500D01*
X137174674Y-92624500D01*
X137025326Y-92624500D01*
X137025324Y-92624500D01*
X136952259Y-92639033D01*
X136947452Y-92641025D01*
X136877983Y-92648494D01*
X136852548Y-92641025D01*
X136847740Y-92639033D01*
X136774672Y-92624499D01*
X136774062Y-92624439D01*
X136773763Y-92624318D01*
X136768699Y-92623311D01*
X136768890Y-92622350D01*
X136709277Y-92598273D01*
X136668922Y-92541235D01*
X136665811Y-92471435D01*
X136675742Y-92444741D01*
X136676588Y-92443081D01*
X136685646Y-92425304D01*
X136687418Y-92414116D01*
X136705492Y-92300003D01*
X136705492Y-92299998D01*
X136698332Y-92254793D01*
X136707286Y-92185500D01*
X136752282Y-92132048D01*
X136819034Y-92111408D01*
X136886348Y-92130133D01*
X136894439Y-92135625D01*
X136932080Y-92163405D01*
X137057267Y-92207211D01*
X137057279Y-92207213D01*
X137086977Y-92209998D01*
X137087006Y-92209999D01*
X137130000Y-92209999D01*
X137130000Y-91750000D01*
X137430000Y-91750000D01*
X137430000Y-92209999D01*
X137473000Y-92209999D01*
X137502720Y-92207213D01*
X137627922Y-92163403D01*
X137734641Y-92084641D01*
X137813405Y-91977919D01*
X137857211Y-91852732D01*
X137857213Y-91852720D01*
X137860000Y-91823007D01*
X137860000Y-91750000D01*
X137430000Y-91750000D01*
X137130000Y-91750000D01*
X137130000Y-90990000D01*
X137430000Y-90990000D01*
X137430000Y-91450000D01*
X137859999Y-91450000D01*
X137859999Y-91376999D01*
X137857213Y-91347279D01*
X137813403Y-91222077D01*
X137767588Y-91160000D01*
X138180000Y-91160000D01*
X138180000Y-91197398D01*
X138182755Y-91226780D01*
X138182757Y-91226792D01*
X138226065Y-91350557D01*
X138226066Y-91350559D01*
X138303934Y-91456065D01*
X138409440Y-91533933D01*
X138409442Y-91533934D01*
X138533207Y-91577242D01*
X138533219Y-91577244D01*
X138562602Y-91580000D01*
X138650000Y-91580000D01*
X138650000Y-91160000D01*
X138180000Y-91160000D01*
X137767588Y-91160000D01*
X137734641Y-91115358D01*
X137627919Y-91036594D01*
X137502732Y-90992788D01*
X137502720Y-90992786D01*
X137473007Y-90990000D01*
X137430000Y-90990000D01*
X137130000Y-90990000D01*
X137086999Y-90990000D01*
X137057279Y-90992786D01*
X136932077Y-91036596D01*
X136825358Y-91115358D01*
X136824977Y-91115876D01*
X136824412Y-91116304D01*
X136818788Y-91121929D01*
X136818018Y-91121159D01*
X136769328Y-91158125D01*
X136699672Y-91163581D01*
X136668709Y-91150155D01*
X136668148Y-91151361D01*
X136658316Y-91146776D01*
X136549487Y-91096028D01*
X136549485Y-91096027D01*
X136549486Y-91096027D01*
X136499902Y-91089500D01*
X136140105Y-91089500D01*
X136124386Y-91091569D01*
X136090513Y-91096028D01*
X136090511Y-91096029D01*
X136090509Y-91096029D01*
X135981683Y-91146776D01*
X135896776Y-91231683D01*
X135846027Y-91340514D01*
X135839500Y-91390098D01*
X135839500Y-91809894D01*
X135839948Y-91813294D01*
X135846028Y-91859487D01*
X135846029Y-91859489D01*
X135846029Y-91859490D01*
X135896776Y-91968316D01*
X135914378Y-91985918D01*
X135947863Y-92047241D01*
X135942879Y-92116933D01*
X135937182Y-92129894D01*
X135914352Y-92174698D01*
X135914352Y-92174699D01*
X135894508Y-92299996D01*
X135894508Y-92300003D01*
X135914352Y-92425300D01*
X135914353Y-92425302D01*
X135924259Y-92444744D01*
X135937154Y-92513413D01*
X135910877Y-92578153D01*
X135853770Y-92618409D01*
X135831294Y-92623278D01*
X135831301Y-92623311D01*
X135829398Y-92623689D01*
X135825939Y-92624439D01*
X135825326Y-92624499D01*
X135752259Y-92639033D01*
X135747452Y-92641025D01*
X135677983Y-92648494D01*
X135652548Y-92641025D01*
X135647740Y-92639033D01*
X135574676Y-92624500D01*
X135574674Y-92624500D01*
X135425326Y-92624500D01*
X135425324Y-92624500D01*
X135352259Y-92639033D01*
X135347452Y-92641025D01*
X135277983Y-92648494D01*
X135252548Y-92641025D01*
X135247740Y-92639033D01*
X135174676Y-92624500D01*
X135174674Y-92624500D01*
X135025326Y-92624500D01*
X135025324Y-92624500D01*
X134952259Y-92639033D01*
X134947452Y-92641025D01*
X134877983Y-92648494D01*
X134852548Y-92641025D01*
X134847740Y-92639033D01*
X134774676Y-92624500D01*
X134774674Y-92624500D01*
X134625326Y-92624500D01*
X134625324Y-92624500D01*
X134552259Y-92639033D01*
X134547452Y-92641025D01*
X134477983Y-92648494D01*
X134452548Y-92641025D01*
X134447740Y-92639033D01*
X134374676Y-92624500D01*
X134374674Y-92624500D01*
X134225326Y-92624500D01*
X134225324Y-92624500D01*
X134152259Y-92639033D01*
X134147452Y-92641025D01*
X134077983Y-92648494D01*
X134052548Y-92641025D01*
X134047740Y-92639033D01*
X133974676Y-92624500D01*
X133974674Y-92624500D01*
X133825326Y-92624500D01*
X133825324Y-92624500D01*
X133752259Y-92639033D01*
X133747452Y-92641025D01*
X133677983Y-92648494D01*
X133652548Y-92641025D01*
X133647740Y-92639033D01*
X133574670Y-92624498D01*
X133574063Y-92624439D01*
X133573765Y-92624318D01*
X133568699Y-92623311D01*
X133568890Y-92622349D01*
X133509277Y-92598274D01*
X133468922Y-92541237D01*
X133465810Y-92471436D01*
X133475738Y-92444748D01*
X133485646Y-92425304D01*
X133495523Y-92362936D01*
X133525450Y-92299804D01*
X133530297Y-92294672D01*
X133693059Y-92131910D01*
X133699532Y-92126279D01*
X133709224Y-92118959D01*
X133709228Y-92118958D01*
X133741459Y-92083600D01*
X133743367Y-92081602D01*
X133757174Y-92067797D01*
X133758684Y-92065592D01*
X133764023Y-92058851D01*
X133775005Y-92046804D01*
X133784916Y-92035933D01*
X133787416Y-92029478D01*
X133800765Y-92004160D01*
X133802164Y-92002118D01*
X133848145Y-91961745D01*
X133850300Y-91960646D01*
X133850304Y-91960646D01*
X133963342Y-91903050D01*
X134053050Y-91813342D01*
X134110646Y-91700304D01*
X134110646Y-91700302D01*
X134110647Y-91700301D01*
X134125499Y-91606524D01*
X134125500Y-91606519D01*
X134125499Y-90993482D01*
X134110646Y-90899696D01*
X134053050Y-90786658D01*
X134053046Y-90786654D01*
X134053045Y-90786652D01*
X133963347Y-90696954D01*
X133963343Y-90696951D01*
X133963342Y-90696950D01*
X133961582Y-90696053D01*
X133893204Y-90661212D01*
X133842408Y-90613237D01*
X133825500Y-90550728D01*
X133825500Y-90362338D01*
X133826095Y-90353762D01*
X133827771Y-90341739D01*
X133827773Y-90341735D01*
X133825566Y-90293990D01*
X133825500Y-90291127D01*
X133825500Y-90271659D01*
X133825499Y-90271653D01*
X133825009Y-90269033D01*
X133824016Y-90260480D01*
X133823509Y-90249515D01*
X133822585Y-90229508D01*
X133821460Y-90226961D01*
X133819787Y-90223171D01*
X133811333Y-90195873D01*
X133810061Y-90189067D01*
X133793740Y-90162707D01*
X133789734Y-90155108D01*
X133784600Y-90143480D01*
X133777206Y-90126734D01*
X133772309Y-90121837D01*
X133754561Y-90099431D01*
X133750919Y-90093548D01*
X133750916Y-90093546D01*
X133750916Y-90093545D01*
X133726178Y-90074865D01*
X133719692Y-90069221D01*
X133330315Y-89679843D01*
X133296830Y-89618520D01*
X133295527Y-89611586D01*
X133294597Y-89605713D01*
X133303554Y-89536423D01*
X133348551Y-89482972D01*
X133415303Y-89462334D01*
X133445478Y-89465619D01*
X133450313Y-89466756D01*
X133458512Y-89469296D01*
X133487430Y-89480500D01*
X133494354Y-89480500D01*
X133522744Y-89483793D01*
X133529484Y-89485379D01*
X133560194Y-89481095D01*
X133568769Y-89480500D01*
X134457598Y-89480500D01*
X134524637Y-89500185D01*
X134545279Y-89516819D01*
X134546776Y-89518316D01*
X134631684Y-89603224D01*
X134740513Y-89653972D01*
X134790099Y-89660500D01*
X135209900Y-89660499D01*
X135259487Y-89653972D01*
X135368316Y-89603224D01*
X135453224Y-89518316D01*
X135453224Y-89518315D01*
X135454721Y-89516819D01*
X135516044Y-89483334D01*
X135542402Y-89480500D01*
X137483448Y-89480500D01*
X137550487Y-89500185D01*
X137556329Y-89504179D01*
X137561653Y-89508046D01*
X137561655Y-89508047D01*
X137561658Y-89508050D01*
X137674696Y-89565646D01*
X137674697Y-89565646D01*
X137674699Y-89565647D01*
X137799997Y-89585492D01*
X137800000Y-89585492D01*
X137800003Y-89585492D01*
X137925300Y-89565647D01*
X137925301Y-89565647D01*
X137925302Y-89565646D01*
X137925304Y-89565646D01*
X138038342Y-89508050D01*
X138128050Y-89418342D01*
X138185646Y-89305304D01*
X138185646Y-89305297D01*
X138188660Y-89296026D01*
X138191132Y-89296829D01*
X138214826Y-89246827D01*
X138219684Y-89241682D01*
X139062820Y-88398546D01*
X139124142Y-88365063D01*
X139193834Y-88370047D01*
G37*
%TD.AperFunction*%
%TA.AperFunction,Conductor*%
G36*
X132650487Y-89994685D02*
G01*
X132656329Y-89998679D01*
X132661653Y-90002546D01*
X132661655Y-90002547D01*
X132661658Y-90002550D01*
X132774696Y-90060146D01*
X132837062Y-90070023D01*
X132900194Y-90099951D01*
X132905344Y-90104815D01*
X133188181Y-90387652D01*
X133221666Y-90448975D01*
X133224500Y-90475333D01*
X133224500Y-90550728D01*
X133204815Y-90617767D01*
X133156796Y-90661212D01*
X133086659Y-90696949D01*
X133086652Y-90696954D01*
X132996954Y-90786652D01*
X132996951Y-90786657D01*
X132996950Y-90786658D01*
X132979755Y-90820405D01*
X132939352Y-90899698D01*
X132924500Y-90993475D01*
X132924500Y-91606517D01*
X132931634Y-91651559D01*
X132939354Y-91700304D01*
X132976929Y-91774049D01*
X132989825Y-91842716D01*
X132963549Y-91907457D01*
X132922741Y-91940826D01*
X132861657Y-91971950D01*
X132861652Y-91971954D01*
X132771954Y-92061652D01*
X132771951Y-92061657D01*
X132771950Y-92061658D01*
X132759544Y-92086007D01*
X132714352Y-92174698D01*
X132704475Y-92237061D01*
X132674545Y-92300196D01*
X132669684Y-92305343D01*
X132531947Y-92443081D01*
X132525463Y-92448723D01*
X132515769Y-92456043D01*
X132483559Y-92491374D01*
X132481585Y-92493442D01*
X132467827Y-92507200D01*
X132467822Y-92507206D01*
X132466306Y-92509420D01*
X132460976Y-92516148D01*
X132440083Y-92539066D01*
X132440083Y-92539067D01*
X132437578Y-92545533D01*
X132424259Y-92570802D01*
X132420345Y-92576515D01*
X132420343Y-92576521D01*
X132413244Y-92606699D01*
X132410702Y-92614907D01*
X132399500Y-92643826D01*
X132399500Y-92650751D01*
X132396206Y-92679141D01*
X132394621Y-92685877D01*
X132394621Y-92685881D01*
X132398905Y-92716590D01*
X132399500Y-92725166D01*
X132399500Y-93675500D01*
X132379815Y-93742539D01*
X132327011Y-93788294D01*
X132275500Y-93799500D01*
X131640478Y-93799500D01*
X131573439Y-93779815D01*
X131552797Y-93763181D01*
X131311819Y-93522203D01*
X131278334Y-93460880D01*
X131275500Y-93434522D01*
X131275500Y-92465477D01*
X131295185Y-92398438D01*
X131311815Y-92377800D01*
X131677797Y-92011817D01*
X131739120Y-91978333D01*
X131765478Y-91975499D01*
X132106517Y-91975499D01*
X132106518Y-91975499D01*
X132200304Y-91960646D01*
X132313342Y-91903050D01*
X132403050Y-91813342D01*
X132460646Y-91700304D01*
X132460646Y-91700302D01*
X132460647Y-91700301D01*
X132475499Y-91606524D01*
X132475500Y-91606519D01*
X132475499Y-90993482D01*
X132460646Y-90899696D01*
X132403050Y-90786658D01*
X132403046Y-90786654D01*
X132403045Y-90786652D01*
X132313347Y-90696954D01*
X132313344Y-90696952D01*
X132313342Y-90696950D01*
X132236517Y-90657805D01*
X132200301Y-90639352D01*
X132106524Y-90624500D01*
X132106519Y-90624500D01*
X131715478Y-90624500D01*
X131648439Y-90604815D01*
X131627797Y-90588181D01*
X131362627Y-90323011D01*
X131347205Y-90304219D01*
X131338624Y-90291376D01*
X131338620Y-90291372D01*
X131315623Y-90276007D01*
X131315328Y-90275810D01*
X131275975Y-90249515D01*
X131247495Y-90230485D01*
X131247494Y-90230484D01*
X131247492Y-90230483D01*
X131247493Y-90230483D01*
X131197889Y-90220617D01*
X131135978Y-90188232D01*
X131101404Y-90127517D01*
X131105143Y-90057747D01*
X131146010Y-90001075D01*
X131211028Y-89975494D01*
X131222080Y-89975000D01*
X132583448Y-89975000D01*
X132650487Y-89994685D01*
G37*
%TD.AperFunction*%
%TA.AperFunction,Conductor*%
G36*
X144468310Y-91757631D02*
G01*
X144490099Y-91760500D01*
X144705347Y-91760499D01*
X144772386Y-91780183D01*
X144815831Y-91828203D01*
X144871950Y-91938342D01*
X144871952Y-91938344D01*
X144871954Y-91938347D01*
X144961652Y-92028045D01*
X144961654Y-92028046D01*
X144961658Y-92028050D01*
X145074696Y-92085646D01*
X145094895Y-92088844D01*
X145158029Y-92118771D01*
X145194963Y-92178081D01*
X145199500Y-92211318D01*
X145199500Y-92500500D01*
X145179815Y-92567539D01*
X145127011Y-92613294D01*
X145075500Y-92624500D01*
X145025324Y-92624500D01*
X144952259Y-92639033D01*
X144947449Y-92641026D01*
X144877979Y-92648493D01*
X144852541Y-92641023D01*
X144837932Y-92634971D01*
X144797709Y-92608093D01*
X144361819Y-92172203D01*
X144328334Y-92110880D01*
X144325500Y-92084522D01*
X144325500Y-91880225D01*
X144345185Y-91813186D01*
X144397989Y-91767431D01*
X144465685Y-91757286D01*
X144468310Y-91757631D01*
G37*
%TD.AperFunction*%
%TA.AperFunction,Conductor*%
G36*
X141423986Y-89700185D02*
G01*
X141469741Y-89752989D01*
X141479685Y-89822147D01*
X141465105Y-89860196D01*
X141465806Y-89860487D01*
X141461131Y-89871770D01*
X141449500Y-89930247D01*
X141449500Y-89930252D01*
X141449500Y-91669748D01*
X141449500Y-91669750D01*
X141449499Y-91669750D01*
X141450805Y-91676312D01*
X141444576Y-91745904D01*
X141401711Y-91801080D01*
X141335821Y-91824322D01*
X141329187Y-91824500D01*
X141274000Y-91824500D01*
X141206961Y-91804815D01*
X141161206Y-91752011D01*
X141150000Y-91700500D01*
X141150000Y-91700000D01*
X140524000Y-91700000D01*
X140456961Y-91680315D01*
X140411206Y-91627511D01*
X140400000Y-91576000D01*
X140400000Y-91524500D01*
X140419685Y-91457461D01*
X140472489Y-91411706D01*
X140524000Y-91400500D01*
X140869750Y-91400500D01*
X140871792Y-91400299D01*
X140877872Y-91400000D01*
X141149999Y-91400000D01*
X141149999Y-91355214D01*
X141149997Y-91355191D01*
X141147091Y-91330130D01*
X141147090Y-91330126D01*
X141101788Y-91227525D01*
X141101785Y-91227520D01*
X141086819Y-91212554D01*
X141053334Y-91151231D01*
X141050500Y-91124873D01*
X141050500Y-90880249D01*
X141039349Y-90824192D01*
X141039349Y-90775808D01*
X141050500Y-90719750D01*
X141050500Y-90380249D01*
X141039349Y-90324192D01*
X141039349Y-90275808D01*
X141050500Y-90219750D01*
X141050500Y-89880252D01*
X141040244Y-89828690D01*
X141046473Y-89759099D01*
X141089336Y-89703922D01*
X141155226Y-89680678D01*
X141161862Y-89680500D01*
X141356947Y-89680500D01*
X141423986Y-89700185D01*
G37*
%TD.AperFunction*%
%TA.AperFunction,Conductor*%
G36*
X142505177Y-89700185D02*
G01*
X142550932Y-89752989D01*
X142560876Y-89822147D01*
X142559756Y-89828690D01*
X142552380Y-89865772D01*
X142549500Y-89880252D01*
X142549500Y-90219748D01*
X142549673Y-90220617D01*
X142560651Y-90275810D01*
X142560651Y-90324190D01*
X142554769Y-90353762D01*
X142549500Y-90380252D01*
X142549500Y-90719748D01*
X142550969Y-90727132D01*
X142560651Y-90775810D01*
X142560651Y-90824190D01*
X142549500Y-90880252D01*
X142549500Y-91219747D01*
X142560651Y-91275810D01*
X142560651Y-91324190D01*
X142549500Y-91380252D01*
X142549500Y-91700500D01*
X142529815Y-91767539D01*
X142477011Y-91813294D01*
X142425500Y-91824500D01*
X142270813Y-91824500D01*
X142203774Y-91804815D01*
X142158019Y-91752011D01*
X142148075Y-91682853D01*
X142149195Y-91676312D01*
X142150500Y-91669750D01*
X142150500Y-89930249D01*
X142150499Y-89930247D01*
X142138868Y-89871770D01*
X142134194Y-89860487D01*
X142135713Y-89859857D01*
X142119073Y-89806714D01*
X142137557Y-89739334D01*
X142189536Y-89692643D01*
X142243053Y-89680500D01*
X142438138Y-89680500D01*
X142505177Y-89700185D01*
G37*
%TD.AperFunction*%
%TA.AperFunction,Conductor*%
G36*
X145812539Y-89700185D02*
G01*
X145858294Y-89752989D01*
X145869500Y-89804500D01*
X145869500Y-90076441D01*
X145849815Y-90143480D01*
X145826620Y-90167617D01*
X145827267Y-90168264D01*
X145735935Y-90259595D01*
X145685931Y-90366828D01*
X145679500Y-90415683D01*
X145679500Y-90764316D01*
X145685931Y-90813171D01*
X145735935Y-90920404D01*
X145827267Y-91011736D01*
X145824443Y-91014559D01*
X145855183Y-91053042D01*
X145862352Y-91122542D01*
X145830808Y-91184886D01*
X145827101Y-91188098D01*
X145827267Y-91188264D01*
X145735936Y-91279594D01*
X145686767Y-91385036D01*
X145640594Y-91437475D01*
X145573400Y-91456626D01*
X145506519Y-91436410D01*
X145486704Y-91420311D01*
X145438347Y-91371954D01*
X145438344Y-91371952D01*
X145438342Y-91371950D01*
X145325304Y-91314354D01*
X145325302Y-91314353D01*
X145325301Y-91314353D01*
X145315099Y-91312737D01*
X145251965Y-91282806D01*
X145215035Y-91223494D01*
X145210499Y-91190264D01*
X145210499Y-91100105D01*
X145210499Y-91100100D01*
X145203972Y-91050513D01*
X145153224Y-90941684D01*
X145153223Y-90941683D01*
X145148639Y-90931852D01*
X145151062Y-90930721D01*
X145133858Y-90879710D01*
X145150867Y-90811942D01*
X145178323Y-90781464D01*
X145178071Y-90781212D01*
X145182918Y-90776364D01*
X145184137Y-90775012D01*
X145184643Y-90774638D01*
X145263405Y-90667919D01*
X145307211Y-90542732D01*
X145307213Y-90542720D01*
X145310000Y-90513007D01*
X145310000Y-90470000D01*
X144674000Y-90470000D01*
X144606961Y-90450315D01*
X144561206Y-90397511D01*
X144550000Y-90346000D01*
X144550000Y-90294000D01*
X144569685Y-90226961D01*
X144622489Y-90181206D01*
X144674000Y-90170000D01*
X145309999Y-90170000D01*
X145309999Y-90126999D01*
X145307213Y-90097279D01*
X145263403Y-89972077D01*
X145194070Y-89878134D01*
X145170099Y-89812505D01*
X145185414Y-89744335D01*
X145235154Y-89695266D01*
X145293840Y-89680500D01*
X145745500Y-89680500D01*
X145812539Y-89700185D01*
G37*
%TD.AperFunction*%
%TA.AperFunction,Conductor*%
G36*
X133341206Y-87970185D02*
G01*
X133361848Y-87986819D01*
X134042848Y-88667819D01*
X134076333Y-88729142D01*
X134071349Y-88798834D01*
X134029477Y-88854767D01*
X133964013Y-88879184D01*
X133955167Y-88879500D01*
X133719436Y-88879500D01*
X133652397Y-88859815D01*
X133631755Y-88843181D01*
X133570525Y-88781951D01*
X133564881Y-88775465D01*
X133557559Y-88765770D01*
X133522227Y-88733560D01*
X133520176Y-88731602D01*
X133506400Y-88717826D01*
X133504189Y-88716311D01*
X133497456Y-88710978D01*
X133474536Y-88690084D01*
X133468073Y-88687580D01*
X133442795Y-88674256D01*
X133437084Y-88670344D01*
X133437081Y-88670343D01*
X133437082Y-88670343D01*
X133406905Y-88663244D01*
X133398697Y-88660703D01*
X133369776Y-88649500D01*
X133362852Y-88649500D01*
X133334461Y-88646206D01*
X133327722Y-88644621D01*
X133297012Y-88648905D01*
X133288437Y-88649500D01*
X132974000Y-88649500D01*
X132906961Y-88629815D01*
X132861206Y-88577011D01*
X132850000Y-88525500D01*
X132850000Y-88450000D01*
X132311500Y-88450000D01*
X132244461Y-88430315D01*
X132198706Y-88377511D01*
X132187500Y-88326000D01*
X132187500Y-88274000D01*
X132207185Y-88206961D01*
X132259989Y-88161206D01*
X132311500Y-88150000D01*
X132849999Y-88150000D01*
X132849999Y-88074500D01*
X132869684Y-88007461D01*
X132922488Y-87961706D01*
X132973999Y-87950500D01*
X133274167Y-87950500D01*
X133341206Y-87970185D01*
G37*
%TD.AperFunction*%
%TA.AperFunction,Conductor*%
G36*
X133493039Y-85370185D02*
G01*
X133538794Y-85422989D01*
X133550000Y-85474500D01*
X133550000Y-85900000D01*
X134626000Y-85900000D01*
X134693039Y-85919685D01*
X134738794Y-85972489D01*
X134750000Y-86024000D01*
X134750000Y-87099999D01*
X135126000Y-87099999D01*
X135193039Y-87119684D01*
X135238794Y-87172488D01*
X135250000Y-87223999D01*
X135250000Y-87250000D01*
X135525948Y-87250000D01*
X135579748Y-87262279D01*
X135700412Y-87320389D01*
X135700416Y-87320390D01*
X135700419Y-87320391D01*
X135832333Y-87350499D01*
X135832338Y-87350499D01*
X135832340Y-87350500D01*
X135832342Y-87350500D01*
X136106000Y-87350500D01*
X136173039Y-87370185D01*
X136218794Y-87422989D01*
X136230000Y-87474500D01*
X136230000Y-87780000D01*
X137446000Y-87780000D01*
X137513039Y-87799685D01*
X137558794Y-87852489D01*
X137570000Y-87904000D01*
X137570000Y-87908022D01*
X137572206Y-87912063D01*
X137630515Y-87890315D01*
X137639361Y-87889999D01*
X137784786Y-87889999D01*
X137784808Y-87889997D01*
X137809869Y-87887091D01*
X137809873Y-87887090D01*
X137912474Y-87841788D01*
X137912479Y-87841785D01*
X137927446Y-87826819D01*
X137988769Y-87793334D01*
X138015127Y-87790500D01*
X138259749Y-87790500D01*
X138270030Y-87788454D01*
X138275805Y-87787306D01*
X138324195Y-87787306D01*
X138327715Y-87788006D01*
X138340250Y-87790500D01*
X138340252Y-87790500D01*
X138521564Y-87790500D01*
X138588603Y-87810185D01*
X138634358Y-87862989D01*
X138644302Y-87932147D01*
X138615277Y-87995703D01*
X138609245Y-88002181D01*
X137872354Y-88739070D01*
X137811031Y-88772555D01*
X137804071Y-88773862D01*
X137674699Y-88794352D01*
X137674696Y-88794353D01*
X137669677Y-88796911D01*
X137601007Y-88809805D01*
X137536268Y-88783526D01*
X137496013Y-88726418D01*
X137493023Y-88656612D01*
X137499952Y-88636338D01*
X137527088Y-88574879D01*
X137527089Y-88574875D01*
X137529999Y-88549794D01*
X137529999Y-88061974D01*
X137527793Y-88057935D01*
X137469485Y-88079684D01*
X137460639Y-88080000D01*
X136230001Y-88080000D01*
X136230001Y-88549785D01*
X136230002Y-88549808D01*
X136232908Y-88574869D01*
X136232909Y-88574873D01*
X136278212Y-88677478D01*
X136283654Y-88685421D01*
X136305302Y-88751852D01*
X136287599Y-88819442D01*
X136236163Y-88866730D01*
X136181356Y-88879500D01*
X135579079Y-88879500D01*
X135512040Y-88859815D01*
X135466285Y-88807011D01*
X135456341Y-88737853D01*
X135479309Y-88681866D01*
X135563405Y-88567919D01*
X135607211Y-88442732D01*
X135607213Y-88442720D01*
X135610000Y-88413007D01*
X135610000Y-88370000D01*
X134974000Y-88370000D01*
X134906961Y-88350315D01*
X134861206Y-88297511D01*
X134850000Y-88246000D01*
X134850000Y-87640000D01*
X135150000Y-87640000D01*
X135150000Y-88070000D01*
X135609999Y-88070000D01*
X135609999Y-88026999D01*
X135607213Y-87997279D01*
X135563403Y-87872077D01*
X135484641Y-87765358D01*
X135377919Y-87686594D01*
X135252732Y-87642788D01*
X135252720Y-87642786D01*
X135223007Y-87640000D01*
X135150000Y-87640000D01*
X134850000Y-87640000D01*
X134849999Y-87639999D01*
X134777000Y-87640000D01*
X134747279Y-87642786D01*
X134622077Y-87686596D01*
X134515358Y-87765358D01*
X134436595Y-87872078D01*
X134413758Y-87937341D01*
X134373035Y-87994116D01*
X134308082Y-88019862D01*
X134239521Y-88006405D01*
X134209036Y-87984065D01*
X133706922Y-87481951D01*
X133701278Y-87475465D01*
X133693956Y-87465770D01*
X133658624Y-87433560D01*
X133656573Y-87431602D01*
X133642797Y-87417826D01*
X133640586Y-87416311D01*
X133633853Y-87410978D01*
X133610933Y-87390084D01*
X133604470Y-87387580D01*
X133579192Y-87374256D01*
X133573481Y-87370344D01*
X133573478Y-87370343D01*
X133573479Y-87370343D01*
X133543302Y-87363244D01*
X133535094Y-87360703D01*
X133506173Y-87349500D01*
X133499249Y-87349500D01*
X133470858Y-87346206D01*
X133464119Y-87344621D01*
X133433409Y-87348905D01*
X133424834Y-87349500D01*
X132789967Y-87349500D01*
X132722928Y-87329815D01*
X132702286Y-87313181D01*
X132694553Y-87305448D01*
X132628230Y-87261132D01*
X132628229Y-87261131D01*
X132569752Y-87249500D01*
X132569748Y-87249500D01*
X132105252Y-87249500D01*
X132105247Y-87249500D01*
X132064622Y-87257581D01*
X131995030Y-87251354D01*
X131952750Y-87223645D01*
X131944553Y-87215448D01*
X131878230Y-87171132D01*
X131878229Y-87171131D01*
X131819752Y-87159500D01*
X131819748Y-87159500D01*
X130980252Y-87159500D01*
X130980247Y-87159500D01*
X130921770Y-87171131D01*
X130921767Y-87171133D01*
X130913388Y-87176732D01*
X130846710Y-87197608D01*
X130779330Y-87179122D01*
X130732642Y-87127142D01*
X130720500Y-87073628D01*
X130720500Y-86679078D01*
X130740185Y-86612039D01*
X130792989Y-86566284D01*
X130862147Y-86556340D01*
X130918134Y-86579308D01*
X131032080Y-86663405D01*
X131157267Y-86707211D01*
X131157279Y-86707213D01*
X131186977Y-86709998D01*
X131187006Y-86709999D01*
X131230000Y-86709999D01*
X131230000Y-86250000D01*
X131530000Y-86250000D01*
X131530000Y-86709999D01*
X131573000Y-86709999D01*
X131602720Y-86707213D01*
X131727922Y-86663403D01*
X131834641Y-86584641D01*
X131913405Y-86477919D01*
X131957211Y-86352732D01*
X131957213Y-86352720D01*
X131960000Y-86323007D01*
X131960000Y-86250000D01*
X131530000Y-86250000D01*
X131230000Y-86250000D01*
X131230000Y-86200000D01*
X133550001Y-86200000D01*
X133550001Y-86844785D01*
X133550002Y-86844808D01*
X133552908Y-86869869D01*
X133552909Y-86869873D01*
X133598211Y-86972474D01*
X133598214Y-86972479D01*
X133677520Y-87051785D01*
X133677525Y-87051788D01*
X133780123Y-87097089D01*
X133805206Y-87099999D01*
X134449999Y-87099999D01*
X134450000Y-87099998D01*
X134450000Y-86200000D01*
X133550001Y-86200000D01*
X131230000Y-86200000D01*
X131230000Y-86074000D01*
X131249685Y-86006961D01*
X131302489Y-85961206D01*
X131354000Y-85950000D01*
X131959999Y-85950000D01*
X131959999Y-85876999D01*
X131957213Y-85847279D01*
X131913403Y-85722077D01*
X131834641Y-85615358D01*
X131778968Y-85574270D01*
X131736718Y-85518622D01*
X131731259Y-85448966D01*
X131764327Y-85387417D01*
X131825421Y-85353516D01*
X131852602Y-85350500D01*
X133426000Y-85350500D01*
X133493039Y-85370185D01*
G37*
%TD.AperFunction*%
%TD*%
M02*
