%TF.GenerationSoftware,KiCad,Pcbnew,7.0.8*%
%TF.CreationDate,2024-04-10T13:39:31+02:00*%
%TF.ProjectId,Expansion_Card_Retrofit,45787061-6e73-4696-9f6e-5f436172645f,X1*%
%TF.SameCoordinates,Original*%
%TF.FileFunction,Copper,L2,Inr*%
%TF.FilePolarity,Positive*%
%FSLAX46Y46*%
G04 Gerber Fmt 4.6, Leading zero omitted, Abs format (unit mm)*
G04 Created by KiCad (PCBNEW 7.0.8) date 2024-04-10 13:39:31*
%MOMM*%
%LPD*%
G01*
G04 APERTURE LIST*
%TA.AperFunction,ViaPad*%
%ADD10C,0.300000*%
%TD*%
%TA.AperFunction,ViaPad*%
%ADD11C,0.400000*%
%TD*%
G04 APERTURE END LIST*
D10*
%TO.N,GND*%
X144700000Y-92200000D03*
X135800000Y-103400000D03*
X135200000Y-102800000D03*
X144200000Y-101400000D03*
X145500000Y-89900000D03*
X145500000Y-90900000D03*
X138500000Y-100700000D03*
X146900000Y-102100000D03*
X146900000Y-106000000D03*
X134300000Y-92200000D03*
X133200000Y-98100000D03*
X133700000Y-88700000D03*
X145200000Y-101800000D03*
X148800000Y-89300000D03*
X144300000Y-99000000D03*
X133200000Y-96900000D03*
X148900000Y-93500000D03*
X143000000Y-95800000D03*
X133100000Y-88400000D03*
X139000000Y-89200000D03*
X132400000Y-92200000D03*
X149500000Y-100000000D03*
X138400000Y-88000000D03*
X138900000Y-93500000D03*
X133200000Y-95700000D03*
X136300000Y-98800000D03*
X143000000Y-97300000D03*
X142000000Y-103800000D03*
X143000000Y-99000000D03*
X135100000Y-98800000D03*
X149700000Y-95400000D03*
X141300000Y-93400000D03*
X150500000Y-94500000D03*
X149900000Y-98400000D03*
X141000000Y-96200000D03*
X145300000Y-94600000D03*
X132700000Y-91300000D03*
X136500000Y-90100000D03*
X141100000Y-99800000D03*
X142000000Y-100300000D03*
X131800000Y-90300000D03*
X142100000Y-93400000D03*
X146900000Y-104000000D03*
X142000000Y-106000000D03*
X145700000Y-99000000D03*
X144500000Y-106000000D03*
X141000000Y-97000000D03*
X135200000Y-90100000D03*
X139400000Y-103600000D03*
X142200000Y-90200000D03*
X137700000Y-99200000D03*
X150200000Y-89300000D03*
X139400000Y-106000000D03*
X135600000Y-92200000D03*
X144500000Y-103700000D03*
X146900000Y-94600000D03*
X134000000Y-98800000D03*
X147300000Y-98700000D03*
X138500000Y-100000000D03*
X137900000Y-88500000D03*
X143000000Y-94400000D03*
X138900000Y-92200000D03*
D11*
X137900000Y-96900000D03*
D10*
X141300000Y-91200000D03*
D11*
%TO.N,+3V3*%
X145500000Y-101120000D03*
X132874500Y-99300000D03*
X145200000Y-91700000D03*
X132050500Y-106575500D03*
X149700000Y-97700000D03*
X130900000Y-96100000D03*
X133100000Y-92300000D03*
X141000000Y-94100000D03*
X132900000Y-89674500D03*
X136300000Y-92300000D03*
X149700000Y-93800000D03*
X136300000Y-100825500D03*
X139100000Y-105000000D03*
X140552455Y-101631409D03*
X141000000Y-97700000D03*
%TO.N,VBUS*%
X137800000Y-89180000D03*
X136700000Y-104600000D03*
D10*
%TO.N,/Development Board Section/GPIO_ADC3*%
X139475000Y-100900000D03*
X132914820Y-94700000D03*
%TO.N,LED_EN*%
X151800000Y-110900000D03*
X135000000Y-94700000D03*
%TO.N,GPIO2*%
X133900000Y-101400000D03*
X135200000Y-104700000D03*
%TO.N,GPIO3*%
X134800000Y-101800000D03*
%TO.N,GPIO4*%
X134700000Y-101100000D03*
%TO.N,GPIO5*%
X135400000Y-101100000D03*
%TO.N,SWCLK*%
X135200000Y-105400000D03*
X141000000Y-95100000D03*
X137700000Y-95700000D03*
%TO.N,SWDIO*%
X134600000Y-105900000D03*
X137300000Y-94600000D03*
%TO.N,/Development Board Section/RUN*%
X138000000Y-94700000D03*
X132300000Y-104400000D03*
%TO.N,GPIO_ADC0*%
X134304000Y-94700000D03*
X144000000Y-102500000D03*
%TO.N,GPIO_ADC1*%
X133600000Y-94700000D03*
X143400000Y-102200000D03*
%TD*%
%TA.AperFunction,Conductor*%
%TO.N,GND*%
G36*
X135193039Y-85370185D02*
G01*
X135238794Y-85422989D01*
X135250000Y-85474500D01*
X135250000Y-87250000D01*
X135525948Y-87250000D01*
X135579748Y-87262279D01*
X135700412Y-87320389D01*
X135700416Y-87320390D01*
X135700419Y-87320391D01*
X135832333Y-87350499D01*
X135832338Y-87350499D01*
X135832340Y-87350500D01*
X135832342Y-87350500D01*
X137017658Y-87350500D01*
X137017660Y-87350500D01*
X137017662Y-87350499D01*
X137017666Y-87350499D01*
X137149580Y-87320391D01*
X137149580Y-87320390D01*
X137149588Y-87320389D01*
X137270251Y-87262279D01*
X137324052Y-87250000D01*
X137500000Y-87250000D01*
X137500000Y-87020227D01*
X137512279Y-86966428D01*
X137520389Y-86949588D01*
X137550500Y-86817660D01*
X137550500Y-86750000D01*
X137550500Y-86702405D01*
X137550500Y-86514500D01*
X137570185Y-86447461D01*
X137622989Y-86401706D01*
X137674500Y-86390500D01*
X142876000Y-86390500D01*
X142943039Y-86410185D01*
X142988794Y-86462989D01*
X143000000Y-86514500D01*
X143000000Y-87250000D01*
X143275948Y-87250000D01*
X143329748Y-87262279D01*
X143450412Y-87320389D01*
X143450416Y-87320390D01*
X143450419Y-87320391D01*
X143582333Y-87350499D01*
X143582338Y-87350499D01*
X143582340Y-87350500D01*
X143582342Y-87350500D01*
X144767658Y-87350500D01*
X144767660Y-87350500D01*
X144767662Y-87350499D01*
X144767666Y-87350499D01*
X144899580Y-87320391D01*
X144899580Y-87320390D01*
X144899588Y-87320389D01*
X145020251Y-87262279D01*
X145074052Y-87250000D01*
X145250000Y-87250000D01*
X145250000Y-87020227D01*
X145262279Y-86966428D01*
X145270389Y-86949588D01*
X145300500Y-86817660D01*
X145300500Y-86750000D01*
X145300500Y-86702405D01*
X145300500Y-85474500D01*
X145320185Y-85407461D01*
X145372989Y-85361706D01*
X145424500Y-85350500D01*
X151875500Y-85350500D01*
X151942539Y-85370185D01*
X151988294Y-85422989D01*
X151999500Y-85474500D01*
X151999500Y-88317656D01*
X151999610Y-88318632D01*
X152000000Y-88325582D01*
X152000000Y-88750000D01*
X152225948Y-88750000D01*
X152279748Y-88762279D01*
X152400412Y-88820389D01*
X152400416Y-88820390D01*
X152400419Y-88820391D01*
X152532333Y-88850499D01*
X152532338Y-88850499D01*
X152532340Y-88850500D01*
X152543827Y-88850500D01*
X152875500Y-88850500D01*
X152942539Y-88870185D01*
X152988294Y-88922989D01*
X152999500Y-88974500D01*
X152999500Y-103801632D01*
X152979815Y-103868671D01*
X152927011Y-103914426D01*
X152857853Y-103924370D01*
X152794297Y-103895345D01*
X152769910Y-103866646D01*
X152751814Y-103837257D01*
X152692951Y-103741657D01*
X152540620Y-103568575D01*
X152540619Y-103568574D01*
X152540615Y-103568570D01*
X152361234Y-103423730D01*
X152361233Y-103423729D01*
X152159938Y-103311279D01*
X151942541Y-103234468D01*
X151942540Y-103234467D01*
X151942538Y-103234467D01*
X151942534Y-103234466D01*
X151942533Y-103234466D01*
X151715293Y-103195500D01*
X151715285Y-103195500D01*
X151542465Y-103195500D01*
X151542460Y-103195500D01*
X151370265Y-103210155D01*
X151147131Y-103268254D01*
X150937034Y-103363223D01*
X150937032Y-103363224D01*
X150745999Y-103492342D01*
X150579540Y-103651878D01*
X150442434Y-103837257D01*
X150338630Y-104043138D01*
X150271113Y-104263606D01*
X150241828Y-104492306D01*
X150251613Y-104722662D01*
X150251614Y-104722670D01*
X150300190Y-104948062D01*
X150300190Y-104948063D01*
X150371411Y-105125304D01*
X150386159Y-105162006D01*
X150430089Y-105233353D01*
X150507048Y-105358342D01*
X150659380Y-105531425D01*
X150659384Y-105531429D01*
X150838765Y-105676269D01*
X150838766Y-105676270D01*
X150838769Y-105676271D01*
X150838772Y-105676274D01*
X151040063Y-105788721D01*
X151257462Y-105865533D01*
X151384272Y-105887277D01*
X151484706Y-105904499D01*
X151484715Y-105904500D01*
X151657540Y-105904500D01*
X151829734Y-105889844D01*
X151829737Y-105889843D01*
X151829739Y-105889843D01*
X152052869Y-105831745D01*
X152260237Y-105738009D01*
X152262965Y-105736776D01*
X152262967Y-105736775D01*
X152262967Y-105736774D01*
X152262971Y-105736773D01*
X152454000Y-105607659D01*
X152620462Y-105448119D01*
X152757566Y-105262742D01*
X152764777Y-105248437D01*
X152812535Y-105197440D01*
X152880284Y-105180356D01*
X152946514Y-105202613D01*
X152990198Y-105257142D01*
X152999500Y-105304264D01*
X152999500Y-114625500D01*
X152979815Y-114692539D01*
X152927011Y-114738294D01*
X152875500Y-114749500D01*
X150424500Y-114749500D01*
X150357461Y-114729815D01*
X150311706Y-114677011D01*
X150300500Y-114625500D01*
X150300500Y-110900002D01*
X151445131Y-110900002D01*
X151462498Y-111009658D01*
X151512904Y-111108585D01*
X151512909Y-111108592D01*
X151591407Y-111187090D01*
X151591410Y-111187092D01*
X151591413Y-111187095D01*
X151690339Y-111237500D01*
X151690341Y-111237501D01*
X151799998Y-111254869D01*
X151800000Y-111254869D01*
X151800002Y-111254869D01*
X151909658Y-111237501D01*
X151909659Y-111237500D01*
X151909661Y-111237500D01*
X152008587Y-111187095D01*
X152087095Y-111108587D01*
X152137500Y-111009661D01*
X152137500Y-111009659D01*
X152137501Y-111009658D01*
X152154869Y-110900002D01*
X152154869Y-110899997D01*
X152137501Y-110790341D01*
X152137500Y-110790339D01*
X152087095Y-110691413D01*
X152087092Y-110691410D01*
X152087090Y-110691407D01*
X152008592Y-110612909D01*
X152008588Y-110612906D01*
X152008587Y-110612905D01*
X152004743Y-110610946D01*
X151909658Y-110562498D01*
X151800002Y-110545131D01*
X151799998Y-110545131D01*
X151690341Y-110562498D01*
X151591414Y-110612904D01*
X151591407Y-110612909D01*
X151512909Y-110691407D01*
X151512904Y-110691414D01*
X151462498Y-110790341D01*
X151445131Y-110899997D01*
X151445131Y-110900002D01*
X150300500Y-110900002D01*
X150300500Y-107019583D01*
X150300481Y-107019183D01*
X150300485Y-106985057D01*
X150300484Y-106985052D01*
X150281889Y-106903550D01*
X150275397Y-106875095D01*
X150226467Y-106773473D01*
X150168523Y-106700804D01*
X150156154Y-106685291D01*
X150156149Y-106685286D01*
X150067969Y-106614959D01*
X149966354Y-106566021D01*
X149966350Y-106566020D01*
X149953962Y-106563192D01*
X149856394Y-106540921D01*
X149856391Y-106540921D01*
X136651383Y-106540921D01*
X136651311Y-106540900D01*
X136600000Y-106540900D01*
X136543603Y-106540900D01*
X136474672Y-106556634D01*
X136433641Y-106566000D01*
X136433638Y-106566001D01*
X136332019Y-106614941D01*
X136243835Y-106685271D01*
X136243834Y-106685273D01*
X136173514Y-106773462D01*
X136124583Y-106875087D01*
X136124583Y-106875088D01*
X136099494Y-106985052D01*
X136099493Y-106985056D01*
X136099500Y-107041389D01*
X136099500Y-114625500D01*
X136079815Y-114692539D01*
X136027011Y-114738294D01*
X135975500Y-114749500D01*
X127724500Y-114749500D01*
X127657461Y-114729815D01*
X127611706Y-114677011D01*
X127600500Y-114625500D01*
X127600500Y-113285542D01*
X129695500Y-113285542D01*
X129736441Y-113451650D01*
X129736442Y-113451653D01*
X129736443Y-113451654D01*
X129815950Y-113603141D01*
X129929399Y-113731199D01*
X130070198Y-113828385D01*
X130157472Y-113861483D01*
X130230160Y-113889051D01*
X130230162Y-113889051D01*
X130230164Y-113889052D01*
X130272572Y-113894201D01*
X130357387Y-113904500D01*
X130357389Y-113904500D01*
X130442613Y-113904500D01*
X130506223Y-113896776D01*
X130569836Y-113889052D01*
X130729802Y-113828385D01*
X130870601Y-113731199D01*
X130984050Y-113603141D01*
X131063557Y-113451654D01*
X131104500Y-113285542D01*
X132695500Y-113285542D01*
X132736441Y-113451650D01*
X132736442Y-113451653D01*
X132736443Y-113451654D01*
X132815950Y-113603141D01*
X132929399Y-113731199D01*
X133070198Y-113828385D01*
X133157472Y-113861483D01*
X133230160Y-113889051D01*
X133230162Y-113889051D01*
X133230164Y-113889052D01*
X133272572Y-113894201D01*
X133357387Y-113904500D01*
X133357389Y-113904500D01*
X133442613Y-113904500D01*
X133506223Y-113896776D01*
X133569836Y-113889052D01*
X133729802Y-113828385D01*
X133870601Y-113731199D01*
X133984050Y-113603141D01*
X134063557Y-113451654D01*
X134104500Y-113285542D01*
X134104500Y-113114458D01*
X134063557Y-112948346D01*
X133984050Y-112796859D01*
X133870601Y-112668801D01*
X133729802Y-112571615D01*
X133569839Y-112510948D01*
X133569834Y-112510947D01*
X133442613Y-112495500D01*
X133442611Y-112495500D01*
X133357389Y-112495500D01*
X133357387Y-112495500D01*
X133230165Y-112510947D01*
X133230160Y-112510948D01*
X133070197Y-112571615D01*
X133070196Y-112571616D01*
X132929399Y-112668800D01*
X132815950Y-112796859D01*
X132736441Y-112948349D01*
X132695500Y-113114457D01*
X132695500Y-113285542D01*
X131104500Y-113285542D01*
X131104500Y-113114458D01*
X131063557Y-112948346D01*
X130984050Y-112796859D01*
X130870601Y-112668801D01*
X130729802Y-112571615D01*
X130569839Y-112510948D01*
X130569834Y-112510947D01*
X130442613Y-112495500D01*
X130442611Y-112495500D01*
X130357389Y-112495500D01*
X130357387Y-112495500D01*
X130230165Y-112510947D01*
X130230160Y-112510948D01*
X130070197Y-112571615D01*
X130070196Y-112571616D01*
X129929399Y-112668800D01*
X129815950Y-112796859D01*
X129736441Y-112948349D01*
X129695500Y-113114457D01*
X129695500Y-113285542D01*
X127600500Y-113285542D01*
X127600500Y-106575503D01*
X131645008Y-106575503D01*
X131664852Y-106700800D01*
X131664852Y-106700801D01*
X131664854Y-106700804D01*
X131722450Y-106813842D01*
X131722452Y-106813844D01*
X131722454Y-106813847D01*
X131812152Y-106903545D01*
X131812154Y-106903546D01*
X131812158Y-106903550D01*
X131925196Y-106961146D01*
X131925197Y-106961146D01*
X131925199Y-106961147D01*
X132050497Y-106980992D01*
X132050500Y-106980992D01*
X132050503Y-106980992D01*
X132175800Y-106961147D01*
X132175801Y-106961147D01*
X132175802Y-106961146D01*
X132175804Y-106961146D01*
X132288842Y-106903550D01*
X132378550Y-106813842D01*
X132436146Y-106700804D01*
X132436146Y-106700802D01*
X132436147Y-106700801D01*
X132436147Y-106700800D01*
X132455992Y-106575503D01*
X132455992Y-106575496D01*
X132436147Y-106450199D01*
X132436147Y-106450198D01*
X132436146Y-106450196D01*
X132378550Y-106337158D01*
X132378546Y-106337154D01*
X132378545Y-106337152D01*
X132288847Y-106247454D01*
X132288844Y-106247452D01*
X132288842Y-106247450D01*
X132175804Y-106189854D01*
X132175803Y-106189853D01*
X132175800Y-106189852D01*
X132050503Y-106170008D01*
X132050497Y-106170008D01*
X131925199Y-106189852D01*
X131925198Y-106189852D01*
X131849837Y-106228251D01*
X131812158Y-106247450D01*
X131812157Y-106247451D01*
X131812152Y-106247454D01*
X131722454Y-106337152D01*
X131722451Y-106337157D01*
X131664852Y-106450198D01*
X131664852Y-106450199D01*
X131645008Y-106575496D01*
X131645008Y-106575503D01*
X127600500Y-106575503D01*
X127600500Y-105298367D01*
X127620185Y-105231328D01*
X127672989Y-105185573D01*
X127742147Y-105175629D01*
X127805703Y-105204654D01*
X127830087Y-105233349D01*
X127870120Y-105298367D01*
X127907048Y-105358342D01*
X128059380Y-105531425D01*
X128059384Y-105531429D01*
X128238765Y-105676269D01*
X128238766Y-105676270D01*
X128238769Y-105676271D01*
X128238772Y-105676274D01*
X128440063Y-105788721D01*
X128657462Y-105865533D01*
X128784272Y-105887277D01*
X128884706Y-105904499D01*
X128884715Y-105904500D01*
X129057540Y-105904500D01*
X129110387Y-105900002D01*
X134245131Y-105900002D01*
X134262498Y-106009658D01*
X134312904Y-106108585D01*
X134312909Y-106108592D01*
X134391407Y-106187090D01*
X134391410Y-106187092D01*
X134391413Y-106187095D01*
X134490339Y-106237500D01*
X134490341Y-106237501D01*
X134599998Y-106254869D01*
X134600000Y-106254869D01*
X134600002Y-106254869D01*
X134709658Y-106237501D01*
X134709659Y-106237500D01*
X134709661Y-106237500D01*
X134808587Y-106187095D01*
X134887095Y-106108587D01*
X134937500Y-106009661D01*
X134937500Y-106009659D01*
X134937501Y-106009658D01*
X134954869Y-105900002D01*
X134954869Y-105900001D01*
X134954869Y-105900000D01*
X134951682Y-105879880D01*
X134960636Y-105810589D01*
X135005631Y-105757136D01*
X135072382Y-105736495D01*
X135093551Y-105738008D01*
X135155183Y-105747770D01*
X135199999Y-105754869D01*
X135200000Y-105754869D01*
X135200002Y-105754869D01*
X135309658Y-105737501D01*
X135309659Y-105737500D01*
X135309661Y-105737500D01*
X135408587Y-105687095D01*
X135487095Y-105608587D01*
X135537500Y-105509661D01*
X135537500Y-105509659D01*
X135537501Y-105509658D01*
X135554869Y-105400002D01*
X135554869Y-105399997D01*
X135537501Y-105290341D01*
X135508464Y-105233353D01*
X135487095Y-105191413D01*
X135487092Y-105191410D01*
X135487090Y-105191407D01*
X135433364Y-105137681D01*
X135399879Y-105076358D01*
X135404863Y-105006666D01*
X135433364Y-104962319D01*
X135487090Y-104908592D01*
X135487095Y-104908587D01*
X135537500Y-104809661D01*
X135537500Y-104809659D01*
X135537501Y-104809658D01*
X135554869Y-104700002D01*
X135554869Y-104699997D01*
X135539031Y-104600003D01*
X136294508Y-104600003D01*
X136314352Y-104725300D01*
X136314352Y-104725301D01*
X136329418Y-104754869D01*
X136371950Y-104838342D01*
X136371952Y-104838344D01*
X136371954Y-104838347D01*
X136461652Y-104928045D01*
X136461654Y-104928046D01*
X136461658Y-104928050D01*
X136574696Y-104985646D01*
X136574697Y-104985646D01*
X136574699Y-104985647D01*
X136699997Y-105005492D01*
X136700000Y-105005492D01*
X136700003Y-105005492D01*
X136734659Y-105000003D01*
X138694508Y-105000003D01*
X138714352Y-105125300D01*
X138714352Y-105125301D01*
X138714354Y-105125304D01*
X138771950Y-105238342D01*
X138771952Y-105238344D01*
X138771954Y-105238347D01*
X138861652Y-105328045D01*
X138861654Y-105328046D01*
X138861658Y-105328050D01*
X138974696Y-105385646D01*
X138974697Y-105385646D01*
X138974699Y-105385647D01*
X139099997Y-105405492D01*
X139100000Y-105405492D01*
X139100003Y-105405492D01*
X139225300Y-105385647D01*
X139225301Y-105385647D01*
X139225302Y-105385646D01*
X139225304Y-105385646D01*
X139338342Y-105328050D01*
X139428050Y-105238342D01*
X139485646Y-105125304D01*
X139485646Y-105125302D01*
X139485647Y-105125301D01*
X139485647Y-105125300D01*
X139505492Y-105000003D01*
X139505492Y-104999996D01*
X139485647Y-104874699D01*
X139485647Y-104874698D01*
X139467125Y-104838347D01*
X139428050Y-104761658D01*
X139428046Y-104761654D01*
X139428045Y-104761652D01*
X139338347Y-104671954D01*
X139338344Y-104671952D01*
X139338342Y-104671950D01*
X139225304Y-104614354D01*
X139225303Y-104614353D01*
X139225300Y-104614352D01*
X139100003Y-104594508D01*
X139099997Y-104594508D01*
X138974699Y-104614352D01*
X138974698Y-104614352D01*
X138899337Y-104652751D01*
X138861658Y-104671950D01*
X138861657Y-104671951D01*
X138861652Y-104671954D01*
X138771954Y-104761652D01*
X138771951Y-104761657D01*
X138714352Y-104874698D01*
X138714352Y-104874699D01*
X138694508Y-104999996D01*
X138694508Y-105000003D01*
X136734659Y-105000003D01*
X136825300Y-104985647D01*
X136825301Y-104985647D01*
X136825302Y-104985646D01*
X136825304Y-104985646D01*
X136938342Y-104928050D01*
X137028050Y-104838342D01*
X137085646Y-104725304D01*
X137085646Y-104725302D01*
X137085647Y-104725301D01*
X137085647Y-104725300D01*
X137105492Y-104600003D01*
X137105492Y-104599996D01*
X137085647Y-104474699D01*
X137085647Y-104474698D01*
X137085646Y-104474696D01*
X137028050Y-104361658D01*
X137028046Y-104361654D01*
X137028045Y-104361652D01*
X136938347Y-104271954D01*
X136938344Y-104271952D01*
X136938342Y-104271950D01*
X136825304Y-104214354D01*
X136825303Y-104214353D01*
X136825300Y-104214352D01*
X136700003Y-104194508D01*
X136699997Y-104194508D01*
X136574699Y-104214352D01*
X136574698Y-104214352D01*
X136499337Y-104252751D01*
X136461658Y-104271950D01*
X136461657Y-104271951D01*
X136461652Y-104271954D01*
X136371954Y-104361652D01*
X136371951Y-104361657D01*
X136314352Y-104474698D01*
X136314352Y-104474699D01*
X136294508Y-104599996D01*
X136294508Y-104600003D01*
X135539031Y-104600003D01*
X135537501Y-104590341D01*
X135537500Y-104590339D01*
X135487095Y-104491413D01*
X135487092Y-104491410D01*
X135487090Y-104491407D01*
X135408592Y-104412909D01*
X135408588Y-104412906D01*
X135408587Y-104412905D01*
X135383263Y-104400002D01*
X135309658Y-104362498D01*
X135200002Y-104345131D01*
X135199998Y-104345131D01*
X135090341Y-104362498D01*
X134991414Y-104412904D01*
X134991407Y-104412909D01*
X134912909Y-104491407D01*
X134912904Y-104491414D01*
X134862498Y-104590341D01*
X134845131Y-104699997D01*
X134845131Y-104700002D01*
X134862498Y-104809658D01*
X134912904Y-104908585D01*
X134912909Y-104908592D01*
X134966636Y-104962319D01*
X135000121Y-105023642D01*
X134995137Y-105093334D01*
X134966636Y-105137681D01*
X134912909Y-105191407D01*
X134912904Y-105191414D01*
X134862498Y-105290341D01*
X134845131Y-105399997D01*
X134845131Y-105400003D01*
X134848317Y-105420120D01*
X134839362Y-105489413D01*
X134794366Y-105542865D01*
X134727614Y-105563504D01*
X134706446Y-105561990D01*
X134600002Y-105545131D01*
X134599998Y-105545131D01*
X134490341Y-105562498D01*
X134391414Y-105612904D01*
X134391407Y-105612909D01*
X134312909Y-105691407D01*
X134312904Y-105691414D01*
X134262498Y-105790341D01*
X134245131Y-105899997D01*
X134245131Y-105900002D01*
X129110387Y-105900002D01*
X129229734Y-105889844D01*
X129229737Y-105889843D01*
X129229739Y-105889843D01*
X129452869Y-105831745D01*
X129660237Y-105738009D01*
X129662965Y-105736776D01*
X129662967Y-105736775D01*
X129662967Y-105736774D01*
X129662971Y-105736773D01*
X129854000Y-105607659D01*
X130020462Y-105448119D01*
X130157566Y-105262742D01*
X130261370Y-105056860D01*
X130328886Y-104836397D01*
X130358172Y-104607694D01*
X130349349Y-104400002D01*
X131945131Y-104400002D01*
X131962498Y-104509658D01*
X132012904Y-104608585D01*
X132012909Y-104608592D01*
X132091407Y-104687090D01*
X132091410Y-104687092D01*
X132091413Y-104687095D01*
X132166395Y-104725300D01*
X132190341Y-104737501D01*
X132299998Y-104754869D01*
X132300000Y-104754869D01*
X132300002Y-104754869D01*
X132409658Y-104737501D01*
X132409659Y-104737500D01*
X132409661Y-104737500D01*
X132508587Y-104687095D01*
X132587095Y-104608587D01*
X132637500Y-104509661D01*
X132637500Y-104509659D01*
X132637501Y-104509658D01*
X132654869Y-104400002D01*
X132654869Y-104399997D01*
X132637501Y-104290341D01*
X132598783Y-104214352D01*
X132587095Y-104191413D01*
X132587092Y-104191410D01*
X132587090Y-104191407D01*
X132508592Y-104112909D01*
X132508588Y-104112906D01*
X132508587Y-104112905D01*
X132504743Y-104110946D01*
X132409658Y-104062498D01*
X132300002Y-104045131D01*
X132299998Y-104045131D01*
X132190341Y-104062498D01*
X132091414Y-104112904D01*
X132091407Y-104112909D01*
X132012909Y-104191407D01*
X132012904Y-104191414D01*
X131962498Y-104290341D01*
X131945131Y-104399997D01*
X131945131Y-104400002D01*
X130349349Y-104400002D01*
X130348386Y-104377332D01*
X130299810Y-104151938D01*
X130213841Y-103937994D01*
X130092951Y-103741657D01*
X129940620Y-103568575D01*
X129940619Y-103568574D01*
X129940615Y-103568570D01*
X129761234Y-103423730D01*
X129761233Y-103423729D01*
X129559938Y-103311279D01*
X129342541Y-103234468D01*
X129342540Y-103234467D01*
X129342538Y-103234467D01*
X129342534Y-103234466D01*
X129342533Y-103234466D01*
X129115293Y-103195500D01*
X129115285Y-103195500D01*
X128942465Y-103195500D01*
X128942460Y-103195500D01*
X128770265Y-103210155D01*
X128547131Y-103268254D01*
X128337034Y-103363223D01*
X128337032Y-103363224D01*
X128145999Y-103492342D01*
X127979540Y-103651878D01*
X127842434Y-103837257D01*
X127835222Y-103851562D01*
X127787463Y-103902560D01*
X127719714Y-103919643D01*
X127653484Y-103897385D01*
X127609801Y-103842854D01*
X127600500Y-103795735D01*
X127600500Y-102200002D01*
X143045131Y-102200002D01*
X143062498Y-102309658D01*
X143112904Y-102408585D01*
X143112909Y-102408592D01*
X143191407Y-102487090D01*
X143191410Y-102487092D01*
X143191413Y-102487095D01*
X143216741Y-102500000D01*
X143290341Y-102537501D01*
X143399998Y-102554869D01*
X143400000Y-102554869D01*
X143400002Y-102554869D01*
X143519300Y-102535974D01*
X143519539Y-102537484D01*
X143578596Y-102535792D01*
X143638433Y-102571866D01*
X143656027Y-102602006D01*
X143658070Y-102600966D01*
X143712904Y-102708585D01*
X143712909Y-102708592D01*
X143791407Y-102787090D01*
X143791410Y-102787092D01*
X143791413Y-102787095D01*
X143890339Y-102837500D01*
X143890341Y-102837501D01*
X143999998Y-102854869D01*
X144000000Y-102854869D01*
X144000002Y-102854869D01*
X144109658Y-102837501D01*
X144109659Y-102837500D01*
X144109661Y-102837500D01*
X144208587Y-102787095D01*
X144287095Y-102708587D01*
X144337500Y-102609661D01*
X144337500Y-102609659D01*
X144337501Y-102609658D01*
X144354869Y-102500002D01*
X144354869Y-102499997D01*
X144337501Y-102390341D01*
X144337500Y-102390339D01*
X144287095Y-102291413D01*
X144287092Y-102291410D01*
X144287090Y-102291407D01*
X144208592Y-102212909D01*
X144208588Y-102212906D01*
X144208587Y-102212905D01*
X144183263Y-102200002D01*
X144109658Y-102162498D01*
X144000002Y-102145131D01*
X143999998Y-102145131D01*
X143880700Y-102164026D01*
X143880461Y-102162518D01*
X143821385Y-102164203D01*
X143761554Y-102128119D01*
X143743977Y-102097990D01*
X143741930Y-102099034D01*
X143735847Y-102087095D01*
X143687095Y-101991413D01*
X143687092Y-101991410D01*
X143687090Y-101991407D01*
X143608592Y-101912909D01*
X143608588Y-101912906D01*
X143608587Y-101912905D01*
X143602214Y-101909658D01*
X143509658Y-101862498D01*
X143400002Y-101845131D01*
X143399998Y-101845131D01*
X143290341Y-101862498D01*
X143191414Y-101912904D01*
X143191407Y-101912909D01*
X143112909Y-101991407D01*
X143112904Y-101991414D01*
X143062498Y-102090341D01*
X143045131Y-102199997D01*
X143045131Y-102200002D01*
X127600500Y-102200002D01*
X127600500Y-101400002D01*
X133545131Y-101400002D01*
X133562498Y-101509658D01*
X133612904Y-101608585D01*
X133612909Y-101608592D01*
X133691407Y-101687090D01*
X133691410Y-101687092D01*
X133691413Y-101687095D01*
X133790339Y-101737500D01*
X133790341Y-101737501D01*
X133899998Y-101754869D01*
X133900000Y-101754869D01*
X133900002Y-101754869D01*
X134009658Y-101737501D01*
X134009659Y-101737500D01*
X134009661Y-101737500D01*
X134108587Y-101687095D01*
X134187095Y-101608587D01*
X134237500Y-101509661D01*
X134237500Y-101509659D01*
X134237501Y-101509658D01*
X134250905Y-101425026D01*
X134280834Y-101361891D01*
X134340145Y-101324959D01*
X134410007Y-101325957D01*
X134461059Y-101356742D01*
X134491407Y-101387090D01*
X134491410Y-101387092D01*
X134491413Y-101387095D01*
X134491415Y-101387096D01*
X134499305Y-101392828D01*
X134498099Y-101394487D01*
X134539731Y-101433810D01*
X134556524Y-101501631D01*
X134533984Y-101567765D01*
X134520322Y-101583994D01*
X134512910Y-101591405D01*
X134512904Y-101591414D01*
X134462498Y-101690341D01*
X134445131Y-101799997D01*
X134445131Y-101800002D01*
X134462498Y-101909658D01*
X134512904Y-102008585D01*
X134512909Y-102008592D01*
X134591407Y-102087090D01*
X134591410Y-102087092D01*
X134591413Y-102087095D01*
X134671928Y-102128119D01*
X134690341Y-102137501D01*
X134799998Y-102154869D01*
X134800000Y-102154869D01*
X134800002Y-102154869D01*
X134909658Y-102137501D01*
X134909659Y-102137500D01*
X134909661Y-102137500D01*
X135008587Y-102087095D01*
X135087095Y-102008587D01*
X135137500Y-101909661D01*
X135137500Y-101909659D01*
X135137501Y-101909658D01*
X135154869Y-101800002D01*
X135154869Y-101799997D01*
X135137501Y-101690343D01*
X135137500Y-101690341D01*
X135137500Y-101690339D01*
X135107475Y-101631412D01*
X140146963Y-101631412D01*
X140166807Y-101756709D01*
X140166807Y-101756710D01*
X140166809Y-101756713D01*
X140224405Y-101869751D01*
X140224407Y-101869753D01*
X140224409Y-101869756D01*
X140314107Y-101959454D01*
X140314109Y-101959455D01*
X140314113Y-101959459D01*
X140427151Y-102017055D01*
X140427152Y-102017055D01*
X140427154Y-102017056D01*
X140552452Y-102036901D01*
X140552455Y-102036901D01*
X140552458Y-102036901D01*
X140677755Y-102017056D01*
X140677756Y-102017056D01*
X140677757Y-102017055D01*
X140677759Y-102017055D01*
X140790797Y-101959459D01*
X140880505Y-101869751D01*
X140938101Y-101756713D01*
X140938101Y-101756711D01*
X140938102Y-101756710D01*
X140938102Y-101756709D01*
X140957947Y-101631412D01*
X140957947Y-101631405D01*
X140938102Y-101506108D01*
X140938102Y-101506107D01*
X140935821Y-101501631D01*
X140880505Y-101393067D01*
X140880501Y-101393063D01*
X140880500Y-101393061D01*
X140790802Y-101303363D01*
X140790799Y-101303361D01*
X140790797Y-101303359D01*
X140677759Y-101245763D01*
X140677758Y-101245762D01*
X140677755Y-101245761D01*
X140552458Y-101225917D01*
X140552452Y-101225917D01*
X140427154Y-101245761D01*
X140427153Y-101245761D01*
X140351792Y-101284160D01*
X140314113Y-101303359D01*
X140314112Y-101303360D01*
X140314107Y-101303363D01*
X140224409Y-101393061D01*
X140224406Y-101393066D01*
X140224405Y-101393067D01*
X140212253Y-101416916D01*
X140166807Y-101506107D01*
X140166807Y-101506108D01*
X140146963Y-101631405D01*
X140146963Y-101631412D01*
X135107475Y-101631412D01*
X135087095Y-101591413D01*
X135087092Y-101591410D01*
X135083162Y-101583696D01*
X135070266Y-101515026D01*
X135096542Y-101450286D01*
X135153649Y-101410029D01*
X135223455Y-101407037D01*
X135249935Y-101416913D01*
X135290339Y-101437500D01*
X135290341Y-101437500D01*
X135290343Y-101437501D01*
X135399998Y-101454869D01*
X135400000Y-101454869D01*
X135400002Y-101454869D01*
X135509658Y-101437501D01*
X135509659Y-101437500D01*
X135509661Y-101437500D01*
X135608587Y-101387095D01*
X135687095Y-101308587D01*
X135737500Y-101209661D01*
X135751594Y-101120676D01*
X135781521Y-101057546D01*
X135840833Y-101020614D01*
X135910695Y-101021612D01*
X135964623Y-101057367D01*
X135965049Y-101056942D01*
X135967147Y-101059040D01*
X135968928Y-101060221D01*
X135971088Y-101062981D01*
X136061652Y-101153545D01*
X136061654Y-101153546D01*
X136061658Y-101153550D01*
X136174696Y-101211146D01*
X136174697Y-101211146D01*
X136174699Y-101211147D01*
X136299997Y-101230992D01*
X136300000Y-101230992D01*
X136300003Y-101230992D01*
X136425300Y-101211147D01*
X136425301Y-101211147D01*
X136425302Y-101211146D01*
X136425304Y-101211146D01*
X136538342Y-101153550D01*
X136628050Y-101063842D01*
X136685646Y-100950804D01*
X136685646Y-100950802D01*
X136685647Y-100950801D01*
X136685647Y-100950800D01*
X136693693Y-100900002D01*
X139120131Y-100900002D01*
X139137498Y-101009658D01*
X139187904Y-101108585D01*
X139187909Y-101108592D01*
X139266407Y-101187090D01*
X139266410Y-101187092D01*
X139266413Y-101187095D01*
X139342606Y-101225917D01*
X139365341Y-101237501D01*
X139474998Y-101254869D01*
X139475000Y-101254869D01*
X139475002Y-101254869D01*
X139584658Y-101237501D01*
X139584659Y-101237500D01*
X139584661Y-101237500D01*
X139683587Y-101187095D01*
X139750679Y-101120003D01*
X145094508Y-101120003D01*
X145114352Y-101245300D01*
X145114352Y-101245301D01*
X145132805Y-101281517D01*
X145171950Y-101358342D01*
X145171952Y-101358344D01*
X145171954Y-101358347D01*
X145261652Y-101448045D01*
X145261654Y-101448046D01*
X145261658Y-101448050D01*
X145374696Y-101505646D01*
X145374697Y-101505646D01*
X145374699Y-101505647D01*
X145499997Y-101525492D01*
X145500000Y-101525492D01*
X145500003Y-101525492D01*
X145625300Y-101505647D01*
X145625301Y-101505647D01*
X145625302Y-101505646D01*
X145625304Y-101505646D01*
X145738342Y-101448050D01*
X145828050Y-101358342D01*
X145885646Y-101245304D01*
X145885646Y-101245302D01*
X145885647Y-101245301D01*
X145885647Y-101245300D01*
X145905492Y-101120003D01*
X145905492Y-101119996D01*
X145885647Y-100994699D01*
X145885647Y-100994698D01*
X145883426Y-100990339D01*
X145828050Y-100881658D01*
X145828046Y-100881654D01*
X145828045Y-100881652D01*
X145738347Y-100791954D01*
X145738344Y-100791952D01*
X145738342Y-100791950D01*
X145625304Y-100734354D01*
X145625303Y-100734353D01*
X145625300Y-100734352D01*
X145500003Y-100714508D01*
X145499997Y-100714508D01*
X145374699Y-100734352D01*
X145374698Y-100734352D01*
X145299337Y-100772751D01*
X145261658Y-100791950D01*
X145261657Y-100791951D01*
X145261652Y-100791954D01*
X145171954Y-100881652D01*
X145171951Y-100881657D01*
X145171950Y-100881658D01*
X145168021Y-100889369D01*
X145114352Y-100994698D01*
X145114352Y-100994699D01*
X145094508Y-101119996D01*
X145094508Y-101120003D01*
X139750679Y-101120003D01*
X139762095Y-101108587D01*
X139812500Y-101009661D01*
X139812500Y-101009659D01*
X139812501Y-101009658D01*
X139829869Y-100900002D01*
X139829869Y-100899997D01*
X139812501Y-100790341D01*
X139798314Y-100762498D01*
X139762095Y-100691413D01*
X139762092Y-100691410D01*
X139762090Y-100691407D01*
X139683592Y-100612909D01*
X139683588Y-100612906D01*
X139683587Y-100612905D01*
X139679743Y-100610946D01*
X139584658Y-100562498D01*
X139475002Y-100545131D01*
X139474998Y-100545131D01*
X139365341Y-100562498D01*
X139266414Y-100612904D01*
X139266407Y-100612909D01*
X139187909Y-100691407D01*
X139187904Y-100691414D01*
X139137498Y-100790341D01*
X139120131Y-100899997D01*
X139120131Y-100900002D01*
X136693693Y-100900002D01*
X136705492Y-100825503D01*
X136705492Y-100825496D01*
X136685647Y-100700199D01*
X136685647Y-100700198D01*
X136681168Y-100691407D01*
X136628050Y-100587158D01*
X136628046Y-100587154D01*
X136628045Y-100587152D01*
X136538347Y-100497454D01*
X136538344Y-100497452D01*
X136538342Y-100497450D01*
X136425304Y-100439854D01*
X136425303Y-100439853D01*
X136425300Y-100439852D01*
X136300003Y-100420008D01*
X136299997Y-100420008D01*
X136174699Y-100439852D01*
X136174698Y-100439852D01*
X136099337Y-100478251D01*
X136061658Y-100497450D01*
X136061657Y-100497451D01*
X136061652Y-100497454D01*
X135971954Y-100587152D01*
X135971951Y-100587157D01*
X135914352Y-100700198D01*
X135895206Y-100821086D01*
X135865277Y-100884221D01*
X135805965Y-100921152D01*
X135736103Y-100920154D01*
X135685052Y-100889369D01*
X135608592Y-100812909D01*
X135608588Y-100812906D01*
X135608587Y-100812905D01*
X135567468Y-100791954D01*
X135509658Y-100762498D01*
X135400002Y-100745131D01*
X135399998Y-100745131D01*
X135290341Y-100762498D01*
X135191414Y-100812904D01*
X135191407Y-100812909D01*
X135137681Y-100866636D01*
X135076358Y-100900121D01*
X135006666Y-100895137D01*
X134962319Y-100866636D01*
X134908592Y-100812909D01*
X134908588Y-100812906D01*
X134908587Y-100812905D01*
X134867468Y-100791954D01*
X134809658Y-100762498D01*
X134700002Y-100745131D01*
X134699998Y-100745131D01*
X134590341Y-100762498D01*
X134491414Y-100812904D01*
X134491407Y-100812909D01*
X134412909Y-100891407D01*
X134412904Y-100891414D01*
X134362498Y-100990341D01*
X134349094Y-101074974D01*
X134319164Y-101138109D01*
X134259853Y-101175040D01*
X134189990Y-101174042D01*
X134138940Y-101143257D01*
X134108592Y-101112909D01*
X134108588Y-101112906D01*
X134108587Y-101112905D01*
X134100112Y-101108587D01*
X134009658Y-101062498D01*
X133900002Y-101045131D01*
X133899998Y-101045131D01*
X133790341Y-101062498D01*
X133691414Y-101112904D01*
X133691407Y-101112909D01*
X133612909Y-101191407D01*
X133612904Y-101191414D01*
X133562498Y-101290341D01*
X133545131Y-101399997D01*
X133545131Y-101400002D01*
X127600500Y-101400002D01*
X127600500Y-99300003D01*
X132469008Y-99300003D01*
X132488852Y-99425300D01*
X132488852Y-99425301D01*
X132488854Y-99425304D01*
X132546450Y-99538342D01*
X132546452Y-99538344D01*
X132546454Y-99538347D01*
X132636152Y-99628045D01*
X132636154Y-99628046D01*
X132636158Y-99628050D01*
X132749196Y-99685646D01*
X132749197Y-99685646D01*
X132749199Y-99685647D01*
X132874497Y-99705492D01*
X132874500Y-99705492D01*
X132874503Y-99705492D01*
X132999800Y-99685647D01*
X132999801Y-99685647D01*
X132999802Y-99685646D01*
X132999804Y-99685646D01*
X133112842Y-99628050D01*
X133202550Y-99538342D01*
X133260146Y-99425304D01*
X133260146Y-99425302D01*
X133260147Y-99425301D01*
X133260147Y-99425300D01*
X133279992Y-99300003D01*
X133279992Y-99299996D01*
X133260147Y-99174699D01*
X133260147Y-99174698D01*
X133260146Y-99174696D01*
X133202550Y-99061658D01*
X133202546Y-99061654D01*
X133202545Y-99061652D01*
X133112847Y-98971954D01*
X133112844Y-98971952D01*
X133112842Y-98971950D01*
X132999804Y-98914354D01*
X132999803Y-98914353D01*
X132999800Y-98914352D01*
X132874503Y-98894508D01*
X132874497Y-98894508D01*
X132749199Y-98914352D01*
X132749198Y-98914352D01*
X132673837Y-98952751D01*
X132636158Y-98971950D01*
X132636157Y-98971951D01*
X132636152Y-98971954D01*
X132546454Y-99061652D01*
X132546451Y-99061657D01*
X132488852Y-99174698D01*
X132488852Y-99174699D01*
X132469008Y-99299996D01*
X132469008Y-99300003D01*
X127600500Y-99300003D01*
X127600500Y-97700003D01*
X140594508Y-97700003D01*
X140614352Y-97825300D01*
X140614352Y-97825301D01*
X140614354Y-97825304D01*
X140671950Y-97938342D01*
X140671952Y-97938344D01*
X140671954Y-97938347D01*
X140761652Y-98028045D01*
X140761654Y-98028046D01*
X140761658Y-98028050D01*
X140874696Y-98085646D01*
X140874697Y-98085646D01*
X140874699Y-98085647D01*
X140999997Y-98105492D01*
X141000000Y-98105492D01*
X141000003Y-98105492D01*
X141125300Y-98085647D01*
X141125301Y-98085647D01*
X141125302Y-98085646D01*
X141125304Y-98085646D01*
X141238342Y-98028050D01*
X141328050Y-97938342D01*
X141385646Y-97825304D01*
X141385646Y-97825302D01*
X141385647Y-97825301D01*
X141385647Y-97825300D01*
X141405492Y-97700003D01*
X149294508Y-97700003D01*
X149314352Y-97825300D01*
X149314352Y-97825301D01*
X149314354Y-97825304D01*
X149371950Y-97938342D01*
X149371952Y-97938344D01*
X149371954Y-97938347D01*
X149461652Y-98028045D01*
X149461654Y-98028046D01*
X149461658Y-98028050D01*
X149574696Y-98085646D01*
X149574697Y-98085646D01*
X149574699Y-98085647D01*
X149699997Y-98105492D01*
X149700000Y-98105492D01*
X149700003Y-98105492D01*
X149825300Y-98085647D01*
X149825301Y-98085647D01*
X149825302Y-98085646D01*
X149825304Y-98085646D01*
X149938342Y-98028050D01*
X150028050Y-97938342D01*
X150085646Y-97825304D01*
X150085646Y-97825302D01*
X150085647Y-97825301D01*
X150085647Y-97825300D01*
X150105492Y-97700003D01*
X150105492Y-97699996D01*
X150085647Y-97574699D01*
X150085647Y-97574698D01*
X150085646Y-97574696D01*
X150028050Y-97461658D01*
X150028046Y-97461654D01*
X150028045Y-97461652D01*
X149938347Y-97371954D01*
X149938344Y-97371952D01*
X149938342Y-97371950D01*
X149825304Y-97314354D01*
X149825303Y-97314353D01*
X149825300Y-97314352D01*
X149700003Y-97294508D01*
X149699997Y-97294508D01*
X149574699Y-97314352D01*
X149574698Y-97314352D01*
X149499337Y-97352751D01*
X149461658Y-97371950D01*
X149461657Y-97371951D01*
X149461652Y-97371954D01*
X149371954Y-97461652D01*
X149371951Y-97461657D01*
X149314352Y-97574698D01*
X149314352Y-97574699D01*
X149294508Y-97699996D01*
X149294508Y-97700003D01*
X141405492Y-97700003D01*
X141405492Y-97699996D01*
X141385647Y-97574699D01*
X141385647Y-97574698D01*
X141385646Y-97574696D01*
X141328050Y-97461658D01*
X141328046Y-97461654D01*
X141328045Y-97461652D01*
X141238347Y-97371954D01*
X141238344Y-97371952D01*
X141238342Y-97371950D01*
X141125304Y-97314354D01*
X141125303Y-97314353D01*
X141125300Y-97314352D01*
X141000003Y-97294508D01*
X140999997Y-97294508D01*
X140874699Y-97314352D01*
X140874698Y-97314352D01*
X140799337Y-97352751D01*
X140761658Y-97371950D01*
X140761657Y-97371951D01*
X140761652Y-97371954D01*
X140671954Y-97461652D01*
X140671951Y-97461657D01*
X140614352Y-97574698D01*
X140614352Y-97574699D01*
X140594508Y-97699996D01*
X140594508Y-97700003D01*
X127600500Y-97700003D01*
X127600500Y-96100003D01*
X130494508Y-96100003D01*
X130514352Y-96225300D01*
X130514352Y-96225301D01*
X130514354Y-96225304D01*
X130571950Y-96338342D01*
X130571952Y-96338344D01*
X130571954Y-96338347D01*
X130661652Y-96428045D01*
X130661654Y-96428046D01*
X130661658Y-96428050D01*
X130774696Y-96485646D01*
X130774697Y-96485646D01*
X130774699Y-96485647D01*
X130899997Y-96505492D01*
X130900000Y-96505492D01*
X130900003Y-96505492D01*
X131025300Y-96485647D01*
X131025301Y-96485647D01*
X131025302Y-96485646D01*
X131025304Y-96485646D01*
X131138342Y-96428050D01*
X131228050Y-96338342D01*
X131285646Y-96225304D01*
X131285646Y-96225302D01*
X131285647Y-96225301D01*
X131285647Y-96225300D01*
X131305492Y-96100003D01*
X131305492Y-96099996D01*
X131285647Y-95974699D01*
X131285647Y-95974698D01*
X131285646Y-95974696D01*
X131228050Y-95861658D01*
X131228046Y-95861654D01*
X131228045Y-95861652D01*
X131138347Y-95771954D01*
X131138344Y-95771952D01*
X131138342Y-95771950D01*
X131025304Y-95714354D01*
X131025303Y-95714353D01*
X131025300Y-95714352D01*
X130934693Y-95700002D01*
X137345131Y-95700002D01*
X137362498Y-95809658D01*
X137412904Y-95908585D01*
X137412909Y-95908592D01*
X137491407Y-95987090D01*
X137491410Y-95987092D01*
X137491413Y-95987095D01*
X137590339Y-96037500D01*
X137590341Y-96037501D01*
X137699998Y-96054869D01*
X137700000Y-96054869D01*
X137700002Y-96054869D01*
X137809658Y-96037501D01*
X137809659Y-96037500D01*
X137809661Y-96037500D01*
X137908587Y-95987095D01*
X137987095Y-95908587D01*
X138037500Y-95809661D01*
X138037500Y-95809659D01*
X138037501Y-95809658D01*
X138054869Y-95700002D01*
X138054869Y-95699997D01*
X138037501Y-95590341D01*
X138037500Y-95590339D01*
X137987095Y-95491413D01*
X137987092Y-95491410D01*
X137987090Y-95491407D01*
X137908592Y-95412909D01*
X137908588Y-95412906D01*
X137908587Y-95412905D01*
X137857922Y-95387090D01*
X137809658Y-95362498D01*
X137700002Y-95345131D01*
X137699998Y-95345131D01*
X137590341Y-95362498D01*
X137491414Y-95412904D01*
X137491407Y-95412909D01*
X137412909Y-95491407D01*
X137412904Y-95491414D01*
X137362498Y-95590341D01*
X137345131Y-95699997D01*
X137345131Y-95700002D01*
X130934693Y-95700002D01*
X130900003Y-95694508D01*
X130899997Y-95694508D01*
X130774699Y-95714352D01*
X130774698Y-95714352D01*
X130699337Y-95752751D01*
X130661658Y-95771950D01*
X130661657Y-95771951D01*
X130661652Y-95771954D01*
X130571954Y-95861652D01*
X130571951Y-95861657D01*
X130514352Y-95974698D01*
X130514352Y-95974699D01*
X130494508Y-96099996D01*
X130494508Y-96100003D01*
X127600500Y-96100003D01*
X127600500Y-95100002D01*
X140645131Y-95100002D01*
X140662498Y-95209658D01*
X140712904Y-95308585D01*
X140712909Y-95308592D01*
X140791407Y-95387090D01*
X140791410Y-95387092D01*
X140791413Y-95387095D01*
X140890339Y-95437500D01*
X140890341Y-95437501D01*
X140999998Y-95454869D01*
X141000000Y-95454869D01*
X141000002Y-95454869D01*
X141109658Y-95437501D01*
X141109659Y-95437500D01*
X141109661Y-95437500D01*
X141208587Y-95387095D01*
X141287095Y-95308587D01*
X141337500Y-95209661D01*
X141337500Y-95209659D01*
X141337501Y-95209658D01*
X141354869Y-95100002D01*
X141354869Y-95099997D01*
X141337501Y-94990341D01*
X141319427Y-94954869D01*
X141287095Y-94891413D01*
X141287092Y-94891410D01*
X141287090Y-94891407D01*
X141208592Y-94812909D01*
X141208588Y-94812906D01*
X141208587Y-94812905D01*
X141109661Y-94762500D01*
X141109660Y-94762499D01*
X141109657Y-94762498D01*
X141109658Y-94762498D01*
X141016755Y-94747784D01*
X141000312Y-94739989D01*
X140983245Y-94747784D01*
X140890341Y-94762499D01*
X140791414Y-94812904D01*
X140791407Y-94812909D01*
X140712909Y-94891407D01*
X140712904Y-94891414D01*
X140662498Y-94990341D01*
X140645131Y-95099997D01*
X140645131Y-95100002D01*
X127600500Y-95100002D01*
X127600500Y-94700002D01*
X132559951Y-94700002D01*
X132577318Y-94809658D01*
X132627724Y-94908585D01*
X132627729Y-94908592D01*
X132706227Y-94987090D01*
X132706230Y-94987092D01*
X132706233Y-94987095D01*
X132805159Y-95037500D01*
X132805161Y-95037501D01*
X132914818Y-95054869D01*
X132914820Y-95054869D01*
X132914822Y-95054869D01*
X133024478Y-95037501D01*
X133024479Y-95037500D01*
X133024481Y-95037500D01*
X133123407Y-94987095D01*
X133123412Y-94987090D01*
X133169729Y-94940774D01*
X133231052Y-94907289D01*
X133300744Y-94912273D01*
X133345091Y-94940774D01*
X133391407Y-94987090D01*
X133391410Y-94987092D01*
X133391413Y-94987095D01*
X133490339Y-95037500D01*
X133490341Y-95037501D01*
X133599998Y-95054869D01*
X133600000Y-95054869D01*
X133600002Y-95054869D01*
X133709658Y-95037501D01*
X133709659Y-95037500D01*
X133709661Y-95037500D01*
X133808587Y-94987095D01*
X133808592Y-94987090D01*
X133864319Y-94931364D01*
X133925642Y-94897879D01*
X133995334Y-94902863D01*
X134039681Y-94931364D01*
X134095407Y-94987090D01*
X134095410Y-94987092D01*
X134095413Y-94987095D01*
X134194339Y-95037500D01*
X134194341Y-95037501D01*
X134303998Y-95054869D01*
X134304000Y-95054869D01*
X134304002Y-95054869D01*
X134413658Y-95037501D01*
X134413659Y-95037500D01*
X134413661Y-95037500D01*
X134512587Y-94987095D01*
X134512592Y-94987090D01*
X134564319Y-94935364D01*
X134625642Y-94901879D01*
X134695334Y-94906863D01*
X134739681Y-94935364D01*
X134791407Y-94987090D01*
X134791410Y-94987092D01*
X134791413Y-94987095D01*
X134890339Y-95037500D01*
X134890341Y-95037501D01*
X134999998Y-95054869D01*
X135000000Y-95054869D01*
X135000002Y-95054869D01*
X135109658Y-95037501D01*
X135109659Y-95037500D01*
X135109661Y-95037500D01*
X135208587Y-94987095D01*
X135287095Y-94908587D01*
X135337500Y-94809661D01*
X135337500Y-94809659D01*
X135337501Y-94809658D01*
X135354869Y-94700002D01*
X135354869Y-94699997D01*
X135339031Y-94600002D01*
X136945131Y-94600002D01*
X136962498Y-94709658D01*
X137012904Y-94808585D01*
X137012909Y-94808592D01*
X137091407Y-94887090D01*
X137091410Y-94887092D01*
X137091413Y-94887095D01*
X137186147Y-94935364D01*
X137190341Y-94937501D01*
X137299998Y-94954869D01*
X137300000Y-94954869D01*
X137300002Y-94954869D01*
X137409658Y-94937501D01*
X137409659Y-94937500D01*
X137409661Y-94937500D01*
X137508587Y-94887095D01*
X137515999Y-94879683D01*
X137577321Y-94846196D01*
X137647013Y-94851178D01*
X137702948Y-94893047D01*
X137710942Y-94905885D01*
X137712909Y-94908592D01*
X137791407Y-94987090D01*
X137791410Y-94987092D01*
X137791413Y-94987095D01*
X137890339Y-95037500D01*
X137890341Y-95037501D01*
X137999998Y-95054869D01*
X138000000Y-95054869D01*
X138000002Y-95054869D01*
X138109658Y-95037501D01*
X138109659Y-95037500D01*
X138109661Y-95037500D01*
X138208587Y-94987095D01*
X138287095Y-94908587D01*
X138337500Y-94809661D01*
X138337500Y-94809659D01*
X138337501Y-94809658D01*
X138354869Y-94700002D01*
X138354869Y-94699997D01*
X138337501Y-94590341D01*
X138337500Y-94590339D01*
X138287095Y-94491413D01*
X138287092Y-94491410D01*
X138287090Y-94491407D01*
X138208592Y-94412909D01*
X138208588Y-94412906D01*
X138208587Y-94412905D01*
X138196890Y-94406945D01*
X138109658Y-94362498D01*
X138000002Y-94345131D01*
X137999998Y-94345131D01*
X137890341Y-94362498D01*
X137791414Y-94412904D01*
X137791405Y-94412910D01*
X137783994Y-94420322D01*
X137722670Y-94453805D01*
X137652978Y-94448818D01*
X137597046Y-94406945D01*
X137589055Y-94394111D01*
X137587096Y-94391415D01*
X137587095Y-94391413D01*
X137587092Y-94391410D01*
X137587090Y-94391407D01*
X137508592Y-94312909D01*
X137508588Y-94312906D01*
X137508587Y-94312905D01*
X137504743Y-94310946D01*
X137409658Y-94262498D01*
X137300002Y-94245131D01*
X137299998Y-94245131D01*
X137190341Y-94262498D01*
X137091414Y-94312904D01*
X137091407Y-94312909D01*
X137012909Y-94391407D01*
X137012904Y-94391414D01*
X136962498Y-94490341D01*
X136945131Y-94599997D01*
X136945131Y-94600002D01*
X135339031Y-94600002D01*
X135337501Y-94590341D01*
X135337500Y-94590339D01*
X135287095Y-94491413D01*
X135287092Y-94491410D01*
X135287090Y-94491407D01*
X135208592Y-94412909D01*
X135208588Y-94412906D01*
X135208587Y-94412905D01*
X135196890Y-94406945D01*
X135109658Y-94362498D01*
X135000002Y-94345131D01*
X134999998Y-94345131D01*
X134890341Y-94362498D01*
X134791414Y-94412904D01*
X134791407Y-94412909D01*
X134739681Y-94464636D01*
X134678358Y-94498121D01*
X134608666Y-94493137D01*
X134564319Y-94464636D01*
X134512592Y-94412909D01*
X134512588Y-94412906D01*
X134512587Y-94412905D01*
X134500890Y-94406945D01*
X134413658Y-94362498D01*
X134304002Y-94345131D01*
X134303998Y-94345131D01*
X134194341Y-94362498D01*
X134095414Y-94412904D01*
X134095407Y-94412909D01*
X134039681Y-94468636D01*
X133978358Y-94502121D01*
X133908666Y-94497137D01*
X133864319Y-94468636D01*
X133808592Y-94412909D01*
X133808588Y-94412906D01*
X133808587Y-94412905D01*
X133796890Y-94406945D01*
X133709658Y-94362498D01*
X133600002Y-94345131D01*
X133599998Y-94345131D01*
X133490341Y-94362498D01*
X133391414Y-94412904D01*
X133391407Y-94412909D01*
X133345091Y-94459226D01*
X133283768Y-94492711D01*
X133214076Y-94487727D01*
X133169729Y-94459226D01*
X133123412Y-94412909D01*
X133123408Y-94412906D01*
X133123407Y-94412905D01*
X133111710Y-94406945D01*
X133024478Y-94362498D01*
X132914822Y-94345131D01*
X132914818Y-94345131D01*
X132805161Y-94362498D01*
X132706234Y-94412904D01*
X132706227Y-94412909D01*
X132627729Y-94491407D01*
X132627724Y-94491414D01*
X132577318Y-94590341D01*
X132559951Y-94699997D01*
X132559951Y-94700002D01*
X127600500Y-94700002D01*
X127600500Y-94100003D01*
X140594508Y-94100003D01*
X140614352Y-94225300D01*
X140614352Y-94225301D01*
X140614354Y-94225304D01*
X140671950Y-94338342D01*
X140671952Y-94338344D01*
X140671954Y-94338347D01*
X140761652Y-94428045D01*
X140761654Y-94428046D01*
X140761658Y-94428050D01*
X140874696Y-94485646D01*
X140983246Y-94502838D01*
X140999686Y-94510632D01*
X141016752Y-94502838D01*
X141125304Y-94485646D01*
X141238342Y-94428050D01*
X141328050Y-94338342D01*
X141385646Y-94225304D01*
X141385646Y-94225302D01*
X141385647Y-94225301D01*
X141385647Y-94225300D01*
X141405492Y-94100003D01*
X141405492Y-94099996D01*
X141385647Y-93974699D01*
X141385647Y-93974698D01*
X141360479Y-93925304D01*
X141328050Y-93861658D01*
X141328046Y-93861654D01*
X141328045Y-93861652D01*
X141266396Y-93800003D01*
X149294508Y-93800003D01*
X149314352Y-93925300D01*
X149314352Y-93925301D01*
X149314354Y-93925304D01*
X149371950Y-94038342D01*
X149371952Y-94038344D01*
X149371954Y-94038347D01*
X149461652Y-94128045D01*
X149461654Y-94128046D01*
X149461658Y-94128050D01*
X149574696Y-94185646D01*
X149574697Y-94185646D01*
X149574699Y-94185647D01*
X149699997Y-94205492D01*
X149700000Y-94205492D01*
X149700003Y-94205492D01*
X149825300Y-94185647D01*
X149825301Y-94185647D01*
X149825302Y-94185646D01*
X149825304Y-94185646D01*
X149938342Y-94128050D01*
X150028050Y-94038342D01*
X150085646Y-93925304D01*
X150085646Y-93925302D01*
X150085647Y-93925301D01*
X150085647Y-93925300D01*
X150105492Y-93800003D01*
X150105492Y-93799996D01*
X150085647Y-93674699D01*
X150085647Y-93674698D01*
X150085646Y-93674696D01*
X150028050Y-93561658D01*
X150028046Y-93561654D01*
X150028045Y-93561652D01*
X149938347Y-93471954D01*
X149938344Y-93471952D01*
X149938342Y-93471950D01*
X149825304Y-93414354D01*
X149825303Y-93414353D01*
X149825300Y-93414352D01*
X149700003Y-93394508D01*
X149699997Y-93394508D01*
X149574699Y-93414352D01*
X149574698Y-93414352D01*
X149499337Y-93452751D01*
X149461658Y-93471950D01*
X149461657Y-93471951D01*
X149461652Y-93471954D01*
X149371954Y-93561652D01*
X149371951Y-93561657D01*
X149314352Y-93674698D01*
X149314352Y-93674699D01*
X149294508Y-93799996D01*
X149294508Y-93800003D01*
X141266396Y-93800003D01*
X141238347Y-93771954D01*
X141238344Y-93771952D01*
X141238342Y-93771950D01*
X141125304Y-93714354D01*
X141125303Y-93714353D01*
X141125300Y-93714352D01*
X141000003Y-93694508D01*
X140999997Y-93694508D01*
X140874699Y-93714352D01*
X140874698Y-93714352D01*
X140799337Y-93752751D01*
X140761658Y-93771950D01*
X140761657Y-93771951D01*
X140761652Y-93771954D01*
X140671954Y-93861652D01*
X140671951Y-93861657D01*
X140614352Y-93974698D01*
X140614352Y-93974699D01*
X140594508Y-94099996D01*
X140594508Y-94100003D01*
X127600500Y-94100003D01*
X127600500Y-92300003D01*
X132694508Y-92300003D01*
X132714352Y-92425300D01*
X132714352Y-92425301D01*
X132714354Y-92425304D01*
X132771950Y-92538342D01*
X132771952Y-92538344D01*
X132771954Y-92538347D01*
X132861652Y-92628045D01*
X132861654Y-92628046D01*
X132861658Y-92628050D01*
X132974696Y-92685646D01*
X132974697Y-92685646D01*
X132974699Y-92685647D01*
X133099997Y-92705492D01*
X133100000Y-92705492D01*
X133100003Y-92705492D01*
X133225300Y-92685647D01*
X133225301Y-92685647D01*
X133225302Y-92685646D01*
X133225304Y-92685646D01*
X133338342Y-92628050D01*
X133428050Y-92538342D01*
X133485646Y-92425304D01*
X133485646Y-92425302D01*
X133485647Y-92425301D01*
X133485647Y-92425300D01*
X133505492Y-92300003D01*
X135894508Y-92300003D01*
X135914352Y-92425300D01*
X135914352Y-92425301D01*
X135914354Y-92425304D01*
X135971950Y-92538342D01*
X135971952Y-92538344D01*
X135971954Y-92538347D01*
X136061652Y-92628045D01*
X136061654Y-92628046D01*
X136061658Y-92628050D01*
X136174696Y-92685646D01*
X136174697Y-92685646D01*
X136174699Y-92685647D01*
X136299997Y-92705492D01*
X136300000Y-92705492D01*
X136300003Y-92705492D01*
X136425300Y-92685647D01*
X136425301Y-92685647D01*
X136425302Y-92685646D01*
X136425304Y-92685646D01*
X136538342Y-92628050D01*
X136628050Y-92538342D01*
X136685646Y-92425304D01*
X136685646Y-92425302D01*
X136685647Y-92425301D01*
X136685647Y-92425300D01*
X136705492Y-92300003D01*
X136705492Y-92299996D01*
X136685647Y-92174699D01*
X136685647Y-92174698D01*
X136685646Y-92174696D01*
X136628050Y-92061658D01*
X136628046Y-92061654D01*
X136628045Y-92061652D01*
X136538347Y-91971954D01*
X136538344Y-91971952D01*
X136538342Y-91971950D01*
X136425304Y-91914354D01*
X136425303Y-91914353D01*
X136425300Y-91914352D01*
X136300003Y-91894508D01*
X136299997Y-91894508D01*
X136174699Y-91914352D01*
X136174698Y-91914352D01*
X136127607Y-91938347D01*
X136061658Y-91971950D01*
X136061657Y-91971951D01*
X136061652Y-91971954D01*
X135971954Y-92061652D01*
X135971951Y-92061657D01*
X135971950Y-92061658D01*
X135959727Y-92085647D01*
X135914352Y-92174698D01*
X135914352Y-92174699D01*
X135894508Y-92299996D01*
X135894508Y-92300003D01*
X133505492Y-92300003D01*
X133505492Y-92299996D01*
X133485647Y-92174699D01*
X133485647Y-92174698D01*
X133485646Y-92174696D01*
X133428050Y-92061658D01*
X133428046Y-92061654D01*
X133428045Y-92061652D01*
X133338347Y-91971954D01*
X133338344Y-91971952D01*
X133338342Y-91971950D01*
X133225304Y-91914354D01*
X133225303Y-91914353D01*
X133225300Y-91914352D01*
X133100003Y-91894508D01*
X133099997Y-91894508D01*
X132974699Y-91914352D01*
X132974698Y-91914352D01*
X132927607Y-91938347D01*
X132861658Y-91971950D01*
X132861657Y-91971951D01*
X132861652Y-91971954D01*
X132771954Y-92061652D01*
X132771951Y-92061657D01*
X132771950Y-92061658D01*
X132759727Y-92085647D01*
X132714352Y-92174698D01*
X132714352Y-92174699D01*
X132694508Y-92299996D01*
X132694508Y-92300003D01*
X127600500Y-92300003D01*
X127600500Y-91700003D01*
X144794508Y-91700003D01*
X144814352Y-91825300D01*
X144814352Y-91825301D01*
X144814354Y-91825304D01*
X144871950Y-91938342D01*
X144871952Y-91938344D01*
X144871954Y-91938347D01*
X144961652Y-92028045D01*
X144961654Y-92028046D01*
X144961658Y-92028050D01*
X145074696Y-92085646D01*
X145074697Y-92085646D01*
X145074699Y-92085647D01*
X145199997Y-92105492D01*
X145200000Y-92105492D01*
X145200003Y-92105492D01*
X145325300Y-92085647D01*
X145325301Y-92085647D01*
X145325302Y-92085646D01*
X145325304Y-92085646D01*
X145438342Y-92028050D01*
X145528050Y-91938342D01*
X145585646Y-91825304D01*
X145585646Y-91825302D01*
X145585647Y-91825301D01*
X145585647Y-91825300D01*
X145605492Y-91700003D01*
X145605492Y-91699996D01*
X145585647Y-91574699D01*
X145585647Y-91574698D01*
X145585646Y-91574696D01*
X145528050Y-91461658D01*
X145528046Y-91461654D01*
X145528045Y-91461652D01*
X145438347Y-91371954D01*
X145438344Y-91371952D01*
X145438342Y-91371950D01*
X145325304Y-91314354D01*
X145325303Y-91314353D01*
X145325300Y-91314352D01*
X145200003Y-91294508D01*
X145199997Y-91294508D01*
X145074699Y-91314352D01*
X145074698Y-91314352D01*
X144999337Y-91352751D01*
X144961658Y-91371950D01*
X144961657Y-91371951D01*
X144961652Y-91371954D01*
X144871954Y-91461652D01*
X144871951Y-91461657D01*
X144814352Y-91574698D01*
X144814352Y-91574699D01*
X144794508Y-91699996D01*
X144794508Y-91700003D01*
X127600500Y-91700003D01*
X127600500Y-89674503D01*
X132494508Y-89674503D01*
X132514352Y-89799800D01*
X132514352Y-89799801D01*
X132514354Y-89799804D01*
X132571950Y-89912842D01*
X132571952Y-89912844D01*
X132571954Y-89912847D01*
X132661652Y-90002545D01*
X132661654Y-90002546D01*
X132661658Y-90002550D01*
X132774696Y-90060146D01*
X132774697Y-90060146D01*
X132774699Y-90060147D01*
X132899997Y-90079992D01*
X132900000Y-90079992D01*
X132900003Y-90079992D01*
X133025300Y-90060147D01*
X133025301Y-90060147D01*
X133025302Y-90060146D01*
X133025304Y-90060146D01*
X133138342Y-90002550D01*
X133228050Y-89912842D01*
X133285646Y-89799804D01*
X133285646Y-89799802D01*
X133285647Y-89799801D01*
X133285647Y-89799800D01*
X133305492Y-89674503D01*
X133305492Y-89674496D01*
X133285647Y-89549199D01*
X133285647Y-89549198D01*
X133285646Y-89549196D01*
X133228050Y-89436158D01*
X133228046Y-89436154D01*
X133228045Y-89436152D01*
X133138347Y-89346454D01*
X133138344Y-89346452D01*
X133138342Y-89346450D01*
X133025304Y-89288854D01*
X133025303Y-89288853D01*
X133025300Y-89288852D01*
X132900003Y-89269008D01*
X132899997Y-89269008D01*
X132774699Y-89288852D01*
X132774698Y-89288852D01*
X132699337Y-89327251D01*
X132661658Y-89346450D01*
X132661657Y-89346451D01*
X132661652Y-89346454D01*
X132571954Y-89436152D01*
X132571951Y-89436157D01*
X132514352Y-89549198D01*
X132514352Y-89549199D01*
X132494508Y-89674496D01*
X132494508Y-89674503D01*
X127600500Y-89674503D01*
X127600500Y-89180003D01*
X137394508Y-89180003D01*
X137414352Y-89305300D01*
X137414352Y-89305301D01*
X137414354Y-89305304D01*
X137471950Y-89418342D01*
X137471952Y-89418344D01*
X137471954Y-89418347D01*
X137561652Y-89508045D01*
X137561654Y-89508046D01*
X137561658Y-89508050D01*
X137674696Y-89565646D01*
X137674697Y-89565646D01*
X137674699Y-89565647D01*
X137799997Y-89585492D01*
X137800000Y-89585492D01*
X137800003Y-89585492D01*
X137925300Y-89565647D01*
X137925301Y-89565647D01*
X137925302Y-89565646D01*
X137925304Y-89565646D01*
X138038342Y-89508050D01*
X138128050Y-89418342D01*
X138185646Y-89305304D01*
X138185646Y-89305302D01*
X138185647Y-89305301D01*
X138185647Y-89305300D01*
X138205492Y-89180003D01*
X138205492Y-89179996D01*
X138185647Y-89054699D01*
X138185647Y-89054698D01*
X138185646Y-89054696D01*
X138128050Y-88941658D01*
X138128046Y-88941654D01*
X138128045Y-88941652D01*
X138038347Y-88851954D01*
X138038344Y-88851952D01*
X138038342Y-88851950D01*
X137925304Y-88794354D01*
X137925303Y-88794353D01*
X137925300Y-88794352D01*
X137800003Y-88774508D01*
X137799997Y-88774508D01*
X137674699Y-88794352D01*
X137674698Y-88794352D01*
X137599337Y-88832751D01*
X137561658Y-88851950D01*
X137561657Y-88851951D01*
X137561652Y-88851954D01*
X137471954Y-88941652D01*
X137471951Y-88941657D01*
X137414352Y-89054698D01*
X137414352Y-89054699D01*
X137394508Y-89179996D01*
X137394508Y-89180003D01*
X127600500Y-89180003D01*
X127600500Y-88974500D01*
X127620185Y-88907461D01*
X127672989Y-88861706D01*
X127724500Y-88850500D01*
X128067658Y-88850500D01*
X128067660Y-88850500D01*
X128067662Y-88850499D01*
X128067666Y-88850499D01*
X128199580Y-88820391D01*
X128199580Y-88820390D01*
X128199588Y-88820389D01*
X128320251Y-88762279D01*
X128374052Y-88750000D01*
X128500000Y-88750000D01*
X128500000Y-88624051D01*
X128512278Y-88570253D01*
X128570389Y-88449588D01*
X128576527Y-88422695D01*
X128600499Y-88317666D01*
X128600500Y-88317658D01*
X128600500Y-85474500D01*
X128620185Y-85407461D01*
X128672989Y-85361706D01*
X128724500Y-85350500D01*
X135126000Y-85350500D01*
X135193039Y-85370185D01*
G37*
%TD.AperFunction*%
%TD*%
M02*
