%TF.GenerationSoftware,KiCad,Pcbnew,7.0.8*%
%TF.CreationDate,2024-04-10T13:39:50+02:00*%
%TF.ProjectId,Expansion_Card_Retrofit,45787061-6e73-4696-9f6e-5f436172645f,X1*%
%TF.SameCoordinates,Original*%
%TF.FileFunction,Drillmap*%
%TF.FilePolarity,Positive*%
%FSLAX45Y45*%
G04 Gerber Fmt 4.5, Leading zero omitted, Abs format (unit mm)*
G04 Created by KiCad (PCBNEW 7.0.8) date 2024-04-10 13:39:50*
%MOMM*%
%LPD*%
G01*
G04 APERTURE LIST*
%ADD10C,0.050000*%
%ADD11C,0.200000*%
%ADD12C,0.090000*%
%ADD13C,0.220000*%
G04 APERTURE END LIST*
D10*
X15000000Y-11485000D02*
G75*
G03*
X15020000Y-11505000I20000J0D01*
G01*
X14530000Y-8505000D02*
X15200000Y-8505000D01*
X13640000Y-11485000D02*
X13640000Y-10705000D01*
X12830000Y-8825000D02*
X12830000Y-8535000D01*
X13560000Y-8675000D02*
X13560000Y-8535000D01*
X15300000Y-11505000D02*
G75*
G03*
X15330000Y-11475000I0J30000D01*
G01*
X13560000Y-8675000D02*
G75*
G03*
X13590000Y-8705000I30000J0D01*
G01*
X12730000Y-8885000D02*
X12730000Y-11475000D01*
X12860000Y-8505000D02*
G75*
G03*
X12830000Y-8535000I0J-30000D01*
G01*
X15330000Y-8885000D02*
G75*
G03*
X15300000Y-8855000I-30000J0D01*
G01*
X12730000Y-11475000D02*
G75*
G03*
X12760000Y-11505000I30000J0D01*
G01*
X15230000Y-8825000D02*
X15230000Y-8535000D01*
X14530000Y-8505000D02*
G75*
G03*
X14500000Y-8535000I0J-30000D01*
G01*
X15000000Y-10705000D02*
X15000000Y-11485000D01*
X13620000Y-11505000D02*
G75*
G03*
X13640000Y-11485000I0J20000D01*
G01*
X14999998Y-10704142D02*
G75*
G03*
X14980000Y-10684142I-19998J2D01*
G01*
X15260000Y-8855000D02*
X15300000Y-8855000D01*
X13660000Y-10684140D02*
G75*
G03*
X13640000Y-10704142I0J-20000D01*
G01*
X14470000Y-8705000D02*
G75*
G03*
X14500000Y-8675000I0J30000D01*
G01*
X15020000Y-11505000D02*
X15300000Y-11505000D01*
X13660000Y-10684142D02*
X14980000Y-10684142D01*
X13530000Y-8505000D02*
X12860000Y-8505000D01*
X12760000Y-11505000D02*
X13620000Y-11505000D01*
X14500000Y-8675000D02*
X14500000Y-8535000D01*
X12760000Y-8855000D02*
G75*
G03*
X12730000Y-8885000I0J-30000D01*
G01*
X15330000Y-8885000D02*
X15330000Y-11475000D01*
X14460000Y-8705000D02*
X14470000Y-8705000D01*
X15230000Y-8825000D02*
G75*
G03*
X15260000Y-8855000I30000J0D01*
G01*
X13560000Y-8535000D02*
G75*
G03*
X13530000Y-8505000I-30000J0D01*
G01*
X12760000Y-8855000D02*
X12800000Y-8855000D01*
X13590000Y-8705000D02*
X13600000Y-8705000D01*
X15230000Y-8535000D02*
G75*
G03*
X15200000Y-8505000I-30000J0D01*
G01*
X12800000Y-8855000D02*
G75*
G03*
X12830000Y-8825000I0J30000D01*
G01*
D11*
D12*
X12995000Y-11275000D02*
X13085000Y-11365000D01*
X13085000Y-11275000D02*
X12995000Y-11365000D01*
X13295000Y-11275000D02*
X13385000Y-11365000D01*
X13385000Y-11275000D02*
X13295000Y-11365000D01*
D13*
X13010000Y-10455000D02*
G75*
G03*
X13010000Y-10455000I-110000J0D01*
G01*
X15270000Y-10455000D02*
G75*
G03*
X15270000Y-10455000I-110000J0D01*
G01*
D11*
X12988277Y-11818984D02*
X12988277Y-11618984D01*
X12988277Y-11618984D02*
X13035896Y-11618984D01*
X13035896Y-11618984D02*
X13064467Y-11628508D01*
X13064467Y-11628508D02*
X13083515Y-11647555D01*
X13083515Y-11647555D02*
X13093039Y-11666603D01*
X13093039Y-11666603D02*
X13102562Y-11704698D01*
X13102562Y-11704698D02*
X13102562Y-11733269D01*
X13102562Y-11733269D02*
X13093039Y-11771365D01*
X13093039Y-11771365D02*
X13083515Y-11790412D01*
X13083515Y-11790412D02*
X13064467Y-11809460D01*
X13064467Y-11809460D02*
X13035896Y-11818984D01*
X13035896Y-11818984D02*
X12988277Y-11818984D01*
X13188277Y-11818984D02*
X13188277Y-11685650D01*
X13188277Y-11723746D02*
X13197801Y-11704698D01*
X13197801Y-11704698D02*
X13207324Y-11695174D01*
X13207324Y-11695174D02*
X13226372Y-11685650D01*
X13226372Y-11685650D02*
X13245420Y-11685650D01*
X13312086Y-11818984D02*
X13312086Y-11685650D01*
X13312086Y-11618984D02*
X13302562Y-11628508D01*
X13302562Y-11628508D02*
X13312086Y-11638031D01*
X13312086Y-11638031D02*
X13321610Y-11628508D01*
X13321610Y-11628508D02*
X13312086Y-11618984D01*
X13312086Y-11618984D02*
X13312086Y-11638031D01*
X13435896Y-11818984D02*
X13416848Y-11809460D01*
X13416848Y-11809460D02*
X13407324Y-11790412D01*
X13407324Y-11790412D02*
X13407324Y-11618984D01*
X13540658Y-11818984D02*
X13521610Y-11809460D01*
X13521610Y-11809460D02*
X13512086Y-11790412D01*
X13512086Y-11790412D02*
X13512086Y-11618984D01*
X13769229Y-11818984D02*
X13769229Y-11618984D01*
X13769229Y-11618984D02*
X13835896Y-11761841D01*
X13835896Y-11761841D02*
X13902562Y-11618984D01*
X13902562Y-11618984D02*
X13902562Y-11818984D01*
X14083515Y-11818984D02*
X14083515Y-11714222D01*
X14083515Y-11714222D02*
X14073991Y-11695174D01*
X14073991Y-11695174D02*
X14054943Y-11685650D01*
X14054943Y-11685650D02*
X14016848Y-11685650D01*
X14016848Y-11685650D02*
X13997801Y-11695174D01*
X14083515Y-11809460D02*
X14064467Y-11818984D01*
X14064467Y-11818984D02*
X14016848Y-11818984D01*
X14016848Y-11818984D02*
X13997801Y-11809460D01*
X13997801Y-11809460D02*
X13988277Y-11790412D01*
X13988277Y-11790412D02*
X13988277Y-11771365D01*
X13988277Y-11771365D02*
X13997801Y-11752317D01*
X13997801Y-11752317D02*
X14016848Y-11742793D01*
X14016848Y-11742793D02*
X14064467Y-11742793D01*
X14064467Y-11742793D02*
X14083515Y-11733269D01*
X14178753Y-11685650D02*
X14178753Y-11885650D01*
X14178753Y-11695174D02*
X14197801Y-11685650D01*
X14197801Y-11685650D02*
X14235896Y-11685650D01*
X14235896Y-11685650D02*
X14254943Y-11695174D01*
X14254943Y-11695174D02*
X14264467Y-11704698D01*
X14264467Y-11704698D02*
X14273991Y-11723746D01*
X14273991Y-11723746D02*
X14273991Y-11780888D01*
X14273991Y-11780888D02*
X14264467Y-11799936D01*
X14264467Y-11799936D02*
X14254943Y-11809460D01*
X14254943Y-11809460D02*
X14235896Y-11818984D01*
X14235896Y-11818984D02*
X14197801Y-11818984D01*
X14197801Y-11818984D02*
X14178753Y-11809460D01*
X14359705Y-11799936D02*
X14369229Y-11809460D01*
X14369229Y-11809460D02*
X14359705Y-11818984D01*
X14359705Y-11818984D02*
X14350182Y-11809460D01*
X14350182Y-11809460D02*
X14359705Y-11799936D01*
X14359705Y-11799936D02*
X14359705Y-11818984D01*
X14359705Y-11695174D02*
X14369229Y-11704698D01*
X14369229Y-11704698D02*
X14359705Y-11714222D01*
X14359705Y-11714222D02*
X14350182Y-11704698D01*
X14350182Y-11704698D02*
X14359705Y-11695174D01*
X14359705Y-11695174D02*
X14359705Y-11714222D01*
D12*
X12637500Y-12102500D02*
X12727500Y-12192500D01*
X12727500Y-12102500D02*
X12637500Y-12192500D01*
D11*
X13026372Y-12038984D02*
X13045420Y-12038984D01*
X13045420Y-12038984D02*
X13064467Y-12048508D01*
X13064467Y-12048508D02*
X13073991Y-12058031D01*
X13073991Y-12058031D02*
X13083515Y-12077079D01*
X13083515Y-12077079D02*
X13093039Y-12115174D01*
X13093039Y-12115174D02*
X13093039Y-12162793D01*
X13093039Y-12162793D02*
X13083515Y-12200888D01*
X13083515Y-12200888D02*
X13073991Y-12219936D01*
X13073991Y-12219936D02*
X13064467Y-12229460D01*
X13064467Y-12229460D02*
X13045420Y-12238984D01*
X13045420Y-12238984D02*
X13026372Y-12238984D01*
X13026372Y-12238984D02*
X13007324Y-12229460D01*
X13007324Y-12229460D02*
X12997801Y-12219936D01*
X12997801Y-12219936D02*
X12988277Y-12200888D01*
X12988277Y-12200888D02*
X12978753Y-12162793D01*
X12978753Y-12162793D02*
X12978753Y-12115174D01*
X12978753Y-12115174D02*
X12988277Y-12077079D01*
X12988277Y-12077079D02*
X12997801Y-12058031D01*
X12997801Y-12058031D02*
X13007324Y-12048508D01*
X13007324Y-12048508D02*
X13026372Y-12038984D01*
X13178753Y-12219936D02*
X13188277Y-12229460D01*
X13188277Y-12229460D02*
X13178753Y-12238984D01*
X13178753Y-12238984D02*
X13169229Y-12229460D01*
X13169229Y-12229460D02*
X13178753Y-12219936D01*
X13178753Y-12219936D02*
X13178753Y-12238984D01*
X13283515Y-12238984D02*
X13321610Y-12238984D01*
X13321610Y-12238984D02*
X13340658Y-12229460D01*
X13340658Y-12229460D02*
X13350182Y-12219936D01*
X13350182Y-12219936D02*
X13369229Y-12191365D01*
X13369229Y-12191365D02*
X13378753Y-12153269D01*
X13378753Y-12153269D02*
X13378753Y-12077079D01*
X13378753Y-12077079D02*
X13369229Y-12058031D01*
X13369229Y-12058031D02*
X13359705Y-12048508D01*
X13359705Y-12048508D02*
X13340658Y-12038984D01*
X13340658Y-12038984D02*
X13302562Y-12038984D01*
X13302562Y-12038984D02*
X13283515Y-12048508D01*
X13283515Y-12048508D02*
X13273991Y-12058031D01*
X13273991Y-12058031D02*
X13264467Y-12077079D01*
X13264467Y-12077079D02*
X13264467Y-12124698D01*
X13264467Y-12124698D02*
X13273991Y-12143746D01*
X13273991Y-12143746D02*
X13283515Y-12153269D01*
X13283515Y-12153269D02*
X13302562Y-12162793D01*
X13302562Y-12162793D02*
X13340658Y-12162793D01*
X13340658Y-12162793D02*
X13359705Y-12153269D01*
X13359705Y-12153269D02*
X13369229Y-12143746D01*
X13369229Y-12143746D02*
X13378753Y-12124698D01*
X13502562Y-12038984D02*
X13521610Y-12038984D01*
X13521610Y-12038984D02*
X13540658Y-12048508D01*
X13540658Y-12048508D02*
X13550182Y-12058031D01*
X13550182Y-12058031D02*
X13559705Y-12077079D01*
X13559705Y-12077079D02*
X13569229Y-12115174D01*
X13569229Y-12115174D02*
X13569229Y-12162793D01*
X13569229Y-12162793D02*
X13559705Y-12200888D01*
X13559705Y-12200888D02*
X13550182Y-12219936D01*
X13550182Y-12219936D02*
X13540658Y-12229460D01*
X13540658Y-12229460D02*
X13521610Y-12238984D01*
X13521610Y-12238984D02*
X13502562Y-12238984D01*
X13502562Y-12238984D02*
X13483515Y-12229460D01*
X13483515Y-12229460D02*
X13473991Y-12219936D01*
X13473991Y-12219936D02*
X13464467Y-12200888D01*
X13464467Y-12200888D02*
X13454943Y-12162793D01*
X13454943Y-12162793D02*
X13454943Y-12115174D01*
X13454943Y-12115174D02*
X13464467Y-12077079D01*
X13464467Y-12077079D02*
X13473991Y-12058031D01*
X13473991Y-12058031D02*
X13483515Y-12048508D01*
X13483515Y-12048508D02*
X13502562Y-12038984D01*
X13693039Y-12038984D02*
X13712086Y-12038984D01*
X13712086Y-12038984D02*
X13731134Y-12048508D01*
X13731134Y-12048508D02*
X13740658Y-12058031D01*
X13740658Y-12058031D02*
X13750182Y-12077079D01*
X13750182Y-12077079D02*
X13759705Y-12115174D01*
X13759705Y-12115174D02*
X13759705Y-12162793D01*
X13759705Y-12162793D02*
X13750182Y-12200888D01*
X13750182Y-12200888D02*
X13740658Y-12219936D01*
X13740658Y-12219936D02*
X13731134Y-12229460D01*
X13731134Y-12229460D02*
X13712086Y-12238984D01*
X13712086Y-12238984D02*
X13693039Y-12238984D01*
X13693039Y-12238984D02*
X13673991Y-12229460D01*
X13673991Y-12229460D02*
X13664467Y-12219936D01*
X13664467Y-12219936D02*
X13654943Y-12200888D01*
X13654943Y-12200888D02*
X13645420Y-12162793D01*
X13645420Y-12162793D02*
X13645420Y-12115174D01*
X13645420Y-12115174D02*
X13654943Y-12077079D01*
X13654943Y-12077079D02*
X13664467Y-12058031D01*
X13664467Y-12058031D02*
X13673991Y-12048508D01*
X13673991Y-12048508D02*
X13693039Y-12038984D01*
X13845420Y-12238984D02*
X13845420Y-12105650D01*
X13845420Y-12124698D02*
X13854943Y-12115174D01*
X13854943Y-12115174D02*
X13873991Y-12105650D01*
X13873991Y-12105650D02*
X13902563Y-12105650D01*
X13902563Y-12105650D02*
X13921610Y-12115174D01*
X13921610Y-12115174D02*
X13931134Y-12134222D01*
X13931134Y-12134222D02*
X13931134Y-12238984D01*
X13931134Y-12134222D02*
X13940658Y-12115174D01*
X13940658Y-12115174D02*
X13959705Y-12105650D01*
X13959705Y-12105650D02*
X13988277Y-12105650D01*
X13988277Y-12105650D02*
X14007324Y-12115174D01*
X14007324Y-12115174D02*
X14016848Y-12134222D01*
X14016848Y-12134222D02*
X14016848Y-12238984D01*
X14112086Y-12238984D02*
X14112086Y-12105650D01*
X14112086Y-12124698D02*
X14121610Y-12115174D01*
X14121610Y-12115174D02*
X14140658Y-12105650D01*
X14140658Y-12105650D02*
X14169229Y-12105650D01*
X14169229Y-12105650D02*
X14188277Y-12115174D01*
X14188277Y-12115174D02*
X14197801Y-12134222D01*
X14197801Y-12134222D02*
X14197801Y-12238984D01*
X14197801Y-12134222D02*
X14207324Y-12115174D01*
X14207324Y-12115174D02*
X14226372Y-12105650D01*
X14226372Y-12105650D02*
X14254943Y-12105650D01*
X14254943Y-12105650D02*
X14273991Y-12115174D01*
X14273991Y-12115174D02*
X14283515Y-12134222D01*
X14283515Y-12134222D02*
X14283515Y-12238984D01*
X14673991Y-12029460D02*
X14502563Y-12286603D01*
X14931134Y-12038984D02*
X14950182Y-12038984D01*
X14950182Y-12038984D02*
X14969229Y-12048508D01*
X14969229Y-12048508D02*
X14978753Y-12058031D01*
X14978753Y-12058031D02*
X14988277Y-12077079D01*
X14988277Y-12077079D02*
X14997801Y-12115174D01*
X14997801Y-12115174D02*
X14997801Y-12162793D01*
X14997801Y-12162793D02*
X14988277Y-12200888D01*
X14988277Y-12200888D02*
X14978753Y-12219936D01*
X14978753Y-12219936D02*
X14969229Y-12229460D01*
X14969229Y-12229460D02*
X14950182Y-12238984D01*
X14950182Y-12238984D02*
X14931134Y-12238984D01*
X14931134Y-12238984D02*
X14912086Y-12229460D01*
X14912086Y-12229460D02*
X14902563Y-12219936D01*
X14902563Y-12219936D02*
X14893039Y-12200888D01*
X14893039Y-12200888D02*
X14883515Y-12162793D01*
X14883515Y-12162793D02*
X14883515Y-12115174D01*
X14883515Y-12115174D02*
X14893039Y-12077079D01*
X14893039Y-12077079D02*
X14902563Y-12058031D01*
X14902563Y-12058031D02*
X14912086Y-12048508D01*
X14912086Y-12048508D02*
X14931134Y-12038984D01*
X15083515Y-12219936D02*
X15093039Y-12229460D01*
X15093039Y-12229460D02*
X15083515Y-12238984D01*
X15083515Y-12238984D02*
X15073991Y-12229460D01*
X15073991Y-12229460D02*
X15083515Y-12219936D01*
X15083515Y-12219936D02*
X15083515Y-12238984D01*
X15216848Y-12038984D02*
X15235896Y-12038984D01*
X15235896Y-12038984D02*
X15254944Y-12048508D01*
X15254944Y-12048508D02*
X15264467Y-12058031D01*
X15264467Y-12058031D02*
X15273991Y-12077079D01*
X15273991Y-12077079D02*
X15283515Y-12115174D01*
X15283515Y-12115174D02*
X15283515Y-12162793D01*
X15283515Y-12162793D02*
X15273991Y-12200888D01*
X15273991Y-12200888D02*
X15264467Y-12219936D01*
X15264467Y-12219936D02*
X15254944Y-12229460D01*
X15254944Y-12229460D02*
X15235896Y-12238984D01*
X15235896Y-12238984D02*
X15216848Y-12238984D01*
X15216848Y-12238984D02*
X15197801Y-12229460D01*
X15197801Y-12229460D02*
X15188277Y-12219936D01*
X15188277Y-12219936D02*
X15178753Y-12200888D01*
X15178753Y-12200888D02*
X15169229Y-12162793D01*
X15169229Y-12162793D02*
X15169229Y-12115174D01*
X15169229Y-12115174D02*
X15178753Y-12077079D01*
X15178753Y-12077079D02*
X15188277Y-12058031D01*
X15188277Y-12058031D02*
X15197801Y-12048508D01*
X15197801Y-12048508D02*
X15216848Y-12038984D01*
X15350182Y-12038984D02*
X15473991Y-12038984D01*
X15473991Y-12038984D02*
X15407325Y-12115174D01*
X15407325Y-12115174D02*
X15435896Y-12115174D01*
X15435896Y-12115174D02*
X15454944Y-12124698D01*
X15454944Y-12124698D02*
X15464467Y-12134222D01*
X15464467Y-12134222D02*
X15473991Y-12153269D01*
X15473991Y-12153269D02*
X15473991Y-12200888D01*
X15473991Y-12200888D02*
X15464467Y-12219936D01*
X15464467Y-12219936D02*
X15454944Y-12229460D01*
X15454944Y-12229460D02*
X15435896Y-12238984D01*
X15435896Y-12238984D02*
X15378753Y-12238984D01*
X15378753Y-12238984D02*
X15359706Y-12229460D01*
X15359706Y-12229460D02*
X15350182Y-12219936D01*
X15654944Y-12038984D02*
X15559706Y-12038984D01*
X15559706Y-12038984D02*
X15550182Y-12134222D01*
X15550182Y-12134222D02*
X15559706Y-12124698D01*
X15559706Y-12124698D02*
X15578753Y-12115174D01*
X15578753Y-12115174D02*
X15626372Y-12115174D01*
X15626372Y-12115174D02*
X15645420Y-12124698D01*
X15645420Y-12124698D02*
X15654944Y-12134222D01*
X15654944Y-12134222D02*
X15664467Y-12153269D01*
X15664467Y-12153269D02*
X15664467Y-12200888D01*
X15664467Y-12200888D02*
X15654944Y-12219936D01*
X15654944Y-12219936D02*
X15645420Y-12229460D01*
X15645420Y-12229460D02*
X15626372Y-12238984D01*
X15626372Y-12238984D02*
X15578753Y-12238984D01*
X15578753Y-12238984D02*
X15559706Y-12229460D01*
X15559706Y-12229460D02*
X15550182Y-12219936D01*
X15835896Y-12105650D02*
X15835896Y-12238984D01*
X15788277Y-12029460D02*
X15740658Y-12172317D01*
X15740658Y-12172317D02*
X15864467Y-12172317D01*
X15931134Y-12038984D02*
X15931134Y-12077079D01*
X16007325Y-12038984D02*
X16007325Y-12077079D01*
X16302563Y-12315174D02*
X16293039Y-12305650D01*
X16293039Y-12305650D02*
X16273991Y-12277079D01*
X16273991Y-12277079D02*
X16264468Y-12258031D01*
X16264468Y-12258031D02*
X16254944Y-12229460D01*
X16254944Y-12229460D02*
X16245420Y-12181841D01*
X16245420Y-12181841D02*
X16245420Y-12143746D01*
X16245420Y-12143746D02*
X16254944Y-12096127D01*
X16254944Y-12096127D02*
X16264468Y-12067555D01*
X16264468Y-12067555D02*
X16273991Y-12048508D01*
X16273991Y-12048508D02*
X16293039Y-12019936D01*
X16293039Y-12019936D02*
X16302563Y-12010412D01*
X16369229Y-12058031D02*
X16378753Y-12048508D01*
X16378753Y-12048508D02*
X16397801Y-12038984D01*
X16397801Y-12038984D02*
X16445420Y-12038984D01*
X16445420Y-12038984D02*
X16464468Y-12048508D01*
X16464468Y-12048508D02*
X16473991Y-12058031D01*
X16473991Y-12058031D02*
X16483515Y-12077079D01*
X16483515Y-12077079D02*
X16483515Y-12096127D01*
X16483515Y-12096127D02*
X16473991Y-12124698D01*
X16473991Y-12124698D02*
X16359706Y-12238984D01*
X16359706Y-12238984D02*
X16483515Y-12238984D01*
X16721610Y-12238984D02*
X16721610Y-12038984D01*
X16807325Y-12238984D02*
X16807325Y-12134222D01*
X16807325Y-12134222D02*
X16797801Y-12115174D01*
X16797801Y-12115174D02*
X16778753Y-12105650D01*
X16778753Y-12105650D02*
X16750182Y-12105650D01*
X16750182Y-12105650D02*
X16731134Y-12115174D01*
X16731134Y-12115174D02*
X16721610Y-12124698D01*
X16931134Y-12238984D02*
X16912087Y-12229460D01*
X16912087Y-12229460D02*
X16902563Y-12219936D01*
X16902563Y-12219936D02*
X16893039Y-12200888D01*
X16893039Y-12200888D02*
X16893039Y-12143746D01*
X16893039Y-12143746D02*
X16902563Y-12124698D01*
X16902563Y-12124698D02*
X16912087Y-12115174D01*
X16912087Y-12115174D02*
X16931134Y-12105650D01*
X16931134Y-12105650D02*
X16959706Y-12105650D01*
X16959706Y-12105650D02*
X16978753Y-12115174D01*
X16978753Y-12115174D02*
X16988277Y-12124698D01*
X16988277Y-12124698D02*
X16997801Y-12143746D01*
X16997801Y-12143746D02*
X16997801Y-12200888D01*
X16997801Y-12200888D02*
X16988277Y-12219936D01*
X16988277Y-12219936D02*
X16978753Y-12229460D01*
X16978753Y-12229460D02*
X16959706Y-12238984D01*
X16959706Y-12238984D02*
X16931134Y-12238984D01*
X17112087Y-12238984D02*
X17093039Y-12229460D01*
X17093039Y-12229460D02*
X17083515Y-12210412D01*
X17083515Y-12210412D02*
X17083515Y-12038984D01*
X17264468Y-12229460D02*
X17245420Y-12238984D01*
X17245420Y-12238984D02*
X17207325Y-12238984D01*
X17207325Y-12238984D02*
X17188277Y-12229460D01*
X17188277Y-12229460D02*
X17178753Y-12210412D01*
X17178753Y-12210412D02*
X17178753Y-12134222D01*
X17178753Y-12134222D02*
X17188277Y-12115174D01*
X17188277Y-12115174D02*
X17207325Y-12105650D01*
X17207325Y-12105650D02*
X17245420Y-12105650D01*
X17245420Y-12105650D02*
X17264468Y-12115174D01*
X17264468Y-12115174D02*
X17273992Y-12134222D01*
X17273992Y-12134222D02*
X17273992Y-12153269D01*
X17273992Y-12153269D02*
X17178753Y-12172317D01*
X17350182Y-12229460D02*
X17369230Y-12238984D01*
X17369230Y-12238984D02*
X17407325Y-12238984D01*
X17407325Y-12238984D02*
X17426373Y-12229460D01*
X17426373Y-12229460D02*
X17435896Y-12210412D01*
X17435896Y-12210412D02*
X17435896Y-12200888D01*
X17435896Y-12200888D02*
X17426373Y-12181841D01*
X17426373Y-12181841D02*
X17407325Y-12172317D01*
X17407325Y-12172317D02*
X17378753Y-12172317D01*
X17378753Y-12172317D02*
X17359706Y-12162793D01*
X17359706Y-12162793D02*
X17350182Y-12143746D01*
X17350182Y-12143746D02*
X17350182Y-12134222D01*
X17350182Y-12134222D02*
X17359706Y-12115174D01*
X17359706Y-12115174D02*
X17378753Y-12105650D01*
X17378753Y-12105650D02*
X17407325Y-12105650D01*
X17407325Y-12105650D02*
X17426373Y-12115174D01*
X17502563Y-12315174D02*
X17512087Y-12305650D01*
X17512087Y-12305650D02*
X17531134Y-12277079D01*
X17531134Y-12277079D02*
X17540658Y-12258031D01*
X17540658Y-12258031D02*
X17550182Y-12229460D01*
X17550182Y-12229460D02*
X17559706Y-12181841D01*
X17559706Y-12181841D02*
X17559706Y-12143746D01*
X17559706Y-12143746D02*
X17550182Y-12096127D01*
X17550182Y-12096127D02*
X17540658Y-12067555D01*
X17540658Y-12067555D02*
X17531134Y-12048508D01*
X17531134Y-12048508D02*
X17512087Y-12019936D01*
X17512087Y-12019936D02*
X17502563Y-12010412D01*
X17864468Y-12315174D02*
X17854944Y-12305650D01*
X17854944Y-12305650D02*
X17835896Y-12277079D01*
X17835896Y-12277079D02*
X17826373Y-12258031D01*
X17826373Y-12258031D02*
X17816849Y-12229460D01*
X17816849Y-12229460D02*
X17807325Y-12181841D01*
X17807325Y-12181841D02*
X17807325Y-12143746D01*
X17807325Y-12143746D02*
X17816849Y-12096127D01*
X17816849Y-12096127D02*
X17826373Y-12067555D01*
X17826373Y-12067555D02*
X17835896Y-12048508D01*
X17835896Y-12048508D02*
X17854944Y-12019936D01*
X17854944Y-12019936D02*
X17864468Y-12010412D01*
X17940658Y-12105650D02*
X17940658Y-12238984D01*
X17940658Y-12124698D02*
X17950182Y-12115174D01*
X17950182Y-12115174D02*
X17969230Y-12105650D01*
X17969230Y-12105650D02*
X17997801Y-12105650D01*
X17997801Y-12105650D02*
X18016849Y-12115174D01*
X18016849Y-12115174D02*
X18026373Y-12134222D01*
X18026373Y-12134222D02*
X18026373Y-12238984D01*
X18150182Y-12238984D02*
X18131134Y-12229460D01*
X18131134Y-12229460D02*
X18121611Y-12219936D01*
X18121611Y-12219936D02*
X18112087Y-12200888D01*
X18112087Y-12200888D02*
X18112087Y-12143746D01*
X18112087Y-12143746D02*
X18121611Y-12124698D01*
X18121611Y-12124698D02*
X18131134Y-12115174D01*
X18131134Y-12115174D02*
X18150182Y-12105650D01*
X18150182Y-12105650D02*
X18178754Y-12105650D01*
X18178754Y-12105650D02*
X18197801Y-12115174D01*
X18197801Y-12115174D02*
X18207325Y-12124698D01*
X18207325Y-12124698D02*
X18216849Y-12143746D01*
X18216849Y-12143746D02*
X18216849Y-12200888D01*
X18216849Y-12200888D02*
X18207325Y-12219936D01*
X18207325Y-12219936D02*
X18197801Y-12229460D01*
X18197801Y-12229460D02*
X18178754Y-12238984D01*
X18178754Y-12238984D02*
X18150182Y-12238984D01*
X18273992Y-12105650D02*
X18350182Y-12105650D01*
X18302563Y-12038984D02*
X18302563Y-12210412D01*
X18302563Y-12210412D02*
X18312087Y-12229460D01*
X18312087Y-12229460D02*
X18331134Y-12238984D01*
X18331134Y-12238984D02*
X18350182Y-12238984D01*
X18569230Y-12105650D02*
X18569230Y-12305650D01*
X18569230Y-12115174D02*
X18588277Y-12105650D01*
X18588277Y-12105650D02*
X18626373Y-12105650D01*
X18626373Y-12105650D02*
X18645420Y-12115174D01*
X18645420Y-12115174D02*
X18654944Y-12124698D01*
X18654944Y-12124698D02*
X18664468Y-12143746D01*
X18664468Y-12143746D02*
X18664468Y-12200888D01*
X18664468Y-12200888D02*
X18654944Y-12219936D01*
X18654944Y-12219936D02*
X18645420Y-12229460D01*
X18645420Y-12229460D02*
X18626373Y-12238984D01*
X18626373Y-12238984D02*
X18588277Y-12238984D01*
X18588277Y-12238984D02*
X18569230Y-12229460D01*
X18778754Y-12238984D02*
X18759706Y-12229460D01*
X18759706Y-12229460D02*
X18750182Y-12210412D01*
X18750182Y-12210412D02*
X18750182Y-12038984D01*
X18940658Y-12238984D02*
X18940658Y-12134222D01*
X18940658Y-12134222D02*
X18931135Y-12115174D01*
X18931135Y-12115174D02*
X18912087Y-12105650D01*
X18912087Y-12105650D02*
X18873992Y-12105650D01*
X18873992Y-12105650D02*
X18854944Y-12115174D01*
X18940658Y-12229460D02*
X18921611Y-12238984D01*
X18921611Y-12238984D02*
X18873992Y-12238984D01*
X18873992Y-12238984D02*
X18854944Y-12229460D01*
X18854944Y-12229460D02*
X18845420Y-12210412D01*
X18845420Y-12210412D02*
X18845420Y-12191365D01*
X18845420Y-12191365D02*
X18854944Y-12172317D01*
X18854944Y-12172317D02*
X18873992Y-12162793D01*
X18873992Y-12162793D02*
X18921611Y-12162793D01*
X18921611Y-12162793D02*
X18940658Y-12153269D01*
X19007325Y-12105650D02*
X19083515Y-12105650D01*
X19035896Y-12038984D02*
X19035896Y-12210412D01*
X19035896Y-12210412D02*
X19045420Y-12229460D01*
X19045420Y-12229460D02*
X19064468Y-12238984D01*
X19064468Y-12238984D02*
X19083515Y-12238984D01*
X19226373Y-12229460D02*
X19207325Y-12238984D01*
X19207325Y-12238984D02*
X19169230Y-12238984D01*
X19169230Y-12238984D02*
X19150182Y-12229460D01*
X19150182Y-12229460D02*
X19140658Y-12210412D01*
X19140658Y-12210412D02*
X19140658Y-12134222D01*
X19140658Y-12134222D02*
X19150182Y-12115174D01*
X19150182Y-12115174D02*
X19169230Y-12105650D01*
X19169230Y-12105650D02*
X19207325Y-12105650D01*
X19207325Y-12105650D02*
X19226373Y-12115174D01*
X19226373Y-12115174D02*
X19235896Y-12134222D01*
X19235896Y-12134222D02*
X19235896Y-12153269D01*
X19235896Y-12153269D02*
X19140658Y-12172317D01*
X19407325Y-12238984D02*
X19407325Y-12038984D01*
X19407325Y-12229460D02*
X19388277Y-12238984D01*
X19388277Y-12238984D02*
X19350182Y-12238984D01*
X19350182Y-12238984D02*
X19331135Y-12229460D01*
X19331135Y-12229460D02*
X19321611Y-12219936D01*
X19321611Y-12219936D02*
X19312087Y-12200888D01*
X19312087Y-12200888D02*
X19312087Y-12143746D01*
X19312087Y-12143746D02*
X19321611Y-12124698D01*
X19321611Y-12124698D02*
X19331135Y-12115174D01*
X19331135Y-12115174D02*
X19350182Y-12105650D01*
X19350182Y-12105650D02*
X19388277Y-12105650D01*
X19388277Y-12105650D02*
X19407325Y-12115174D01*
X19483516Y-12315174D02*
X19493039Y-12305650D01*
X19493039Y-12305650D02*
X19512087Y-12277079D01*
X19512087Y-12277079D02*
X19521611Y-12258031D01*
X19521611Y-12258031D02*
X19531135Y-12229460D01*
X19531135Y-12229460D02*
X19540658Y-12181841D01*
X19540658Y-12181841D02*
X19540658Y-12143746D01*
X19540658Y-12143746D02*
X19531135Y-12096127D01*
X19531135Y-12096127D02*
X19521611Y-12067555D01*
X19521611Y-12067555D02*
X19512087Y-12048508D01*
X19512087Y-12048508D02*
X19493039Y-12019936D01*
X19493039Y-12019936D02*
X19483516Y-12010412D01*
X12727500Y-12411500D02*
G75*
G03*
X12727500Y-12411500I-100000J0D01*
G01*
X12978753Y-12322031D02*
X12988277Y-12312508D01*
X12988277Y-12312508D02*
X13007324Y-12302984D01*
X13007324Y-12302984D02*
X13054943Y-12302984D01*
X13054943Y-12302984D02*
X13073991Y-12312508D01*
X13073991Y-12312508D02*
X13083515Y-12322031D01*
X13083515Y-12322031D02*
X13093039Y-12341079D01*
X13093039Y-12341079D02*
X13093039Y-12360127D01*
X13093039Y-12360127D02*
X13083515Y-12388698D01*
X13083515Y-12388698D02*
X12969229Y-12502984D01*
X12969229Y-12502984D02*
X13093039Y-12502984D01*
X13178753Y-12483936D02*
X13188277Y-12493460D01*
X13188277Y-12493460D02*
X13178753Y-12502984D01*
X13178753Y-12502984D02*
X13169229Y-12493460D01*
X13169229Y-12493460D02*
X13178753Y-12483936D01*
X13178753Y-12483936D02*
X13178753Y-12502984D01*
X13264467Y-12322031D02*
X13273991Y-12312508D01*
X13273991Y-12312508D02*
X13293039Y-12302984D01*
X13293039Y-12302984D02*
X13340658Y-12302984D01*
X13340658Y-12302984D02*
X13359705Y-12312508D01*
X13359705Y-12312508D02*
X13369229Y-12322031D01*
X13369229Y-12322031D02*
X13378753Y-12341079D01*
X13378753Y-12341079D02*
X13378753Y-12360127D01*
X13378753Y-12360127D02*
X13369229Y-12388698D01*
X13369229Y-12388698D02*
X13254943Y-12502984D01*
X13254943Y-12502984D02*
X13378753Y-12502984D01*
X13502562Y-12302984D02*
X13521610Y-12302984D01*
X13521610Y-12302984D02*
X13540658Y-12312508D01*
X13540658Y-12312508D02*
X13550182Y-12322031D01*
X13550182Y-12322031D02*
X13559705Y-12341079D01*
X13559705Y-12341079D02*
X13569229Y-12379174D01*
X13569229Y-12379174D02*
X13569229Y-12426793D01*
X13569229Y-12426793D02*
X13559705Y-12464888D01*
X13559705Y-12464888D02*
X13550182Y-12483936D01*
X13550182Y-12483936D02*
X13540658Y-12493460D01*
X13540658Y-12493460D02*
X13521610Y-12502984D01*
X13521610Y-12502984D02*
X13502562Y-12502984D01*
X13502562Y-12502984D02*
X13483515Y-12493460D01*
X13483515Y-12493460D02*
X13473991Y-12483936D01*
X13473991Y-12483936D02*
X13464467Y-12464888D01*
X13464467Y-12464888D02*
X13454943Y-12426793D01*
X13454943Y-12426793D02*
X13454943Y-12379174D01*
X13454943Y-12379174D02*
X13464467Y-12341079D01*
X13464467Y-12341079D02*
X13473991Y-12322031D01*
X13473991Y-12322031D02*
X13483515Y-12312508D01*
X13483515Y-12312508D02*
X13502562Y-12302984D01*
X13693039Y-12302984D02*
X13712086Y-12302984D01*
X13712086Y-12302984D02*
X13731134Y-12312508D01*
X13731134Y-12312508D02*
X13740658Y-12322031D01*
X13740658Y-12322031D02*
X13750182Y-12341079D01*
X13750182Y-12341079D02*
X13759705Y-12379174D01*
X13759705Y-12379174D02*
X13759705Y-12426793D01*
X13759705Y-12426793D02*
X13750182Y-12464888D01*
X13750182Y-12464888D02*
X13740658Y-12483936D01*
X13740658Y-12483936D02*
X13731134Y-12493460D01*
X13731134Y-12493460D02*
X13712086Y-12502984D01*
X13712086Y-12502984D02*
X13693039Y-12502984D01*
X13693039Y-12502984D02*
X13673991Y-12493460D01*
X13673991Y-12493460D02*
X13664467Y-12483936D01*
X13664467Y-12483936D02*
X13654943Y-12464888D01*
X13654943Y-12464888D02*
X13645420Y-12426793D01*
X13645420Y-12426793D02*
X13645420Y-12379174D01*
X13645420Y-12379174D02*
X13654943Y-12341079D01*
X13654943Y-12341079D02*
X13664467Y-12322031D01*
X13664467Y-12322031D02*
X13673991Y-12312508D01*
X13673991Y-12312508D02*
X13693039Y-12302984D01*
X13845420Y-12502984D02*
X13845420Y-12369650D01*
X13845420Y-12388698D02*
X13854943Y-12379174D01*
X13854943Y-12379174D02*
X13873991Y-12369650D01*
X13873991Y-12369650D02*
X13902563Y-12369650D01*
X13902563Y-12369650D02*
X13921610Y-12379174D01*
X13921610Y-12379174D02*
X13931134Y-12398222D01*
X13931134Y-12398222D02*
X13931134Y-12502984D01*
X13931134Y-12398222D02*
X13940658Y-12379174D01*
X13940658Y-12379174D02*
X13959705Y-12369650D01*
X13959705Y-12369650D02*
X13988277Y-12369650D01*
X13988277Y-12369650D02*
X14007324Y-12379174D01*
X14007324Y-12379174D02*
X14016848Y-12398222D01*
X14016848Y-12398222D02*
X14016848Y-12502984D01*
X14112086Y-12502984D02*
X14112086Y-12369650D01*
X14112086Y-12388698D02*
X14121610Y-12379174D01*
X14121610Y-12379174D02*
X14140658Y-12369650D01*
X14140658Y-12369650D02*
X14169229Y-12369650D01*
X14169229Y-12369650D02*
X14188277Y-12379174D01*
X14188277Y-12379174D02*
X14197801Y-12398222D01*
X14197801Y-12398222D02*
X14197801Y-12502984D01*
X14197801Y-12398222D02*
X14207324Y-12379174D01*
X14207324Y-12379174D02*
X14226372Y-12369650D01*
X14226372Y-12369650D02*
X14254943Y-12369650D01*
X14254943Y-12369650D02*
X14273991Y-12379174D01*
X14273991Y-12379174D02*
X14283515Y-12398222D01*
X14283515Y-12398222D02*
X14283515Y-12502984D01*
X14673991Y-12293460D02*
X14502563Y-12550603D01*
X14931134Y-12302984D02*
X14950182Y-12302984D01*
X14950182Y-12302984D02*
X14969229Y-12312508D01*
X14969229Y-12312508D02*
X14978753Y-12322031D01*
X14978753Y-12322031D02*
X14988277Y-12341079D01*
X14988277Y-12341079D02*
X14997801Y-12379174D01*
X14997801Y-12379174D02*
X14997801Y-12426793D01*
X14997801Y-12426793D02*
X14988277Y-12464888D01*
X14988277Y-12464888D02*
X14978753Y-12483936D01*
X14978753Y-12483936D02*
X14969229Y-12493460D01*
X14969229Y-12493460D02*
X14950182Y-12502984D01*
X14950182Y-12502984D02*
X14931134Y-12502984D01*
X14931134Y-12502984D02*
X14912086Y-12493460D01*
X14912086Y-12493460D02*
X14902563Y-12483936D01*
X14902563Y-12483936D02*
X14893039Y-12464888D01*
X14893039Y-12464888D02*
X14883515Y-12426793D01*
X14883515Y-12426793D02*
X14883515Y-12379174D01*
X14883515Y-12379174D02*
X14893039Y-12341079D01*
X14893039Y-12341079D02*
X14902563Y-12322031D01*
X14902563Y-12322031D02*
X14912086Y-12312508D01*
X14912086Y-12312508D02*
X14931134Y-12302984D01*
X15083515Y-12483936D02*
X15093039Y-12493460D01*
X15093039Y-12493460D02*
X15083515Y-12502984D01*
X15083515Y-12502984D02*
X15073991Y-12493460D01*
X15073991Y-12493460D02*
X15083515Y-12483936D01*
X15083515Y-12483936D02*
X15083515Y-12502984D01*
X15216848Y-12302984D02*
X15235896Y-12302984D01*
X15235896Y-12302984D02*
X15254944Y-12312508D01*
X15254944Y-12312508D02*
X15264467Y-12322031D01*
X15264467Y-12322031D02*
X15273991Y-12341079D01*
X15273991Y-12341079D02*
X15283515Y-12379174D01*
X15283515Y-12379174D02*
X15283515Y-12426793D01*
X15283515Y-12426793D02*
X15273991Y-12464888D01*
X15273991Y-12464888D02*
X15264467Y-12483936D01*
X15264467Y-12483936D02*
X15254944Y-12493460D01*
X15254944Y-12493460D02*
X15235896Y-12502984D01*
X15235896Y-12502984D02*
X15216848Y-12502984D01*
X15216848Y-12502984D02*
X15197801Y-12493460D01*
X15197801Y-12493460D02*
X15188277Y-12483936D01*
X15188277Y-12483936D02*
X15178753Y-12464888D01*
X15178753Y-12464888D02*
X15169229Y-12426793D01*
X15169229Y-12426793D02*
X15169229Y-12379174D01*
X15169229Y-12379174D02*
X15178753Y-12341079D01*
X15178753Y-12341079D02*
X15188277Y-12322031D01*
X15188277Y-12322031D02*
X15197801Y-12312508D01*
X15197801Y-12312508D02*
X15216848Y-12302984D01*
X15397801Y-12388698D02*
X15378753Y-12379174D01*
X15378753Y-12379174D02*
X15369229Y-12369650D01*
X15369229Y-12369650D02*
X15359706Y-12350603D01*
X15359706Y-12350603D02*
X15359706Y-12341079D01*
X15359706Y-12341079D02*
X15369229Y-12322031D01*
X15369229Y-12322031D02*
X15378753Y-12312508D01*
X15378753Y-12312508D02*
X15397801Y-12302984D01*
X15397801Y-12302984D02*
X15435896Y-12302984D01*
X15435896Y-12302984D02*
X15454944Y-12312508D01*
X15454944Y-12312508D02*
X15464467Y-12322031D01*
X15464467Y-12322031D02*
X15473991Y-12341079D01*
X15473991Y-12341079D02*
X15473991Y-12350603D01*
X15473991Y-12350603D02*
X15464467Y-12369650D01*
X15464467Y-12369650D02*
X15454944Y-12379174D01*
X15454944Y-12379174D02*
X15435896Y-12388698D01*
X15435896Y-12388698D02*
X15397801Y-12388698D01*
X15397801Y-12388698D02*
X15378753Y-12398222D01*
X15378753Y-12398222D02*
X15369229Y-12407746D01*
X15369229Y-12407746D02*
X15359706Y-12426793D01*
X15359706Y-12426793D02*
X15359706Y-12464888D01*
X15359706Y-12464888D02*
X15369229Y-12483936D01*
X15369229Y-12483936D02*
X15378753Y-12493460D01*
X15378753Y-12493460D02*
X15397801Y-12502984D01*
X15397801Y-12502984D02*
X15435896Y-12502984D01*
X15435896Y-12502984D02*
X15454944Y-12493460D01*
X15454944Y-12493460D02*
X15464467Y-12483936D01*
X15464467Y-12483936D02*
X15473991Y-12464888D01*
X15473991Y-12464888D02*
X15473991Y-12426793D01*
X15473991Y-12426793D02*
X15464467Y-12407746D01*
X15464467Y-12407746D02*
X15454944Y-12398222D01*
X15454944Y-12398222D02*
X15435896Y-12388698D01*
X15645420Y-12302984D02*
X15607325Y-12302984D01*
X15607325Y-12302984D02*
X15588277Y-12312508D01*
X15588277Y-12312508D02*
X15578753Y-12322031D01*
X15578753Y-12322031D02*
X15559706Y-12350603D01*
X15559706Y-12350603D02*
X15550182Y-12388698D01*
X15550182Y-12388698D02*
X15550182Y-12464888D01*
X15550182Y-12464888D02*
X15559706Y-12483936D01*
X15559706Y-12483936D02*
X15569229Y-12493460D01*
X15569229Y-12493460D02*
X15588277Y-12502984D01*
X15588277Y-12502984D02*
X15626372Y-12502984D01*
X15626372Y-12502984D02*
X15645420Y-12493460D01*
X15645420Y-12493460D02*
X15654944Y-12483936D01*
X15654944Y-12483936D02*
X15664467Y-12464888D01*
X15664467Y-12464888D02*
X15664467Y-12417269D01*
X15664467Y-12417269D02*
X15654944Y-12398222D01*
X15654944Y-12398222D02*
X15645420Y-12388698D01*
X15645420Y-12388698D02*
X15626372Y-12379174D01*
X15626372Y-12379174D02*
X15588277Y-12379174D01*
X15588277Y-12379174D02*
X15569229Y-12388698D01*
X15569229Y-12388698D02*
X15559706Y-12398222D01*
X15559706Y-12398222D02*
X15550182Y-12417269D01*
X15835896Y-12302984D02*
X15797801Y-12302984D01*
X15797801Y-12302984D02*
X15778753Y-12312508D01*
X15778753Y-12312508D02*
X15769229Y-12322031D01*
X15769229Y-12322031D02*
X15750182Y-12350603D01*
X15750182Y-12350603D02*
X15740658Y-12388698D01*
X15740658Y-12388698D02*
X15740658Y-12464888D01*
X15740658Y-12464888D02*
X15750182Y-12483936D01*
X15750182Y-12483936D02*
X15759706Y-12493460D01*
X15759706Y-12493460D02*
X15778753Y-12502984D01*
X15778753Y-12502984D02*
X15816848Y-12502984D01*
X15816848Y-12502984D02*
X15835896Y-12493460D01*
X15835896Y-12493460D02*
X15845420Y-12483936D01*
X15845420Y-12483936D02*
X15854944Y-12464888D01*
X15854944Y-12464888D02*
X15854944Y-12417269D01*
X15854944Y-12417269D02*
X15845420Y-12398222D01*
X15845420Y-12398222D02*
X15835896Y-12388698D01*
X15835896Y-12388698D02*
X15816848Y-12379174D01*
X15816848Y-12379174D02*
X15778753Y-12379174D01*
X15778753Y-12379174D02*
X15759706Y-12388698D01*
X15759706Y-12388698D02*
X15750182Y-12398222D01*
X15750182Y-12398222D02*
X15740658Y-12417269D01*
X15931134Y-12302984D02*
X15931134Y-12341079D01*
X16007325Y-12302984D02*
X16007325Y-12341079D01*
X16302563Y-12579174D02*
X16293039Y-12569650D01*
X16293039Y-12569650D02*
X16273991Y-12541079D01*
X16273991Y-12541079D02*
X16264468Y-12522031D01*
X16264468Y-12522031D02*
X16254944Y-12493460D01*
X16254944Y-12493460D02*
X16245420Y-12445841D01*
X16245420Y-12445841D02*
X16245420Y-12407746D01*
X16245420Y-12407746D02*
X16254944Y-12360127D01*
X16254944Y-12360127D02*
X16264468Y-12331555D01*
X16264468Y-12331555D02*
X16273991Y-12312508D01*
X16273991Y-12312508D02*
X16293039Y-12283936D01*
X16293039Y-12283936D02*
X16302563Y-12274412D01*
X16369229Y-12322031D02*
X16378753Y-12312508D01*
X16378753Y-12312508D02*
X16397801Y-12302984D01*
X16397801Y-12302984D02*
X16445420Y-12302984D01*
X16445420Y-12302984D02*
X16464468Y-12312508D01*
X16464468Y-12312508D02*
X16473991Y-12322031D01*
X16473991Y-12322031D02*
X16483515Y-12341079D01*
X16483515Y-12341079D02*
X16483515Y-12360127D01*
X16483515Y-12360127D02*
X16473991Y-12388698D01*
X16473991Y-12388698D02*
X16359706Y-12502984D01*
X16359706Y-12502984D02*
X16483515Y-12502984D01*
X16721610Y-12502984D02*
X16721610Y-12302984D01*
X16807325Y-12502984D02*
X16807325Y-12398222D01*
X16807325Y-12398222D02*
X16797801Y-12379174D01*
X16797801Y-12379174D02*
X16778753Y-12369650D01*
X16778753Y-12369650D02*
X16750182Y-12369650D01*
X16750182Y-12369650D02*
X16731134Y-12379174D01*
X16731134Y-12379174D02*
X16721610Y-12388698D01*
X16931134Y-12502984D02*
X16912087Y-12493460D01*
X16912087Y-12493460D02*
X16902563Y-12483936D01*
X16902563Y-12483936D02*
X16893039Y-12464888D01*
X16893039Y-12464888D02*
X16893039Y-12407746D01*
X16893039Y-12407746D02*
X16902563Y-12388698D01*
X16902563Y-12388698D02*
X16912087Y-12379174D01*
X16912087Y-12379174D02*
X16931134Y-12369650D01*
X16931134Y-12369650D02*
X16959706Y-12369650D01*
X16959706Y-12369650D02*
X16978753Y-12379174D01*
X16978753Y-12379174D02*
X16988277Y-12388698D01*
X16988277Y-12388698D02*
X16997801Y-12407746D01*
X16997801Y-12407746D02*
X16997801Y-12464888D01*
X16997801Y-12464888D02*
X16988277Y-12483936D01*
X16988277Y-12483936D02*
X16978753Y-12493460D01*
X16978753Y-12493460D02*
X16959706Y-12502984D01*
X16959706Y-12502984D02*
X16931134Y-12502984D01*
X17112087Y-12502984D02*
X17093039Y-12493460D01*
X17093039Y-12493460D02*
X17083515Y-12474412D01*
X17083515Y-12474412D02*
X17083515Y-12302984D01*
X17264468Y-12493460D02*
X17245420Y-12502984D01*
X17245420Y-12502984D02*
X17207325Y-12502984D01*
X17207325Y-12502984D02*
X17188277Y-12493460D01*
X17188277Y-12493460D02*
X17178753Y-12474412D01*
X17178753Y-12474412D02*
X17178753Y-12398222D01*
X17178753Y-12398222D02*
X17188277Y-12379174D01*
X17188277Y-12379174D02*
X17207325Y-12369650D01*
X17207325Y-12369650D02*
X17245420Y-12369650D01*
X17245420Y-12369650D02*
X17264468Y-12379174D01*
X17264468Y-12379174D02*
X17273992Y-12398222D01*
X17273992Y-12398222D02*
X17273992Y-12417269D01*
X17273992Y-12417269D02*
X17178753Y-12436317D01*
X17350182Y-12493460D02*
X17369230Y-12502984D01*
X17369230Y-12502984D02*
X17407325Y-12502984D01*
X17407325Y-12502984D02*
X17426373Y-12493460D01*
X17426373Y-12493460D02*
X17435896Y-12474412D01*
X17435896Y-12474412D02*
X17435896Y-12464888D01*
X17435896Y-12464888D02*
X17426373Y-12445841D01*
X17426373Y-12445841D02*
X17407325Y-12436317D01*
X17407325Y-12436317D02*
X17378753Y-12436317D01*
X17378753Y-12436317D02*
X17359706Y-12426793D01*
X17359706Y-12426793D02*
X17350182Y-12407746D01*
X17350182Y-12407746D02*
X17350182Y-12398222D01*
X17350182Y-12398222D02*
X17359706Y-12379174D01*
X17359706Y-12379174D02*
X17378753Y-12369650D01*
X17378753Y-12369650D02*
X17407325Y-12369650D01*
X17407325Y-12369650D02*
X17426373Y-12379174D01*
X17502563Y-12579174D02*
X17512087Y-12569650D01*
X17512087Y-12569650D02*
X17531134Y-12541079D01*
X17531134Y-12541079D02*
X17540658Y-12522031D01*
X17540658Y-12522031D02*
X17550182Y-12493460D01*
X17550182Y-12493460D02*
X17559706Y-12445841D01*
X17559706Y-12445841D02*
X17559706Y-12407746D01*
X17559706Y-12407746D02*
X17550182Y-12360127D01*
X17550182Y-12360127D02*
X17540658Y-12331555D01*
X17540658Y-12331555D02*
X17531134Y-12312508D01*
X17531134Y-12312508D02*
X17512087Y-12283936D01*
X17512087Y-12283936D02*
X17502563Y-12274412D01*
X17864468Y-12579174D02*
X17854944Y-12569650D01*
X17854944Y-12569650D02*
X17835896Y-12541079D01*
X17835896Y-12541079D02*
X17826373Y-12522031D01*
X17826373Y-12522031D02*
X17816849Y-12493460D01*
X17816849Y-12493460D02*
X17807325Y-12445841D01*
X17807325Y-12445841D02*
X17807325Y-12407746D01*
X17807325Y-12407746D02*
X17816849Y-12360127D01*
X17816849Y-12360127D02*
X17826373Y-12331555D01*
X17826373Y-12331555D02*
X17835896Y-12312508D01*
X17835896Y-12312508D02*
X17854944Y-12283936D01*
X17854944Y-12283936D02*
X17864468Y-12274412D01*
X17940658Y-12369650D02*
X17940658Y-12502984D01*
X17940658Y-12388698D02*
X17950182Y-12379174D01*
X17950182Y-12379174D02*
X17969230Y-12369650D01*
X17969230Y-12369650D02*
X17997801Y-12369650D01*
X17997801Y-12369650D02*
X18016849Y-12379174D01*
X18016849Y-12379174D02*
X18026373Y-12398222D01*
X18026373Y-12398222D02*
X18026373Y-12502984D01*
X18150182Y-12502984D02*
X18131134Y-12493460D01*
X18131134Y-12493460D02*
X18121611Y-12483936D01*
X18121611Y-12483936D02*
X18112087Y-12464888D01*
X18112087Y-12464888D02*
X18112087Y-12407746D01*
X18112087Y-12407746D02*
X18121611Y-12388698D01*
X18121611Y-12388698D02*
X18131134Y-12379174D01*
X18131134Y-12379174D02*
X18150182Y-12369650D01*
X18150182Y-12369650D02*
X18178754Y-12369650D01*
X18178754Y-12369650D02*
X18197801Y-12379174D01*
X18197801Y-12379174D02*
X18207325Y-12388698D01*
X18207325Y-12388698D02*
X18216849Y-12407746D01*
X18216849Y-12407746D02*
X18216849Y-12464888D01*
X18216849Y-12464888D02*
X18207325Y-12483936D01*
X18207325Y-12483936D02*
X18197801Y-12493460D01*
X18197801Y-12493460D02*
X18178754Y-12502984D01*
X18178754Y-12502984D02*
X18150182Y-12502984D01*
X18273992Y-12369650D02*
X18350182Y-12369650D01*
X18302563Y-12302984D02*
X18302563Y-12474412D01*
X18302563Y-12474412D02*
X18312087Y-12493460D01*
X18312087Y-12493460D02*
X18331134Y-12502984D01*
X18331134Y-12502984D02*
X18350182Y-12502984D01*
X18569230Y-12369650D02*
X18569230Y-12569650D01*
X18569230Y-12379174D02*
X18588277Y-12369650D01*
X18588277Y-12369650D02*
X18626373Y-12369650D01*
X18626373Y-12369650D02*
X18645420Y-12379174D01*
X18645420Y-12379174D02*
X18654944Y-12388698D01*
X18654944Y-12388698D02*
X18664468Y-12407746D01*
X18664468Y-12407746D02*
X18664468Y-12464888D01*
X18664468Y-12464888D02*
X18654944Y-12483936D01*
X18654944Y-12483936D02*
X18645420Y-12493460D01*
X18645420Y-12493460D02*
X18626373Y-12502984D01*
X18626373Y-12502984D02*
X18588277Y-12502984D01*
X18588277Y-12502984D02*
X18569230Y-12493460D01*
X18778754Y-12502984D02*
X18759706Y-12493460D01*
X18759706Y-12493460D02*
X18750182Y-12474412D01*
X18750182Y-12474412D02*
X18750182Y-12302984D01*
X18940658Y-12502984D02*
X18940658Y-12398222D01*
X18940658Y-12398222D02*
X18931135Y-12379174D01*
X18931135Y-12379174D02*
X18912087Y-12369650D01*
X18912087Y-12369650D02*
X18873992Y-12369650D01*
X18873992Y-12369650D02*
X18854944Y-12379174D01*
X18940658Y-12493460D02*
X18921611Y-12502984D01*
X18921611Y-12502984D02*
X18873992Y-12502984D01*
X18873992Y-12502984D02*
X18854944Y-12493460D01*
X18854944Y-12493460D02*
X18845420Y-12474412D01*
X18845420Y-12474412D02*
X18845420Y-12455365D01*
X18845420Y-12455365D02*
X18854944Y-12436317D01*
X18854944Y-12436317D02*
X18873992Y-12426793D01*
X18873992Y-12426793D02*
X18921611Y-12426793D01*
X18921611Y-12426793D02*
X18940658Y-12417269D01*
X19007325Y-12369650D02*
X19083515Y-12369650D01*
X19035896Y-12302984D02*
X19035896Y-12474412D01*
X19035896Y-12474412D02*
X19045420Y-12493460D01*
X19045420Y-12493460D02*
X19064468Y-12502984D01*
X19064468Y-12502984D02*
X19083515Y-12502984D01*
X19226373Y-12493460D02*
X19207325Y-12502984D01*
X19207325Y-12502984D02*
X19169230Y-12502984D01*
X19169230Y-12502984D02*
X19150182Y-12493460D01*
X19150182Y-12493460D02*
X19140658Y-12474412D01*
X19140658Y-12474412D02*
X19140658Y-12398222D01*
X19140658Y-12398222D02*
X19150182Y-12379174D01*
X19150182Y-12379174D02*
X19169230Y-12369650D01*
X19169230Y-12369650D02*
X19207325Y-12369650D01*
X19207325Y-12369650D02*
X19226373Y-12379174D01*
X19226373Y-12379174D02*
X19235896Y-12398222D01*
X19235896Y-12398222D02*
X19235896Y-12417269D01*
X19235896Y-12417269D02*
X19140658Y-12436317D01*
X19407325Y-12502984D02*
X19407325Y-12302984D01*
X19407325Y-12493460D02*
X19388277Y-12502984D01*
X19388277Y-12502984D02*
X19350182Y-12502984D01*
X19350182Y-12502984D02*
X19331135Y-12493460D01*
X19331135Y-12493460D02*
X19321611Y-12483936D01*
X19321611Y-12483936D02*
X19312087Y-12464888D01*
X19312087Y-12464888D02*
X19312087Y-12407746D01*
X19312087Y-12407746D02*
X19321611Y-12388698D01*
X19321611Y-12388698D02*
X19331135Y-12379174D01*
X19331135Y-12379174D02*
X19350182Y-12369650D01*
X19350182Y-12369650D02*
X19388277Y-12369650D01*
X19388277Y-12369650D02*
X19407325Y-12379174D01*
X19483516Y-12579174D02*
X19493039Y-12569650D01*
X19493039Y-12569650D02*
X19512087Y-12541079D01*
X19512087Y-12541079D02*
X19521611Y-12522031D01*
X19521611Y-12522031D02*
X19531135Y-12493460D01*
X19531135Y-12493460D02*
X19540658Y-12445841D01*
X19540658Y-12445841D02*
X19540658Y-12407746D01*
X19540658Y-12407746D02*
X19531135Y-12360127D01*
X19531135Y-12360127D02*
X19521611Y-12331555D01*
X19521611Y-12331555D02*
X19512087Y-12312508D01*
X19512087Y-12312508D02*
X19493039Y-12283936D01*
X19493039Y-12283936D02*
X19483516Y-12274412D01*
M02*
