%TF.GenerationSoftware,KiCad,Pcbnew,7.0.8*%
%TF.CreationDate,2024-04-10T13:39:31+02:00*%
%TF.ProjectId,Expansion_Card_Retrofit,45787061-6e73-4696-9f6e-5f436172645f,X1*%
%TF.SameCoordinates,Original*%
%TF.FileFunction,Paste,Top*%
%TF.FilePolarity,Positive*%
%FSLAX46Y46*%
G04 Gerber Fmt 4.6, Leading zero omitted, Abs format (unit mm)*
G04 Created by KiCad (PCBNEW 7.0.8) date 2024-04-10 13:39:31*
%MOMM*%
%LPD*%
G01*
G04 APERTURE LIST*
G04 Aperture macros list*
%AMRoundRect*
0 Rectangle with rounded corners*
0 $1 Rounding radius*
0 $2 $3 $4 $5 $6 $7 $8 $9 X,Y pos of 4 corners*
0 Add a 4 corners polygon primitive as box body*
4,1,4,$2,$3,$4,$5,$6,$7,$8,$9,$2,$3,0*
0 Add four circle primitives for the rounded corners*
1,1,$1+$1,$2,$3*
1,1,$1+$1,$4,$5*
1,1,$1+$1,$6,$7*
1,1,$1+$1,$8,$9*
0 Add four rect primitives between the rounded corners*
20,1,$1+$1,$2,$3,$4,$5,0*
20,1,$1+$1,$4,$5,$6,$7,0*
20,1,$1+$1,$6,$7,$8,$9,0*
20,1,$1+$1,$8,$9,$2,$3,0*%
G04 Aperture macros list end*
%ADD10C,0.010000*%
%ADD11RoundRect,0.249999X0.395001X-0.395001X0.395001X0.395001X-0.395001X0.395001X-0.395001X-0.395001X0*%
%ADD12RoundRect,0.050000X0.050000X-0.387500X0.050000X0.387500X-0.050000X0.387500X-0.050000X-0.387500X0*%
%ADD13RoundRect,0.050000X0.387500X-0.050000X0.387500X0.050000X-0.387500X0.050000X-0.387500X-0.050000X0*%
%ADD14R,0.600000X0.420000*%
%ADD15RoundRect,0.140000X-0.140000X-0.170000X0.140000X-0.170000X0.140000X0.170000X-0.140000X0.170000X0*%
%ADD16RoundRect,0.147500X-0.147500X-0.172500X0.147500X-0.172500X0.147500X0.172500X-0.147500X0.172500X0*%
%ADD17RoundRect,0.140000X-0.170000X0.140000X-0.170000X-0.140000X0.170000X-0.140000X0.170000X0.140000X0*%
%ADD18RoundRect,0.140000X0.170000X-0.140000X0.170000X0.140000X-0.170000X0.140000X-0.170000X-0.140000X0*%
%ADD19R,0.380000X1.000000*%
%ADD20R,0.700000X1.150000*%
%ADD21RoundRect,0.050000X-0.050000X-0.387500X0.050000X-0.387500X0.050000X0.387500X-0.050000X0.387500X0*%
%ADD22RoundRect,0.050000X-0.387500X-0.050000X0.387500X-0.050000X0.387500X0.050000X-0.387500X0.050000X0*%
%ADD23RoundRect,0.249999X-0.395001X-0.395001X0.395001X-0.395001X0.395001X0.395001X-0.395001X0.395001X0*%
%ADD24R,0.425000X0.400000*%
%ADD25R,1.150000X0.950000*%
%ADD26R,0.800000X0.480000*%
%ADD27RoundRect,0.250000X-0.250000X-1.000000X0.250000X-1.000000X0.250000X1.000000X-0.250000X1.000000X0*%
%ADD28RoundRect,0.200000X0.200000X0.250000X-0.200000X0.250000X-0.200000X-0.250000X0.200000X-0.250000X0*%
%ADD29RoundRect,0.200000X0.200000X0.275000X-0.200000X0.275000X-0.200000X-0.275000X0.200000X-0.275000X0*%
%ADD30R,0.250000X0.400000*%
%ADD31R,0.700000X0.400000*%
%ADD32RoundRect,0.135000X-0.185000X0.135000X-0.185000X-0.135000X0.185000X-0.135000X0.185000X0.135000X0*%
%ADD33RoundRect,0.140000X0.140000X0.170000X-0.140000X0.170000X-0.140000X-0.170000X0.140000X-0.170000X0*%
%ADD34RoundRect,0.135000X0.135000X0.185000X-0.135000X0.185000X-0.135000X-0.185000X0.135000X-0.185000X0*%
%ADD35RoundRect,0.135000X0.185000X-0.135000X0.185000X0.135000X-0.185000X0.135000X-0.185000X-0.135000X0*%
%ADD36R,0.700000X1.100000*%
%ADD37R,1.000000X0.800000*%
G04 APERTURE END LIST*
%TO.C,U5*%
D10*
X143450000Y-91650000D02*
X142900000Y-91650000D01*
X142900000Y-91450000D01*
X143450000Y-91450000D01*
X143450000Y-91650000D01*
G36*
X143450000Y-91650000D02*
G01*
X142900000Y-91650000D01*
X142900000Y-91450000D01*
X143450000Y-91450000D01*
X143450000Y-91650000D01*
G37*
X143450000Y-91150000D02*
X142900000Y-91150000D01*
X142900000Y-90950000D01*
X143450000Y-90950000D01*
X143450000Y-91150000D01*
G36*
X143450000Y-91150000D02*
G01*
X142900000Y-91150000D01*
X142900000Y-90950000D01*
X143450000Y-90950000D01*
X143450000Y-91150000D01*
G37*
X143450000Y-90650000D02*
X142900000Y-90650000D01*
X142900000Y-90450000D01*
X143450000Y-90450000D01*
X143450000Y-90650000D01*
G36*
X143450000Y-90650000D02*
G01*
X142900000Y-90650000D01*
X142900000Y-90450000D01*
X143450000Y-90450000D01*
X143450000Y-90650000D01*
G37*
X143450000Y-90150000D02*
X142900000Y-90150000D01*
X142900000Y-89950000D01*
X143450000Y-89950000D01*
X143450000Y-90150000D01*
G36*
X143450000Y-90150000D02*
G01*
X142900000Y-90150000D01*
X142900000Y-89950000D01*
X143450000Y-89950000D01*
X143450000Y-90150000D01*
G37*
X141900000Y-91400000D02*
X141700000Y-91400000D01*
X141700000Y-90900000D01*
X141900000Y-90900000D01*
X141900000Y-91400000D01*
G36*
X141900000Y-91400000D02*
G01*
X141700000Y-91400000D01*
X141700000Y-90900000D01*
X141900000Y-90900000D01*
X141900000Y-91400000D01*
G37*
X141900000Y-90700000D02*
X141700000Y-90700000D01*
X141700000Y-90200000D01*
X141900000Y-90200000D01*
X141900000Y-90700000D01*
G36*
X141900000Y-90700000D02*
G01*
X141700000Y-90700000D01*
X141700000Y-90200000D01*
X141900000Y-90200000D01*
X141900000Y-90700000D01*
G37*
X140700000Y-91650000D02*
X140150000Y-91650000D01*
X140150000Y-91450000D01*
X140700000Y-91450000D01*
X140700000Y-91650000D01*
G36*
X140700000Y-91650000D02*
G01*
X140150000Y-91650000D01*
X140150000Y-91450000D01*
X140700000Y-91450000D01*
X140700000Y-91650000D01*
G37*
X140700000Y-91150000D02*
X140150000Y-91150000D01*
X140150000Y-90950000D01*
X140700000Y-90950000D01*
X140700000Y-91150000D01*
G36*
X140700000Y-91150000D02*
G01*
X140150000Y-91150000D01*
X140150000Y-90950000D01*
X140700000Y-90950000D01*
X140700000Y-91150000D01*
G37*
X140700000Y-90650000D02*
X140150000Y-90650000D01*
X140150000Y-90450000D01*
X140700000Y-90450000D01*
X140700000Y-90650000D01*
G36*
X140700000Y-90650000D02*
G01*
X140150000Y-90650000D01*
X140150000Y-90450000D01*
X140700000Y-90450000D01*
X140700000Y-90650000D01*
G37*
X140700000Y-90150000D02*
X140150000Y-90150000D01*
X140150000Y-89950000D01*
X140700000Y-89950000D01*
X140700000Y-90150000D01*
G36*
X140700000Y-90150000D02*
G01*
X140150000Y-90150000D01*
X140150000Y-89950000D01*
X140700000Y-89950000D01*
X140700000Y-90150000D01*
G37*
%TO.C,U3*%
X128750000Y-100550000D02*
X128550000Y-100550000D01*
X128550000Y-100000000D01*
X128750000Y-100000000D01*
X128750000Y-100550000D01*
G36*
X128750000Y-100550000D02*
G01*
X128550000Y-100550000D01*
X128550000Y-100000000D01*
X128750000Y-100000000D01*
X128750000Y-100550000D01*
G37*
X129250000Y-100550000D02*
X129050000Y-100550000D01*
X129050000Y-100000000D01*
X129250000Y-100000000D01*
X129250000Y-100550000D01*
G36*
X129250000Y-100550000D02*
G01*
X129050000Y-100550000D01*
X129050000Y-100000000D01*
X129250000Y-100000000D01*
X129250000Y-100550000D01*
G37*
X129750000Y-100550000D02*
X129550000Y-100550000D01*
X129550000Y-100000000D01*
X129750000Y-100000000D01*
X129750000Y-100550000D01*
G36*
X129750000Y-100550000D02*
G01*
X129550000Y-100550000D01*
X129550000Y-100000000D01*
X129750000Y-100000000D01*
X129750000Y-100550000D01*
G37*
X130250000Y-100550000D02*
X130050000Y-100550000D01*
X130050000Y-100000000D01*
X130250000Y-100000000D01*
X130250000Y-100550000D01*
G36*
X130250000Y-100550000D02*
G01*
X130050000Y-100550000D01*
X130050000Y-100000000D01*
X130250000Y-100000000D01*
X130250000Y-100550000D01*
G37*
X129300000Y-99000000D02*
X128800000Y-99000000D01*
X128800000Y-98800000D01*
X129300000Y-98800000D01*
X129300000Y-99000000D01*
G36*
X129300000Y-99000000D02*
G01*
X128800000Y-99000000D01*
X128800000Y-98800000D01*
X129300000Y-98800000D01*
X129300000Y-99000000D01*
G37*
X130000000Y-99000000D02*
X129500000Y-99000000D01*
X129500000Y-98800000D01*
X130000000Y-98800000D01*
X130000000Y-99000000D01*
G36*
X130000000Y-99000000D02*
G01*
X129500000Y-99000000D01*
X129500000Y-98800000D01*
X130000000Y-98800000D01*
X130000000Y-99000000D01*
G37*
X128750000Y-97800000D02*
X128550000Y-97800000D01*
X128550000Y-97250000D01*
X128750000Y-97250000D01*
X128750000Y-97800000D01*
G36*
X128750000Y-97800000D02*
G01*
X128550000Y-97800000D01*
X128550000Y-97250000D01*
X128750000Y-97250000D01*
X128750000Y-97800000D01*
G37*
X129250000Y-97800000D02*
X129050000Y-97800000D01*
X129050000Y-97250000D01*
X129250000Y-97250000D01*
X129250000Y-97800000D01*
G36*
X129250000Y-97800000D02*
G01*
X129050000Y-97800000D01*
X129050000Y-97250000D01*
X129250000Y-97250000D01*
X129250000Y-97800000D01*
G37*
X129750000Y-97800000D02*
X129550000Y-97800000D01*
X129550000Y-97250000D01*
X129750000Y-97250000D01*
X129750000Y-97800000D01*
G36*
X129750000Y-97800000D02*
G01*
X129550000Y-97800000D01*
X129550000Y-97250000D01*
X129750000Y-97250000D01*
X129750000Y-97800000D01*
G37*
X130250000Y-97800000D02*
X130050000Y-97800000D01*
X130050000Y-97250000D01*
X130250000Y-97250000D01*
X130250000Y-97800000D01*
G36*
X130250000Y-97800000D02*
G01*
X130050000Y-97800000D01*
X130050000Y-97250000D01*
X130250000Y-97250000D01*
X130250000Y-97800000D01*
G37*
%TD*%
D11*
%TO.C,U2*%
X134500000Y-97500000D03*
X136100000Y-97500000D03*
X134500000Y-95900000D03*
X136100000Y-95900000D03*
D12*
X132700000Y-100137500D03*
X133100000Y-100137500D03*
X133500000Y-100137500D03*
X133900000Y-100137500D03*
X134300000Y-100137500D03*
X134700000Y-100137500D03*
X135100000Y-100137500D03*
X135500000Y-100137500D03*
X135900000Y-100137500D03*
X136300000Y-100137500D03*
X136700000Y-100137500D03*
X137100000Y-100137500D03*
X137500000Y-100137500D03*
X137900000Y-100137500D03*
D13*
X138737500Y-99300000D03*
X138737500Y-98900000D03*
X138737500Y-98500000D03*
X138737500Y-98100000D03*
X138737500Y-97700000D03*
X138737500Y-97300000D03*
X138737500Y-96900000D03*
X138737500Y-96500000D03*
X138737500Y-96100000D03*
X138737500Y-95700000D03*
X138737500Y-95300000D03*
X138737500Y-94900000D03*
X138737500Y-94500000D03*
X138737500Y-94100000D03*
D12*
X137900000Y-93262500D03*
X137500000Y-93262500D03*
X137100000Y-93262500D03*
X136700000Y-93262500D03*
X136300000Y-93262500D03*
X135900000Y-93262500D03*
X135500000Y-93262500D03*
X135100000Y-93262500D03*
X134700000Y-93262500D03*
X134300000Y-93262500D03*
X133900000Y-93262500D03*
X133500000Y-93262500D03*
X133100000Y-93262500D03*
X132700000Y-93262500D03*
D13*
X131862500Y-94100000D03*
X131862500Y-94500000D03*
X131862500Y-94900000D03*
X131862500Y-95300000D03*
X131862500Y-95700000D03*
X131862500Y-96100000D03*
X131862500Y-96500000D03*
X131862500Y-96900000D03*
X131862500Y-97300000D03*
X131862500Y-97700000D03*
X131862500Y-98100000D03*
X131862500Y-98500000D03*
X131862500Y-98900000D03*
X131862500Y-99300000D03*
%TD*%
D14*
%TO.C,Q3*%
X135850000Y-105550000D03*
X135850000Y-104900000D03*
X135850000Y-104250000D03*
X133950000Y-104250000D03*
X133950000Y-104900000D03*
X133950000Y-105550000D03*
%TD*%
D15*
%TO.C,C24*%
X136320000Y-91600000D03*
X137280000Y-91600000D03*
%TD*%
D16*
%TO.C,D1*%
X150815000Y-114212500D03*
X151785000Y-114212500D03*
%TD*%
D17*
%TO.C,C19*%
X140300000Y-99280000D03*
X140300000Y-98320000D03*
%TD*%
D18*
%TO.C,C6*%
X130200000Y-96080000D03*
X130200000Y-95120000D03*
%TD*%
%TO.C,C1*%
X135000000Y-89180000D03*
X135000000Y-88220000D03*
%TD*%
D19*
%TO.C,P1*%
X137550000Y-87090000D03*
X138050000Y-87090000D03*
X138550000Y-87090000D03*
X139050000Y-87090000D03*
X139550000Y-87090000D03*
X140050000Y-87090000D03*
X140550000Y-87090000D03*
X141050000Y-87090000D03*
X141550000Y-87090000D03*
X142050000Y-87090000D03*
X142550000Y-87090000D03*
X143050000Y-87090000D03*
D20*
X136880000Y-87930000D03*
%TD*%
D21*
%TO.C,U4*%
X142700000Y-93262500D03*
X143100000Y-93262500D03*
X143500000Y-93262500D03*
X143900000Y-93262500D03*
X144300000Y-93262500D03*
X144700000Y-93262500D03*
X145100000Y-93262500D03*
X145500000Y-93262500D03*
X145900000Y-93262500D03*
X146300000Y-93262500D03*
X146700000Y-93262500D03*
X147100000Y-93262500D03*
X147500000Y-93262500D03*
X147900000Y-93262500D03*
D22*
X148737500Y-94100000D03*
X148737500Y-94500000D03*
X148737500Y-94900000D03*
X148737500Y-95300000D03*
X148737500Y-95700000D03*
X148737500Y-96100000D03*
X148737500Y-96500000D03*
X148737500Y-96900000D03*
X148737500Y-97300000D03*
X148737500Y-97700000D03*
X148737500Y-98100000D03*
X148737500Y-98500000D03*
X148737500Y-98900000D03*
X148737500Y-99300000D03*
D21*
X147900000Y-100137500D03*
X147500000Y-100137500D03*
X147100000Y-100137500D03*
X146700000Y-100137500D03*
X146300000Y-100137500D03*
X145900000Y-100137500D03*
X145500000Y-100137500D03*
X145100000Y-100137500D03*
X144700000Y-100137500D03*
X144300000Y-100137500D03*
X143900000Y-100137500D03*
X143500000Y-100137500D03*
X143100000Y-100137500D03*
X142700000Y-100137500D03*
D22*
X141862500Y-99300000D03*
X141862500Y-98900000D03*
X141862500Y-98500000D03*
X141862500Y-98100000D03*
X141862500Y-97700000D03*
X141862500Y-97300000D03*
X141862500Y-96900000D03*
X141862500Y-96500000D03*
X141862500Y-96100000D03*
X141862500Y-95700000D03*
X141862500Y-95300000D03*
X141862500Y-94900000D03*
X141862500Y-94500000D03*
X141862500Y-94100000D03*
D23*
X146100000Y-97500000D03*
X146100000Y-95900000D03*
X144500000Y-97500000D03*
X144500000Y-95900000D03*
%TD*%
D18*
%TO.C,C14*%
X149200000Y-90620000D03*
X149200000Y-91580000D03*
%TD*%
%TO.C,C7*%
X128700000Y-93780000D03*
X128700000Y-92820000D03*
%TD*%
%TO.C,C9*%
X128700000Y-91480000D03*
X128700000Y-90520000D03*
%TD*%
D24*
%TO.C,U1*%
X132337500Y-88950000D03*
X132337500Y-88300000D03*
X132337500Y-87650000D03*
X130462500Y-87650000D03*
X130462500Y-88300000D03*
X130462500Y-88950000D03*
D25*
X131400000Y-88625000D03*
D26*
X131400000Y-87600000D03*
%TD*%
D18*
%TO.C,C8*%
X130200000Y-93780000D03*
X130200000Y-92820000D03*
%TD*%
D17*
%TO.C,C22*%
X136600000Y-101720000D03*
X136600000Y-102680000D03*
%TD*%
D27*
%TO.C,J1*%
X138120000Y-105025000D03*
X140660000Y-105025000D03*
X143200000Y-105025000D03*
X145740000Y-105025000D03*
X148280000Y-105025000D03*
%TD*%
D28*
%TO.C,X1*%
X151825000Y-101125000D03*
X151825000Y-99275000D03*
X150375000Y-99275000D03*
X150375000Y-101125000D03*
%TD*%
D18*
%TO.C,C18*%
X142800000Y-102680000D03*
X142800000Y-101720000D03*
%TD*%
%TO.C,C11*%
X128700000Y-96080000D03*
X128700000Y-95120000D03*
%TD*%
%TO.C,C5*%
X140300000Y-96880000D03*
X140300000Y-95920000D03*
%TD*%
D29*
%TO.C,R11*%
X133525000Y-91300000D03*
X131875000Y-91300000D03*
%TD*%
D18*
%TO.C,C16*%
X140300000Y-93520000D03*
X140300000Y-94480000D03*
%TD*%
D30*
%TO.C,Q2*%
X132075000Y-105850000D03*
X132525000Y-105850000D03*
D31*
X132300000Y-105150000D03*
%TD*%
D32*
%TO.C,R12*%
X130200000Y-90490000D03*
X130200000Y-91510000D03*
%TD*%
D18*
%TO.C,C21*%
X150400000Y-96770000D03*
X150400000Y-97730000D03*
%TD*%
D17*
%TO.C,C20*%
X146100000Y-102680000D03*
X146100000Y-101720000D03*
%TD*%
D15*
%TO.C,C2*%
X130420000Y-86100000D03*
X131380000Y-86100000D03*
%TD*%
D32*
%TO.C,R1*%
X138800000Y-89990000D03*
X138800000Y-91010000D03*
%TD*%
D30*
%TO.C,Q1*%
X139925000Y-101750000D03*
X139475000Y-101750000D03*
D31*
X139700000Y-102450000D03*
%TD*%
D33*
%TO.C,C10*%
X132680000Y-101800000D03*
X131720000Y-101800000D03*
%TD*%
D34*
%TO.C,R17*%
X149010000Y-88300000D03*
X147990000Y-88300000D03*
%TD*%
D17*
%TO.C,C12*%
X147600000Y-102680000D03*
X147600000Y-101720000D03*
%TD*%
D35*
%TO.C,R15*%
X138100000Y-102710000D03*
X138100000Y-101690000D03*
%TD*%
D18*
%TO.C,C13*%
X144700000Y-90320000D03*
X144700000Y-91280000D03*
%TD*%
%TO.C,C15*%
X150700000Y-90620000D03*
X150700000Y-91580000D03*
%TD*%
D36*
%TO.C,S1*%
X129650000Y-111150000D03*
X132650000Y-111150000D03*
X134150000Y-111150000D03*
D37*
X135650000Y-114350000D03*
X128150000Y-114350000D03*
X128150000Y-112050000D03*
X135650000Y-112050000D03*
%TD*%
D35*
%TO.C,R16*%
X141300000Y-102710000D03*
X141300000Y-101690000D03*
%TD*%
D32*
%TO.C,R9*%
X146200000Y-91610000D03*
X146200000Y-90590000D03*
%TD*%
%TO.C,R10*%
X147700000Y-91610000D03*
X147700000Y-90590000D03*
%TD*%
D16*
%TO.C,D2*%
X145615000Y-88300000D03*
X146585000Y-88300000D03*
%TD*%
D32*
%TO.C,R4*%
X151800000Y-111552500D03*
X151800000Y-112572500D03*
%TD*%
M02*
