M48
; DRILL file {KiCad 7.0.8} date 2024 April 10, Wednesday 13:39:45
; FORMAT={-:-/ absolute / inch / decimal}
; #@! TF.CreationDate,2024-04-10T13:39:45+02:00
; #@! TF.GenerationSoftware,Kicad,Pcbnew,7.0.8
; #@! TF.FileFunction,Plated,1,4,PTH
FMAT,2
INCH
; #@! TA.AperFunction,Plated,PTH,ViaDrill
T1C0.0059
; #@! TA.AperFunction,Plated,PTH,ViaDrill
T2C0.0079
%
G90
G05
T1
X5.189Y-3.5551
X5.2087Y-4.1102
X5.2126Y-3.6299
X5.2244Y-3.5945
X5.2329Y-3.7283
X5.2402Y-3.4803
X5.2441Y-3.7677
X5.2441Y-3.815
X5.2441Y-3.8622
X5.2598Y-3.7283
X5.2638Y-3.4921
X5.2717Y-3.9921
X5.2756Y-3.8898
X5.2874Y-3.6299
X5.2876Y-3.7283
X5.2992Y-4.1693
X5.3031Y-3.9803
X5.3071Y-4.0079
X5.315Y-3.7283
X5.3189Y-3.8898
X5.3228Y-3.5472
X5.3228Y-4.0472
X5.3228Y-4.122
X5.3228Y-4.1496
X5.3307Y-3.9803
X5.3386Y-3.6299
X5.3465Y-4.0709
X5.3661Y-3.8898
X5.374Y-3.5472
X5.4055Y-3.7244
X5.4213Y-3.7677
X5.4213Y-3.9055
X5.4291Y-3.4843
X5.4331Y-3.7283
X5.4488Y-3.4646
X5.4528Y-3.937
X5.4528Y-3.9646
X5.4685Y-3.6299
X5.4685Y-3.6811
X5.4724Y-3.5118
X5.4882Y-4.0787
X5.4882Y-4.1732
X5.4911Y-3.9724
X5.5512Y-3.7441
X5.5512Y-3.7874
X5.5512Y-3.8189
X5.5551Y-3.9291
X5.563Y-3.5906
X5.563Y-3.6772
X5.5906Y-3.9488
X5.5906Y-4.0866
X5.5906Y-4.1732
X5.5945Y-3.6772
X5.5984Y-3.5512
X5.6299Y-3.7165
X5.6299Y-3.7717
X5.6299Y-3.8307
X5.6299Y-3.8976
X5.6457Y-4.0236
X5.6693Y-4.0354
X5.6772Y-3.9921
X5.6811Y-3.8976
X5.689Y-4.0827
X5.689Y-4.1732
X5.6969Y-3.6299
X5.7165Y-4.0079
X5.7205Y-3.7244
X5.7283Y-3.5394
X5.7283Y-3.5787
X5.7362Y-3.8976
X5.7835Y-3.7244
X5.7835Y-4.0197
X5.7835Y-4.0945
X5.7835Y-4.1732
X5.7992Y-3.8858
X5.8583Y-3.5157
X5.8622Y-3.6811
X5.8858Y-3.937
X5.8937Y-3.7559
X5.9016Y-3.874
X5.9134Y-3.5157
X5.9252Y-3.7205
X5.9764Y-4.3661
T2
X5.1535Y-3.7835
X5.1988Y-4.1959
X5.2313Y-3.9094
X5.2323Y-3.5305
X5.2402Y-3.6339
X5.3661Y-3.6339
X5.3661Y-3.9695
X5.3819Y-4.1181
X5.4252Y-3.511
X5.4291Y-3.815
X5.4764Y-4.1339
X5.5336Y-4.0012
X5.5512Y-3.7047
X5.5512Y-3.8465
X5.7165Y-3.6102
X5.7283Y-3.9811
X5.8937Y-3.6929
X5.8937Y-3.8465
T0
M30
