%TF.GenerationSoftware,KiCad,Pcbnew,7.0.8*%
%TF.CreationDate,2024-04-10T13:39:32+02:00*%
%TF.ProjectId,Expansion_Card_Retrofit,45787061-6e73-4696-9f6e-5f436172645f,X1*%
%TF.SameCoordinates,Original*%
%TF.FileFunction,AssemblyDrawing,Bot*%
%FSLAX46Y46*%
G04 Gerber Fmt 4.6, Leading zero omitted, Abs format (unit mm)*
G04 Created by KiCad (PCBNEW 7.0.8) date 2024-04-10 13:39:32*
%MOMM*%
%LPD*%
G01*
G04 APERTURE LIST*
%ADD10C,0.150000*%
G04 APERTURE END LIST*
D10*
X137933333Y-87254819D02*
X137361905Y-87254819D01*
X137647619Y-88254819D02*
X137647619Y-87254819D01*
X136647619Y-88207200D02*
X136742857Y-88254819D01*
X136742857Y-88254819D02*
X136933333Y-88254819D01*
X136933333Y-88254819D02*
X137028571Y-88207200D01*
X137028571Y-88207200D02*
X137076190Y-88111961D01*
X137076190Y-88111961D02*
X137076190Y-87731009D01*
X137076190Y-87731009D02*
X137028571Y-87635771D01*
X137028571Y-87635771D02*
X136933333Y-87588152D01*
X136933333Y-87588152D02*
X136742857Y-87588152D01*
X136742857Y-87588152D02*
X136647619Y-87635771D01*
X136647619Y-87635771D02*
X136600000Y-87731009D01*
X136600000Y-87731009D02*
X136600000Y-87826247D01*
X136600000Y-87826247D02*
X137076190Y-87921485D01*
X136219047Y-88207200D02*
X136123809Y-88254819D01*
X136123809Y-88254819D02*
X135933333Y-88254819D01*
X135933333Y-88254819D02*
X135838095Y-88207200D01*
X135838095Y-88207200D02*
X135790476Y-88111961D01*
X135790476Y-88111961D02*
X135790476Y-88064342D01*
X135790476Y-88064342D02*
X135838095Y-87969104D01*
X135838095Y-87969104D02*
X135933333Y-87921485D01*
X135933333Y-87921485D02*
X136076190Y-87921485D01*
X136076190Y-87921485D02*
X136171428Y-87873866D01*
X136171428Y-87873866D02*
X136219047Y-87778628D01*
X136219047Y-87778628D02*
X136219047Y-87731009D01*
X136219047Y-87731009D02*
X136171428Y-87635771D01*
X136171428Y-87635771D02*
X136076190Y-87588152D01*
X136076190Y-87588152D02*
X135933333Y-87588152D01*
X135933333Y-87588152D02*
X135838095Y-87635771D01*
X135504761Y-87588152D02*
X135123809Y-87588152D01*
X135361904Y-87254819D02*
X135361904Y-88111961D01*
X135361904Y-88111961D02*
X135314285Y-88207200D01*
X135314285Y-88207200D02*
X135219047Y-88254819D01*
X135219047Y-88254819D02*
X135123809Y-88254819D01*
X134790475Y-88254819D02*
X134790475Y-87254819D01*
X134790475Y-87254819D02*
X134409523Y-87254819D01*
X134409523Y-87254819D02*
X134314285Y-87302438D01*
X134314285Y-87302438D02*
X134266666Y-87350057D01*
X134266666Y-87350057D02*
X134219047Y-87445295D01*
X134219047Y-87445295D02*
X134219047Y-87588152D01*
X134219047Y-87588152D02*
X134266666Y-87683390D01*
X134266666Y-87683390D02*
X134314285Y-87731009D01*
X134314285Y-87731009D02*
X134409523Y-87778628D01*
X134409523Y-87778628D02*
X134790475Y-87778628D01*
X133647618Y-88254819D02*
X133742856Y-88207200D01*
X133742856Y-88207200D02*
X133790475Y-88159580D01*
X133790475Y-88159580D02*
X133838094Y-88064342D01*
X133838094Y-88064342D02*
X133838094Y-87778628D01*
X133838094Y-87778628D02*
X133790475Y-87683390D01*
X133790475Y-87683390D02*
X133742856Y-87635771D01*
X133742856Y-87635771D02*
X133647618Y-87588152D01*
X133647618Y-87588152D02*
X133504761Y-87588152D01*
X133504761Y-87588152D02*
X133409523Y-87635771D01*
X133409523Y-87635771D02*
X133361904Y-87683390D01*
X133361904Y-87683390D02*
X133314285Y-87778628D01*
X133314285Y-87778628D02*
X133314285Y-88064342D01*
X133314285Y-88064342D02*
X133361904Y-88159580D01*
X133361904Y-88159580D02*
X133409523Y-88207200D01*
X133409523Y-88207200D02*
X133504761Y-88254819D01*
X133504761Y-88254819D02*
X133647618Y-88254819D01*
X132885713Y-88254819D02*
X132885713Y-87588152D01*
X132885713Y-87254819D02*
X132933332Y-87302438D01*
X132933332Y-87302438D02*
X132885713Y-87350057D01*
X132885713Y-87350057D02*
X132838094Y-87302438D01*
X132838094Y-87302438D02*
X132885713Y-87254819D01*
X132885713Y-87254819D02*
X132885713Y-87350057D01*
X132409523Y-87588152D02*
X132409523Y-88254819D01*
X132409523Y-87683390D02*
X132361904Y-87635771D01*
X132361904Y-87635771D02*
X132266666Y-87588152D01*
X132266666Y-87588152D02*
X132123809Y-87588152D01*
X132123809Y-87588152D02*
X132028571Y-87635771D01*
X132028571Y-87635771D02*
X131980952Y-87731009D01*
X131980952Y-87731009D02*
X131980952Y-88254819D01*
X131647618Y-87588152D02*
X131266666Y-87588152D01*
X131504761Y-87254819D02*
X131504761Y-88111961D01*
X131504761Y-88111961D02*
X131457142Y-88207200D01*
X131457142Y-88207200D02*
X131361904Y-88254819D01*
X131361904Y-88254819D02*
X131266666Y-88254819D01*
X135861904Y-83854819D02*
X135290476Y-83854819D01*
X135576190Y-84854819D02*
X135576190Y-83854819D01*
X134957142Y-84854819D02*
X134957142Y-83854819D01*
X134957142Y-83854819D02*
X134576190Y-83854819D01*
X134576190Y-83854819D02*
X134480952Y-83902438D01*
X134480952Y-83902438D02*
X134433333Y-83950057D01*
X134433333Y-83950057D02*
X134385714Y-84045295D01*
X134385714Y-84045295D02*
X134385714Y-84188152D01*
X134385714Y-84188152D02*
X134433333Y-84283390D01*
X134433333Y-84283390D02*
X134480952Y-84331009D01*
X134480952Y-84331009D02*
X134576190Y-84378628D01*
X134576190Y-84378628D02*
X134957142Y-84378628D01*
X134004761Y-83950057D02*
X133957142Y-83902438D01*
X133957142Y-83902438D02*
X133861904Y-83854819D01*
X133861904Y-83854819D02*
X133623809Y-83854819D01*
X133623809Y-83854819D02*
X133528571Y-83902438D01*
X133528571Y-83902438D02*
X133480952Y-83950057D01*
X133480952Y-83950057D02*
X133433333Y-84045295D01*
X133433333Y-84045295D02*
X133433333Y-84140533D01*
X133433333Y-84140533D02*
X133480952Y-84283390D01*
X133480952Y-84283390D02*
X134052380Y-84854819D01*
X134052380Y-84854819D02*
X133433333Y-84854819D01*
X149333333Y-87254819D02*
X148761905Y-87254819D01*
X149047619Y-88254819D02*
X149047619Y-87254819D01*
X148047619Y-88207200D02*
X148142857Y-88254819D01*
X148142857Y-88254819D02*
X148333333Y-88254819D01*
X148333333Y-88254819D02*
X148428571Y-88207200D01*
X148428571Y-88207200D02*
X148476190Y-88111961D01*
X148476190Y-88111961D02*
X148476190Y-87731009D01*
X148476190Y-87731009D02*
X148428571Y-87635771D01*
X148428571Y-87635771D02*
X148333333Y-87588152D01*
X148333333Y-87588152D02*
X148142857Y-87588152D01*
X148142857Y-87588152D02*
X148047619Y-87635771D01*
X148047619Y-87635771D02*
X148000000Y-87731009D01*
X148000000Y-87731009D02*
X148000000Y-87826247D01*
X148000000Y-87826247D02*
X148476190Y-87921485D01*
X147619047Y-88207200D02*
X147523809Y-88254819D01*
X147523809Y-88254819D02*
X147333333Y-88254819D01*
X147333333Y-88254819D02*
X147238095Y-88207200D01*
X147238095Y-88207200D02*
X147190476Y-88111961D01*
X147190476Y-88111961D02*
X147190476Y-88064342D01*
X147190476Y-88064342D02*
X147238095Y-87969104D01*
X147238095Y-87969104D02*
X147333333Y-87921485D01*
X147333333Y-87921485D02*
X147476190Y-87921485D01*
X147476190Y-87921485D02*
X147571428Y-87873866D01*
X147571428Y-87873866D02*
X147619047Y-87778628D01*
X147619047Y-87778628D02*
X147619047Y-87731009D01*
X147619047Y-87731009D02*
X147571428Y-87635771D01*
X147571428Y-87635771D02*
X147476190Y-87588152D01*
X147476190Y-87588152D02*
X147333333Y-87588152D01*
X147333333Y-87588152D02*
X147238095Y-87635771D01*
X146904761Y-87588152D02*
X146523809Y-87588152D01*
X146761904Y-87254819D02*
X146761904Y-88111961D01*
X146761904Y-88111961D02*
X146714285Y-88207200D01*
X146714285Y-88207200D02*
X146619047Y-88254819D01*
X146619047Y-88254819D02*
X146523809Y-88254819D01*
X146190475Y-88254819D02*
X146190475Y-87254819D01*
X146190475Y-87254819D02*
X145809523Y-87254819D01*
X145809523Y-87254819D02*
X145714285Y-87302438D01*
X145714285Y-87302438D02*
X145666666Y-87350057D01*
X145666666Y-87350057D02*
X145619047Y-87445295D01*
X145619047Y-87445295D02*
X145619047Y-87588152D01*
X145619047Y-87588152D02*
X145666666Y-87683390D01*
X145666666Y-87683390D02*
X145714285Y-87731009D01*
X145714285Y-87731009D02*
X145809523Y-87778628D01*
X145809523Y-87778628D02*
X146190475Y-87778628D01*
X145047618Y-88254819D02*
X145142856Y-88207200D01*
X145142856Y-88207200D02*
X145190475Y-88159580D01*
X145190475Y-88159580D02*
X145238094Y-88064342D01*
X145238094Y-88064342D02*
X145238094Y-87778628D01*
X145238094Y-87778628D02*
X145190475Y-87683390D01*
X145190475Y-87683390D02*
X145142856Y-87635771D01*
X145142856Y-87635771D02*
X145047618Y-87588152D01*
X145047618Y-87588152D02*
X144904761Y-87588152D01*
X144904761Y-87588152D02*
X144809523Y-87635771D01*
X144809523Y-87635771D02*
X144761904Y-87683390D01*
X144761904Y-87683390D02*
X144714285Y-87778628D01*
X144714285Y-87778628D02*
X144714285Y-88064342D01*
X144714285Y-88064342D02*
X144761904Y-88159580D01*
X144761904Y-88159580D02*
X144809523Y-88207200D01*
X144809523Y-88207200D02*
X144904761Y-88254819D01*
X144904761Y-88254819D02*
X145047618Y-88254819D01*
X144285713Y-88254819D02*
X144285713Y-87588152D01*
X144285713Y-87254819D02*
X144333332Y-87302438D01*
X144333332Y-87302438D02*
X144285713Y-87350057D01*
X144285713Y-87350057D02*
X144238094Y-87302438D01*
X144238094Y-87302438D02*
X144285713Y-87254819D01*
X144285713Y-87254819D02*
X144285713Y-87350057D01*
X143809523Y-87588152D02*
X143809523Y-88254819D01*
X143809523Y-87683390D02*
X143761904Y-87635771D01*
X143761904Y-87635771D02*
X143666666Y-87588152D01*
X143666666Y-87588152D02*
X143523809Y-87588152D01*
X143523809Y-87588152D02*
X143428571Y-87635771D01*
X143428571Y-87635771D02*
X143380952Y-87731009D01*
X143380952Y-87731009D02*
X143380952Y-88254819D01*
X143047618Y-87588152D02*
X142666666Y-87588152D01*
X142904761Y-87254819D02*
X142904761Y-88111961D01*
X142904761Y-88111961D02*
X142857142Y-88207200D01*
X142857142Y-88207200D02*
X142761904Y-88254819D01*
X142761904Y-88254819D02*
X142666666Y-88254819D01*
X147261904Y-83854819D02*
X146690476Y-83854819D01*
X146976190Y-84854819D02*
X146976190Y-83854819D01*
X146357142Y-84854819D02*
X146357142Y-83854819D01*
X146357142Y-83854819D02*
X145976190Y-83854819D01*
X145976190Y-83854819D02*
X145880952Y-83902438D01*
X145880952Y-83902438D02*
X145833333Y-83950057D01*
X145833333Y-83950057D02*
X145785714Y-84045295D01*
X145785714Y-84045295D02*
X145785714Y-84188152D01*
X145785714Y-84188152D02*
X145833333Y-84283390D01*
X145833333Y-84283390D02*
X145880952Y-84331009D01*
X145880952Y-84331009D02*
X145976190Y-84378628D01*
X145976190Y-84378628D02*
X146357142Y-84378628D01*
X144928571Y-84188152D02*
X144928571Y-84854819D01*
X145166666Y-83807200D02*
X145404761Y-84521485D01*
X145404761Y-84521485D02*
X144785714Y-84521485D01*
M02*
