%TF.GenerationSoftware,KiCad,Pcbnew,7.0.8*%
%TF.CreationDate,2024-04-10T13:39:31+02:00*%
%TF.ProjectId,Expansion_Card_Retrofit,45787061-6e73-4696-9f6e-5f436172645f,X1*%
%TF.SameCoordinates,Original*%
%TF.FileFunction,Copper,L4,Bot*%
%TF.FilePolarity,Positive*%
%FSLAX46Y46*%
G04 Gerber Fmt 4.6, Leading zero omitted, Abs format (unit mm)*
G04 Created by KiCad (PCBNEW 7.0.8) date 2024-04-10 13:39:31*
%MOMM*%
%LPD*%
G01*
G04 APERTURE LIST*
G04 Aperture macros list*
%AMRoundRect*
0 Rectangle with rounded corners*
0 $1 Rounding radius*
0 $2 $3 $4 $5 $6 $7 $8 $9 X,Y pos of 4 corners*
0 Add a 4 corners polygon primitive as box body*
4,1,4,$2,$3,$4,$5,$6,$7,$8,$9,$2,$3,0*
0 Add four circle primitives for the rounded corners*
1,1,$1+$1,$2,$3*
1,1,$1+$1,$4,$5*
1,1,$1+$1,$6,$7*
1,1,$1+$1,$8,$9*
0 Add four rect primitives between the rounded corners*
20,1,$1+$1,$2,$3,$4,$5,0*
20,1,$1+$1,$4,$5,$6,$7,0*
20,1,$1+$1,$6,$7,$8,$9,0*
20,1,$1+$1,$8,$9,$2,$3,0*%
G04 Aperture macros list end*
%TA.AperFunction,SMDPad,CuDef*%
%ADD10R,0.380000X1.000000*%
%TD*%
%TA.AperFunction,SMDPad,CuDef*%
%ADD11R,0.700000X1.150000*%
%TD*%
%TA.AperFunction,SMDPad,CuDef*%
%ADD12RoundRect,0.250000X-0.250000X-1.000000X0.250000X-1.000000X0.250000X1.000000X-0.250000X1.000000X0*%
%TD*%
%TA.AperFunction,SMDPad,CuDef*%
%ADD13R,1.500000X1.500000*%
%TD*%
%TA.AperFunction,ViaPad*%
%ADD14C,0.300000*%
%TD*%
%TA.AperFunction,ViaPad*%
%ADD15C,0.400000*%
%TD*%
%TA.AperFunction,Conductor*%
%ADD16C,0.150000*%
%TD*%
%TA.AperFunction,Conductor*%
%ADD17C,0.200000*%
%TD*%
G04 APERTURE END LIST*
D10*
%TO.P,P1,B1,GND*%
%TO.N,GND*%
X143050000Y-87090000D03*
%TO.P,P1,B2*%
%TO.N,N/C*%
X142550000Y-87090000D03*
%TO.P,P1,B3*%
X142050000Y-87090000D03*
%TO.P,P1,B4,VBUS*%
%TO.N,VBUS*%
X141550000Y-87090000D03*
%TO.P,P1,B5,VCONN*%
%TO.N,unconnected-(P1-VCONN-PadB5)*%
X141050000Y-87090000D03*
%TO.P,P1,B8*%
%TO.N,N/C*%
X139550000Y-87090000D03*
%TO.P,P1,B9,VBUS*%
%TO.N,VBUS*%
X139050000Y-87090000D03*
%TO.P,P1,B10*%
%TO.N,N/C*%
X138550000Y-87090000D03*
%TO.P,P1,B11*%
X138050000Y-87090000D03*
%TO.P,P1,B12,GND*%
%TO.N,GND*%
X137550000Y-87090000D03*
D11*
%TO.P,P1,S1,SHIELD*%
X143720000Y-87930000D03*
%TD*%
D12*
%TO.P,J1,2,Pin_2*%
%TO.N,+3V3*%
X138120000Y-105025000D03*
%TO.P,J1,4,Pin_4*%
%TO.N,GPIO2*%
X140660000Y-105025000D03*
%TO.P,J1,6,Pin_6*%
%TO.N,GPIO3*%
X143200000Y-105025000D03*
%TO.P,J1,8,Pin_8*%
%TO.N,GPIO4*%
X145740000Y-105025000D03*
%TO.P,J1,10,Pin_10*%
%TO.N,GPIO5*%
X148280000Y-105025000D03*
%TD*%
D13*
%TO.P,TP2,1,1*%
%TO.N,GND*%
X134600000Y-86050000D03*
%TD*%
%TO.P,TP4,1,1*%
%TO.N,GND*%
X146000000Y-86050000D03*
%TD*%
D14*
%TO.N,GND*%
X144700000Y-92200000D03*
X135800000Y-103400000D03*
X135200000Y-102800000D03*
X144200000Y-101400000D03*
X145500000Y-89900000D03*
X145500000Y-90900000D03*
X138500000Y-100700000D03*
X146900000Y-102100000D03*
X146900000Y-106000000D03*
X134300000Y-92200000D03*
X133200000Y-98100000D03*
X133700000Y-88700000D03*
X145200000Y-101800000D03*
X148800000Y-89300000D03*
X144300000Y-99000000D03*
X133200000Y-96900000D03*
X148900000Y-93500000D03*
X143000000Y-95800000D03*
X133100000Y-88400000D03*
X139000000Y-89200000D03*
X132400000Y-92200000D03*
X149500000Y-100000000D03*
X138400000Y-88000000D03*
X138900000Y-93500000D03*
X133200000Y-95700000D03*
X136300000Y-98800000D03*
X143000000Y-97300000D03*
X142000000Y-103800000D03*
X143000000Y-99000000D03*
X135100000Y-98800000D03*
X149700000Y-95400000D03*
X141300000Y-93400000D03*
X150500000Y-94500000D03*
X149900000Y-98400000D03*
X141000000Y-96200000D03*
X145300000Y-94600000D03*
X132700000Y-91300000D03*
X136500000Y-90100000D03*
X141100000Y-99800000D03*
X142000000Y-100300000D03*
X131800000Y-90300000D03*
X142100000Y-93400000D03*
X146900000Y-104000000D03*
X142000000Y-106000000D03*
X145700000Y-99000000D03*
X144500000Y-106000000D03*
X141000000Y-97000000D03*
X135200000Y-90100000D03*
X139400000Y-103600000D03*
X142200000Y-90200000D03*
X137700000Y-99200000D03*
X150200000Y-89300000D03*
X139400000Y-106000000D03*
X135600000Y-92200000D03*
X144500000Y-103700000D03*
X146900000Y-94600000D03*
X134000000Y-98800000D03*
X147300000Y-98700000D03*
X138500000Y-100000000D03*
X137900000Y-88500000D03*
X143000000Y-94400000D03*
X138900000Y-92200000D03*
D15*
X137900000Y-96900000D03*
D14*
X141300000Y-91200000D03*
D15*
%TO.N,+3V3*%
X145500000Y-101120000D03*
X132874500Y-99300000D03*
X145200000Y-91700000D03*
X132050500Y-106575500D03*
X149700000Y-97700000D03*
X130900000Y-96100000D03*
X133100000Y-92300000D03*
X141000000Y-94100000D03*
X132900000Y-89674500D03*
X136300000Y-92300000D03*
X149700000Y-93800000D03*
X136300000Y-100825500D03*
X139100000Y-105000000D03*
X140552455Y-101631409D03*
X141000000Y-97700000D03*
%TO.N,VBUS*%
X137800000Y-89180000D03*
X136700000Y-104600000D03*
D14*
%TO.N,/Development Board Section/GPIO_ADC3*%
X139475000Y-100900000D03*
X132914820Y-94700000D03*
%TO.N,LED_EN*%
X151800000Y-110900000D03*
X135000000Y-94700000D03*
%TO.N,GPIO2*%
X133900000Y-101400000D03*
X135200000Y-104700000D03*
%TO.N,GPIO3*%
X134800000Y-101800000D03*
%TO.N,GPIO4*%
X134700000Y-101100000D03*
%TO.N,GPIO5*%
X135400000Y-101100000D03*
%TO.N,SWCLK*%
X135200000Y-105400000D03*
X141000000Y-95100000D03*
X137700000Y-95700000D03*
%TO.N,SWDIO*%
X134600000Y-105900000D03*
X137300000Y-94600000D03*
%TO.N,/Development Board Section/RUN*%
X138000000Y-94700000D03*
X132300000Y-104400000D03*
%TO.N,GPIO_ADC0*%
X134304000Y-94700000D03*
X144000000Y-102500000D03*
%TO.N,GPIO_ADC1*%
X133600000Y-94700000D03*
X143400000Y-102200000D03*
%TD*%
D16*
%TO.N,SWCLK*%
X132400000Y-94643477D02*
X132747477Y-94296000D01*
X136296000Y-94296000D02*
X137700000Y-95700000D01*
X135200000Y-105400000D02*
X134253554Y-105400000D01*
X132747477Y-94296000D02*
X136296000Y-94296000D01*
X132400000Y-103546446D02*
X132400000Y-94643477D01*
X134253554Y-105400000D02*
X132400000Y-103546446D01*
D17*
%TO.N,VBUS*%
X133663603Y-106400000D02*
X131525000Y-104261397D01*
X136700000Y-104600000D02*
X134900000Y-106400000D01*
X132385041Y-93421000D02*
X137079000Y-93421000D01*
X131525000Y-94281039D02*
X132385041Y-93421000D01*
X137079000Y-93421000D02*
X137800000Y-92700000D01*
X137800000Y-92700000D02*
X137800000Y-89180000D01*
X131525000Y-104261397D02*
X131525000Y-94281039D01*
X134900000Y-106400000D02*
X133663603Y-106400000D01*
D16*
%TO.N,GPIO_ADC0*%
X135050446Y-95104000D02*
X134708000Y-95104000D01*
X144000000Y-102500000D02*
X144000000Y-102228657D01*
X144000000Y-102228657D02*
X143521343Y-101750000D01*
X141696446Y-101750000D02*
X135050446Y-95104000D01*
X143521343Y-101750000D02*
X141696446Y-101750000D01*
X134708000Y-95104000D02*
X134304000Y-94700000D01*
%TO.N,GPIO_ADC1*%
X141592892Y-102000000D02*
X134946892Y-95354000D01*
X143400000Y-102200000D02*
X143200000Y-102000000D01*
X143200000Y-102000000D02*
X141592892Y-102000000D01*
X134946892Y-95354000D02*
X134254000Y-95354000D01*
X134254000Y-95354000D02*
X133600000Y-94700000D01*
%TO.N,SWDIO*%
X134600000Y-105900000D02*
X134400000Y-105900000D01*
X134400000Y-105900000D02*
X132150000Y-103650000D01*
X132150000Y-103650000D02*
X132150000Y-94539923D01*
X132150000Y-94539923D02*
X132643924Y-94046000D01*
X132643924Y-94046000D02*
X136746000Y-94046000D01*
X136746000Y-94046000D02*
X137300000Y-94600000D01*
%TO.N,LED_EN*%
X135000000Y-94700000D02*
X141800000Y-101500000D01*
X141800000Y-101500000D02*
X143624897Y-101500000D01*
X143624897Y-101500000D02*
X144824897Y-102700000D01*
X147806042Y-102700000D02*
X149000000Y-103893958D01*
X144824897Y-102700000D02*
X147806042Y-102700000D01*
X149000000Y-103893958D02*
X149000000Y-105400000D01*
X149000000Y-105400000D02*
X151800000Y-108200000D01*
X151800000Y-108200000D02*
X151800000Y-110900000D01*
D17*
%TO.N,+3V3*%
X139100000Y-105000000D02*
X138145000Y-105000000D01*
X138145000Y-105000000D02*
X138120000Y-105025000D01*
D16*
%TO.N,/Development Board Section/GPIO_ADC3*%
X134843338Y-95604000D02*
X133818820Y-95604000D01*
X133818820Y-95604000D02*
X132914820Y-94700000D01*
X139475000Y-100235662D02*
X134843338Y-95604000D01*
X139475000Y-100900000D02*
X139475000Y-100235662D01*
%TO.N,GPIO2*%
X139343338Y-102204000D02*
X140660000Y-103520662D01*
X134632657Y-102204000D02*
X139343338Y-102204000D01*
X133900000Y-101471343D02*
X134632657Y-102204000D01*
X133900000Y-101400000D02*
X133900000Y-101471343D01*
X135200000Y-104700000D02*
X134632657Y-104132657D01*
X134632657Y-104132657D02*
X134632657Y-102204000D01*
X140660000Y-103520662D02*
X140660000Y-105025000D01*
%TO.N,GPIO3*%
X139100550Y-101804001D02*
X139296893Y-101804001D01*
X139096549Y-101800000D02*
X139100550Y-101804001D01*
X143200000Y-103307108D02*
X143200000Y-105025000D01*
X140242893Y-102750000D02*
X142642892Y-102750000D01*
X142642892Y-102750000D02*
X143200000Y-103307108D01*
X139296893Y-101804001D02*
X140242893Y-102750000D01*
X134800000Y-101800000D02*
X139096549Y-101800000D01*
%TO.N,GPIO4*%
X134700000Y-101100000D02*
X135150000Y-101550000D01*
X139204104Y-101554000D02*
X139400446Y-101554000D01*
X142746446Y-102500000D02*
X143446446Y-103200000D01*
X139400446Y-101554000D02*
X140346446Y-102500000D01*
X144700000Y-103200000D02*
X145740000Y-104240000D01*
X140346446Y-102500000D02*
X142746446Y-102500000D01*
X139200103Y-101550000D02*
X139204104Y-101554000D01*
X143446446Y-103200000D02*
X144700000Y-103200000D01*
X145740000Y-104240000D02*
X145740000Y-105025000D01*
X135150000Y-101550000D02*
X139200103Y-101550000D01*
%TO.N,GPIO5*%
X143550000Y-102950000D02*
X146950000Y-102950000D01*
X139554000Y-101304000D02*
X140500000Y-102250000D01*
X146950000Y-102950000D02*
X148280000Y-104280000D01*
X135400000Y-101100000D02*
X135600000Y-101300000D01*
X148280000Y-104280000D02*
X148280000Y-105025000D01*
X139303657Y-101300000D02*
X139307657Y-101304000D01*
X140500000Y-102250000D02*
X142850000Y-102250000D01*
X139307657Y-101304000D02*
X139554000Y-101304000D01*
X142850000Y-102250000D02*
X143550000Y-102950000D01*
X135600000Y-101300000D02*
X139303657Y-101300000D01*
%TO.N,SWCLK*%
X141000000Y-95100000D02*
X140100000Y-95100000D01*
X139500000Y-95700000D02*
X137700000Y-95700000D01*
X140100000Y-95100000D02*
X139500000Y-95700000D01*
%TO.N,/Development Board Section/RUN*%
X131900000Y-104000000D02*
X131900000Y-94436370D01*
X131900000Y-94436370D02*
X132540371Y-93796000D01*
X137096000Y-93796000D02*
X138000000Y-94700000D01*
X132540371Y-93796000D02*
X137096000Y-93796000D01*
X132300000Y-104400000D02*
X131900000Y-104000000D01*
%TD*%
%TA.AperFunction,Conductor*%
%TO.N,GND*%
G36*
X133493039Y-85370185D02*
G01*
X133538794Y-85422989D01*
X133550000Y-85474500D01*
X133550000Y-85900000D01*
X134626000Y-85900000D01*
X134693039Y-85919685D01*
X134738794Y-85972489D01*
X134750000Y-86024000D01*
X134750000Y-87099999D01*
X135126000Y-87099999D01*
X135193039Y-87119684D01*
X135238794Y-87172488D01*
X135250000Y-87223999D01*
X135250000Y-87250000D01*
X135525948Y-87250000D01*
X135579748Y-87262279D01*
X135700412Y-87320389D01*
X135700416Y-87320390D01*
X135700419Y-87320391D01*
X135832333Y-87350499D01*
X135832338Y-87350499D01*
X135832340Y-87350500D01*
X135832342Y-87350500D01*
X136936001Y-87350500D01*
X137003040Y-87370185D01*
X137048795Y-87422989D01*
X137060001Y-87474500D01*
X137060001Y-87634785D01*
X137060002Y-87634808D01*
X137062908Y-87659869D01*
X137062909Y-87659873D01*
X137108211Y-87762474D01*
X137108214Y-87762479D01*
X137187520Y-87841785D01*
X137187525Y-87841788D01*
X137290123Y-87887089D01*
X137315206Y-87889999D01*
X137399999Y-87889998D01*
X137400000Y-87889998D01*
X137400000Y-87250000D01*
X137500000Y-87250000D01*
X137500000Y-87060187D01*
X137565551Y-87057510D01*
X137625822Y-87092855D01*
X137657416Y-87155173D01*
X137659500Y-87177814D01*
X137659500Y-87609752D01*
X137671131Y-87668229D01*
X137675627Y-87674958D01*
X137679099Y-87680153D01*
X137699980Y-87746829D01*
X137700000Y-87749047D01*
X137700000Y-87889999D01*
X137784786Y-87889999D01*
X137784808Y-87889997D01*
X137809869Y-87887091D01*
X137809873Y-87887090D01*
X137912474Y-87841788D01*
X137912479Y-87841785D01*
X137927446Y-87826819D01*
X137988769Y-87793334D01*
X138015127Y-87790500D01*
X138259749Y-87790500D01*
X138270030Y-87788454D01*
X138275805Y-87787306D01*
X138324195Y-87787306D01*
X138327715Y-87788006D01*
X138340250Y-87790500D01*
X138340252Y-87790500D01*
X138759749Y-87790500D01*
X138770030Y-87788454D01*
X138775805Y-87787306D01*
X138824195Y-87787306D01*
X138827715Y-87788006D01*
X138840250Y-87790500D01*
X138840252Y-87790500D01*
X139259749Y-87790500D01*
X139270030Y-87788454D01*
X139275805Y-87787306D01*
X139324195Y-87787306D01*
X139327715Y-87788006D01*
X139340250Y-87790500D01*
X139340252Y-87790500D01*
X139759750Y-87790500D01*
X139759751Y-87790499D01*
X139775805Y-87787306D01*
X139818229Y-87778868D01*
X139818229Y-87778867D01*
X139818231Y-87778867D01*
X139884552Y-87734552D01*
X139928867Y-87668231D01*
X139928867Y-87668229D01*
X139928868Y-87668229D01*
X139940499Y-87609752D01*
X139940500Y-87609750D01*
X139940500Y-86570249D01*
X139940499Y-86570247D01*
X139934223Y-86538691D01*
X139940450Y-86469099D01*
X139983314Y-86413922D01*
X140049204Y-86390678D01*
X140055840Y-86390500D01*
X140544160Y-86390500D01*
X140611199Y-86410185D01*
X140656954Y-86462989D01*
X140666898Y-86532147D01*
X140665777Y-86538691D01*
X140659500Y-86570247D01*
X140659500Y-87609752D01*
X140671131Y-87668229D01*
X140671132Y-87668230D01*
X140715447Y-87734552D01*
X140781769Y-87778867D01*
X140781770Y-87778868D01*
X140840247Y-87790499D01*
X140840250Y-87790500D01*
X140840252Y-87790500D01*
X141259749Y-87790500D01*
X141270030Y-87788454D01*
X141275805Y-87787306D01*
X141324195Y-87787306D01*
X141327715Y-87788006D01*
X141340250Y-87790500D01*
X141340252Y-87790500D01*
X141759749Y-87790500D01*
X141770030Y-87788454D01*
X141775805Y-87787306D01*
X141824195Y-87787306D01*
X141827715Y-87788006D01*
X141840250Y-87790500D01*
X141840252Y-87790500D01*
X142259749Y-87790500D01*
X142270030Y-87788454D01*
X142275805Y-87787306D01*
X142324195Y-87787306D01*
X142327715Y-87788006D01*
X142340250Y-87790500D01*
X142584873Y-87790500D01*
X142651912Y-87810185D01*
X142672554Y-87826819D01*
X142687520Y-87841785D01*
X142687525Y-87841788D01*
X142790123Y-87887089D01*
X142815206Y-87889999D01*
X142960637Y-87889999D01*
X143027677Y-87909683D01*
X143029012Y-87911224D01*
X143030000Y-87909061D01*
X143030000Y-87904000D01*
X143049685Y-87836961D01*
X143102489Y-87791206D01*
X143154000Y-87780000D01*
X144369999Y-87780000D01*
X144369999Y-87474500D01*
X144389684Y-87407461D01*
X144442488Y-87361706D01*
X144493999Y-87350500D01*
X144767658Y-87350500D01*
X144767660Y-87350500D01*
X144767662Y-87350499D01*
X144767666Y-87350499D01*
X144899580Y-87320391D01*
X144899580Y-87320390D01*
X144899588Y-87320389D01*
X145020251Y-87262279D01*
X145074052Y-87250000D01*
X145250000Y-87250000D01*
X145250000Y-87223999D01*
X145269685Y-87156960D01*
X145322489Y-87111205D01*
X145374000Y-87099999D01*
X145850000Y-87099999D01*
X145850000Y-86200000D01*
X146150000Y-86200000D01*
X146150000Y-87099999D01*
X146794786Y-87099999D01*
X146794808Y-87099997D01*
X146819869Y-87097091D01*
X146819873Y-87097090D01*
X146922474Y-87051788D01*
X146922479Y-87051785D01*
X147001785Y-86972479D01*
X147001788Y-86972474D01*
X147047089Y-86869877D01*
X147047089Y-86869875D01*
X147049999Y-86844794D01*
X147050000Y-86844791D01*
X147050000Y-86200000D01*
X146150000Y-86200000D01*
X145850000Y-86200000D01*
X145850000Y-86024000D01*
X145869685Y-85956961D01*
X145922489Y-85911206D01*
X145974000Y-85900000D01*
X147049999Y-85900000D01*
X147049999Y-85474500D01*
X147069684Y-85407461D01*
X147122488Y-85361706D01*
X147173999Y-85350500D01*
X151875500Y-85350500D01*
X151942539Y-85370185D01*
X151988294Y-85422989D01*
X151999500Y-85474500D01*
X151999500Y-88317656D01*
X151999610Y-88318632D01*
X152000000Y-88325582D01*
X152000000Y-88750000D01*
X152225948Y-88750000D01*
X152279748Y-88762279D01*
X152400412Y-88820389D01*
X152400416Y-88820390D01*
X152400419Y-88820391D01*
X152532333Y-88850499D01*
X152532338Y-88850499D01*
X152532340Y-88850500D01*
X152543827Y-88850500D01*
X152875500Y-88850500D01*
X152942539Y-88870185D01*
X152988294Y-88922989D01*
X152999500Y-88974500D01*
X152999500Y-103801632D01*
X152979815Y-103868671D01*
X152927011Y-103914426D01*
X152857853Y-103924370D01*
X152794297Y-103895345D01*
X152769910Y-103866646D01*
X152751814Y-103837257D01*
X152692951Y-103741657D01*
X152540620Y-103568575D01*
X152540619Y-103568574D01*
X152540615Y-103568570D01*
X152361234Y-103423730D01*
X152361233Y-103423729D01*
X152159938Y-103311279D01*
X151942541Y-103234468D01*
X151942540Y-103234467D01*
X151942538Y-103234467D01*
X151942534Y-103234466D01*
X151942533Y-103234466D01*
X151715293Y-103195500D01*
X151715285Y-103195500D01*
X151542465Y-103195500D01*
X151542460Y-103195500D01*
X151370265Y-103210155D01*
X151147131Y-103268254D01*
X150937034Y-103363223D01*
X150937032Y-103363224D01*
X150827611Y-103437181D01*
X150746653Y-103491900D01*
X150745999Y-103492342D01*
X150579540Y-103651878D01*
X150442434Y-103837257D01*
X150338630Y-104043138D01*
X150271113Y-104263606D01*
X150241828Y-104492306D01*
X150251613Y-104722662D01*
X150251614Y-104722670D01*
X150300190Y-104948062D01*
X150300190Y-104948063D01*
X150371411Y-105125304D01*
X150386159Y-105162006D01*
X150433161Y-105238342D01*
X150507048Y-105358342D01*
X150659380Y-105531425D01*
X150659384Y-105531429D01*
X150838765Y-105676269D01*
X150838766Y-105676270D01*
X150838769Y-105676271D01*
X150838772Y-105676274D01*
X151040063Y-105788721D01*
X151257462Y-105865533D01*
X151384272Y-105887277D01*
X151484706Y-105904499D01*
X151484715Y-105904500D01*
X151657540Y-105904500D01*
X151829734Y-105889844D01*
X151829737Y-105889843D01*
X151829739Y-105889843D01*
X152052869Y-105831745D01*
X152189208Y-105770116D01*
X152262965Y-105736776D01*
X152262967Y-105736775D01*
X152262967Y-105736774D01*
X152262971Y-105736773D01*
X152454000Y-105607659D01*
X152620462Y-105448119D01*
X152757566Y-105262742D01*
X152764777Y-105248437D01*
X152812535Y-105197440D01*
X152880284Y-105180356D01*
X152946514Y-105202613D01*
X152990198Y-105257142D01*
X152999500Y-105304264D01*
X152999500Y-114625500D01*
X152979815Y-114692539D01*
X152927011Y-114738294D01*
X152875500Y-114749500D01*
X150424500Y-114749500D01*
X150357461Y-114729815D01*
X150311706Y-114677011D01*
X150300500Y-114625500D01*
X150300500Y-107389478D01*
X150320185Y-107322439D01*
X150372989Y-107276684D01*
X150442147Y-107266740D01*
X150505703Y-107295765D01*
X150512181Y-107301797D01*
X151488181Y-108277797D01*
X151521666Y-108339120D01*
X151524500Y-108365478D01*
X151524500Y-110638887D01*
X151510985Y-110695181D01*
X151462498Y-110790341D01*
X151445131Y-110899997D01*
X151445131Y-110900002D01*
X151462498Y-111009658D01*
X151512904Y-111108585D01*
X151512909Y-111108592D01*
X151591407Y-111187090D01*
X151591410Y-111187092D01*
X151591413Y-111187095D01*
X151690339Y-111237500D01*
X151690341Y-111237501D01*
X151799998Y-111254869D01*
X151800000Y-111254869D01*
X151800002Y-111254869D01*
X151909658Y-111237501D01*
X151909659Y-111237500D01*
X151909661Y-111237500D01*
X152008587Y-111187095D01*
X152087095Y-111108587D01*
X152137500Y-111009661D01*
X152137500Y-111009659D01*
X152137501Y-111009658D01*
X152154869Y-110900002D01*
X152154869Y-110899997D01*
X152137501Y-110790341D01*
X152089015Y-110695181D01*
X152075500Y-110638887D01*
X152075500Y-108239344D01*
X152077883Y-108215151D01*
X152080897Y-108199999D01*
X152061898Y-108104486D01*
X152061296Y-108098375D01*
X152059515Y-108092506D01*
X152059515Y-108092505D01*
X152029069Y-108046940D01*
X151998624Y-108001375D01*
X151985775Y-107992790D01*
X151966985Y-107977369D01*
X149311819Y-105322203D01*
X149278334Y-105260880D01*
X149275500Y-105234522D01*
X149275500Y-103933302D01*
X149277883Y-103909109D01*
X149280897Y-103893958D01*
X149259516Y-103786464D01*
X149213994Y-103718336D01*
X149212283Y-103715775D01*
X149212266Y-103715751D01*
X149198624Y-103695334D01*
X149198622Y-103695332D01*
X149198621Y-103695331D01*
X149185775Y-103686748D01*
X149166985Y-103671327D01*
X148028669Y-102533011D01*
X148013247Y-102514219D01*
X148004666Y-102501376D01*
X148004661Y-102501372D01*
X147981666Y-102486007D01*
X147948720Y-102463994D01*
X147913537Y-102440484D01*
X147913535Y-102440483D01*
X147828891Y-102423647D01*
X147828858Y-102423641D01*
X147814896Y-102420864D01*
X147806043Y-102419103D01*
X147806042Y-102419103D01*
X147790888Y-102422117D01*
X147766698Y-102424500D01*
X144990375Y-102424500D01*
X144923336Y-102404815D01*
X144902694Y-102388181D01*
X143847524Y-101333011D01*
X143832102Y-101314219D01*
X143823521Y-101301376D01*
X143823518Y-101301373D01*
X143805585Y-101289391D01*
X143774362Y-101268528D01*
X143732392Y-101240485D01*
X143732391Y-101240484D01*
X143732390Y-101240484D01*
X143647746Y-101223647D01*
X143647713Y-101223641D01*
X143633751Y-101220864D01*
X143624898Y-101219103D01*
X143624897Y-101219103D01*
X143609743Y-101222117D01*
X143585553Y-101224500D01*
X141965478Y-101224500D01*
X141898439Y-101204815D01*
X141877797Y-101188181D01*
X141809619Y-101120003D01*
X145094508Y-101120003D01*
X145114352Y-101245300D01*
X145114352Y-101245301D01*
X145126187Y-101268528D01*
X145171950Y-101358342D01*
X145171952Y-101358344D01*
X145171954Y-101358347D01*
X145261652Y-101448045D01*
X145261654Y-101448046D01*
X145261658Y-101448050D01*
X145374696Y-101505646D01*
X145374697Y-101505646D01*
X145374699Y-101505647D01*
X145499997Y-101525492D01*
X145500000Y-101525492D01*
X145500003Y-101525492D01*
X145625300Y-101505647D01*
X145625301Y-101505647D01*
X145625302Y-101505646D01*
X145625304Y-101505646D01*
X145738342Y-101448050D01*
X145828050Y-101358342D01*
X145885646Y-101245304D01*
X145885646Y-101245302D01*
X145885647Y-101245301D01*
X145885647Y-101245300D01*
X145905492Y-101120003D01*
X145905492Y-101119996D01*
X145885647Y-100994699D01*
X145885647Y-100994698D01*
X145883426Y-100990339D01*
X145828050Y-100881658D01*
X145828046Y-100881654D01*
X145828045Y-100881652D01*
X145738347Y-100791954D01*
X145738344Y-100791952D01*
X145738342Y-100791950D01*
X145625304Y-100734354D01*
X145625303Y-100734353D01*
X145625300Y-100734352D01*
X145500003Y-100714508D01*
X145499997Y-100714508D01*
X145374699Y-100734352D01*
X145374698Y-100734352D01*
X145299337Y-100772751D01*
X145261658Y-100791950D01*
X145261657Y-100791951D01*
X145261652Y-100791954D01*
X145171954Y-100881652D01*
X145171951Y-100881657D01*
X145171950Y-100881658D01*
X145157783Y-100909463D01*
X145114352Y-100994698D01*
X145114352Y-100994699D01*
X145094508Y-101119996D01*
X145094508Y-101120003D01*
X141809619Y-101120003D01*
X138389619Y-97700003D01*
X140594508Y-97700003D01*
X140614352Y-97825300D01*
X140614352Y-97825301D01*
X140614354Y-97825304D01*
X140671950Y-97938342D01*
X140671952Y-97938344D01*
X140671954Y-97938347D01*
X140761652Y-98028045D01*
X140761654Y-98028046D01*
X140761658Y-98028050D01*
X140874696Y-98085646D01*
X140874697Y-98085646D01*
X140874699Y-98085647D01*
X140999997Y-98105492D01*
X141000000Y-98105492D01*
X141000003Y-98105492D01*
X141125300Y-98085647D01*
X141125301Y-98085647D01*
X141125302Y-98085646D01*
X141125304Y-98085646D01*
X141238342Y-98028050D01*
X141328050Y-97938342D01*
X141385646Y-97825304D01*
X141385646Y-97825302D01*
X141385647Y-97825301D01*
X141385647Y-97825300D01*
X141405492Y-97700003D01*
X149294508Y-97700003D01*
X149314352Y-97825300D01*
X149314352Y-97825301D01*
X149314354Y-97825304D01*
X149371950Y-97938342D01*
X149371952Y-97938344D01*
X149371954Y-97938347D01*
X149461652Y-98028045D01*
X149461654Y-98028046D01*
X149461658Y-98028050D01*
X149574696Y-98085646D01*
X149574697Y-98085646D01*
X149574699Y-98085647D01*
X149699997Y-98105492D01*
X149700000Y-98105492D01*
X149700003Y-98105492D01*
X149825300Y-98085647D01*
X149825301Y-98085647D01*
X149825302Y-98085646D01*
X149825304Y-98085646D01*
X149938342Y-98028050D01*
X150028050Y-97938342D01*
X150085646Y-97825304D01*
X150085646Y-97825302D01*
X150085647Y-97825301D01*
X150085647Y-97825300D01*
X150105492Y-97700003D01*
X150105492Y-97699996D01*
X150085647Y-97574699D01*
X150085647Y-97574698D01*
X150085646Y-97574696D01*
X150028050Y-97461658D01*
X150028046Y-97461654D01*
X150028045Y-97461652D01*
X149938347Y-97371954D01*
X149938344Y-97371952D01*
X149938342Y-97371950D01*
X149825304Y-97314354D01*
X149825303Y-97314353D01*
X149825300Y-97314352D01*
X149700003Y-97294508D01*
X149699997Y-97294508D01*
X149574699Y-97314352D01*
X149574698Y-97314352D01*
X149499337Y-97352751D01*
X149461658Y-97371950D01*
X149461657Y-97371951D01*
X149461652Y-97371954D01*
X149371954Y-97461652D01*
X149371951Y-97461657D01*
X149314352Y-97574698D01*
X149314352Y-97574699D01*
X149294508Y-97699996D01*
X149294508Y-97700003D01*
X141405492Y-97700003D01*
X141405492Y-97699996D01*
X141385647Y-97574699D01*
X141385647Y-97574698D01*
X141385646Y-97574696D01*
X141328050Y-97461658D01*
X141328046Y-97461654D01*
X141328045Y-97461652D01*
X141238347Y-97371954D01*
X141238344Y-97371952D01*
X141238342Y-97371950D01*
X141125304Y-97314354D01*
X141125303Y-97314353D01*
X141125300Y-97314352D01*
X141000003Y-97294508D01*
X140999997Y-97294508D01*
X140874699Y-97314352D01*
X140874698Y-97314352D01*
X140799337Y-97352751D01*
X140761658Y-97371950D01*
X140761657Y-97371951D01*
X140761652Y-97371954D01*
X140671954Y-97461652D01*
X140671951Y-97461657D01*
X140614352Y-97574698D01*
X140614352Y-97574699D01*
X140594508Y-97699996D01*
X140594508Y-97700003D01*
X138389619Y-97700003D01*
X135472797Y-94783181D01*
X135439312Y-94721858D01*
X135444296Y-94652166D01*
X135486168Y-94596233D01*
X135551632Y-94571816D01*
X135560478Y-94571500D01*
X136130522Y-94571500D01*
X136197561Y-94591185D01*
X136218203Y-94607819D01*
X137323180Y-95712796D01*
X137356665Y-95774119D01*
X137357972Y-95781078D01*
X137362498Y-95809658D01*
X137412904Y-95908585D01*
X137412909Y-95908592D01*
X137491407Y-95987090D01*
X137491410Y-95987092D01*
X137491413Y-95987095D01*
X137590339Y-96037500D01*
X137590341Y-96037501D01*
X137699998Y-96054869D01*
X137700000Y-96054869D01*
X137700002Y-96054869D01*
X137809656Y-96037501D01*
X137809656Y-96037500D01*
X137809661Y-96037500D01*
X137904820Y-95989014D01*
X137961112Y-95975500D01*
X139460656Y-95975500D01*
X139484846Y-95977882D01*
X139500000Y-95980897D01*
X139527132Y-95975500D01*
X139527133Y-95975500D01*
X139550734Y-95970805D01*
X139607493Y-95959516D01*
X139607494Y-95959515D01*
X139607495Y-95959515D01*
X139649465Y-95931471D01*
X139675622Y-95913994D01*
X139675621Y-95913994D01*
X139689053Y-95905020D01*
X139689055Y-95905017D01*
X139698624Y-95898624D01*
X139707208Y-95885775D01*
X139722624Y-95866990D01*
X140177797Y-95411819D01*
X140239120Y-95378334D01*
X140265478Y-95375500D01*
X140738888Y-95375500D01*
X140795179Y-95389014D01*
X140890339Y-95437500D01*
X140890341Y-95437500D01*
X140890343Y-95437501D01*
X140999998Y-95454869D01*
X141000000Y-95454869D01*
X141000002Y-95454869D01*
X141109658Y-95437501D01*
X141109659Y-95437500D01*
X141109661Y-95437500D01*
X141208587Y-95387095D01*
X141287095Y-95308587D01*
X141337500Y-95209661D01*
X141337500Y-95209659D01*
X141337501Y-95209658D01*
X141354869Y-95100002D01*
X141354869Y-95099997D01*
X141337501Y-94990341D01*
X141310577Y-94937500D01*
X141287095Y-94891413D01*
X141287092Y-94891410D01*
X141287090Y-94891407D01*
X141208592Y-94812909D01*
X141208588Y-94812906D01*
X141208587Y-94812905D01*
X141109661Y-94762500D01*
X141109660Y-94762499D01*
X141109657Y-94762498D01*
X141109658Y-94762498D01*
X141016755Y-94747784D01*
X141000312Y-94739989D01*
X140983245Y-94747784D01*
X140890342Y-94762498D01*
X140857605Y-94779178D01*
X140795179Y-94810985D01*
X140738888Y-94824500D01*
X140139344Y-94824500D01*
X140115153Y-94822117D01*
X140100000Y-94819103D01*
X140099999Y-94819103D01*
X140099998Y-94819103D01*
X140076949Y-94823688D01*
X140076944Y-94823689D01*
X139992509Y-94840484D01*
X139992507Y-94840484D01*
X139992505Y-94840485D01*
X139992503Y-94840485D01*
X139992498Y-94840488D01*
X139990084Y-94842102D01*
X139929023Y-94882901D01*
X139929014Y-94882908D01*
X139924378Y-94886006D01*
X139924376Y-94886007D01*
X139913841Y-94893047D01*
X139901374Y-94901377D01*
X139892791Y-94914222D01*
X139877372Y-94933010D01*
X139422203Y-95388181D01*
X139360880Y-95421666D01*
X139334522Y-95424500D01*
X137961112Y-95424500D01*
X137904820Y-95410985D01*
X137809661Y-95362500D01*
X137809659Y-95362499D01*
X137809656Y-95362498D01*
X137781078Y-95357972D01*
X137717943Y-95328042D01*
X137712796Y-95323180D01*
X137475660Y-95086044D01*
X137442175Y-95024721D01*
X137447159Y-94955029D01*
X137489031Y-94899096D01*
X137507045Y-94887880D01*
X137508587Y-94887095D01*
X137515999Y-94879683D01*
X137577321Y-94846196D01*
X137647013Y-94851178D01*
X137702948Y-94893047D01*
X137710942Y-94905885D01*
X137712909Y-94908592D01*
X137791407Y-94987090D01*
X137791410Y-94987092D01*
X137791413Y-94987095D01*
X137865259Y-95024721D01*
X137890341Y-95037501D01*
X137999998Y-95054869D01*
X138000000Y-95054869D01*
X138000002Y-95054869D01*
X138109658Y-95037501D01*
X138109659Y-95037500D01*
X138109661Y-95037500D01*
X138208587Y-94987095D01*
X138287095Y-94908587D01*
X138337500Y-94809661D01*
X138337500Y-94809659D01*
X138337501Y-94809658D01*
X138354869Y-94700002D01*
X138354869Y-94699997D01*
X138337501Y-94590341D01*
X138327901Y-94571500D01*
X138287095Y-94491413D01*
X138287092Y-94491410D01*
X138287090Y-94491407D01*
X138208592Y-94412909D01*
X138208588Y-94412906D01*
X138208587Y-94412905D01*
X138204743Y-94410946D01*
X138109658Y-94362498D01*
X138081078Y-94357972D01*
X138017943Y-94328042D01*
X138012796Y-94323180D01*
X137789619Y-94100003D01*
X140594508Y-94100003D01*
X140614352Y-94225300D01*
X140614352Y-94225301D01*
X140624989Y-94246176D01*
X140671950Y-94338342D01*
X140671952Y-94338344D01*
X140671954Y-94338347D01*
X140761652Y-94428045D01*
X140761654Y-94428046D01*
X140761658Y-94428050D01*
X140874696Y-94485646D01*
X140983246Y-94502838D01*
X140999686Y-94510632D01*
X141016752Y-94502838D01*
X141125304Y-94485646D01*
X141238342Y-94428050D01*
X141328050Y-94338342D01*
X141385646Y-94225304D01*
X141385646Y-94225302D01*
X141385647Y-94225301D01*
X141385647Y-94225300D01*
X141405492Y-94100003D01*
X141405492Y-94099996D01*
X141385647Y-93974699D01*
X141385647Y-93974698D01*
X141360479Y-93925304D01*
X141328050Y-93861658D01*
X141328046Y-93861654D01*
X141328045Y-93861652D01*
X141266396Y-93800003D01*
X149294508Y-93800003D01*
X149314352Y-93925300D01*
X149314352Y-93925301D01*
X149314354Y-93925304D01*
X149371950Y-94038342D01*
X149371952Y-94038344D01*
X149371954Y-94038347D01*
X149461652Y-94128045D01*
X149461654Y-94128046D01*
X149461658Y-94128050D01*
X149574696Y-94185646D01*
X149574697Y-94185646D01*
X149574699Y-94185647D01*
X149699997Y-94205492D01*
X149700000Y-94205492D01*
X149700003Y-94205492D01*
X149825300Y-94185647D01*
X149825301Y-94185647D01*
X149825302Y-94185646D01*
X149825304Y-94185646D01*
X149938342Y-94128050D01*
X150028050Y-94038342D01*
X150085646Y-93925304D01*
X150085646Y-93925302D01*
X150085647Y-93925301D01*
X150085647Y-93925300D01*
X150105492Y-93800003D01*
X150105492Y-93799996D01*
X150085647Y-93674699D01*
X150085647Y-93674698D01*
X150057968Y-93620376D01*
X150028050Y-93561658D01*
X150028046Y-93561654D01*
X150028045Y-93561652D01*
X149938347Y-93471954D01*
X149938344Y-93471952D01*
X149938342Y-93471950D01*
X149825304Y-93414354D01*
X149825303Y-93414353D01*
X149825300Y-93414352D01*
X149700003Y-93394508D01*
X149699997Y-93394508D01*
X149574699Y-93414352D01*
X149574698Y-93414352D01*
X149499337Y-93452751D01*
X149461658Y-93471950D01*
X149461657Y-93471951D01*
X149461652Y-93471954D01*
X149371954Y-93561652D01*
X149371951Y-93561657D01*
X149314352Y-93674698D01*
X149314352Y-93674699D01*
X149294508Y-93799996D01*
X149294508Y-93800003D01*
X141266396Y-93800003D01*
X141238347Y-93771954D01*
X141238344Y-93771952D01*
X141238342Y-93771950D01*
X141125304Y-93714354D01*
X141125303Y-93714353D01*
X141125300Y-93714352D01*
X141000003Y-93694508D01*
X140999997Y-93694508D01*
X140874699Y-93714352D01*
X140874698Y-93714352D01*
X140799337Y-93752751D01*
X140761658Y-93771950D01*
X140761657Y-93771951D01*
X140761652Y-93771954D01*
X140671954Y-93861652D01*
X140671951Y-93861657D01*
X140614352Y-93974698D01*
X140614352Y-93974699D01*
X140594508Y-94099996D01*
X140594508Y-94100003D01*
X137789619Y-94100003D01*
X137394974Y-93705358D01*
X137361489Y-93644035D01*
X137366473Y-93574343D01*
X137394974Y-93529996D01*
X137530462Y-93394508D01*
X137968059Y-92956910D01*
X137974532Y-92951279D01*
X137984224Y-92943959D01*
X137984228Y-92943958D01*
X138016459Y-92908600D01*
X138018367Y-92906602D01*
X138032174Y-92892797D01*
X138033684Y-92890592D01*
X138039023Y-92883851D01*
X138041368Y-92881278D01*
X138059916Y-92860933D01*
X138062417Y-92854476D01*
X138075750Y-92829184D01*
X138079657Y-92823481D01*
X138086757Y-92793294D01*
X138089296Y-92785092D01*
X138100500Y-92756173D01*
X138100500Y-92749248D01*
X138103794Y-92720856D01*
X138105379Y-92714119D01*
X138101095Y-92683408D01*
X138100500Y-92674833D01*
X138100500Y-91700003D01*
X144794508Y-91700003D01*
X144814352Y-91825300D01*
X144814352Y-91825301D01*
X144814354Y-91825304D01*
X144871950Y-91938342D01*
X144871952Y-91938344D01*
X144871954Y-91938347D01*
X144961652Y-92028045D01*
X144961654Y-92028046D01*
X144961658Y-92028050D01*
X145074696Y-92085646D01*
X145074697Y-92085646D01*
X145074699Y-92085647D01*
X145199997Y-92105492D01*
X145200000Y-92105492D01*
X145200003Y-92105492D01*
X145325300Y-92085647D01*
X145325301Y-92085647D01*
X145325302Y-92085646D01*
X145325304Y-92085646D01*
X145438342Y-92028050D01*
X145528050Y-91938342D01*
X145585646Y-91825304D01*
X145585646Y-91825302D01*
X145585647Y-91825301D01*
X145585647Y-91825300D01*
X145605492Y-91700003D01*
X145605492Y-91699996D01*
X145585647Y-91574699D01*
X145585647Y-91574698D01*
X145585646Y-91574696D01*
X145528050Y-91461658D01*
X145528046Y-91461654D01*
X145528045Y-91461652D01*
X145438347Y-91371954D01*
X145438344Y-91371952D01*
X145438342Y-91371950D01*
X145325304Y-91314354D01*
X145325303Y-91314353D01*
X145325300Y-91314352D01*
X145200003Y-91294508D01*
X145199997Y-91294508D01*
X145074699Y-91314352D01*
X145074698Y-91314352D01*
X144999337Y-91352751D01*
X144961658Y-91371950D01*
X144961657Y-91371951D01*
X144961652Y-91371954D01*
X144871954Y-91461652D01*
X144871951Y-91461657D01*
X144814352Y-91574698D01*
X144814352Y-91574699D01*
X144794508Y-91699996D01*
X144794508Y-91700003D01*
X138100500Y-91700003D01*
X138100500Y-89496551D01*
X138120185Y-89429512D01*
X138124181Y-89423666D01*
X138128044Y-89418347D01*
X138128050Y-89418342D01*
X138185646Y-89305304D01*
X138185646Y-89305302D01*
X138185647Y-89305301D01*
X138185647Y-89305300D01*
X138205492Y-89180003D01*
X138205492Y-89179996D01*
X138185647Y-89054699D01*
X138185647Y-89054698D01*
X138185646Y-89054696D01*
X138128050Y-88941658D01*
X138128046Y-88941654D01*
X138128045Y-88941652D01*
X138038347Y-88851954D01*
X138038344Y-88851952D01*
X138038342Y-88851950D01*
X137925304Y-88794354D01*
X137925303Y-88794353D01*
X137925300Y-88794352D01*
X137800003Y-88774508D01*
X137799997Y-88774508D01*
X137674699Y-88794352D01*
X137674698Y-88794352D01*
X137599337Y-88832751D01*
X137561658Y-88851950D01*
X137561657Y-88851951D01*
X137561652Y-88851954D01*
X137471954Y-88941652D01*
X137471951Y-88941657D01*
X137414352Y-89054698D01*
X137414352Y-89054699D01*
X137394508Y-89179996D01*
X137394508Y-89180003D01*
X137414352Y-89305300D01*
X137414352Y-89305301D01*
X137471949Y-89418340D01*
X137475819Y-89423666D01*
X137499298Y-89489473D01*
X137499500Y-89496551D01*
X137499500Y-92524167D01*
X137479815Y-92591206D01*
X137463181Y-92611848D01*
X136990848Y-93084181D01*
X136929525Y-93117666D01*
X136903167Y-93120500D01*
X132447883Y-93120500D01*
X132439309Y-93119905D01*
X132427280Y-93118227D01*
X132427277Y-93118227D01*
X132402261Y-93119383D01*
X132379532Y-93120434D01*
X132376669Y-93120500D01*
X132357197Y-93120500D01*
X132357192Y-93120500D01*
X132357190Y-93120501D01*
X132354556Y-93120993D01*
X132346026Y-93121982D01*
X132315049Y-93123415D01*
X132315047Y-93123415D01*
X132308706Y-93126215D01*
X132281420Y-93134664D01*
X132274613Y-93135936D01*
X132274607Y-93135939D01*
X132248243Y-93152261D01*
X132240645Y-93156266D01*
X132212275Y-93168794D01*
X132207373Y-93173696D01*
X132184984Y-93191430D01*
X132179090Y-93195079D01*
X132179085Y-93195084D01*
X132160401Y-93219825D01*
X132154759Y-93226309D01*
X131356948Y-94024119D01*
X131350464Y-94029761D01*
X131340770Y-94037081D01*
X131308570Y-94072404D01*
X131306613Y-94074453D01*
X131292826Y-94088242D01*
X131292822Y-94088246D01*
X131291306Y-94090459D01*
X131285976Y-94097187D01*
X131265083Y-94120105D01*
X131265083Y-94120106D01*
X131262578Y-94126572D01*
X131249259Y-94151841D01*
X131245345Y-94157554D01*
X131245343Y-94157560D01*
X131238244Y-94187738D01*
X131235702Y-94195946D01*
X131224500Y-94224865D01*
X131224500Y-94231790D01*
X131221206Y-94260180D01*
X131219621Y-94266916D01*
X131219621Y-94266920D01*
X131223905Y-94297629D01*
X131224500Y-94306205D01*
X131224500Y-95613499D01*
X131204815Y-95680538D01*
X131152011Y-95726293D01*
X131082853Y-95736237D01*
X131044208Y-95723985D01*
X131025305Y-95714354D01*
X131025300Y-95714352D01*
X130900003Y-95694508D01*
X130899997Y-95694508D01*
X130774699Y-95714352D01*
X130774698Y-95714352D01*
X130731748Y-95736237D01*
X130661658Y-95771950D01*
X130661657Y-95771951D01*
X130661652Y-95771954D01*
X130571954Y-95861652D01*
X130571951Y-95861657D01*
X130571950Y-95861658D01*
X130562859Y-95879500D01*
X130514352Y-95974698D01*
X130514352Y-95974699D01*
X130494508Y-96099996D01*
X130494508Y-96100003D01*
X130514352Y-96225300D01*
X130514352Y-96225301D01*
X130514354Y-96225304D01*
X130571950Y-96338342D01*
X130571952Y-96338344D01*
X130571954Y-96338347D01*
X130661652Y-96428045D01*
X130661654Y-96428046D01*
X130661658Y-96428050D01*
X130774696Y-96485646D01*
X130774697Y-96485646D01*
X130774699Y-96485647D01*
X130899997Y-96505492D01*
X130900000Y-96505492D01*
X130900003Y-96505492D01*
X131025300Y-96485647D01*
X131025301Y-96485646D01*
X131025304Y-96485646D01*
X131044206Y-96476014D01*
X131112874Y-96463119D01*
X131177614Y-96489395D01*
X131217872Y-96546501D01*
X131224500Y-96586500D01*
X131224500Y-104198555D01*
X131223905Y-104207129D01*
X131222227Y-104219160D01*
X131224434Y-104266906D01*
X131224500Y-104269769D01*
X131224500Y-104289242D01*
X131224993Y-104291879D01*
X131225982Y-104300412D01*
X131227415Y-104331388D01*
X131227416Y-104331394D01*
X131230214Y-104337731D01*
X131238664Y-104365017D01*
X131239937Y-104371826D01*
X131239937Y-104371827D01*
X131256260Y-104398190D01*
X131260263Y-104405783D01*
X131272794Y-104434162D01*
X131272795Y-104434163D01*
X131272796Y-104434165D01*
X131277689Y-104439058D01*
X131295435Y-104461462D01*
X131299077Y-104467345D01*
X131299080Y-104467348D01*
X131323826Y-104486036D01*
X131330311Y-104491679D01*
X133406681Y-106568049D01*
X133412324Y-106574533D01*
X133419644Y-106584226D01*
X133419645Y-106584228D01*
X133434464Y-106597737D01*
X133454978Y-106616439D01*
X133457026Y-106618394D01*
X133470806Y-106632174D01*
X133473016Y-106633688D01*
X133479746Y-106639018D01*
X133488848Y-106647316D01*
X133502667Y-106659914D01*
X133502668Y-106659914D01*
X133502670Y-106659916D01*
X133509133Y-106662419D01*
X133534410Y-106675743D01*
X133540122Y-106679656D01*
X133570305Y-106686754D01*
X133578506Y-106689294D01*
X133607430Y-106700500D01*
X133614354Y-106700500D01*
X133642744Y-106703793D01*
X133649484Y-106705379D01*
X133680194Y-106701095D01*
X133688769Y-106700500D01*
X134837159Y-106700500D01*
X134845733Y-106701095D01*
X134857761Y-106702772D01*
X134857761Y-106702771D01*
X134857765Y-106702773D01*
X134900920Y-106700778D01*
X134905510Y-106700566D01*
X134908373Y-106700500D01*
X134927843Y-106700500D01*
X134927844Y-106700500D01*
X134930469Y-106700009D01*
X134939021Y-106699016D01*
X134940245Y-106698959D01*
X134969992Y-106697585D01*
X134976322Y-106694789D01*
X135003629Y-106686332D01*
X135010433Y-106685061D01*
X135036797Y-106668736D01*
X135044392Y-106664733D01*
X135072765Y-106652206D01*
X135077661Y-106647309D01*
X135100069Y-106629561D01*
X135105952Y-106625919D01*
X135124649Y-106601158D01*
X135130266Y-106594703D01*
X136694656Y-105030313D01*
X136755977Y-104996830D01*
X136762901Y-104995529D01*
X136825304Y-104985646D01*
X136938342Y-104928050D01*
X137028050Y-104838342D01*
X137085646Y-104725304D01*
X137085646Y-104725302D01*
X137085647Y-104725301D01*
X137085647Y-104725300D01*
X137105492Y-104600003D01*
X137105492Y-104599996D01*
X137085647Y-104474699D01*
X137085647Y-104474698D01*
X137064994Y-104434165D01*
X137028050Y-104361658D01*
X137028046Y-104361654D01*
X137028045Y-104361652D01*
X136938347Y-104271954D01*
X136938344Y-104271952D01*
X136938342Y-104271950D01*
X136825304Y-104214354D01*
X136825303Y-104214353D01*
X136825300Y-104214352D01*
X136700003Y-104194508D01*
X136699997Y-104194508D01*
X136574699Y-104214352D01*
X136574698Y-104214352D01*
X136499337Y-104252751D01*
X136461658Y-104271950D01*
X136461657Y-104271951D01*
X136461652Y-104271954D01*
X136371954Y-104361652D01*
X136371951Y-104361657D01*
X136371950Y-104361658D01*
X136366769Y-104371826D01*
X136314352Y-104474698D01*
X136304475Y-104537061D01*
X136274545Y-104600196D01*
X136269683Y-104605343D01*
X135672453Y-105202574D01*
X135611130Y-105236059D01*
X135541439Y-105231075D01*
X135495570Y-105196738D01*
X135493996Y-105198313D01*
X135433364Y-105137681D01*
X135399879Y-105076358D01*
X135404863Y-105006666D01*
X135433364Y-104962319D01*
X135487090Y-104908592D01*
X135487095Y-104908587D01*
X135537500Y-104809661D01*
X135537500Y-104809659D01*
X135537501Y-104809658D01*
X135554869Y-104700002D01*
X135554869Y-104699997D01*
X135537501Y-104590341D01*
X135537500Y-104590339D01*
X135487095Y-104491413D01*
X135487092Y-104491410D01*
X135487090Y-104491407D01*
X135408592Y-104412909D01*
X135408588Y-104412906D01*
X135408587Y-104412905D01*
X135379707Y-104398190D01*
X135309658Y-104362498D01*
X135281078Y-104357972D01*
X135217943Y-104328042D01*
X135212796Y-104323180D01*
X134944476Y-104054860D01*
X134910991Y-103993537D01*
X134908157Y-103967179D01*
X134908157Y-102603500D01*
X134927842Y-102536461D01*
X134980646Y-102490706D01*
X135032157Y-102479500D01*
X139177860Y-102479500D01*
X139244899Y-102499185D01*
X139265541Y-102515819D01*
X140195810Y-103446088D01*
X140229295Y-103507411D01*
X140224311Y-103577103D01*
X140182439Y-103633036D01*
X140181763Y-103633539D01*
X140087850Y-103702850D01*
X140007207Y-103812117D01*
X140007206Y-103812119D01*
X139962353Y-103940298D01*
X139962353Y-103940300D01*
X139959500Y-103970730D01*
X139959500Y-106079269D01*
X139962353Y-106109699D01*
X139962353Y-106109701D01*
X140007206Y-106237880D01*
X140007209Y-106237886D01*
X140084999Y-106343288D01*
X140108970Y-106408917D01*
X140093654Y-106477087D01*
X140043914Y-106526155D01*
X139985229Y-106540921D01*
X138794771Y-106540921D01*
X138727732Y-106521236D01*
X138681977Y-106468432D01*
X138672033Y-106399274D01*
X138695001Y-106343288D01*
X138772790Y-106237886D01*
X138772789Y-106237886D01*
X138772793Y-106237882D01*
X138796543Y-106170008D01*
X138817646Y-106109701D01*
X138817646Y-106109699D01*
X138820500Y-106079269D01*
X138820500Y-105506216D01*
X138840185Y-105439177D01*
X138892989Y-105393422D01*
X138962147Y-105383478D01*
X138965050Y-105384153D01*
X138965056Y-105384120D01*
X139099997Y-105405492D01*
X139100000Y-105405492D01*
X139100003Y-105405492D01*
X139225300Y-105385647D01*
X139225301Y-105385647D01*
X139225302Y-105385646D01*
X139225304Y-105385646D01*
X139338342Y-105328050D01*
X139428050Y-105238342D01*
X139485646Y-105125304D01*
X139485646Y-105125302D01*
X139485647Y-105125301D01*
X139485647Y-105125300D01*
X139505492Y-105000003D01*
X139505492Y-104999996D01*
X139485647Y-104874699D01*
X139485647Y-104874698D01*
X139467125Y-104838347D01*
X139428050Y-104761658D01*
X139428046Y-104761654D01*
X139428045Y-104761652D01*
X139338347Y-104671954D01*
X139338344Y-104671952D01*
X139338342Y-104671950D01*
X139225304Y-104614354D01*
X139225303Y-104614353D01*
X139225300Y-104614352D01*
X139100003Y-104594508D01*
X139099997Y-104594508D01*
X138965056Y-104615880D01*
X138964480Y-104612245D01*
X138912922Y-104613695D01*
X138853106Y-104577587D01*
X138822307Y-104514872D01*
X138820500Y-104493783D01*
X138820500Y-103970730D01*
X138817646Y-103940300D01*
X138817646Y-103940298D01*
X138772793Y-103812119D01*
X138772792Y-103812117D01*
X138765054Y-103801632D01*
X138692150Y-103702850D01*
X138582882Y-103622207D01*
X138582880Y-103622206D01*
X138454700Y-103577353D01*
X138424270Y-103574500D01*
X138424266Y-103574500D01*
X137815734Y-103574500D01*
X137815730Y-103574500D01*
X137785300Y-103577353D01*
X137785298Y-103577353D01*
X137657119Y-103622206D01*
X137657117Y-103622207D01*
X137547850Y-103702850D01*
X137467207Y-103812117D01*
X137467206Y-103812119D01*
X137422353Y-103940298D01*
X137422353Y-103940300D01*
X137419500Y-103970730D01*
X137419500Y-106079269D01*
X137422353Y-106109699D01*
X137422353Y-106109701D01*
X137467206Y-106237880D01*
X137467209Y-106237886D01*
X137544999Y-106343288D01*
X137568970Y-106408917D01*
X137553654Y-106477087D01*
X137503914Y-106526155D01*
X137445229Y-106540921D01*
X136651383Y-106540921D01*
X136651311Y-106540900D01*
X136600000Y-106540900D01*
X136543603Y-106540900D01*
X136474672Y-106556634D01*
X136433641Y-106566000D01*
X136433638Y-106566001D01*
X136332019Y-106614941D01*
X136243835Y-106685271D01*
X136243834Y-106685273D01*
X136173514Y-106773462D01*
X136124583Y-106875087D01*
X136124583Y-106875088D01*
X136099494Y-106985052D01*
X136099493Y-106985056D01*
X136099500Y-107041389D01*
X136099500Y-114625500D01*
X136079815Y-114692539D01*
X136027011Y-114738294D01*
X135975500Y-114749500D01*
X127724500Y-114749500D01*
X127657461Y-114729815D01*
X127611706Y-114677011D01*
X127600500Y-114625500D01*
X127600500Y-113285542D01*
X129695500Y-113285542D01*
X129736441Y-113451650D01*
X129736442Y-113451653D01*
X129736443Y-113451654D01*
X129815950Y-113603141D01*
X129929399Y-113731199D01*
X130070198Y-113828385D01*
X130157472Y-113861483D01*
X130230160Y-113889051D01*
X130230162Y-113889051D01*
X130230164Y-113889052D01*
X130272572Y-113894201D01*
X130357387Y-113904500D01*
X130357389Y-113904500D01*
X130442613Y-113904500D01*
X130506223Y-113896776D01*
X130569836Y-113889052D01*
X130729802Y-113828385D01*
X130870601Y-113731199D01*
X130984050Y-113603141D01*
X131063557Y-113451654D01*
X131104500Y-113285542D01*
X132695500Y-113285542D01*
X132736441Y-113451650D01*
X132736442Y-113451653D01*
X132736443Y-113451654D01*
X132815950Y-113603141D01*
X132929399Y-113731199D01*
X133070198Y-113828385D01*
X133157472Y-113861483D01*
X133230160Y-113889051D01*
X133230162Y-113889051D01*
X133230164Y-113889052D01*
X133272572Y-113894201D01*
X133357387Y-113904500D01*
X133357389Y-113904500D01*
X133442613Y-113904500D01*
X133506223Y-113896776D01*
X133569836Y-113889052D01*
X133729802Y-113828385D01*
X133870601Y-113731199D01*
X133984050Y-113603141D01*
X134063557Y-113451654D01*
X134104500Y-113285542D01*
X134104500Y-113114458D01*
X134063557Y-112948346D01*
X133984050Y-112796859D01*
X133870601Y-112668801D01*
X133729802Y-112571615D01*
X133569839Y-112510948D01*
X133569834Y-112510947D01*
X133442613Y-112495500D01*
X133442611Y-112495500D01*
X133357389Y-112495500D01*
X133357387Y-112495500D01*
X133230165Y-112510947D01*
X133230160Y-112510948D01*
X133070197Y-112571615D01*
X133070196Y-112571616D01*
X132929399Y-112668800D01*
X132815950Y-112796859D01*
X132736441Y-112948349D01*
X132695500Y-113114457D01*
X132695500Y-113285542D01*
X131104500Y-113285542D01*
X131104500Y-113114458D01*
X131063557Y-112948346D01*
X130984050Y-112796859D01*
X130870601Y-112668801D01*
X130729802Y-112571615D01*
X130569839Y-112510948D01*
X130569834Y-112510947D01*
X130442613Y-112495500D01*
X130442611Y-112495500D01*
X130357389Y-112495500D01*
X130357387Y-112495500D01*
X130230165Y-112510947D01*
X130230160Y-112510948D01*
X130070197Y-112571615D01*
X130070196Y-112571616D01*
X129929399Y-112668800D01*
X129815950Y-112796859D01*
X129736441Y-112948349D01*
X129695500Y-113114457D01*
X129695500Y-113285542D01*
X127600500Y-113285542D01*
X127600500Y-106575503D01*
X131645008Y-106575503D01*
X131664852Y-106700800D01*
X131664852Y-106700801D01*
X131667185Y-106705379D01*
X131722450Y-106813842D01*
X131722452Y-106813844D01*
X131722454Y-106813847D01*
X131812152Y-106903545D01*
X131812154Y-106903546D01*
X131812158Y-106903550D01*
X131925196Y-106961146D01*
X131925197Y-106961146D01*
X131925199Y-106961147D01*
X132050497Y-106980992D01*
X132050500Y-106980992D01*
X132050503Y-106980992D01*
X132175800Y-106961147D01*
X132175801Y-106961147D01*
X132175802Y-106961146D01*
X132175804Y-106961146D01*
X132288842Y-106903550D01*
X132378550Y-106813842D01*
X132436146Y-106700804D01*
X132436146Y-106700802D01*
X132436147Y-106700801D01*
X132436147Y-106700800D01*
X132455992Y-106575503D01*
X132455992Y-106575496D01*
X132436147Y-106450199D01*
X132436147Y-106450198D01*
X132415113Y-106408917D01*
X132378550Y-106337158D01*
X132378546Y-106337154D01*
X132378545Y-106337152D01*
X132288847Y-106247454D01*
X132288844Y-106247452D01*
X132288842Y-106247450D01*
X132175804Y-106189854D01*
X132175803Y-106189853D01*
X132175800Y-106189852D01*
X132050503Y-106170008D01*
X132050497Y-106170008D01*
X131925199Y-106189852D01*
X131925198Y-106189852D01*
X131849837Y-106228251D01*
X131812158Y-106247450D01*
X131812157Y-106247451D01*
X131812152Y-106247454D01*
X131722454Y-106337152D01*
X131722451Y-106337157D01*
X131664852Y-106450198D01*
X131664852Y-106450199D01*
X131645008Y-106575496D01*
X131645008Y-106575503D01*
X127600500Y-106575503D01*
X127600500Y-105298367D01*
X127620185Y-105231328D01*
X127672989Y-105185573D01*
X127742147Y-105175629D01*
X127805703Y-105204654D01*
X127830087Y-105233349D01*
X127848185Y-105262742D01*
X127907048Y-105358342D01*
X128059380Y-105531425D01*
X128059384Y-105531429D01*
X128238765Y-105676269D01*
X128238766Y-105676270D01*
X128238769Y-105676271D01*
X128238772Y-105676274D01*
X128440063Y-105788721D01*
X128657462Y-105865533D01*
X128784272Y-105887277D01*
X128884706Y-105904499D01*
X128884715Y-105904500D01*
X129057540Y-105904500D01*
X129229734Y-105889844D01*
X129229737Y-105889843D01*
X129229739Y-105889843D01*
X129452869Y-105831745D01*
X129589208Y-105770116D01*
X129662965Y-105736776D01*
X129662967Y-105736775D01*
X129662967Y-105736774D01*
X129662971Y-105736773D01*
X129854000Y-105607659D01*
X130020462Y-105448119D01*
X130157566Y-105262742D01*
X130261370Y-105056860D01*
X130328886Y-104836397D01*
X130358172Y-104607694D01*
X130357853Y-104600196D01*
X130349595Y-104405793D01*
X130348386Y-104377332D01*
X130299810Y-104151938D01*
X130213841Y-103937994D01*
X130092951Y-103741657D01*
X129940620Y-103568575D01*
X129940619Y-103568574D01*
X129940615Y-103568570D01*
X129761234Y-103423730D01*
X129761233Y-103423729D01*
X129559938Y-103311279D01*
X129342541Y-103234468D01*
X129342540Y-103234467D01*
X129342538Y-103234467D01*
X129342534Y-103234466D01*
X129342533Y-103234466D01*
X129115293Y-103195500D01*
X129115285Y-103195500D01*
X128942465Y-103195500D01*
X128942460Y-103195500D01*
X128770265Y-103210155D01*
X128547131Y-103268254D01*
X128337034Y-103363223D01*
X128337032Y-103363224D01*
X128227611Y-103437181D01*
X128146653Y-103491900D01*
X128145999Y-103492342D01*
X127979540Y-103651878D01*
X127842434Y-103837257D01*
X127835222Y-103851562D01*
X127787463Y-103902560D01*
X127719714Y-103919643D01*
X127653484Y-103897385D01*
X127609801Y-103842854D01*
X127600500Y-103795735D01*
X127600500Y-92300003D01*
X132694508Y-92300003D01*
X132714352Y-92425300D01*
X132714352Y-92425301D01*
X132714354Y-92425304D01*
X132771950Y-92538342D01*
X132771952Y-92538344D01*
X132771954Y-92538347D01*
X132861652Y-92628045D01*
X132861654Y-92628046D01*
X132861658Y-92628050D01*
X132974696Y-92685646D01*
X132974697Y-92685646D01*
X132974699Y-92685647D01*
X133099997Y-92705492D01*
X133100000Y-92705492D01*
X133100003Y-92705492D01*
X133225300Y-92685647D01*
X133225301Y-92685647D01*
X133225302Y-92685646D01*
X133225304Y-92685646D01*
X133338342Y-92628050D01*
X133428050Y-92538342D01*
X133485646Y-92425304D01*
X133485646Y-92425302D01*
X133485647Y-92425301D01*
X133485647Y-92425300D01*
X133505492Y-92300003D01*
X135894508Y-92300003D01*
X135914352Y-92425300D01*
X135914352Y-92425301D01*
X135914354Y-92425304D01*
X135971950Y-92538342D01*
X135971952Y-92538344D01*
X135971954Y-92538347D01*
X136061652Y-92628045D01*
X136061654Y-92628046D01*
X136061658Y-92628050D01*
X136174696Y-92685646D01*
X136174697Y-92685646D01*
X136174699Y-92685647D01*
X136299997Y-92705492D01*
X136300000Y-92705492D01*
X136300003Y-92705492D01*
X136425300Y-92685647D01*
X136425301Y-92685647D01*
X136425302Y-92685646D01*
X136425304Y-92685646D01*
X136538342Y-92628050D01*
X136628050Y-92538342D01*
X136685646Y-92425304D01*
X136685646Y-92425302D01*
X136685647Y-92425301D01*
X136685647Y-92425300D01*
X136705492Y-92300003D01*
X136705492Y-92299996D01*
X136685647Y-92174699D01*
X136685647Y-92174698D01*
X136685646Y-92174696D01*
X136628050Y-92061658D01*
X136628046Y-92061654D01*
X136628045Y-92061652D01*
X136538347Y-91971954D01*
X136538344Y-91971952D01*
X136538342Y-91971950D01*
X136425304Y-91914354D01*
X136425303Y-91914353D01*
X136425300Y-91914352D01*
X136300003Y-91894508D01*
X136299997Y-91894508D01*
X136174699Y-91914352D01*
X136174698Y-91914352D01*
X136127607Y-91938347D01*
X136061658Y-91971950D01*
X136061657Y-91971951D01*
X136061652Y-91971954D01*
X135971954Y-92061652D01*
X135971951Y-92061657D01*
X135971950Y-92061658D01*
X135959727Y-92085647D01*
X135914352Y-92174698D01*
X135914352Y-92174699D01*
X135894508Y-92299996D01*
X135894508Y-92300003D01*
X133505492Y-92300003D01*
X133505492Y-92299996D01*
X133485647Y-92174699D01*
X133485647Y-92174698D01*
X133485646Y-92174696D01*
X133428050Y-92061658D01*
X133428046Y-92061654D01*
X133428045Y-92061652D01*
X133338347Y-91971954D01*
X133338344Y-91971952D01*
X133338342Y-91971950D01*
X133225304Y-91914354D01*
X133225303Y-91914353D01*
X133225300Y-91914352D01*
X133100003Y-91894508D01*
X133099997Y-91894508D01*
X132974699Y-91914352D01*
X132974698Y-91914352D01*
X132927607Y-91938347D01*
X132861658Y-91971950D01*
X132861657Y-91971951D01*
X132861652Y-91971954D01*
X132771954Y-92061652D01*
X132771951Y-92061657D01*
X132771950Y-92061658D01*
X132759727Y-92085647D01*
X132714352Y-92174698D01*
X132714352Y-92174699D01*
X132694508Y-92299996D01*
X132694508Y-92300003D01*
X127600500Y-92300003D01*
X127600500Y-89674503D01*
X132494508Y-89674503D01*
X132514352Y-89799800D01*
X132514352Y-89799801D01*
X132514354Y-89799804D01*
X132571950Y-89912842D01*
X132571952Y-89912844D01*
X132571954Y-89912847D01*
X132661652Y-90002545D01*
X132661654Y-90002546D01*
X132661658Y-90002550D01*
X132774696Y-90060146D01*
X132774697Y-90060146D01*
X132774699Y-90060147D01*
X132899997Y-90079992D01*
X132900000Y-90079992D01*
X132900003Y-90079992D01*
X133025300Y-90060147D01*
X133025301Y-90060147D01*
X133025302Y-90060146D01*
X133025304Y-90060146D01*
X133138342Y-90002550D01*
X133228050Y-89912842D01*
X133285646Y-89799804D01*
X133285646Y-89799802D01*
X133285647Y-89799801D01*
X133285647Y-89799800D01*
X133305492Y-89674503D01*
X133305492Y-89674496D01*
X133285647Y-89549199D01*
X133285647Y-89549198D01*
X133285646Y-89549196D01*
X133228050Y-89436158D01*
X133228046Y-89436154D01*
X133228045Y-89436152D01*
X133138347Y-89346454D01*
X133138344Y-89346452D01*
X133138342Y-89346450D01*
X133025304Y-89288854D01*
X133025303Y-89288853D01*
X133025300Y-89288852D01*
X132900003Y-89269008D01*
X132899997Y-89269008D01*
X132774699Y-89288852D01*
X132774698Y-89288852D01*
X132699337Y-89327251D01*
X132661658Y-89346450D01*
X132661657Y-89346451D01*
X132661652Y-89346454D01*
X132571954Y-89436152D01*
X132571951Y-89436157D01*
X132571950Y-89436158D01*
X132552751Y-89473837D01*
X132514352Y-89549198D01*
X132514352Y-89549199D01*
X132494508Y-89674496D01*
X132494508Y-89674503D01*
X127600500Y-89674503D01*
X127600500Y-88974500D01*
X127620185Y-88907461D01*
X127672989Y-88861706D01*
X127724500Y-88850500D01*
X128067658Y-88850500D01*
X128067660Y-88850500D01*
X128067662Y-88850499D01*
X128067666Y-88850499D01*
X128199580Y-88820391D01*
X128199580Y-88820390D01*
X128199588Y-88820389D01*
X128320251Y-88762279D01*
X128374052Y-88750000D01*
X128500000Y-88750000D01*
X128500000Y-88624051D01*
X128512278Y-88570253D01*
X128522135Y-88549785D01*
X143070000Y-88549785D01*
X143070002Y-88549808D01*
X143072908Y-88574869D01*
X143072909Y-88574873D01*
X143118211Y-88677474D01*
X143118214Y-88677479D01*
X143197520Y-88756785D01*
X143197525Y-88756788D01*
X143300123Y-88802089D01*
X143325206Y-88804999D01*
X143569999Y-88804999D01*
X143570000Y-88804998D01*
X143570000Y-88080000D01*
X143870000Y-88080000D01*
X143870000Y-88804999D01*
X144114786Y-88804999D01*
X144114808Y-88804997D01*
X144139869Y-88802091D01*
X144139873Y-88802090D01*
X144242474Y-88756788D01*
X144242479Y-88756785D01*
X144321785Y-88677479D01*
X144321788Y-88677474D01*
X144367089Y-88574877D01*
X144367089Y-88574875D01*
X144369999Y-88549794D01*
X144370000Y-88549791D01*
X144370000Y-88080000D01*
X143870000Y-88080000D01*
X143570000Y-88080000D01*
X143139361Y-88080000D01*
X143072322Y-88060315D01*
X143070986Y-88058773D01*
X143070000Y-88060934D01*
X143070000Y-88549785D01*
X128522135Y-88549785D01*
X128570389Y-88449588D01*
X128576527Y-88422695D01*
X128600499Y-88317666D01*
X128600500Y-88317658D01*
X128600500Y-86200000D01*
X133550001Y-86200000D01*
X133550001Y-86844785D01*
X133550002Y-86844808D01*
X133552908Y-86869869D01*
X133552909Y-86869873D01*
X133598211Y-86972474D01*
X133598214Y-86972479D01*
X133677520Y-87051785D01*
X133677525Y-87051788D01*
X133780123Y-87097089D01*
X133805206Y-87099999D01*
X134449999Y-87099999D01*
X134450000Y-87099998D01*
X134450000Y-86200000D01*
X133550001Y-86200000D01*
X128600500Y-86200000D01*
X128600500Y-85474500D01*
X128620185Y-85407461D01*
X128672989Y-85361706D01*
X128724500Y-85350500D01*
X133426000Y-85350500D01*
X133493039Y-85370185D01*
G37*
%TD.AperFunction*%
%TA.AperFunction,Conductor*%
G36*
X142544453Y-103045185D02*
G01*
X142565095Y-103061819D01*
X142885270Y-103381994D01*
X142918755Y-103443317D01*
X142913771Y-103513009D01*
X142871899Y-103568942D01*
X142838544Y-103586716D01*
X142737119Y-103622206D01*
X142737117Y-103622207D01*
X142627850Y-103702850D01*
X142547207Y-103812117D01*
X142547206Y-103812119D01*
X142502353Y-103940298D01*
X142502353Y-103940300D01*
X142499500Y-103970730D01*
X142499500Y-106079269D01*
X142502353Y-106109699D01*
X142502353Y-106109701D01*
X142547206Y-106237880D01*
X142547209Y-106237886D01*
X142624999Y-106343288D01*
X142648970Y-106408917D01*
X142633654Y-106477087D01*
X142583914Y-106526155D01*
X142525229Y-106540921D01*
X141334771Y-106540921D01*
X141267732Y-106521236D01*
X141221977Y-106468432D01*
X141212033Y-106399274D01*
X141235001Y-106343288D01*
X141312790Y-106237886D01*
X141312789Y-106237886D01*
X141312793Y-106237882D01*
X141336543Y-106170008D01*
X141357646Y-106109701D01*
X141357646Y-106109699D01*
X141360500Y-106079269D01*
X141360500Y-103970730D01*
X141357646Y-103940300D01*
X141357646Y-103940298D01*
X141312793Y-103812119D01*
X141312792Y-103812117D01*
X141305054Y-103801632D01*
X141232150Y-103702850D01*
X141122882Y-103622207D01*
X141122880Y-103622206D01*
X141015838Y-103584750D01*
X140959062Y-103544028D01*
X140935176Y-103491903D01*
X140919515Y-103413167D01*
X140873994Y-103345040D01*
X140873992Y-103345038D01*
X140858624Y-103322038D01*
X140858622Y-103322036D01*
X140858621Y-103322035D01*
X140845775Y-103313452D01*
X140826985Y-103298031D01*
X140766135Y-103237181D01*
X140732650Y-103175858D01*
X140737634Y-103106166D01*
X140779506Y-103050233D01*
X140844970Y-103025816D01*
X140853816Y-103025500D01*
X142477414Y-103025500D01*
X142544453Y-103045185D01*
G37*
%TD.AperFunction*%
%TA.AperFunction,Conductor*%
G36*
X144601561Y-103495185D02*
G01*
X144622203Y-103511819D01*
X145003181Y-103892797D01*
X145036666Y-103954120D01*
X145039500Y-103980478D01*
X145039500Y-106079269D01*
X145042353Y-106109699D01*
X145042353Y-106109701D01*
X145087206Y-106237880D01*
X145087209Y-106237886D01*
X145164999Y-106343288D01*
X145188970Y-106408917D01*
X145173654Y-106477087D01*
X145123914Y-106526155D01*
X145065229Y-106540921D01*
X143874771Y-106540921D01*
X143807732Y-106521236D01*
X143761977Y-106468432D01*
X143752033Y-106399274D01*
X143775001Y-106343288D01*
X143852790Y-106237886D01*
X143852789Y-106237886D01*
X143852793Y-106237882D01*
X143876543Y-106170008D01*
X143897646Y-106109701D01*
X143897646Y-106109699D01*
X143900500Y-106079269D01*
X143900500Y-103970730D01*
X143897646Y-103940300D01*
X143897646Y-103940298D01*
X143852793Y-103812119D01*
X143852792Y-103812117D01*
X143833860Y-103786464D01*
X143772150Y-103702850D01*
X143767298Y-103699269D01*
X143725048Y-103643621D01*
X143719591Y-103573965D01*
X143752659Y-103512416D01*
X143813753Y-103478515D01*
X143840933Y-103475500D01*
X144534522Y-103475500D01*
X144601561Y-103495185D01*
G37*
%TD.AperFunction*%
%TA.AperFunction,Conductor*%
G36*
X146851561Y-103245185D02*
G01*
X146872203Y-103261819D01*
X147543181Y-103932797D01*
X147576666Y-103994120D01*
X147579500Y-104020478D01*
X147579500Y-106079269D01*
X147582353Y-106109699D01*
X147582353Y-106109701D01*
X147627206Y-106237880D01*
X147627209Y-106237886D01*
X147704999Y-106343288D01*
X147728970Y-106408917D01*
X147713654Y-106477087D01*
X147663914Y-106526155D01*
X147605229Y-106540921D01*
X146414771Y-106540921D01*
X146347732Y-106521236D01*
X146301977Y-106468432D01*
X146292033Y-106399274D01*
X146315001Y-106343288D01*
X146392790Y-106237886D01*
X146392789Y-106237886D01*
X146392793Y-106237882D01*
X146416543Y-106170008D01*
X146437646Y-106109701D01*
X146437646Y-106109699D01*
X146440500Y-106079269D01*
X146440500Y-103970730D01*
X146437646Y-103940300D01*
X146437646Y-103940298D01*
X146392793Y-103812119D01*
X146392792Y-103812117D01*
X146385054Y-103801632D01*
X146312150Y-103702850D01*
X146202882Y-103622207D01*
X146202880Y-103622206D01*
X146074700Y-103577353D01*
X146044270Y-103574500D01*
X146044266Y-103574500D01*
X145515478Y-103574500D01*
X145448439Y-103554815D01*
X145427797Y-103538181D01*
X145326797Y-103437181D01*
X145293312Y-103375858D01*
X145298296Y-103306166D01*
X145340168Y-103250233D01*
X145405632Y-103225816D01*
X145414478Y-103225500D01*
X146784522Y-103225500D01*
X146851561Y-103245185D01*
G37*
%TD.AperFunction*%
%TA.AperFunction,Conductor*%
G36*
X132818868Y-95039671D02*
G01*
X132833736Y-95042026D01*
X132896870Y-95071952D01*
X132902022Y-95076818D01*
X133596190Y-95770986D01*
X133611611Y-95789776D01*
X133620195Y-95802624D01*
X133628194Y-95807968D01*
X133643196Y-95817992D01*
X133643198Y-95817994D01*
X133669354Y-95835471D01*
X133711325Y-95863515D01*
X133711327Y-95863515D01*
X133711327Y-95863516D01*
X133797652Y-95880687D01*
X133797659Y-95880687D01*
X133818820Y-95884897D01*
X133833973Y-95881882D01*
X133858164Y-95879500D01*
X134677860Y-95879500D01*
X134744899Y-95899185D01*
X134765541Y-95915819D01*
X139163181Y-100313459D01*
X139196666Y-100374782D01*
X139199500Y-100401140D01*
X139199500Y-100638887D01*
X139185985Y-100695181D01*
X139137498Y-100790341D01*
X139120131Y-100899997D01*
X139120131Y-100900500D01*
X139119958Y-100901087D01*
X139118604Y-100909639D01*
X139117498Y-100909463D01*
X139100446Y-100967539D01*
X139047642Y-101013294D01*
X138996131Y-101024500D01*
X136819159Y-101024500D01*
X136752120Y-101004815D01*
X136706365Y-100952011D01*
X136696421Y-100882853D01*
X136696686Y-100881102D01*
X136705492Y-100825502D01*
X136705492Y-100825496D01*
X136685647Y-100700199D01*
X136685647Y-100700198D01*
X136654407Y-100638887D01*
X136628050Y-100587158D01*
X136628046Y-100587154D01*
X136628045Y-100587152D01*
X136538347Y-100497454D01*
X136538344Y-100497452D01*
X136538342Y-100497450D01*
X136425304Y-100439854D01*
X136425303Y-100439853D01*
X136425300Y-100439852D01*
X136300003Y-100420008D01*
X136299997Y-100420008D01*
X136174699Y-100439852D01*
X136174698Y-100439852D01*
X136099337Y-100478251D01*
X136061658Y-100497450D01*
X136061657Y-100497451D01*
X136061652Y-100497454D01*
X135971954Y-100587152D01*
X135971951Y-100587157D01*
X135914352Y-100700198D01*
X135895206Y-100821086D01*
X135865277Y-100884221D01*
X135805965Y-100921152D01*
X135736103Y-100920154D01*
X135685052Y-100889369D01*
X135608592Y-100812909D01*
X135608588Y-100812906D01*
X135608587Y-100812905D01*
X135567468Y-100791954D01*
X135509658Y-100762498D01*
X135400002Y-100745131D01*
X135399998Y-100745131D01*
X135290341Y-100762498D01*
X135191414Y-100812904D01*
X135191407Y-100812909D01*
X135137681Y-100866636D01*
X135076358Y-100900121D01*
X135006666Y-100895137D01*
X134962319Y-100866636D01*
X134908592Y-100812909D01*
X134908588Y-100812906D01*
X134908587Y-100812905D01*
X134867468Y-100791954D01*
X134809658Y-100762498D01*
X134700002Y-100745131D01*
X134699998Y-100745131D01*
X134590341Y-100762498D01*
X134491414Y-100812904D01*
X134491407Y-100812909D01*
X134412909Y-100891407D01*
X134412904Y-100891414D01*
X134362498Y-100990341D01*
X134349094Y-101074974D01*
X134319164Y-101138109D01*
X134259853Y-101175040D01*
X134189990Y-101174042D01*
X134138940Y-101143257D01*
X134108592Y-101112909D01*
X134108588Y-101112906D01*
X134108587Y-101112905D01*
X134100112Y-101108587D01*
X134009658Y-101062498D01*
X133900002Y-101045131D01*
X133899998Y-101045131D01*
X133790341Y-101062498D01*
X133691414Y-101112904D01*
X133691407Y-101112909D01*
X133612909Y-101191407D01*
X133612904Y-101191414D01*
X133562498Y-101290341D01*
X133545131Y-101399997D01*
X133545131Y-101400002D01*
X133562498Y-101509658D01*
X133569963Y-101524309D01*
X133612905Y-101608587D01*
X133691413Y-101687095D01*
X133744708Y-101714250D01*
X133776095Y-101737054D01*
X134320838Y-102281797D01*
X134354323Y-102343120D01*
X134357157Y-102369478D01*
X134357157Y-104093312D01*
X134354773Y-104117504D01*
X134351760Y-104132657D01*
X134355595Y-104151938D01*
X134356297Y-104155464D01*
X134356304Y-104155506D01*
X134373140Y-104240148D01*
X134373141Y-104240150D01*
X134373141Y-104240151D01*
X134373142Y-104240152D01*
X134373763Y-104241081D01*
X134405942Y-104289241D01*
X134411278Y-104297227D01*
X134434031Y-104331280D01*
X134434202Y-104331394D01*
X134446879Y-104339864D01*
X134465669Y-104355285D01*
X134823180Y-104712796D01*
X134856665Y-104774119D01*
X134857972Y-104781078D01*
X134862498Y-104809658D01*
X134912904Y-104908585D01*
X134912909Y-104908592D01*
X134917136Y-104912819D01*
X134950621Y-104974142D01*
X134945637Y-105043834D01*
X134903765Y-105099767D01*
X134838301Y-105124184D01*
X134829455Y-105124500D01*
X134419032Y-105124500D01*
X134351993Y-105104815D01*
X134331351Y-105088181D01*
X132711819Y-103468649D01*
X132678334Y-103407326D01*
X132675500Y-103380968D01*
X132675500Y-99819159D01*
X132695185Y-99752120D01*
X132747989Y-99706365D01*
X132817147Y-99696421D01*
X132818898Y-99696686D01*
X132874498Y-99705492D01*
X132874500Y-99705492D01*
X132874503Y-99705492D01*
X132999800Y-99685647D01*
X132999801Y-99685647D01*
X132999802Y-99685646D01*
X132999804Y-99685646D01*
X133112842Y-99628050D01*
X133202550Y-99538342D01*
X133260146Y-99425304D01*
X133260146Y-99425302D01*
X133260147Y-99425301D01*
X133260147Y-99425300D01*
X133279992Y-99300003D01*
X133279992Y-99299996D01*
X133260147Y-99174699D01*
X133260147Y-99174698D01*
X133260146Y-99174696D01*
X133202550Y-99061658D01*
X133202546Y-99061654D01*
X133202545Y-99061652D01*
X133112847Y-98971954D01*
X133112844Y-98971952D01*
X133112842Y-98971950D01*
X132999804Y-98914354D01*
X132999803Y-98914353D01*
X132999800Y-98914352D01*
X132874503Y-98894508D01*
X132874501Y-98894508D01*
X132874500Y-98894508D01*
X132864451Y-98896099D01*
X132818896Y-98903314D01*
X132749602Y-98894358D01*
X132696151Y-98849360D01*
X132675513Y-98782609D01*
X132675500Y-98780840D01*
X132675500Y-95162149D01*
X132695185Y-95095110D01*
X132747989Y-95049355D01*
X132817147Y-95039411D01*
X132818868Y-95039671D01*
G37*
%TD.AperFunction*%
%TD*%
M02*
