%TF.GenerationSoftware,KiCad,Pcbnew,7.0.8*%
%TF.CreationDate,2024-04-11T03:43:44+02:00*%
%TF.ProjectId,Expansion_Card_Retrofit,45787061-6e73-4696-9f6e-5f436172645f,X1*%
%TF.SameCoordinates,Original*%
%TF.FileFunction,Legend,Bot*%
%TF.FilePolarity,Positive*%
%FSLAX46Y46*%
G04 Gerber Fmt 4.6, Leading zero omitted, Abs format (unit mm)*
G04 Created by KiCad (PCBNEW 7.0.8) date 2024-04-11 03:43:44*
%MOMM*%
%LPD*%
G01*
G04 APERTURE LIST*
G04 Aperture macros list*
%AMRoundRect*
0 Rectangle with rounded corners*
0 $1 Rounding radius*
0 $2 $3 $4 $5 $6 $7 $8 $9 X,Y pos of 4 corners*
0 Add a 4 corners polygon primitive as box body*
4,1,4,$2,$3,$4,$5,$6,$7,$8,$9,$2,$3,0*
0 Add four circle primitives for the rounded corners*
1,1,$1+$1,$2,$3*
1,1,$1+$1,$4,$5*
1,1,$1+$1,$6,$7*
1,1,$1+$1,$8,$9*
0 Add four rect primitives between the rounded corners*
20,1,$1+$1,$2,$3,$4,$5,0*
20,1,$1+$1,$4,$5,$6,$7,0*
20,1,$1+$1,$6,$7,$8,$9,0*
20,1,$1+$1,$8,$9,$2,$3,0*%
G04 Aperture macros list end*
%ADD10C,0.150000*%
%ADD11C,0.120000*%
%ADD12R,1.500000X1.500000*%
%ADD13R,1.000000X1.000000*%
%ADD14RoundRect,0.250000X-0.250000X-1.000000X0.250000X-1.000000X0.250000X1.000000X-0.250000X1.000000X0*%
%ADD15R,0.380000X1.000000*%
%ADD16R,0.700000X1.150000*%
%ADD17C,2.200000*%
G04 APERTURE END LIST*
D10*
X120923809Y-82204819D02*
X121257142Y-81728628D01*
X121495237Y-82204819D02*
X121495237Y-81204819D01*
X121495237Y-81204819D02*
X121114285Y-81204819D01*
X121114285Y-81204819D02*
X121019047Y-81252438D01*
X121019047Y-81252438D02*
X120971428Y-81300057D01*
X120971428Y-81300057D02*
X120923809Y-81395295D01*
X120923809Y-81395295D02*
X120923809Y-81538152D01*
X120923809Y-81538152D02*
X120971428Y-81633390D01*
X120971428Y-81633390D02*
X121019047Y-81681009D01*
X121019047Y-81681009D02*
X121114285Y-81728628D01*
X121114285Y-81728628D02*
X121495237Y-81728628D01*
X120542856Y-82157200D02*
X120399999Y-82204819D01*
X120399999Y-82204819D02*
X120161904Y-82204819D01*
X120161904Y-82204819D02*
X120066666Y-82157200D01*
X120066666Y-82157200D02*
X120019047Y-82109580D01*
X120019047Y-82109580D02*
X119971428Y-82014342D01*
X119971428Y-82014342D02*
X119971428Y-81919104D01*
X119971428Y-81919104D02*
X120019047Y-81823866D01*
X120019047Y-81823866D02*
X120066666Y-81776247D01*
X120066666Y-81776247D02*
X120161904Y-81728628D01*
X120161904Y-81728628D02*
X120352380Y-81681009D01*
X120352380Y-81681009D02*
X120447618Y-81633390D01*
X120447618Y-81633390D02*
X120495237Y-81585771D01*
X120495237Y-81585771D02*
X120542856Y-81490533D01*
X120542856Y-81490533D02*
X120542856Y-81395295D01*
X120542856Y-81395295D02*
X120495237Y-81300057D01*
X120495237Y-81300057D02*
X120447618Y-81252438D01*
X120447618Y-81252438D02*
X120352380Y-81204819D01*
X120352380Y-81204819D02*
X120114285Y-81204819D01*
X120114285Y-81204819D02*
X119971428Y-81252438D01*
X119685713Y-81204819D02*
X119114285Y-81204819D01*
X119399999Y-82204819D02*
X119399999Y-81204819D01*
X118828570Y-81300057D02*
X118780951Y-81252438D01*
X118780951Y-81252438D02*
X118685713Y-81204819D01*
X118685713Y-81204819D02*
X118447618Y-81204819D01*
X118447618Y-81204819D02*
X118352380Y-81252438D01*
X118352380Y-81252438D02*
X118304761Y-81300057D01*
X118304761Y-81300057D02*
X118257142Y-81395295D01*
X118257142Y-81395295D02*
X118257142Y-81490533D01*
X118257142Y-81490533D02*
X118304761Y-81633390D01*
X118304761Y-81633390D02*
X118876189Y-82204819D01*
X118876189Y-82204819D02*
X118257142Y-82204819D01*
X115657142Y-95481009D02*
X115514285Y-95528628D01*
X115514285Y-95528628D02*
X115466666Y-95576247D01*
X115466666Y-95576247D02*
X115419047Y-95671485D01*
X115419047Y-95671485D02*
X115419047Y-95814342D01*
X115419047Y-95814342D02*
X115466666Y-95909580D01*
X115466666Y-95909580D02*
X115514285Y-95957200D01*
X115514285Y-95957200D02*
X115609523Y-96004819D01*
X115609523Y-96004819D02*
X115990475Y-96004819D01*
X115990475Y-96004819D02*
X115990475Y-95004819D01*
X115990475Y-95004819D02*
X115657142Y-95004819D01*
X115657142Y-95004819D02*
X115561904Y-95052438D01*
X115561904Y-95052438D02*
X115514285Y-95100057D01*
X115514285Y-95100057D02*
X115466666Y-95195295D01*
X115466666Y-95195295D02*
X115466666Y-95290533D01*
X115466666Y-95290533D02*
X115514285Y-95385771D01*
X115514285Y-95385771D02*
X115561904Y-95433390D01*
X115561904Y-95433390D02*
X115657142Y-95481009D01*
X115657142Y-95481009D02*
X115990475Y-95481009D01*
X114799999Y-95004819D02*
X114609523Y-95004819D01*
X114609523Y-95004819D02*
X114514285Y-95052438D01*
X114514285Y-95052438D02*
X114419047Y-95147676D01*
X114419047Y-95147676D02*
X114371428Y-95338152D01*
X114371428Y-95338152D02*
X114371428Y-95671485D01*
X114371428Y-95671485D02*
X114419047Y-95861961D01*
X114419047Y-95861961D02*
X114514285Y-95957200D01*
X114514285Y-95957200D02*
X114609523Y-96004819D01*
X114609523Y-96004819D02*
X114799999Y-96004819D01*
X114799999Y-96004819D02*
X114895237Y-95957200D01*
X114895237Y-95957200D02*
X114990475Y-95861961D01*
X114990475Y-95861961D02*
X115038094Y-95671485D01*
X115038094Y-95671485D02*
X115038094Y-95338152D01*
X115038094Y-95338152D02*
X114990475Y-95147676D01*
X114990475Y-95147676D02*
X114895237Y-95052438D01*
X114895237Y-95052438D02*
X114799999Y-95004819D01*
X113752380Y-95004819D02*
X113561904Y-95004819D01*
X113561904Y-95004819D02*
X113466666Y-95052438D01*
X113466666Y-95052438D02*
X113371428Y-95147676D01*
X113371428Y-95147676D02*
X113323809Y-95338152D01*
X113323809Y-95338152D02*
X113323809Y-95671485D01*
X113323809Y-95671485D02*
X113371428Y-95861961D01*
X113371428Y-95861961D02*
X113466666Y-95957200D01*
X113466666Y-95957200D02*
X113561904Y-96004819D01*
X113561904Y-96004819D02*
X113752380Y-96004819D01*
X113752380Y-96004819D02*
X113847618Y-95957200D01*
X113847618Y-95957200D02*
X113942856Y-95861961D01*
X113942856Y-95861961D02*
X113990475Y-95671485D01*
X113990475Y-95671485D02*
X113990475Y-95338152D01*
X113990475Y-95338152D02*
X113942856Y-95147676D01*
X113942856Y-95147676D02*
X113847618Y-95052438D01*
X113847618Y-95052438D02*
X113752380Y-95004819D01*
X113038094Y-95004819D02*
X112466666Y-95004819D01*
X112752380Y-96004819D02*
X112752380Y-95004819D01*
X130123809Y-88404819D02*
X130457142Y-87928628D01*
X130695237Y-88404819D02*
X130695237Y-87404819D01*
X130695237Y-87404819D02*
X130314285Y-87404819D01*
X130314285Y-87404819D02*
X130219047Y-87452438D01*
X130219047Y-87452438D02*
X130171428Y-87500057D01*
X130171428Y-87500057D02*
X130123809Y-87595295D01*
X130123809Y-87595295D02*
X130123809Y-87738152D01*
X130123809Y-87738152D02*
X130171428Y-87833390D01*
X130171428Y-87833390D02*
X130219047Y-87881009D01*
X130219047Y-87881009D02*
X130314285Y-87928628D01*
X130314285Y-87928628D02*
X130695237Y-87928628D01*
X129742856Y-88357200D02*
X129599999Y-88404819D01*
X129599999Y-88404819D02*
X129361904Y-88404819D01*
X129361904Y-88404819D02*
X129266666Y-88357200D01*
X129266666Y-88357200D02*
X129219047Y-88309580D01*
X129219047Y-88309580D02*
X129171428Y-88214342D01*
X129171428Y-88214342D02*
X129171428Y-88119104D01*
X129171428Y-88119104D02*
X129219047Y-88023866D01*
X129219047Y-88023866D02*
X129266666Y-87976247D01*
X129266666Y-87976247D02*
X129361904Y-87928628D01*
X129361904Y-87928628D02*
X129552380Y-87881009D01*
X129552380Y-87881009D02*
X129647618Y-87833390D01*
X129647618Y-87833390D02*
X129695237Y-87785771D01*
X129695237Y-87785771D02*
X129742856Y-87690533D01*
X129742856Y-87690533D02*
X129742856Y-87595295D01*
X129742856Y-87595295D02*
X129695237Y-87500057D01*
X129695237Y-87500057D02*
X129647618Y-87452438D01*
X129647618Y-87452438D02*
X129552380Y-87404819D01*
X129552380Y-87404819D02*
X129314285Y-87404819D01*
X129314285Y-87404819D02*
X129171428Y-87452438D01*
X128885713Y-87404819D02*
X128314285Y-87404819D01*
X128599999Y-88404819D02*
X128599999Y-87404819D01*
X127457142Y-88404819D02*
X128028570Y-88404819D01*
X127742856Y-88404819D02*
X127742856Y-87404819D01*
X127742856Y-87404819D02*
X127838094Y-87547676D01*
X127838094Y-87547676D02*
X127933332Y-87642914D01*
X127933332Y-87642914D02*
X128028570Y-87690533D01*
D11*
%TO.C,TP7*%
X119200000Y-84150000D02*
X120600000Y-84150000D01*
X120600000Y-84150000D02*
X120600000Y-82750000D01*
X119200000Y-82750000D02*
X119200000Y-84150000D01*
X120600000Y-82750000D02*
X119200000Y-82750000D01*
%TO.C,TP5*%
X115000000Y-98050000D02*
X115000000Y-96650000D01*
X115000000Y-96650000D02*
X113600000Y-96650000D01*
X113600000Y-98050000D02*
X115000000Y-98050000D01*
X113600000Y-96650000D02*
X113600000Y-98050000D01*
%TO.C,TP8*%
X129800000Y-90350000D02*
X129800000Y-88950000D01*
X129800000Y-88950000D02*
X128400000Y-88950000D01*
X128400000Y-90350000D02*
X129800000Y-90350000D01*
X128400000Y-88950000D02*
X128400000Y-90350000D01*
%TD*%
%LPC*%
D12*
%TO.C,TP4*%
X126700000Y-76000000D03*
%TD*%
D13*
%TO.C,TP7*%
X119900000Y-83450000D03*
%TD*%
D12*
%TO.C,TP2*%
X115300000Y-76000000D03*
%TD*%
D14*
%TO.C,J1*%
X118820000Y-94975000D03*
X121360000Y-94975000D03*
X123900000Y-94975000D03*
X126440000Y-94975000D03*
X128980000Y-94975000D03*
%TD*%
D13*
%TO.C,TP5*%
X114300000Y-97350000D03*
%TD*%
D15*
%TO.C,P1*%
X123750000Y-77040000D03*
X123250000Y-77040000D03*
X122750000Y-77040000D03*
X122250000Y-77040000D03*
X121750000Y-77040000D03*
X120250000Y-77040000D03*
X119750000Y-77040000D03*
X119250000Y-77040000D03*
X118750000Y-77040000D03*
X118250000Y-77040000D03*
D16*
X124420000Y-77880000D03*
%TD*%
D17*
%TO.C,H2*%
X132300000Y-94500000D03*
%TD*%
D13*
%TO.C,TP8*%
X129100000Y-89650000D03*
%TD*%
D17*
%TO.C,H1*%
X109700000Y-94500000D03*
%TD*%
%LPD*%
M02*
