M48
; DRILL file {KiCad 7.0.8} date 2024 April 11, Thursday 03:43:44
; FORMAT={-:-/ absolute / inch / decimal}
; #@! TF.CreationDate,2024-04-11T03:43:44+02:00
; #@! TF.GenerationSoftware,Kicad,Pcbnew,7.0.8
; #@! TF.FileFunction,Plated,1,4,PTH
FMAT,2
INCH
; #@! TA.AperFunction,Plated,PTH,ViaDrill
T1C0.0079
%
G90
G05
T1
X4.3937Y-3.3878
X4.4252Y-3.8199
X4.4685Y-3.6299
X4.4714Y-3.5138
X4.4724Y-3.1398
X4.4803Y-3.2382
X4.4843Y-3.3504
X4.4843Y-3.4154
X4.4882Y-3.0886
X4.4921Y-3.3209
X4.5059Y-3.5925
X4.5197Y-3.3209
X4.5276Y-3.6102
X4.5315Y-3.7008
X4.5394Y-3.8327
X4.5472Y-3.1555
X4.5472Y-3.2067
X4.5472Y-3.3209
X4.5512Y-3.5846
X4.5551Y-3.6614
X4.5669Y-3.4941
X4.5748Y-3.3209
X4.5787Y-3.5846
X4.5906Y-3.7697
X4.6063Y-3.5731
X4.6063Y-3.2382
X4.6413Y-3.6728
X4.6417Y-3.3327
X4.6535Y-3.372
X4.6692Y-3.4902
X4.6713Y-3.3366
X4.6811Y-3.1161
X4.7134Y-3.7402
X4.7283Y-3.7697
X4.7677Y-3.1201
X4.7717Y-3.5728
X4.7748Y-3.6066
X4.7835Y-3.498
X4.7874Y-3.3091
X4.7874Y-3.4232
X4.7874Y-3.4508
X4.7913Y-3.3445
X4.8307Y-3.7697
X4.8346Y-3.5374
X4.8701Y-3.3209
X4.8701Y-3.4114
X4.8701Y-3.502
X4.878Y-3.6319
X4.9173Y-3.6476
X4.9291Y-3.7697
X4.937Y-3.3209
X4.9567Y-3.2146
X4.9606Y-3.1437
X4.9606Y-3.187
X4.9606Y-3.628
X4.9646Y-3.502
X4.9685Y-3.5817
X5.0276Y-3.7697
X5.0315Y-3.5807
X5.0591Y-3.128
X5.0827Y-3.5925
X5.122Y-3.2933
X5.1339Y-3.4508
X5.1378Y-3.3287
X5.1457Y-3.128
X5.2165Y-3.9665
T0
M30
