%TF.GenerationSoftware,KiCad,Pcbnew,7.0.8*%
%TF.CreationDate,2024-04-02T14:21:28+02:00*%
%TF.ProjectId,Expansion_Card_Retrofit,45787061-6e73-4696-9f6e-5f436172645f,X1*%
%TF.SameCoordinates,Original*%
%TF.FileFunction,Soldermask,Top*%
%TF.FilePolarity,Negative*%
%FSLAX46Y46*%
G04 Gerber Fmt 4.6, Leading zero omitted, Abs format (unit mm)*
G04 Created by KiCad (PCBNEW 7.0.8) date 2024-04-02 14:21:28*
%MOMM*%
%LPD*%
G01*
G04 APERTURE LIST*
G04 Aperture macros list*
%AMRoundRect*
0 Rectangle with rounded corners*
0 $1 Rounding radius*
0 $2 $3 $4 $5 $6 $7 $8 $9 X,Y pos of 4 corners*
0 Add a 4 corners polygon primitive as box body*
4,1,4,$2,$3,$4,$5,$6,$7,$8,$9,$2,$3,0*
0 Add four circle primitives for the rounded corners*
1,1,$1+$1,$2,$3*
1,1,$1+$1,$4,$5*
1,1,$1+$1,$6,$7*
1,1,$1+$1,$8,$9*
0 Add four rect primitives between the rounded corners*
20,1,$1+$1,$2,$3,$4,$5,0*
20,1,$1+$1,$4,$5,$6,$7,0*
20,1,$1+$1,$6,$7,$8,$9,0*
20,1,$1+$1,$8,$9,$2,$3,0*%
G04 Aperture macros list end*
%ADD10R,0.650000X1.060000*%
%ADD11RoundRect,0.225000X0.225000X0.250000X-0.225000X0.250000X-0.225000X-0.250000X0.225000X-0.250000X0*%
%ADD12RoundRect,0.200000X-0.275000X0.200000X-0.275000X-0.200000X0.275000X-0.200000X0.275000X0.200000X0*%
%ADD13R,0.380000X1.000000*%
%ADD14R,0.700000X1.150000*%
%ADD15R,1.500000X1.500000*%
%ADD16C,2.200000*%
%ADD17RoundRect,0.125000X0.250000X0.125000X-0.250000X0.125000X-0.250000X-0.125000X0.250000X-0.125000X0*%
%ADD18R,3.400000X4.300000*%
%ADD19RoundRect,0.135000X-0.185000X0.135000X-0.185000X-0.135000X0.185000X-0.135000X0.185000X0.135000X0*%
%ADD20R,1.400000X1.800000*%
%ADD21RoundRect,0.140000X-0.140000X-0.170000X0.140000X-0.170000X0.140000X0.170000X-0.140000X0.170000X0*%
%ADD22RoundRect,0.135000X-0.135000X-0.185000X0.135000X-0.185000X0.135000X0.185000X-0.135000X0.185000X0*%
%ADD23RoundRect,0.147500X-0.147500X-0.172500X0.147500X-0.172500X0.147500X0.172500X-0.147500X0.172500X0*%
%ADD24RoundRect,0.100000X-0.100000X0.130000X-0.100000X-0.130000X0.100000X-0.130000X0.100000X0.130000X0*%
%ADD25RoundRect,0.100000X-0.130000X-0.100000X0.130000X-0.100000X0.130000X0.100000X-0.130000X0.100000X0*%
%ADD26R,0.510000X0.400000*%
%ADD27RoundRect,0.050000X0.050000X-0.387500X0.050000X0.387500X-0.050000X0.387500X-0.050000X-0.387500X0*%
%ADD28RoundRect,0.050000X0.387500X-0.050000X0.387500X0.050000X-0.387500X0.050000X-0.387500X-0.050000X0*%
%ADD29R,3.200000X3.200000*%
%ADD30RoundRect,0.140000X0.140000X0.170000X-0.140000X0.170000X-0.140000X-0.170000X0.140000X-0.170000X0*%
%ADD31R,1.700000X1.700000*%
%ADD32O,1.700000X1.700000*%
%ADD33RoundRect,0.140000X0.170000X-0.140000X0.170000X0.140000X-0.170000X0.140000X-0.170000X-0.140000X0*%
%ADD34RoundRect,0.135000X0.185000X-0.135000X0.185000X0.135000X-0.185000X0.135000X-0.185000X-0.135000X0*%
%ADD35RoundRect,0.200000X-0.200000X-0.275000X0.200000X-0.275000X0.200000X0.275000X-0.200000X0.275000X0*%
%ADD36RoundRect,0.100000X0.100000X-0.130000X0.100000X0.130000X-0.100000X0.130000X-0.100000X-0.130000X0*%
%ADD37RoundRect,0.100000X0.130000X0.100000X-0.130000X0.100000X-0.130000X-0.100000X0.130000X-0.100000X0*%
%ADD38RoundRect,0.062500X-0.350000X0.062500X-0.350000X-0.062500X0.350000X-0.062500X0.350000X0.062500X0*%
%ADD39RoundRect,0.062500X-0.062500X0.350000X-0.062500X-0.350000X0.062500X-0.350000X0.062500X0.350000X0*%
%ADD40R,3.000000X1.000000*%
%ADD41RoundRect,0.147500X0.172500X-0.147500X0.172500X0.147500X-0.172500X0.147500X-0.172500X-0.147500X0*%
G04 APERTURE END LIST*
D10*
%TO.C,U1*%
X132212500Y-135171000D03*
X131262500Y-135171000D03*
X130312500Y-135171000D03*
X130312500Y-137371000D03*
X132212500Y-137371000D03*
%TD*%
D11*
%TO.C,C1*%
X132037500Y-132969000D03*
X130487500Y-132969000D03*
%TD*%
D12*
%TO.C,R1*%
X134302500Y-135446000D03*
X134302500Y-137096000D03*
%TD*%
D13*
%TO.C,P1*%
X137250000Y-129040000D03*
X137750000Y-129040000D03*
X138250000Y-129040000D03*
X138750000Y-129040000D03*
X139250000Y-129040000D03*
X139750000Y-129040000D03*
X140250000Y-129040000D03*
X140750000Y-129040000D03*
X141250000Y-129040000D03*
X141750000Y-129040000D03*
X142250000Y-129040000D03*
X142750000Y-129040000D03*
D14*
X136580000Y-129880000D03*
%TD*%
D11*
%TO.C,C2*%
X132037500Y-139573000D03*
X130487500Y-139573000D03*
%TD*%
D15*
%TO.C,TP3*%
X145550000Y-128300000D03*
%TD*%
%TO.C,TP1*%
X134450000Y-128300000D03*
%TD*%
D11*
%TO.C,C2*%
X132275000Y-92500000D03*
X130725000Y-92500000D03*
%TD*%
D16*
%TO.C,H1*%
X129000000Y-104550000D03*
%TD*%
D17*
%TO.C,U5*%
X136850000Y-101230000D03*
X136850000Y-99960000D03*
X136850000Y-98690000D03*
X136850000Y-97420000D03*
X131450000Y-97420000D03*
X131450000Y-98690000D03*
X131450000Y-99960000D03*
X131450000Y-101230000D03*
D18*
X134150000Y-99325000D03*
%TD*%
D19*
%TO.C,R1*%
X135250000Y-89240000D03*
X135250000Y-90260000D03*
%TD*%
D20*
%TO.C,X1*%
X167700000Y-110950000D03*
X167700000Y-106550000D03*
X165300000Y-106550000D03*
X165300000Y-110950000D03*
%TD*%
D21*
%TO.C,C10*%
X138750000Y-71160000D03*
X139710000Y-71160000D03*
%TD*%
D22*
%TO.C,R1*%
X127490000Y-63500000D03*
X128510000Y-63500000D03*
%TD*%
D23*
%TO.C,D1*%
X130015000Y-113750000D03*
X130985000Y-113750000D03*
%TD*%
D24*
%TO.C,C12*%
X146000000Y-78930000D03*
X146000000Y-79570000D03*
%TD*%
D15*
%TO.C,TP1*%
X134600000Y-86050000D03*
%TD*%
D25*
%TO.C,C6*%
X142295000Y-64910000D03*
X142935000Y-64910000D03*
%TD*%
D10*
%TO.C,U1*%
X132200000Y-88650000D03*
X131250000Y-88650000D03*
X130300000Y-88650000D03*
X130300000Y-90850000D03*
X132200000Y-90850000D03*
%TD*%
D26*
%TO.C,Q1*%
X157250000Y-60750000D03*
X157250000Y-61750000D03*
X158540000Y-61250000D03*
%TD*%
D16*
%TO.C,H2*%
X151600000Y-104550000D03*
%TD*%
D27*
%TO.C,U4*%
X142650000Y-101375000D03*
X143050000Y-101375000D03*
X143450000Y-101375000D03*
X143850000Y-101375000D03*
X144250000Y-101375000D03*
X144650000Y-101375000D03*
X145050000Y-101375000D03*
X145450000Y-101375000D03*
X145850000Y-101375000D03*
X146250000Y-101375000D03*
X146650000Y-101375000D03*
X147050000Y-101375000D03*
X147450000Y-101375000D03*
X147850000Y-101375000D03*
D28*
X148687500Y-100537500D03*
X148687500Y-100137500D03*
X148687500Y-99737500D03*
X148687500Y-99337500D03*
X148687500Y-98937500D03*
X148687500Y-98537500D03*
X148687500Y-98137500D03*
X148687500Y-97737500D03*
X148687500Y-97337500D03*
X148687500Y-96937500D03*
X148687500Y-96537500D03*
X148687500Y-96137500D03*
X148687500Y-95737500D03*
X148687500Y-95337500D03*
D27*
X147850000Y-94500000D03*
X147450000Y-94500000D03*
X147050000Y-94500000D03*
X146650000Y-94500000D03*
X146250000Y-94500000D03*
X145850000Y-94500000D03*
X145450000Y-94500000D03*
X145050000Y-94500000D03*
X144650000Y-94500000D03*
X144250000Y-94500000D03*
X143850000Y-94500000D03*
X143450000Y-94500000D03*
X143050000Y-94500000D03*
X142650000Y-94500000D03*
D28*
X141812500Y-95337500D03*
X141812500Y-95737500D03*
X141812500Y-96137500D03*
X141812500Y-96537500D03*
X141812500Y-96937500D03*
X141812500Y-97337500D03*
X141812500Y-97737500D03*
X141812500Y-98137500D03*
X141812500Y-98537500D03*
X141812500Y-98937500D03*
X141812500Y-99337500D03*
X141812500Y-99737500D03*
X141812500Y-100137500D03*
X141812500Y-100537500D03*
D29*
X145250000Y-97937500D03*
%TD*%
D30*
%TO.C,C14*%
X142980000Y-80250000D03*
X142020000Y-80250000D03*
%TD*%
D25*
%TO.C,C4*%
X170750000Y-99155000D03*
X171390000Y-99155000D03*
%TD*%
D21*
%TO.C,C7*%
X138750000Y-65250000D03*
X139710000Y-65250000D03*
%TD*%
%TO.C,C9*%
X138750000Y-69190000D03*
X139710000Y-69190000D03*
%TD*%
%TO.C,C8*%
X138750000Y-67220000D03*
X139710000Y-67220000D03*
%TD*%
D31*
%TO.C,J1*%
X107150000Y-87375000D03*
D32*
X107150000Y-89915000D03*
X109690000Y-87375000D03*
X109690000Y-89915000D03*
X112230000Y-87375000D03*
X112230000Y-89915000D03*
X114770000Y-87375000D03*
X114770000Y-89915000D03*
X117310000Y-87375000D03*
X117310000Y-89915000D03*
%TD*%
D33*
%TO.C,C16*%
X173500000Y-99635000D03*
X173500000Y-98675000D03*
%TD*%
D15*
%TO.C,TP5*%
X130000000Y-48500000D03*
%TD*%
D26*
%TO.C,Q3*%
X157460000Y-69750000D03*
X157460000Y-70750000D03*
X158750000Y-70250000D03*
%TD*%
D34*
%TO.C,R3*%
X170250000Y-110030000D03*
X170250000Y-109010000D03*
%TD*%
D25*
%TO.C,C11*%
X142795000Y-68160000D03*
X143435000Y-68160000D03*
%TD*%
D15*
%TO.C,TP3*%
X146000000Y-86050000D03*
%TD*%
%TO.C,TP6*%
X136750000Y-48500000D03*
%TD*%
D35*
%TO.C,R11*%
X122925000Y-70250000D03*
X124575000Y-70250000D03*
%TD*%
D26*
%TO.C,Q2*%
X157460000Y-65300000D03*
X157460000Y-66300000D03*
X158750000Y-65800000D03*
%TD*%
D25*
%TO.C,C5*%
X141975000Y-61910000D03*
X142615000Y-61910000D03*
%TD*%
%TO.C,C18*%
X143295000Y-71660000D03*
X143935000Y-71660000D03*
%TD*%
D22*
%TO.C,R12*%
X119730000Y-62540000D03*
X120750000Y-62540000D03*
%TD*%
%TO.C,R6*%
X130480000Y-70000000D03*
X131500000Y-70000000D03*
%TD*%
%TO.C,R15*%
X119730000Y-68510000D03*
X120750000Y-68510000D03*
%TD*%
D36*
%TO.C,C17*%
X174500000Y-99725000D03*
X174500000Y-99085000D03*
%TD*%
D22*
%TO.C,R13*%
X119730000Y-64530000D03*
X120750000Y-64530000D03*
%TD*%
D15*
%TO.C,TP7*%
X133250000Y-48500000D03*
%TD*%
D13*
%TO.C,P1*%
X137550000Y-87090000D03*
X138050000Y-87090000D03*
X138550000Y-87090000D03*
X139050000Y-87090000D03*
X139550000Y-87090000D03*
X140050000Y-87090000D03*
X140550000Y-87090000D03*
X141050000Y-87090000D03*
X141550000Y-87090000D03*
X142050000Y-87090000D03*
X142550000Y-87090000D03*
X143050000Y-87090000D03*
D14*
X136880000Y-87930000D03*
%TD*%
D22*
%TO.C,R5*%
X126980000Y-70250000D03*
X128000000Y-70250000D03*
%TD*%
D34*
%TO.C,R17*%
X149750000Y-81760000D03*
X149750000Y-80740000D03*
%TD*%
D22*
%TO.C,R14*%
X119730000Y-66520000D03*
X120750000Y-66520000D03*
%TD*%
D37*
%TO.C,C3*%
X170320000Y-113500000D03*
X169680000Y-113500000D03*
%TD*%
D34*
%TO.C,R2*%
X170250000Y-112270000D03*
X170250000Y-111250000D03*
%TD*%
D37*
%TO.C,C13*%
X153070000Y-82750000D03*
X152430000Y-82750000D03*
%TD*%
D30*
%TO.C,C15*%
X142980000Y-79250000D03*
X142020000Y-79250000D03*
%TD*%
D22*
%TO.C,R16*%
X119730000Y-70500000D03*
X120750000Y-70500000D03*
%TD*%
D38*
%TO.C,U6*%
X166437500Y-118000000D03*
D39*
X166000000Y-117062500D03*
X165500000Y-117062500D03*
X165000000Y-117062500D03*
X164500000Y-117062500D03*
X164000000Y-117062500D03*
X163500000Y-117062500D03*
X163000000Y-117062500D03*
X162500000Y-117062500D03*
D38*
X162062500Y-118000000D03*
X162062500Y-118500000D03*
D39*
X162500000Y-119437500D03*
X163000000Y-119437500D03*
X163500000Y-119437500D03*
X164000000Y-119437500D03*
X164500000Y-119437500D03*
X165000000Y-119437500D03*
X165500000Y-119437500D03*
X166000000Y-119437500D03*
D38*
X166437500Y-118500000D03*
D40*
X164250000Y-118250000D03*
%TD*%
D11*
%TO.C,C1*%
X131775000Y-86750000D03*
X130225000Y-86750000D03*
%TD*%
D24*
%TO.C,R9*%
X139250000Y-78585000D03*
X139250000Y-79225000D03*
%TD*%
%TO.C,R10*%
X140000000Y-78585000D03*
X140000000Y-79225000D03*
%TD*%
D41*
%TO.C,D2*%
X148250000Y-81970000D03*
X148250000Y-81000000D03*
%TD*%
D22*
%TO.C,R4*%
X130750000Y-66500000D03*
X131770000Y-66500000D03*
%TD*%
M02*
