%TF.GenerationSoftware,KiCad,Pcbnew,7.0.8*%
%TF.CreationDate,2024-04-11T01:14:03+02:00*%
%TF.ProjectId,Expansion_Card_Retrofit,45787061-6e73-4696-9f6e-5f436172645f,X1*%
%TF.SameCoordinates,Original*%
%TF.FileFunction,Legend,Bot*%
%TF.FilePolarity,Positive*%
%FSLAX46Y46*%
G04 Gerber Fmt 4.6, Leading zero omitted, Abs format (unit mm)*
G04 Created by KiCad (PCBNEW 7.0.8) date 2024-04-11 01:14:03*
%MOMM*%
%LPD*%
G01*
G04 APERTURE LIST*
G04 Aperture macros list*
%AMRoundRect*
0 Rectangle with rounded corners*
0 $1 Rounding radius*
0 $2 $3 $4 $5 $6 $7 $8 $9 X,Y pos of 4 corners*
0 Add a 4 corners polygon primitive as box body*
4,1,4,$2,$3,$4,$5,$6,$7,$8,$9,$2,$3,0*
0 Add four circle primitives for the rounded corners*
1,1,$1+$1,$2,$3*
1,1,$1+$1,$4,$5*
1,1,$1+$1,$6,$7*
1,1,$1+$1,$8,$9*
0 Add four rect primitives between the rounded corners*
20,1,$1+$1,$2,$3,$4,$5,0*
20,1,$1+$1,$4,$5,$6,$7,0*
20,1,$1+$1,$6,$7,$8,$9,0*
20,1,$1+$1,$8,$9,$2,$3,0*%
G04 Aperture macros list end*
%ADD10C,0.150000*%
%ADD11C,0.120000*%
%ADD12R,1.500000X1.500000*%
%ADD13RoundRect,0.250000X0.250000X1.000000X-0.250000X1.000000X-0.250000X-1.000000X0.250000X-1.000000X0*%
%ADD14RoundRect,0.250000X-0.250000X-1.000000X0.250000X-1.000000X0.250000X1.000000X-0.250000X1.000000X0*%
%ADD15R,1.000000X1.000000*%
%ADD16C,2.200000*%
%ADD17R,0.700000X1.150000*%
%ADD18R,0.380000X1.000000*%
G04 APERTURE END LIST*
D10*
X141923809Y-123504819D02*
X142257142Y-123028628D01*
X142495237Y-123504819D02*
X142495237Y-122504819D01*
X142495237Y-122504819D02*
X142114285Y-122504819D01*
X142114285Y-122504819D02*
X142019047Y-122552438D01*
X142019047Y-122552438D02*
X141971428Y-122600057D01*
X141971428Y-122600057D02*
X141923809Y-122695295D01*
X141923809Y-122695295D02*
X141923809Y-122838152D01*
X141923809Y-122838152D02*
X141971428Y-122933390D01*
X141971428Y-122933390D02*
X142019047Y-122981009D01*
X142019047Y-122981009D02*
X142114285Y-123028628D01*
X142114285Y-123028628D02*
X142495237Y-123028628D01*
X141542856Y-123457200D02*
X141399999Y-123504819D01*
X141399999Y-123504819D02*
X141161904Y-123504819D01*
X141161904Y-123504819D02*
X141066666Y-123457200D01*
X141066666Y-123457200D02*
X141019047Y-123409580D01*
X141019047Y-123409580D02*
X140971428Y-123314342D01*
X140971428Y-123314342D02*
X140971428Y-123219104D01*
X140971428Y-123219104D02*
X141019047Y-123123866D01*
X141019047Y-123123866D02*
X141066666Y-123076247D01*
X141066666Y-123076247D02*
X141161904Y-123028628D01*
X141161904Y-123028628D02*
X141352380Y-122981009D01*
X141352380Y-122981009D02*
X141447618Y-122933390D01*
X141447618Y-122933390D02*
X141495237Y-122885771D01*
X141495237Y-122885771D02*
X141542856Y-122790533D01*
X141542856Y-122790533D02*
X141542856Y-122695295D01*
X141542856Y-122695295D02*
X141495237Y-122600057D01*
X141495237Y-122600057D02*
X141447618Y-122552438D01*
X141447618Y-122552438D02*
X141352380Y-122504819D01*
X141352380Y-122504819D02*
X141114285Y-122504819D01*
X141114285Y-122504819D02*
X140971428Y-122552438D01*
X140685713Y-122504819D02*
X140114285Y-122504819D01*
X140399999Y-123504819D02*
X140399999Y-122504819D01*
X139257142Y-123504819D02*
X139828570Y-123504819D01*
X139542856Y-123504819D02*
X139542856Y-122504819D01*
X139542856Y-122504819D02*
X139638094Y-122647676D01*
X139638094Y-122647676D02*
X139733332Y-122742914D01*
X139733332Y-122742914D02*
X139828570Y-122790533D01*
X151123809Y-129704819D02*
X151457142Y-129228628D01*
X151695237Y-129704819D02*
X151695237Y-128704819D01*
X151695237Y-128704819D02*
X151314285Y-128704819D01*
X151314285Y-128704819D02*
X151219047Y-128752438D01*
X151219047Y-128752438D02*
X151171428Y-128800057D01*
X151171428Y-128800057D02*
X151123809Y-128895295D01*
X151123809Y-128895295D02*
X151123809Y-129038152D01*
X151123809Y-129038152D02*
X151171428Y-129133390D01*
X151171428Y-129133390D02*
X151219047Y-129181009D01*
X151219047Y-129181009D02*
X151314285Y-129228628D01*
X151314285Y-129228628D02*
X151695237Y-129228628D01*
X150742856Y-129657200D02*
X150599999Y-129704819D01*
X150599999Y-129704819D02*
X150361904Y-129704819D01*
X150361904Y-129704819D02*
X150266666Y-129657200D01*
X150266666Y-129657200D02*
X150219047Y-129609580D01*
X150219047Y-129609580D02*
X150171428Y-129514342D01*
X150171428Y-129514342D02*
X150171428Y-129419104D01*
X150171428Y-129419104D02*
X150219047Y-129323866D01*
X150219047Y-129323866D02*
X150266666Y-129276247D01*
X150266666Y-129276247D02*
X150361904Y-129228628D01*
X150361904Y-129228628D02*
X150552380Y-129181009D01*
X150552380Y-129181009D02*
X150647618Y-129133390D01*
X150647618Y-129133390D02*
X150695237Y-129085771D01*
X150695237Y-129085771D02*
X150742856Y-128990533D01*
X150742856Y-128990533D02*
X150742856Y-128895295D01*
X150742856Y-128895295D02*
X150695237Y-128800057D01*
X150695237Y-128800057D02*
X150647618Y-128752438D01*
X150647618Y-128752438D02*
X150552380Y-128704819D01*
X150552380Y-128704819D02*
X150314285Y-128704819D01*
X150314285Y-128704819D02*
X150171428Y-128752438D01*
X149885713Y-128704819D02*
X149314285Y-128704819D01*
X149599999Y-129704819D02*
X149599999Y-128704819D01*
X149028570Y-128800057D02*
X148980951Y-128752438D01*
X148980951Y-128752438D02*
X148885713Y-128704819D01*
X148885713Y-128704819D02*
X148647618Y-128704819D01*
X148647618Y-128704819D02*
X148552380Y-128752438D01*
X148552380Y-128752438D02*
X148504761Y-128800057D01*
X148504761Y-128800057D02*
X148457142Y-128895295D01*
X148457142Y-128895295D02*
X148457142Y-128990533D01*
X148457142Y-128990533D02*
X148504761Y-129133390D01*
X148504761Y-129133390D02*
X149076189Y-129704819D01*
X149076189Y-129704819D02*
X148457142Y-129704819D01*
X157057142Y-115381009D02*
X156914285Y-115428628D01*
X156914285Y-115428628D02*
X156866666Y-115476247D01*
X156866666Y-115476247D02*
X156819047Y-115571485D01*
X156819047Y-115571485D02*
X156819047Y-115714342D01*
X156819047Y-115714342D02*
X156866666Y-115809580D01*
X156866666Y-115809580D02*
X156914285Y-115857200D01*
X156914285Y-115857200D02*
X157009523Y-115904819D01*
X157009523Y-115904819D02*
X157390475Y-115904819D01*
X157390475Y-115904819D02*
X157390475Y-114904819D01*
X157390475Y-114904819D02*
X157057142Y-114904819D01*
X157057142Y-114904819D02*
X156961904Y-114952438D01*
X156961904Y-114952438D02*
X156914285Y-115000057D01*
X156914285Y-115000057D02*
X156866666Y-115095295D01*
X156866666Y-115095295D02*
X156866666Y-115190533D01*
X156866666Y-115190533D02*
X156914285Y-115285771D01*
X156914285Y-115285771D02*
X156961904Y-115333390D01*
X156961904Y-115333390D02*
X157057142Y-115381009D01*
X157057142Y-115381009D02*
X157390475Y-115381009D01*
X156199999Y-114904819D02*
X156009523Y-114904819D01*
X156009523Y-114904819D02*
X155914285Y-114952438D01*
X155914285Y-114952438D02*
X155819047Y-115047676D01*
X155819047Y-115047676D02*
X155771428Y-115238152D01*
X155771428Y-115238152D02*
X155771428Y-115571485D01*
X155771428Y-115571485D02*
X155819047Y-115761961D01*
X155819047Y-115761961D02*
X155914285Y-115857200D01*
X155914285Y-115857200D02*
X156009523Y-115904819D01*
X156009523Y-115904819D02*
X156199999Y-115904819D01*
X156199999Y-115904819D02*
X156295237Y-115857200D01*
X156295237Y-115857200D02*
X156390475Y-115761961D01*
X156390475Y-115761961D02*
X156438094Y-115571485D01*
X156438094Y-115571485D02*
X156438094Y-115238152D01*
X156438094Y-115238152D02*
X156390475Y-115047676D01*
X156390475Y-115047676D02*
X156295237Y-114952438D01*
X156295237Y-114952438D02*
X156199999Y-114904819D01*
X155152380Y-114904819D02*
X154961904Y-114904819D01*
X154961904Y-114904819D02*
X154866666Y-114952438D01*
X154866666Y-114952438D02*
X154771428Y-115047676D01*
X154771428Y-115047676D02*
X154723809Y-115238152D01*
X154723809Y-115238152D02*
X154723809Y-115571485D01*
X154723809Y-115571485D02*
X154771428Y-115761961D01*
X154771428Y-115761961D02*
X154866666Y-115857200D01*
X154866666Y-115857200D02*
X154961904Y-115904819D01*
X154961904Y-115904819D02*
X155152380Y-115904819D01*
X155152380Y-115904819D02*
X155247618Y-115857200D01*
X155247618Y-115857200D02*
X155342856Y-115761961D01*
X155342856Y-115761961D02*
X155390475Y-115571485D01*
X155390475Y-115571485D02*
X155390475Y-115238152D01*
X155390475Y-115238152D02*
X155342856Y-115047676D01*
X155342856Y-115047676D02*
X155247618Y-114952438D01*
X155247618Y-114952438D02*
X155152380Y-114904819D01*
X154438094Y-114904819D02*
X153866666Y-114904819D01*
X154152380Y-115904819D02*
X154152380Y-114904819D01*
X113923809Y-123504819D02*
X114257142Y-123028628D01*
X114495237Y-123504819D02*
X114495237Y-122504819D01*
X114495237Y-122504819D02*
X114114285Y-122504819D01*
X114114285Y-122504819D02*
X114019047Y-122552438D01*
X114019047Y-122552438D02*
X113971428Y-122600057D01*
X113971428Y-122600057D02*
X113923809Y-122695295D01*
X113923809Y-122695295D02*
X113923809Y-122838152D01*
X113923809Y-122838152D02*
X113971428Y-122933390D01*
X113971428Y-122933390D02*
X114019047Y-122981009D01*
X114019047Y-122981009D02*
X114114285Y-123028628D01*
X114114285Y-123028628D02*
X114495237Y-123028628D01*
X113542856Y-123457200D02*
X113399999Y-123504819D01*
X113399999Y-123504819D02*
X113161904Y-123504819D01*
X113161904Y-123504819D02*
X113066666Y-123457200D01*
X113066666Y-123457200D02*
X113019047Y-123409580D01*
X113019047Y-123409580D02*
X112971428Y-123314342D01*
X112971428Y-123314342D02*
X112971428Y-123219104D01*
X112971428Y-123219104D02*
X113019047Y-123123866D01*
X113019047Y-123123866D02*
X113066666Y-123076247D01*
X113066666Y-123076247D02*
X113161904Y-123028628D01*
X113161904Y-123028628D02*
X113352380Y-122981009D01*
X113352380Y-122981009D02*
X113447618Y-122933390D01*
X113447618Y-122933390D02*
X113495237Y-122885771D01*
X113495237Y-122885771D02*
X113542856Y-122790533D01*
X113542856Y-122790533D02*
X113542856Y-122695295D01*
X113542856Y-122695295D02*
X113495237Y-122600057D01*
X113495237Y-122600057D02*
X113447618Y-122552438D01*
X113447618Y-122552438D02*
X113352380Y-122504819D01*
X113352380Y-122504819D02*
X113114285Y-122504819D01*
X113114285Y-122504819D02*
X112971428Y-122552438D01*
X112685713Y-122504819D02*
X112114285Y-122504819D01*
X112399999Y-123504819D02*
X112399999Y-122504819D01*
X111257142Y-123504819D02*
X111828570Y-123504819D01*
X111542856Y-123504819D02*
X111542856Y-122504819D01*
X111542856Y-122504819D02*
X111638094Y-122647676D01*
X111638094Y-122647676D02*
X111733332Y-122742914D01*
X111733332Y-122742914D02*
X111828570Y-122790533D01*
X123123809Y-129704819D02*
X123457142Y-129228628D01*
X123695237Y-129704819D02*
X123695237Y-128704819D01*
X123695237Y-128704819D02*
X123314285Y-128704819D01*
X123314285Y-128704819D02*
X123219047Y-128752438D01*
X123219047Y-128752438D02*
X123171428Y-128800057D01*
X123171428Y-128800057D02*
X123123809Y-128895295D01*
X123123809Y-128895295D02*
X123123809Y-129038152D01*
X123123809Y-129038152D02*
X123171428Y-129133390D01*
X123171428Y-129133390D02*
X123219047Y-129181009D01*
X123219047Y-129181009D02*
X123314285Y-129228628D01*
X123314285Y-129228628D02*
X123695237Y-129228628D01*
X122742856Y-129657200D02*
X122599999Y-129704819D01*
X122599999Y-129704819D02*
X122361904Y-129704819D01*
X122361904Y-129704819D02*
X122266666Y-129657200D01*
X122266666Y-129657200D02*
X122219047Y-129609580D01*
X122219047Y-129609580D02*
X122171428Y-129514342D01*
X122171428Y-129514342D02*
X122171428Y-129419104D01*
X122171428Y-129419104D02*
X122219047Y-129323866D01*
X122219047Y-129323866D02*
X122266666Y-129276247D01*
X122266666Y-129276247D02*
X122361904Y-129228628D01*
X122361904Y-129228628D02*
X122552380Y-129181009D01*
X122552380Y-129181009D02*
X122647618Y-129133390D01*
X122647618Y-129133390D02*
X122695237Y-129085771D01*
X122695237Y-129085771D02*
X122742856Y-128990533D01*
X122742856Y-128990533D02*
X122742856Y-128895295D01*
X122742856Y-128895295D02*
X122695237Y-128800057D01*
X122695237Y-128800057D02*
X122647618Y-128752438D01*
X122647618Y-128752438D02*
X122552380Y-128704819D01*
X122552380Y-128704819D02*
X122314285Y-128704819D01*
X122314285Y-128704819D02*
X122171428Y-128752438D01*
X121885713Y-128704819D02*
X121314285Y-128704819D01*
X121599999Y-129704819D02*
X121599999Y-128704819D01*
X121028570Y-128800057D02*
X120980951Y-128752438D01*
X120980951Y-128752438D02*
X120885713Y-128704819D01*
X120885713Y-128704819D02*
X120647618Y-128704819D01*
X120647618Y-128704819D02*
X120552380Y-128752438D01*
X120552380Y-128752438D02*
X120504761Y-128800057D01*
X120504761Y-128800057D02*
X120457142Y-128895295D01*
X120457142Y-128895295D02*
X120457142Y-128990533D01*
X120457142Y-128990533D02*
X120504761Y-129133390D01*
X120504761Y-129133390D02*
X121076189Y-129704819D01*
X121076189Y-129704819D02*
X120457142Y-129704819D01*
X129057142Y-115381009D02*
X128914285Y-115428628D01*
X128914285Y-115428628D02*
X128866666Y-115476247D01*
X128866666Y-115476247D02*
X128819047Y-115571485D01*
X128819047Y-115571485D02*
X128819047Y-115714342D01*
X128819047Y-115714342D02*
X128866666Y-115809580D01*
X128866666Y-115809580D02*
X128914285Y-115857200D01*
X128914285Y-115857200D02*
X129009523Y-115904819D01*
X129009523Y-115904819D02*
X129390475Y-115904819D01*
X129390475Y-115904819D02*
X129390475Y-114904819D01*
X129390475Y-114904819D02*
X129057142Y-114904819D01*
X129057142Y-114904819D02*
X128961904Y-114952438D01*
X128961904Y-114952438D02*
X128914285Y-115000057D01*
X128914285Y-115000057D02*
X128866666Y-115095295D01*
X128866666Y-115095295D02*
X128866666Y-115190533D01*
X128866666Y-115190533D02*
X128914285Y-115285771D01*
X128914285Y-115285771D02*
X128961904Y-115333390D01*
X128961904Y-115333390D02*
X129057142Y-115381009D01*
X129057142Y-115381009D02*
X129390475Y-115381009D01*
X128199999Y-114904819D02*
X128009523Y-114904819D01*
X128009523Y-114904819D02*
X127914285Y-114952438D01*
X127914285Y-114952438D02*
X127819047Y-115047676D01*
X127819047Y-115047676D02*
X127771428Y-115238152D01*
X127771428Y-115238152D02*
X127771428Y-115571485D01*
X127771428Y-115571485D02*
X127819047Y-115761961D01*
X127819047Y-115761961D02*
X127914285Y-115857200D01*
X127914285Y-115857200D02*
X128009523Y-115904819D01*
X128009523Y-115904819D02*
X128199999Y-115904819D01*
X128199999Y-115904819D02*
X128295237Y-115857200D01*
X128295237Y-115857200D02*
X128390475Y-115761961D01*
X128390475Y-115761961D02*
X128438094Y-115571485D01*
X128438094Y-115571485D02*
X128438094Y-115238152D01*
X128438094Y-115238152D02*
X128390475Y-115047676D01*
X128390475Y-115047676D02*
X128295237Y-114952438D01*
X128295237Y-114952438D02*
X128199999Y-114904819D01*
X127152380Y-114904819D02*
X126961904Y-114904819D01*
X126961904Y-114904819D02*
X126866666Y-114952438D01*
X126866666Y-114952438D02*
X126771428Y-115047676D01*
X126771428Y-115047676D02*
X126723809Y-115238152D01*
X126723809Y-115238152D02*
X126723809Y-115571485D01*
X126723809Y-115571485D02*
X126771428Y-115761961D01*
X126771428Y-115761961D02*
X126866666Y-115857200D01*
X126866666Y-115857200D02*
X126961904Y-115904819D01*
X126961904Y-115904819D02*
X127152380Y-115904819D01*
X127152380Y-115904819D02*
X127247618Y-115857200D01*
X127247618Y-115857200D02*
X127342856Y-115761961D01*
X127342856Y-115761961D02*
X127390475Y-115571485D01*
X127390475Y-115571485D02*
X127390475Y-115238152D01*
X127390475Y-115238152D02*
X127342856Y-115047676D01*
X127342856Y-115047676D02*
X127247618Y-114952438D01*
X127247618Y-114952438D02*
X127152380Y-114904819D01*
X126438094Y-114904819D02*
X125866666Y-114904819D01*
X126152380Y-115904819D02*
X126152380Y-114904819D01*
X158123809Y-88404819D02*
X158457142Y-87928628D01*
X158695237Y-88404819D02*
X158695237Y-87404819D01*
X158695237Y-87404819D02*
X158314285Y-87404819D01*
X158314285Y-87404819D02*
X158219047Y-87452438D01*
X158219047Y-87452438D02*
X158171428Y-87500057D01*
X158171428Y-87500057D02*
X158123809Y-87595295D01*
X158123809Y-87595295D02*
X158123809Y-87738152D01*
X158123809Y-87738152D02*
X158171428Y-87833390D01*
X158171428Y-87833390D02*
X158219047Y-87881009D01*
X158219047Y-87881009D02*
X158314285Y-87928628D01*
X158314285Y-87928628D02*
X158695237Y-87928628D01*
X157742856Y-88357200D02*
X157599999Y-88404819D01*
X157599999Y-88404819D02*
X157361904Y-88404819D01*
X157361904Y-88404819D02*
X157266666Y-88357200D01*
X157266666Y-88357200D02*
X157219047Y-88309580D01*
X157219047Y-88309580D02*
X157171428Y-88214342D01*
X157171428Y-88214342D02*
X157171428Y-88119104D01*
X157171428Y-88119104D02*
X157219047Y-88023866D01*
X157219047Y-88023866D02*
X157266666Y-87976247D01*
X157266666Y-87976247D02*
X157361904Y-87928628D01*
X157361904Y-87928628D02*
X157552380Y-87881009D01*
X157552380Y-87881009D02*
X157647618Y-87833390D01*
X157647618Y-87833390D02*
X157695237Y-87785771D01*
X157695237Y-87785771D02*
X157742856Y-87690533D01*
X157742856Y-87690533D02*
X157742856Y-87595295D01*
X157742856Y-87595295D02*
X157695237Y-87500057D01*
X157695237Y-87500057D02*
X157647618Y-87452438D01*
X157647618Y-87452438D02*
X157552380Y-87404819D01*
X157552380Y-87404819D02*
X157314285Y-87404819D01*
X157314285Y-87404819D02*
X157171428Y-87452438D01*
X156885713Y-87404819D02*
X156314285Y-87404819D01*
X156599999Y-88404819D02*
X156599999Y-87404819D01*
X155457142Y-88404819D02*
X156028570Y-88404819D01*
X155742856Y-88404819D02*
X155742856Y-87404819D01*
X155742856Y-87404819D02*
X155838094Y-87547676D01*
X155838094Y-87547676D02*
X155933332Y-87642914D01*
X155933332Y-87642914D02*
X156028570Y-87690533D01*
X148923809Y-82204819D02*
X149257142Y-81728628D01*
X149495237Y-82204819D02*
X149495237Y-81204819D01*
X149495237Y-81204819D02*
X149114285Y-81204819D01*
X149114285Y-81204819D02*
X149019047Y-81252438D01*
X149019047Y-81252438D02*
X148971428Y-81300057D01*
X148971428Y-81300057D02*
X148923809Y-81395295D01*
X148923809Y-81395295D02*
X148923809Y-81538152D01*
X148923809Y-81538152D02*
X148971428Y-81633390D01*
X148971428Y-81633390D02*
X149019047Y-81681009D01*
X149019047Y-81681009D02*
X149114285Y-81728628D01*
X149114285Y-81728628D02*
X149495237Y-81728628D01*
X148542856Y-82157200D02*
X148399999Y-82204819D01*
X148399999Y-82204819D02*
X148161904Y-82204819D01*
X148161904Y-82204819D02*
X148066666Y-82157200D01*
X148066666Y-82157200D02*
X148019047Y-82109580D01*
X148019047Y-82109580D02*
X147971428Y-82014342D01*
X147971428Y-82014342D02*
X147971428Y-81919104D01*
X147971428Y-81919104D02*
X148019047Y-81823866D01*
X148019047Y-81823866D02*
X148066666Y-81776247D01*
X148066666Y-81776247D02*
X148161904Y-81728628D01*
X148161904Y-81728628D02*
X148352380Y-81681009D01*
X148352380Y-81681009D02*
X148447618Y-81633390D01*
X148447618Y-81633390D02*
X148495237Y-81585771D01*
X148495237Y-81585771D02*
X148542856Y-81490533D01*
X148542856Y-81490533D02*
X148542856Y-81395295D01*
X148542856Y-81395295D02*
X148495237Y-81300057D01*
X148495237Y-81300057D02*
X148447618Y-81252438D01*
X148447618Y-81252438D02*
X148352380Y-81204819D01*
X148352380Y-81204819D02*
X148114285Y-81204819D01*
X148114285Y-81204819D02*
X147971428Y-81252438D01*
X147685713Y-81204819D02*
X147114285Y-81204819D01*
X147399999Y-82204819D02*
X147399999Y-81204819D01*
X146828570Y-81300057D02*
X146780951Y-81252438D01*
X146780951Y-81252438D02*
X146685713Y-81204819D01*
X146685713Y-81204819D02*
X146447618Y-81204819D01*
X146447618Y-81204819D02*
X146352380Y-81252438D01*
X146352380Y-81252438D02*
X146304761Y-81300057D01*
X146304761Y-81300057D02*
X146257142Y-81395295D01*
X146257142Y-81395295D02*
X146257142Y-81490533D01*
X146257142Y-81490533D02*
X146304761Y-81633390D01*
X146304761Y-81633390D02*
X146876189Y-82204819D01*
X146876189Y-82204819D02*
X146257142Y-82204819D01*
X143657142Y-95481009D02*
X143514285Y-95528628D01*
X143514285Y-95528628D02*
X143466666Y-95576247D01*
X143466666Y-95576247D02*
X143419047Y-95671485D01*
X143419047Y-95671485D02*
X143419047Y-95814342D01*
X143419047Y-95814342D02*
X143466666Y-95909580D01*
X143466666Y-95909580D02*
X143514285Y-95957200D01*
X143514285Y-95957200D02*
X143609523Y-96004819D01*
X143609523Y-96004819D02*
X143990475Y-96004819D01*
X143990475Y-96004819D02*
X143990475Y-95004819D01*
X143990475Y-95004819D02*
X143657142Y-95004819D01*
X143657142Y-95004819D02*
X143561904Y-95052438D01*
X143561904Y-95052438D02*
X143514285Y-95100057D01*
X143514285Y-95100057D02*
X143466666Y-95195295D01*
X143466666Y-95195295D02*
X143466666Y-95290533D01*
X143466666Y-95290533D02*
X143514285Y-95385771D01*
X143514285Y-95385771D02*
X143561904Y-95433390D01*
X143561904Y-95433390D02*
X143657142Y-95481009D01*
X143657142Y-95481009D02*
X143990475Y-95481009D01*
X142799999Y-95004819D02*
X142609523Y-95004819D01*
X142609523Y-95004819D02*
X142514285Y-95052438D01*
X142514285Y-95052438D02*
X142419047Y-95147676D01*
X142419047Y-95147676D02*
X142371428Y-95338152D01*
X142371428Y-95338152D02*
X142371428Y-95671485D01*
X142371428Y-95671485D02*
X142419047Y-95861961D01*
X142419047Y-95861961D02*
X142514285Y-95957200D01*
X142514285Y-95957200D02*
X142609523Y-96004819D01*
X142609523Y-96004819D02*
X142799999Y-96004819D01*
X142799999Y-96004819D02*
X142895237Y-95957200D01*
X142895237Y-95957200D02*
X142990475Y-95861961D01*
X142990475Y-95861961D02*
X143038094Y-95671485D01*
X143038094Y-95671485D02*
X143038094Y-95338152D01*
X143038094Y-95338152D02*
X142990475Y-95147676D01*
X142990475Y-95147676D02*
X142895237Y-95052438D01*
X142895237Y-95052438D02*
X142799999Y-95004819D01*
X141752380Y-95004819D02*
X141561904Y-95004819D01*
X141561904Y-95004819D02*
X141466666Y-95052438D01*
X141466666Y-95052438D02*
X141371428Y-95147676D01*
X141371428Y-95147676D02*
X141323809Y-95338152D01*
X141323809Y-95338152D02*
X141323809Y-95671485D01*
X141323809Y-95671485D02*
X141371428Y-95861961D01*
X141371428Y-95861961D02*
X141466666Y-95957200D01*
X141466666Y-95957200D02*
X141561904Y-96004819D01*
X141561904Y-96004819D02*
X141752380Y-96004819D01*
X141752380Y-96004819D02*
X141847618Y-95957200D01*
X141847618Y-95957200D02*
X141942856Y-95861961D01*
X141942856Y-95861961D02*
X141990475Y-95671485D01*
X141990475Y-95671485D02*
X141990475Y-95338152D01*
X141990475Y-95338152D02*
X141942856Y-95147676D01*
X141942856Y-95147676D02*
X141847618Y-95052438D01*
X141847618Y-95052438D02*
X141752380Y-95004819D01*
X141038094Y-95004819D02*
X140466666Y-95004819D01*
X140752380Y-96004819D02*
X140752380Y-95004819D01*
X130123809Y-88404819D02*
X130457142Y-87928628D01*
X130695237Y-88404819D02*
X130695237Y-87404819D01*
X130695237Y-87404819D02*
X130314285Y-87404819D01*
X130314285Y-87404819D02*
X130219047Y-87452438D01*
X130219047Y-87452438D02*
X130171428Y-87500057D01*
X130171428Y-87500057D02*
X130123809Y-87595295D01*
X130123809Y-87595295D02*
X130123809Y-87738152D01*
X130123809Y-87738152D02*
X130171428Y-87833390D01*
X130171428Y-87833390D02*
X130219047Y-87881009D01*
X130219047Y-87881009D02*
X130314285Y-87928628D01*
X130314285Y-87928628D02*
X130695237Y-87928628D01*
X129742856Y-88357200D02*
X129599999Y-88404819D01*
X129599999Y-88404819D02*
X129361904Y-88404819D01*
X129361904Y-88404819D02*
X129266666Y-88357200D01*
X129266666Y-88357200D02*
X129219047Y-88309580D01*
X129219047Y-88309580D02*
X129171428Y-88214342D01*
X129171428Y-88214342D02*
X129171428Y-88119104D01*
X129171428Y-88119104D02*
X129219047Y-88023866D01*
X129219047Y-88023866D02*
X129266666Y-87976247D01*
X129266666Y-87976247D02*
X129361904Y-87928628D01*
X129361904Y-87928628D02*
X129552380Y-87881009D01*
X129552380Y-87881009D02*
X129647618Y-87833390D01*
X129647618Y-87833390D02*
X129695237Y-87785771D01*
X129695237Y-87785771D02*
X129742856Y-87690533D01*
X129742856Y-87690533D02*
X129742856Y-87595295D01*
X129742856Y-87595295D02*
X129695237Y-87500057D01*
X129695237Y-87500057D02*
X129647618Y-87452438D01*
X129647618Y-87452438D02*
X129552380Y-87404819D01*
X129552380Y-87404819D02*
X129314285Y-87404819D01*
X129314285Y-87404819D02*
X129171428Y-87452438D01*
X128885713Y-87404819D02*
X128314285Y-87404819D01*
X128599999Y-88404819D02*
X128599999Y-87404819D01*
X127457142Y-88404819D02*
X128028570Y-88404819D01*
X127742856Y-88404819D02*
X127742856Y-87404819D01*
X127742856Y-87404819D02*
X127838094Y-87547676D01*
X127838094Y-87547676D02*
X127933332Y-87642914D01*
X127933332Y-87642914D02*
X128028570Y-87690533D01*
X120923809Y-82204819D02*
X121257142Y-81728628D01*
X121495237Y-82204819D02*
X121495237Y-81204819D01*
X121495237Y-81204819D02*
X121114285Y-81204819D01*
X121114285Y-81204819D02*
X121019047Y-81252438D01*
X121019047Y-81252438D02*
X120971428Y-81300057D01*
X120971428Y-81300057D02*
X120923809Y-81395295D01*
X120923809Y-81395295D02*
X120923809Y-81538152D01*
X120923809Y-81538152D02*
X120971428Y-81633390D01*
X120971428Y-81633390D02*
X121019047Y-81681009D01*
X121019047Y-81681009D02*
X121114285Y-81728628D01*
X121114285Y-81728628D02*
X121495237Y-81728628D01*
X120542856Y-82157200D02*
X120399999Y-82204819D01*
X120399999Y-82204819D02*
X120161904Y-82204819D01*
X120161904Y-82204819D02*
X120066666Y-82157200D01*
X120066666Y-82157200D02*
X120019047Y-82109580D01*
X120019047Y-82109580D02*
X119971428Y-82014342D01*
X119971428Y-82014342D02*
X119971428Y-81919104D01*
X119971428Y-81919104D02*
X120019047Y-81823866D01*
X120019047Y-81823866D02*
X120066666Y-81776247D01*
X120066666Y-81776247D02*
X120161904Y-81728628D01*
X120161904Y-81728628D02*
X120352380Y-81681009D01*
X120352380Y-81681009D02*
X120447618Y-81633390D01*
X120447618Y-81633390D02*
X120495237Y-81585771D01*
X120495237Y-81585771D02*
X120542856Y-81490533D01*
X120542856Y-81490533D02*
X120542856Y-81395295D01*
X120542856Y-81395295D02*
X120495237Y-81300057D01*
X120495237Y-81300057D02*
X120447618Y-81252438D01*
X120447618Y-81252438D02*
X120352380Y-81204819D01*
X120352380Y-81204819D02*
X120114285Y-81204819D01*
X120114285Y-81204819D02*
X119971428Y-81252438D01*
X119685713Y-81204819D02*
X119114285Y-81204819D01*
X119399999Y-82204819D02*
X119399999Y-81204819D01*
X118828570Y-81300057D02*
X118780951Y-81252438D01*
X118780951Y-81252438D02*
X118685713Y-81204819D01*
X118685713Y-81204819D02*
X118447618Y-81204819D01*
X118447618Y-81204819D02*
X118352380Y-81252438D01*
X118352380Y-81252438D02*
X118304761Y-81300057D01*
X118304761Y-81300057D02*
X118257142Y-81395295D01*
X118257142Y-81395295D02*
X118257142Y-81490533D01*
X118257142Y-81490533D02*
X118304761Y-81633390D01*
X118304761Y-81633390D02*
X118876189Y-82204819D01*
X118876189Y-82204819D02*
X118257142Y-82204819D01*
X115657142Y-95481009D02*
X115514285Y-95528628D01*
X115514285Y-95528628D02*
X115466666Y-95576247D01*
X115466666Y-95576247D02*
X115419047Y-95671485D01*
X115419047Y-95671485D02*
X115419047Y-95814342D01*
X115419047Y-95814342D02*
X115466666Y-95909580D01*
X115466666Y-95909580D02*
X115514285Y-95957200D01*
X115514285Y-95957200D02*
X115609523Y-96004819D01*
X115609523Y-96004819D02*
X115990475Y-96004819D01*
X115990475Y-96004819D02*
X115990475Y-95004819D01*
X115990475Y-95004819D02*
X115657142Y-95004819D01*
X115657142Y-95004819D02*
X115561904Y-95052438D01*
X115561904Y-95052438D02*
X115514285Y-95100057D01*
X115514285Y-95100057D02*
X115466666Y-95195295D01*
X115466666Y-95195295D02*
X115466666Y-95290533D01*
X115466666Y-95290533D02*
X115514285Y-95385771D01*
X115514285Y-95385771D02*
X115561904Y-95433390D01*
X115561904Y-95433390D02*
X115657142Y-95481009D01*
X115657142Y-95481009D02*
X115990475Y-95481009D01*
X114799999Y-95004819D02*
X114609523Y-95004819D01*
X114609523Y-95004819D02*
X114514285Y-95052438D01*
X114514285Y-95052438D02*
X114419047Y-95147676D01*
X114419047Y-95147676D02*
X114371428Y-95338152D01*
X114371428Y-95338152D02*
X114371428Y-95671485D01*
X114371428Y-95671485D02*
X114419047Y-95861961D01*
X114419047Y-95861961D02*
X114514285Y-95957200D01*
X114514285Y-95957200D02*
X114609523Y-96004819D01*
X114609523Y-96004819D02*
X114799999Y-96004819D01*
X114799999Y-96004819D02*
X114895237Y-95957200D01*
X114895237Y-95957200D02*
X114990475Y-95861961D01*
X114990475Y-95861961D02*
X115038094Y-95671485D01*
X115038094Y-95671485D02*
X115038094Y-95338152D01*
X115038094Y-95338152D02*
X114990475Y-95147676D01*
X114990475Y-95147676D02*
X114895237Y-95052438D01*
X114895237Y-95052438D02*
X114799999Y-95004819D01*
X113752380Y-95004819D02*
X113561904Y-95004819D01*
X113561904Y-95004819D02*
X113466666Y-95052438D01*
X113466666Y-95052438D02*
X113371428Y-95147676D01*
X113371428Y-95147676D02*
X113323809Y-95338152D01*
X113323809Y-95338152D02*
X113323809Y-95671485D01*
X113323809Y-95671485D02*
X113371428Y-95861961D01*
X113371428Y-95861961D02*
X113466666Y-95957200D01*
X113466666Y-95957200D02*
X113561904Y-96004819D01*
X113561904Y-96004819D02*
X113752380Y-96004819D01*
X113752380Y-96004819D02*
X113847618Y-95957200D01*
X113847618Y-95957200D02*
X113942856Y-95861961D01*
X113942856Y-95861961D02*
X113990475Y-95671485D01*
X113990475Y-95671485D02*
X113990475Y-95338152D01*
X113990475Y-95338152D02*
X113942856Y-95147676D01*
X113942856Y-95147676D02*
X113847618Y-95052438D01*
X113847618Y-95052438D02*
X113752380Y-95004819D01*
X113038094Y-95004819D02*
X112466666Y-95004819D01*
X112752380Y-96004819D02*
X112752380Y-95004819D01*
D11*
%TO.C,TP8*%
X141600000Y-122050000D02*
X141600000Y-120650000D01*
X141600000Y-120650000D02*
X140200000Y-120650000D01*
X140200000Y-122050000D02*
X141600000Y-122050000D01*
X140200000Y-120650000D02*
X140200000Y-122050000D01*
%TO.C,TP7*%
X149400000Y-128250000D02*
X150800000Y-128250000D01*
X150800000Y-128250000D02*
X150800000Y-126850000D01*
X149400000Y-126850000D02*
X149400000Y-128250000D01*
X150800000Y-126850000D02*
X149400000Y-126850000D01*
%TO.C,TP5*%
X156400000Y-114350000D02*
X156400000Y-112950000D01*
X156400000Y-112950000D02*
X155000000Y-112950000D01*
X155000000Y-114350000D02*
X156400000Y-114350000D01*
X155000000Y-112950000D02*
X155000000Y-114350000D01*
%TO.C,TP8*%
X112200000Y-120650000D02*
X112200000Y-122050000D01*
X112200000Y-122050000D02*
X113600000Y-122050000D01*
X113600000Y-120650000D02*
X112200000Y-120650000D01*
X113600000Y-122050000D02*
X113600000Y-120650000D01*
%TO.C,TP7*%
X122800000Y-126850000D02*
X121400000Y-126850000D01*
X121400000Y-126850000D02*
X121400000Y-128250000D01*
X122800000Y-128250000D02*
X122800000Y-126850000D01*
X121400000Y-128250000D02*
X122800000Y-128250000D01*
%TO.C,TP5*%
X127000000Y-112950000D02*
X127000000Y-114350000D01*
X127000000Y-114350000D02*
X128400000Y-114350000D01*
X128400000Y-112950000D02*
X127000000Y-112950000D01*
X128400000Y-114350000D02*
X128400000Y-112950000D01*
%TO.C,TP8*%
X157800000Y-90350000D02*
X157800000Y-88950000D01*
X157800000Y-88950000D02*
X156400000Y-88950000D01*
X156400000Y-90350000D02*
X157800000Y-90350000D01*
X156400000Y-88950000D02*
X156400000Y-90350000D01*
%TO.C,TP7*%
X147200000Y-84150000D02*
X148600000Y-84150000D01*
X148600000Y-84150000D02*
X148600000Y-82750000D01*
X147200000Y-82750000D02*
X147200000Y-84150000D01*
X148600000Y-82750000D02*
X147200000Y-82750000D01*
%TO.C,TP5*%
X143000000Y-98050000D02*
X143000000Y-96650000D01*
X143000000Y-96650000D02*
X141600000Y-96650000D01*
X141600000Y-98050000D02*
X143000000Y-98050000D01*
X141600000Y-96650000D02*
X141600000Y-98050000D01*
%TO.C,TP8*%
X128400000Y-88950000D02*
X128400000Y-90350000D01*
X128400000Y-90350000D02*
X129800000Y-90350000D01*
X129800000Y-88950000D02*
X128400000Y-88950000D01*
X129800000Y-90350000D02*
X129800000Y-88950000D01*
%TO.C,TP7*%
X120600000Y-82750000D02*
X119200000Y-82750000D01*
X119200000Y-82750000D02*
X119200000Y-84150000D01*
X120600000Y-84150000D02*
X120600000Y-82750000D01*
X119200000Y-84150000D02*
X120600000Y-84150000D01*
%TO.C,TP5*%
X113600000Y-96650000D02*
X113600000Y-98050000D01*
X113600000Y-98050000D02*
X115000000Y-98050000D01*
X115000000Y-96650000D02*
X113600000Y-96650000D01*
X115000000Y-98050000D02*
X115000000Y-96650000D01*
%TD*%
%LPC*%
D12*
%TO.C,TP4*%
X154700000Y-76000000D03*
%TD*%
%TO.C,TP2*%
X143300000Y-76000000D03*
%TD*%
%TO.C,TP4*%
X126700000Y-76000000D03*
%TD*%
%TO.C,TP2*%
X115300000Y-76000000D03*
%TD*%
%TO.C,TP4*%
X115300000Y-135000000D03*
%TD*%
%TO.C,TP2*%
X126700000Y-135000000D03*
%TD*%
%TO.C,TP4*%
X143300000Y-135000000D03*
%TD*%
%TO.C,TP2*%
X154700000Y-135000000D03*
%TD*%
D13*
%TO.C,J1*%
X141020000Y-116025000D03*
X143560000Y-116025000D03*
X146100000Y-116025000D03*
X148640000Y-116025000D03*
X151180000Y-116025000D03*
%TD*%
%TO.C,J1*%
X123180000Y-116025000D03*
X120640000Y-116025000D03*
X118100000Y-116025000D03*
X115560000Y-116025000D03*
X113020000Y-116025000D03*
%TD*%
D14*
%TO.C,J1*%
X146820000Y-94975000D03*
X149360000Y-94975000D03*
X151900000Y-94975000D03*
X154440000Y-94975000D03*
X156980000Y-94975000D03*
%TD*%
%TO.C,J1*%
X118820000Y-94975000D03*
X121360000Y-94975000D03*
X123900000Y-94975000D03*
X126440000Y-94975000D03*
X128980000Y-94975000D03*
%TD*%
D15*
%TO.C,TP8*%
X140900000Y-121350000D03*
%TD*%
%TO.C,TP7*%
X150100000Y-127550000D03*
%TD*%
D16*
%TO.C,H1*%
X160300000Y-116500000D03*
%TD*%
D17*
%TO.C,P1*%
X145580000Y-133120000D03*
D18*
X151750000Y-133960000D03*
X151250000Y-133960000D03*
X150750000Y-133960000D03*
X150250000Y-133960000D03*
X149750000Y-133960000D03*
X148250000Y-133960000D03*
X147750000Y-133960000D03*
X147250000Y-133960000D03*
X146750000Y-133960000D03*
X146250000Y-133960000D03*
%TD*%
D15*
%TO.C,TP5*%
X155700000Y-113650000D03*
%TD*%
D16*
%TO.C,H2*%
X137700000Y-116500000D03*
%TD*%
D15*
%TO.C,TP8*%
X112900000Y-121350000D03*
%TD*%
%TO.C,TP7*%
X122100000Y-127550000D03*
%TD*%
D16*
%TO.C,H1*%
X132300000Y-116500000D03*
%TD*%
D18*
%TO.C,P1*%
X118250000Y-133960000D03*
X118750000Y-133960000D03*
X119250000Y-133960000D03*
X119750000Y-133960000D03*
X120250000Y-133960000D03*
X121750000Y-133960000D03*
X122250000Y-133960000D03*
X122750000Y-133960000D03*
X123250000Y-133960000D03*
X123750000Y-133960000D03*
D17*
X117580000Y-133120000D03*
%TD*%
D15*
%TO.C,TP5*%
X127700000Y-113650000D03*
%TD*%
D16*
%TO.C,H2*%
X109700000Y-116500000D03*
%TD*%
D15*
%TO.C,TP8*%
X157100000Y-89650000D03*
%TD*%
%TO.C,TP7*%
X147900000Y-83450000D03*
%TD*%
D16*
%TO.C,H1*%
X137700000Y-94500000D03*
%TD*%
D18*
%TO.C,P1*%
X151750000Y-77040000D03*
X151250000Y-77040000D03*
X150750000Y-77040000D03*
X150250000Y-77040000D03*
X149750000Y-77040000D03*
X148250000Y-77040000D03*
X147750000Y-77040000D03*
X147250000Y-77040000D03*
X146750000Y-77040000D03*
X146250000Y-77040000D03*
D17*
X152420000Y-77880000D03*
%TD*%
D15*
%TO.C,TP5*%
X142300000Y-97350000D03*
%TD*%
D16*
%TO.C,H2*%
X160300000Y-94500000D03*
%TD*%
D15*
%TO.C,TP8*%
X129100000Y-89650000D03*
%TD*%
%TO.C,TP7*%
X119900000Y-83450000D03*
%TD*%
%TO.C,TP5*%
X114300000Y-97350000D03*
%TD*%
D17*
%TO.C,P1*%
X124420000Y-77880000D03*
D18*
X118250000Y-77040000D03*
X118750000Y-77040000D03*
X119250000Y-77040000D03*
X119750000Y-77040000D03*
X120250000Y-77040000D03*
X121750000Y-77040000D03*
X122250000Y-77040000D03*
X122750000Y-77040000D03*
X123250000Y-77040000D03*
X123750000Y-77040000D03*
%TD*%
D16*
%TO.C,H2*%
X132300000Y-94500000D03*
%TD*%
%TO.C,H1*%
X109700000Y-94500000D03*
%TD*%
%LPD*%
M02*
