%TF.GenerationSoftware,KiCad,Pcbnew,7.0.8*%
%TF.CreationDate,2024-04-11T03:43:44+02:00*%
%TF.ProjectId,Expansion_Card_Retrofit,45787061-6e73-4696-9f6e-5f436172645f,X1*%
%TF.SameCoordinates,Original*%
%TF.FileFunction,Legend,Top*%
%TF.FilePolarity,Positive*%
%FSLAX46Y46*%
G04 Gerber Fmt 4.6, Leading zero omitted, Abs format (unit mm)*
G04 Created by KiCad (PCBNEW 7.0.8) date 2024-04-11 03:43:44*
%MOMM*%
%LPD*%
G01*
G04 APERTURE LIST*
G04 Aperture macros list*
%AMRoundRect*
0 Rectangle with rounded corners*
0 $1 Rounding radius*
0 $2 $3 $4 $5 $6 $7 $8 $9 X,Y pos of 4 corners*
0 Add a 4 corners polygon primitive as box body*
4,1,4,$2,$3,$4,$5,$6,$7,$8,$9,$2,$3,0*
0 Add four circle primitives for the rounded corners*
1,1,$1+$1,$2,$3*
1,1,$1+$1,$4,$5*
1,1,$1+$1,$6,$7*
1,1,$1+$1,$8,$9*
0 Add four rect primitives between the rounded corners*
20,1,$1+$1,$2,$3,$4,$5,0*
20,1,$1+$1,$4,$5,$6,$7,0*
20,1,$1+$1,$6,$7,$8,$9,0*
20,1,$1+$1,$8,$9,$2,$3,0*%
G04 Aperture macros list end*
%ADD10C,0.101500*%
%ADD11C,0.120000*%
%ADD12C,0.254000*%
%ADD13C,0.100000*%
%ADD14C,0.127000*%
%ADD15C,0.200000*%
%ADD16RoundRect,0.135000X-0.185000X0.135000X-0.185000X-0.135000X0.185000X-0.135000X0.185000X0.135000X0*%
%ADD17R,0.800000X0.800000*%
%ADD18R,1.300000X1.000000*%
%ADD19RoundRect,0.135000X0.185000X-0.135000X0.185000X0.135000X-0.185000X0.135000X-0.185000X-0.135000X0*%
%ADD20RoundRect,0.147500X-0.147500X-0.172500X0.147500X-0.172500X0.147500X0.172500X-0.147500X0.172500X0*%
%ADD21RoundRect,0.100000X-0.130000X-0.100000X0.130000X-0.100000X0.130000X0.100000X-0.130000X0.100000X0*%
%ADD22RoundRect,0.200000X0.200000X0.250000X-0.200000X0.250000X-0.200000X-0.250000X0.200000X-0.250000X0*%
%ADD23RoundRect,0.100000X0.130000X0.100000X-0.130000X0.100000X-0.130000X-0.100000X0.130000X-0.100000X0*%
%ADD24RoundRect,0.200000X0.200000X0.275000X-0.200000X0.275000X-0.200000X-0.275000X0.200000X-0.275000X0*%
%ADD25RoundRect,0.100000X0.100000X-0.130000X0.100000X0.130000X-0.100000X0.130000X-0.100000X-0.130000X0*%
%ADD26RoundRect,0.140000X0.170000X-0.140000X0.170000X0.140000X-0.170000X0.140000X-0.170000X-0.140000X0*%
%ADD27RoundRect,0.102000X0.150000X-0.300000X0.150000X0.300000X-0.150000X0.300000X-0.150000X-0.300000X0*%
%ADD28RoundRect,0.102000X0.850000X-0.150000X0.850000X0.150000X-0.850000X0.150000X-0.850000X-0.150000X0*%
%ADD29RoundRect,0.050000X0.050000X-0.387500X0.050000X0.387500X-0.050000X0.387500X-0.050000X-0.387500X0*%
%ADD30RoundRect,0.050000X0.387500X-0.050000X0.387500X0.050000X-0.387500X0.050000X-0.387500X-0.050000X0*%
%ADD31R,3.200000X3.200000*%
%ADD32R,1.500000X1.500000*%
%ADD33R,0.400000X0.450000*%
%ADD34R,0.500000X0.450000*%
%ADD35RoundRect,0.250000X-0.250000X-1.000000X0.250000X-1.000000X0.250000X1.000000X-0.250000X1.000000X0*%
%ADD36R,0.425000X0.400000*%
%ADD37R,1.150000X0.950000*%
%ADD38R,0.800000X0.480000*%
%ADD39RoundRect,0.135000X-0.135000X-0.185000X0.135000X-0.185000X0.135000X0.185000X-0.135000X0.185000X0*%
%ADD40R,0.380000X1.000000*%
%ADD41R,0.700000X1.150000*%
%ADD42RoundRect,0.135000X0.135000X0.185000X-0.135000X0.185000X-0.135000X-0.185000X0.135000X-0.185000X0*%
%ADD43R,0.600000X0.420000*%
%ADD44RoundRect,0.100000X-0.100000X0.130000X-0.100000X-0.130000X0.100000X-0.130000X0.100000X0.130000X0*%
%ADD45RoundRect,0.102000X-0.300000X-0.150000X0.300000X-0.150000X0.300000X0.150000X-0.300000X0.150000X0*%
%ADD46RoundRect,0.102000X-0.150000X-0.850000X0.150000X-0.850000X0.150000X0.850000X-0.150000X0.850000X0*%
%ADD47RoundRect,0.050000X-0.387500X-0.050000X0.387500X-0.050000X0.387500X0.050000X-0.387500X0.050000X0*%
%ADD48RoundRect,0.050000X-0.050000X-0.387500X0.050000X-0.387500X0.050000X0.387500X-0.050000X0.387500X0*%
%ADD49R,0.250000X0.400000*%
%ADD50R,0.700000X0.400000*%
%ADD51C,2.200000*%
%ADD52RoundRect,0.140000X-0.140000X-0.170000X0.140000X-0.170000X0.140000X0.170000X-0.140000X0.170000X0*%
G04 APERTURE END LIST*
D10*
X131527076Y-92330784D02*
X131916542Y-92914984D01*
X131916542Y-92330784D02*
X131527076Y-92914984D01*
X132445104Y-92914984D02*
X132111276Y-92914984D01*
X132278190Y-92914984D02*
X132278190Y-92330784D01*
X132278190Y-92330784D02*
X132222552Y-92414241D01*
X132222552Y-92414241D02*
X132166914Y-92469879D01*
X132166914Y-92469879D02*
X132111276Y-92497698D01*
D11*
%TO.C,R4*%
X132880000Y-101858859D02*
X132880000Y-102166141D01*
X132120000Y-101858859D02*
X132120000Y-102166141D01*
%TO.C,R10*%
X128580000Y-80796359D02*
X128580000Y-81103641D01*
X127820000Y-80796359D02*
X127820000Y-81103641D01*
%TO.C,R9*%
X127080000Y-80796359D02*
X127080000Y-81103641D01*
X126320000Y-80796359D02*
X126320000Y-81103641D01*
D12*
%TO.C,S1*%
X109200000Y-101386500D02*
X109750000Y-101386500D01*
X109200000Y-102336500D02*
X109200000Y-101386500D01*
X109200000Y-103636500D02*
X109200000Y-104586500D01*
X109200000Y-104586500D02*
X115900000Y-104586500D01*
X110850000Y-101386500D02*
X111950000Y-101386500D01*
X113150000Y-101386500D02*
X114250000Y-101386500D01*
X115350000Y-101386500D02*
X115900000Y-101386500D01*
X115900000Y-102336500D02*
X115900000Y-101386500D01*
X115900000Y-104586500D02*
X115900000Y-103636500D01*
D11*
%TO.C,R2*%
X115620000Y-97003641D02*
X115620000Y-96696359D01*
X116380000Y-97003641D02*
X116380000Y-96696359D01*
%TO.C,R1*%
X119880000Y-80296359D02*
X119880000Y-80603641D01*
X119120000Y-80296359D02*
X119120000Y-80603641D01*
D13*
%TO.C,D1*%
X130960000Y-104162500D02*
G75*
G03*
X130960000Y-104162500I-50000J0D01*
G01*
D11*
%TO.C,X1*%
X133110000Y-89830000D02*
X133110000Y-90470000D01*
X132380000Y-91710000D02*
X133070000Y-91710000D01*
X132170000Y-88790000D02*
X131830000Y-88790000D01*
X132160000Y-91510000D02*
X131830000Y-91510000D01*
X130890000Y-89830000D02*
X130890000Y-90470000D01*
X132160000Y-91510000D02*
G75*
G03*
X132380000Y-91709999I310001J120002D01*
G01*
%TO.C,R11*%
X113637258Y-81772500D02*
X113162742Y-81772500D01*
X113637258Y-80727500D02*
X113162742Y-80727500D01*
%TO.C,R12*%
X111280000Y-81196359D02*
X111280000Y-81503641D01*
X110520000Y-81196359D02*
X110520000Y-81503641D01*
%TO.C,C8*%
X110540000Y-83757836D02*
X110540000Y-83542164D01*
X111260000Y-83757836D02*
X111260000Y-83542164D01*
D14*
%TO.C,U3*%
X109100000Y-89480000D02*
X109100000Y-89320000D01*
X111100000Y-89480000D02*
X111100000Y-89320000D01*
X109100000Y-88220000D02*
X109100000Y-88380000D01*
X111100000Y-88220000D02*
X111100000Y-88380000D01*
D15*
X109440000Y-91010000D02*
G75*
G03*
X109440000Y-91010000I-100000J0D01*
G01*
D11*
%TO.C,C9*%
X109040000Y-81457836D02*
X109040000Y-81242164D01*
X109760000Y-81457836D02*
X109760000Y-81242164D01*
%TO.C,C7*%
X109040000Y-83757836D02*
X109040000Y-83542164D01*
X109760000Y-83757836D02*
X109760000Y-83542164D01*
%TO.C,U2*%
X119610000Y-90260000D02*
X118960000Y-90260000D01*
X112390000Y-89610000D02*
X112390000Y-90260000D01*
X119610000Y-89610000D02*
X119610000Y-90260000D01*
X112390000Y-83690000D02*
X112390000Y-83040000D01*
X119610000Y-83690000D02*
X119610000Y-83040000D01*
X112390000Y-83040000D02*
X113040000Y-83040000D01*
X119610000Y-83040000D02*
X118960000Y-83040000D01*
%TO.C,Q2*%
X114300000Y-96150000D02*
X114300000Y-96750000D01*
X112700000Y-95950000D02*
X112700000Y-97150000D01*
%TO.C,U1*%
X111100000Y-79625000D02*
X112100000Y-79625000D01*
X111100000Y-77325000D02*
X113100000Y-77325000D01*
%TO.C,R16*%
X122346359Y-91270000D02*
X122653641Y-91270000D01*
X122346359Y-92030000D02*
X122653641Y-92030000D01*
%TO.C,C1*%
X115340000Y-78757836D02*
X115340000Y-78542164D01*
X116060000Y-78757836D02*
X116060000Y-78542164D01*
%TO.C,R17*%
X129353641Y-78630000D02*
X129046359Y-78630000D01*
X129353641Y-77870000D02*
X129046359Y-77870000D01*
%TO.C,R15*%
X118246359Y-92070000D02*
X118553641Y-92070000D01*
X118246359Y-92830000D02*
X118553641Y-92830000D01*
D13*
%TO.C,Q3*%
X116200000Y-92425000D02*
X115900000Y-92425000D01*
X114925000Y-92425000D02*
X114600000Y-92725000D01*
X116200000Y-92725000D02*
X116200000Y-92425000D01*
X114600000Y-92725000D02*
X114200000Y-92725000D01*
X116200000Y-94575000D02*
X116200000Y-94875000D01*
X114600000Y-94600000D02*
X114600000Y-94875000D01*
X116200000Y-94875000D02*
X115975000Y-94875000D01*
X114600000Y-94875000D02*
X114850000Y-94875000D01*
D11*
%TO.C,C15*%
X130840000Y-81257836D02*
X130840000Y-81042164D01*
X131560000Y-81257836D02*
X131560000Y-81042164D01*
D14*
%TO.C,U5*%
X121870000Y-79750000D02*
X122030000Y-79750000D01*
X121870000Y-81750000D02*
X122030000Y-81750000D01*
X123130000Y-79750000D02*
X122970000Y-79750000D01*
X123130000Y-81750000D02*
X122970000Y-81750000D01*
D15*
X120440000Y-79990000D02*
G75*
G03*
X120440000Y-79990000I-100000J0D01*
G01*
D11*
%TO.C,C14*%
X129340000Y-81257836D02*
X129340000Y-81042164D01*
X130060000Y-81257836D02*
X130060000Y-81042164D01*
%TO.C,U4*%
X122390000Y-90260000D02*
X122390000Y-89610000D01*
X123040000Y-83040000D02*
X122390000Y-83040000D01*
X123040000Y-90260000D02*
X122390000Y-90260000D01*
X128960000Y-83040000D02*
X129610000Y-83040000D01*
X128960000Y-90260000D02*
X129610000Y-90260000D01*
X129610000Y-83040000D02*
X129610000Y-83690000D01*
X129610000Y-90260000D02*
X129610000Y-89610000D01*
%TO.C,Q1*%
X120900000Y-91250000D02*
X120400000Y-91250000D01*
X120900000Y-91750000D02*
X120900000Y-91250000D01*
D13*
%TO.C,D2*%
X125760000Y-78250000D02*
G75*
G03*
X125760000Y-78250000I-50000J0D01*
G01*
D11*
%TO.C,C2*%
X111492164Y-75890000D02*
X111707836Y-75890000D01*
X111492164Y-76610000D02*
X111707836Y-76610000D01*
%TD*%
%LPC*%
D16*
%TO.C,R4*%
X132500000Y-101502500D03*
X132500000Y-102522500D03*
%TD*%
%TO.C,R10*%
X128200000Y-80440000D03*
X128200000Y-81460000D03*
%TD*%
%TO.C,R9*%
X126700000Y-80440000D03*
X126700000Y-81460000D03*
%TD*%
D17*
%TO.C,S1*%
X110300000Y-101086500D03*
X112550000Y-101086500D03*
X114800000Y-101086500D03*
D18*
X116150000Y-102986500D03*
X108950000Y-102986500D03*
%TD*%
D19*
%TO.C,R2*%
X116000000Y-97360000D03*
X116000000Y-96340000D03*
%TD*%
D16*
%TO.C,R1*%
X119500000Y-79940000D03*
X119500000Y-80960000D03*
%TD*%
D20*
%TO.C,D1*%
X131515000Y-104162500D03*
X132485000Y-104162500D03*
%TD*%
D21*
%TO.C,C18*%
X122580000Y-92650000D03*
X123220000Y-92650000D03*
%TD*%
D22*
%TO.C,X1*%
X132725000Y-91075000D03*
X132725000Y-89225000D03*
X131275000Y-89225000D03*
X131275000Y-91075000D03*
%TD*%
D23*
%TO.C,C10*%
X112820000Y-91650000D03*
X112180000Y-91650000D03*
%TD*%
D24*
%TO.C,R11*%
X114225000Y-81250000D03*
X112575000Y-81250000D03*
%TD*%
D25*
%TO.C,C5*%
X121000000Y-86470000D03*
X121000000Y-85830000D03*
%TD*%
D16*
%TO.C,R12*%
X110900000Y-80840000D03*
X110900000Y-81860000D03*
%TD*%
D26*
%TO.C,C8*%
X110900000Y-84130000D03*
X110900000Y-83170000D03*
%TD*%
D25*
%TO.C,C11*%
X109700000Y-86070000D03*
X109700000Y-85430000D03*
%TD*%
D27*
%TO.C,U3*%
X109350000Y-90100000D03*
X109850000Y-90100000D03*
X110350000Y-90100000D03*
X110850000Y-90100000D03*
X110850000Y-87600000D03*
X110350000Y-87600000D03*
X109850000Y-87600000D03*
X109350000Y-87600000D03*
D28*
X110100000Y-88850000D03*
%TD*%
D26*
%TO.C,C9*%
X109400000Y-81830000D03*
X109400000Y-80870000D03*
%TD*%
D25*
%TO.C,C6*%
X111000000Y-86070000D03*
X111000000Y-85430000D03*
%TD*%
D21*
%TO.C,C22*%
X117880000Y-91550000D03*
X118520000Y-91550000D03*
%TD*%
D26*
%TO.C,C7*%
X109400000Y-84130000D03*
X109400000Y-83170000D03*
%TD*%
D21*
%TO.C,C24*%
X116980000Y-81650000D03*
X117620000Y-81650000D03*
%TD*%
D29*
%TO.C,U2*%
X113400000Y-90087500D03*
X113800000Y-90087500D03*
X114200000Y-90087500D03*
X114600000Y-90087500D03*
X115000000Y-90087500D03*
X115400000Y-90087500D03*
X115800000Y-90087500D03*
X116200000Y-90087500D03*
X116600000Y-90087500D03*
X117000000Y-90087500D03*
X117400000Y-90087500D03*
X117800000Y-90087500D03*
X118200000Y-90087500D03*
X118600000Y-90087500D03*
D30*
X119437500Y-89250000D03*
X119437500Y-88850000D03*
X119437500Y-88450000D03*
X119437500Y-88050000D03*
X119437500Y-87650000D03*
X119437500Y-87250000D03*
X119437500Y-86850000D03*
X119437500Y-86450000D03*
X119437500Y-86050000D03*
X119437500Y-85650000D03*
X119437500Y-85250000D03*
X119437500Y-84850000D03*
X119437500Y-84450000D03*
X119437500Y-84050000D03*
D29*
X118600000Y-83212500D03*
X118200000Y-83212500D03*
X117800000Y-83212500D03*
X117400000Y-83212500D03*
X117000000Y-83212500D03*
X116600000Y-83212500D03*
X116200000Y-83212500D03*
X115800000Y-83212500D03*
X115400000Y-83212500D03*
X115000000Y-83212500D03*
X114600000Y-83212500D03*
X114200000Y-83212500D03*
X113800000Y-83212500D03*
X113400000Y-83212500D03*
D30*
X112562500Y-84050000D03*
X112562500Y-84450000D03*
X112562500Y-84850000D03*
X112562500Y-85250000D03*
X112562500Y-85650000D03*
X112562500Y-86050000D03*
X112562500Y-86450000D03*
X112562500Y-86850000D03*
X112562500Y-87250000D03*
X112562500Y-87650000D03*
X112562500Y-88050000D03*
X112562500Y-88450000D03*
X112562500Y-88850000D03*
X112562500Y-89250000D03*
D31*
X116000000Y-86650000D03*
%TD*%
D32*
%TO.C,TP1*%
X115300000Y-76000000D03*
%TD*%
D33*
%TO.C,Q2*%
X113100000Y-97025000D03*
X113900000Y-97025000D03*
D34*
X113500000Y-95875000D03*
%TD*%
D35*
%TO.C,J1*%
X118820000Y-94975000D03*
X121360000Y-94975000D03*
X123900000Y-94975000D03*
X126440000Y-94975000D03*
X128980000Y-94975000D03*
%TD*%
D36*
%TO.C,U1*%
X113037500Y-79125000D03*
X113037500Y-78475000D03*
X113037500Y-77825000D03*
X111162500Y-77825000D03*
X111162500Y-78475000D03*
X111162500Y-79125000D03*
D37*
X112100000Y-78800000D03*
D38*
X112100000Y-77775000D03*
%TD*%
D32*
%TO.C,TP3*%
X126700000Y-76000000D03*
%TD*%
D39*
%TO.C,R16*%
X121990000Y-91650000D03*
X123010000Y-91650000D03*
%TD*%
D40*
%TO.C,P1*%
X118250000Y-77040000D03*
X118750000Y-77040000D03*
X119250000Y-77040000D03*
X119750000Y-77040000D03*
X120250000Y-77040000D03*
X120750000Y-77040000D03*
X121250000Y-77040000D03*
X121750000Y-77040000D03*
X122250000Y-77040000D03*
X122750000Y-77040000D03*
X123250000Y-77040000D03*
X123750000Y-77040000D03*
D41*
X117580000Y-77880000D03*
%TD*%
D26*
%TO.C,C1*%
X115700000Y-79130000D03*
X115700000Y-78170000D03*
%TD*%
D42*
%TO.C,R17*%
X129710000Y-78250000D03*
X128690000Y-78250000D03*
%TD*%
D39*
%TO.C,R15*%
X117890000Y-92450000D03*
X118910000Y-92450000D03*
%TD*%
D43*
%TO.C,Q3*%
X114450000Y-93000000D03*
X114450000Y-93650000D03*
X114450000Y-94300000D03*
X116350000Y-94300000D03*
X116350000Y-93650000D03*
X116350000Y-93000000D03*
%TD*%
D44*
%TO.C,C12*%
X128000000Y-91630000D03*
X128000000Y-92270000D03*
%TD*%
%TO.C,C20*%
X126800000Y-91630000D03*
X126800000Y-92270000D03*
%TD*%
D25*
%TO.C,C21*%
X131000000Y-87650000D03*
X131000000Y-87010000D03*
%TD*%
D26*
%TO.C,C15*%
X131200000Y-81630000D03*
X131200000Y-80670000D03*
%TD*%
D25*
%TO.C,C16*%
X121000000Y-84070000D03*
X121000000Y-83430000D03*
%TD*%
D45*
%TO.C,U5*%
X121250000Y-80000000D03*
X121250000Y-80500000D03*
X121250000Y-81000000D03*
X121250000Y-81500000D03*
X123750000Y-81500000D03*
X123750000Y-81000000D03*
X123750000Y-80500000D03*
X123750000Y-80000000D03*
D46*
X122500000Y-80750000D03*
%TD*%
D26*
%TO.C,C14*%
X129700000Y-81630000D03*
X129700000Y-80670000D03*
%TD*%
D47*
%TO.C,U4*%
X122562500Y-84050000D03*
X122562500Y-84450000D03*
X122562500Y-84850000D03*
X122562500Y-85250000D03*
X122562500Y-85650000D03*
X122562500Y-86050000D03*
X122562500Y-86450000D03*
X122562500Y-86850000D03*
X122562500Y-87250000D03*
X122562500Y-87650000D03*
X122562500Y-88050000D03*
X122562500Y-88450000D03*
X122562500Y-88850000D03*
X122562500Y-89250000D03*
D48*
X123400000Y-90087500D03*
X123800000Y-90087500D03*
X124200000Y-90087500D03*
X124600000Y-90087500D03*
X125000000Y-90087500D03*
X125400000Y-90087500D03*
X125800000Y-90087500D03*
X126200000Y-90087500D03*
X126600000Y-90087500D03*
X127000000Y-90087500D03*
X127400000Y-90087500D03*
X127800000Y-90087500D03*
X128200000Y-90087500D03*
X128600000Y-90087500D03*
D47*
X129437500Y-89250000D03*
X129437500Y-88850000D03*
X129437500Y-88450000D03*
X129437500Y-88050000D03*
X129437500Y-87650000D03*
X129437500Y-87250000D03*
X129437500Y-86850000D03*
X129437500Y-86450000D03*
X129437500Y-86050000D03*
X129437500Y-85650000D03*
X129437500Y-85250000D03*
X129437500Y-84850000D03*
X129437500Y-84450000D03*
X129437500Y-84050000D03*
D48*
X128600000Y-83212500D03*
X128200000Y-83212500D03*
X127800000Y-83212500D03*
X127400000Y-83212500D03*
X127000000Y-83212500D03*
X126600000Y-83212500D03*
X126200000Y-83212500D03*
X125800000Y-83212500D03*
X125400000Y-83212500D03*
X125000000Y-83212500D03*
X124600000Y-83212500D03*
X124200000Y-83212500D03*
X123800000Y-83212500D03*
X123400000Y-83212500D03*
D31*
X126000000Y-86650000D03*
%TD*%
D25*
%TO.C,C13*%
X125300000Y-81070000D03*
X125300000Y-80430000D03*
%TD*%
D44*
%TO.C,C19*%
X121000000Y-87530000D03*
X121000000Y-88170000D03*
%TD*%
D49*
%TO.C,Q1*%
X120625000Y-91600000D03*
X120175000Y-91600000D03*
D50*
X120400000Y-92300000D03*
%TD*%
D20*
%TO.C,D2*%
X126315000Y-78250000D03*
X127285000Y-78250000D03*
%TD*%
D51*
%TO.C,H2*%
X132300000Y-94500000D03*
%TD*%
%TO.C,H1*%
X109700000Y-94500000D03*
%TD*%
D52*
%TO.C,C2*%
X111120000Y-76250000D03*
X112080000Y-76250000D03*
%TD*%
%LPD*%
M02*
