%TF.GenerationSoftware,KiCad,Pcbnew,7.0.8*%
%TF.CreationDate,2024-04-11T01:14:03+02:00*%
%TF.ProjectId,Expansion_Card_Retrofit,45787061-6e73-4696-9f6e-5f436172645f,X1*%
%TF.SameCoordinates,Original*%
%TF.FileFunction,Paste,Top*%
%TF.FilePolarity,Positive*%
%FSLAX46Y46*%
G04 Gerber Fmt 4.6, Leading zero omitted, Abs format (unit mm)*
G04 Created by KiCad (PCBNEW 7.0.8) date 2024-04-11 01:14:03*
%MOMM*%
%LPD*%
G01*
G04 APERTURE LIST*
G04 Aperture macros list*
%AMRoundRect*
0 Rectangle with rounded corners*
0 $1 Rounding radius*
0 $2 $3 $4 $5 $6 $7 $8 $9 X,Y pos of 4 corners*
0 Add a 4 corners polygon primitive as box body*
4,1,4,$2,$3,$4,$5,$6,$7,$8,$9,$2,$3,0*
0 Add four circle primitives for the rounded corners*
1,1,$1+$1,$2,$3*
1,1,$1+$1,$4,$5*
1,1,$1+$1,$6,$7*
1,1,$1+$1,$8,$9*
0 Add four rect primitives between the rounded corners*
20,1,$1+$1,$2,$3,$4,$5,0*
20,1,$1+$1,$4,$5,$6,$7,0*
20,1,$1+$1,$6,$7,$8,$9,0*
20,1,$1+$1,$8,$9,$2,$3,0*%
G04 Aperture macros list end*
%ADD10C,0.010000*%
%ADD11RoundRect,0.250000X0.250000X1.000000X-0.250000X1.000000X-0.250000X-1.000000X0.250000X-1.000000X0*%
%ADD12RoundRect,0.250000X-0.250000X-1.000000X0.250000X-1.000000X0.250000X1.000000X-0.250000X1.000000X0*%
%ADD13RoundRect,0.135000X-0.185000X0.135000X-0.185000X-0.135000X0.185000X-0.135000X0.185000X0.135000X0*%
%ADD14RoundRect,0.135000X-0.135000X-0.185000X0.135000X-0.185000X0.135000X0.185000X-0.135000X0.185000X0*%
%ADD15R,0.800000X0.480000*%
%ADD16R,1.150000X0.950000*%
%ADD17R,0.425000X0.400000*%
%ADD18RoundRect,0.147500X0.147500X0.172500X-0.147500X0.172500X-0.147500X-0.172500X0.147500X-0.172500X0*%
%ADD19R,1.300000X1.000000*%
%ADD20R,0.800000X0.800000*%
%ADD21RoundRect,0.140000X-0.170000X0.140000X-0.170000X-0.140000X0.170000X-0.140000X0.170000X0.140000X0*%
%ADD22RoundRect,0.079500X-0.100500X0.079500X-0.100500X-0.079500X0.100500X-0.079500X0.100500X0.079500X0*%
%ADD23RoundRect,0.079500X0.100500X-0.079500X0.100500X0.079500X-0.100500X0.079500X-0.100500X-0.079500X0*%
%ADD24RoundRect,0.050000X0.050000X0.387500X-0.050000X0.387500X-0.050000X-0.387500X0.050000X-0.387500X0*%
%ADD25RoundRect,0.050000X0.387500X0.050000X-0.387500X0.050000X-0.387500X-0.050000X0.387500X-0.050000X0*%
%ADD26RoundRect,0.249999X0.395001X0.395001X-0.395001X0.395001X-0.395001X-0.395001X0.395001X-0.395001X0*%
%ADD27RoundRect,0.135000X0.185000X-0.135000X0.185000X0.135000X-0.185000X0.135000X-0.185000X-0.135000X0*%
%ADD28RoundRect,0.135000X0.135000X0.185000X-0.135000X0.185000X-0.135000X-0.185000X0.135000X-0.185000X0*%
%ADD29R,0.700000X0.400000*%
%ADD30R,0.250000X0.400000*%
%ADD31RoundRect,0.200000X-0.200000X-0.250000X0.200000X-0.250000X0.200000X0.250000X-0.200000X0.250000X0*%
%ADD32R,0.500000X0.450000*%
%ADD33R,0.400000X0.450000*%
%ADD34R,0.600000X0.420000*%
%ADD35RoundRect,0.200000X-0.200000X-0.275000X0.200000X-0.275000X0.200000X0.275000X-0.200000X0.275000X0*%
%ADD36RoundRect,0.079500X-0.079500X-0.100500X0.079500X-0.100500X0.079500X0.100500X-0.079500X0.100500X0*%
%ADD37RoundRect,0.079500X0.079500X0.100500X-0.079500X0.100500X-0.079500X-0.100500X0.079500X-0.100500X0*%
%ADD38RoundRect,0.050000X-0.387500X0.050000X-0.387500X-0.050000X0.387500X-0.050000X0.387500X0.050000X0*%
%ADD39RoundRect,0.050000X-0.050000X0.387500X-0.050000X-0.387500X0.050000X-0.387500X0.050000X0.387500X0*%
%ADD40RoundRect,0.249999X-0.395001X0.395001X-0.395001X-0.395001X0.395001X-0.395001X0.395001X0.395001X0*%
%ADD41R,0.700000X1.150000*%
%ADD42R,0.380000X1.000000*%
%ADD43RoundRect,0.140000X0.140000X0.170000X-0.140000X0.170000X-0.140000X-0.170000X0.140000X-0.170000X0*%
%ADD44RoundRect,0.147500X-0.147500X-0.172500X0.147500X-0.172500X0.147500X0.172500X-0.147500X0.172500X0*%
%ADD45RoundRect,0.140000X0.170000X-0.140000X0.170000X0.140000X-0.170000X0.140000X-0.170000X-0.140000X0*%
%ADD46RoundRect,0.249999X-0.395001X-0.395001X0.395001X-0.395001X0.395001X0.395001X-0.395001X0.395001X0*%
%ADD47RoundRect,0.050000X-0.387500X-0.050000X0.387500X-0.050000X0.387500X0.050000X-0.387500X0.050000X0*%
%ADD48RoundRect,0.050000X-0.050000X-0.387500X0.050000X-0.387500X0.050000X0.387500X-0.050000X0.387500X0*%
%ADD49RoundRect,0.200000X0.200000X0.250000X-0.200000X0.250000X-0.200000X-0.250000X0.200000X-0.250000X0*%
%ADD50RoundRect,0.200000X0.200000X0.275000X-0.200000X0.275000X-0.200000X-0.275000X0.200000X-0.275000X0*%
%ADD51RoundRect,0.249999X0.395001X-0.395001X0.395001X0.395001X-0.395001X0.395001X-0.395001X-0.395001X0*%
%ADD52RoundRect,0.050000X0.050000X-0.387500X0.050000X0.387500X-0.050000X0.387500X-0.050000X-0.387500X0*%
%ADD53RoundRect,0.050000X0.387500X-0.050000X0.387500X0.050000X-0.387500X0.050000X-0.387500X-0.050000X0*%
%ADD54RoundRect,0.140000X-0.140000X-0.170000X0.140000X-0.170000X0.140000X0.170000X-0.140000X0.170000X0*%
G04 APERTURE END LIST*
%TO.C,U5*%
D10*
X146400000Y-129600000D02*
X145850000Y-129600000D01*
X145850000Y-129400000D01*
X146400000Y-129400000D01*
X146400000Y-129600000D01*
G36*
X146400000Y-129600000D02*
G01*
X145850000Y-129600000D01*
X145850000Y-129400000D01*
X146400000Y-129400000D01*
X146400000Y-129600000D01*
G37*
X146400000Y-130100000D02*
X145850000Y-130100000D01*
X145850000Y-129900000D01*
X146400000Y-129900000D01*
X146400000Y-130100000D01*
G36*
X146400000Y-130100000D02*
G01*
X145850000Y-130100000D01*
X145850000Y-129900000D01*
X146400000Y-129900000D01*
X146400000Y-130100000D01*
G37*
X146400000Y-130600000D02*
X145850000Y-130600000D01*
X145850000Y-130400000D01*
X146400000Y-130400000D01*
X146400000Y-130600000D01*
G36*
X146400000Y-130600000D02*
G01*
X145850000Y-130600000D01*
X145850000Y-130400000D01*
X146400000Y-130400000D01*
X146400000Y-130600000D01*
G37*
X146400000Y-131100000D02*
X145850000Y-131100000D01*
X145850000Y-130900000D01*
X146400000Y-130900000D01*
X146400000Y-131100000D01*
G36*
X146400000Y-131100000D02*
G01*
X145850000Y-131100000D01*
X145850000Y-130900000D01*
X146400000Y-130900000D01*
X146400000Y-131100000D01*
G37*
X147600000Y-130150000D02*
X147400000Y-130150000D01*
X147400000Y-129650000D01*
X147600000Y-129650000D01*
X147600000Y-130150000D01*
G36*
X147600000Y-130150000D02*
G01*
X147400000Y-130150000D01*
X147400000Y-129650000D01*
X147600000Y-129650000D01*
X147600000Y-130150000D01*
G37*
X147600000Y-130850000D02*
X147400000Y-130850000D01*
X147400000Y-130350000D01*
X147600000Y-130350000D01*
X147600000Y-130850000D01*
G36*
X147600000Y-130850000D02*
G01*
X147400000Y-130850000D01*
X147400000Y-130350000D01*
X147600000Y-130350000D01*
X147600000Y-130850000D01*
G37*
X149150000Y-129600000D02*
X148600000Y-129600000D01*
X148600000Y-129400000D01*
X149150000Y-129400000D01*
X149150000Y-129600000D01*
G36*
X149150000Y-129600000D02*
G01*
X148600000Y-129600000D01*
X148600000Y-129400000D01*
X149150000Y-129400000D01*
X149150000Y-129600000D01*
G37*
X149150000Y-130100000D02*
X148600000Y-130100000D01*
X148600000Y-129900000D01*
X149150000Y-129900000D01*
X149150000Y-130100000D01*
G36*
X149150000Y-130100000D02*
G01*
X148600000Y-130100000D01*
X148600000Y-129900000D01*
X149150000Y-129900000D01*
X149150000Y-130100000D01*
G37*
X149150000Y-130600000D02*
X148600000Y-130600000D01*
X148600000Y-130400000D01*
X149150000Y-130400000D01*
X149150000Y-130600000D01*
G36*
X149150000Y-130600000D02*
G01*
X148600000Y-130600000D01*
X148600000Y-130400000D01*
X149150000Y-130400000D01*
X149150000Y-130600000D01*
G37*
X149150000Y-131100000D02*
X148600000Y-131100000D01*
X148600000Y-130900000D01*
X149150000Y-130900000D01*
X149150000Y-131100000D01*
G36*
X149150000Y-131100000D02*
G01*
X148600000Y-131100000D01*
X148600000Y-130900000D01*
X149150000Y-130900000D01*
X149150000Y-131100000D01*
G37*
%TO.C,U3*%
X159250000Y-123800000D02*
X159050000Y-123800000D01*
X159050000Y-123250000D01*
X159250000Y-123250000D01*
X159250000Y-123800000D01*
G36*
X159250000Y-123800000D02*
G01*
X159050000Y-123800000D01*
X159050000Y-123250000D01*
X159250000Y-123250000D01*
X159250000Y-123800000D01*
G37*
X159750000Y-123800000D02*
X159550000Y-123800000D01*
X159550000Y-123250000D01*
X159750000Y-123250000D01*
X159750000Y-123800000D01*
G36*
X159750000Y-123800000D02*
G01*
X159550000Y-123800000D01*
X159550000Y-123250000D01*
X159750000Y-123250000D01*
X159750000Y-123800000D01*
G37*
X160250000Y-123800000D02*
X160050000Y-123800000D01*
X160050000Y-123250000D01*
X160250000Y-123250000D01*
X160250000Y-123800000D01*
G36*
X160250000Y-123800000D02*
G01*
X160050000Y-123800000D01*
X160050000Y-123250000D01*
X160250000Y-123250000D01*
X160250000Y-123800000D01*
G37*
X160750000Y-123800000D02*
X160550000Y-123800000D01*
X160550000Y-123250000D01*
X160750000Y-123250000D01*
X160750000Y-123800000D01*
G36*
X160750000Y-123800000D02*
G01*
X160550000Y-123800000D01*
X160550000Y-123250000D01*
X160750000Y-123250000D01*
X160750000Y-123800000D01*
G37*
X159800000Y-122250000D02*
X159300000Y-122250000D01*
X159300000Y-122050000D01*
X159800000Y-122050000D01*
X159800000Y-122250000D01*
G36*
X159800000Y-122250000D02*
G01*
X159300000Y-122250000D01*
X159300000Y-122050000D01*
X159800000Y-122050000D01*
X159800000Y-122250000D01*
G37*
X160500000Y-122250000D02*
X160000000Y-122250000D01*
X160000000Y-122050000D01*
X160500000Y-122050000D01*
X160500000Y-122250000D01*
G36*
X160500000Y-122250000D02*
G01*
X160000000Y-122250000D01*
X160000000Y-122050000D01*
X160500000Y-122050000D01*
X160500000Y-122250000D01*
G37*
X159250000Y-121050000D02*
X159050000Y-121050000D01*
X159050000Y-120500000D01*
X159250000Y-120500000D01*
X159250000Y-121050000D01*
G36*
X159250000Y-121050000D02*
G01*
X159050000Y-121050000D01*
X159050000Y-120500000D01*
X159250000Y-120500000D01*
X159250000Y-121050000D01*
G37*
X159750000Y-121050000D02*
X159550000Y-121050000D01*
X159550000Y-120500000D01*
X159750000Y-120500000D01*
X159750000Y-121050000D01*
G36*
X159750000Y-121050000D02*
G01*
X159550000Y-121050000D01*
X159550000Y-120500000D01*
X159750000Y-120500000D01*
X159750000Y-121050000D01*
G37*
X160250000Y-121050000D02*
X160050000Y-121050000D01*
X160050000Y-120500000D01*
X160250000Y-120500000D01*
X160250000Y-121050000D01*
G36*
X160250000Y-121050000D02*
G01*
X160050000Y-121050000D01*
X160050000Y-120500000D01*
X160250000Y-120500000D01*
X160250000Y-121050000D01*
G37*
X160750000Y-121050000D02*
X160550000Y-121050000D01*
X160550000Y-120500000D01*
X160750000Y-120500000D01*
X160750000Y-121050000D01*
G36*
X160750000Y-121050000D02*
G01*
X160550000Y-121050000D01*
X160550000Y-120500000D01*
X160750000Y-120500000D01*
X160750000Y-121050000D01*
G37*
%TO.C,U5*%
X121150000Y-131100000D02*
X120600000Y-131100000D01*
X120600000Y-130900000D01*
X121150000Y-130900000D01*
X121150000Y-131100000D01*
G36*
X121150000Y-131100000D02*
G01*
X120600000Y-131100000D01*
X120600000Y-130900000D01*
X121150000Y-130900000D01*
X121150000Y-131100000D01*
G37*
X121150000Y-130600000D02*
X120600000Y-130600000D01*
X120600000Y-130400000D01*
X121150000Y-130400000D01*
X121150000Y-130600000D01*
G36*
X121150000Y-130600000D02*
G01*
X120600000Y-130600000D01*
X120600000Y-130400000D01*
X121150000Y-130400000D01*
X121150000Y-130600000D01*
G37*
X121150000Y-130100000D02*
X120600000Y-130100000D01*
X120600000Y-129900000D01*
X121150000Y-129900000D01*
X121150000Y-130100000D01*
G36*
X121150000Y-130100000D02*
G01*
X120600000Y-130100000D01*
X120600000Y-129900000D01*
X121150000Y-129900000D01*
X121150000Y-130100000D01*
G37*
X121150000Y-129600000D02*
X120600000Y-129600000D01*
X120600000Y-129400000D01*
X121150000Y-129400000D01*
X121150000Y-129600000D01*
G36*
X121150000Y-129600000D02*
G01*
X120600000Y-129600000D01*
X120600000Y-129400000D01*
X121150000Y-129400000D01*
X121150000Y-129600000D01*
G37*
X119600000Y-130850000D02*
X119400000Y-130850000D01*
X119400000Y-130350000D01*
X119600000Y-130350000D01*
X119600000Y-130850000D01*
G36*
X119600000Y-130850000D02*
G01*
X119400000Y-130850000D01*
X119400000Y-130350000D01*
X119600000Y-130350000D01*
X119600000Y-130850000D01*
G37*
X119600000Y-130150000D02*
X119400000Y-130150000D01*
X119400000Y-129650000D01*
X119600000Y-129650000D01*
X119600000Y-130150000D01*
G36*
X119600000Y-130150000D02*
G01*
X119400000Y-130150000D01*
X119400000Y-129650000D01*
X119600000Y-129650000D01*
X119600000Y-130150000D01*
G37*
X118400000Y-131100000D02*
X117850000Y-131100000D01*
X117850000Y-130900000D01*
X118400000Y-130900000D01*
X118400000Y-131100000D01*
G36*
X118400000Y-131100000D02*
G01*
X117850000Y-131100000D01*
X117850000Y-130900000D01*
X118400000Y-130900000D01*
X118400000Y-131100000D01*
G37*
X118400000Y-130600000D02*
X117850000Y-130600000D01*
X117850000Y-130400000D01*
X118400000Y-130400000D01*
X118400000Y-130600000D01*
G36*
X118400000Y-130600000D02*
G01*
X117850000Y-130600000D01*
X117850000Y-130400000D01*
X118400000Y-130400000D01*
X118400000Y-130600000D01*
G37*
X118400000Y-130100000D02*
X117850000Y-130100000D01*
X117850000Y-129900000D01*
X118400000Y-129900000D01*
X118400000Y-130100000D01*
G36*
X118400000Y-130100000D02*
G01*
X117850000Y-130100000D01*
X117850000Y-129900000D01*
X118400000Y-129900000D01*
X118400000Y-130100000D01*
G37*
X118400000Y-129600000D02*
X117850000Y-129600000D01*
X117850000Y-129400000D01*
X118400000Y-129400000D01*
X118400000Y-129600000D01*
G36*
X118400000Y-129600000D02*
G01*
X117850000Y-129600000D01*
X117850000Y-129400000D01*
X118400000Y-129400000D01*
X118400000Y-129600000D01*
G37*
%TO.C,U3*%
X132750000Y-121050000D02*
X132550000Y-121050000D01*
X132550000Y-120500000D01*
X132750000Y-120500000D01*
X132750000Y-121050000D01*
G36*
X132750000Y-121050000D02*
G01*
X132550000Y-121050000D01*
X132550000Y-120500000D01*
X132750000Y-120500000D01*
X132750000Y-121050000D01*
G37*
X132250000Y-121050000D02*
X132050000Y-121050000D01*
X132050000Y-120500000D01*
X132250000Y-120500000D01*
X132250000Y-121050000D01*
G36*
X132250000Y-121050000D02*
G01*
X132050000Y-121050000D01*
X132050000Y-120500000D01*
X132250000Y-120500000D01*
X132250000Y-121050000D01*
G37*
X131750000Y-121050000D02*
X131550000Y-121050000D01*
X131550000Y-120500000D01*
X131750000Y-120500000D01*
X131750000Y-121050000D01*
G36*
X131750000Y-121050000D02*
G01*
X131550000Y-121050000D01*
X131550000Y-120500000D01*
X131750000Y-120500000D01*
X131750000Y-121050000D01*
G37*
X131250000Y-121050000D02*
X131050000Y-121050000D01*
X131050000Y-120500000D01*
X131250000Y-120500000D01*
X131250000Y-121050000D01*
G36*
X131250000Y-121050000D02*
G01*
X131050000Y-121050000D01*
X131050000Y-120500000D01*
X131250000Y-120500000D01*
X131250000Y-121050000D01*
G37*
X132500000Y-122250000D02*
X132000000Y-122250000D01*
X132000000Y-122050000D01*
X132500000Y-122050000D01*
X132500000Y-122250000D01*
G36*
X132500000Y-122250000D02*
G01*
X132000000Y-122250000D01*
X132000000Y-122050000D01*
X132500000Y-122050000D01*
X132500000Y-122250000D01*
G37*
X131800000Y-122250000D02*
X131300000Y-122250000D01*
X131300000Y-122050000D01*
X131800000Y-122050000D01*
X131800000Y-122250000D01*
G36*
X131800000Y-122250000D02*
G01*
X131300000Y-122250000D01*
X131300000Y-122050000D01*
X131800000Y-122050000D01*
X131800000Y-122250000D01*
G37*
X132750000Y-123800000D02*
X132550000Y-123800000D01*
X132550000Y-123250000D01*
X132750000Y-123250000D01*
X132750000Y-123800000D01*
G36*
X132750000Y-123800000D02*
G01*
X132550000Y-123800000D01*
X132550000Y-123250000D01*
X132750000Y-123250000D01*
X132750000Y-123800000D01*
G37*
X132250000Y-123800000D02*
X132050000Y-123800000D01*
X132050000Y-123250000D01*
X132250000Y-123250000D01*
X132250000Y-123800000D01*
G36*
X132250000Y-123800000D02*
G01*
X132050000Y-123800000D01*
X132050000Y-123250000D01*
X132250000Y-123250000D01*
X132250000Y-123800000D01*
G37*
X131750000Y-123800000D02*
X131550000Y-123800000D01*
X131550000Y-123250000D01*
X131750000Y-123250000D01*
X131750000Y-123800000D01*
G36*
X131750000Y-123800000D02*
G01*
X131550000Y-123800000D01*
X131550000Y-123250000D01*
X131750000Y-123250000D01*
X131750000Y-123800000D01*
G37*
X131250000Y-123800000D02*
X131050000Y-123800000D01*
X131050000Y-123250000D01*
X131250000Y-123250000D01*
X131250000Y-123800000D01*
G36*
X131250000Y-123800000D02*
G01*
X131050000Y-123800000D01*
X131050000Y-123250000D01*
X131250000Y-123250000D01*
X131250000Y-123800000D01*
G37*
%TO.C,U5*%
X149400000Y-80100000D02*
X148850000Y-80100000D01*
X148850000Y-79900000D01*
X149400000Y-79900000D01*
X149400000Y-80100000D01*
G36*
X149400000Y-80100000D02*
G01*
X148850000Y-80100000D01*
X148850000Y-79900000D01*
X149400000Y-79900000D01*
X149400000Y-80100000D01*
G37*
X149400000Y-80600000D02*
X148850000Y-80600000D01*
X148850000Y-80400000D01*
X149400000Y-80400000D01*
X149400000Y-80600000D01*
G36*
X149400000Y-80600000D02*
G01*
X148850000Y-80600000D01*
X148850000Y-80400000D01*
X149400000Y-80400000D01*
X149400000Y-80600000D01*
G37*
X149400000Y-81100000D02*
X148850000Y-81100000D01*
X148850000Y-80900000D01*
X149400000Y-80900000D01*
X149400000Y-81100000D01*
G36*
X149400000Y-81100000D02*
G01*
X148850000Y-81100000D01*
X148850000Y-80900000D01*
X149400000Y-80900000D01*
X149400000Y-81100000D01*
G37*
X149400000Y-81600000D02*
X148850000Y-81600000D01*
X148850000Y-81400000D01*
X149400000Y-81400000D01*
X149400000Y-81600000D01*
G36*
X149400000Y-81600000D02*
G01*
X148850000Y-81600000D01*
X148850000Y-81400000D01*
X149400000Y-81400000D01*
X149400000Y-81600000D01*
G37*
X150600000Y-80650000D02*
X150400000Y-80650000D01*
X150400000Y-80150000D01*
X150600000Y-80150000D01*
X150600000Y-80650000D01*
G36*
X150600000Y-80650000D02*
G01*
X150400000Y-80650000D01*
X150400000Y-80150000D01*
X150600000Y-80150000D01*
X150600000Y-80650000D01*
G37*
X150600000Y-81350000D02*
X150400000Y-81350000D01*
X150400000Y-80850000D01*
X150600000Y-80850000D01*
X150600000Y-81350000D01*
G36*
X150600000Y-81350000D02*
G01*
X150400000Y-81350000D01*
X150400000Y-80850000D01*
X150600000Y-80850000D01*
X150600000Y-81350000D01*
G37*
X152150000Y-80100000D02*
X151600000Y-80100000D01*
X151600000Y-79900000D01*
X152150000Y-79900000D01*
X152150000Y-80100000D01*
G36*
X152150000Y-80100000D02*
G01*
X151600000Y-80100000D01*
X151600000Y-79900000D01*
X152150000Y-79900000D01*
X152150000Y-80100000D01*
G37*
X152150000Y-80600000D02*
X151600000Y-80600000D01*
X151600000Y-80400000D01*
X152150000Y-80400000D01*
X152150000Y-80600000D01*
G36*
X152150000Y-80600000D02*
G01*
X151600000Y-80600000D01*
X151600000Y-80400000D01*
X152150000Y-80400000D01*
X152150000Y-80600000D01*
G37*
X152150000Y-81100000D02*
X151600000Y-81100000D01*
X151600000Y-80900000D01*
X152150000Y-80900000D01*
X152150000Y-81100000D01*
G36*
X152150000Y-81100000D02*
G01*
X151600000Y-81100000D01*
X151600000Y-80900000D01*
X152150000Y-80900000D01*
X152150000Y-81100000D01*
G37*
X152150000Y-81600000D02*
X151600000Y-81600000D01*
X151600000Y-81400000D01*
X152150000Y-81400000D01*
X152150000Y-81600000D01*
G36*
X152150000Y-81600000D02*
G01*
X151600000Y-81600000D01*
X151600000Y-81400000D01*
X152150000Y-81400000D01*
X152150000Y-81600000D01*
G37*
%TO.C,U3*%
X137450000Y-90500000D02*
X137250000Y-90500000D01*
X137250000Y-89950000D01*
X137450000Y-89950000D01*
X137450000Y-90500000D01*
G36*
X137450000Y-90500000D02*
G01*
X137250000Y-90500000D01*
X137250000Y-89950000D01*
X137450000Y-89950000D01*
X137450000Y-90500000D01*
G37*
X137950000Y-90500000D02*
X137750000Y-90500000D01*
X137750000Y-89950000D01*
X137950000Y-89950000D01*
X137950000Y-90500000D01*
G36*
X137950000Y-90500000D02*
G01*
X137750000Y-90500000D01*
X137750000Y-89950000D01*
X137950000Y-89950000D01*
X137950000Y-90500000D01*
G37*
X138450000Y-90500000D02*
X138250000Y-90500000D01*
X138250000Y-89950000D01*
X138450000Y-89950000D01*
X138450000Y-90500000D01*
G36*
X138450000Y-90500000D02*
G01*
X138250000Y-90500000D01*
X138250000Y-89950000D01*
X138450000Y-89950000D01*
X138450000Y-90500000D01*
G37*
X138950000Y-90500000D02*
X138750000Y-90500000D01*
X138750000Y-89950000D01*
X138950000Y-89950000D01*
X138950000Y-90500000D01*
G36*
X138950000Y-90500000D02*
G01*
X138750000Y-90500000D01*
X138750000Y-89950000D01*
X138950000Y-89950000D01*
X138950000Y-90500000D01*
G37*
X138000000Y-88950000D02*
X137500000Y-88950000D01*
X137500000Y-88750000D01*
X138000000Y-88750000D01*
X138000000Y-88950000D01*
G36*
X138000000Y-88950000D02*
G01*
X137500000Y-88950000D01*
X137500000Y-88750000D01*
X138000000Y-88750000D01*
X138000000Y-88950000D01*
G37*
X138700000Y-88950000D02*
X138200000Y-88950000D01*
X138200000Y-88750000D01*
X138700000Y-88750000D01*
X138700000Y-88950000D01*
G36*
X138700000Y-88950000D02*
G01*
X138200000Y-88950000D01*
X138200000Y-88750000D01*
X138700000Y-88750000D01*
X138700000Y-88950000D01*
G37*
X137450000Y-87750000D02*
X137250000Y-87750000D01*
X137250000Y-87200000D01*
X137450000Y-87200000D01*
X137450000Y-87750000D01*
G36*
X137450000Y-87750000D02*
G01*
X137250000Y-87750000D01*
X137250000Y-87200000D01*
X137450000Y-87200000D01*
X137450000Y-87750000D01*
G37*
X137950000Y-87750000D02*
X137750000Y-87750000D01*
X137750000Y-87200000D01*
X137950000Y-87200000D01*
X137950000Y-87750000D01*
G36*
X137950000Y-87750000D02*
G01*
X137750000Y-87750000D01*
X137750000Y-87200000D01*
X137950000Y-87200000D01*
X137950000Y-87750000D01*
G37*
X138450000Y-87750000D02*
X138250000Y-87750000D01*
X138250000Y-87200000D01*
X138450000Y-87200000D01*
X138450000Y-87750000D01*
G36*
X138450000Y-87750000D02*
G01*
X138250000Y-87750000D01*
X138250000Y-87200000D01*
X138450000Y-87200000D01*
X138450000Y-87750000D01*
G37*
X138950000Y-87750000D02*
X138750000Y-87750000D01*
X138750000Y-87200000D01*
X138950000Y-87200000D01*
X138950000Y-87750000D01*
G36*
X138950000Y-87750000D02*
G01*
X138750000Y-87750000D01*
X138750000Y-87200000D01*
X138950000Y-87200000D01*
X138950000Y-87750000D01*
G37*
%TO.C,U5*%
X124150000Y-81600000D02*
X123600000Y-81600000D01*
X123600000Y-81400000D01*
X124150000Y-81400000D01*
X124150000Y-81600000D01*
G36*
X124150000Y-81600000D02*
G01*
X123600000Y-81600000D01*
X123600000Y-81400000D01*
X124150000Y-81400000D01*
X124150000Y-81600000D01*
G37*
X124150000Y-81100000D02*
X123600000Y-81100000D01*
X123600000Y-80900000D01*
X124150000Y-80900000D01*
X124150000Y-81100000D01*
G36*
X124150000Y-81100000D02*
G01*
X123600000Y-81100000D01*
X123600000Y-80900000D01*
X124150000Y-80900000D01*
X124150000Y-81100000D01*
G37*
X124150000Y-80600000D02*
X123600000Y-80600000D01*
X123600000Y-80400000D01*
X124150000Y-80400000D01*
X124150000Y-80600000D01*
G36*
X124150000Y-80600000D02*
G01*
X123600000Y-80600000D01*
X123600000Y-80400000D01*
X124150000Y-80400000D01*
X124150000Y-80600000D01*
G37*
X124150000Y-80100000D02*
X123600000Y-80100000D01*
X123600000Y-79900000D01*
X124150000Y-79900000D01*
X124150000Y-80100000D01*
G36*
X124150000Y-80100000D02*
G01*
X123600000Y-80100000D01*
X123600000Y-79900000D01*
X124150000Y-79900000D01*
X124150000Y-80100000D01*
G37*
X122600000Y-81350000D02*
X122400000Y-81350000D01*
X122400000Y-80850000D01*
X122600000Y-80850000D01*
X122600000Y-81350000D01*
G36*
X122600000Y-81350000D02*
G01*
X122400000Y-81350000D01*
X122400000Y-80850000D01*
X122600000Y-80850000D01*
X122600000Y-81350000D01*
G37*
X122600000Y-80650000D02*
X122400000Y-80650000D01*
X122400000Y-80150000D01*
X122600000Y-80150000D01*
X122600000Y-80650000D01*
G36*
X122600000Y-80650000D02*
G01*
X122400000Y-80650000D01*
X122400000Y-80150000D01*
X122600000Y-80150000D01*
X122600000Y-80650000D01*
G37*
X121400000Y-81600000D02*
X120850000Y-81600000D01*
X120850000Y-81400000D01*
X121400000Y-81400000D01*
X121400000Y-81600000D01*
G36*
X121400000Y-81600000D02*
G01*
X120850000Y-81600000D01*
X120850000Y-81400000D01*
X121400000Y-81400000D01*
X121400000Y-81600000D01*
G37*
X121400000Y-81100000D02*
X120850000Y-81100000D01*
X120850000Y-80900000D01*
X121400000Y-80900000D01*
X121400000Y-81100000D01*
G36*
X121400000Y-81100000D02*
G01*
X120850000Y-81100000D01*
X120850000Y-80900000D01*
X121400000Y-80900000D01*
X121400000Y-81100000D01*
G37*
X121400000Y-80600000D02*
X120850000Y-80600000D01*
X120850000Y-80400000D01*
X121400000Y-80400000D01*
X121400000Y-80600000D01*
G36*
X121400000Y-80600000D02*
G01*
X120850000Y-80600000D01*
X120850000Y-80400000D01*
X121400000Y-80400000D01*
X121400000Y-80600000D01*
G37*
X121400000Y-80100000D02*
X120850000Y-80100000D01*
X120850000Y-79900000D01*
X121400000Y-79900000D01*
X121400000Y-80100000D01*
G36*
X121400000Y-80100000D02*
G01*
X120850000Y-80100000D01*
X120850000Y-79900000D01*
X121400000Y-79900000D01*
X121400000Y-80100000D01*
G37*
%TO.C,U3*%
X109450000Y-90500000D02*
X109250000Y-90500000D01*
X109250000Y-89950000D01*
X109450000Y-89950000D01*
X109450000Y-90500000D01*
G36*
X109450000Y-90500000D02*
G01*
X109250000Y-90500000D01*
X109250000Y-89950000D01*
X109450000Y-89950000D01*
X109450000Y-90500000D01*
G37*
X109950000Y-90500000D02*
X109750000Y-90500000D01*
X109750000Y-89950000D01*
X109950000Y-89950000D01*
X109950000Y-90500000D01*
G36*
X109950000Y-90500000D02*
G01*
X109750000Y-90500000D01*
X109750000Y-89950000D01*
X109950000Y-89950000D01*
X109950000Y-90500000D01*
G37*
X110450000Y-90500000D02*
X110250000Y-90500000D01*
X110250000Y-89950000D01*
X110450000Y-89950000D01*
X110450000Y-90500000D01*
G36*
X110450000Y-90500000D02*
G01*
X110250000Y-90500000D01*
X110250000Y-89950000D01*
X110450000Y-89950000D01*
X110450000Y-90500000D01*
G37*
X110950000Y-90500000D02*
X110750000Y-90500000D01*
X110750000Y-89950000D01*
X110950000Y-89950000D01*
X110950000Y-90500000D01*
G36*
X110950000Y-90500000D02*
G01*
X110750000Y-90500000D01*
X110750000Y-89950000D01*
X110950000Y-89950000D01*
X110950000Y-90500000D01*
G37*
X110000000Y-88950000D02*
X109500000Y-88950000D01*
X109500000Y-88750000D01*
X110000000Y-88750000D01*
X110000000Y-88950000D01*
G36*
X110000000Y-88950000D02*
G01*
X109500000Y-88950000D01*
X109500000Y-88750000D01*
X110000000Y-88750000D01*
X110000000Y-88950000D01*
G37*
X110700000Y-88950000D02*
X110200000Y-88950000D01*
X110200000Y-88750000D01*
X110700000Y-88750000D01*
X110700000Y-88950000D01*
G36*
X110700000Y-88950000D02*
G01*
X110200000Y-88950000D01*
X110200000Y-88750000D01*
X110700000Y-88750000D01*
X110700000Y-88950000D01*
G37*
X109450000Y-87750000D02*
X109250000Y-87750000D01*
X109250000Y-87200000D01*
X109450000Y-87200000D01*
X109450000Y-87750000D01*
G36*
X109450000Y-87750000D02*
G01*
X109250000Y-87750000D01*
X109250000Y-87200000D01*
X109450000Y-87200000D01*
X109450000Y-87750000D01*
G37*
X109950000Y-87750000D02*
X109750000Y-87750000D01*
X109750000Y-87200000D01*
X109950000Y-87200000D01*
X109950000Y-87750000D01*
G36*
X109950000Y-87750000D02*
G01*
X109750000Y-87750000D01*
X109750000Y-87200000D01*
X109950000Y-87200000D01*
X109950000Y-87750000D01*
G37*
X110450000Y-87750000D02*
X110250000Y-87750000D01*
X110250000Y-87200000D01*
X110450000Y-87200000D01*
X110450000Y-87750000D01*
G36*
X110450000Y-87750000D02*
G01*
X110250000Y-87750000D01*
X110250000Y-87200000D01*
X110450000Y-87200000D01*
X110450000Y-87750000D01*
G37*
X110950000Y-87750000D02*
X110750000Y-87750000D01*
X110750000Y-87200000D01*
X110950000Y-87200000D01*
X110950000Y-87750000D01*
G36*
X110950000Y-87750000D02*
G01*
X110750000Y-87750000D01*
X110750000Y-87200000D01*
X110950000Y-87200000D01*
X110950000Y-87750000D01*
G37*
%TD*%
D11*
%TO.C,J1*%
X141020000Y-116025000D03*
X143560000Y-116025000D03*
X146100000Y-116025000D03*
X148640000Y-116025000D03*
X151180000Y-116025000D03*
%TD*%
%TO.C,J1*%
X123180000Y-116025000D03*
X120640000Y-116025000D03*
X118100000Y-116025000D03*
X115560000Y-116025000D03*
X113020000Y-116025000D03*
%TD*%
D12*
%TO.C,J1*%
X146820000Y-94975000D03*
X149360000Y-94975000D03*
X151900000Y-94975000D03*
X154440000Y-94975000D03*
X156980000Y-94975000D03*
%TD*%
%TO.C,J1*%
X118820000Y-94975000D03*
X121360000Y-94975000D03*
X123900000Y-94975000D03*
X126440000Y-94975000D03*
X128980000Y-94975000D03*
%TD*%
D13*
%TO.C,R2*%
X154000000Y-114660000D03*
X154000000Y-113640000D03*
%TD*%
D14*
%TO.C,R17*%
X141310000Y-132750000D03*
X140290000Y-132750000D03*
%TD*%
D15*
%TO.C,U1*%
X157900000Y-133225000D03*
D16*
X157900000Y-132200000D03*
D17*
X158837500Y-131875000D03*
X158837500Y-132525000D03*
X158837500Y-133175000D03*
X156962500Y-133175000D03*
X156962500Y-132525000D03*
X156962500Y-131875000D03*
%TD*%
D18*
%TO.C,D1*%
X137515000Y-106837500D03*
X138485000Y-106837500D03*
%TD*%
D19*
%TO.C,S1*%
X161050000Y-108013500D03*
X153850000Y-108013500D03*
D20*
X155200000Y-109913500D03*
X157450000Y-109913500D03*
X159700000Y-109913500D03*
%TD*%
D21*
%TO.C,C14*%
X140300000Y-130330000D03*
X140300000Y-129370000D03*
%TD*%
D22*
%TO.C,C13*%
X144700000Y-130595000D03*
X144700000Y-129905000D03*
%TD*%
D21*
%TO.C,C15*%
X138800000Y-130330000D03*
X138800000Y-129370000D03*
%TD*%
D23*
%TO.C,C12*%
X142000000Y-118705000D03*
X142000000Y-119395000D03*
%TD*%
D22*
%TO.C,C21*%
X139000000Y-124015000D03*
X139000000Y-123325000D03*
%TD*%
D24*
%TO.C,U4*%
X146600000Y-127787500D03*
X146200000Y-127787500D03*
X145800000Y-127787500D03*
X145400000Y-127787500D03*
X145000000Y-127787500D03*
X144600000Y-127787500D03*
X144200000Y-127787500D03*
X143800000Y-127787500D03*
X143400000Y-127787500D03*
X143000000Y-127787500D03*
X142600000Y-127787500D03*
X142200000Y-127787500D03*
X141800000Y-127787500D03*
X141400000Y-127787500D03*
D25*
X140562500Y-126950000D03*
X140562500Y-126550000D03*
X140562500Y-126150000D03*
X140562500Y-125750000D03*
X140562500Y-125350000D03*
X140562500Y-124950000D03*
X140562500Y-124550000D03*
X140562500Y-124150000D03*
X140562500Y-123750000D03*
X140562500Y-123350000D03*
X140562500Y-122950000D03*
X140562500Y-122550000D03*
X140562500Y-122150000D03*
X140562500Y-121750000D03*
D24*
X141400000Y-120912500D03*
X141800000Y-120912500D03*
X142200000Y-120912500D03*
X142600000Y-120912500D03*
X143000000Y-120912500D03*
X143400000Y-120912500D03*
X143800000Y-120912500D03*
X144200000Y-120912500D03*
X144600000Y-120912500D03*
X145000000Y-120912500D03*
X145400000Y-120912500D03*
X145800000Y-120912500D03*
X146200000Y-120912500D03*
X146600000Y-120912500D03*
D25*
X147437500Y-121750000D03*
X147437500Y-122150000D03*
X147437500Y-122550000D03*
X147437500Y-122950000D03*
X147437500Y-123350000D03*
X147437500Y-123750000D03*
X147437500Y-124150000D03*
X147437500Y-124550000D03*
X147437500Y-124950000D03*
X147437500Y-125350000D03*
X147437500Y-125750000D03*
X147437500Y-126150000D03*
X147437500Y-126550000D03*
X147437500Y-126950000D03*
D26*
X143200000Y-123550000D03*
X143200000Y-125150000D03*
X144800000Y-123550000D03*
X144800000Y-125150000D03*
%TD*%
D23*
%TO.C,C20*%
X143200000Y-118705000D03*
X143200000Y-119395000D03*
%TD*%
D22*
%TO.C,C16*%
X149000000Y-127595000D03*
X149000000Y-126905000D03*
%TD*%
D23*
%TO.C,C19*%
X149000000Y-122805000D03*
X149000000Y-123495000D03*
%TD*%
D27*
%TO.C,R1*%
X150500000Y-130040000D03*
X150500000Y-131060000D03*
%TD*%
D28*
%TO.C,R15*%
X151090000Y-118550000D03*
X152110000Y-118550000D03*
%TD*%
D27*
%TO.C,R4*%
X137500000Y-108477500D03*
X137500000Y-109497500D03*
%TD*%
D29*
%TO.C,Q1*%
X149600000Y-118700000D03*
D30*
X149825000Y-119400000D03*
X149375000Y-119400000D03*
%TD*%
D31*
%TO.C,X1*%
X138725000Y-119925000D03*
X138725000Y-121775000D03*
X137275000Y-121775000D03*
X137275000Y-119925000D03*
%TD*%
D27*
%TO.C,R9*%
X143300000Y-129540000D03*
X143300000Y-130560000D03*
%TD*%
D32*
%TO.C,Q2*%
X156500000Y-115125000D03*
D33*
X156100000Y-113975000D03*
X156900000Y-113975000D03*
%TD*%
D34*
%TO.C,Q3*%
X153650000Y-118000000D03*
X153650000Y-117350000D03*
X153650000Y-116700000D03*
X155550000Y-116700000D03*
X155550000Y-117350000D03*
X155550000Y-118000000D03*
%TD*%
D21*
%TO.C,C1*%
X154300000Y-132830000D03*
X154300000Y-131870000D03*
%TD*%
D27*
%TO.C,R12*%
X159100000Y-129140000D03*
X159100000Y-130160000D03*
%TD*%
D35*
%TO.C,R11*%
X157425000Y-129750000D03*
X155775000Y-129750000D03*
%TD*%
D22*
%TO.C,C11*%
X160300000Y-125595000D03*
X160300000Y-124905000D03*
%TD*%
%TO.C,C6*%
X159000000Y-125595000D03*
X159000000Y-124905000D03*
%TD*%
D36*
%TO.C,C10*%
X157845000Y-119350000D03*
X157155000Y-119350000D03*
%TD*%
D37*
%TO.C,C24*%
X152355000Y-129350000D03*
X153045000Y-129350000D03*
%TD*%
D21*
%TO.C,C7*%
X160600000Y-127830000D03*
X160600000Y-126870000D03*
%TD*%
D37*
%TO.C,C22*%
X151455000Y-119450000D03*
X152145000Y-119450000D03*
%TD*%
D38*
%TO.C,U2*%
X157437500Y-121750000D03*
X157437500Y-122150000D03*
X157437500Y-122550000D03*
X157437500Y-122950000D03*
X157437500Y-123350000D03*
X157437500Y-123750000D03*
X157437500Y-124150000D03*
X157437500Y-124550000D03*
X157437500Y-124950000D03*
X157437500Y-125350000D03*
X157437500Y-125750000D03*
X157437500Y-126150000D03*
X157437500Y-126550000D03*
X157437500Y-126950000D03*
D39*
X156600000Y-127787500D03*
X156200000Y-127787500D03*
X155800000Y-127787500D03*
X155400000Y-127787500D03*
X155000000Y-127787500D03*
X154600000Y-127787500D03*
X154200000Y-127787500D03*
X153800000Y-127787500D03*
X153400000Y-127787500D03*
X153000000Y-127787500D03*
X152600000Y-127787500D03*
X152200000Y-127787500D03*
X151800000Y-127787500D03*
X151400000Y-127787500D03*
D38*
X150562500Y-126950000D03*
X150562500Y-126550000D03*
X150562500Y-126150000D03*
X150562500Y-125750000D03*
X150562500Y-125350000D03*
X150562500Y-124950000D03*
X150562500Y-124550000D03*
X150562500Y-124150000D03*
X150562500Y-123750000D03*
X150562500Y-123350000D03*
X150562500Y-122950000D03*
X150562500Y-122550000D03*
X150562500Y-122150000D03*
X150562500Y-121750000D03*
D39*
X151400000Y-120912500D03*
X151800000Y-120912500D03*
X152200000Y-120912500D03*
X152600000Y-120912500D03*
X153000000Y-120912500D03*
X153400000Y-120912500D03*
X153800000Y-120912500D03*
X154200000Y-120912500D03*
X154600000Y-120912500D03*
X155000000Y-120912500D03*
X155400000Y-120912500D03*
X155800000Y-120912500D03*
X156200000Y-120912500D03*
X156600000Y-120912500D03*
D40*
X153200000Y-125150000D03*
X154800000Y-125150000D03*
X153200000Y-123550000D03*
X154800000Y-123550000D03*
%TD*%
D21*
%TO.C,C8*%
X159100000Y-127830000D03*
X159100000Y-126870000D03*
%TD*%
D22*
%TO.C,C5*%
X149000000Y-125195000D03*
X149000000Y-124505000D03*
%TD*%
D21*
%TO.C,C9*%
X160600000Y-130130000D03*
X160600000Y-129170000D03*
%TD*%
D41*
%TO.C,P1*%
X152420000Y-133120000D03*
D42*
X146250000Y-133960000D03*
X146750000Y-133960000D03*
X147250000Y-133960000D03*
X147750000Y-133960000D03*
X148250000Y-133960000D03*
X148750000Y-133960000D03*
X149250000Y-133960000D03*
X149750000Y-133960000D03*
X150250000Y-133960000D03*
X150750000Y-133960000D03*
X151250000Y-133960000D03*
X151750000Y-133960000D03*
%TD*%
D37*
%TO.C,C18*%
X146755000Y-118350000D03*
X147445000Y-118350000D03*
%TD*%
D18*
%TO.C,D2*%
X142715000Y-132750000D03*
X143685000Y-132750000D03*
%TD*%
D28*
%TO.C,R16*%
X146990000Y-119350000D03*
X148010000Y-119350000D03*
%TD*%
D27*
%TO.C,R10*%
X141800000Y-129540000D03*
X141800000Y-130560000D03*
%TD*%
D43*
%TO.C,C2*%
X157920000Y-134750000D03*
X158880000Y-134750000D03*
%TD*%
D13*
%TO.C,R2*%
X126000000Y-113640000D03*
X126000000Y-114660000D03*
%TD*%
D14*
%TO.C,R17*%
X112290000Y-132750000D03*
X113310000Y-132750000D03*
%TD*%
D17*
%TO.C,U1*%
X128962500Y-131875000D03*
X128962500Y-132525000D03*
X128962500Y-133175000D03*
X130837500Y-133175000D03*
X130837500Y-132525000D03*
X130837500Y-131875000D03*
D16*
X129900000Y-132200000D03*
D15*
X129900000Y-133225000D03*
%TD*%
D18*
%TO.C,D1*%
X110485000Y-106837500D03*
X109515000Y-106837500D03*
%TD*%
D20*
%TO.C,S1*%
X131700000Y-109913500D03*
X129450000Y-109913500D03*
X127200000Y-109913500D03*
D19*
X125850000Y-108013500D03*
X133050000Y-108013500D03*
%TD*%
D21*
%TO.C,C14*%
X112300000Y-129370000D03*
X112300000Y-130330000D03*
%TD*%
D22*
%TO.C,C13*%
X116700000Y-129905000D03*
X116700000Y-130595000D03*
%TD*%
D21*
%TO.C,C15*%
X110800000Y-129370000D03*
X110800000Y-130330000D03*
%TD*%
D23*
%TO.C,C12*%
X114000000Y-119395000D03*
X114000000Y-118705000D03*
%TD*%
D22*
%TO.C,C21*%
X111000000Y-123325000D03*
X111000000Y-124015000D03*
%TD*%
D26*
%TO.C,U4*%
X116800000Y-125150000D03*
X116800000Y-123550000D03*
X115200000Y-125150000D03*
X115200000Y-123550000D03*
D25*
X119437500Y-126950000D03*
X119437500Y-126550000D03*
X119437500Y-126150000D03*
X119437500Y-125750000D03*
X119437500Y-125350000D03*
X119437500Y-124950000D03*
X119437500Y-124550000D03*
X119437500Y-124150000D03*
X119437500Y-123750000D03*
X119437500Y-123350000D03*
X119437500Y-122950000D03*
X119437500Y-122550000D03*
X119437500Y-122150000D03*
X119437500Y-121750000D03*
D24*
X118600000Y-120912500D03*
X118200000Y-120912500D03*
X117800000Y-120912500D03*
X117400000Y-120912500D03*
X117000000Y-120912500D03*
X116600000Y-120912500D03*
X116200000Y-120912500D03*
X115800000Y-120912500D03*
X115400000Y-120912500D03*
X115000000Y-120912500D03*
X114600000Y-120912500D03*
X114200000Y-120912500D03*
X113800000Y-120912500D03*
X113400000Y-120912500D03*
D25*
X112562500Y-121750000D03*
X112562500Y-122150000D03*
X112562500Y-122550000D03*
X112562500Y-122950000D03*
X112562500Y-123350000D03*
X112562500Y-123750000D03*
X112562500Y-124150000D03*
X112562500Y-124550000D03*
X112562500Y-124950000D03*
X112562500Y-125350000D03*
X112562500Y-125750000D03*
X112562500Y-126150000D03*
X112562500Y-126550000D03*
X112562500Y-126950000D03*
D24*
X113400000Y-127787500D03*
X113800000Y-127787500D03*
X114200000Y-127787500D03*
X114600000Y-127787500D03*
X115000000Y-127787500D03*
X115400000Y-127787500D03*
X115800000Y-127787500D03*
X116200000Y-127787500D03*
X116600000Y-127787500D03*
X117000000Y-127787500D03*
X117400000Y-127787500D03*
X117800000Y-127787500D03*
X118200000Y-127787500D03*
X118600000Y-127787500D03*
%TD*%
D23*
%TO.C,C20*%
X115200000Y-119395000D03*
X115200000Y-118705000D03*
%TD*%
D22*
%TO.C,C16*%
X121000000Y-126905000D03*
X121000000Y-127595000D03*
%TD*%
D23*
%TO.C,C19*%
X121000000Y-123495000D03*
X121000000Y-122805000D03*
%TD*%
D27*
%TO.C,R1*%
X122500000Y-131060000D03*
X122500000Y-130040000D03*
%TD*%
D28*
%TO.C,R15*%
X124110000Y-118550000D03*
X123090000Y-118550000D03*
%TD*%
D27*
%TO.C,R4*%
X109500000Y-109497500D03*
X109500000Y-108477500D03*
%TD*%
D30*
%TO.C,Q1*%
X121375000Y-119400000D03*
X121825000Y-119400000D03*
D29*
X121600000Y-118700000D03*
%TD*%
D31*
%TO.C,X1*%
X109275000Y-119925000D03*
X109275000Y-121775000D03*
X110725000Y-121775000D03*
X110725000Y-119925000D03*
%TD*%
D27*
%TO.C,R9*%
X115300000Y-130560000D03*
X115300000Y-129540000D03*
%TD*%
D33*
%TO.C,Q2*%
X128900000Y-113975000D03*
X128100000Y-113975000D03*
D32*
X128500000Y-115125000D03*
%TD*%
D34*
%TO.C,Q3*%
X127550000Y-118000000D03*
X127550000Y-117350000D03*
X127550000Y-116700000D03*
X125650000Y-116700000D03*
X125650000Y-117350000D03*
X125650000Y-118000000D03*
%TD*%
D21*
%TO.C,C1*%
X126300000Y-131870000D03*
X126300000Y-132830000D03*
%TD*%
D27*
%TO.C,R12*%
X131100000Y-130160000D03*
X131100000Y-129140000D03*
%TD*%
D35*
%TO.C,R11*%
X127775000Y-129750000D03*
X129425000Y-129750000D03*
%TD*%
D22*
%TO.C,C11*%
X132300000Y-124905000D03*
X132300000Y-125595000D03*
%TD*%
%TO.C,C6*%
X131000000Y-124905000D03*
X131000000Y-125595000D03*
%TD*%
D36*
%TO.C,C10*%
X129155000Y-119350000D03*
X129845000Y-119350000D03*
%TD*%
D37*
%TO.C,C24*%
X125045000Y-129350000D03*
X124355000Y-129350000D03*
%TD*%
D21*
%TO.C,C7*%
X132600000Y-126870000D03*
X132600000Y-127830000D03*
%TD*%
D37*
%TO.C,C22*%
X124145000Y-119450000D03*
X123455000Y-119450000D03*
%TD*%
D40*
%TO.C,U2*%
X126800000Y-123550000D03*
X125200000Y-123550000D03*
X126800000Y-125150000D03*
X125200000Y-125150000D03*
D39*
X128600000Y-120912500D03*
X128200000Y-120912500D03*
X127800000Y-120912500D03*
X127400000Y-120912500D03*
X127000000Y-120912500D03*
X126600000Y-120912500D03*
X126200000Y-120912500D03*
X125800000Y-120912500D03*
X125400000Y-120912500D03*
X125000000Y-120912500D03*
X124600000Y-120912500D03*
X124200000Y-120912500D03*
X123800000Y-120912500D03*
X123400000Y-120912500D03*
D38*
X122562500Y-121750000D03*
X122562500Y-122150000D03*
X122562500Y-122550000D03*
X122562500Y-122950000D03*
X122562500Y-123350000D03*
X122562500Y-123750000D03*
X122562500Y-124150000D03*
X122562500Y-124550000D03*
X122562500Y-124950000D03*
X122562500Y-125350000D03*
X122562500Y-125750000D03*
X122562500Y-126150000D03*
X122562500Y-126550000D03*
X122562500Y-126950000D03*
D39*
X123400000Y-127787500D03*
X123800000Y-127787500D03*
X124200000Y-127787500D03*
X124600000Y-127787500D03*
X125000000Y-127787500D03*
X125400000Y-127787500D03*
X125800000Y-127787500D03*
X126200000Y-127787500D03*
X126600000Y-127787500D03*
X127000000Y-127787500D03*
X127400000Y-127787500D03*
X127800000Y-127787500D03*
X128200000Y-127787500D03*
X128600000Y-127787500D03*
D38*
X129437500Y-126950000D03*
X129437500Y-126550000D03*
X129437500Y-126150000D03*
X129437500Y-125750000D03*
X129437500Y-125350000D03*
X129437500Y-124950000D03*
X129437500Y-124550000D03*
X129437500Y-124150000D03*
X129437500Y-123750000D03*
X129437500Y-123350000D03*
X129437500Y-122950000D03*
X129437500Y-122550000D03*
X129437500Y-122150000D03*
X129437500Y-121750000D03*
%TD*%
D21*
%TO.C,C8*%
X131100000Y-126870000D03*
X131100000Y-127830000D03*
%TD*%
D22*
%TO.C,C5*%
X121000000Y-124505000D03*
X121000000Y-125195000D03*
%TD*%
D21*
%TO.C,C9*%
X132600000Y-129170000D03*
X132600000Y-130130000D03*
%TD*%
D42*
%TO.C,P1*%
X123750000Y-133960000D03*
X123250000Y-133960000D03*
X122750000Y-133960000D03*
X122250000Y-133960000D03*
X121750000Y-133960000D03*
X121250000Y-133960000D03*
X120750000Y-133960000D03*
X120250000Y-133960000D03*
X119750000Y-133960000D03*
X119250000Y-133960000D03*
X118750000Y-133960000D03*
X118250000Y-133960000D03*
D41*
X124420000Y-133120000D03*
%TD*%
D37*
%TO.C,C18*%
X119445000Y-118350000D03*
X118755000Y-118350000D03*
%TD*%
D18*
%TO.C,D2*%
X115685000Y-132750000D03*
X114715000Y-132750000D03*
%TD*%
D28*
%TO.C,R16*%
X120010000Y-119350000D03*
X118990000Y-119350000D03*
%TD*%
D27*
%TO.C,R10*%
X113800000Y-130560000D03*
X113800000Y-129540000D03*
%TD*%
D43*
%TO.C,C2*%
X130880000Y-134750000D03*
X129920000Y-134750000D03*
%TD*%
D27*
%TO.C,R2*%
X144000000Y-97360000D03*
X144000000Y-96340000D03*
%TD*%
D28*
%TO.C,R17*%
X157710000Y-78250000D03*
X156690000Y-78250000D03*
%TD*%
D17*
%TO.C,U1*%
X141037500Y-79125000D03*
X141037500Y-78475000D03*
X141037500Y-77825000D03*
X139162500Y-77825000D03*
X139162500Y-78475000D03*
X139162500Y-79125000D03*
D16*
X140100000Y-78800000D03*
D15*
X140100000Y-77775000D03*
%TD*%
D44*
%TO.C,D1*%
X159515000Y-104162500D03*
X160485000Y-104162500D03*
%TD*%
D20*
%TO.C,S1*%
X138300000Y-101086500D03*
X140550000Y-101086500D03*
X142800000Y-101086500D03*
D19*
X144150000Y-102986500D03*
X136950000Y-102986500D03*
%TD*%
D45*
%TO.C,C14*%
X157700000Y-81630000D03*
X157700000Y-80670000D03*
%TD*%
D23*
%TO.C,C13*%
X153300000Y-81095000D03*
X153300000Y-80405000D03*
%TD*%
D45*
%TO.C,C15*%
X159200000Y-81630000D03*
X159200000Y-80670000D03*
%TD*%
D22*
%TO.C,C12*%
X156000000Y-91605000D03*
X156000000Y-92295000D03*
%TD*%
D23*
%TO.C,C21*%
X159000000Y-87675000D03*
X159000000Y-86985000D03*
%TD*%
D46*
%TO.C,U4*%
X153200000Y-85850000D03*
X153200000Y-87450000D03*
X154800000Y-85850000D03*
X154800000Y-87450000D03*
D47*
X150562500Y-84050000D03*
X150562500Y-84450000D03*
X150562500Y-84850000D03*
X150562500Y-85250000D03*
X150562500Y-85650000D03*
X150562500Y-86050000D03*
X150562500Y-86450000D03*
X150562500Y-86850000D03*
X150562500Y-87250000D03*
X150562500Y-87650000D03*
X150562500Y-88050000D03*
X150562500Y-88450000D03*
X150562500Y-88850000D03*
X150562500Y-89250000D03*
D48*
X151400000Y-90087500D03*
X151800000Y-90087500D03*
X152200000Y-90087500D03*
X152600000Y-90087500D03*
X153000000Y-90087500D03*
X153400000Y-90087500D03*
X153800000Y-90087500D03*
X154200000Y-90087500D03*
X154600000Y-90087500D03*
X155000000Y-90087500D03*
X155400000Y-90087500D03*
X155800000Y-90087500D03*
X156200000Y-90087500D03*
X156600000Y-90087500D03*
D47*
X157437500Y-89250000D03*
X157437500Y-88850000D03*
X157437500Y-88450000D03*
X157437500Y-88050000D03*
X157437500Y-87650000D03*
X157437500Y-87250000D03*
X157437500Y-86850000D03*
X157437500Y-86450000D03*
X157437500Y-86050000D03*
X157437500Y-85650000D03*
X157437500Y-85250000D03*
X157437500Y-84850000D03*
X157437500Y-84450000D03*
X157437500Y-84050000D03*
D48*
X156600000Y-83212500D03*
X156200000Y-83212500D03*
X155800000Y-83212500D03*
X155400000Y-83212500D03*
X155000000Y-83212500D03*
X154600000Y-83212500D03*
X154200000Y-83212500D03*
X153800000Y-83212500D03*
X153400000Y-83212500D03*
X153000000Y-83212500D03*
X152600000Y-83212500D03*
X152200000Y-83212500D03*
X151800000Y-83212500D03*
X151400000Y-83212500D03*
%TD*%
D22*
%TO.C,C20*%
X154800000Y-91605000D03*
X154800000Y-92295000D03*
%TD*%
D23*
%TO.C,C16*%
X149000000Y-84095000D03*
X149000000Y-83405000D03*
%TD*%
D22*
%TO.C,C19*%
X149000000Y-87505000D03*
X149000000Y-88195000D03*
%TD*%
D13*
%TO.C,R1*%
X147500000Y-79940000D03*
X147500000Y-80960000D03*
%TD*%
D14*
%TO.C,R15*%
X145890000Y-92450000D03*
X146910000Y-92450000D03*
%TD*%
D13*
%TO.C,R4*%
X160500000Y-101502500D03*
X160500000Y-102522500D03*
%TD*%
D30*
%TO.C,Q1*%
X148625000Y-91600000D03*
X148175000Y-91600000D03*
D29*
X148400000Y-92300000D03*
%TD*%
D49*
%TO.C,X1*%
X160725000Y-91075000D03*
X160725000Y-89225000D03*
X159275000Y-89225000D03*
X159275000Y-91075000D03*
%TD*%
D13*
%TO.C,R9*%
X154700000Y-80440000D03*
X154700000Y-81460000D03*
%TD*%
D33*
%TO.C,Q2*%
X141100000Y-97025000D03*
X141900000Y-97025000D03*
D32*
X141500000Y-95875000D03*
%TD*%
D34*
%TO.C,Q3*%
X142450000Y-93000000D03*
X142450000Y-93650000D03*
X142450000Y-94300000D03*
X144350000Y-94300000D03*
X144350000Y-93650000D03*
X144350000Y-93000000D03*
%TD*%
D45*
%TO.C,C1*%
X143700000Y-79130000D03*
X143700000Y-78170000D03*
%TD*%
D13*
%TO.C,R12*%
X138900000Y-80840000D03*
X138900000Y-81860000D03*
%TD*%
D50*
%TO.C,R11*%
X142225000Y-81250000D03*
X140575000Y-81250000D03*
%TD*%
D23*
%TO.C,C11*%
X137700000Y-86095000D03*
X137700000Y-85405000D03*
%TD*%
%TO.C,C6*%
X139000000Y-86095000D03*
X139000000Y-85405000D03*
%TD*%
D37*
%TO.C,C10*%
X140845000Y-91650000D03*
X140155000Y-91650000D03*
%TD*%
D36*
%TO.C,C24*%
X144955000Y-81650000D03*
X145645000Y-81650000D03*
%TD*%
D45*
%TO.C,C7*%
X137400000Y-84130000D03*
X137400000Y-83170000D03*
%TD*%
D36*
%TO.C,C22*%
X145855000Y-91550000D03*
X146545000Y-91550000D03*
%TD*%
D51*
%TO.C,U2*%
X143200000Y-87450000D03*
X144800000Y-87450000D03*
X143200000Y-85850000D03*
X144800000Y-85850000D03*
D52*
X141400000Y-90087500D03*
X141800000Y-90087500D03*
X142200000Y-90087500D03*
X142600000Y-90087500D03*
X143000000Y-90087500D03*
X143400000Y-90087500D03*
X143800000Y-90087500D03*
X144200000Y-90087500D03*
X144600000Y-90087500D03*
X145000000Y-90087500D03*
X145400000Y-90087500D03*
X145800000Y-90087500D03*
X146200000Y-90087500D03*
X146600000Y-90087500D03*
D53*
X147437500Y-89250000D03*
X147437500Y-88850000D03*
X147437500Y-88450000D03*
X147437500Y-88050000D03*
X147437500Y-87650000D03*
X147437500Y-87250000D03*
X147437500Y-86850000D03*
X147437500Y-86450000D03*
X147437500Y-86050000D03*
X147437500Y-85650000D03*
X147437500Y-85250000D03*
X147437500Y-84850000D03*
X147437500Y-84450000D03*
X147437500Y-84050000D03*
D52*
X146600000Y-83212500D03*
X146200000Y-83212500D03*
X145800000Y-83212500D03*
X145400000Y-83212500D03*
X145000000Y-83212500D03*
X144600000Y-83212500D03*
X144200000Y-83212500D03*
X143800000Y-83212500D03*
X143400000Y-83212500D03*
X143000000Y-83212500D03*
X142600000Y-83212500D03*
X142200000Y-83212500D03*
X141800000Y-83212500D03*
X141400000Y-83212500D03*
D53*
X140562500Y-84050000D03*
X140562500Y-84450000D03*
X140562500Y-84850000D03*
X140562500Y-85250000D03*
X140562500Y-85650000D03*
X140562500Y-86050000D03*
X140562500Y-86450000D03*
X140562500Y-86850000D03*
X140562500Y-87250000D03*
X140562500Y-87650000D03*
X140562500Y-88050000D03*
X140562500Y-88450000D03*
X140562500Y-88850000D03*
X140562500Y-89250000D03*
%TD*%
D45*
%TO.C,C8*%
X138900000Y-84130000D03*
X138900000Y-83170000D03*
%TD*%
D23*
%TO.C,C5*%
X149000000Y-86495000D03*
X149000000Y-85805000D03*
%TD*%
D45*
%TO.C,C9*%
X137400000Y-81830000D03*
X137400000Y-80870000D03*
%TD*%
D42*
%TO.C,P1*%
X146250000Y-77040000D03*
X146750000Y-77040000D03*
X147250000Y-77040000D03*
X147750000Y-77040000D03*
X148250000Y-77040000D03*
X148750000Y-77040000D03*
X149250000Y-77040000D03*
X149750000Y-77040000D03*
X150250000Y-77040000D03*
X150750000Y-77040000D03*
X151250000Y-77040000D03*
X151750000Y-77040000D03*
D41*
X145580000Y-77880000D03*
%TD*%
D36*
%TO.C,C18*%
X150555000Y-92650000D03*
X151245000Y-92650000D03*
%TD*%
D44*
%TO.C,D2*%
X154315000Y-78250000D03*
X155285000Y-78250000D03*
%TD*%
D14*
%TO.C,R16*%
X149990000Y-91650000D03*
X151010000Y-91650000D03*
%TD*%
D13*
%TO.C,R10*%
X156200000Y-80440000D03*
X156200000Y-81460000D03*
%TD*%
D54*
%TO.C,C2*%
X139120000Y-76250000D03*
X140080000Y-76250000D03*
%TD*%
D19*
%TO.C,S1*%
X108950000Y-102986500D03*
X116150000Y-102986500D03*
D20*
X114800000Y-101086500D03*
X112550000Y-101086500D03*
X110300000Y-101086500D03*
%TD*%
D23*
%TO.C,C13*%
X125300000Y-80405000D03*
X125300000Y-81095000D03*
%TD*%
D45*
%TO.C,C15*%
X131200000Y-80670000D03*
X131200000Y-81630000D03*
%TD*%
D22*
%TO.C,C12*%
X128000000Y-92295000D03*
X128000000Y-91605000D03*
%TD*%
D23*
%TO.C,C21*%
X131000000Y-86985000D03*
X131000000Y-87675000D03*
%TD*%
D45*
%TO.C,C14*%
X129700000Y-80670000D03*
X129700000Y-81630000D03*
%TD*%
D48*
%TO.C,U4*%
X123400000Y-83212500D03*
X123800000Y-83212500D03*
X124200000Y-83212500D03*
X124600000Y-83212500D03*
X125000000Y-83212500D03*
X125400000Y-83212500D03*
X125800000Y-83212500D03*
X126200000Y-83212500D03*
X126600000Y-83212500D03*
X127000000Y-83212500D03*
X127400000Y-83212500D03*
X127800000Y-83212500D03*
X128200000Y-83212500D03*
X128600000Y-83212500D03*
D47*
X129437500Y-84050000D03*
X129437500Y-84450000D03*
X129437500Y-84850000D03*
X129437500Y-85250000D03*
X129437500Y-85650000D03*
X129437500Y-86050000D03*
X129437500Y-86450000D03*
X129437500Y-86850000D03*
X129437500Y-87250000D03*
X129437500Y-87650000D03*
X129437500Y-88050000D03*
X129437500Y-88450000D03*
X129437500Y-88850000D03*
X129437500Y-89250000D03*
D48*
X128600000Y-90087500D03*
X128200000Y-90087500D03*
X127800000Y-90087500D03*
X127400000Y-90087500D03*
X127000000Y-90087500D03*
X126600000Y-90087500D03*
X126200000Y-90087500D03*
X125800000Y-90087500D03*
X125400000Y-90087500D03*
X125000000Y-90087500D03*
X124600000Y-90087500D03*
X124200000Y-90087500D03*
X123800000Y-90087500D03*
X123400000Y-90087500D03*
D47*
X122562500Y-89250000D03*
X122562500Y-88850000D03*
X122562500Y-88450000D03*
X122562500Y-88050000D03*
X122562500Y-87650000D03*
X122562500Y-87250000D03*
X122562500Y-86850000D03*
X122562500Y-86450000D03*
X122562500Y-86050000D03*
X122562500Y-85650000D03*
X122562500Y-85250000D03*
X122562500Y-84850000D03*
X122562500Y-84450000D03*
X122562500Y-84050000D03*
D46*
X126800000Y-87450000D03*
X126800000Y-85850000D03*
X125200000Y-87450000D03*
X125200000Y-85850000D03*
%TD*%
D22*
%TO.C,C20*%
X126800000Y-92295000D03*
X126800000Y-91605000D03*
%TD*%
D23*
%TO.C,C16*%
X121000000Y-83405000D03*
X121000000Y-84095000D03*
%TD*%
D22*
%TO.C,C19*%
X121000000Y-88195000D03*
X121000000Y-87505000D03*
%TD*%
D14*
%TO.C,R15*%
X118910000Y-92450000D03*
X117890000Y-92450000D03*
%TD*%
D29*
%TO.C,Q1*%
X120400000Y-92300000D03*
D30*
X120175000Y-91600000D03*
X120625000Y-91600000D03*
%TD*%
D28*
%TO.C,R17*%
X128690000Y-78250000D03*
X129710000Y-78250000D03*
%TD*%
D13*
%TO.C,R1*%
X119500000Y-80960000D03*
X119500000Y-79940000D03*
%TD*%
D27*
%TO.C,R2*%
X116000000Y-96340000D03*
X116000000Y-97360000D03*
%TD*%
D49*
%TO.C,X1*%
X131275000Y-91075000D03*
X131275000Y-89225000D03*
X132725000Y-89225000D03*
X132725000Y-91075000D03*
%TD*%
D13*
%TO.C,R9*%
X126700000Y-81460000D03*
X126700000Y-80440000D03*
%TD*%
%TO.C,R4*%
X132500000Y-102522500D03*
X132500000Y-101502500D03*
%TD*%
D15*
%TO.C,U1*%
X112100000Y-77775000D03*
D16*
X112100000Y-78800000D03*
D17*
X111162500Y-79125000D03*
X111162500Y-78475000D03*
X111162500Y-77825000D03*
X113037500Y-77825000D03*
X113037500Y-78475000D03*
X113037500Y-79125000D03*
%TD*%
D32*
%TO.C,Q2*%
X113500000Y-95875000D03*
D33*
X113900000Y-97025000D03*
X113100000Y-97025000D03*
%TD*%
D37*
%TO.C,C10*%
X112845000Y-91650000D03*
X112155000Y-91650000D03*
%TD*%
D51*
%TO.C,U2*%
X115200000Y-87450000D03*
X116800000Y-87450000D03*
X115200000Y-85850000D03*
X116800000Y-85850000D03*
D52*
X113400000Y-90087500D03*
X113800000Y-90087500D03*
X114200000Y-90087500D03*
X114600000Y-90087500D03*
X115000000Y-90087500D03*
X115400000Y-90087500D03*
X115800000Y-90087500D03*
X116200000Y-90087500D03*
X116600000Y-90087500D03*
X117000000Y-90087500D03*
X117400000Y-90087500D03*
X117800000Y-90087500D03*
X118200000Y-90087500D03*
X118600000Y-90087500D03*
D53*
X119437500Y-89250000D03*
X119437500Y-88850000D03*
X119437500Y-88450000D03*
X119437500Y-88050000D03*
X119437500Y-87650000D03*
X119437500Y-87250000D03*
X119437500Y-86850000D03*
X119437500Y-86450000D03*
X119437500Y-86050000D03*
X119437500Y-85650000D03*
X119437500Y-85250000D03*
X119437500Y-84850000D03*
X119437500Y-84450000D03*
X119437500Y-84050000D03*
D52*
X118600000Y-83212500D03*
X118200000Y-83212500D03*
X117800000Y-83212500D03*
X117400000Y-83212500D03*
X117000000Y-83212500D03*
X116600000Y-83212500D03*
X116200000Y-83212500D03*
X115800000Y-83212500D03*
X115400000Y-83212500D03*
X115000000Y-83212500D03*
X114600000Y-83212500D03*
X114200000Y-83212500D03*
X113800000Y-83212500D03*
X113400000Y-83212500D03*
D53*
X112562500Y-84050000D03*
X112562500Y-84450000D03*
X112562500Y-84850000D03*
X112562500Y-85250000D03*
X112562500Y-85650000D03*
X112562500Y-86050000D03*
X112562500Y-86450000D03*
X112562500Y-86850000D03*
X112562500Y-87250000D03*
X112562500Y-87650000D03*
X112562500Y-88050000D03*
X112562500Y-88450000D03*
X112562500Y-88850000D03*
X112562500Y-89250000D03*
%TD*%
D45*
%TO.C,C9*%
X109400000Y-81830000D03*
X109400000Y-80870000D03*
%TD*%
D23*
%TO.C,C6*%
X111000000Y-86095000D03*
X111000000Y-85405000D03*
%TD*%
D50*
%TO.C,R11*%
X114225000Y-81250000D03*
X112575000Y-81250000D03*
%TD*%
D23*
%TO.C,C5*%
X121000000Y-86495000D03*
X121000000Y-85805000D03*
%TD*%
D13*
%TO.C,R12*%
X110900000Y-80840000D03*
X110900000Y-81860000D03*
%TD*%
D45*
%TO.C,C8*%
X110900000Y-84130000D03*
X110900000Y-83170000D03*
%TD*%
%TO.C,C7*%
X109400000Y-84130000D03*
X109400000Y-83170000D03*
%TD*%
D36*
%TO.C,C22*%
X117855000Y-91550000D03*
X118545000Y-91550000D03*
%TD*%
%TO.C,C24*%
X116955000Y-81650000D03*
X117645000Y-81650000D03*
%TD*%
D23*
%TO.C,C11*%
X109700000Y-86095000D03*
X109700000Y-85405000D03*
%TD*%
D36*
%TO.C,C18*%
X123245000Y-92650000D03*
X122555000Y-92650000D03*
%TD*%
D41*
%TO.C,P1*%
X117580000Y-77880000D03*
D42*
X123750000Y-77040000D03*
X123250000Y-77040000D03*
X122750000Y-77040000D03*
X122250000Y-77040000D03*
X121750000Y-77040000D03*
X121250000Y-77040000D03*
X120750000Y-77040000D03*
X120250000Y-77040000D03*
X119750000Y-77040000D03*
X119250000Y-77040000D03*
X118750000Y-77040000D03*
X118250000Y-77040000D03*
%TD*%
D44*
%TO.C,D2*%
X127285000Y-78250000D03*
X126315000Y-78250000D03*
%TD*%
D34*
%TO.C,Q3*%
X116350000Y-93000000D03*
X116350000Y-93650000D03*
X116350000Y-94300000D03*
X114450000Y-94300000D03*
X114450000Y-93650000D03*
X114450000Y-93000000D03*
%TD*%
D44*
%TO.C,D1*%
X132485000Y-104162500D03*
X131515000Y-104162500D03*
%TD*%
D45*
%TO.C,C1*%
X115700000Y-78170000D03*
X115700000Y-79130000D03*
%TD*%
D14*
%TO.C,R16*%
X123010000Y-91650000D03*
X121990000Y-91650000D03*
%TD*%
D13*
%TO.C,R10*%
X128200000Y-81460000D03*
X128200000Y-80440000D03*
%TD*%
D54*
%TO.C,C2*%
X112080000Y-76250000D03*
X111120000Y-76250000D03*
%TD*%
M02*
