%TF.GenerationSoftware,KiCad,Pcbnew,7.0.8*%
%TF.CreationDate,2024-04-02T14:21:28+02:00*%
%TF.ProjectId,Expansion_Card_Retrofit,45787061-6e73-4696-9f6e-5f436172645f,X1*%
%TF.SameCoordinates,Original*%
%TF.FileFunction,Soldermask,Bot*%
%TF.FilePolarity,Negative*%
%FSLAX46Y46*%
G04 Gerber Fmt 4.6, Leading zero omitted, Abs format (unit mm)*
G04 Created by KiCad (PCBNEW 7.0.8) date 2024-04-02 14:21:28*
%MOMM*%
%LPD*%
G01*
G04 APERTURE LIST*
G04 Aperture macros list*
%AMRoundRect*
0 Rectangle with rounded corners*
0 $1 Rounding radius*
0 $2 $3 $4 $5 $6 $7 $8 $9 X,Y pos of 4 corners*
0 Add a 4 corners polygon primitive as box body*
4,1,4,$2,$3,$4,$5,$6,$7,$8,$9,$2,$3,0*
0 Add four circle primitives for the rounded corners*
1,1,$1+$1,$2,$3*
1,1,$1+$1,$4,$5*
1,1,$1+$1,$6,$7*
1,1,$1+$1,$8,$9*
0 Add four rect primitives between the rounded corners*
20,1,$1+$1,$2,$3,$4,$5,0*
20,1,$1+$1,$4,$5,$6,$7,0*
20,1,$1+$1,$6,$7,$8,$9,0*
20,1,$1+$1,$8,$9,$2,$3,0*%
G04 Aperture macros list end*
%ADD10R,0.380000X1.000000*%
%ADD11R,0.700000X1.150000*%
%ADD12C,2.200000*%
%ADD13R,1.700000X1.700000*%
%ADD14O,1.700000X1.700000*%
%ADD15R,1.500000X1.500000*%
%ADD16RoundRect,0.050000X-0.050000X0.387500X-0.050000X-0.387500X0.050000X-0.387500X0.050000X0.387500X0*%
%ADD17RoundRect,0.050000X-0.387500X0.050000X-0.387500X-0.050000X0.387500X-0.050000X0.387500X0.050000X0*%
%ADD18R,3.200000X3.200000*%
%ADD19RoundRect,0.125000X-0.125000X0.250000X-0.125000X-0.250000X0.125000X-0.250000X0.125000X0.250000X0*%
%ADD20R,4.300000X3.400000*%
G04 APERTURE END LIST*
D10*
%TO.C,P1*%
X142750000Y-129040000D03*
X142250000Y-129040000D03*
X141750000Y-129040000D03*
X141250000Y-129040000D03*
X140750000Y-129040000D03*
X139250000Y-129040000D03*
X138750000Y-129040000D03*
X138250000Y-129040000D03*
X137750000Y-129040000D03*
X137250000Y-129040000D03*
D11*
X143420000Y-129880000D03*
%TD*%
D12*
%TO.C,H1*%
X129000000Y-104550000D03*
%TD*%
%TO.C,H2*%
X151600000Y-104550000D03*
%TD*%
D13*
%TO.C,J1*%
X107150000Y-87375000D03*
D14*
X107150000Y-89915000D03*
X109690000Y-87375000D03*
X109690000Y-89915000D03*
X112230000Y-87375000D03*
X112230000Y-89915000D03*
X114770000Y-87375000D03*
X114770000Y-89915000D03*
X117310000Y-87375000D03*
X117310000Y-89915000D03*
%TD*%
D10*
%TO.C,P1*%
X143050000Y-87090000D03*
X142550000Y-87090000D03*
X142050000Y-87090000D03*
X141550000Y-87090000D03*
X141050000Y-87090000D03*
X139550000Y-87090000D03*
X139050000Y-87090000D03*
X138550000Y-87090000D03*
X138050000Y-87090000D03*
X137550000Y-87090000D03*
D11*
X143720000Y-87930000D03*
%TD*%
D15*
%TO.C,TP2*%
X134450000Y-128300000D03*
%TD*%
%TO.C,TP4*%
X145550000Y-128300000D03*
%TD*%
D16*
%TO.C,U2*%
X113712500Y-74712500D03*
X114112500Y-74712500D03*
X114512500Y-74712500D03*
X114912500Y-74712500D03*
X115312500Y-74712500D03*
X115712500Y-74712500D03*
X116112500Y-74712500D03*
X116512500Y-74712500D03*
X116912500Y-74712500D03*
X117312500Y-74712500D03*
X117712500Y-74712500D03*
X118112500Y-74712500D03*
X118512500Y-74712500D03*
X118912500Y-74712500D03*
D17*
X119750000Y-75550000D03*
X119750000Y-75950000D03*
X119750000Y-76350000D03*
X119750000Y-76750000D03*
X119750000Y-77150000D03*
X119750000Y-77550000D03*
X119750000Y-77950000D03*
X119750000Y-78350000D03*
X119750000Y-78750000D03*
X119750000Y-79150000D03*
X119750000Y-79550000D03*
X119750000Y-79950000D03*
X119750000Y-80350000D03*
X119750000Y-80750000D03*
D16*
X118912500Y-81587500D03*
X118512500Y-81587500D03*
X118112500Y-81587500D03*
X117712500Y-81587500D03*
X117312500Y-81587500D03*
X116912500Y-81587500D03*
X116512500Y-81587500D03*
X116112500Y-81587500D03*
X115712500Y-81587500D03*
X115312500Y-81587500D03*
X114912500Y-81587500D03*
X114512500Y-81587500D03*
X114112500Y-81587500D03*
X113712500Y-81587500D03*
D17*
X112875000Y-80750000D03*
X112875000Y-80350000D03*
X112875000Y-79950000D03*
X112875000Y-79550000D03*
X112875000Y-79150000D03*
X112875000Y-78750000D03*
X112875000Y-78350000D03*
X112875000Y-77950000D03*
X112875000Y-77550000D03*
X112875000Y-77150000D03*
X112875000Y-76750000D03*
X112875000Y-76350000D03*
X112875000Y-75950000D03*
X112875000Y-75550000D03*
D18*
X116312500Y-78150000D03*
%TD*%
D15*
%TO.C,TP4*%
X146000000Y-86050000D03*
%TD*%
%TO.C,TP2*%
X134600000Y-86050000D03*
%TD*%
D19*
%TO.C,U3*%
X163595000Y-80550000D03*
X164865000Y-80550000D03*
X166135000Y-80550000D03*
X167405000Y-80550000D03*
X167405000Y-85950000D03*
X166135000Y-85950000D03*
X164865000Y-85950000D03*
X163595000Y-85950000D03*
D20*
X165500000Y-83250000D03*
%TD*%
M02*
