%TF.GenerationSoftware,KiCad,Pcbnew,7.0.8*%
%TF.CreationDate,2024-04-11T03:43:44+02:00*%
%TF.ProjectId,Expansion_Card_Retrofit,45787061-6e73-4696-9f6e-5f436172645f,X1*%
%TF.SameCoordinates,Original*%
%TF.FileFunction,Copper,L2,Inr*%
%TF.FilePolarity,Positive*%
%FSLAX46Y46*%
G04 Gerber Fmt 4.6, Leading zero omitted, Abs format (unit mm)*
G04 Created by KiCad (PCBNEW 7.0.8) date 2024-04-11 03:43:44*
%MOMM*%
%LPD*%
G01*
G04 APERTURE LIST*
%TA.AperFunction,ViaPad*%
%ADD10C,0.400000*%
%TD*%
G04 APERTURE END LIST*
D10*
%TO.N,GND*%
X123700000Y-86650000D03*
X130700000Y-79450000D03*
X126000000Y-80950000D03*
X118598610Y-88650000D03*
X126100000Y-88950000D03*
%TO.N,Net-(R2-Pad1)*%
X115300000Y-97350000D03*
%TO.N,GND*%
X116000000Y-88750000D03*
X126000000Y-92150000D03*
%TO.N,Net-(U4-RUN)*%
X127800000Y-90950000D03*
%TO.N,GND*%
X121100000Y-79250000D03*
X113900000Y-86750000D03*
X122800000Y-89850000D03*
%TO.N,SWCLK*%
X121700000Y-84950000D03*
%TO.N,GND*%
X113900000Y-85100000D03*
%TO.N,+3V3*%
X121600000Y-87650000D03*
%TO.N,GND*%
X115500000Y-80150000D03*
%TO.N,VBUS*%
X117890000Y-93290000D03*
%TO.N,+3V3*%
X130100000Y-83650000D03*
X121279954Y-91608107D03*
%TO.N,GND*%
X125200000Y-95750000D03*
X129100000Y-91250000D03*
%TO.N,+3V3*%
X117000000Y-82250000D03*
%TO.N,GND*%
X126000000Y-79850000D03*
%TO.N,GPIO_ADC1*%
X123900000Y-92250000D03*
%TO.N,GND*%
X127700000Y-95750000D03*
%TO.N,+3V3*%
X113600000Y-79750000D03*
X125900000Y-81650000D03*
%TO.N,/Development Board Section/RUN*%
X113500000Y-92200000D03*
%TO.N,LED_EN*%
X116200000Y-84350000D03*
%TO.N,GPIO4*%
X115600000Y-91050000D03*
%TO.N,GPIO5*%
X116300000Y-91050000D03*
%TO.N,+3V3*%
X111600000Y-86050000D03*
%TO.N,GPIO2*%
X114450000Y-91250000D03*
%TO.N,GPIO_ADC0*%
X115500000Y-84350000D03*
%TO.N,/Development Board Section/GPIO_ADC3*%
X114100000Y-84350000D03*
%TO.N,GPIO_ADC1*%
X114800000Y-84350000D03*
%TO.N,/Development Board Section/RUN*%
X118650000Y-84750000D03*
%TO.N,+3V3*%
X116999830Y-90756306D03*
%TO.N,SWDIO*%
X117900000Y-84650000D03*
%TO.N,LED_EN*%
X132500000Y-100750000D03*
%TO.N,+3V3*%
X113800000Y-82250000D03*
X130400000Y-87650000D03*
%TO.N,GND*%
X114000000Y-78450000D03*
%TO.N,SWCLK*%
X115700000Y-93000000D03*
%TO.N,+3V3*%
X112400000Y-97025000D03*
%TO.N,GND*%
X121500000Y-88850000D03*
%TO.N,+3V3*%
X113574500Y-89250000D03*
%TO.N,GND*%
X115500000Y-81450000D03*
%TO.N,VBUS*%
X118900000Y-79150000D03*
%TO.N,/Development Board Section/GPIO_ADC3*%
X121200000Y-90750000D03*
%TO.N,GND*%
X128500000Y-79450000D03*
%TO.N,+3V3*%
X116600000Y-95750000D03*
%TO.N,GND*%
X121600000Y-86950000D03*
X120100000Y-95750000D03*
%TO.N,+3V3*%
X126200000Y-90975500D03*
%TO.N,SWCLK*%
X118200000Y-85650000D03*
%TO.N,GPIO3*%
X115000000Y-91700000D03*
%TO.N,GND*%
X122700000Y-95750000D03*
X123700000Y-88950000D03*
X130500000Y-84550000D03*
X123700000Y-84350000D03*
X125400000Y-84350000D03*
%TO.N,+3V3*%
X121600000Y-84050000D03*
X119719500Y-95000000D03*
%TO.N,GPIO_ADC0*%
X124900000Y-92650000D03*
%TO.N,SWDIO*%
X115100000Y-94000000D03*
%TD*%
%TA.AperFunction,Conductor*%
%TO.N,GND*%
G36*
X115893039Y-75320185D02*
G01*
X115938794Y-75372989D01*
X115950000Y-75424500D01*
X115950000Y-77200000D01*
X116225948Y-77200000D01*
X116279748Y-77212279D01*
X116400412Y-77270389D01*
X116400416Y-77270390D01*
X116400419Y-77270391D01*
X116532333Y-77300499D01*
X116532338Y-77300499D01*
X116532340Y-77300500D01*
X116532342Y-77300500D01*
X117717658Y-77300500D01*
X117717660Y-77300500D01*
X117717662Y-77300499D01*
X117717666Y-77300499D01*
X117849580Y-77270391D01*
X117849580Y-77270390D01*
X117849588Y-77270389D01*
X117970251Y-77212279D01*
X118024052Y-77200000D01*
X118200000Y-77200000D01*
X118200000Y-76970227D01*
X118212279Y-76916428D01*
X118220389Y-76899588D01*
X118250500Y-76767660D01*
X118250500Y-76700000D01*
X118250500Y-76652405D01*
X118250500Y-76464500D01*
X118270185Y-76397461D01*
X118322989Y-76351706D01*
X118374500Y-76340500D01*
X123576000Y-76340500D01*
X123643039Y-76360185D01*
X123688794Y-76412989D01*
X123700000Y-76464500D01*
X123700000Y-77200000D01*
X123975948Y-77200000D01*
X124029748Y-77212279D01*
X124150412Y-77270389D01*
X124150416Y-77270390D01*
X124150419Y-77270391D01*
X124282333Y-77300499D01*
X124282338Y-77300499D01*
X124282340Y-77300500D01*
X124282342Y-77300500D01*
X125467658Y-77300500D01*
X125467660Y-77300500D01*
X125467662Y-77300499D01*
X125467666Y-77300499D01*
X125599580Y-77270391D01*
X125599580Y-77270390D01*
X125599588Y-77270389D01*
X125720251Y-77212279D01*
X125774052Y-77200000D01*
X125950000Y-77200000D01*
X125950000Y-76970227D01*
X125962279Y-76916428D01*
X125970389Y-76899588D01*
X126000500Y-76767660D01*
X126000500Y-76700000D01*
X126000500Y-76652405D01*
X126000500Y-75424500D01*
X126020185Y-75357461D01*
X126072989Y-75311706D01*
X126124500Y-75300500D01*
X132575500Y-75300500D01*
X132642539Y-75320185D01*
X132688294Y-75372989D01*
X132699500Y-75424500D01*
X132699500Y-78267656D01*
X132699610Y-78268632D01*
X132700000Y-78275582D01*
X132700000Y-78700000D01*
X132925948Y-78700000D01*
X132979748Y-78712279D01*
X133100412Y-78770389D01*
X133100416Y-78770390D01*
X133100419Y-78770391D01*
X133232333Y-78800499D01*
X133232338Y-78800499D01*
X133232340Y-78800500D01*
X133243827Y-78800500D01*
X133575500Y-78800500D01*
X133642539Y-78820185D01*
X133688294Y-78872989D01*
X133699500Y-78924500D01*
X133699500Y-93751632D01*
X133679815Y-93818671D01*
X133627011Y-93864426D01*
X133557853Y-93874370D01*
X133494297Y-93845345D01*
X133469910Y-93816646D01*
X133451814Y-93787257D01*
X133392951Y-93691657D01*
X133240620Y-93518575D01*
X133240619Y-93518574D01*
X133240615Y-93518570D01*
X133061234Y-93373730D01*
X133061233Y-93373729D01*
X132859938Y-93261279D01*
X132642541Y-93184468D01*
X132642540Y-93184467D01*
X132642538Y-93184467D01*
X132642534Y-93184466D01*
X132642533Y-93184466D01*
X132415293Y-93145500D01*
X132415285Y-93145500D01*
X132242465Y-93145500D01*
X132242460Y-93145500D01*
X132070265Y-93160155D01*
X131847131Y-93218254D01*
X131637034Y-93313223D01*
X131637032Y-93313224D01*
X131445999Y-93442342D01*
X131279540Y-93601878D01*
X131142434Y-93787257D01*
X131038630Y-93993138D01*
X130971113Y-94213606D01*
X130941828Y-94442306D01*
X130951613Y-94672662D01*
X130951614Y-94672670D01*
X131000190Y-94898062D01*
X131000190Y-94898063D01*
X131086157Y-95112002D01*
X131086159Y-95112006D01*
X131130089Y-95183353D01*
X131207048Y-95308342D01*
X131359380Y-95481425D01*
X131359384Y-95481429D01*
X131538765Y-95626269D01*
X131538766Y-95626270D01*
X131538769Y-95626271D01*
X131538772Y-95626274D01*
X131740063Y-95738721D01*
X131957462Y-95815533D01*
X132084272Y-95837277D01*
X132184706Y-95854499D01*
X132184715Y-95854500D01*
X132357540Y-95854500D01*
X132529734Y-95839844D01*
X132529737Y-95839843D01*
X132529739Y-95839843D01*
X132752869Y-95781745D01*
X132881229Y-95723722D01*
X132962965Y-95686776D01*
X132962967Y-95686775D01*
X132962967Y-95686774D01*
X132962971Y-95686773D01*
X133154000Y-95557659D01*
X133320462Y-95398119D01*
X133457566Y-95212742D01*
X133464777Y-95198437D01*
X133512535Y-95147440D01*
X133580284Y-95130356D01*
X133646514Y-95152613D01*
X133690198Y-95207142D01*
X133699500Y-95254264D01*
X133699500Y-104575500D01*
X133679815Y-104642539D01*
X133627011Y-104688294D01*
X133575500Y-104699500D01*
X131124500Y-104699500D01*
X131057461Y-104679815D01*
X131011706Y-104627011D01*
X131000500Y-104575500D01*
X131000500Y-100750003D01*
X132094508Y-100750003D01*
X132114352Y-100875300D01*
X132114352Y-100875301D01*
X132114354Y-100875304D01*
X132171950Y-100988342D01*
X132171952Y-100988344D01*
X132171954Y-100988347D01*
X132261652Y-101078045D01*
X132261654Y-101078046D01*
X132261658Y-101078050D01*
X132374696Y-101135646D01*
X132374697Y-101135646D01*
X132374699Y-101135647D01*
X132499997Y-101155492D01*
X132500000Y-101155492D01*
X132500003Y-101155492D01*
X132625300Y-101135647D01*
X132625301Y-101135647D01*
X132625302Y-101135646D01*
X132625304Y-101135646D01*
X132738342Y-101078050D01*
X132828050Y-100988342D01*
X132885646Y-100875304D01*
X132885646Y-100875302D01*
X132885647Y-100875301D01*
X132885647Y-100875300D01*
X132905492Y-100750003D01*
X132905492Y-100749996D01*
X132885647Y-100624699D01*
X132885647Y-100624698D01*
X132885646Y-100624696D01*
X132828050Y-100511658D01*
X132828046Y-100511654D01*
X132828045Y-100511652D01*
X132738347Y-100421954D01*
X132738344Y-100421952D01*
X132738342Y-100421950D01*
X132625304Y-100364354D01*
X132625303Y-100364353D01*
X132625300Y-100364352D01*
X132500003Y-100344508D01*
X132499997Y-100344508D01*
X132374699Y-100364352D01*
X132374698Y-100364352D01*
X132299337Y-100402751D01*
X132261658Y-100421950D01*
X132261657Y-100421951D01*
X132261652Y-100421954D01*
X132171954Y-100511652D01*
X132171951Y-100511657D01*
X132114352Y-100624698D01*
X132114352Y-100624699D01*
X132094508Y-100749996D01*
X132094508Y-100750003D01*
X131000500Y-100750003D01*
X131000500Y-96969583D01*
X131000481Y-96969183D01*
X131000485Y-96935057D01*
X131000484Y-96935052D01*
X130975397Y-96825097D01*
X130975397Y-96825095D01*
X130926467Y-96723473D01*
X130905318Y-96696950D01*
X130856154Y-96635291D01*
X130856149Y-96635286D01*
X130767969Y-96564959D01*
X130666354Y-96516021D01*
X130666350Y-96516020D01*
X130653962Y-96513192D01*
X130556394Y-96490921D01*
X130556391Y-96490921D01*
X117351383Y-96490921D01*
X117351311Y-96490900D01*
X117300000Y-96490900D01*
X117243603Y-96490900D01*
X117174672Y-96506634D01*
X117133641Y-96516000D01*
X117133638Y-96516001D01*
X117032019Y-96564941D01*
X116943835Y-96635271D01*
X116943834Y-96635273D01*
X116873514Y-96723462D01*
X116824583Y-96825087D01*
X116824583Y-96825088D01*
X116799494Y-96935052D01*
X116799493Y-96935056D01*
X116799500Y-96991081D01*
X116799500Y-104575500D01*
X116779815Y-104642539D01*
X116727011Y-104688294D01*
X116675500Y-104699500D01*
X108424500Y-104699500D01*
X108357461Y-104679815D01*
X108311706Y-104627011D01*
X108300500Y-104575500D01*
X108300500Y-97025003D01*
X111994508Y-97025003D01*
X112014352Y-97150300D01*
X112014352Y-97150301D01*
X112014354Y-97150304D01*
X112071950Y-97263342D01*
X112071952Y-97263344D01*
X112071954Y-97263347D01*
X112161652Y-97353045D01*
X112161654Y-97353046D01*
X112161658Y-97353050D01*
X112274696Y-97410646D01*
X112274697Y-97410646D01*
X112274699Y-97410647D01*
X112399997Y-97430492D01*
X112400000Y-97430492D01*
X112400003Y-97430492D01*
X112525300Y-97410647D01*
X112525301Y-97410647D01*
X112525302Y-97410646D01*
X112525304Y-97410646D01*
X112638342Y-97353050D01*
X112641389Y-97350003D01*
X114894508Y-97350003D01*
X114914352Y-97475300D01*
X114914352Y-97475301D01*
X114914354Y-97475304D01*
X114971950Y-97588342D01*
X114971952Y-97588344D01*
X114971954Y-97588347D01*
X115061652Y-97678045D01*
X115061654Y-97678046D01*
X115061658Y-97678050D01*
X115174696Y-97735646D01*
X115174697Y-97735646D01*
X115174699Y-97735647D01*
X115299997Y-97755492D01*
X115300000Y-97755492D01*
X115300003Y-97755492D01*
X115425300Y-97735647D01*
X115425301Y-97735647D01*
X115425302Y-97735646D01*
X115425304Y-97735646D01*
X115538342Y-97678050D01*
X115628050Y-97588342D01*
X115685646Y-97475304D01*
X115685646Y-97475302D01*
X115685647Y-97475301D01*
X115685647Y-97475300D01*
X115705492Y-97350003D01*
X115705492Y-97349996D01*
X115685647Y-97224699D01*
X115685647Y-97224698D01*
X115685646Y-97224696D01*
X115628050Y-97111658D01*
X115628046Y-97111654D01*
X115628045Y-97111652D01*
X115538347Y-97021954D01*
X115538344Y-97021952D01*
X115538342Y-97021950D01*
X115425304Y-96964354D01*
X115425303Y-96964353D01*
X115425300Y-96964352D01*
X115300003Y-96944508D01*
X115299997Y-96944508D01*
X115174699Y-96964352D01*
X115174698Y-96964352D01*
X115099337Y-97002751D01*
X115061658Y-97021950D01*
X115061657Y-97021951D01*
X115061652Y-97021954D01*
X114971954Y-97111652D01*
X114971951Y-97111657D01*
X114914352Y-97224698D01*
X114914352Y-97224699D01*
X114894508Y-97349996D01*
X114894508Y-97350003D01*
X112641389Y-97350003D01*
X112728050Y-97263342D01*
X112785646Y-97150304D01*
X112785646Y-97150302D01*
X112785647Y-97150301D01*
X112785647Y-97150300D01*
X112805492Y-97025003D01*
X112805492Y-97024996D01*
X112785647Y-96899699D01*
X112785647Y-96899698D01*
X112785646Y-96899696D01*
X112728050Y-96786658D01*
X112728046Y-96786654D01*
X112728045Y-96786652D01*
X112638347Y-96696954D01*
X112638344Y-96696952D01*
X112638342Y-96696950D01*
X112525304Y-96639354D01*
X112525303Y-96639353D01*
X112525300Y-96639352D01*
X112400003Y-96619508D01*
X112399997Y-96619508D01*
X112274699Y-96639352D01*
X112274698Y-96639352D01*
X112199337Y-96677751D01*
X112161658Y-96696950D01*
X112161657Y-96696951D01*
X112161652Y-96696954D01*
X112071954Y-96786652D01*
X112071951Y-96786657D01*
X112014352Y-96899698D01*
X112014352Y-96899699D01*
X111994508Y-97024996D01*
X111994508Y-97025003D01*
X108300500Y-97025003D01*
X108300500Y-95248367D01*
X108320185Y-95181328D01*
X108372989Y-95135573D01*
X108442147Y-95125629D01*
X108505703Y-95154654D01*
X108530087Y-95183349D01*
X108563951Y-95238347D01*
X108607048Y-95308342D01*
X108759380Y-95481425D01*
X108759384Y-95481429D01*
X108938765Y-95626269D01*
X108938766Y-95626270D01*
X108938769Y-95626271D01*
X108938772Y-95626274D01*
X109140063Y-95738721D01*
X109357462Y-95815533D01*
X109484272Y-95837277D01*
X109584706Y-95854499D01*
X109584715Y-95854500D01*
X109757540Y-95854500D01*
X109929734Y-95839844D01*
X109929737Y-95839843D01*
X109929739Y-95839843D01*
X110152869Y-95781745D01*
X110223089Y-95750003D01*
X116194508Y-95750003D01*
X116214352Y-95875300D01*
X116214352Y-95875301D01*
X116214354Y-95875304D01*
X116271950Y-95988342D01*
X116271952Y-95988344D01*
X116271954Y-95988347D01*
X116361652Y-96078045D01*
X116361654Y-96078046D01*
X116361658Y-96078050D01*
X116474696Y-96135646D01*
X116474697Y-96135646D01*
X116474699Y-96135647D01*
X116599997Y-96155492D01*
X116600000Y-96155492D01*
X116600003Y-96155492D01*
X116725300Y-96135647D01*
X116725301Y-96135647D01*
X116725302Y-96135646D01*
X116725304Y-96135646D01*
X116838342Y-96078050D01*
X116928050Y-95988342D01*
X116985646Y-95875304D01*
X116985646Y-95875302D01*
X116985647Y-95875301D01*
X116985647Y-95875300D01*
X117005492Y-95750003D01*
X117005492Y-95749996D01*
X116985647Y-95624699D01*
X116985647Y-95624698D01*
X116985646Y-95624696D01*
X116928050Y-95511658D01*
X116928046Y-95511654D01*
X116928045Y-95511652D01*
X116838347Y-95421954D01*
X116838344Y-95421952D01*
X116838342Y-95421950D01*
X116725304Y-95364354D01*
X116725303Y-95364353D01*
X116725300Y-95364352D01*
X116600003Y-95344508D01*
X116599997Y-95344508D01*
X116474699Y-95364352D01*
X116474698Y-95364352D01*
X116408429Y-95398119D01*
X116361658Y-95421950D01*
X116361657Y-95421951D01*
X116361652Y-95421954D01*
X116271954Y-95511652D01*
X116271951Y-95511657D01*
X116214352Y-95624698D01*
X116214352Y-95624699D01*
X116194508Y-95749996D01*
X116194508Y-95750003D01*
X110223089Y-95750003D01*
X110281229Y-95723722D01*
X110362965Y-95686776D01*
X110362967Y-95686775D01*
X110362967Y-95686774D01*
X110362971Y-95686773D01*
X110554000Y-95557659D01*
X110720462Y-95398119D01*
X110857566Y-95212742D01*
X110961370Y-95006860D01*
X110963470Y-95000003D01*
X119314008Y-95000003D01*
X119333852Y-95125300D01*
X119333852Y-95125301D01*
X119336428Y-95130356D01*
X119391450Y-95238342D01*
X119391452Y-95238344D01*
X119391454Y-95238347D01*
X119481152Y-95328045D01*
X119481154Y-95328046D01*
X119481158Y-95328050D01*
X119594196Y-95385646D01*
X119594197Y-95385646D01*
X119594199Y-95385647D01*
X119719497Y-95405492D01*
X119719500Y-95405492D01*
X119719503Y-95405492D01*
X119844800Y-95385647D01*
X119844801Y-95385647D01*
X119844802Y-95385646D01*
X119844804Y-95385646D01*
X119957842Y-95328050D01*
X120047550Y-95238342D01*
X120105146Y-95125304D01*
X120105146Y-95125302D01*
X120105147Y-95125301D01*
X120105147Y-95125300D01*
X120124992Y-95000003D01*
X120124992Y-94999996D01*
X120105147Y-94874699D01*
X120105147Y-94874698D01*
X120105146Y-94874696D01*
X120047550Y-94761658D01*
X120047546Y-94761654D01*
X120047545Y-94761652D01*
X119957847Y-94671954D01*
X119957844Y-94671952D01*
X119957842Y-94671950D01*
X119844804Y-94614354D01*
X119844803Y-94614353D01*
X119844800Y-94614352D01*
X119719503Y-94594508D01*
X119719497Y-94594508D01*
X119594199Y-94614352D01*
X119594198Y-94614352D01*
X119518837Y-94652751D01*
X119481158Y-94671950D01*
X119481157Y-94671951D01*
X119481152Y-94671954D01*
X119391454Y-94761652D01*
X119391451Y-94761657D01*
X119333852Y-94874698D01*
X119333852Y-94874699D01*
X119314008Y-94999996D01*
X119314008Y-95000003D01*
X110963470Y-95000003D01*
X111028886Y-94786397D01*
X111058172Y-94557694D01*
X111048386Y-94327332D01*
X110999810Y-94101938D01*
X110958850Y-94000003D01*
X114694508Y-94000003D01*
X114714352Y-94125300D01*
X114714352Y-94125301D01*
X114714354Y-94125304D01*
X114771950Y-94238342D01*
X114771952Y-94238344D01*
X114771954Y-94238347D01*
X114861652Y-94328045D01*
X114861654Y-94328046D01*
X114861658Y-94328050D01*
X114974696Y-94385646D01*
X114974697Y-94385646D01*
X114974699Y-94385647D01*
X115099997Y-94405492D01*
X115100000Y-94405492D01*
X115100003Y-94405492D01*
X115225300Y-94385647D01*
X115225301Y-94385647D01*
X115225302Y-94385646D01*
X115225304Y-94385646D01*
X115338342Y-94328050D01*
X115428050Y-94238342D01*
X115485646Y-94125304D01*
X115485646Y-94125302D01*
X115485647Y-94125301D01*
X115485647Y-94125300D01*
X115505492Y-94000003D01*
X115505492Y-93999996D01*
X115485647Y-93874699D01*
X115485647Y-93874698D01*
X115471730Y-93847385D01*
X115428050Y-93761658D01*
X115428046Y-93761654D01*
X115428045Y-93761652D01*
X115338347Y-93671954D01*
X115338344Y-93671952D01*
X115338342Y-93671950D01*
X115225304Y-93614354D01*
X115225303Y-93614353D01*
X115225300Y-93614352D01*
X115100003Y-93594508D01*
X115099997Y-93594508D01*
X114974699Y-93614352D01*
X114974698Y-93614352D01*
X114899337Y-93652751D01*
X114861658Y-93671950D01*
X114861657Y-93671951D01*
X114861652Y-93671954D01*
X114771954Y-93761652D01*
X114771951Y-93761657D01*
X114714352Y-93874698D01*
X114714352Y-93874699D01*
X114694508Y-93999996D01*
X114694508Y-94000003D01*
X110958850Y-94000003D01*
X110913841Y-93887994D01*
X110792951Y-93691657D01*
X110640620Y-93518575D01*
X110640619Y-93518574D01*
X110640615Y-93518570D01*
X110461234Y-93373730D01*
X110461233Y-93373729D01*
X110259938Y-93261279D01*
X110042541Y-93184468D01*
X110042540Y-93184467D01*
X110042538Y-93184467D01*
X110042534Y-93184466D01*
X110042533Y-93184466D01*
X109815293Y-93145500D01*
X109815285Y-93145500D01*
X109642465Y-93145500D01*
X109642460Y-93145500D01*
X109470265Y-93160155D01*
X109247131Y-93218254D01*
X109037034Y-93313223D01*
X109037032Y-93313224D01*
X108845999Y-93442342D01*
X108679540Y-93601878D01*
X108542434Y-93787257D01*
X108535222Y-93801562D01*
X108487463Y-93852560D01*
X108419714Y-93869643D01*
X108353484Y-93847385D01*
X108309801Y-93792854D01*
X108300500Y-93745735D01*
X108300500Y-93000003D01*
X115294508Y-93000003D01*
X115314352Y-93125300D01*
X115314352Y-93125301D01*
X115314354Y-93125304D01*
X115371950Y-93238342D01*
X115371952Y-93238344D01*
X115371954Y-93238347D01*
X115461652Y-93328045D01*
X115461654Y-93328046D01*
X115461658Y-93328050D01*
X115574696Y-93385646D01*
X115574697Y-93385646D01*
X115574699Y-93385647D01*
X115699997Y-93405492D01*
X115700000Y-93405492D01*
X115700003Y-93405492D01*
X115825300Y-93385647D01*
X115825301Y-93385647D01*
X115825302Y-93385646D01*
X115825304Y-93385646D01*
X115938342Y-93328050D01*
X115976389Y-93290003D01*
X117484508Y-93290003D01*
X117504352Y-93415300D01*
X117504352Y-93415301D01*
X117522805Y-93451517D01*
X117561950Y-93528342D01*
X117561952Y-93528344D01*
X117561954Y-93528347D01*
X117651652Y-93618045D01*
X117651654Y-93618046D01*
X117651658Y-93618050D01*
X117764696Y-93675646D01*
X117764697Y-93675646D01*
X117764699Y-93675647D01*
X117889997Y-93695492D01*
X117890000Y-93695492D01*
X117890003Y-93695492D01*
X118015300Y-93675647D01*
X118015301Y-93675647D01*
X118015302Y-93675646D01*
X118015304Y-93675646D01*
X118128342Y-93618050D01*
X118218050Y-93528342D01*
X118275646Y-93415304D01*
X118275646Y-93415302D01*
X118275647Y-93415301D01*
X118275647Y-93415300D01*
X118295492Y-93290003D01*
X118295492Y-93289996D01*
X118275647Y-93164699D01*
X118275647Y-93164698D01*
X118265865Y-93145500D01*
X118218050Y-93051658D01*
X118218046Y-93051654D01*
X118218045Y-93051652D01*
X118128347Y-92961954D01*
X118128344Y-92961952D01*
X118128342Y-92961950D01*
X118015304Y-92904354D01*
X118015303Y-92904353D01*
X118015300Y-92904352D01*
X117890003Y-92884508D01*
X117889997Y-92884508D01*
X117764699Y-92904352D01*
X117764698Y-92904352D01*
X117689337Y-92942751D01*
X117651658Y-92961950D01*
X117651657Y-92961951D01*
X117651652Y-92961954D01*
X117561954Y-93051652D01*
X117561951Y-93051657D01*
X117561950Y-93051658D01*
X117542751Y-93089337D01*
X117504352Y-93164698D01*
X117504352Y-93164699D01*
X117484508Y-93289996D01*
X117484508Y-93290003D01*
X115976389Y-93290003D01*
X116028050Y-93238342D01*
X116085646Y-93125304D01*
X116085646Y-93125302D01*
X116085647Y-93125301D01*
X116085647Y-93125300D01*
X116105492Y-93000003D01*
X116105492Y-92999996D01*
X116085647Y-92874699D01*
X116085647Y-92874698D01*
X116085646Y-92874696D01*
X116028050Y-92761658D01*
X116028046Y-92761654D01*
X116028045Y-92761652D01*
X115938347Y-92671954D01*
X115938344Y-92671952D01*
X115938342Y-92671950D01*
X115825304Y-92614354D01*
X115825303Y-92614353D01*
X115825300Y-92614352D01*
X115700003Y-92594508D01*
X115699997Y-92594508D01*
X115574699Y-92614352D01*
X115574698Y-92614352D01*
X115504745Y-92649996D01*
X115461658Y-92671950D01*
X115461657Y-92671951D01*
X115461652Y-92671954D01*
X115371954Y-92761652D01*
X115371951Y-92761657D01*
X115314352Y-92874698D01*
X115314352Y-92874699D01*
X115294508Y-92999996D01*
X115294508Y-93000003D01*
X108300500Y-93000003D01*
X108300500Y-92200003D01*
X113094508Y-92200003D01*
X113114352Y-92325300D01*
X113114352Y-92325301D01*
X113114354Y-92325304D01*
X113171950Y-92438342D01*
X113171952Y-92438344D01*
X113171954Y-92438347D01*
X113261652Y-92528045D01*
X113261654Y-92528046D01*
X113261658Y-92528050D01*
X113374696Y-92585646D01*
X113374697Y-92585646D01*
X113374699Y-92585647D01*
X113499997Y-92605492D01*
X113500000Y-92605492D01*
X113500003Y-92605492D01*
X113625300Y-92585647D01*
X113625301Y-92585647D01*
X113625302Y-92585646D01*
X113625304Y-92585646D01*
X113738342Y-92528050D01*
X113828050Y-92438342D01*
X113885646Y-92325304D01*
X113885646Y-92325302D01*
X113885647Y-92325301D01*
X113885647Y-92325300D01*
X113897573Y-92250003D01*
X123494508Y-92250003D01*
X123514352Y-92375300D01*
X123514352Y-92375301D01*
X123514354Y-92375304D01*
X123571950Y-92488342D01*
X123571952Y-92488344D01*
X123571954Y-92488347D01*
X123661652Y-92578045D01*
X123661654Y-92578046D01*
X123661658Y-92578050D01*
X123774696Y-92635646D01*
X123774697Y-92635646D01*
X123774699Y-92635647D01*
X123899997Y-92655492D01*
X123900000Y-92655492D01*
X123900003Y-92655492D01*
X123934659Y-92650003D01*
X124494508Y-92650003D01*
X124514352Y-92775300D01*
X124514352Y-92775301D01*
X124514354Y-92775304D01*
X124571950Y-92888342D01*
X124571952Y-92888344D01*
X124571954Y-92888347D01*
X124661652Y-92978045D01*
X124661654Y-92978046D01*
X124661658Y-92978050D01*
X124774696Y-93035646D01*
X124774697Y-93035646D01*
X124774699Y-93035647D01*
X124899997Y-93055492D01*
X124900000Y-93055492D01*
X124900003Y-93055492D01*
X125025300Y-93035647D01*
X125025301Y-93035647D01*
X125025302Y-93035646D01*
X125025304Y-93035646D01*
X125138342Y-92978050D01*
X125228050Y-92888342D01*
X125285646Y-92775304D01*
X125285646Y-92775302D01*
X125285647Y-92775301D01*
X125285647Y-92775300D01*
X125305492Y-92650003D01*
X125305492Y-92649996D01*
X125285647Y-92524699D01*
X125285647Y-92524698D01*
X125267125Y-92488347D01*
X125228050Y-92411658D01*
X125228046Y-92411654D01*
X125228045Y-92411652D01*
X125138347Y-92321954D01*
X125138344Y-92321952D01*
X125138342Y-92321950D01*
X125025304Y-92264354D01*
X125025303Y-92264353D01*
X125025300Y-92264352D01*
X124900003Y-92244508D01*
X124899997Y-92244508D01*
X124774699Y-92264352D01*
X124774698Y-92264352D01*
X124699337Y-92302751D01*
X124661658Y-92321950D01*
X124661657Y-92321951D01*
X124661652Y-92321954D01*
X124571954Y-92411652D01*
X124571951Y-92411657D01*
X124514352Y-92524698D01*
X124514352Y-92524699D01*
X124494508Y-92649996D01*
X124494508Y-92650003D01*
X123934659Y-92650003D01*
X124025300Y-92635647D01*
X124025301Y-92635647D01*
X124025302Y-92635646D01*
X124025304Y-92635646D01*
X124138342Y-92578050D01*
X124228050Y-92488342D01*
X124285646Y-92375304D01*
X124285646Y-92375302D01*
X124285647Y-92375301D01*
X124285647Y-92375300D01*
X124305492Y-92250003D01*
X124305492Y-92249996D01*
X124285647Y-92124699D01*
X124285647Y-92124698D01*
X124265749Y-92085647D01*
X124228050Y-92011658D01*
X124228046Y-92011654D01*
X124228045Y-92011652D01*
X124138347Y-91921954D01*
X124138344Y-91921952D01*
X124138342Y-91921950D01*
X124025304Y-91864354D01*
X124025303Y-91864353D01*
X124025300Y-91864352D01*
X123900003Y-91844508D01*
X123899997Y-91844508D01*
X123774699Y-91864352D01*
X123774698Y-91864352D01*
X123699337Y-91902751D01*
X123661658Y-91921950D01*
X123661657Y-91921951D01*
X123661652Y-91921954D01*
X123571954Y-92011652D01*
X123571951Y-92011657D01*
X123571950Y-92011658D01*
X123563599Y-92028048D01*
X123514352Y-92124698D01*
X123514352Y-92124699D01*
X123494508Y-92249996D01*
X123494508Y-92250003D01*
X113897573Y-92250003D01*
X113905492Y-92200003D01*
X113905492Y-92199996D01*
X113885647Y-92074699D01*
X113885647Y-92074698D01*
X113885646Y-92074696D01*
X113828050Y-91961658D01*
X113828046Y-91961654D01*
X113828045Y-91961652D01*
X113738347Y-91871954D01*
X113738344Y-91871952D01*
X113738342Y-91871950D01*
X113625304Y-91814354D01*
X113625303Y-91814353D01*
X113625300Y-91814352D01*
X113500003Y-91794508D01*
X113499997Y-91794508D01*
X113374699Y-91814352D01*
X113374698Y-91814352D01*
X113311706Y-91846449D01*
X113261658Y-91871950D01*
X113261657Y-91871951D01*
X113261652Y-91871954D01*
X113171954Y-91961652D01*
X113171951Y-91961657D01*
X113114352Y-92074698D01*
X113114352Y-92074699D01*
X113094508Y-92199996D01*
X113094508Y-92200003D01*
X108300500Y-92200003D01*
X108300500Y-91250003D01*
X114044508Y-91250003D01*
X114064352Y-91375300D01*
X114064352Y-91375301D01*
X114065752Y-91378048D01*
X114121950Y-91488342D01*
X114121952Y-91488344D01*
X114121954Y-91488347D01*
X114211652Y-91578045D01*
X114211654Y-91578046D01*
X114211658Y-91578050D01*
X114324696Y-91635646D01*
X114324697Y-91635646D01*
X114324699Y-91635647D01*
X114398479Y-91647332D01*
X114450000Y-91655492D01*
X114461620Y-91653651D01*
X114530911Y-91662604D01*
X114584364Y-91707598D01*
X114603492Y-91756727D01*
X114614352Y-91825300D01*
X114614352Y-91825301D01*
X114632805Y-91861517D01*
X114671950Y-91938342D01*
X114671952Y-91938344D01*
X114671954Y-91938347D01*
X114761652Y-92028045D01*
X114761654Y-92028046D01*
X114761658Y-92028050D01*
X114874696Y-92085646D01*
X114874697Y-92085646D01*
X114874699Y-92085647D01*
X114999997Y-92105492D01*
X115000000Y-92105492D01*
X115000003Y-92105492D01*
X115125300Y-92085647D01*
X115125301Y-92085647D01*
X115125302Y-92085646D01*
X115125304Y-92085646D01*
X115238342Y-92028050D01*
X115328050Y-91938342D01*
X115385646Y-91825304D01*
X115385646Y-91825302D01*
X115385647Y-91825301D01*
X115385647Y-91825300D01*
X115405492Y-91700003D01*
X115405492Y-91699996D01*
X115387464Y-91586170D01*
X115396419Y-91516877D01*
X115441415Y-91463425D01*
X115508167Y-91442786D01*
X115529335Y-91444300D01*
X115599998Y-91455492D01*
X115600000Y-91455492D01*
X115600003Y-91455492D01*
X115725300Y-91435647D01*
X115725301Y-91435647D01*
X115725302Y-91435646D01*
X115725304Y-91435646D01*
X115838342Y-91378050D01*
X115862319Y-91354072D01*
X115923640Y-91320588D01*
X115993332Y-91325572D01*
X116037680Y-91354072D01*
X116061658Y-91378050D01*
X116174696Y-91435646D01*
X116174697Y-91435646D01*
X116174699Y-91435647D01*
X116299997Y-91455492D01*
X116300000Y-91455492D01*
X116300003Y-91455492D01*
X116425300Y-91435647D01*
X116425301Y-91435647D01*
X116425302Y-91435646D01*
X116425304Y-91435646D01*
X116538342Y-91378050D01*
X116628050Y-91288342D01*
X116681773Y-91182904D01*
X116729745Y-91132110D01*
X116797566Y-91115315D01*
X116848548Y-91128715D01*
X116874526Y-91141952D01*
X116874527Y-91141952D01*
X116874529Y-91141953D01*
X116999827Y-91161798D01*
X116999830Y-91161798D01*
X116999833Y-91161798D01*
X117125130Y-91141953D01*
X117125131Y-91141953D01*
X117125132Y-91141952D01*
X117125134Y-91141952D01*
X117238172Y-91084356D01*
X117327880Y-90994648D01*
X117385476Y-90881610D01*
X117385476Y-90881608D01*
X117385477Y-90881607D01*
X117385477Y-90881606D01*
X117405322Y-90756309D01*
X117405322Y-90756302D01*
X117404324Y-90750003D01*
X120794508Y-90750003D01*
X120814352Y-90875300D01*
X120814352Y-90875301D01*
X120817567Y-90881610D01*
X120871950Y-90988342D01*
X120871952Y-90988344D01*
X120871954Y-90988347D01*
X120961652Y-91078045D01*
X120961656Y-91078048D01*
X120961658Y-91078050D01*
X120996377Y-91095740D01*
X121047172Y-91143713D01*
X121063967Y-91211534D01*
X121041430Y-91277669D01*
X121027763Y-91293905D01*
X120951905Y-91369763D01*
X120951905Y-91369764D01*
X120951904Y-91369765D01*
X120949082Y-91375304D01*
X120894306Y-91482805D01*
X120894306Y-91482806D01*
X120874462Y-91608103D01*
X120874462Y-91608110D01*
X120894306Y-91733407D01*
X120894306Y-91733408D01*
X120894308Y-91733411D01*
X120951904Y-91846449D01*
X120951906Y-91846451D01*
X120951908Y-91846454D01*
X121041606Y-91936152D01*
X121041608Y-91936153D01*
X121041612Y-91936157D01*
X121154650Y-91993753D01*
X121154651Y-91993753D01*
X121154653Y-91993754D01*
X121279951Y-92013599D01*
X121279954Y-92013599D01*
X121279957Y-92013599D01*
X121405254Y-91993754D01*
X121405255Y-91993754D01*
X121405256Y-91993753D01*
X121405258Y-91993753D01*
X121518296Y-91936157D01*
X121608004Y-91846449D01*
X121665600Y-91733411D01*
X121665600Y-91733409D01*
X121665601Y-91733408D01*
X121665601Y-91733407D01*
X121685446Y-91608110D01*
X121685446Y-91608103D01*
X121665601Y-91482806D01*
X121665601Y-91482805D01*
X121651684Y-91455492D01*
X121608004Y-91369765D01*
X121608000Y-91369761D01*
X121607999Y-91369759D01*
X121518301Y-91280061D01*
X121518297Y-91280058D01*
X121518296Y-91280057D01*
X121483576Y-91262366D01*
X121432781Y-91214392D01*
X121415986Y-91146570D01*
X121438524Y-91080436D01*
X121452185Y-91064206D01*
X121528050Y-90988342D01*
X121534592Y-90975503D01*
X125794508Y-90975503D01*
X125814352Y-91100800D01*
X125814352Y-91100801D01*
X125826529Y-91124699D01*
X125871950Y-91213842D01*
X125871952Y-91213844D01*
X125871954Y-91213847D01*
X125961652Y-91303545D01*
X125961654Y-91303546D01*
X125961658Y-91303550D01*
X126074696Y-91361146D01*
X126074697Y-91361146D01*
X126074699Y-91361147D01*
X126199997Y-91380992D01*
X126200000Y-91380992D01*
X126200003Y-91380992D01*
X126325300Y-91361147D01*
X126325301Y-91361147D01*
X126325302Y-91361146D01*
X126325304Y-91361146D01*
X126438342Y-91303550D01*
X126528050Y-91213842D01*
X126585646Y-91100804D01*
X126585646Y-91100802D01*
X126585647Y-91100801D01*
X126585647Y-91100800D01*
X126605492Y-90975503D01*
X126605492Y-90975496D01*
X126601454Y-90950003D01*
X127394508Y-90950003D01*
X127414352Y-91075300D01*
X127414352Y-91075301D01*
X127418965Y-91084354D01*
X127471950Y-91188342D01*
X127471952Y-91188344D01*
X127471954Y-91188347D01*
X127561652Y-91278045D01*
X127561654Y-91278046D01*
X127561658Y-91278050D01*
X127674696Y-91335646D01*
X127674697Y-91335646D01*
X127674699Y-91335647D01*
X127799997Y-91355492D01*
X127800000Y-91355492D01*
X127800003Y-91355492D01*
X127925300Y-91335647D01*
X127925301Y-91335647D01*
X127925302Y-91335646D01*
X127925304Y-91335646D01*
X128038342Y-91278050D01*
X128128050Y-91188342D01*
X128185646Y-91075304D01*
X128185646Y-91075302D01*
X128185647Y-91075301D01*
X128185647Y-91075300D01*
X128205492Y-90950003D01*
X128205492Y-90949996D01*
X128185647Y-90824699D01*
X128185647Y-90824698D01*
X128163900Y-90782018D01*
X128128050Y-90711658D01*
X128128046Y-90711654D01*
X128128045Y-90711652D01*
X128038347Y-90621954D01*
X128038344Y-90621952D01*
X128038342Y-90621950D01*
X127925304Y-90564354D01*
X127925303Y-90564353D01*
X127925300Y-90564352D01*
X127800003Y-90544508D01*
X127799997Y-90544508D01*
X127674699Y-90564352D01*
X127674698Y-90564352D01*
X127599337Y-90602751D01*
X127561658Y-90621950D01*
X127561657Y-90621951D01*
X127561652Y-90621954D01*
X127471954Y-90711652D01*
X127471951Y-90711657D01*
X127471950Y-90711658D01*
X127466704Y-90721954D01*
X127414352Y-90824698D01*
X127414352Y-90824699D01*
X127394508Y-90949996D01*
X127394508Y-90950003D01*
X126601454Y-90950003D01*
X126585647Y-90850199D01*
X126585647Y-90850198D01*
X126582748Y-90844508D01*
X126528050Y-90737158D01*
X126528046Y-90737154D01*
X126528045Y-90737152D01*
X126438347Y-90647454D01*
X126438344Y-90647452D01*
X126438342Y-90647450D01*
X126325304Y-90589854D01*
X126325303Y-90589853D01*
X126325300Y-90589852D01*
X126200003Y-90570008D01*
X126199997Y-90570008D01*
X126074699Y-90589852D01*
X126074698Y-90589852D01*
X126006315Y-90624696D01*
X125961658Y-90647450D01*
X125961657Y-90647451D01*
X125961652Y-90647454D01*
X125871954Y-90737152D01*
X125871951Y-90737157D01*
X125871950Y-90737158D01*
X125865409Y-90749996D01*
X125814352Y-90850198D01*
X125814352Y-90850199D01*
X125794508Y-90975496D01*
X125794508Y-90975503D01*
X121534592Y-90975503D01*
X121585646Y-90875304D01*
X121585646Y-90875302D01*
X121585647Y-90875301D01*
X121585647Y-90875300D01*
X121605492Y-90750003D01*
X121605492Y-90749996D01*
X121585647Y-90624699D01*
X121585647Y-90624698D01*
X121567892Y-90589852D01*
X121528050Y-90511658D01*
X121528046Y-90511654D01*
X121528045Y-90511652D01*
X121438347Y-90421954D01*
X121438344Y-90421952D01*
X121438342Y-90421950D01*
X121325304Y-90364354D01*
X121325303Y-90364353D01*
X121325300Y-90364352D01*
X121200003Y-90344508D01*
X121199997Y-90344508D01*
X121074699Y-90364352D01*
X121074698Y-90364352D01*
X120999337Y-90402751D01*
X120961658Y-90421950D01*
X120961657Y-90421951D01*
X120961652Y-90421954D01*
X120871954Y-90511652D01*
X120871951Y-90511657D01*
X120871950Y-90511658D01*
X120855212Y-90544508D01*
X120814352Y-90624698D01*
X120814352Y-90624699D01*
X120794508Y-90749996D01*
X120794508Y-90750003D01*
X117404324Y-90750003D01*
X117385477Y-90631005D01*
X117385477Y-90631004D01*
X117380864Y-90621950D01*
X117327880Y-90517964D01*
X117327876Y-90517960D01*
X117327875Y-90517958D01*
X117238177Y-90428260D01*
X117238174Y-90428258D01*
X117238172Y-90428256D01*
X117125134Y-90370660D01*
X117125133Y-90370659D01*
X117125130Y-90370658D01*
X116999833Y-90350814D01*
X116999827Y-90350814D01*
X116874529Y-90370658D01*
X116874528Y-90370658D01*
X116799167Y-90409057D01*
X116761488Y-90428256D01*
X116761487Y-90428257D01*
X116761482Y-90428260D01*
X116671784Y-90517958D01*
X116671777Y-90517967D01*
X116618057Y-90623399D01*
X116570083Y-90674195D01*
X116502262Y-90690990D01*
X116451278Y-90677588D01*
X116425306Y-90664354D01*
X116425300Y-90664352D01*
X116300003Y-90644508D01*
X116299997Y-90644508D01*
X116174699Y-90664352D01*
X116174698Y-90664352D01*
X116122420Y-90690990D01*
X116061658Y-90721950D01*
X116061657Y-90721951D01*
X116061652Y-90721954D01*
X116037681Y-90745926D01*
X115976358Y-90779411D01*
X115906666Y-90774427D01*
X115862319Y-90745926D01*
X115838347Y-90721954D01*
X115838344Y-90721952D01*
X115838342Y-90721950D01*
X115725304Y-90664354D01*
X115725303Y-90664353D01*
X115725300Y-90664352D01*
X115600003Y-90644508D01*
X115599997Y-90644508D01*
X115474699Y-90664352D01*
X115474698Y-90664352D01*
X115422420Y-90690990D01*
X115361658Y-90721950D01*
X115361657Y-90721951D01*
X115361652Y-90721954D01*
X115271954Y-90811652D01*
X115271951Y-90811657D01*
X115271950Y-90811658D01*
X115255212Y-90844508D01*
X115214352Y-90924698D01*
X115214352Y-90924699D01*
X115194508Y-91049996D01*
X115194508Y-91049997D01*
X115194508Y-91050000D01*
X115201752Y-91095739D01*
X115212536Y-91163829D01*
X115203580Y-91233123D01*
X115158583Y-91286574D01*
X115091831Y-91307213D01*
X115070665Y-91305700D01*
X115039990Y-91300841D01*
X115000000Y-91294508D01*
X114999999Y-91294508D01*
X114988376Y-91296349D01*
X114919082Y-91287392D01*
X114865631Y-91242395D01*
X114846507Y-91193275D01*
X114835646Y-91124696D01*
X114778050Y-91011658D01*
X114778046Y-91011654D01*
X114778045Y-91011652D01*
X114688347Y-90921954D01*
X114688344Y-90921952D01*
X114688342Y-90921950D01*
X114575304Y-90864354D01*
X114575303Y-90864353D01*
X114575300Y-90864352D01*
X114450003Y-90844508D01*
X114449997Y-90844508D01*
X114324699Y-90864352D01*
X114324698Y-90864352D01*
X114249337Y-90902751D01*
X114211658Y-90921950D01*
X114211657Y-90921951D01*
X114211652Y-90921954D01*
X114121954Y-91011652D01*
X114121951Y-91011657D01*
X114064352Y-91124698D01*
X114064352Y-91124699D01*
X114044508Y-91249996D01*
X114044508Y-91250003D01*
X108300500Y-91250003D01*
X108300500Y-89250003D01*
X113169008Y-89250003D01*
X113188852Y-89375300D01*
X113188852Y-89375301D01*
X113188854Y-89375304D01*
X113246450Y-89488342D01*
X113246452Y-89488344D01*
X113246454Y-89488347D01*
X113336152Y-89578045D01*
X113336154Y-89578046D01*
X113336158Y-89578050D01*
X113449196Y-89635646D01*
X113449197Y-89635646D01*
X113449199Y-89635647D01*
X113574497Y-89655492D01*
X113574500Y-89655492D01*
X113574503Y-89655492D01*
X113699800Y-89635647D01*
X113699801Y-89635647D01*
X113699802Y-89635646D01*
X113699804Y-89635646D01*
X113812842Y-89578050D01*
X113902550Y-89488342D01*
X113960146Y-89375304D01*
X113960146Y-89375302D01*
X113960147Y-89375301D01*
X113960147Y-89375300D01*
X113979992Y-89250003D01*
X113979992Y-89249996D01*
X113960147Y-89124699D01*
X113960147Y-89124698D01*
X113960146Y-89124696D01*
X113902550Y-89011658D01*
X113902546Y-89011654D01*
X113902545Y-89011652D01*
X113812847Y-88921954D01*
X113812844Y-88921952D01*
X113812842Y-88921950D01*
X113699804Y-88864354D01*
X113699803Y-88864353D01*
X113699800Y-88864352D01*
X113574503Y-88844508D01*
X113574497Y-88844508D01*
X113449199Y-88864352D01*
X113449198Y-88864352D01*
X113373837Y-88902751D01*
X113336158Y-88921950D01*
X113336157Y-88921951D01*
X113336152Y-88921954D01*
X113246454Y-89011652D01*
X113246451Y-89011657D01*
X113188852Y-89124698D01*
X113188852Y-89124699D01*
X113169008Y-89249996D01*
X113169008Y-89250003D01*
X108300500Y-89250003D01*
X108300500Y-87650003D01*
X121194508Y-87650003D01*
X121214352Y-87775300D01*
X121214352Y-87775301D01*
X121214354Y-87775304D01*
X121271950Y-87888342D01*
X121271952Y-87888344D01*
X121271954Y-87888347D01*
X121361652Y-87978045D01*
X121361654Y-87978046D01*
X121361658Y-87978050D01*
X121474696Y-88035646D01*
X121474697Y-88035646D01*
X121474699Y-88035647D01*
X121599997Y-88055492D01*
X121600000Y-88055492D01*
X121600003Y-88055492D01*
X121725300Y-88035647D01*
X121725301Y-88035647D01*
X121725302Y-88035646D01*
X121725304Y-88035646D01*
X121838342Y-87978050D01*
X121928050Y-87888342D01*
X121985646Y-87775304D01*
X121985646Y-87775302D01*
X121985647Y-87775301D01*
X121985647Y-87775300D01*
X122005492Y-87650003D01*
X129994508Y-87650003D01*
X130014352Y-87775300D01*
X130014352Y-87775301D01*
X130014354Y-87775304D01*
X130071950Y-87888342D01*
X130071952Y-87888344D01*
X130071954Y-87888347D01*
X130161652Y-87978045D01*
X130161654Y-87978046D01*
X130161658Y-87978050D01*
X130274696Y-88035646D01*
X130274697Y-88035646D01*
X130274699Y-88035647D01*
X130399997Y-88055492D01*
X130400000Y-88055492D01*
X130400003Y-88055492D01*
X130525300Y-88035647D01*
X130525301Y-88035647D01*
X130525302Y-88035646D01*
X130525304Y-88035646D01*
X130638342Y-87978050D01*
X130728050Y-87888342D01*
X130785646Y-87775304D01*
X130785646Y-87775302D01*
X130785647Y-87775301D01*
X130785647Y-87775300D01*
X130805492Y-87650003D01*
X130805492Y-87649996D01*
X130785647Y-87524699D01*
X130785647Y-87524698D01*
X130785646Y-87524696D01*
X130728050Y-87411658D01*
X130728046Y-87411654D01*
X130728045Y-87411652D01*
X130638347Y-87321954D01*
X130638344Y-87321952D01*
X130638342Y-87321950D01*
X130525304Y-87264354D01*
X130525303Y-87264353D01*
X130525300Y-87264352D01*
X130400003Y-87244508D01*
X130399997Y-87244508D01*
X130274699Y-87264352D01*
X130274698Y-87264352D01*
X130199337Y-87302751D01*
X130161658Y-87321950D01*
X130161657Y-87321951D01*
X130161652Y-87321954D01*
X130071954Y-87411652D01*
X130071951Y-87411657D01*
X130014352Y-87524698D01*
X130014352Y-87524699D01*
X129994508Y-87649996D01*
X129994508Y-87650003D01*
X122005492Y-87650003D01*
X122005492Y-87649996D01*
X121985647Y-87524699D01*
X121985647Y-87524698D01*
X121985646Y-87524696D01*
X121928050Y-87411658D01*
X121928046Y-87411654D01*
X121928045Y-87411652D01*
X121838347Y-87321954D01*
X121838344Y-87321952D01*
X121838342Y-87321950D01*
X121725304Y-87264354D01*
X121725303Y-87264353D01*
X121725300Y-87264352D01*
X121600003Y-87244508D01*
X121599997Y-87244508D01*
X121474699Y-87264352D01*
X121474698Y-87264352D01*
X121399337Y-87302751D01*
X121361658Y-87321950D01*
X121361657Y-87321951D01*
X121361652Y-87321954D01*
X121271954Y-87411652D01*
X121271951Y-87411657D01*
X121214352Y-87524698D01*
X121214352Y-87524699D01*
X121194508Y-87649996D01*
X121194508Y-87650003D01*
X108300500Y-87650003D01*
X108300500Y-86050003D01*
X111194508Y-86050003D01*
X111214352Y-86175300D01*
X111214352Y-86175301D01*
X111214354Y-86175304D01*
X111271950Y-86288342D01*
X111271952Y-86288344D01*
X111271954Y-86288347D01*
X111361652Y-86378045D01*
X111361654Y-86378046D01*
X111361658Y-86378050D01*
X111474696Y-86435646D01*
X111474697Y-86435646D01*
X111474699Y-86435647D01*
X111599997Y-86455492D01*
X111600000Y-86455492D01*
X111600003Y-86455492D01*
X111725300Y-86435647D01*
X111725301Y-86435647D01*
X111725302Y-86435646D01*
X111725304Y-86435646D01*
X111838342Y-86378050D01*
X111928050Y-86288342D01*
X111985646Y-86175304D01*
X111985646Y-86175302D01*
X111985647Y-86175301D01*
X111985647Y-86175300D01*
X112005492Y-86050003D01*
X112005492Y-86049996D01*
X111985647Y-85924699D01*
X111985647Y-85924698D01*
X111967125Y-85888347D01*
X111928050Y-85811658D01*
X111928046Y-85811654D01*
X111928045Y-85811652D01*
X111838347Y-85721954D01*
X111838344Y-85721952D01*
X111838342Y-85721950D01*
X111725304Y-85664354D01*
X111725303Y-85664353D01*
X111725300Y-85664352D01*
X111600003Y-85644508D01*
X111599997Y-85644508D01*
X111474699Y-85664352D01*
X111474698Y-85664352D01*
X111399337Y-85702751D01*
X111361658Y-85721950D01*
X111361657Y-85721951D01*
X111361652Y-85721954D01*
X111271954Y-85811652D01*
X111271951Y-85811657D01*
X111214352Y-85924698D01*
X111214352Y-85924699D01*
X111194508Y-86049996D01*
X111194508Y-86050003D01*
X108300500Y-86050003D01*
X108300500Y-84350003D01*
X113694508Y-84350003D01*
X113714352Y-84475300D01*
X113714352Y-84475301D01*
X113714354Y-84475304D01*
X113771950Y-84588342D01*
X113771952Y-84588344D01*
X113771954Y-84588347D01*
X113861652Y-84678045D01*
X113861654Y-84678046D01*
X113861658Y-84678050D01*
X113974696Y-84735646D01*
X113974697Y-84735646D01*
X113974699Y-84735647D01*
X114099997Y-84755492D01*
X114100000Y-84755492D01*
X114100003Y-84755492D01*
X114225300Y-84735647D01*
X114225301Y-84735647D01*
X114225302Y-84735646D01*
X114225304Y-84735646D01*
X114338342Y-84678050D01*
X114362319Y-84654072D01*
X114423640Y-84620588D01*
X114493332Y-84625572D01*
X114537680Y-84654072D01*
X114561658Y-84678050D01*
X114674696Y-84735646D01*
X114674697Y-84735646D01*
X114674699Y-84735647D01*
X114799997Y-84755492D01*
X114800000Y-84755492D01*
X114800003Y-84755492D01*
X114925300Y-84735647D01*
X114925301Y-84735647D01*
X114925302Y-84735646D01*
X114925304Y-84735646D01*
X115038342Y-84678050D01*
X115062319Y-84654072D01*
X115123640Y-84620588D01*
X115193332Y-84625572D01*
X115237680Y-84654072D01*
X115261658Y-84678050D01*
X115374696Y-84735646D01*
X115374697Y-84735646D01*
X115374699Y-84735647D01*
X115499997Y-84755492D01*
X115500000Y-84755492D01*
X115500003Y-84755492D01*
X115625300Y-84735647D01*
X115625301Y-84735647D01*
X115625302Y-84735646D01*
X115625304Y-84735646D01*
X115738342Y-84678050D01*
X115762319Y-84654072D01*
X115823640Y-84620588D01*
X115893332Y-84625572D01*
X115937680Y-84654072D01*
X115961658Y-84678050D01*
X116074696Y-84735646D01*
X116074697Y-84735646D01*
X116074699Y-84735647D01*
X116199997Y-84755492D01*
X116200000Y-84755492D01*
X116200003Y-84755492D01*
X116325300Y-84735647D01*
X116325301Y-84735647D01*
X116325302Y-84735646D01*
X116325304Y-84735646D01*
X116438342Y-84678050D01*
X116466389Y-84650003D01*
X117494508Y-84650003D01*
X117514352Y-84775300D01*
X117514352Y-84775301D01*
X117514354Y-84775304D01*
X117571950Y-84888342D01*
X117571952Y-84888344D01*
X117571954Y-84888347D01*
X117661652Y-84978045D01*
X117661654Y-84978046D01*
X117661658Y-84978050D01*
X117774696Y-85035646D01*
X117774697Y-85035646D01*
X117774699Y-85035647D01*
X117899997Y-85055492D01*
X117900000Y-85055492D01*
X117900002Y-85055492D01*
X117975036Y-85043608D01*
X118020838Y-85049527D01*
X118049268Y-85023435D01*
X118138342Y-84978050D01*
X118138347Y-84978044D01*
X118146241Y-84972311D01*
X118147136Y-84973544D01*
X118199007Y-84945215D01*
X118268699Y-84950194D01*
X118313079Y-84983411D01*
X118315049Y-84981442D01*
X118379417Y-85045810D01*
X118412902Y-85107133D01*
X118407918Y-85176825D01*
X118366046Y-85232758D01*
X118300582Y-85257175D01*
X118272339Y-85255965D01*
X118227761Y-85248904D01*
X118200000Y-85244508D01*
X118199999Y-85244508D01*
X118124961Y-85256392D01*
X118079159Y-85250472D01*
X118050729Y-85276565D01*
X117961661Y-85321947D01*
X117961652Y-85321954D01*
X117871954Y-85411652D01*
X117871951Y-85411657D01*
X117814352Y-85524698D01*
X117814352Y-85524699D01*
X117794508Y-85649996D01*
X117794508Y-85650003D01*
X117814352Y-85775300D01*
X117814352Y-85775301D01*
X117814354Y-85775304D01*
X117871950Y-85888342D01*
X117871952Y-85888344D01*
X117871954Y-85888347D01*
X117961652Y-85978045D01*
X117961654Y-85978046D01*
X117961658Y-85978050D01*
X118074696Y-86035646D01*
X118074697Y-86035646D01*
X118074699Y-86035647D01*
X118199997Y-86055492D01*
X118200000Y-86055492D01*
X118200003Y-86055492D01*
X118325300Y-86035647D01*
X118325301Y-86035647D01*
X118325302Y-86035646D01*
X118325304Y-86035646D01*
X118438342Y-85978050D01*
X118528050Y-85888342D01*
X118585646Y-85775304D01*
X118585646Y-85775302D01*
X118585647Y-85775301D01*
X118585647Y-85775300D01*
X118605492Y-85650003D01*
X118605492Y-85649996D01*
X118585647Y-85524699D01*
X118585647Y-85524698D01*
X118585646Y-85524696D01*
X118528050Y-85411658D01*
X118528046Y-85411654D01*
X118528045Y-85411652D01*
X118470582Y-85354189D01*
X118437097Y-85292866D01*
X118442081Y-85223174D01*
X118483953Y-85167241D01*
X118549417Y-85142824D01*
X118577661Y-85144035D01*
X118649998Y-85155492D01*
X118650000Y-85155492D01*
X118650003Y-85155492D01*
X118775300Y-85135647D01*
X118775301Y-85135647D01*
X118775302Y-85135646D01*
X118775304Y-85135646D01*
X118888342Y-85078050D01*
X118978050Y-84988342D01*
X119035646Y-84875304D01*
X119035646Y-84875302D01*
X119035647Y-84875301D01*
X119035647Y-84875300D01*
X119055492Y-84750003D01*
X119055492Y-84749996D01*
X119035647Y-84624699D01*
X119035647Y-84624698D01*
X119033553Y-84620588D01*
X118978050Y-84511658D01*
X118978046Y-84511654D01*
X118978045Y-84511652D01*
X118888347Y-84421954D01*
X118888344Y-84421952D01*
X118888342Y-84421950D01*
X118775304Y-84364354D01*
X118775303Y-84364353D01*
X118775300Y-84364352D01*
X118650003Y-84344508D01*
X118649997Y-84344508D01*
X118524699Y-84364352D01*
X118524698Y-84364352D01*
X118482011Y-84386103D01*
X118411658Y-84421950D01*
X118411657Y-84421951D01*
X118403759Y-84427689D01*
X118402864Y-84426457D01*
X118350972Y-84454788D01*
X118281281Y-84449798D01*
X118236922Y-84416586D01*
X118234951Y-84418558D01*
X118138347Y-84321954D01*
X118138344Y-84321952D01*
X118138342Y-84321950D01*
X118025304Y-84264354D01*
X118025303Y-84264353D01*
X118025300Y-84264352D01*
X117900003Y-84244508D01*
X117899997Y-84244508D01*
X117774699Y-84264352D01*
X117774698Y-84264352D01*
X117727607Y-84288347D01*
X117661658Y-84321950D01*
X117661657Y-84321951D01*
X117661652Y-84321954D01*
X117571954Y-84411652D01*
X117571951Y-84411657D01*
X117571950Y-84411658D01*
X117552751Y-84449337D01*
X117514352Y-84524698D01*
X117514352Y-84524699D01*
X117494508Y-84649996D01*
X117494508Y-84650003D01*
X116466389Y-84650003D01*
X116528050Y-84588342D01*
X116585646Y-84475304D01*
X116585646Y-84475302D01*
X116585647Y-84475301D01*
X116585647Y-84475300D01*
X116605492Y-84350003D01*
X116605492Y-84349996D01*
X116585647Y-84224699D01*
X116585647Y-84224698D01*
X116560479Y-84175304D01*
X116528050Y-84111658D01*
X116528046Y-84111654D01*
X116528045Y-84111652D01*
X116466396Y-84050003D01*
X121194508Y-84050003D01*
X121214352Y-84175300D01*
X121214352Y-84175301D01*
X121214354Y-84175304D01*
X121271950Y-84288342D01*
X121271952Y-84288344D01*
X121271954Y-84288347D01*
X121361652Y-84378045D01*
X121361661Y-84378052D01*
X121437460Y-84416674D01*
X121488256Y-84464648D01*
X121505051Y-84532469D01*
X121482513Y-84598604D01*
X121467434Y-84613925D01*
X121468558Y-84615049D01*
X121371954Y-84711652D01*
X121371951Y-84711657D01*
X121371950Y-84711658D01*
X121359727Y-84735647D01*
X121314352Y-84824698D01*
X121314352Y-84824699D01*
X121294508Y-84949996D01*
X121294508Y-84950003D01*
X121314352Y-85075300D01*
X121314352Y-85075301D01*
X121315752Y-85078048D01*
X121371950Y-85188342D01*
X121371952Y-85188344D01*
X121371954Y-85188347D01*
X121461652Y-85278045D01*
X121461654Y-85278046D01*
X121461658Y-85278050D01*
X121574696Y-85335646D01*
X121574697Y-85335646D01*
X121574699Y-85335647D01*
X121699997Y-85355492D01*
X121700000Y-85355492D01*
X121700003Y-85355492D01*
X121825300Y-85335647D01*
X121825301Y-85335647D01*
X121825302Y-85335646D01*
X121825304Y-85335646D01*
X121938342Y-85278050D01*
X122028050Y-85188342D01*
X122085646Y-85075304D01*
X122085646Y-85075302D01*
X122085647Y-85075301D01*
X122085647Y-85075300D01*
X122105492Y-84950003D01*
X122105492Y-84949996D01*
X122085647Y-84824699D01*
X122085647Y-84824698D01*
X122060479Y-84775304D01*
X122028050Y-84711658D01*
X122028046Y-84711654D01*
X122028045Y-84711652D01*
X121938347Y-84621954D01*
X121938343Y-84621951D01*
X121938342Y-84621950D01*
X121922592Y-84613925D01*
X121862538Y-84583325D01*
X121811743Y-84535350D01*
X121794948Y-84467529D01*
X121817486Y-84401394D01*
X121832594Y-84386103D01*
X121831442Y-84384951D01*
X121928045Y-84288347D01*
X121928050Y-84288342D01*
X121985646Y-84175304D01*
X121985646Y-84175302D01*
X121985647Y-84175301D01*
X121985647Y-84175300D01*
X122005492Y-84050003D01*
X122005492Y-84049996D01*
X121985647Y-83924699D01*
X121985647Y-83924698D01*
X121967125Y-83888347D01*
X121928050Y-83811658D01*
X121928046Y-83811654D01*
X121928045Y-83811652D01*
X121838347Y-83721954D01*
X121838344Y-83721952D01*
X121838342Y-83721950D01*
X121725304Y-83664354D01*
X121725303Y-83664353D01*
X121725300Y-83664352D01*
X121634699Y-83650003D01*
X129694508Y-83650003D01*
X129714352Y-83775300D01*
X129714352Y-83775301D01*
X129714354Y-83775304D01*
X129771950Y-83888342D01*
X129771952Y-83888344D01*
X129771954Y-83888347D01*
X129861652Y-83978045D01*
X129861654Y-83978046D01*
X129861658Y-83978050D01*
X129974696Y-84035646D01*
X129974697Y-84035646D01*
X129974699Y-84035647D01*
X130099997Y-84055492D01*
X130100000Y-84055492D01*
X130100003Y-84055492D01*
X130225300Y-84035647D01*
X130225301Y-84035647D01*
X130225302Y-84035646D01*
X130225304Y-84035646D01*
X130338342Y-83978050D01*
X130428050Y-83888342D01*
X130485646Y-83775304D01*
X130485646Y-83775302D01*
X130485647Y-83775301D01*
X130485647Y-83775300D01*
X130505492Y-83650003D01*
X130505492Y-83649996D01*
X130485647Y-83524699D01*
X130485647Y-83524698D01*
X130485646Y-83524696D01*
X130428050Y-83411658D01*
X130428046Y-83411654D01*
X130428045Y-83411652D01*
X130338347Y-83321954D01*
X130338344Y-83321952D01*
X130338342Y-83321950D01*
X130225304Y-83264354D01*
X130225303Y-83264353D01*
X130225300Y-83264352D01*
X130100003Y-83244508D01*
X130099997Y-83244508D01*
X129974699Y-83264352D01*
X129974698Y-83264352D01*
X129899337Y-83302751D01*
X129861658Y-83321950D01*
X129861657Y-83321951D01*
X129861652Y-83321954D01*
X129771954Y-83411652D01*
X129771951Y-83411657D01*
X129714352Y-83524698D01*
X129714352Y-83524699D01*
X129694508Y-83649996D01*
X129694508Y-83650003D01*
X121634699Y-83650003D01*
X121600003Y-83644508D01*
X121599997Y-83644508D01*
X121474699Y-83664352D01*
X121474698Y-83664352D01*
X121399337Y-83702751D01*
X121361658Y-83721950D01*
X121361657Y-83721951D01*
X121361652Y-83721954D01*
X121271954Y-83811652D01*
X121271951Y-83811657D01*
X121214352Y-83924698D01*
X121214352Y-83924699D01*
X121194508Y-84049996D01*
X121194508Y-84050003D01*
X116466396Y-84050003D01*
X116438347Y-84021954D01*
X116438344Y-84021952D01*
X116438342Y-84021950D01*
X116325304Y-83964354D01*
X116325303Y-83964353D01*
X116325300Y-83964352D01*
X116200003Y-83944508D01*
X116199997Y-83944508D01*
X116074699Y-83964352D01*
X116074698Y-83964352D01*
X115999337Y-84002751D01*
X115961658Y-84021950D01*
X115961657Y-84021951D01*
X115961652Y-84021954D01*
X115937681Y-84045926D01*
X115876358Y-84079411D01*
X115806666Y-84074427D01*
X115762319Y-84045926D01*
X115738347Y-84021954D01*
X115738344Y-84021952D01*
X115738342Y-84021950D01*
X115625304Y-83964354D01*
X115625303Y-83964353D01*
X115625300Y-83964352D01*
X115500003Y-83944508D01*
X115499997Y-83944508D01*
X115374699Y-83964352D01*
X115374698Y-83964352D01*
X115299337Y-84002751D01*
X115261658Y-84021950D01*
X115261657Y-84021951D01*
X115261652Y-84021954D01*
X115237681Y-84045926D01*
X115176358Y-84079411D01*
X115106666Y-84074427D01*
X115062319Y-84045926D01*
X115038347Y-84021954D01*
X115038344Y-84021952D01*
X115038342Y-84021950D01*
X114925304Y-83964354D01*
X114925303Y-83964353D01*
X114925300Y-83964352D01*
X114800003Y-83944508D01*
X114799997Y-83944508D01*
X114674699Y-83964352D01*
X114674698Y-83964352D01*
X114599337Y-84002751D01*
X114561658Y-84021950D01*
X114561657Y-84021951D01*
X114561652Y-84021954D01*
X114537681Y-84045926D01*
X114476358Y-84079411D01*
X114406666Y-84074427D01*
X114362319Y-84045926D01*
X114338347Y-84021954D01*
X114338344Y-84021952D01*
X114338342Y-84021950D01*
X114225304Y-83964354D01*
X114225303Y-83964353D01*
X114225300Y-83964352D01*
X114100003Y-83944508D01*
X114099997Y-83944508D01*
X113974699Y-83964352D01*
X113974698Y-83964352D01*
X113899337Y-84002751D01*
X113861658Y-84021950D01*
X113861657Y-84021951D01*
X113861652Y-84021954D01*
X113771954Y-84111652D01*
X113771951Y-84111657D01*
X113714352Y-84224698D01*
X113714352Y-84224699D01*
X113694508Y-84349996D01*
X113694508Y-84350003D01*
X108300500Y-84350003D01*
X108300500Y-82250003D01*
X113394508Y-82250003D01*
X113414352Y-82375300D01*
X113414352Y-82375301D01*
X113414354Y-82375304D01*
X113471950Y-82488342D01*
X113471952Y-82488344D01*
X113471954Y-82488347D01*
X113561652Y-82578045D01*
X113561654Y-82578046D01*
X113561658Y-82578050D01*
X113674696Y-82635646D01*
X113674697Y-82635646D01*
X113674699Y-82635647D01*
X113799997Y-82655492D01*
X113800000Y-82655492D01*
X113800003Y-82655492D01*
X113925300Y-82635647D01*
X113925301Y-82635647D01*
X113925302Y-82635646D01*
X113925304Y-82635646D01*
X114038342Y-82578050D01*
X114128050Y-82488342D01*
X114185646Y-82375304D01*
X114185646Y-82375302D01*
X114185647Y-82375301D01*
X114185647Y-82375300D01*
X114205492Y-82250003D01*
X116594508Y-82250003D01*
X116614352Y-82375300D01*
X116614352Y-82375301D01*
X116614354Y-82375304D01*
X116671950Y-82488342D01*
X116671952Y-82488344D01*
X116671954Y-82488347D01*
X116761652Y-82578045D01*
X116761654Y-82578046D01*
X116761658Y-82578050D01*
X116874696Y-82635646D01*
X116874697Y-82635646D01*
X116874699Y-82635647D01*
X116999997Y-82655492D01*
X117000000Y-82655492D01*
X117000003Y-82655492D01*
X117125300Y-82635647D01*
X117125301Y-82635647D01*
X117125302Y-82635646D01*
X117125304Y-82635646D01*
X117238342Y-82578050D01*
X117328050Y-82488342D01*
X117385646Y-82375304D01*
X117385646Y-82375302D01*
X117385647Y-82375301D01*
X117385647Y-82375300D01*
X117405492Y-82250003D01*
X117405492Y-82249996D01*
X117385647Y-82124699D01*
X117385647Y-82124698D01*
X117385646Y-82124696D01*
X117328050Y-82011658D01*
X117328046Y-82011654D01*
X117328045Y-82011652D01*
X117238347Y-81921954D01*
X117238344Y-81921952D01*
X117238342Y-81921950D01*
X117125304Y-81864354D01*
X117125303Y-81864353D01*
X117125300Y-81864352D01*
X117000003Y-81844508D01*
X116999997Y-81844508D01*
X116874699Y-81864352D01*
X116874698Y-81864352D01*
X116827607Y-81888347D01*
X116761658Y-81921950D01*
X116761657Y-81921951D01*
X116761652Y-81921954D01*
X116671954Y-82011652D01*
X116671951Y-82011657D01*
X116671950Y-82011658D01*
X116659727Y-82035647D01*
X116614352Y-82124698D01*
X116614352Y-82124699D01*
X116594508Y-82249996D01*
X116594508Y-82250003D01*
X114205492Y-82250003D01*
X114205492Y-82249996D01*
X114185647Y-82124699D01*
X114185647Y-82124698D01*
X114185646Y-82124696D01*
X114128050Y-82011658D01*
X114128046Y-82011654D01*
X114128045Y-82011652D01*
X114038347Y-81921954D01*
X114038344Y-81921952D01*
X114038342Y-81921950D01*
X113925304Y-81864354D01*
X113925303Y-81864353D01*
X113925300Y-81864352D01*
X113800003Y-81844508D01*
X113799997Y-81844508D01*
X113674699Y-81864352D01*
X113674698Y-81864352D01*
X113627607Y-81888347D01*
X113561658Y-81921950D01*
X113561657Y-81921951D01*
X113561652Y-81921954D01*
X113471954Y-82011652D01*
X113471951Y-82011657D01*
X113471950Y-82011658D01*
X113459727Y-82035647D01*
X113414352Y-82124698D01*
X113414352Y-82124699D01*
X113394508Y-82249996D01*
X113394508Y-82250003D01*
X108300500Y-82250003D01*
X108300500Y-81650003D01*
X125494508Y-81650003D01*
X125514352Y-81775300D01*
X125514352Y-81775301D01*
X125514354Y-81775304D01*
X125571950Y-81888342D01*
X125571952Y-81888344D01*
X125571954Y-81888347D01*
X125661652Y-81978045D01*
X125661654Y-81978046D01*
X125661658Y-81978050D01*
X125774696Y-82035646D01*
X125774697Y-82035646D01*
X125774699Y-82035647D01*
X125899997Y-82055492D01*
X125900000Y-82055492D01*
X125900003Y-82055492D01*
X126025300Y-82035647D01*
X126025301Y-82035647D01*
X126025302Y-82035646D01*
X126025304Y-82035646D01*
X126138342Y-81978050D01*
X126228050Y-81888342D01*
X126285646Y-81775304D01*
X126285646Y-81775302D01*
X126285647Y-81775301D01*
X126285647Y-81775300D01*
X126305492Y-81650003D01*
X126305492Y-81649996D01*
X126285647Y-81524699D01*
X126285647Y-81524698D01*
X126285646Y-81524696D01*
X126228050Y-81411658D01*
X126228046Y-81411654D01*
X126228045Y-81411652D01*
X126138347Y-81321954D01*
X126138344Y-81321952D01*
X126138342Y-81321950D01*
X126025304Y-81264354D01*
X126025303Y-81264353D01*
X126025300Y-81264352D01*
X125900003Y-81244508D01*
X125899997Y-81244508D01*
X125774699Y-81264352D01*
X125774698Y-81264352D01*
X125699337Y-81302751D01*
X125661658Y-81321950D01*
X125661657Y-81321951D01*
X125661652Y-81321954D01*
X125571954Y-81411652D01*
X125571951Y-81411657D01*
X125514352Y-81524698D01*
X125514352Y-81524699D01*
X125494508Y-81649996D01*
X125494508Y-81650003D01*
X108300500Y-81650003D01*
X108300500Y-79750003D01*
X113194508Y-79750003D01*
X113214352Y-79875300D01*
X113214352Y-79875301D01*
X113214354Y-79875304D01*
X113271950Y-79988342D01*
X113271952Y-79988344D01*
X113271954Y-79988347D01*
X113361652Y-80078045D01*
X113361654Y-80078046D01*
X113361658Y-80078050D01*
X113474696Y-80135646D01*
X113474697Y-80135646D01*
X113474699Y-80135647D01*
X113599997Y-80155492D01*
X113600000Y-80155492D01*
X113600003Y-80155492D01*
X113725300Y-80135647D01*
X113725301Y-80135647D01*
X113725302Y-80135646D01*
X113725304Y-80135646D01*
X113838342Y-80078050D01*
X113928050Y-79988342D01*
X113985646Y-79875304D01*
X113985646Y-79875302D01*
X113985647Y-79875301D01*
X113985647Y-79875300D01*
X114005492Y-79750003D01*
X114005492Y-79749996D01*
X113985647Y-79624699D01*
X113985647Y-79624698D01*
X113985646Y-79624696D01*
X113928050Y-79511658D01*
X113928046Y-79511654D01*
X113928045Y-79511652D01*
X113838347Y-79421954D01*
X113838344Y-79421952D01*
X113838342Y-79421950D01*
X113725304Y-79364354D01*
X113725303Y-79364353D01*
X113725300Y-79364352D01*
X113600003Y-79344508D01*
X113599997Y-79344508D01*
X113474699Y-79364352D01*
X113474698Y-79364352D01*
X113427607Y-79388347D01*
X113361658Y-79421950D01*
X113361657Y-79421951D01*
X113361652Y-79421954D01*
X113271954Y-79511652D01*
X113271951Y-79511657D01*
X113271950Y-79511658D01*
X113259727Y-79535647D01*
X113214352Y-79624698D01*
X113214352Y-79624699D01*
X113194508Y-79749996D01*
X113194508Y-79750003D01*
X108300500Y-79750003D01*
X108300500Y-79150003D01*
X118494508Y-79150003D01*
X118514352Y-79275300D01*
X118514352Y-79275301D01*
X118514354Y-79275304D01*
X118571950Y-79388342D01*
X118571952Y-79388344D01*
X118571954Y-79388347D01*
X118661652Y-79478045D01*
X118661654Y-79478046D01*
X118661658Y-79478050D01*
X118774696Y-79535646D01*
X118774697Y-79535646D01*
X118774699Y-79535647D01*
X118899997Y-79555492D01*
X118900000Y-79555492D01*
X118900003Y-79555492D01*
X119025300Y-79535647D01*
X119025301Y-79535647D01*
X119025302Y-79535646D01*
X119025304Y-79535646D01*
X119138342Y-79478050D01*
X119228050Y-79388342D01*
X119285646Y-79275304D01*
X119285646Y-79275302D01*
X119285647Y-79275301D01*
X119285647Y-79275300D01*
X119305492Y-79150003D01*
X119305492Y-79149996D01*
X119285647Y-79024699D01*
X119285647Y-79024698D01*
X119285646Y-79024696D01*
X119228050Y-78911658D01*
X119228046Y-78911654D01*
X119228045Y-78911652D01*
X119138347Y-78821954D01*
X119138344Y-78821952D01*
X119138342Y-78821950D01*
X119025304Y-78764354D01*
X119025303Y-78764353D01*
X119025300Y-78764352D01*
X118900003Y-78744508D01*
X118899997Y-78744508D01*
X118774699Y-78764352D01*
X118774698Y-78764352D01*
X118703758Y-78800499D01*
X118661658Y-78821950D01*
X118661657Y-78821951D01*
X118661652Y-78821954D01*
X118571954Y-78911652D01*
X118571951Y-78911657D01*
X118514352Y-79024698D01*
X118514352Y-79024699D01*
X118494508Y-79149996D01*
X118494508Y-79150003D01*
X108300500Y-79150003D01*
X108300500Y-78924500D01*
X108320185Y-78857461D01*
X108372989Y-78811706D01*
X108424500Y-78800500D01*
X108767658Y-78800500D01*
X108767660Y-78800500D01*
X108767662Y-78800499D01*
X108767666Y-78800499D01*
X108899580Y-78770391D01*
X108899580Y-78770390D01*
X108899588Y-78770389D01*
X109020251Y-78712279D01*
X109074052Y-78700000D01*
X109200000Y-78700000D01*
X109200000Y-78574051D01*
X109212278Y-78520253D01*
X109270389Y-78399588D01*
X109276527Y-78372695D01*
X109300499Y-78267666D01*
X109300500Y-78267658D01*
X109300500Y-75424500D01*
X109320185Y-75357461D01*
X109372989Y-75311706D01*
X109424500Y-75300500D01*
X115826000Y-75300500D01*
X115893039Y-75320185D01*
G37*
%TD.AperFunction*%
%TD*%
M02*
