%TF.GenerationSoftware,KiCad,Pcbnew,7.0.8*%
%TF.CreationDate,2024-04-11T01:14:03+02:00*%
%TF.ProjectId,Expansion_Card_Retrofit,45787061-6e73-4696-9f6e-5f436172645f,X1*%
%TF.SameCoordinates,Original*%
%TF.FileFunction,Paste,Bot*%
%TF.FilePolarity,Positive*%
%FSLAX46Y46*%
G04 Gerber Fmt 4.6, Leading zero omitted, Abs format (unit mm)*
G04 Created by KiCad (PCBNEW 7.0.8) date 2024-04-11 01:14:03*
%MOMM*%
%LPD*%
G01*
G04 APERTURE LIST*
G04 Aperture macros list*
%AMRoundRect*
0 Rectangle with rounded corners*
0 $1 Rounding radius*
0 $2 $3 $4 $5 $6 $7 $8 $9 X,Y pos of 4 corners*
0 Add a 4 corners polygon primitive as box body*
4,1,4,$2,$3,$4,$5,$6,$7,$8,$9,$2,$3,0*
0 Add four circle primitives for the rounded corners*
1,1,$1+$1,$2,$3*
1,1,$1+$1,$4,$5*
1,1,$1+$1,$6,$7*
1,1,$1+$1,$8,$9*
0 Add four rect primitives between the rounded corners*
20,1,$1+$1,$2,$3,$4,$5,0*
20,1,$1+$1,$4,$5,$6,$7,0*
20,1,$1+$1,$6,$7,$8,$9,0*
20,1,$1+$1,$8,$9,$2,$3,0*%
G04 Aperture macros list end*
%ADD10RoundRect,0.250000X0.250000X1.000000X-0.250000X1.000000X-0.250000X-1.000000X0.250000X-1.000000X0*%
%ADD11RoundRect,0.250000X-0.250000X-1.000000X0.250000X-1.000000X0.250000X1.000000X-0.250000X1.000000X0*%
%ADD12R,0.700000X1.150000*%
%ADD13R,0.380000X1.000000*%
G04 APERTURE END LIST*
D10*
%TO.C,J1*%
X141020000Y-116025000D03*
X143560000Y-116025000D03*
X146100000Y-116025000D03*
X148640000Y-116025000D03*
X151180000Y-116025000D03*
%TD*%
%TO.C,J1*%
X123180000Y-116025000D03*
X120640000Y-116025000D03*
X118100000Y-116025000D03*
X115560000Y-116025000D03*
X113020000Y-116025000D03*
%TD*%
D11*
%TO.C,J1*%
X146820000Y-94975000D03*
X149360000Y-94975000D03*
X151900000Y-94975000D03*
X154440000Y-94975000D03*
X156980000Y-94975000D03*
%TD*%
%TO.C,J1*%
X118820000Y-94975000D03*
X121360000Y-94975000D03*
X123900000Y-94975000D03*
X126440000Y-94975000D03*
X128980000Y-94975000D03*
%TD*%
D12*
%TO.C,P1*%
X145580000Y-133120000D03*
D13*
X151750000Y-133960000D03*
X151250000Y-133960000D03*
X150750000Y-133960000D03*
X150250000Y-133960000D03*
X149750000Y-133960000D03*
X148250000Y-133960000D03*
X147750000Y-133960000D03*
X147250000Y-133960000D03*
X146750000Y-133960000D03*
X146250000Y-133960000D03*
%TD*%
%TO.C,P1*%
X118250000Y-133960000D03*
X118750000Y-133960000D03*
X119250000Y-133960000D03*
X119750000Y-133960000D03*
X120250000Y-133960000D03*
X121750000Y-133960000D03*
X122250000Y-133960000D03*
X122750000Y-133960000D03*
X123250000Y-133960000D03*
X123750000Y-133960000D03*
D12*
X117580000Y-133120000D03*
%TD*%
D13*
%TO.C,P1*%
X151750000Y-77040000D03*
X151250000Y-77040000D03*
X150750000Y-77040000D03*
X150250000Y-77040000D03*
X149750000Y-77040000D03*
X148250000Y-77040000D03*
X147750000Y-77040000D03*
X147250000Y-77040000D03*
X146750000Y-77040000D03*
X146250000Y-77040000D03*
D12*
X152420000Y-77880000D03*
%TD*%
%TO.C,P1*%
X124420000Y-77880000D03*
D13*
X118250000Y-77040000D03*
X118750000Y-77040000D03*
X119250000Y-77040000D03*
X119750000Y-77040000D03*
X120250000Y-77040000D03*
X121750000Y-77040000D03*
X122250000Y-77040000D03*
X122750000Y-77040000D03*
X123250000Y-77040000D03*
X123750000Y-77040000D03*
%TD*%
M02*
