M48
; DRILL file {KiCad 7.0.8} date 2024 April 11, Thursday 01:14:03
; FORMAT={-:-/ absolute / inch / decimal}
; #@! TF.CreationDate,2024-04-11T01:14:03+02:00
; #@! TF.GenerationSoftware,Kicad,Pcbnew,7.0.8
; #@! TF.FileFunction,NonPlated,1,4,NPTH
FMAT,2
INCH
; #@! TA.AperFunction,NonPlated,NPTH,ComponentDrill
T1C0.0236
; #@! TA.AperFunction,NonPlated,NPTH,ComponentDrill
T2C0.0866
%
G90
G05
T1
X4.1654Y-3.1496
X4.1654Y-3.185
X4.1654Y-3.2205
X4.1654Y-3.2559
X4.1654Y-3.8583
X4.1654Y-3.8937
X4.1654Y-3.9291
X4.1654Y-3.9646
X4.1654Y-4.3307
X4.1654Y-4.3661
X4.1654Y-4.4016
X4.1654Y-4.437
X4.1654Y-5.0394
X4.1654Y-5.0748
X4.1654Y-5.1102
X4.1654Y-5.1457
X4.2598Y-3.1496
X4.2598Y-3.185
X4.2598Y-3.2205
X4.2598Y-3.2559
X4.2598Y-3.8583
X4.2598Y-3.8937
X4.2598Y-3.9291
X4.2598Y-3.9646
X4.2598Y-4.3307
X4.2598Y-4.3661
X4.2598Y-4.4016
X4.2598Y-4.437
X4.2598Y-5.0394
X4.2598Y-5.0748
X4.2598Y-5.1102
X4.2598Y-5.1457
X4.3701Y-2.8661
X4.3701Y-2.9606
X4.3701Y-5.3465
X4.3701Y-5.4409
X4.4055Y-2.8661
X4.4055Y-2.9606
X4.4055Y-5.3465
X4.4055Y-5.4409
X4.4409Y-2.8661
X4.4409Y-2.9606
X4.4409Y-5.3465
X4.4409Y-5.4409
X4.4764Y-2.8661
X4.4764Y-2.9606
X4.4764Y-5.3465
X4.4764Y-5.4409
X5.0512Y-2.8661
X5.0512Y-2.9606
X5.0512Y-5.3465
X5.0512Y-5.4409
X5.0866Y-2.8661
X5.0866Y-2.9606
X5.0866Y-5.3465
X5.0866Y-5.4409
X5.122Y-2.8661
X5.122Y-2.9606
X5.122Y-5.3465
X5.122Y-5.4409
X5.1575Y-2.8661
X5.1575Y-2.9606
X5.1575Y-5.3465
X5.1575Y-5.4409
X5.2441Y-4.126
X5.2441Y-4.1811
X5.2677Y-3.1299
X5.2677Y-3.1654
X5.2677Y-3.2008
X5.2677Y-3.2362
X5.2677Y-3.8583
X5.2677Y-3.8937
X5.2677Y-3.9291
X5.2677Y-3.9646
X5.2677Y-4.1024
X5.2677Y-4.2047
X5.2677Y-4.3425
X5.2677Y-4.378
X5.2677Y-4.4134
X5.2677Y-4.4488
X5.2677Y-5.0591
X5.2677Y-5.0945
X5.2677Y-5.1299
X5.2677Y-5.1654
X5.3622Y-3.1299
X5.3622Y-3.1654
X5.3622Y-3.2008
X5.3622Y-3.2362
X5.3622Y-3.8583
X5.3622Y-3.8937
X5.3622Y-3.9291
X5.3622Y-3.9646
X5.3622Y-4.1024
X5.3622Y-4.2047
X5.3622Y-4.3425
X5.3622Y-4.378
X5.3622Y-4.4134
X5.3622Y-4.4488
X5.3622Y-5.0591
X5.3622Y-5.0945
X5.3622Y-5.1299
X5.3622Y-5.1654
X5.3858Y-4.126
X5.3858Y-4.1811
X5.4724Y-2.8661
X5.4724Y-2.9606
X5.4724Y-5.3465
X5.4724Y-5.4409
X5.5079Y-2.8661
X5.5079Y-2.9606
X5.5079Y-5.3465
X5.5079Y-5.4409
X5.5433Y-2.8661
X5.5433Y-2.9606
X5.5433Y-5.3465
X5.5433Y-5.4409
X5.5787Y-2.8661
X5.5787Y-2.9606
X5.5787Y-5.3465
X5.5787Y-5.4409
X6.1535Y-2.8661
X6.1535Y-2.9606
X6.1535Y-5.3465
X6.1535Y-5.4409
X6.189Y-2.8661
X6.189Y-2.9606
X6.189Y-5.3465
X6.189Y-5.4409
X6.2244Y-2.8661
X6.2244Y-2.9606
X6.2244Y-5.3465
X6.2244Y-5.4409
X6.2598Y-2.8661
X6.2598Y-2.9606
X6.2598Y-5.3465
X6.2598Y-5.4409
X6.3701Y-3.1496
X6.3701Y-3.185
X6.3701Y-3.2205
X6.3701Y-3.2559
X6.3701Y-3.8583
X6.3701Y-3.8937
X6.3701Y-3.9291
X6.3701Y-3.9646
X6.3701Y-4.3307
X6.3701Y-4.3661
X6.3701Y-4.4016
X6.3701Y-4.437
X6.3701Y-5.0394
X6.3701Y-5.0748
X6.3701Y-5.1102
X6.3701Y-5.1457
X6.4646Y-3.1496
X6.4646Y-3.185
X6.4646Y-3.2205
X6.4646Y-3.2559
X6.4646Y-3.8583
X6.4646Y-3.8937
X6.4646Y-3.9291
X6.4646Y-3.9646
X6.4646Y-4.3307
X6.4646Y-4.3661
X6.4646Y-4.4016
X6.4646Y-4.437
X6.4646Y-5.0394
X6.4646Y-5.0748
X6.4646Y-5.1102
X6.4646Y-5.1457
T2
X4.3189Y-3.7205
X4.3189Y-4.5866
X5.2087Y-3.7205
X5.2087Y-4.5866
X5.4213Y-3.7205
X5.4213Y-4.5866
X6.311Y-3.7205
X6.311Y-4.5866
T0
M30
