%TF.GenerationSoftware,KiCad,Pcbnew,7.0.8*%
%TF.CreationDate,2024-04-11T03:43:44+02:00*%
%TF.ProjectId,Expansion_Card_Retrofit,45787061-6e73-4696-9f6e-5f436172645f,X1*%
%TF.SameCoordinates,Original*%
%TF.FileFunction,Copper,L3,Inr*%
%TF.FilePolarity,Positive*%
%FSLAX46Y46*%
G04 Gerber Fmt 4.6, Leading zero omitted, Abs format (unit mm)*
G04 Created by KiCad (PCBNEW 7.0.8) date 2024-04-11 03:43:44*
%MOMM*%
%LPD*%
G01*
G04 APERTURE LIST*
%TA.AperFunction,ViaPad*%
%ADD10C,0.400000*%
%TD*%
G04 APERTURE END LIST*
D10*
%TO.N,GND*%
X123700000Y-86650000D03*
X130700000Y-79450000D03*
X126000000Y-80950000D03*
X118598610Y-88650000D03*
X126100000Y-88950000D03*
%TO.N,Net-(R2-Pad1)*%
X115300000Y-97350000D03*
%TO.N,GND*%
X116000000Y-88750000D03*
X126000000Y-92150000D03*
%TO.N,Net-(U4-RUN)*%
X127800000Y-90950000D03*
%TO.N,GND*%
X121100000Y-79250000D03*
X113900000Y-86750000D03*
X122800000Y-89850000D03*
%TO.N,SWCLK*%
X121700000Y-84950000D03*
%TO.N,GND*%
X113900000Y-85100000D03*
%TO.N,+3V3*%
X121600000Y-87650000D03*
%TO.N,GND*%
X115500000Y-80150000D03*
%TO.N,VBUS*%
X117890000Y-93290000D03*
%TO.N,+3V3*%
X130100000Y-83650000D03*
X121279954Y-91608107D03*
%TO.N,GND*%
X125200000Y-95750000D03*
X129100000Y-91250000D03*
%TO.N,+3V3*%
X117000000Y-82250000D03*
%TO.N,GND*%
X126000000Y-79850000D03*
%TO.N,GPIO_ADC1*%
X123900000Y-92250000D03*
%TO.N,GND*%
X127700000Y-95750000D03*
%TO.N,+3V3*%
X113600000Y-79750000D03*
X125900000Y-81650000D03*
%TO.N,/Development Board Section/RUN*%
X113500000Y-92200000D03*
%TO.N,LED_EN*%
X116200000Y-84350000D03*
%TO.N,GPIO4*%
X115600000Y-91050000D03*
%TO.N,GPIO5*%
X116300000Y-91050000D03*
%TO.N,+3V3*%
X111600000Y-86050000D03*
%TO.N,GPIO2*%
X114450000Y-91250000D03*
%TO.N,GPIO_ADC0*%
X115500000Y-84350000D03*
%TO.N,/Development Board Section/GPIO_ADC3*%
X114100000Y-84350000D03*
%TO.N,GPIO_ADC1*%
X114800000Y-84350000D03*
%TO.N,/Development Board Section/RUN*%
X118650000Y-84750000D03*
%TO.N,+3V3*%
X116999830Y-90756306D03*
%TO.N,SWDIO*%
X117900000Y-84650000D03*
%TO.N,LED_EN*%
X132500000Y-100750000D03*
%TO.N,+3V3*%
X113800000Y-82250000D03*
X130400000Y-87650000D03*
%TO.N,GND*%
X114000000Y-78450000D03*
%TO.N,SWCLK*%
X115700000Y-93000000D03*
%TO.N,+3V3*%
X112400000Y-97025000D03*
%TO.N,GND*%
X121500000Y-88850000D03*
%TO.N,+3V3*%
X113574500Y-89250000D03*
%TO.N,GND*%
X115500000Y-81450000D03*
%TO.N,VBUS*%
X118900000Y-79150000D03*
%TO.N,/Development Board Section/GPIO_ADC3*%
X121200000Y-90750000D03*
%TO.N,GND*%
X128500000Y-79450000D03*
%TO.N,+3V3*%
X116600000Y-95750000D03*
%TO.N,GND*%
X121600000Y-86950000D03*
X120100000Y-95750000D03*
%TO.N,+3V3*%
X126200000Y-90975500D03*
%TO.N,SWCLK*%
X118200000Y-85650000D03*
%TO.N,GPIO3*%
X115000000Y-91700000D03*
%TO.N,GND*%
X122700000Y-95750000D03*
X123700000Y-88950000D03*
X130500000Y-84550000D03*
X123700000Y-84350000D03*
X125400000Y-84350000D03*
%TO.N,+3V3*%
X121600000Y-84050000D03*
X119719500Y-95000000D03*
%TO.N,GPIO_ADC0*%
X124900000Y-92650000D03*
%TO.N,SWDIO*%
X115100000Y-94000000D03*
%TD*%
%TA.AperFunction,Conductor*%
%TO.N,+3V3*%
G36*
X115893039Y-75320185D02*
G01*
X115938794Y-75372989D01*
X115950000Y-75424500D01*
X115950000Y-77200000D01*
X116225948Y-77200000D01*
X116279748Y-77212279D01*
X116400412Y-77270389D01*
X116400416Y-77270390D01*
X116400419Y-77270391D01*
X116532333Y-77300499D01*
X116532338Y-77300499D01*
X116532340Y-77300500D01*
X116532342Y-77300500D01*
X117717658Y-77300500D01*
X117717660Y-77300500D01*
X117717662Y-77300499D01*
X117717666Y-77300499D01*
X117849580Y-77270391D01*
X117849580Y-77270390D01*
X117849588Y-77270389D01*
X117970251Y-77212279D01*
X118024052Y-77200000D01*
X118200000Y-77200000D01*
X118200000Y-76970227D01*
X118212279Y-76916428D01*
X118220389Y-76899588D01*
X118250500Y-76767660D01*
X118250500Y-76700000D01*
X118250500Y-76652405D01*
X118250500Y-76464500D01*
X118270185Y-76397461D01*
X118322989Y-76351706D01*
X118374500Y-76340500D01*
X123576000Y-76340500D01*
X123643039Y-76360185D01*
X123688794Y-76412989D01*
X123700000Y-76464500D01*
X123700000Y-77200000D01*
X123975948Y-77200000D01*
X124029748Y-77212279D01*
X124150412Y-77270389D01*
X124150416Y-77270390D01*
X124150419Y-77270391D01*
X124282333Y-77300499D01*
X124282338Y-77300499D01*
X124282340Y-77300500D01*
X124282342Y-77300500D01*
X125467658Y-77300500D01*
X125467660Y-77300500D01*
X125467662Y-77300499D01*
X125467666Y-77300499D01*
X125599580Y-77270391D01*
X125599580Y-77270390D01*
X125599588Y-77270389D01*
X125720251Y-77212279D01*
X125774052Y-77200000D01*
X125950000Y-77200000D01*
X125950000Y-76970227D01*
X125962279Y-76916428D01*
X125970389Y-76899588D01*
X126000500Y-76767660D01*
X126000500Y-76700000D01*
X126000500Y-76652405D01*
X126000500Y-75424500D01*
X126020185Y-75357461D01*
X126072989Y-75311706D01*
X126124500Y-75300500D01*
X132575500Y-75300500D01*
X132642539Y-75320185D01*
X132688294Y-75372989D01*
X132699500Y-75424500D01*
X132699500Y-78267656D01*
X132699610Y-78268632D01*
X132700000Y-78275582D01*
X132700000Y-78700000D01*
X132925948Y-78700000D01*
X132979748Y-78712279D01*
X133100412Y-78770389D01*
X133100416Y-78770390D01*
X133100419Y-78770391D01*
X133232333Y-78800499D01*
X133232338Y-78800499D01*
X133232340Y-78800500D01*
X133243827Y-78800500D01*
X133575500Y-78800500D01*
X133642539Y-78820185D01*
X133688294Y-78872989D01*
X133699500Y-78924500D01*
X133699500Y-93751632D01*
X133679815Y-93818671D01*
X133627011Y-93864426D01*
X133557853Y-93874370D01*
X133494297Y-93845345D01*
X133469910Y-93816646D01*
X133451814Y-93787257D01*
X133392951Y-93691657D01*
X133240620Y-93518575D01*
X133240619Y-93518574D01*
X133240615Y-93518570D01*
X133061234Y-93373730D01*
X133061233Y-93373729D01*
X132859938Y-93261279D01*
X132642541Y-93184468D01*
X132642540Y-93184467D01*
X132642538Y-93184467D01*
X132642534Y-93184466D01*
X132642533Y-93184466D01*
X132415293Y-93145500D01*
X132415285Y-93145500D01*
X132242465Y-93145500D01*
X132242460Y-93145500D01*
X132070265Y-93160155D01*
X131847131Y-93218254D01*
X131637034Y-93313223D01*
X131637032Y-93313224D01*
X131445999Y-93442342D01*
X131279540Y-93601878D01*
X131142434Y-93787257D01*
X131038630Y-93993138D01*
X130971113Y-94213606D01*
X130941828Y-94442306D01*
X130951613Y-94672662D01*
X130951614Y-94672670D01*
X131000190Y-94898062D01*
X131000190Y-94898063D01*
X131086157Y-95112002D01*
X131086159Y-95112006D01*
X131130089Y-95183353D01*
X131207048Y-95308342D01*
X131359380Y-95481425D01*
X131359384Y-95481429D01*
X131538765Y-95626269D01*
X131538766Y-95626270D01*
X131538769Y-95626271D01*
X131538772Y-95626274D01*
X131740063Y-95738721D01*
X131957462Y-95815533D01*
X132084272Y-95837277D01*
X132184706Y-95854499D01*
X132184715Y-95854500D01*
X132357540Y-95854500D01*
X132529734Y-95839844D01*
X132529737Y-95839843D01*
X132529739Y-95839843D01*
X132752869Y-95781745D01*
X132881229Y-95723722D01*
X132962965Y-95686776D01*
X132962967Y-95686775D01*
X132962967Y-95686774D01*
X132962971Y-95686773D01*
X133154000Y-95557659D01*
X133320462Y-95398119D01*
X133457566Y-95212742D01*
X133464777Y-95198437D01*
X133512535Y-95147440D01*
X133580284Y-95130356D01*
X133646514Y-95152613D01*
X133690198Y-95207142D01*
X133699500Y-95254264D01*
X133699500Y-104575500D01*
X133679815Y-104642539D01*
X133627011Y-104688294D01*
X133575500Y-104699500D01*
X131124500Y-104699500D01*
X131057461Y-104679815D01*
X131011706Y-104627011D01*
X131000500Y-104575500D01*
X131000500Y-100750003D01*
X132094508Y-100750003D01*
X132114352Y-100875300D01*
X132114352Y-100875301D01*
X132114354Y-100875304D01*
X132171950Y-100988342D01*
X132171952Y-100988344D01*
X132171954Y-100988347D01*
X132261652Y-101078045D01*
X132261654Y-101078046D01*
X132261658Y-101078050D01*
X132374696Y-101135646D01*
X132374697Y-101135646D01*
X132374699Y-101135647D01*
X132499997Y-101155492D01*
X132500000Y-101155492D01*
X132500003Y-101155492D01*
X132625300Y-101135647D01*
X132625301Y-101135647D01*
X132625302Y-101135646D01*
X132625304Y-101135646D01*
X132738342Y-101078050D01*
X132828050Y-100988342D01*
X132885646Y-100875304D01*
X132885646Y-100875302D01*
X132885647Y-100875301D01*
X132885647Y-100875300D01*
X132905492Y-100750003D01*
X132905492Y-100749996D01*
X132885647Y-100624699D01*
X132885647Y-100624698D01*
X132885646Y-100624696D01*
X132828050Y-100511658D01*
X132828046Y-100511654D01*
X132828045Y-100511652D01*
X132738347Y-100421954D01*
X132738344Y-100421952D01*
X132738342Y-100421950D01*
X132625304Y-100364354D01*
X132625303Y-100364353D01*
X132625300Y-100364352D01*
X132500003Y-100344508D01*
X132499997Y-100344508D01*
X132374699Y-100364352D01*
X132374698Y-100364352D01*
X132299337Y-100402751D01*
X132261658Y-100421950D01*
X132261657Y-100421951D01*
X132261652Y-100421954D01*
X132171954Y-100511652D01*
X132171951Y-100511657D01*
X132114352Y-100624698D01*
X132114352Y-100624699D01*
X132094508Y-100749996D01*
X132094508Y-100750003D01*
X131000500Y-100750003D01*
X131000500Y-96969583D01*
X131000481Y-96969183D01*
X131000485Y-96935057D01*
X131000484Y-96935052D01*
X130975397Y-96825097D01*
X130975397Y-96825095D01*
X130926467Y-96723473D01*
X130912403Y-96705835D01*
X130856154Y-96635291D01*
X130856149Y-96635286D01*
X130767969Y-96564959D01*
X130666354Y-96516021D01*
X130666350Y-96516020D01*
X130653962Y-96513192D01*
X130556394Y-96490921D01*
X130556391Y-96490921D01*
X117351383Y-96490921D01*
X117351311Y-96490900D01*
X117300000Y-96490900D01*
X117243603Y-96490900D01*
X117174672Y-96506634D01*
X117133641Y-96516000D01*
X117133638Y-96516001D01*
X117032019Y-96564941D01*
X116943835Y-96635271D01*
X116943834Y-96635273D01*
X116873514Y-96723462D01*
X116824583Y-96825087D01*
X116824583Y-96825088D01*
X116799494Y-96935052D01*
X116799493Y-96935056D01*
X116799500Y-96991081D01*
X116799500Y-104575500D01*
X116779815Y-104642539D01*
X116727011Y-104688294D01*
X116675500Y-104699500D01*
X108424500Y-104699500D01*
X108357461Y-104679815D01*
X108311706Y-104627011D01*
X108300500Y-104575500D01*
X108300500Y-97350003D01*
X114894508Y-97350003D01*
X114914352Y-97475300D01*
X114914352Y-97475301D01*
X114914354Y-97475304D01*
X114971950Y-97588342D01*
X114971952Y-97588344D01*
X114971954Y-97588347D01*
X115061652Y-97678045D01*
X115061654Y-97678046D01*
X115061658Y-97678050D01*
X115174696Y-97735646D01*
X115174697Y-97735646D01*
X115174699Y-97735647D01*
X115299997Y-97755492D01*
X115300000Y-97755492D01*
X115300003Y-97755492D01*
X115425300Y-97735647D01*
X115425301Y-97735647D01*
X115425302Y-97735646D01*
X115425304Y-97735646D01*
X115538342Y-97678050D01*
X115628050Y-97588342D01*
X115685646Y-97475304D01*
X115685646Y-97475302D01*
X115685647Y-97475301D01*
X115685647Y-97475300D01*
X115705492Y-97350003D01*
X115705492Y-97349996D01*
X115685647Y-97224699D01*
X115685647Y-97224698D01*
X115685646Y-97224696D01*
X115628050Y-97111658D01*
X115628046Y-97111654D01*
X115628045Y-97111652D01*
X115538347Y-97021954D01*
X115538344Y-97021952D01*
X115538342Y-97021950D01*
X115425304Y-96964354D01*
X115425303Y-96964353D01*
X115425300Y-96964352D01*
X115300003Y-96944508D01*
X115299997Y-96944508D01*
X115174699Y-96964352D01*
X115174698Y-96964352D01*
X115099337Y-97002751D01*
X115061658Y-97021950D01*
X115061657Y-97021951D01*
X115061652Y-97021954D01*
X114971954Y-97111652D01*
X114971951Y-97111657D01*
X114914352Y-97224698D01*
X114914352Y-97224699D01*
X114894508Y-97349996D01*
X114894508Y-97350003D01*
X108300500Y-97350003D01*
X108300500Y-95248367D01*
X108320185Y-95181328D01*
X108372989Y-95135573D01*
X108442147Y-95125629D01*
X108505703Y-95154654D01*
X108530087Y-95183349D01*
X108544737Y-95207142D01*
X108607048Y-95308342D01*
X108759380Y-95481425D01*
X108759384Y-95481429D01*
X108938765Y-95626269D01*
X108938766Y-95626270D01*
X108938769Y-95626271D01*
X108938772Y-95626274D01*
X109140063Y-95738721D01*
X109357462Y-95815533D01*
X109484272Y-95837277D01*
X109584706Y-95854499D01*
X109584715Y-95854500D01*
X109757540Y-95854500D01*
X109929734Y-95839844D01*
X109929737Y-95839843D01*
X109929739Y-95839843D01*
X110152869Y-95781745D01*
X110223089Y-95750003D01*
X119694508Y-95750003D01*
X119714352Y-95875300D01*
X119714352Y-95875301D01*
X119714354Y-95875304D01*
X119771950Y-95988342D01*
X119771952Y-95988344D01*
X119771954Y-95988347D01*
X119861652Y-96078045D01*
X119861654Y-96078046D01*
X119861658Y-96078050D01*
X119974696Y-96135646D01*
X119974697Y-96135646D01*
X119974699Y-96135647D01*
X120099997Y-96155492D01*
X120100000Y-96155492D01*
X120100003Y-96155492D01*
X120225300Y-96135647D01*
X120225301Y-96135647D01*
X120225302Y-96135646D01*
X120225304Y-96135646D01*
X120338342Y-96078050D01*
X120428050Y-95988342D01*
X120485646Y-95875304D01*
X120485646Y-95875302D01*
X120485647Y-95875301D01*
X120485647Y-95875300D01*
X120505492Y-95750003D01*
X122294508Y-95750003D01*
X122314352Y-95875300D01*
X122314352Y-95875301D01*
X122314354Y-95875304D01*
X122371950Y-95988342D01*
X122371952Y-95988344D01*
X122371954Y-95988347D01*
X122461652Y-96078045D01*
X122461654Y-96078046D01*
X122461658Y-96078050D01*
X122574696Y-96135646D01*
X122574697Y-96135646D01*
X122574699Y-96135647D01*
X122699997Y-96155492D01*
X122700000Y-96155492D01*
X122700003Y-96155492D01*
X122825300Y-96135647D01*
X122825301Y-96135647D01*
X122825302Y-96135646D01*
X122825304Y-96135646D01*
X122938342Y-96078050D01*
X123028050Y-95988342D01*
X123085646Y-95875304D01*
X123085646Y-95875302D01*
X123085647Y-95875301D01*
X123085647Y-95875300D01*
X123105492Y-95750003D01*
X124794508Y-95750003D01*
X124814352Y-95875300D01*
X124814352Y-95875301D01*
X124814354Y-95875304D01*
X124871950Y-95988342D01*
X124871952Y-95988344D01*
X124871954Y-95988347D01*
X124961652Y-96078045D01*
X124961654Y-96078046D01*
X124961658Y-96078050D01*
X125074696Y-96135646D01*
X125074697Y-96135646D01*
X125074699Y-96135647D01*
X125199997Y-96155492D01*
X125200000Y-96155492D01*
X125200003Y-96155492D01*
X125325300Y-96135647D01*
X125325301Y-96135647D01*
X125325302Y-96135646D01*
X125325304Y-96135646D01*
X125438342Y-96078050D01*
X125528050Y-95988342D01*
X125585646Y-95875304D01*
X125585646Y-95875302D01*
X125585647Y-95875301D01*
X125585647Y-95875300D01*
X125605492Y-95750003D01*
X127294508Y-95750003D01*
X127314352Y-95875300D01*
X127314352Y-95875301D01*
X127314354Y-95875304D01*
X127371950Y-95988342D01*
X127371952Y-95988344D01*
X127371954Y-95988347D01*
X127461652Y-96078045D01*
X127461654Y-96078046D01*
X127461658Y-96078050D01*
X127574696Y-96135646D01*
X127574697Y-96135646D01*
X127574699Y-96135647D01*
X127699997Y-96155492D01*
X127700000Y-96155492D01*
X127700003Y-96155492D01*
X127825300Y-96135647D01*
X127825301Y-96135647D01*
X127825302Y-96135646D01*
X127825304Y-96135646D01*
X127938342Y-96078050D01*
X128028050Y-95988342D01*
X128085646Y-95875304D01*
X128085646Y-95875302D01*
X128085647Y-95875301D01*
X128085647Y-95875300D01*
X128105492Y-95750003D01*
X128105492Y-95749996D01*
X128085647Y-95624699D01*
X128085647Y-95624698D01*
X128085646Y-95624696D01*
X128028050Y-95511658D01*
X128028046Y-95511654D01*
X128028045Y-95511652D01*
X127938347Y-95421954D01*
X127938344Y-95421952D01*
X127938342Y-95421950D01*
X127825304Y-95364354D01*
X127825303Y-95364353D01*
X127825300Y-95364352D01*
X127700003Y-95344508D01*
X127699997Y-95344508D01*
X127574699Y-95364352D01*
X127574698Y-95364352D01*
X127508429Y-95398119D01*
X127461658Y-95421950D01*
X127461657Y-95421951D01*
X127461652Y-95421954D01*
X127371954Y-95511652D01*
X127371951Y-95511657D01*
X127314352Y-95624698D01*
X127314352Y-95624699D01*
X127294508Y-95749996D01*
X127294508Y-95750003D01*
X125605492Y-95750003D01*
X125605492Y-95749996D01*
X125585647Y-95624699D01*
X125585647Y-95624698D01*
X125585646Y-95624696D01*
X125528050Y-95511658D01*
X125528046Y-95511654D01*
X125528045Y-95511652D01*
X125438347Y-95421954D01*
X125438344Y-95421952D01*
X125438342Y-95421950D01*
X125325304Y-95364354D01*
X125325303Y-95364353D01*
X125325300Y-95364352D01*
X125200003Y-95344508D01*
X125199997Y-95344508D01*
X125074699Y-95364352D01*
X125074698Y-95364352D01*
X125008429Y-95398119D01*
X124961658Y-95421950D01*
X124961657Y-95421951D01*
X124961652Y-95421954D01*
X124871954Y-95511652D01*
X124871951Y-95511657D01*
X124814352Y-95624698D01*
X124814352Y-95624699D01*
X124794508Y-95749996D01*
X124794508Y-95750003D01*
X123105492Y-95750003D01*
X123105492Y-95749996D01*
X123085647Y-95624699D01*
X123085647Y-95624698D01*
X123085646Y-95624696D01*
X123028050Y-95511658D01*
X123028046Y-95511654D01*
X123028045Y-95511652D01*
X122938347Y-95421954D01*
X122938344Y-95421952D01*
X122938342Y-95421950D01*
X122825304Y-95364354D01*
X122825303Y-95364353D01*
X122825300Y-95364352D01*
X122700003Y-95344508D01*
X122699997Y-95344508D01*
X122574699Y-95364352D01*
X122574698Y-95364352D01*
X122508429Y-95398119D01*
X122461658Y-95421950D01*
X122461657Y-95421951D01*
X122461652Y-95421954D01*
X122371954Y-95511652D01*
X122371951Y-95511657D01*
X122314352Y-95624698D01*
X122314352Y-95624699D01*
X122294508Y-95749996D01*
X122294508Y-95750003D01*
X120505492Y-95750003D01*
X120505492Y-95749996D01*
X120485647Y-95624699D01*
X120485647Y-95624698D01*
X120485646Y-95624696D01*
X120428050Y-95511658D01*
X120428046Y-95511654D01*
X120428045Y-95511652D01*
X120338347Y-95421954D01*
X120338344Y-95421952D01*
X120338342Y-95421950D01*
X120225304Y-95364354D01*
X120225303Y-95364353D01*
X120225300Y-95364352D01*
X120100003Y-95344508D01*
X120099997Y-95344508D01*
X119974699Y-95364352D01*
X119974698Y-95364352D01*
X119908429Y-95398119D01*
X119861658Y-95421950D01*
X119861657Y-95421951D01*
X119861652Y-95421954D01*
X119771954Y-95511652D01*
X119771951Y-95511657D01*
X119714352Y-95624698D01*
X119714352Y-95624699D01*
X119694508Y-95749996D01*
X119694508Y-95750003D01*
X110223089Y-95750003D01*
X110281229Y-95723722D01*
X110362965Y-95686776D01*
X110362967Y-95686775D01*
X110362967Y-95686774D01*
X110362971Y-95686773D01*
X110554000Y-95557659D01*
X110720462Y-95398119D01*
X110857566Y-95212742D01*
X110961370Y-95006860D01*
X111028886Y-94786397D01*
X111058172Y-94557694D01*
X111048386Y-94327332D01*
X110999810Y-94101938D01*
X110958850Y-94000003D01*
X114694508Y-94000003D01*
X114714352Y-94125300D01*
X114714352Y-94125301D01*
X114714354Y-94125304D01*
X114771950Y-94238342D01*
X114771952Y-94238344D01*
X114771954Y-94238347D01*
X114861652Y-94328045D01*
X114861654Y-94328046D01*
X114861658Y-94328050D01*
X114974696Y-94385646D01*
X114974697Y-94385646D01*
X114974699Y-94385647D01*
X115099997Y-94405492D01*
X115100000Y-94405492D01*
X115100003Y-94405492D01*
X115225300Y-94385647D01*
X115225301Y-94385647D01*
X115225302Y-94385646D01*
X115225304Y-94385646D01*
X115338342Y-94328050D01*
X115428050Y-94238342D01*
X115485646Y-94125304D01*
X115485646Y-94125302D01*
X115485647Y-94125301D01*
X115485647Y-94125300D01*
X115505492Y-94000003D01*
X115505492Y-93999996D01*
X115485647Y-93874699D01*
X115485647Y-93874698D01*
X115471730Y-93847385D01*
X115428050Y-93761658D01*
X115428046Y-93761654D01*
X115428045Y-93761652D01*
X115338347Y-93671954D01*
X115338344Y-93671952D01*
X115338342Y-93671950D01*
X115225304Y-93614354D01*
X115225303Y-93614353D01*
X115225300Y-93614352D01*
X115100003Y-93594508D01*
X115099997Y-93594508D01*
X114974699Y-93614352D01*
X114974698Y-93614352D01*
X114899337Y-93652751D01*
X114861658Y-93671950D01*
X114861657Y-93671951D01*
X114861652Y-93671954D01*
X114771954Y-93761652D01*
X114771951Y-93761657D01*
X114714352Y-93874698D01*
X114714352Y-93874699D01*
X114694508Y-93999996D01*
X114694508Y-94000003D01*
X110958850Y-94000003D01*
X110913841Y-93887994D01*
X110792951Y-93691657D01*
X110640620Y-93518575D01*
X110640619Y-93518574D01*
X110640615Y-93518570D01*
X110461234Y-93373730D01*
X110461233Y-93373729D01*
X110259938Y-93261279D01*
X110042541Y-93184468D01*
X110042540Y-93184467D01*
X110042538Y-93184467D01*
X110042534Y-93184466D01*
X110042533Y-93184466D01*
X109815293Y-93145500D01*
X109815285Y-93145500D01*
X109642465Y-93145500D01*
X109642460Y-93145500D01*
X109470265Y-93160155D01*
X109247131Y-93218254D01*
X109037034Y-93313223D01*
X109037032Y-93313224D01*
X108845999Y-93442342D01*
X108679540Y-93601878D01*
X108542434Y-93787257D01*
X108535222Y-93801562D01*
X108487463Y-93852560D01*
X108419714Y-93869643D01*
X108353484Y-93847385D01*
X108309801Y-93792854D01*
X108300500Y-93745735D01*
X108300500Y-93000003D01*
X115294508Y-93000003D01*
X115314352Y-93125300D01*
X115314352Y-93125301D01*
X115314354Y-93125304D01*
X115371950Y-93238342D01*
X115371952Y-93238344D01*
X115371954Y-93238347D01*
X115461652Y-93328045D01*
X115461654Y-93328046D01*
X115461658Y-93328050D01*
X115574696Y-93385646D01*
X115574697Y-93385646D01*
X115574699Y-93385647D01*
X115699997Y-93405492D01*
X115700000Y-93405492D01*
X115700003Y-93405492D01*
X115825300Y-93385647D01*
X115825301Y-93385647D01*
X115825302Y-93385646D01*
X115825304Y-93385646D01*
X115938342Y-93328050D01*
X115976389Y-93290003D01*
X117484508Y-93290003D01*
X117504352Y-93415300D01*
X117504352Y-93415301D01*
X117522805Y-93451517D01*
X117561950Y-93528342D01*
X117561952Y-93528344D01*
X117561954Y-93528347D01*
X117651652Y-93618045D01*
X117651654Y-93618046D01*
X117651658Y-93618050D01*
X117764696Y-93675646D01*
X117764697Y-93675646D01*
X117764699Y-93675647D01*
X117889997Y-93695492D01*
X117890000Y-93695492D01*
X117890003Y-93695492D01*
X118015300Y-93675647D01*
X118015301Y-93675647D01*
X118015302Y-93675646D01*
X118015304Y-93675646D01*
X118128342Y-93618050D01*
X118218050Y-93528342D01*
X118275646Y-93415304D01*
X118275646Y-93415302D01*
X118275647Y-93415301D01*
X118275647Y-93415300D01*
X118295492Y-93290003D01*
X118295492Y-93289996D01*
X118275647Y-93164699D01*
X118275647Y-93164698D01*
X118265865Y-93145500D01*
X118218050Y-93051658D01*
X118218046Y-93051654D01*
X118218045Y-93051652D01*
X118128347Y-92961954D01*
X118128344Y-92961952D01*
X118128342Y-92961950D01*
X118015304Y-92904354D01*
X118015303Y-92904353D01*
X118015300Y-92904352D01*
X117890003Y-92884508D01*
X117889997Y-92884508D01*
X117764699Y-92904352D01*
X117764698Y-92904352D01*
X117689337Y-92942751D01*
X117651658Y-92961950D01*
X117651657Y-92961951D01*
X117651652Y-92961954D01*
X117561954Y-93051652D01*
X117561951Y-93051657D01*
X117561950Y-93051658D01*
X117542751Y-93089337D01*
X117504352Y-93164698D01*
X117504352Y-93164699D01*
X117484508Y-93289996D01*
X117484508Y-93290003D01*
X115976389Y-93290003D01*
X116028050Y-93238342D01*
X116085646Y-93125304D01*
X116085646Y-93125302D01*
X116085647Y-93125301D01*
X116085647Y-93125300D01*
X116105492Y-93000003D01*
X116105492Y-92999996D01*
X116085647Y-92874699D01*
X116085647Y-92874698D01*
X116085646Y-92874696D01*
X116028050Y-92761658D01*
X116028046Y-92761654D01*
X116028045Y-92761652D01*
X115938347Y-92671954D01*
X115938344Y-92671952D01*
X115938342Y-92671950D01*
X115825304Y-92614354D01*
X115825303Y-92614353D01*
X115825300Y-92614352D01*
X115700003Y-92594508D01*
X115699997Y-92594508D01*
X115574699Y-92614352D01*
X115574698Y-92614352D01*
X115504745Y-92649996D01*
X115461658Y-92671950D01*
X115461657Y-92671951D01*
X115461652Y-92671954D01*
X115371954Y-92761652D01*
X115371951Y-92761657D01*
X115314352Y-92874698D01*
X115314352Y-92874699D01*
X115294508Y-92999996D01*
X115294508Y-93000003D01*
X108300500Y-93000003D01*
X108300500Y-92200003D01*
X113094508Y-92200003D01*
X113114352Y-92325300D01*
X113114352Y-92325301D01*
X113114354Y-92325304D01*
X113171950Y-92438342D01*
X113171952Y-92438344D01*
X113171954Y-92438347D01*
X113261652Y-92528045D01*
X113261654Y-92528046D01*
X113261658Y-92528050D01*
X113374696Y-92585646D01*
X113374697Y-92585646D01*
X113374699Y-92585647D01*
X113499997Y-92605492D01*
X113500000Y-92605492D01*
X113500003Y-92605492D01*
X113625300Y-92585647D01*
X113625301Y-92585647D01*
X113625302Y-92585646D01*
X113625304Y-92585646D01*
X113738342Y-92528050D01*
X113828050Y-92438342D01*
X113885646Y-92325304D01*
X113885646Y-92325302D01*
X113885647Y-92325301D01*
X113885647Y-92325300D01*
X113897573Y-92250003D01*
X123494508Y-92250003D01*
X123514352Y-92375300D01*
X123514352Y-92375301D01*
X123532805Y-92411517D01*
X123571950Y-92488342D01*
X123571952Y-92488344D01*
X123571954Y-92488347D01*
X123661652Y-92578045D01*
X123661654Y-92578046D01*
X123661658Y-92578050D01*
X123774696Y-92635646D01*
X123774697Y-92635646D01*
X123774699Y-92635647D01*
X123899997Y-92655492D01*
X123900000Y-92655492D01*
X123900003Y-92655492D01*
X123934659Y-92650003D01*
X124494508Y-92650003D01*
X124514352Y-92775300D01*
X124514352Y-92775301D01*
X124514354Y-92775304D01*
X124571950Y-92888342D01*
X124571952Y-92888344D01*
X124571954Y-92888347D01*
X124661652Y-92978045D01*
X124661654Y-92978046D01*
X124661658Y-92978050D01*
X124774696Y-93035646D01*
X124774697Y-93035646D01*
X124774699Y-93035647D01*
X124899997Y-93055492D01*
X124900000Y-93055492D01*
X124900003Y-93055492D01*
X125025300Y-93035647D01*
X125025301Y-93035647D01*
X125025302Y-93035646D01*
X125025304Y-93035646D01*
X125138342Y-92978050D01*
X125228050Y-92888342D01*
X125285646Y-92775304D01*
X125285646Y-92775302D01*
X125285647Y-92775301D01*
X125285647Y-92775300D01*
X125305492Y-92650003D01*
X125305492Y-92649996D01*
X125285647Y-92524699D01*
X125285647Y-92524698D01*
X125267125Y-92488347D01*
X125228050Y-92411658D01*
X125228046Y-92411654D01*
X125228045Y-92411652D01*
X125138347Y-92321954D01*
X125138344Y-92321952D01*
X125138342Y-92321950D01*
X125025304Y-92264354D01*
X125025303Y-92264353D01*
X125025300Y-92264352D01*
X124900003Y-92244508D01*
X124899997Y-92244508D01*
X124774699Y-92264352D01*
X124774698Y-92264352D01*
X124699337Y-92302751D01*
X124661658Y-92321950D01*
X124661657Y-92321951D01*
X124661652Y-92321954D01*
X124571954Y-92411652D01*
X124571951Y-92411657D01*
X124514352Y-92524698D01*
X124514352Y-92524699D01*
X124494508Y-92649996D01*
X124494508Y-92650003D01*
X123934659Y-92650003D01*
X124025300Y-92635647D01*
X124025301Y-92635647D01*
X124025302Y-92635646D01*
X124025304Y-92635646D01*
X124138342Y-92578050D01*
X124228050Y-92488342D01*
X124285646Y-92375304D01*
X124285646Y-92375302D01*
X124285647Y-92375301D01*
X124285647Y-92375300D01*
X124305492Y-92250003D01*
X124305492Y-92249996D01*
X124289655Y-92150003D01*
X125594508Y-92150003D01*
X125614352Y-92275300D01*
X125614352Y-92275301D01*
X125614354Y-92275304D01*
X125671950Y-92388342D01*
X125671952Y-92388344D01*
X125671954Y-92388347D01*
X125761652Y-92478045D01*
X125761654Y-92478046D01*
X125761658Y-92478050D01*
X125874696Y-92535646D01*
X125874697Y-92535646D01*
X125874699Y-92535647D01*
X125999997Y-92555492D01*
X126000000Y-92555492D01*
X126000003Y-92555492D01*
X126125300Y-92535647D01*
X126125301Y-92535647D01*
X126125302Y-92535646D01*
X126125304Y-92535646D01*
X126238342Y-92478050D01*
X126328050Y-92388342D01*
X126385646Y-92275304D01*
X126385646Y-92275302D01*
X126385647Y-92275301D01*
X126385647Y-92275300D01*
X126405492Y-92150003D01*
X126405492Y-92149996D01*
X126385647Y-92024699D01*
X126385647Y-92024698D01*
X126353526Y-91961658D01*
X126328050Y-91911658D01*
X126328046Y-91911654D01*
X126328045Y-91911652D01*
X126238347Y-91821954D01*
X126238344Y-91821952D01*
X126238342Y-91821950D01*
X126125304Y-91764354D01*
X126125303Y-91764353D01*
X126125300Y-91764352D01*
X126000003Y-91744508D01*
X125999997Y-91744508D01*
X125874699Y-91764352D01*
X125874698Y-91764352D01*
X125799337Y-91802751D01*
X125761658Y-91821950D01*
X125761657Y-91821951D01*
X125761652Y-91821954D01*
X125671954Y-91911652D01*
X125671951Y-91911657D01*
X125671950Y-91911658D01*
X125666704Y-91921954D01*
X125614352Y-92024698D01*
X125614352Y-92024699D01*
X125594508Y-92149996D01*
X125594508Y-92150003D01*
X124289655Y-92150003D01*
X124285647Y-92124699D01*
X124285647Y-92124698D01*
X124265749Y-92085647D01*
X124228050Y-92011658D01*
X124228046Y-92011654D01*
X124228045Y-92011652D01*
X124138347Y-91921954D01*
X124138344Y-91921952D01*
X124138342Y-91921950D01*
X124025304Y-91864354D01*
X124025303Y-91864353D01*
X124025300Y-91864352D01*
X123900003Y-91844508D01*
X123899997Y-91844508D01*
X123774699Y-91864352D01*
X123774698Y-91864352D01*
X123699337Y-91902751D01*
X123661658Y-91921950D01*
X123661657Y-91921951D01*
X123661652Y-91921954D01*
X123571954Y-92011652D01*
X123571951Y-92011657D01*
X123571950Y-92011658D01*
X123563599Y-92028048D01*
X123514352Y-92124698D01*
X123514352Y-92124699D01*
X123494508Y-92249996D01*
X123494508Y-92250003D01*
X113897573Y-92250003D01*
X113905492Y-92200003D01*
X113905492Y-92199996D01*
X113885647Y-92074699D01*
X113885647Y-92074698D01*
X113885646Y-92074696D01*
X113828050Y-91961658D01*
X113828046Y-91961654D01*
X113828045Y-91961652D01*
X113738347Y-91871954D01*
X113738344Y-91871952D01*
X113738342Y-91871950D01*
X113625304Y-91814354D01*
X113625303Y-91814353D01*
X113625300Y-91814352D01*
X113500003Y-91794508D01*
X113499997Y-91794508D01*
X113374699Y-91814352D01*
X113374698Y-91814352D01*
X113299337Y-91852751D01*
X113261658Y-91871950D01*
X113261657Y-91871951D01*
X113261652Y-91871954D01*
X113171954Y-91961652D01*
X113171951Y-91961657D01*
X113114352Y-92074698D01*
X113114352Y-92074699D01*
X113094508Y-92199996D01*
X113094508Y-92200003D01*
X108300500Y-92200003D01*
X108300500Y-91250003D01*
X114044508Y-91250003D01*
X114064352Y-91375300D01*
X114064352Y-91375301D01*
X114065752Y-91378048D01*
X114121950Y-91488342D01*
X114121952Y-91488344D01*
X114121954Y-91488347D01*
X114211652Y-91578045D01*
X114211654Y-91578046D01*
X114211658Y-91578050D01*
X114324696Y-91635646D01*
X114324697Y-91635646D01*
X114324699Y-91635647D01*
X114398479Y-91647332D01*
X114450000Y-91655492D01*
X114461620Y-91653651D01*
X114530911Y-91662604D01*
X114584364Y-91707598D01*
X114603492Y-91756727D01*
X114614352Y-91825300D01*
X114614352Y-91825301D01*
X114614354Y-91825304D01*
X114671950Y-91938342D01*
X114671952Y-91938344D01*
X114671954Y-91938347D01*
X114761652Y-92028045D01*
X114761654Y-92028046D01*
X114761658Y-92028050D01*
X114874696Y-92085646D01*
X114874697Y-92085646D01*
X114874699Y-92085647D01*
X114999997Y-92105492D01*
X115000000Y-92105492D01*
X115000003Y-92105492D01*
X115125300Y-92085647D01*
X115125301Y-92085647D01*
X115125302Y-92085646D01*
X115125304Y-92085646D01*
X115238342Y-92028050D01*
X115328050Y-91938342D01*
X115385646Y-91825304D01*
X115385646Y-91825302D01*
X115385647Y-91825301D01*
X115385647Y-91825300D01*
X115405492Y-91700003D01*
X115405492Y-91699996D01*
X115387464Y-91586170D01*
X115396419Y-91516877D01*
X115441415Y-91463425D01*
X115508167Y-91442786D01*
X115529335Y-91444300D01*
X115599998Y-91455492D01*
X115600000Y-91455492D01*
X115600003Y-91455492D01*
X115725300Y-91435647D01*
X115725301Y-91435647D01*
X115725302Y-91435646D01*
X115725304Y-91435646D01*
X115838342Y-91378050D01*
X115862319Y-91354072D01*
X115923640Y-91320588D01*
X115993332Y-91325572D01*
X116037680Y-91354072D01*
X116061658Y-91378050D01*
X116174696Y-91435646D01*
X116174697Y-91435646D01*
X116174699Y-91435647D01*
X116299997Y-91455492D01*
X116300000Y-91455492D01*
X116300003Y-91455492D01*
X116425300Y-91435647D01*
X116425301Y-91435647D01*
X116425302Y-91435646D01*
X116425304Y-91435646D01*
X116538342Y-91378050D01*
X116628050Y-91288342D01*
X116685646Y-91175304D01*
X116685646Y-91175302D01*
X116685647Y-91175301D01*
X116685647Y-91175300D01*
X116705492Y-91050003D01*
X116705492Y-91049996D01*
X116685647Y-90924699D01*
X116685647Y-90924698D01*
X116660479Y-90875304D01*
X116628050Y-90811658D01*
X116628046Y-90811654D01*
X116628045Y-90811652D01*
X116566396Y-90750003D01*
X120794508Y-90750003D01*
X120814352Y-90875300D01*
X120814352Y-90875301D01*
X120814354Y-90875304D01*
X120871950Y-90988342D01*
X120871952Y-90988344D01*
X120871954Y-90988347D01*
X120961652Y-91078045D01*
X120961654Y-91078046D01*
X120961658Y-91078050D01*
X121074696Y-91135646D01*
X121074697Y-91135646D01*
X121074699Y-91135647D01*
X121199997Y-91155492D01*
X121200000Y-91155492D01*
X121200003Y-91155492D01*
X121325300Y-91135647D01*
X121325301Y-91135647D01*
X121325302Y-91135646D01*
X121325304Y-91135646D01*
X121438342Y-91078050D01*
X121528050Y-90988342D01*
X121547585Y-90950003D01*
X127394508Y-90950003D01*
X127414352Y-91075300D01*
X127414352Y-91075301D01*
X127415752Y-91078048D01*
X127471950Y-91188342D01*
X127471952Y-91188344D01*
X127471954Y-91188347D01*
X127561652Y-91278045D01*
X127561654Y-91278046D01*
X127561658Y-91278050D01*
X127674696Y-91335646D01*
X127674697Y-91335646D01*
X127674699Y-91335647D01*
X127799997Y-91355492D01*
X127800000Y-91355492D01*
X127800003Y-91355492D01*
X127925300Y-91335647D01*
X127925301Y-91335647D01*
X127925302Y-91335646D01*
X127925304Y-91335646D01*
X128038342Y-91278050D01*
X128066389Y-91250003D01*
X128694508Y-91250003D01*
X128714352Y-91375300D01*
X128714352Y-91375301D01*
X128715752Y-91378048D01*
X128771950Y-91488342D01*
X128771952Y-91488344D01*
X128771954Y-91488347D01*
X128861652Y-91578045D01*
X128861654Y-91578046D01*
X128861658Y-91578050D01*
X128974696Y-91635646D01*
X128974697Y-91635646D01*
X128974699Y-91635647D01*
X129099997Y-91655492D01*
X129100000Y-91655492D01*
X129100003Y-91655492D01*
X129225300Y-91635647D01*
X129225301Y-91635647D01*
X129225302Y-91635646D01*
X129225304Y-91635646D01*
X129338342Y-91578050D01*
X129428050Y-91488342D01*
X129485646Y-91375304D01*
X129485646Y-91375302D01*
X129485647Y-91375301D01*
X129485647Y-91375300D01*
X129505492Y-91250003D01*
X129505492Y-91249996D01*
X129485647Y-91124699D01*
X129485647Y-91124698D01*
X129485646Y-91124696D01*
X129428050Y-91011658D01*
X129428046Y-91011654D01*
X129428045Y-91011652D01*
X129338347Y-90921954D01*
X129338344Y-90921952D01*
X129338342Y-90921950D01*
X129225304Y-90864354D01*
X129225303Y-90864353D01*
X129225300Y-90864352D01*
X129100003Y-90844508D01*
X129099997Y-90844508D01*
X128974699Y-90864352D01*
X128974698Y-90864352D01*
X128899337Y-90902751D01*
X128861658Y-90921950D01*
X128861657Y-90921951D01*
X128861652Y-90921954D01*
X128771954Y-91011652D01*
X128771951Y-91011657D01*
X128714352Y-91124698D01*
X128714352Y-91124699D01*
X128694508Y-91249996D01*
X128694508Y-91250003D01*
X128066389Y-91250003D01*
X128128050Y-91188342D01*
X128185646Y-91075304D01*
X128185646Y-91075302D01*
X128185647Y-91075301D01*
X128185647Y-91075300D01*
X128205492Y-90950003D01*
X128205492Y-90949996D01*
X128185647Y-90824699D01*
X128185647Y-90824698D01*
X128179000Y-90811652D01*
X128128050Y-90711658D01*
X128128046Y-90711654D01*
X128128045Y-90711652D01*
X128038347Y-90621954D01*
X128038344Y-90621952D01*
X128038342Y-90621950D01*
X127925304Y-90564354D01*
X127925303Y-90564353D01*
X127925300Y-90564352D01*
X127800003Y-90544508D01*
X127799997Y-90544508D01*
X127674699Y-90564352D01*
X127674698Y-90564352D01*
X127599337Y-90602751D01*
X127561658Y-90621950D01*
X127561657Y-90621951D01*
X127561652Y-90621954D01*
X127471954Y-90711652D01*
X127471951Y-90711657D01*
X127471950Y-90711658D01*
X127466704Y-90721954D01*
X127414352Y-90824698D01*
X127414352Y-90824699D01*
X127394508Y-90949996D01*
X127394508Y-90950003D01*
X121547585Y-90950003D01*
X121585646Y-90875304D01*
X121585646Y-90875302D01*
X121585647Y-90875301D01*
X121585647Y-90875300D01*
X121605492Y-90750003D01*
X121605492Y-90749996D01*
X121585647Y-90624699D01*
X121585647Y-90624698D01*
X121584247Y-90621950D01*
X121528050Y-90511658D01*
X121528046Y-90511654D01*
X121528045Y-90511652D01*
X121438347Y-90421954D01*
X121438344Y-90421952D01*
X121438342Y-90421950D01*
X121325304Y-90364354D01*
X121325303Y-90364353D01*
X121325300Y-90364352D01*
X121200003Y-90344508D01*
X121199997Y-90344508D01*
X121074699Y-90364352D01*
X121074698Y-90364352D01*
X120999337Y-90402751D01*
X120961658Y-90421950D01*
X120961657Y-90421951D01*
X120961652Y-90421954D01*
X120871954Y-90511652D01*
X120871951Y-90511657D01*
X120814352Y-90624698D01*
X120814352Y-90624699D01*
X120794508Y-90749996D01*
X120794508Y-90750003D01*
X116566396Y-90750003D01*
X116538347Y-90721954D01*
X116538344Y-90721952D01*
X116538342Y-90721950D01*
X116425304Y-90664354D01*
X116425303Y-90664353D01*
X116425300Y-90664352D01*
X116300003Y-90644508D01*
X116299997Y-90644508D01*
X116174699Y-90664352D01*
X116174698Y-90664352D01*
X116099337Y-90702751D01*
X116061658Y-90721950D01*
X116061657Y-90721951D01*
X116061652Y-90721954D01*
X116037681Y-90745926D01*
X115976358Y-90779411D01*
X115906666Y-90774427D01*
X115862319Y-90745926D01*
X115838347Y-90721954D01*
X115838344Y-90721952D01*
X115838342Y-90721950D01*
X115725304Y-90664354D01*
X115725303Y-90664353D01*
X115725300Y-90664352D01*
X115600003Y-90644508D01*
X115599997Y-90644508D01*
X115474699Y-90664352D01*
X115474698Y-90664352D01*
X115399337Y-90702751D01*
X115361658Y-90721950D01*
X115361657Y-90721951D01*
X115361652Y-90721954D01*
X115271954Y-90811652D01*
X115271951Y-90811657D01*
X115271950Y-90811658D01*
X115255212Y-90844508D01*
X115214352Y-90924698D01*
X115214352Y-90924699D01*
X115194508Y-91049996D01*
X115194508Y-91049997D01*
X115194508Y-91050000D01*
X115198951Y-91078050D01*
X115212536Y-91163829D01*
X115203580Y-91233123D01*
X115158583Y-91286574D01*
X115091831Y-91307213D01*
X115070665Y-91305700D01*
X115039990Y-91300841D01*
X115000000Y-91294508D01*
X114999999Y-91294508D01*
X114988376Y-91296349D01*
X114919082Y-91287392D01*
X114865631Y-91242395D01*
X114846507Y-91193275D01*
X114835646Y-91124696D01*
X114778050Y-91011658D01*
X114778046Y-91011654D01*
X114778045Y-91011652D01*
X114688347Y-90921954D01*
X114688344Y-90921952D01*
X114688342Y-90921950D01*
X114575304Y-90864354D01*
X114575303Y-90864353D01*
X114575300Y-90864352D01*
X114450003Y-90844508D01*
X114449997Y-90844508D01*
X114324699Y-90864352D01*
X114324698Y-90864352D01*
X114249337Y-90902751D01*
X114211658Y-90921950D01*
X114211657Y-90921951D01*
X114211652Y-90921954D01*
X114121954Y-91011652D01*
X114121951Y-91011657D01*
X114064352Y-91124698D01*
X114064352Y-91124699D01*
X114044508Y-91249996D01*
X114044508Y-91250003D01*
X108300500Y-91250003D01*
X108300500Y-89850003D01*
X122394508Y-89850003D01*
X122414352Y-89975300D01*
X122414352Y-89975301D01*
X122414354Y-89975304D01*
X122471950Y-90088342D01*
X122471952Y-90088344D01*
X122471954Y-90088347D01*
X122561652Y-90178045D01*
X122561654Y-90178046D01*
X122561658Y-90178050D01*
X122674696Y-90235646D01*
X122674697Y-90235646D01*
X122674699Y-90235647D01*
X122799997Y-90255492D01*
X122800000Y-90255492D01*
X122800003Y-90255492D01*
X122925300Y-90235647D01*
X122925301Y-90235647D01*
X122925302Y-90235646D01*
X122925304Y-90235646D01*
X123038342Y-90178050D01*
X123128050Y-90088342D01*
X123185646Y-89975304D01*
X123185646Y-89975302D01*
X123185647Y-89975301D01*
X123185647Y-89975300D01*
X123205492Y-89850003D01*
X123205492Y-89849996D01*
X123185647Y-89724699D01*
X123185647Y-89724698D01*
X123185646Y-89724696D01*
X123128050Y-89611658D01*
X123128046Y-89611654D01*
X123128045Y-89611652D01*
X123038347Y-89521954D01*
X123038344Y-89521952D01*
X123038342Y-89521950D01*
X122925304Y-89464354D01*
X122925303Y-89464353D01*
X122925300Y-89464352D01*
X122800003Y-89444508D01*
X122799997Y-89444508D01*
X122674699Y-89464352D01*
X122674698Y-89464352D01*
X122599337Y-89502751D01*
X122561658Y-89521950D01*
X122561657Y-89521951D01*
X122561652Y-89521954D01*
X122471954Y-89611652D01*
X122471951Y-89611657D01*
X122414352Y-89724698D01*
X122414352Y-89724699D01*
X122394508Y-89849996D01*
X122394508Y-89850003D01*
X108300500Y-89850003D01*
X108300500Y-88750003D01*
X115594508Y-88750003D01*
X115614352Y-88875300D01*
X115614352Y-88875301D01*
X115632805Y-88911517D01*
X115671950Y-88988342D01*
X115671952Y-88988344D01*
X115671954Y-88988347D01*
X115761652Y-89078045D01*
X115761654Y-89078046D01*
X115761658Y-89078050D01*
X115874696Y-89135646D01*
X115874697Y-89135646D01*
X115874699Y-89135647D01*
X115999997Y-89155492D01*
X116000000Y-89155492D01*
X116000003Y-89155492D01*
X116125300Y-89135647D01*
X116125301Y-89135647D01*
X116125302Y-89135646D01*
X116125304Y-89135646D01*
X116238342Y-89078050D01*
X116328050Y-88988342D01*
X116385646Y-88875304D01*
X116385646Y-88875302D01*
X116385647Y-88875301D01*
X116385647Y-88875300D01*
X116405492Y-88750003D01*
X116405492Y-88749996D01*
X116389655Y-88650003D01*
X118193118Y-88650003D01*
X118212962Y-88775300D01*
X118212962Y-88775301D01*
X118212964Y-88775304D01*
X118270560Y-88888342D01*
X118270562Y-88888344D01*
X118270564Y-88888347D01*
X118360262Y-88978045D01*
X118360264Y-88978046D01*
X118360268Y-88978050D01*
X118473306Y-89035646D01*
X118473307Y-89035646D01*
X118473309Y-89035647D01*
X118598607Y-89055492D01*
X118598610Y-89055492D01*
X118598613Y-89055492D01*
X118723910Y-89035647D01*
X118723911Y-89035647D01*
X118723912Y-89035646D01*
X118723914Y-89035646D01*
X118836952Y-88978050D01*
X118926660Y-88888342D01*
X118946195Y-88850003D01*
X121094508Y-88850003D01*
X121114352Y-88975300D01*
X121114352Y-88975301D01*
X121132805Y-89011517D01*
X121171950Y-89088342D01*
X121171952Y-89088344D01*
X121171954Y-89088347D01*
X121261652Y-89178045D01*
X121261654Y-89178046D01*
X121261658Y-89178050D01*
X121374696Y-89235646D01*
X121374697Y-89235646D01*
X121374699Y-89235647D01*
X121499997Y-89255492D01*
X121500000Y-89255492D01*
X121500003Y-89255492D01*
X121625300Y-89235647D01*
X121625301Y-89235647D01*
X121625302Y-89235646D01*
X121625304Y-89235646D01*
X121738342Y-89178050D01*
X121828050Y-89088342D01*
X121885646Y-88975304D01*
X121885646Y-88975302D01*
X121885647Y-88975301D01*
X121885647Y-88975300D01*
X121889654Y-88950003D01*
X123294508Y-88950003D01*
X123314352Y-89075300D01*
X123314352Y-89075301D01*
X123332805Y-89111517D01*
X123371950Y-89188342D01*
X123371952Y-89188344D01*
X123371954Y-89188347D01*
X123461652Y-89278045D01*
X123461654Y-89278046D01*
X123461658Y-89278050D01*
X123574696Y-89335646D01*
X123574697Y-89335646D01*
X123574699Y-89335647D01*
X123699997Y-89355492D01*
X123700000Y-89355492D01*
X123700003Y-89355492D01*
X123825300Y-89335647D01*
X123825301Y-89335647D01*
X123825302Y-89335646D01*
X123825304Y-89335646D01*
X123938342Y-89278050D01*
X124028050Y-89188342D01*
X124085646Y-89075304D01*
X124085646Y-89075302D01*
X124085647Y-89075301D01*
X124085647Y-89075300D01*
X124105492Y-88950003D01*
X125694508Y-88950003D01*
X125714352Y-89075300D01*
X125714352Y-89075301D01*
X125732805Y-89111517D01*
X125771950Y-89188342D01*
X125771952Y-89188344D01*
X125771954Y-89188347D01*
X125861652Y-89278045D01*
X125861654Y-89278046D01*
X125861658Y-89278050D01*
X125974696Y-89335646D01*
X125974697Y-89335646D01*
X125974699Y-89335647D01*
X126099997Y-89355492D01*
X126100000Y-89355492D01*
X126100003Y-89355492D01*
X126225300Y-89335647D01*
X126225301Y-89335647D01*
X126225302Y-89335646D01*
X126225304Y-89335646D01*
X126338342Y-89278050D01*
X126428050Y-89188342D01*
X126485646Y-89075304D01*
X126485646Y-89075302D01*
X126485647Y-89075301D01*
X126485647Y-89075300D01*
X126505492Y-88950003D01*
X126505492Y-88949996D01*
X126485647Y-88824699D01*
X126485647Y-88824698D01*
X126460479Y-88775304D01*
X126428050Y-88711658D01*
X126428046Y-88711654D01*
X126428045Y-88711652D01*
X126338347Y-88621954D01*
X126338344Y-88621952D01*
X126338342Y-88621950D01*
X126225304Y-88564354D01*
X126225303Y-88564353D01*
X126225300Y-88564352D01*
X126100003Y-88544508D01*
X126099997Y-88544508D01*
X125974699Y-88564352D01*
X125974698Y-88564352D01*
X125899337Y-88602751D01*
X125861658Y-88621950D01*
X125861657Y-88621951D01*
X125861652Y-88621954D01*
X125771954Y-88711652D01*
X125771951Y-88711657D01*
X125771950Y-88711658D01*
X125752751Y-88749337D01*
X125714352Y-88824698D01*
X125714352Y-88824699D01*
X125694508Y-88949996D01*
X125694508Y-88950003D01*
X124105492Y-88950003D01*
X124105492Y-88949996D01*
X124085647Y-88824699D01*
X124085647Y-88824698D01*
X124060479Y-88775304D01*
X124028050Y-88711658D01*
X124028046Y-88711654D01*
X124028045Y-88711652D01*
X123938347Y-88621954D01*
X123938344Y-88621952D01*
X123938342Y-88621950D01*
X123825304Y-88564354D01*
X123825303Y-88564353D01*
X123825300Y-88564352D01*
X123700003Y-88544508D01*
X123699997Y-88544508D01*
X123574699Y-88564352D01*
X123574698Y-88564352D01*
X123499337Y-88602751D01*
X123461658Y-88621950D01*
X123461657Y-88621951D01*
X123461652Y-88621954D01*
X123371954Y-88711652D01*
X123371951Y-88711657D01*
X123371950Y-88711658D01*
X123352751Y-88749337D01*
X123314352Y-88824698D01*
X123314352Y-88824699D01*
X123294508Y-88949996D01*
X123294508Y-88950003D01*
X121889654Y-88950003D01*
X121905492Y-88850003D01*
X121905492Y-88849996D01*
X121885647Y-88724699D01*
X121885647Y-88724698D01*
X121879000Y-88711652D01*
X121828050Y-88611658D01*
X121828046Y-88611654D01*
X121828045Y-88611652D01*
X121738347Y-88521954D01*
X121738344Y-88521952D01*
X121738342Y-88521950D01*
X121625304Y-88464354D01*
X121625303Y-88464353D01*
X121625300Y-88464352D01*
X121500003Y-88444508D01*
X121499997Y-88444508D01*
X121374699Y-88464352D01*
X121374698Y-88464352D01*
X121299337Y-88502751D01*
X121261658Y-88521950D01*
X121261657Y-88521951D01*
X121261652Y-88521954D01*
X121171954Y-88611652D01*
X121171951Y-88611657D01*
X121171950Y-88611658D01*
X121152751Y-88649337D01*
X121114352Y-88724698D01*
X121114352Y-88724699D01*
X121094508Y-88849996D01*
X121094508Y-88850003D01*
X118946195Y-88850003D01*
X118984256Y-88775304D01*
X118984256Y-88775302D01*
X118984257Y-88775301D01*
X118984257Y-88775300D01*
X119004102Y-88650003D01*
X119004102Y-88649996D01*
X118984257Y-88524699D01*
X118984257Y-88524698D01*
X118977610Y-88511652D01*
X118926660Y-88411658D01*
X118926656Y-88411654D01*
X118926655Y-88411652D01*
X118836957Y-88321954D01*
X118836954Y-88321952D01*
X118836952Y-88321950D01*
X118723914Y-88264354D01*
X118723913Y-88264353D01*
X118723910Y-88264352D01*
X118598613Y-88244508D01*
X118598607Y-88244508D01*
X118473309Y-88264352D01*
X118473308Y-88264352D01*
X118397947Y-88302751D01*
X118360268Y-88321950D01*
X118360267Y-88321951D01*
X118360262Y-88321954D01*
X118270564Y-88411652D01*
X118270561Y-88411657D01*
X118270560Y-88411658D01*
X118265314Y-88421954D01*
X118212962Y-88524698D01*
X118212962Y-88524699D01*
X118193118Y-88649996D01*
X118193118Y-88650003D01*
X116389655Y-88650003D01*
X116385647Y-88624699D01*
X116385647Y-88624698D01*
X116379000Y-88611652D01*
X116328050Y-88511658D01*
X116328046Y-88511654D01*
X116328045Y-88511652D01*
X116238347Y-88421954D01*
X116238344Y-88421952D01*
X116238342Y-88421950D01*
X116125304Y-88364354D01*
X116125303Y-88364353D01*
X116125300Y-88364352D01*
X116000003Y-88344508D01*
X115999997Y-88344508D01*
X115874699Y-88364352D01*
X115874698Y-88364352D01*
X115799337Y-88402751D01*
X115761658Y-88421950D01*
X115761657Y-88421951D01*
X115761652Y-88421954D01*
X115671954Y-88511652D01*
X115671951Y-88511657D01*
X115671950Y-88511658D01*
X115655212Y-88544508D01*
X115614352Y-88624698D01*
X115614352Y-88624699D01*
X115594508Y-88749996D01*
X115594508Y-88750003D01*
X108300500Y-88750003D01*
X108300500Y-86750003D01*
X113494508Y-86750003D01*
X113514352Y-86875300D01*
X113514352Y-86875301D01*
X113532805Y-86911517D01*
X113571950Y-86988342D01*
X113571952Y-86988344D01*
X113571954Y-86988347D01*
X113661652Y-87078045D01*
X113661654Y-87078046D01*
X113661658Y-87078050D01*
X113774696Y-87135646D01*
X113774697Y-87135646D01*
X113774699Y-87135647D01*
X113899997Y-87155492D01*
X113900000Y-87155492D01*
X113900003Y-87155492D01*
X114025300Y-87135647D01*
X114025301Y-87135647D01*
X114025302Y-87135646D01*
X114025304Y-87135646D01*
X114138342Y-87078050D01*
X114228050Y-86988342D01*
X114247585Y-86950003D01*
X121194508Y-86950003D01*
X121214352Y-87075300D01*
X121214352Y-87075301D01*
X121215752Y-87078048D01*
X121271950Y-87188342D01*
X121271952Y-87188344D01*
X121271954Y-87188347D01*
X121361652Y-87278045D01*
X121361654Y-87278046D01*
X121361658Y-87278050D01*
X121474696Y-87335646D01*
X121474697Y-87335646D01*
X121474699Y-87335647D01*
X121599997Y-87355492D01*
X121600000Y-87355492D01*
X121600003Y-87355492D01*
X121725300Y-87335647D01*
X121725301Y-87335647D01*
X121725302Y-87335646D01*
X121725304Y-87335646D01*
X121838342Y-87278050D01*
X121928050Y-87188342D01*
X121985646Y-87075304D01*
X121985646Y-87075302D01*
X121985647Y-87075301D01*
X121985647Y-87075300D01*
X122005492Y-86950003D01*
X122005492Y-86949996D01*
X121985647Y-86824699D01*
X121985647Y-86824698D01*
X121960479Y-86775304D01*
X121928050Y-86711658D01*
X121928046Y-86711654D01*
X121928045Y-86711652D01*
X121866396Y-86650003D01*
X123294508Y-86650003D01*
X123314352Y-86775300D01*
X123314352Y-86775301D01*
X123314354Y-86775304D01*
X123371950Y-86888342D01*
X123371952Y-86888344D01*
X123371954Y-86888347D01*
X123461652Y-86978045D01*
X123461654Y-86978046D01*
X123461658Y-86978050D01*
X123574696Y-87035646D01*
X123574697Y-87035646D01*
X123574699Y-87035647D01*
X123699997Y-87055492D01*
X123700000Y-87055492D01*
X123700003Y-87055492D01*
X123825300Y-87035647D01*
X123825301Y-87035647D01*
X123825302Y-87035646D01*
X123825304Y-87035646D01*
X123938342Y-86978050D01*
X124028050Y-86888342D01*
X124085646Y-86775304D01*
X124085646Y-86775302D01*
X124085647Y-86775301D01*
X124085647Y-86775300D01*
X124105492Y-86650003D01*
X124105492Y-86649996D01*
X124085647Y-86524699D01*
X124085647Y-86524698D01*
X124079000Y-86511652D01*
X124028050Y-86411658D01*
X124028046Y-86411654D01*
X124028045Y-86411652D01*
X123938347Y-86321954D01*
X123938344Y-86321952D01*
X123938342Y-86321950D01*
X123825304Y-86264354D01*
X123825303Y-86264353D01*
X123825300Y-86264352D01*
X123700003Y-86244508D01*
X123699997Y-86244508D01*
X123574699Y-86264352D01*
X123574698Y-86264352D01*
X123499337Y-86302751D01*
X123461658Y-86321950D01*
X123461657Y-86321951D01*
X123461652Y-86321954D01*
X123371954Y-86411652D01*
X123371951Y-86411657D01*
X123371950Y-86411658D01*
X123366704Y-86421954D01*
X123314352Y-86524698D01*
X123314352Y-86524699D01*
X123294508Y-86649996D01*
X123294508Y-86650003D01*
X121866396Y-86650003D01*
X121838347Y-86621954D01*
X121838344Y-86621952D01*
X121838342Y-86621950D01*
X121725304Y-86564354D01*
X121725303Y-86564353D01*
X121725300Y-86564352D01*
X121600003Y-86544508D01*
X121599997Y-86544508D01*
X121474699Y-86564352D01*
X121474698Y-86564352D01*
X121399337Y-86602751D01*
X121361658Y-86621950D01*
X121361657Y-86621951D01*
X121361652Y-86621954D01*
X121271954Y-86711652D01*
X121271951Y-86711657D01*
X121214352Y-86824698D01*
X121214352Y-86824699D01*
X121194508Y-86949996D01*
X121194508Y-86950003D01*
X114247585Y-86950003D01*
X114285646Y-86875304D01*
X114285646Y-86875302D01*
X114285647Y-86875301D01*
X114285647Y-86875300D01*
X114305492Y-86750003D01*
X114305492Y-86749996D01*
X114285647Y-86624699D01*
X114285647Y-86624698D01*
X114284247Y-86621950D01*
X114228050Y-86511658D01*
X114228046Y-86511654D01*
X114228045Y-86511652D01*
X114138347Y-86421954D01*
X114138344Y-86421952D01*
X114138342Y-86421950D01*
X114025304Y-86364354D01*
X114025303Y-86364353D01*
X114025300Y-86364352D01*
X113900003Y-86344508D01*
X113899997Y-86344508D01*
X113774699Y-86364352D01*
X113774698Y-86364352D01*
X113699337Y-86402751D01*
X113661658Y-86421950D01*
X113661657Y-86421951D01*
X113661652Y-86421954D01*
X113571954Y-86511652D01*
X113571951Y-86511657D01*
X113571950Y-86511658D01*
X113555212Y-86544508D01*
X113514352Y-86624698D01*
X113514352Y-86624699D01*
X113494508Y-86749996D01*
X113494508Y-86750003D01*
X108300500Y-86750003D01*
X108300500Y-85100003D01*
X113494508Y-85100003D01*
X113514352Y-85225300D01*
X113514352Y-85225301D01*
X113514354Y-85225304D01*
X113571950Y-85338342D01*
X113571952Y-85338344D01*
X113571954Y-85338347D01*
X113661652Y-85428045D01*
X113661654Y-85428046D01*
X113661658Y-85428050D01*
X113774696Y-85485646D01*
X113774697Y-85485646D01*
X113774699Y-85485647D01*
X113899997Y-85505492D01*
X113900000Y-85505492D01*
X113900003Y-85505492D01*
X114025300Y-85485647D01*
X114025301Y-85485647D01*
X114025302Y-85485646D01*
X114025304Y-85485646D01*
X114138342Y-85428050D01*
X114228050Y-85338342D01*
X114285646Y-85225304D01*
X114285646Y-85225302D01*
X114285647Y-85225301D01*
X114285647Y-85225300D01*
X114305492Y-85100003D01*
X114305492Y-85099996D01*
X114285647Y-84974699D01*
X114285645Y-84974693D01*
X114232806Y-84870992D01*
X114219909Y-84802323D01*
X114246185Y-84737583D01*
X114286992Y-84704213D01*
X114338342Y-84678050D01*
X114362319Y-84654072D01*
X114423640Y-84620588D01*
X114493332Y-84625572D01*
X114537680Y-84654072D01*
X114561658Y-84678050D01*
X114674696Y-84735646D01*
X114674697Y-84735646D01*
X114674699Y-84735647D01*
X114799997Y-84755492D01*
X114800000Y-84755492D01*
X114800003Y-84755492D01*
X114925300Y-84735647D01*
X114925301Y-84735647D01*
X114925302Y-84735646D01*
X114925304Y-84735646D01*
X115038342Y-84678050D01*
X115062319Y-84654072D01*
X115123640Y-84620588D01*
X115193332Y-84625572D01*
X115237680Y-84654072D01*
X115261658Y-84678050D01*
X115374696Y-84735646D01*
X115374697Y-84735646D01*
X115374699Y-84735647D01*
X115499997Y-84755492D01*
X115500000Y-84755492D01*
X115500003Y-84755492D01*
X115625300Y-84735647D01*
X115625301Y-84735647D01*
X115625302Y-84735646D01*
X115625304Y-84735646D01*
X115738342Y-84678050D01*
X115762319Y-84654072D01*
X115823640Y-84620588D01*
X115893332Y-84625572D01*
X115937680Y-84654072D01*
X115961658Y-84678050D01*
X116074696Y-84735646D01*
X116074697Y-84735646D01*
X116074699Y-84735647D01*
X116199997Y-84755492D01*
X116200000Y-84755492D01*
X116200003Y-84755492D01*
X116325300Y-84735647D01*
X116325301Y-84735647D01*
X116325302Y-84735646D01*
X116325304Y-84735646D01*
X116438342Y-84678050D01*
X116466389Y-84650003D01*
X117494508Y-84650003D01*
X117514352Y-84775300D01*
X117514352Y-84775301D01*
X117528121Y-84802323D01*
X117571950Y-84888342D01*
X117571952Y-84888344D01*
X117571954Y-84888347D01*
X117661652Y-84978045D01*
X117661654Y-84978046D01*
X117661658Y-84978050D01*
X117774696Y-85035646D01*
X117774697Y-85035646D01*
X117774699Y-85035647D01*
X117899997Y-85055492D01*
X117900000Y-85055492D01*
X117900002Y-85055492D01*
X117975036Y-85043608D01*
X118020838Y-85049527D01*
X118049268Y-85023435D01*
X118138342Y-84978050D01*
X118138347Y-84978044D01*
X118146241Y-84972311D01*
X118147136Y-84973544D01*
X118199007Y-84945215D01*
X118268699Y-84950194D01*
X118313079Y-84983411D01*
X118315049Y-84981442D01*
X118379417Y-85045810D01*
X118412902Y-85107133D01*
X118407918Y-85176825D01*
X118366046Y-85232758D01*
X118300582Y-85257175D01*
X118272339Y-85255965D01*
X118227761Y-85248904D01*
X118200000Y-85244508D01*
X118199999Y-85244508D01*
X118124961Y-85256392D01*
X118079159Y-85250472D01*
X118050729Y-85276565D01*
X117961661Y-85321947D01*
X117961652Y-85321954D01*
X117871954Y-85411652D01*
X117871951Y-85411657D01*
X117871950Y-85411658D01*
X117863599Y-85428048D01*
X117814352Y-85524698D01*
X117814352Y-85524699D01*
X117794508Y-85649996D01*
X117794508Y-85650003D01*
X117814352Y-85775300D01*
X117814352Y-85775301D01*
X117814354Y-85775304D01*
X117871950Y-85888342D01*
X117871952Y-85888344D01*
X117871954Y-85888347D01*
X117961652Y-85978045D01*
X117961654Y-85978046D01*
X117961658Y-85978050D01*
X118074696Y-86035646D01*
X118074697Y-86035646D01*
X118074699Y-86035647D01*
X118199997Y-86055492D01*
X118200000Y-86055492D01*
X118200003Y-86055492D01*
X118325300Y-86035647D01*
X118325301Y-86035647D01*
X118325302Y-86035646D01*
X118325304Y-86035646D01*
X118438342Y-85978050D01*
X118528050Y-85888342D01*
X118585646Y-85775304D01*
X118585646Y-85775302D01*
X118585647Y-85775301D01*
X118585647Y-85775300D01*
X118605492Y-85650003D01*
X118605492Y-85649996D01*
X118585647Y-85524699D01*
X118585647Y-85524698D01*
X118565749Y-85485647D01*
X118528050Y-85411658D01*
X118528046Y-85411654D01*
X118528045Y-85411652D01*
X118470582Y-85354189D01*
X118437097Y-85292866D01*
X118442081Y-85223174D01*
X118483953Y-85167241D01*
X118549417Y-85142824D01*
X118577661Y-85144035D01*
X118649998Y-85155492D01*
X118650000Y-85155492D01*
X118650003Y-85155492D01*
X118775300Y-85135647D01*
X118775301Y-85135647D01*
X118775302Y-85135646D01*
X118775304Y-85135646D01*
X118888342Y-85078050D01*
X118978050Y-84988342D01*
X118997585Y-84950003D01*
X121294508Y-84950003D01*
X121314352Y-85075300D01*
X121314352Y-85075301D01*
X121315752Y-85078048D01*
X121371950Y-85188342D01*
X121371952Y-85188344D01*
X121371954Y-85188347D01*
X121461652Y-85278045D01*
X121461654Y-85278046D01*
X121461658Y-85278050D01*
X121574696Y-85335646D01*
X121574697Y-85335646D01*
X121574699Y-85335647D01*
X121699997Y-85355492D01*
X121700000Y-85355492D01*
X121700003Y-85355492D01*
X121825300Y-85335647D01*
X121825301Y-85335647D01*
X121825302Y-85335646D01*
X121825304Y-85335646D01*
X121938342Y-85278050D01*
X122028050Y-85188342D01*
X122085646Y-85075304D01*
X122085646Y-85075302D01*
X122085647Y-85075301D01*
X122085647Y-85075300D01*
X122105492Y-84950003D01*
X122105492Y-84949996D01*
X122085647Y-84824699D01*
X122085647Y-84824698D01*
X122067125Y-84788347D01*
X122028050Y-84711658D01*
X122028046Y-84711654D01*
X122028045Y-84711652D01*
X121938347Y-84621954D01*
X121938344Y-84621952D01*
X121938342Y-84621950D01*
X121825304Y-84564354D01*
X121825303Y-84564353D01*
X121825300Y-84564352D01*
X121700003Y-84544508D01*
X121699997Y-84544508D01*
X121574699Y-84564352D01*
X121574698Y-84564352D01*
X121527607Y-84588347D01*
X121461658Y-84621950D01*
X121461657Y-84621951D01*
X121461652Y-84621954D01*
X121371954Y-84711652D01*
X121371951Y-84711657D01*
X121371950Y-84711658D01*
X121354561Y-84745786D01*
X121314352Y-84824698D01*
X121314352Y-84824699D01*
X121294508Y-84949996D01*
X121294508Y-84950003D01*
X118997585Y-84950003D01*
X119035646Y-84875304D01*
X119035646Y-84875302D01*
X119035647Y-84875301D01*
X119035647Y-84875300D01*
X119055492Y-84750003D01*
X119055492Y-84749996D01*
X119035647Y-84624699D01*
X119035647Y-84624698D01*
X119017125Y-84588347D01*
X118978050Y-84511658D01*
X118978046Y-84511654D01*
X118978045Y-84511652D01*
X118888347Y-84421954D01*
X118888344Y-84421952D01*
X118888342Y-84421950D01*
X118775304Y-84364354D01*
X118775303Y-84364353D01*
X118775300Y-84364352D01*
X118684699Y-84350003D01*
X123294508Y-84350003D01*
X123314352Y-84475300D01*
X123314352Y-84475301D01*
X123314354Y-84475304D01*
X123371950Y-84588342D01*
X123371952Y-84588344D01*
X123371954Y-84588347D01*
X123461652Y-84678045D01*
X123461654Y-84678046D01*
X123461658Y-84678050D01*
X123574696Y-84735646D01*
X123574697Y-84735646D01*
X123574699Y-84735647D01*
X123699997Y-84755492D01*
X123700000Y-84755492D01*
X123700003Y-84755492D01*
X123825300Y-84735647D01*
X123825301Y-84735647D01*
X123825302Y-84735646D01*
X123825304Y-84735646D01*
X123938342Y-84678050D01*
X124028050Y-84588342D01*
X124085646Y-84475304D01*
X124085646Y-84475302D01*
X124085647Y-84475301D01*
X124085647Y-84475300D01*
X124105492Y-84350003D01*
X124994508Y-84350003D01*
X125014352Y-84475300D01*
X125014352Y-84475301D01*
X125014354Y-84475304D01*
X125071950Y-84588342D01*
X125071952Y-84588344D01*
X125071954Y-84588347D01*
X125161652Y-84678045D01*
X125161654Y-84678046D01*
X125161658Y-84678050D01*
X125274696Y-84735646D01*
X125274697Y-84735646D01*
X125274699Y-84735647D01*
X125399997Y-84755492D01*
X125400000Y-84755492D01*
X125400003Y-84755492D01*
X125525300Y-84735647D01*
X125525301Y-84735647D01*
X125525302Y-84735646D01*
X125525304Y-84735646D01*
X125638342Y-84678050D01*
X125728050Y-84588342D01*
X125747585Y-84550003D01*
X130094508Y-84550003D01*
X130114352Y-84675300D01*
X130114352Y-84675301D01*
X130115752Y-84678048D01*
X130171950Y-84788342D01*
X130171952Y-84788344D01*
X130171954Y-84788347D01*
X130261652Y-84878045D01*
X130261654Y-84878046D01*
X130261658Y-84878050D01*
X130374696Y-84935646D01*
X130374697Y-84935646D01*
X130374699Y-84935647D01*
X130499997Y-84955492D01*
X130500000Y-84955492D01*
X130500003Y-84955492D01*
X130625300Y-84935647D01*
X130625301Y-84935647D01*
X130625302Y-84935646D01*
X130625304Y-84935646D01*
X130738342Y-84878050D01*
X130828050Y-84788342D01*
X130885646Y-84675304D01*
X130885646Y-84675302D01*
X130885647Y-84675301D01*
X130885647Y-84675300D01*
X130905492Y-84550003D01*
X130905492Y-84549996D01*
X130885647Y-84424699D01*
X130885647Y-84424698D01*
X130884247Y-84421950D01*
X130828050Y-84311658D01*
X130828046Y-84311654D01*
X130828045Y-84311652D01*
X130738347Y-84221954D01*
X130738344Y-84221952D01*
X130738342Y-84221950D01*
X130625304Y-84164354D01*
X130625303Y-84164353D01*
X130625300Y-84164352D01*
X130500003Y-84144508D01*
X130499997Y-84144508D01*
X130374699Y-84164352D01*
X130374698Y-84164352D01*
X130299337Y-84202751D01*
X130261658Y-84221950D01*
X130261657Y-84221951D01*
X130261652Y-84221954D01*
X130171954Y-84311652D01*
X130171951Y-84311657D01*
X130171950Y-84311658D01*
X130166704Y-84321954D01*
X130114352Y-84424698D01*
X130114352Y-84424699D01*
X130094508Y-84549996D01*
X130094508Y-84550003D01*
X125747585Y-84550003D01*
X125785646Y-84475304D01*
X125785646Y-84475302D01*
X125785647Y-84475301D01*
X125785647Y-84475300D01*
X125805492Y-84350003D01*
X125805492Y-84349996D01*
X125785647Y-84224699D01*
X125785647Y-84224698D01*
X125784247Y-84221950D01*
X125728050Y-84111658D01*
X125728046Y-84111654D01*
X125728045Y-84111652D01*
X125638347Y-84021954D01*
X125638344Y-84021952D01*
X125638342Y-84021950D01*
X125525304Y-83964354D01*
X125525303Y-83964353D01*
X125525300Y-83964352D01*
X125400003Y-83944508D01*
X125399997Y-83944508D01*
X125274699Y-83964352D01*
X125274698Y-83964352D01*
X125199337Y-84002751D01*
X125161658Y-84021950D01*
X125161657Y-84021951D01*
X125161652Y-84021954D01*
X125071954Y-84111652D01*
X125071951Y-84111657D01*
X125014352Y-84224698D01*
X125014352Y-84224699D01*
X124994508Y-84349996D01*
X124994508Y-84350003D01*
X124105492Y-84350003D01*
X124105492Y-84349996D01*
X124085647Y-84224699D01*
X124085647Y-84224698D01*
X124084247Y-84221950D01*
X124028050Y-84111658D01*
X124028046Y-84111654D01*
X124028045Y-84111652D01*
X123938347Y-84021954D01*
X123938344Y-84021952D01*
X123938342Y-84021950D01*
X123825304Y-83964354D01*
X123825303Y-83964353D01*
X123825300Y-83964352D01*
X123700003Y-83944508D01*
X123699997Y-83944508D01*
X123574699Y-83964352D01*
X123574698Y-83964352D01*
X123499337Y-84002751D01*
X123461658Y-84021950D01*
X123461657Y-84021951D01*
X123461652Y-84021954D01*
X123371954Y-84111652D01*
X123371951Y-84111657D01*
X123314352Y-84224698D01*
X123314352Y-84224699D01*
X123294508Y-84349996D01*
X123294508Y-84350003D01*
X118684699Y-84350003D01*
X118650003Y-84344508D01*
X118649997Y-84344508D01*
X118524699Y-84364352D01*
X118524698Y-84364352D01*
X118449337Y-84402751D01*
X118411658Y-84421950D01*
X118411657Y-84421951D01*
X118403759Y-84427689D01*
X118402864Y-84426457D01*
X118350972Y-84454788D01*
X118281281Y-84449798D01*
X118236922Y-84416586D01*
X118234951Y-84418558D01*
X118138347Y-84321954D01*
X118138344Y-84321952D01*
X118138342Y-84321950D01*
X118025304Y-84264354D01*
X118025303Y-84264353D01*
X118025300Y-84264352D01*
X117900003Y-84244508D01*
X117899997Y-84244508D01*
X117774699Y-84264352D01*
X117774698Y-84264352D01*
X117699337Y-84302751D01*
X117661658Y-84321950D01*
X117661657Y-84321951D01*
X117661652Y-84321954D01*
X117571954Y-84411652D01*
X117571951Y-84411657D01*
X117571950Y-84411658D01*
X117563782Y-84427689D01*
X117514352Y-84524698D01*
X117514352Y-84524699D01*
X117494508Y-84649996D01*
X117494508Y-84650003D01*
X116466389Y-84650003D01*
X116528050Y-84588342D01*
X116585646Y-84475304D01*
X116585646Y-84475302D01*
X116585647Y-84475301D01*
X116585647Y-84475300D01*
X116605492Y-84350003D01*
X116605492Y-84349996D01*
X116585647Y-84224699D01*
X116585647Y-84224698D01*
X116584247Y-84221950D01*
X116528050Y-84111658D01*
X116528046Y-84111654D01*
X116528045Y-84111652D01*
X116438347Y-84021954D01*
X116438344Y-84021952D01*
X116438342Y-84021950D01*
X116325304Y-83964354D01*
X116325303Y-83964353D01*
X116325300Y-83964352D01*
X116200003Y-83944508D01*
X116199997Y-83944508D01*
X116074699Y-83964352D01*
X116074698Y-83964352D01*
X115999337Y-84002751D01*
X115961658Y-84021950D01*
X115961657Y-84021951D01*
X115961652Y-84021954D01*
X115937681Y-84045926D01*
X115876358Y-84079411D01*
X115806666Y-84074427D01*
X115762319Y-84045926D01*
X115738347Y-84021954D01*
X115738344Y-84021952D01*
X115738342Y-84021950D01*
X115625304Y-83964354D01*
X115625303Y-83964353D01*
X115625300Y-83964352D01*
X115500003Y-83944508D01*
X115499997Y-83944508D01*
X115374699Y-83964352D01*
X115374698Y-83964352D01*
X115299337Y-84002751D01*
X115261658Y-84021950D01*
X115261657Y-84021951D01*
X115261652Y-84021954D01*
X115237681Y-84045926D01*
X115176358Y-84079411D01*
X115106666Y-84074427D01*
X115062319Y-84045926D01*
X115038347Y-84021954D01*
X115038344Y-84021952D01*
X115038342Y-84021950D01*
X114925304Y-83964354D01*
X114925303Y-83964353D01*
X114925300Y-83964352D01*
X114800003Y-83944508D01*
X114799997Y-83944508D01*
X114674699Y-83964352D01*
X114674698Y-83964352D01*
X114599337Y-84002751D01*
X114561658Y-84021950D01*
X114561657Y-84021951D01*
X114561652Y-84021954D01*
X114537681Y-84045926D01*
X114476358Y-84079411D01*
X114406666Y-84074427D01*
X114362319Y-84045926D01*
X114338347Y-84021954D01*
X114338344Y-84021952D01*
X114338342Y-84021950D01*
X114225304Y-83964354D01*
X114225303Y-83964353D01*
X114225300Y-83964352D01*
X114100003Y-83944508D01*
X114099997Y-83944508D01*
X113974699Y-83964352D01*
X113974698Y-83964352D01*
X113899337Y-84002751D01*
X113861658Y-84021950D01*
X113861657Y-84021951D01*
X113861652Y-84021954D01*
X113771954Y-84111652D01*
X113771951Y-84111657D01*
X113714352Y-84224698D01*
X113714352Y-84224699D01*
X113694508Y-84349996D01*
X113694508Y-84350003D01*
X113714352Y-84475300D01*
X113714352Y-84475301D01*
X113714354Y-84475304D01*
X113759727Y-84564354D01*
X113767194Y-84579007D01*
X113780090Y-84647676D01*
X113753814Y-84712417D01*
X113713006Y-84745786D01*
X113661657Y-84771950D01*
X113661652Y-84771954D01*
X113571954Y-84861652D01*
X113571951Y-84861657D01*
X113571950Y-84861658D01*
X113563599Y-84878048D01*
X113514352Y-84974698D01*
X113514352Y-84974699D01*
X113494508Y-85099996D01*
X113494508Y-85100003D01*
X108300500Y-85100003D01*
X108300500Y-81450003D01*
X115094508Y-81450003D01*
X115114352Y-81575300D01*
X115114352Y-81575301D01*
X115114354Y-81575304D01*
X115171950Y-81688342D01*
X115171952Y-81688344D01*
X115171954Y-81688347D01*
X115261652Y-81778045D01*
X115261654Y-81778046D01*
X115261658Y-81778050D01*
X115374696Y-81835646D01*
X115374697Y-81835646D01*
X115374699Y-81835647D01*
X115499997Y-81855492D01*
X115500000Y-81855492D01*
X115500003Y-81855492D01*
X115625300Y-81835647D01*
X115625301Y-81835647D01*
X115625302Y-81835646D01*
X115625304Y-81835646D01*
X115738342Y-81778050D01*
X115828050Y-81688342D01*
X115885646Y-81575304D01*
X115885646Y-81575302D01*
X115885647Y-81575301D01*
X115885647Y-81575300D01*
X115905492Y-81450003D01*
X115905492Y-81449996D01*
X115885647Y-81324699D01*
X115885647Y-81324698D01*
X115885646Y-81324696D01*
X115828050Y-81211658D01*
X115828046Y-81211654D01*
X115828045Y-81211652D01*
X115738347Y-81121954D01*
X115738344Y-81121952D01*
X115738342Y-81121950D01*
X115625304Y-81064354D01*
X115625303Y-81064353D01*
X115625300Y-81064352D01*
X115500003Y-81044508D01*
X115499997Y-81044508D01*
X115374699Y-81064352D01*
X115374698Y-81064352D01*
X115299337Y-81102751D01*
X115261658Y-81121950D01*
X115261657Y-81121951D01*
X115261652Y-81121954D01*
X115171954Y-81211652D01*
X115171951Y-81211657D01*
X115114352Y-81324698D01*
X115114352Y-81324699D01*
X115094508Y-81449996D01*
X115094508Y-81450003D01*
X108300500Y-81450003D01*
X108300500Y-80950003D01*
X125594508Y-80950003D01*
X125614352Y-81075300D01*
X125614352Y-81075301D01*
X125614354Y-81075304D01*
X125671950Y-81188342D01*
X125671952Y-81188344D01*
X125671954Y-81188347D01*
X125761652Y-81278045D01*
X125761654Y-81278046D01*
X125761658Y-81278050D01*
X125874696Y-81335646D01*
X125874697Y-81335646D01*
X125874699Y-81335647D01*
X125999997Y-81355492D01*
X126000000Y-81355492D01*
X126000003Y-81355492D01*
X126125300Y-81335647D01*
X126125301Y-81335647D01*
X126125302Y-81335646D01*
X126125304Y-81335646D01*
X126238342Y-81278050D01*
X126328050Y-81188342D01*
X126385646Y-81075304D01*
X126385646Y-81075302D01*
X126385647Y-81075301D01*
X126385647Y-81075300D01*
X126405492Y-80950003D01*
X126405492Y-80949996D01*
X126385647Y-80824699D01*
X126385647Y-80824698D01*
X126385646Y-80824696D01*
X126328050Y-80711658D01*
X126328046Y-80711654D01*
X126328045Y-80711652D01*
X126238347Y-80621954D01*
X126238344Y-80621952D01*
X126238342Y-80621950D01*
X126125304Y-80564354D01*
X126125303Y-80564353D01*
X126125300Y-80564352D01*
X126000003Y-80544508D01*
X125999997Y-80544508D01*
X125874699Y-80564352D01*
X125874698Y-80564352D01*
X125799337Y-80602751D01*
X125761658Y-80621950D01*
X125761657Y-80621951D01*
X125761652Y-80621954D01*
X125671954Y-80711652D01*
X125671951Y-80711657D01*
X125614352Y-80824698D01*
X125614352Y-80824699D01*
X125594508Y-80949996D01*
X125594508Y-80950003D01*
X108300500Y-80950003D01*
X108300500Y-80150003D01*
X115094508Y-80150003D01*
X115114352Y-80275300D01*
X115114352Y-80275301D01*
X115114354Y-80275304D01*
X115171950Y-80388342D01*
X115171952Y-80388344D01*
X115171954Y-80388347D01*
X115261652Y-80478045D01*
X115261654Y-80478046D01*
X115261658Y-80478050D01*
X115374696Y-80535646D01*
X115374697Y-80535646D01*
X115374699Y-80535647D01*
X115499997Y-80555492D01*
X115500000Y-80555492D01*
X115500003Y-80555492D01*
X115625300Y-80535647D01*
X115625301Y-80535647D01*
X115625302Y-80535646D01*
X115625304Y-80535646D01*
X115738342Y-80478050D01*
X115828050Y-80388342D01*
X115885646Y-80275304D01*
X115885646Y-80275302D01*
X115885647Y-80275301D01*
X115885647Y-80275300D01*
X115905492Y-80150003D01*
X115905492Y-80149996D01*
X115885647Y-80024699D01*
X115885647Y-80024698D01*
X115860479Y-79975304D01*
X115828050Y-79911658D01*
X115828046Y-79911654D01*
X115828045Y-79911652D01*
X115766396Y-79850003D01*
X125594508Y-79850003D01*
X125614352Y-79975300D01*
X125614352Y-79975301D01*
X125614354Y-79975304D01*
X125671950Y-80088342D01*
X125671952Y-80088344D01*
X125671954Y-80088347D01*
X125761652Y-80178045D01*
X125761654Y-80178046D01*
X125761658Y-80178050D01*
X125874696Y-80235646D01*
X125874697Y-80235646D01*
X125874699Y-80235647D01*
X125999997Y-80255492D01*
X126000000Y-80255492D01*
X126000003Y-80255492D01*
X126125300Y-80235647D01*
X126125301Y-80235647D01*
X126125302Y-80235646D01*
X126125304Y-80235646D01*
X126238342Y-80178050D01*
X126328050Y-80088342D01*
X126385646Y-79975304D01*
X126385646Y-79975302D01*
X126385647Y-79975301D01*
X126385647Y-79975300D01*
X126405492Y-79850003D01*
X126405492Y-79849996D01*
X126385647Y-79724699D01*
X126385647Y-79724698D01*
X126367125Y-79688347D01*
X126328050Y-79611658D01*
X126328046Y-79611654D01*
X126328045Y-79611652D01*
X126238347Y-79521954D01*
X126238344Y-79521952D01*
X126238342Y-79521950D01*
X126125304Y-79464354D01*
X126125303Y-79464353D01*
X126125300Y-79464352D01*
X126034699Y-79450003D01*
X128094508Y-79450003D01*
X128114352Y-79575300D01*
X128114352Y-79575301D01*
X128115752Y-79578048D01*
X128171950Y-79688342D01*
X128171952Y-79688344D01*
X128171954Y-79688347D01*
X128261652Y-79778045D01*
X128261654Y-79778046D01*
X128261658Y-79778050D01*
X128374696Y-79835646D01*
X128374697Y-79835646D01*
X128374699Y-79835647D01*
X128499997Y-79855492D01*
X128500000Y-79855492D01*
X128500003Y-79855492D01*
X128625300Y-79835647D01*
X128625301Y-79835647D01*
X128625302Y-79835646D01*
X128625304Y-79835646D01*
X128738342Y-79778050D01*
X128828050Y-79688342D01*
X128885646Y-79575304D01*
X128885646Y-79575302D01*
X128885647Y-79575301D01*
X128885647Y-79575300D01*
X128905492Y-79450003D01*
X130294508Y-79450003D01*
X130314352Y-79575300D01*
X130314352Y-79575301D01*
X130315752Y-79578048D01*
X130371950Y-79688342D01*
X130371952Y-79688344D01*
X130371954Y-79688347D01*
X130461652Y-79778045D01*
X130461654Y-79778046D01*
X130461658Y-79778050D01*
X130574696Y-79835646D01*
X130574697Y-79835646D01*
X130574699Y-79835647D01*
X130699997Y-79855492D01*
X130700000Y-79855492D01*
X130700003Y-79855492D01*
X130825300Y-79835647D01*
X130825301Y-79835647D01*
X130825302Y-79835646D01*
X130825304Y-79835646D01*
X130938342Y-79778050D01*
X131028050Y-79688342D01*
X131085646Y-79575304D01*
X131085646Y-79575302D01*
X131085647Y-79575301D01*
X131085647Y-79575300D01*
X131105492Y-79450003D01*
X131105492Y-79449996D01*
X131085647Y-79324699D01*
X131085647Y-79324698D01*
X131060479Y-79275304D01*
X131028050Y-79211658D01*
X131028046Y-79211654D01*
X131028045Y-79211652D01*
X130938347Y-79121954D01*
X130938344Y-79121952D01*
X130938342Y-79121950D01*
X130825304Y-79064354D01*
X130825303Y-79064353D01*
X130825300Y-79064352D01*
X130700003Y-79044508D01*
X130699997Y-79044508D01*
X130574699Y-79064352D01*
X130574698Y-79064352D01*
X130499337Y-79102751D01*
X130461658Y-79121950D01*
X130461657Y-79121951D01*
X130461652Y-79121954D01*
X130371954Y-79211652D01*
X130371951Y-79211657D01*
X130314352Y-79324698D01*
X130314352Y-79324699D01*
X130294508Y-79449996D01*
X130294508Y-79450003D01*
X128905492Y-79450003D01*
X128905492Y-79449996D01*
X128885647Y-79324699D01*
X128885647Y-79324698D01*
X128860479Y-79275304D01*
X128828050Y-79211658D01*
X128828046Y-79211654D01*
X128828045Y-79211652D01*
X128738347Y-79121954D01*
X128738344Y-79121952D01*
X128738342Y-79121950D01*
X128625304Y-79064354D01*
X128625303Y-79064353D01*
X128625300Y-79064352D01*
X128500003Y-79044508D01*
X128499997Y-79044508D01*
X128374699Y-79064352D01*
X128374698Y-79064352D01*
X128299337Y-79102751D01*
X128261658Y-79121950D01*
X128261657Y-79121951D01*
X128261652Y-79121954D01*
X128171954Y-79211652D01*
X128171951Y-79211657D01*
X128114352Y-79324698D01*
X128114352Y-79324699D01*
X128094508Y-79449996D01*
X128094508Y-79450003D01*
X126034699Y-79450003D01*
X126000003Y-79444508D01*
X125999997Y-79444508D01*
X125874699Y-79464352D01*
X125874698Y-79464352D01*
X125827607Y-79488347D01*
X125761658Y-79521950D01*
X125761657Y-79521951D01*
X125761652Y-79521954D01*
X125671954Y-79611652D01*
X125671951Y-79611657D01*
X125671950Y-79611658D01*
X125659727Y-79635647D01*
X125614352Y-79724698D01*
X125614352Y-79724699D01*
X125594508Y-79849996D01*
X125594508Y-79850003D01*
X115766396Y-79850003D01*
X115738347Y-79821954D01*
X115738344Y-79821952D01*
X115738342Y-79821950D01*
X115625304Y-79764354D01*
X115625303Y-79764353D01*
X115625300Y-79764352D01*
X115500003Y-79744508D01*
X115499997Y-79744508D01*
X115374699Y-79764352D01*
X115374698Y-79764352D01*
X115299337Y-79802751D01*
X115261658Y-79821950D01*
X115261657Y-79821951D01*
X115261652Y-79821954D01*
X115171954Y-79911652D01*
X115171951Y-79911657D01*
X115114352Y-80024698D01*
X115114352Y-80024699D01*
X115094508Y-80149996D01*
X115094508Y-80150003D01*
X108300500Y-80150003D01*
X108300500Y-79150003D01*
X118494508Y-79150003D01*
X118514352Y-79275300D01*
X118514352Y-79275301D01*
X118514354Y-79275304D01*
X118571950Y-79388342D01*
X118571952Y-79388344D01*
X118571954Y-79388347D01*
X118661652Y-79478045D01*
X118661654Y-79478046D01*
X118661658Y-79478050D01*
X118774696Y-79535646D01*
X118774697Y-79535646D01*
X118774699Y-79535647D01*
X118899997Y-79555492D01*
X118900000Y-79555492D01*
X118900003Y-79555492D01*
X119025300Y-79535647D01*
X119025301Y-79535647D01*
X119025302Y-79535646D01*
X119025304Y-79535646D01*
X119138342Y-79478050D01*
X119228050Y-79388342D01*
X119285646Y-79275304D01*
X119285646Y-79275302D01*
X119285647Y-79275301D01*
X119285647Y-79275300D01*
X119289654Y-79250003D01*
X120694508Y-79250003D01*
X120714352Y-79375300D01*
X120714352Y-79375301D01*
X120732805Y-79411517D01*
X120771950Y-79488342D01*
X120771952Y-79488344D01*
X120771954Y-79488347D01*
X120861652Y-79578045D01*
X120861654Y-79578046D01*
X120861658Y-79578050D01*
X120974696Y-79635646D01*
X120974697Y-79635646D01*
X120974699Y-79635647D01*
X121099997Y-79655492D01*
X121100000Y-79655492D01*
X121100003Y-79655492D01*
X121225300Y-79635647D01*
X121225301Y-79635647D01*
X121225302Y-79635646D01*
X121225304Y-79635646D01*
X121338342Y-79578050D01*
X121428050Y-79488342D01*
X121485646Y-79375304D01*
X121485646Y-79375302D01*
X121485647Y-79375301D01*
X121485647Y-79375300D01*
X121505492Y-79250003D01*
X121505492Y-79249996D01*
X121485647Y-79124699D01*
X121485647Y-79124698D01*
X121484247Y-79121950D01*
X121428050Y-79011658D01*
X121428046Y-79011654D01*
X121428045Y-79011652D01*
X121338347Y-78921954D01*
X121338344Y-78921952D01*
X121338342Y-78921950D01*
X121225304Y-78864354D01*
X121225303Y-78864353D01*
X121225300Y-78864352D01*
X121100003Y-78844508D01*
X121099997Y-78844508D01*
X120974699Y-78864352D01*
X120974698Y-78864352D01*
X120899337Y-78902751D01*
X120861658Y-78921950D01*
X120861657Y-78921951D01*
X120861652Y-78921954D01*
X120771954Y-79011652D01*
X120771951Y-79011657D01*
X120771950Y-79011658D01*
X120755212Y-79044508D01*
X120714352Y-79124698D01*
X120714352Y-79124699D01*
X120694508Y-79249996D01*
X120694508Y-79250003D01*
X119289654Y-79250003D01*
X119305492Y-79150003D01*
X119305492Y-79149996D01*
X119285647Y-79024699D01*
X119285647Y-79024698D01*
X119279000Y-79011652D01*
X119228050Y-78911658D01*
X119228046Y-78911654D01*
X119228045Y-78911652D01*
X119138347Y-78821954D01*
X119138344Y-78821952D01*
X119138342Y-78821950D01*
X119025304Y-78764354D01*
X119025303Y-78764353D01*
X119025300Y-78764352D01*
X118900003Y-78744508D01*
X118899997Y-78744508D01*
X118774699Y-78764352D01*
X118774698Y-78764352D01*
X118703758Y-78800499D01*
X118661658Y-78821950D01*
X118661657Y-78821951D01*
X118661652Y-78821954D01*
X118571954Y-78911652D01*
X118571951Y-78911657D01*
X118571950Y-78911658D01*
X118566704Y-78921954D01*
X118514352Y-79024698D01*
X118514352Y-79024699D01*
X118494508Y-79149996D01*
X118494508Y-79150003D01*
X108300500Y-79150003D01*
X108300500Y-78924500D01*
X108320185Y-78857461D01*
X108372989Y-78811706D01*
X108424500Y-78800500D01*
X108767658Y-78800500D01*
X108767660Y-78800500D01*
X108767662Y-78800499D01*
X108767666Y-78800499D01*
X108899580Y-78770391D01*
X108899580Y-78770390D01*
X108899588Y-78770389D01*
X109020251Y-78712279D01*
X109074052Y-78700000D01*
X109200000Y-78700000D01*
X109200000Y-78574051D01*
X109212278Y-78520253D01*
X109246110Y-78450003D01*
X113594508Y-78450003D01*
X113614352Y-78575300D01*
X113614352Y-78575301D01*
X113614354Y-78575304D01*
X113671950Y-78688342D01*
X113671952Y-78688344D01*
X113671954Y-78688347D01*
X113761652Y-78778045D01*
X113761654Y-78778046D01*
X113761658Y-78778050D01*
X113874696Y-78835646D01*
X113874697Y-78835646D01*
X113874699Y-78835647D01*
X113999997Y-78855492D01*
X114000000Y-78855492D01*
X114000003Y-78855492D01*
X114125300Y-78835647D01*
X114125301Y-78835647D01*
X114125302Y-78835646D01*
X114125304Y-78835646D01*
X114238342Y-78778050D01*
X114328050Y-78688342D01*
X114385646Y-78575304D01*
X114385646Y-78575302D01*
X114385647Y-78575301D01*
X114385647Y-78575300D01*
X114405492Y-78450003D01*
X114405492Y-78449996D01*
X114385647Y-78324699D01*
X114385647Y-78324698D01*
X114385646Y-78324696D01*
X114328050Y-78211658D01*
X114328046Y-78211654D01*
X114328045Y-78211652D01*
X114238347Y-78121954D01*
X114238344Y-78121952D01*
X114238342Y-78121950D01*
X114125304Y-78064354D01*
X114125303Y-78064353D01*
X114125300Y-78064352D01*
X114000003Y-78044508D01*
X113999997Y-78044508D01*
X113874699Y-78064352D01*
X113874698Y-78064352D01*
X113799337Y-78102751D01*
X113761658Y-78121950D01*
X113761657Y-78121951D01*
X113761652Y-78121954D01*
X113671954Y-78211652D01*
X113671951Y-78211657D01*
X113671950Y-78211658D01*
X113652751Y-78249337D01*
X113614352Y-78324698D01*
X113614352Y-78324699D01*
X113594508Y-78449996D01*
X113594508Y-78450003D01*
X109246110Y-78450003D01*
X109270389Y-78399588D01*
X109287482Y-78324696D01*
X109300499Y-78267666D01*
X109300500Y-78267658D01*
X109300500Y-75424500D01*
X109320185Y-75357461D01*
X109372989Y-75311706D01*
X109424500Y-75300500D01*
X115826000Y-75300500D01*
X115893039Y-75320185D01*
G37*
%TD.AperFunction*%
%TD*%
M02*
