M48
; DRILL file {KiCad 7.0.8} date 2024 April 11, Thursday 01:14:03
; FORMAT={-:-/ absolute / inch / decimal}
; #@! TF.CreationDate,2024-04-11T01:14:03+02:00
; #@! TF.GenerationSoftware,Kicad,Pcbnew,7.0.8
; #@! TF.FileFunction,Plated,1,4,PTH
FMAT,2
INCH
; #@! TA.AperFunction,Plated,PTH,ViaDrill
T1C0.0079
%
G90
G05
T1
X4.311Y-4.3406
X4.3819Y-5.1791
X4.3898Y-4.9783
X4.3937Y-3.3878
X4.3937Y-4.8563
X4.4055Y-5.0138
X4.4252Y-3.8199
X4.4449Y-4.7146
X4.4685Y-3.6299
X4.4685Y-5.1791
X4.4714Y-3.5138
X4.4724Y-3.1398
X4.4803Y-3.2382
X4.4843Y-3.3504
X4.4843Y-3.4154
X4.4882Y-3.0886
X4.4921Y-3.3209
X4.4961Y-4.7264
X4.5Y-4.5374
X4.5059Y-3.5925
X4.5197Y-3.3209
X4.5276Y-3.6102
X4.5315Y-3.7008
X4.5394Y-3.8327
X4.5472Y-3.1555
X4.5472Y-3.2067
X4.5472Y-3.3209
X4.5512Y-3.5846
X4.5551Y-3.6614
X4.5591Y-4.7254
X4.563Y-4.8051
X4.5669Y-3.4941
X4.5669Y-4.6791
X4.5669Y-5.1201
X4.5669Y-5.1634
X4.5709Y-5.0925
X4.5748Y-3.3209
X4.5787Y-3.5846
X4.5906Y-3.7697
X4.5906Y-4.9862
X4.5984Y-4.5374
X4.6063Y-3.5731
X4.6063Y-3.2382
X4.6102Y-4.6594
X4.6413Y-3.6728
X4.6417Y-3.3327
X4.6496Y-4.6752
X4.6535Y-3.372
X4.6575Y-4.8051
X4.6575Y-4.8957
X4.6575Y-4.9862
X4.6692Y-3.4902
X4.6713Y-3.3366
X4.6811Y-3.1161
X4.6929Y-4.7697
X4.6969Y-4.5374
X4.7134Y-3.7402
X4.7283Y-3.7697
X4.7362Y-4.9626
X4.7402Y-4.8563
X4.7402Y-4.8839
X4.7402Y-4.998
X4.7441Y-4.8091
X4.7528Y-4.7005
X4.7559Y-4.7343
X4.7598Y-5.187
X4.7677Y-3.1201
X4.7717Y-3.5728
X4.7748Y-3.6066
X4.7835Y-3.498
X4.7874Y-3.3091
X4.7874Y-3.4232
X4.7874Y-3.4508
X4.7913Y-3.3445
X4.7992Y-4.5374
X4.8142Y-4.5669
X4.8307Y-3.7697
X4.8346Y-3.5374
X4.8465Y-5.1909
X4.8563Y-4.9705
X4.8583Y-4.8169
X4.8701Y-3.3209
X4.8701Y-3.4114
X4.8701Y-3.502
X4.874Y-4.935
X4.878Y-3.6319
X4.8858Y-4.9744
X4.8862Y-4.6343
X4.9173Y-3.6476
X4.9213Y-5.0689
X4.9213Y-4.734
X4.9291Y-3.7697
X4.937Y-3.3209
X4.937Y-4.5374
X4.9488Y-4.7224
X4.9528Y-4.9862
X4.9567Y-3.2146
X4.9606Y-3.1437
X4.9606Y-3.187
X4.9606Y-3.628
X4.9606Y-4.813
X4.9646Y-3.502
X4.9685Y-3.5817
X4.9724Y-4.6457
X4.9764Y-4.7224
X4.9803Y-4.9862
X4.9803Y-5.1004
X4.9803Y-5.1516
X4.9882Y-4.4744
X4.9961Y-4.6063
X5.0Y-4.6969
X5.0079Y-4.9862
X5.0217Y-4.7146
X5.0276Y-3.7697
X5.0315Y-3.5807
X5.0354Y-4.9862
X5.0394Y-5.2185
X5.0433Y-4.8917
X5.0433Y-4.9567
X5.0472Y-5.0689
X5.0551Y-5.1673
X5.0561Y-4.7933
X5.0591Y-3.128
X5.0591Y-4.6772
X5.0827Y-3.5925
X5.1024Y-4.4872
X5.122Y-3.2933
X5.1339Y-3.4508
X5.1339Y-4.9193
X5.1378Y-3.3287
X5.1457Y-3.128
X5.2165Y-3.9665
X5.4134Y-4.3406
X5.4843Y-5.1791
X5.4921Y-4.9783
X5.4961Y-3.3878
X5.4961Y-4.8563
X5.5079Y-5.0138
X5.5276Y-3.8199
X5.5472Y-4.7146
X5.5709Y-3.6299
X5.5709Y-5.1791
X5.5738Y-3.5138
X5.5748Y-3.1398
X5.5827Y-3.2382
X5.5866Y-3.3504
X5.5866Y-3.4154
X5.5906Y-3.0886
X5.5945Y-3.3209
X5.5984Y-4.7264
X5.6024Y-4.5374
X5.6083Y-3.5925
X5.622Y-3.3209
X5.6299Y-3.6102
X5.6339Y-3.7008
X5.6417Y-3.8327
X5.6496Y-3.1555
X5.6496Y-3.2067
X5.6496Y-3.3209
X5.6535Y-3.5846
X5.6575Y-3.6614
X5.6614Y-4.7254
X5.6654Y-4.8051
X5.6693Y-3.4941
X5.6693Y-4.6791
X5.6693Y-5.1201
X5.6693Y-5.1634
X5.6732Y-5.0925
X5.6772Y-3.3209
X5.6811Y-3.5846
X5.6929Y-3.7697
X5.6929Y-4.9862
X5.7008Y-4.5374
X5.7087Y-3.5731
X5.7087Y-3.2382
X5.7126Y-4.6594
X5.7437Y-3.6728
X5.7441Y-3.3327
X5.752Y-4.6752
X5.7559Y-3.372
X5.7598Y-4.8051
X5.7598Y-4.8957
X5.7598Y-4.9862
X5.7716Y-3.4902
X5.7736Y-3.3366
X5.7835Y-3.1161
X5.7953Y-4.7697
X5.7992Y-4.5374
X5.8157Y-3.7402
X5.8307Y-3.7697
X5.8386Y-4.9626
X5.8425Y-4.8563
X5.8425Y-4.8839
X5.8425Y-4.998
X5.8465Y-4.8091
X5.8551Y-4.7005
X5.8583Y-4.7343
X5.8622Y-5.187
X5.8701Y-3.1201
X5.874Y-3.5728
X5.8772Y-3.6066
X5.8858Y-3.498
X5.8898Y-3.3091
X5.8898Y-3.4232
X5.8898Y-3.4508
X5.8937Y-3.3445
X5.9016Y-4.5374
X5.9166Y-4.5669
X5.9331Y-3.7697
X5.937Y-3.5374
X5.9488Y-5.1909
X5.9587Y-4.9705
X5.9607Y-4.8169
X5.9724Y-3.3209
X5.9724Y-3.4114
X5.9724Y-3.502
X5.9764Y-4.935
X5.9803Y-3.6319
X5.9882Y-4.9744
X5.9886Y-4.6343
X6.0197Y-3.6476
X6.0236Y-5.0689
X6.0236Y-4.734
X6.0315Y-3.7697
X6.0394Y-3.3209
X6.0394Y-4.5374
X6.0512Y-4.7224
X6.0551Y-4.9862
X6.0591Y-3.2146
X6.063Y-3.1437
X6.063Y-3.187
X6.063Y-3.628
X6.063Y-4.813
X6.0669Y-3.502
X6.0709Y-3.5817
X6.0748Y-4.6457
X6.0787Y-4.7224
X6.0827Y-4.9862
X6.0827Y-5.1004
X6.0827Y-5.1516
X6.0906Y-4.4744
X6.0984Y-4.6063
X6.1024Y-4.6969
X6.1102Y-4.9862
X6.124Y-4.7146
X6.1299Y-3.7697
X6.1339Y-3.5807
X6.1378Y-4.9862
X6.1417Y-5.2185
X6.1457Y-4.8917
X6.1457Y-4.9567
X6.1496Y-5.0689
X6.1575Y-5.1673
X6.1585Y-4.7933
X6.1614Y-3.128
X6.1614Y-4.6772
X6.185Y-3.5925
X6.2047Y-4.4872
X6.2244Y-3.2933
X6.2362Y-3.4508
X6.2362Y-4.9193
X6.2402Y-3.3287
X6.248Y-3.128
X6.3189Y-3.9665
T0
M30
